<svg width="723" height="803" viewBox="0 0 723 803" fill="none" xmlns="http://www.w3.org/2000/svg">
<g clip-path="url(#clip0_17151_7)">
<path d="M0 80C0 57.9086 17.9086 40 40 40H682.16C704.251 40 722.16 57.9086 722.16 80V722.16C722.16 744.251 704.251 762.16 682.16 762.16H40C17.9086 762.16 0 744.251 0 722.16V80Z" fill="#56C02B"/>
<path d="M302.14 429.339C302.563 429.341 302.967 429.511 303.265 429.811C303.563 430.111 303.73 430.516 303.73 430.939V483.769C303.733 483.979 303.693 484.187 303.615 484.382C303.536 484.577 303.419 484.754 303.271 484.903C303.123 485.052 302.947 485.17 302.752 485.25C302.558 485.33 302.35 485.37 302.14 485.369H280.76C280.549 485.371 280.339 485.332 280.143 485.253C279.947 485.173 279.769 485.056 279.619 484.907C279.469 484.758 279.351 484.58 279.27 484.385C279.189 484.19 279.149 483.98 279.15 483.769V430.939C279.153 430.514 279.323 430.107 279.625 429.807C279.927 429.507 280.335 429.339 280.76 429.339H302.14ZM536.9 508.059H184.61C184.179 508.067 183.768 508.244 183.466 508.553C183.165 508.862 182.997 509.277 183 509.709V531.239C183.001 531.449 183.044 531.657 183.126 531.85C183.207 532.044 183.326 532.22 183.476 532.367C183.625 532.515 183.802 532.632 183.997 532.711C184.192 532.79 184.4 532.83 184.61 532.829H536.9C537.325 532.829 537.732 532.662 538.035 532.365C538.338 532.068 538.512 531.663 538.52 531.239V509.709C538.518 509.277 538.347 508.863 538.045 508.555C537.742 508.247 537.332 508.069 536.9 508.059ZM536.9 550.849H184.61C184.4 550.848 184.192 550.888 183.997 550.967C183.802 551.046 183.625 551.163 183.476 551.31C183.326 551.458 183.207 551.634 183.126 551.827C183.044 552.021 183.001 552.229 183 552.439V574.039C183.008 574.462 183.181 574.864 183.481 575.161C183.782 575.459 184.187 575.626 184.61 575.629H536.9C537.324 575.626 537.73 575.459 538.032 575.162C538.335 574.865 538.51 574.462 538.52 574.039V552.439C538.512 552.014 538.338 551.61 538.035 551.313C537.732 551.015 537.325 550.849 536.9 550.849ZM469.87 370.859C465.46 367.419 453.72 359.379 439.39 359.379C429.15 359.379 419.62 363.379 411.1 371.379C410.8 371.663 410.561 372.005 410.399 372.386C410.237 372.766 410.156 373.176 410.16 373.589V375.559C410.139 376.009 410.218 376.459 410.391 376.875C410.564 377.292 410.827 377.665 411.16 377.969C411.501 378.25 411.902 378.448 412.333 378.547C412.763 378.646 413.211 378.643 413.64 378.539C413.868 378.509 414.093 378.456 414.31 378.379C414.972 378.14 415.573 377.758 416.07 377.259C417.91 376.019 422.96 374.319 430.18 374.319C437.64 374.319 452.3 376.319 466.48 389.539L466.8 389.829C467.201 390.235 467.679 390.557 468.206 390.775C468.733 390.994 469.299 391.104 469.87 391.099C470.428 391.103 470.98 390.996 471.496 390.783C472.011 390.57 472.478 390.256 472.87 389.859L473.15 389.559C487.4 376.319 502.04 374.319 509.5 374.319C516.77 374.319 521.8 376.019 523.65 377.259C524.217 377.803 524.901 378.21 525.65 378.449C526.321 378.637 527.028 378.661 527.71 378.519C528.349 378.347 528.914 377.968 529.315 377.442C529.717 376.915 529.933 376.271 529.93 375.609V373.909C529.925 373.5 529.839 373.097 529.675 372.723C529.512 372.348 529.276 372.01 528.98 371.729C520.38 363.529 510.75 359.389 500.35 359.389C486.15 359.389 474.46 367.299 469.94 370.889M448 230.449C447.627 230.631 447.297 230.892 447.033 231.212C446.769 231.533 446.577 231.907 446.47 232.309L446.11 233.479C445.975 233.926 445.947 234.398 446.026 234.858C446.106 235.318 446.292 235.753 446.57 236.129C446.825 236.473 447.152 236.758 447.529 236.962C447.905 237.166 448.322 237.284 448.75 237.309C448.895 237.338 449.045 237.338 449.19 237.309C449.785 237.297 450.37 237.15 450.9 236.879C451.597 236.709 452.313 236.628 453.03 236.639C454.61 236.639 468.81 237.119 478.2 253.079L478.32 253.309C478.551 253.747 478.871 254.133 479.258 254.443C479.645 254.753 480.091 254.979 480.57 255.109C480.938 255.213 481.318 255.27 481.7 255.279C482.318 255.283 482.926 255.132 483.47 254.839L483.7 254.729C488.576 252.227 493.97 250.902 499.45 250.859C508.35 250.859 514.16 254.489 515.52 256.009C515.81 256.525 516.209 256.973 516.69 257.319C517.059 257.53 517.444 257.714 517.84 257.869C518.011 257.907 518.185 257.934 518.36 257.949C518.466 257.959 518.574 257.959 518.68 257.949C519.329 257.943 519.959 257.73 520.479 257.342C520.998 256.954 521.381 256.409 521.57 255.789L521.86 254.789C521.95 254.515 521.994 254.227 521.99 253.939C521.997 253.404 521.855 252.878 521.58 252.419C514.74 240.539 504.81 238.059 497.68 238.059C493.348 238.117 489.058 238.922 485 240.439C481.77 236.099 473.62 227.129 461.24 227.129C456.635 227.187 452.109 228.331 448.03 230.469M373.56 284.649L373.67 286.229C373.69 286.71 373.828 287.179 374.072 287.594C374.316 288.009 374.659 288.358 375.07 288.609C375.419 288.829 375.81 288.974 376.218 289.036C376.625 289.098 377.041 289.075 377.44 288.969C377.61 288.969 377.81 288.859 377.96 288.809C378.552 288.563 379.074 288.175 379.48 287.679C380.98 286.599 385.8 284.629 392.92 284.629C399.76 284.629 410.17 286.459 420.77 295.169L421.02 295.419C421.779 296.065 422.743 296.42 423.74 296.419H424C425.058 296.353 426.049 295.876 426.76 295.089L427 294.829C438.74 282.419 451.39 280.559 457.88 280.559C462.51 280.559 465.79 281.559 467.07 282.239C467.598 282.693 468.224 283.019 468.9 283.189C469.322 283.289 469.758 283.319 470.19 283.279C470.441 283.238 470.688 283.178 470.93 283.099C471.544 282.883 472.07 282.474 472.431 281.933C472.792 281.392 472.967 280.748 472.93 280.099L472.85 278.719C472.823 278.317 472.715 277.925 472.533 277.566C472.35 277.207 472.098 276.888 471.79 276.629C464.79 270.729 457.21 267.759 449.25 267.759C436.86 267.759 426.98 275.079 422.88 278.669C419.13 276.119 410.04 270.869 399.38 270.869C390 270.869 381.6 274.759 374.38 282.419C374.101 282.721 373.885 283.075 373.744 283.461C373.603 283.848 373.541 284.258 373.56 284.669M195.29 312.929C195.29 302.805 199.309 293.096 206.465 285.935C213.621 278.774 223.327 274.747 233.45 274.739C234.28 274.739 235.08 274.809 235.9 274.859C236.459 267.269 238.688 259.896 242.428 253.268C246.168 246.64 251.326 240.92 257.534 236.518C263.742 232.116 270.847 229.14 278.339 227.803C285.831 226.466 293.526 226.802 300.874 228.785C308.221 230.769 315.039 234.352 320.841 239.278C326.642 244.204 331.283 250.351 334.432 257.279C337.581 264.208 339.16 271.747 339.056 279.356C338.952 286.966 337.167 294.459 333.83 301.299C347.717 304.379 359.978 312.478 368.261 324.042C376.544 335.607 380.266 349.822 378.713 363.961C377.16 378.101 370.442 391.169 359.846 400.66C349.251 410.151 335.525 415.396 321.3 415.389C318.97 415.389 244.23 414.939 244.23 414.939C236.248 414.945 228.439 412.613 221.768 408.231C215.097 403.849 209.856 397.608 206.692 390.28C203.529 382.951 202.581 374.857 203.967 366.996C205.353 359.136 209.011 351.853 214.49 346.049C208.654 342.711 203.804 337.89 200.432 332.073C197.06 326.257 195.286 319.652 195.29 312.929Z" fill="white"/>
</g>
<defs>
<clipPath id="clip0_17151_7">
<rect width="722.16" height="802.16" fill="white"/>
</clipPath>
</defs>
</svg>
