<svg width="1537" height="131" viewBox="0 0 1537 131" fill="none" xmlns="http://www.w3.org/2000/svg">
<path d="M6.08 80V24H12.48L15.28 34.56V80H6.08ZM44.88 80L11.36 36.24L12.48 24L46 67.76L44.88 80ZM44.88 80L42.08 70.16V24H51.28V80H44.88ZM77.9838 80.8C74.7304 80.8 71.8238 80.08 69.2638 78.64C66.7571 77.2 64.7838 75.2267 63.3438 72.72C61.9571 70.16 61.2638 67.2267 61.2638 63.92V41.6H70.0638V63.52C70.0638 65.3867 70.3571 66.9867 70.9438 68.32C71.5838 69.6 72.4904 70.5867 73.6638 71.28C74.8904 71.9733 76.3304 72.32 77.9838 72.32C80.5438 72.32 82.4904 71.5733 83.8238 70.08C85.2104 68.5333 85.9038 66.3467 85.9038 63.52V41.6H94.7038V63.92C94.7038 67.28 93.9838 70.24 92.5438 72.8C91.1571 75.3067 89.2104 77.28 86.7038 78.72C84.1971 80.1067 81.2904 80.8 77.9838 80.8ZM73.5038 36.08L69.5038 32.08L79.7438 19.04L86.5438 25.84L73.5038 36.08ZM103.552 80V41.6H112.352V80H103.552ZM129.072 80V57.12C129.072 54.56 128.272 52.5867 126.672 51.2C125.072 49.76 123.099 49.04 120.752 49.04C119.152 49.04 117.712 49.36 116.432 50C115.205 50.64 114.219 51.5733 113.472 52.8C112.725 53.9733 112.352 55.4133 112.352 57.12L108.912 55.2C108.912 52.2667 109.552 49.7333 110.832 47.6C112.112 45.4667 113.845 43.8133 116.032 42.64C118.219 41.4133 120.672 40.8 123.392 40.8C126.112 40.8 128.565 41.3867 130.752 42.56C132.939 43.7333 134.672 45.3867 135.952 47.52C137.232 49.6533 137.872 52.2133 137.872 55.2V80H129.072ZM154.592 80V57.12C154.592 54.56 153.792 52.5867 152.192 51.2C150.592 49.76 148.619 49.04 146.272 49.04C144.725 49.04 143.312 49.36 142.032 50C140.752 50.64 139.739 51.5733 138.992 52.8C138.245 53.9733 137.872 55.4133 137.872 57.12L132.912 55.2C133.179 52.2667 134.032 49.7333 135.472 47.6C136.912 45.4667 138.752 43.8133 140.992 42.64C143.285 41.4133 145.792 40.8 148.512 40.8C151.285 40.8 153.792 41.3867 156.032 42.56C158.272 43.7333 160.059 45.3867 161.392 47.52C162.725 49.6533 163.392 52.2133 163.392 55.2V80H154.592ZM190.298 80.8C186.458 80.8 182.991 79.9467 179.898 78.24C176.858 76.48 174.431 74.08 172.618 71.04C170.858 68 169.978 64.5867 169.978 60.8C169.978 57.0133 170.858 53.6267 172.618 50.64C174.378 47.6 176.751 45.2 179.738 43.44C182.778 41.68 186.138 40.8 189.818 40.8C193.391 40.8 196.538 41.6267 199.258 43.28C202.031 44.9333 204.191 47.2 205.738 50.08C207.338 52.96 208.138 56.24 208.138 59.92C208.138 60.56 208.085 61.2267 207.978 61.92C207.925 62.56 207.818 63.28 207.658 64.08H176.138V56.88H203.098L199.818 59.76C199.711 57.4133 199.258 55.44 198.458 53.84C197.658 52.24 196.511 51.0133 195.018 50.16C193.578 49.3067 191.791 48.88 189.658 48.88C187.418 48.88 185.471 49.36 183.818 50.32C182.165 51.28 180.885 52.64 179.978 54.4C179.071 56.1067 178.618 58.16 178.618 60.56C178.618 62.96 179.098 65.0667 180.058 66.88C181.018 68.6933 182.378 70.1067 184.138 71.12C185.898 72.08 187.925 72.56 190.218 72.56C192.191 72.56 194.005 72.2133 195.658 71.52C197.365 70.8267 198.805 69.8133 199.978 68.48L205.578 74.16C203.711 76.3467 201.445 78 198.778 79.12C196.111 80.24 193.285 80.8 190.298 80.8ZM215.193 80V41.6H223.993V80H215.193ZM223.993 58.64L220.953 57.12C220.953 52.2667 222.019 48.3467 224.153 45.36C226.339 42.32 229.619 40.8 233.993 40.8C235.913 40.8 237.646 41.1467 239.193 41.84C240.739 42.5333 242.179 43.6533 243.513 45.2L237.753 51.12C237.059 50.3733 236.286 49.84 235.433 49.52C234.579 49.2 233.593 49.04 232.473 49.04C230.019 49.04 227.993 49.8133 226.393 51.36C224.793 52.9067 223.993 55.3333 223.993 58.64ZM264.199 80.8C260.465 80.8 257.079 79.92 254.039 78.16C250.999 76.3467 248.572 73.92 246.759 70.88C244.999 67.84 244.119 64.4533 244.119 60.72C244.119 56.9867 244.999 53.6267 246.759 50.64C248.572 47.6533 250.999 45.28 254.039 43.52C257.079 41.7067 260.465 40.8 264.199 40.8C267.985 40.8 271.399 41.68 274.439 43.44C277.479 45.2 279.879 47.6 281.639 50.64C283.452 53.6267 284.359 56.9867 284.359 60.72C284.359 64.4533 283.452 67.84 281.639 70.88C279.879 73.92 277.479 76.3467 274.439 78.16C271.399 79.92 267.985 80.8 264.199 80.8ZM264.199 72.32C266.385 72.32 268.305 71.84 269.959 70.88C271.665 69.8667 272.972 68.48 273.879 66.72C274.839 64.96 275.319 62.96 275.319 60.72C275.319 58.48 274.839 56.5067 273.879 54.8C272.919 53.0933 271.612 51.76 269.959 50.8C268.305 49.7867 266.385 49.28 264.199 49.28C262.065 49.28 260.145 49.7867 258.439 50.8C256.785 51.76 255.479 53.0933 254.519 54.8C253.612 56.5067 253.159 58.48 253.159 60.72C253.159 62.96 253.612 64.96 254.519 66.72C255.479 68.48 256.785 69.8667 258.439 70.88C260.145 71.84 262.065 72.32 264.199 72.32ZM323.773 80.8C320.306 80.8 317.159 79.92 314.333 78.16C311.559 76.4 309.346 74.0267 307.693 71.04C306.093 68 305.293 64.6133 305.293 60.88C305.293 57.0933 306.093 53.7067 307.693 50.72C309.346 47.68 311.559 45.28 314.333 43.52C317.159 41.7067 320.306 40.8 323.773 40.8C326.706 40.8 329.293 41.44 331.533 42.72C333.826 43.9467 335.639 45.6533 336.973 47.84C338.306 50.0267 338.973 52.5067 338.973 55.28V66.32C338.973 69.0933 338.306 71.5733 336.973 73.76C335.693 75.9467 333.906 77.68 331.613 78.96C329.319 80.1867 326.706 80.8 323.773 80.8ZM325.213 72.48C327.399 72.48 329.293 72 330.893 71.04C332.546 70.0267 333.826 68.64 334.733 66.88C335.639 65.12 336.093 63.0933 336.093 60.8C336.093 58.5067 335.639 56.48 334.733 54.72C333.826 52.96 332.546 51.6 330.893 50.64C329.293 49.6267 327.399 49.12 325.213 49.12C323.079 49.12 321.186 49.6267 319.533 50.64C317.933 51.6 316.653 52.96 315.693 54.72C314.786 56.48 314.333 58.5067 314.333 60.8C314.333 63.0933 314.786 65.12 315.693 66.88C316.653 68.64 317.933 70.0267 319.533 71.04C321.186 72 323.079 72.48 325.213 72.48ZM344.333 80H335.533V69.68L337.053 60.32L335.533 51.04V22.4H344.333V80ZM371.939 80.8C368.099 80.8 364.632 79.9467 361.539 78.24C358.499 76.48 356.072 74.08 354.259 71.04C352.499 68 351.619 64.5867 351.619 60.8C351.619 57.0133 352.499 53.6267 354.259 50.64C356.019 47.6 358.392 45.2 361.379 43.44C364.419 41.68 367.779 40.8 371.459 40.8C375.032 40.8 378.179 41.6267 380.899 43.28C383.672 44.9333 385.832 47.2 387.379 50.08C388.979 52.96 389.779 56.24 389.779 59.92C389.779 60.56 389.725 61.2267 389.619 61.92C389.565 62.56 389.459 63.28 389.299 64.08H357.779V56.88H384.739L381.459 59.76C381.352 57.4133 380.899 55.44 380.099 53.84C379.299 52.24 378.152 51.0133 376.659 50.16C375.219 49.3067 373.432 48.88 371.299 48.88C369.059 48.88 367.112 49.36 365.459 50.32C363.805 51.28 362.525 52.64 361.619 54.4C360.712 56.1067 360.259 58.16 360.259 60.56C360.259 62.96 360.739 65.0667 361.699 66.88C362.659 68.6933 364.019 70.1067 365.779 71.12C367.539 72.08 369.565 72.56 371.859 72.56C373.832 72.56 375.645 72.2133 377.299 71.52C379.005 70.8267 380.445 69.8133 381.619 68.48L387.219 74.16C385.352 76.3467 383.085 78 380.419 79.12C377.752 80.24 374.925 80.8 371.939 80.8ZM433.409 80.8C430.475 80.8 427.862 80.1867 425.569 78.96C423.275 77.68 421.462 75.9467 420.129 73.76C418.849 71.5733 418.209 69.0933 418.209 66.32V55.28C418.209 52.5067 418.875 50.0267 420.209 47.84C421.542 45.6533 423.355 43.9467 425.649 42.72C427.942 41.44 430.529 40.8 433.409 40.8C436.875 40.8 439.995 41.7067 442.769 43.52C445.595 45.28 447.809 47.68 449.409 50.72C451.062 53.7067 451.889 57.0933 451.889 60.88C451.889 64.6133 451.062 68 449.409 71.04C447.809 74.0267 445.595 76.4 442.769 78.16C439.995 79.92 436.875 80.8 433.409 80.8ZM412.849 96V41.6H421.649V51.92L420.129 61.28L421.649 70.56V96H412.849ZM431.969 72.48C434.102 72.48 435.969 72 437.569 71.04C439.222 70.0267 440.502 68.64 441.409 66.88C442.369 65.12 442.849 63.0933 442.849 60.8C442.849 58.5067 442.369 56.48 441.409 54.72C440.502 52.96 439.222 51.6 437.569 50.64C435.969 49.6267 434.102 49.12 431.969 49.12C429.835 49.12 427.942 49.6267 426.289 50.64C424.635 51.6 423.355 52.96 422.449 54.72C421.542 56.48 421.089 58.5067 421.089 60.8C421.089 63.0933 421.542 65.12 422.449 66.88C423.355 68.64 424.635 70.0267 426.289 71.04C427.942 72 429.835 72.48 431.969 72.48ZM477.095 80.8C473.255 80.8 469.788 79.9467 466.695 78.24C463.655 76.48 461.228 74.08 459.415 71.04C457.655 68 456.775 64.5867 456.775 60.8C456.775 57.0133 457.655 53.6267 459.415 50.64C461.175 47.6 463.548 45.2 466.535 43.44C469.575 41.68 472.935 40.8 476.615 40.8C480.188 40.8 483.335 41.6267 486.055 43.28C488.828 44.9333 490.988 47.2 492.535 50.08C494.135 52.96 494.935 56.24 494.935 59.92C494.935 60.56 494.882 61.2267 494.775 61.92C494.722 62.56 494.615 63.28 494.455 64.08H462.935V56.88H489.895L486.615 59.76C486.508 57.4133 486.055 55.44 485.255 53.84C484.455 52.24 483.308 51.0133 481.815 50.16C480.375 49.3067 478.588 48.88 476.455 48.88C474.215 48.88 472.268 49.36 470.615 50.32C468.962 51.28 467.682 52.64 466.775 54.4C465.868 56.1067 465.415 58.16 465.415 60.56C465.415 62.96 465.895 65.0667 466.855 66.88C467.815 68.6933 469.175 70.1067 470.935 71.12C472.695 72.08 474.722 72.56 477.015 72.56C478.988 72.56 480.802 72.2133 482.455 71.52C484.162 70.8267 485.602 69.8133 486.775 68.48L492.375 74.16C490.508 76.3467 488.242 78 485.575 79.12C482.908 80.24 480.082 80.8 477.095 80.8ZM514.549 80.8C512.416 80.8 510.363 80.5333 508.389 80C506.416 79.4133 504.603 78.6133 502.949 77.6C501.296 76.5333 499.856 75.2533 498.629 73.76L504.229 68.16C505.563 69.7067 507.083 70.88 508.789 71.68C510.549 72.4267 512.523 72.8 514.709 72.8C516.683 72.8 518.176 72.5067 519.189 71.92C520.203 71.3333 520.709 70.48 520.709 69.36C520.709 68.1867 520.229 67.28 519.269 66.64C518.309 66 517.056 65.4667 515.509 65.04C514.016 64.56 512.416 64.08 510.709 63.6C509.056 63.12 507.456 62.48 505.909 61.68C504.416 60.8267 503.189 59.68 502.229 58.24C501.269 56.8 500.789 54.9333 500.789 52.64C500.789 50.1867 501.349 48.08 502.469 46.32C503.643 44.56 505.269 43.2 507.349 42.24C509.483 41.28 512.016 40.8 514.949 40.8C518.043 40.8 520.763 41.36 523.109 42.48C525.509 43.5467 527.509 45.1733 529.109 47.36L523.509 52.96C522.389 51.5733 521.109 50.5333 519.669 49.84C518.229 49.1467 516.576 48.8 514.709 48.8C512.949 48.8 511.589 49.0667 510.629 49.6C509.669 50.1333 509.189 50.9067 509.189 51.92C509.189 52.9867 509.669 53.8133 510.629 54.4C511.589 54.9867 512.816 55.4933 514.309 55.92C515.856 56.3467 517.456 56.8267 519.109 57.36C520.816 57.84 522.416 58.5333 523.909 59.44C525.456 60.2933 526.709 61.4667 527.669 62.96C528.629 64.4 529.109 66.2933 529.109 68.64C529.109 72.3733 527.803 75.3333 525.189 77.52C522.576 79.7067 519.029 80.8 514.549 80.8ZM548.924 80.8C546.791 80.8 544.738 80.5333 542.764 80C540.791 79.4133 538.978 78.6133 537.324 77.6C535.671 76.5333 534.231 75.2533 533.004 73.76L538.604 68.16C539.938 69.7067 541.458 70.88 543.164 71.68C544.924 72.4267 546.898 72.8 549.084 72.8C551.058 72.8 552.551 72.5067 553.564 71.92C554.578 71.3333 555.084 70.48 555.084 69.36C555.084 68.1867 554.604 67.28 553.644 66.64C552.684 66 551.431 65.4667 549.884 65.04C548.391 64.56 546.791 64.08 545.084 63.6C543.431 63.12 541.831 62.48 540.284 61.68C538.791 60.8267 537.564 59.68 536.604 58.24C535.644 56.8 535.164 54.9333 535.164 52.64C535.164 50.1867 535.724 48.08 536.844 46.32C538.018 44.56 539.644 43.2 541.724 42.24C543.858 41.28 546.391 40.8 549.324 40.8C552.418 40.8 555.138 41.36 557.484 42.48C559.884 43.5467 561.884 45.1733 563.484 47.36L557.884 52.96C556.764 51.5733 555.484 50.5333 554.044 49.84C552.604 49.1467 550.951 48.8 549.084 48.8C547.324 48.8 545.964 49.0667 545.004 49.6C544.044 50.1333 543.564 50.9067 543.564 51.92C543.564 52.9867 544.044 53.8133 545.004 54.4C545.964 54.9867 547.191 55.4933 548.684 55.92C550.231 56.3467 551.831 56.8267 553.484 57.36C555.191 57.84 556.791 58.5333 558.284 59.44C559.831 60.2933 561.084 61.4667 562.044 62.96C563.004 64.4 563.484 66.2933 563.484 68.64C563.484 72.3733 562.178 75.3333 559.564 77.52C556.951 79.7067 553.404 80.8 548.924 80.8ZM588.339 80.8C584.606 80.8 581.219 79.92 578.179 78.16C575.139 76.3467 572.713 73.92 570.899 70.88C569.139 67.84 568.259 64.4533 568.259 60.72C568.259 56.9867 569.139 53.6267 570.899 50.64C572.713 47.6533 575.139 45.28 578.179 43.52C581.219 41.7067 584.606 40.8 588.339 40.8C592.126 40.8 595.539 41.68 598.579 43.44C601.619 45.2 604.019 47.6 605.779 50.64C607.593 53.6267 608.499 56.9867 608.499 60.72C608.499 64.4533 607.593 67.84 605.779 70.88C604.019 73.92 601.619 76.3467 598.579 78.16C595.539 79.92 592.126 80.8 588.339 80.8ZM588.339 72.32C590.526 72.32 592.446 71.84 594.099 70.88C595.806 69.8667 597.113 68.48 598.019 66.72C598.979 64.96 599.459 62.96 599.459 60.72C599.459 58.48 598.979 56.5067 598.019 54.8C597.059 53.0933 595.753 51.76 594.099 50.8C592.446 49.7867 590.526 49.28 588.339 49.28C586.206 49.28 584.286 49.7867 582.579 50.8C580.926 51.76 579.619 53.0933 578.659 54.8C577.753 56.5067 577.299 58.48 577.299 60.72C577.299 62.96 577.753 64.96 578.659 66.72C579.619 68.48 580.926 69.8667 582.579 70.88C584.286 71.84 586.206 72.32 588.339 72.32ZM631.898 80.8C628.431 80.8 625.284 79.92 622.458 78.16C619.684 76.4 617.471 74.0267 615.818 71.04C614.218 68 613.418 64.6133 613.418 60.88C613.418 57.0933 614.218 53.7067 615.818 50.72C617.471 47.68 619.684 45.28 622.458 43.52C625.284 41.7067 628.431 40.8 631.898 40.8C634.831 40.8 637.418 41.44 639.658 42.72C641.951 43.9467 643.764 45.6533 645.098 47.84C646.431 50.0267 647.098 52.5067 647.098 55.28V66.32C647.098 69.0933 646.431 71.5733 645.098 73.76C643.818 75.9467 642.031 77.68 639.738 78.96C637.444 80.1867 634.831 80.8 631.898 80.8ZM633.338 72.48C636.591 72.48 639.204 71.3867 641.178 69.2C643.204 67.0133 644.218 64.2133 644.218 60.8C644.218 58.5067 643.764 56.48 642.858 54.72C641.951 52.96 640.671 51.6 639.018 50.64C637.418 49.6267 635.524 49.12 633.338 49.12C631.204 49.12 629.311 49.6267 627.658 50.64C626.058 51.6 624.778 52.96 623.818 54.72C622.911 56.48 622.458 58.5067 622.458 60.8C622.458 63.0933 622.911 65.12 623.818 66.88C624.778 68.64 626.058 70.0267 627.658 71.04C629.311 72 631.204 72.48 633.338 72.48ZM643.658 80V69.68L645.178 60.32L643.658 51.04V41.6H652.458V80H643.658ZM674.784 80.8C672.65 80.8 670.597 80.5333 668.624 80C666.65 79.4133 664.837 78.6133 663.184 77.6C661.53 76.5333 660.09 75.2533 658.864 73.76L664.464 68.16C665.797 69.7067 667.317 70.88 669.024 71.68C670.784 72.4267 672.757 72.8 674.944 72.8C676.917 72.8 678.41 72.5067 679.424 71.92C680.437 71.3333 680.944 70.48 680.944 69.36C680.944 68.1867 680.464 67.28 679.504 66.64C678.544 66 677.29 65.4667 675.744 65.04C674.25 64.56 672.65 64.08 670.944 63.6C669.29 63.12 667.69 62.48 666.144 61.68C664.65 60.8267 663.424 59.68 662.464 58.24C661.504 56.8 661.024 54.9333 661.024 52.64C661.024 50.1867 661.584 48.08 662.704 46.32C663.877 44.56 665.504 43.2 667.584 42.24C669.717 41.28 672.25 40.8 675.184 40.8C678.277 40.8 680.997 41.36 683.344 42.48C685.744 43.5467 687.744 45.1733 689.344 47.36L683.744 52.96C682.624 51.5733 681.344 50.5333 679.904 49.84C678.464 49.1467 676.81 48.8 674.944 48.8C673.184 48.8 671.824 49.0667 670.864 49.6C669.904 50.1333 669.424 50.9067 669.424 51.92C669.424 52.9867 669.904 53.8133 670.864 54.4C671.824 54.9867 673.05 55.4933 674.544 55.92C676.09 56.3467 677.69 56.8267 679.344 57.36C681.05 57.84 682.65 58.5333 684.144 59.44C685.69 60.2933 686.944 61.4667 687.904 62.96C688.864 64.4 689.344 66.2933 689.344 68.64C689.344 72.3733 688.037 75.3333 685.424 77.52C682.81 79.7067 679.264 80.8 674.784 80.8ZM717.894 80V36.56C717.894 33.6267 718.534 31.04 719.814 28.8C721.148 26.56 722.961 24.8 725.254 23.52C727.601 22.24 730.294 21.6 733.334 21.6C735.681 21.6 737.681 22 739.334 22.8C740.988 23.6 742.534 24.7467 743.974 26.24L738.294 31.92C737.654 31.28 736.961 30.7733 736.214 30.4C735.468 30.0267 734.508 29.84 733.334 29.84C731.201 29.84 729.548 30.4267 728.374 31.6C727.254 32.72 726.694 34.3467 726.694 36.48V80H717.894ZM708.694 49.6V41.6H738.294V49.6H708.694ZM760.527 80.8C756.794 80.8 753.407 79.92 750.367 78.16C747.327 76.3467 744.9 73.92 743.087 70.88C741.327 67.84 740.447 64.4533 740.447 60.72C740.447 56.9867 741.327 53.6267 743.087 50.64C744.9 47.6533 747.327 45.28 750.367 43.52C753.407 41.7067 756.794 40.8 760.527 40.8C764.314 40.8 767.727 41.68 770.767 43.44C773.807 45.2 776.207 47.6 777.967 50.64C779.78 53.6267 780.687 56.9867 780.687 60.72C780.687 64.4533 779.78 67.84 777.967 70.88C776.207 73.92 773.807 76.3467 770.767 78.16C767.727 79.92 764.314 80.8 760.527 80.8ZM760.527 72.32C762.714 72.32 764.634 71.84 766.287 70.88C767.994 69.8667 769.3 68.48 770.207 66.72C771.167 64.96 771.647 62.96 771.647 60.72C771.647 58.48 771.167 56.5067 770.207 54.8C769.247 53.0933 767.94 51.76 766.287 50.8C764.634 49.7867 762.714 49.28 760.527 49.28C758.394 49.28 756.474 49.7867 754.767 50.8C753.114 51.76 751.807 53.0933 750.847 54.8C749.94 56.5067 749.487 58.48 749.487 60.72C749.487 62.96 749.94 64.96 750.847 66.72C751.807 68.48 753.114 69.8667 754.767 70.88C756.474 71.84 758.394 72.32 760.527 72.32ZM788.005 80V41.6H796.805V80H788.005ZM796.805 58.64L793.765 57.12C793.765 52.2667 794.832 48.3467 796.965 45.36C799.152 42.32 802.432 40.8 806.805 40.8C808.725 40.8 810.458 41.1467 812.005 41.84C813.552 42.5333 814.992 43.6533 816.325 45.2L810.565 51.12C809.872 50.3733 809.098 49.84 808.245 49.52C807.392 49.2 806.405 49.04 805.285 49.04C802.832 49.04 800.805 49.8133 799.205 51.36C797.605 52.9067 796.805 55.3333 796.805 58.64ZM820.583 80V41.6H829.383V80H820.583ZM846.103 80V57.12C846.103 54.56 845.303 52.5867 843.703 51.2C842.103 49.76 840.13 49.04 837.783 49.04C836.183 49.04 834.743 49.36 833.463 50C832.236 50.64 831.25 51.5733 830.503 52.8C829.756 53.9733 829.383 55.4133 829.383 57.12L825.943 55.2C825.943 52.2667 826.583 49.7333 827.863 47.6C829.143 45.4667 830.876 43.8133 833.063 42.64C835.25 41.4133 837.703 40.8 840.423 40.8C843.143 40.8 845.596 41.3867 847.783 42.56C849.97 43.7333 851.703 45.3867 852.983 47.52C854.263 49.6533 854.903 52.2133 854.903 55.2V80H846.103ZM871.623 80V57.12C871.623 54.56 870.823 52.5867 869.223 51.2C867.623 49.76 865.65 49.04 863.303 49.04C861.756 49.04 860.343 49.36 859.063 50C857.783 50.64 856.77 51.5733 856.023 52.8C855.276 53.9733 854.903 55.4133 854.903 57.12L849.943 55.2C850.21 52.2667 851.063 49.7333 852.503 47.6C853.943 45.4667 855.783 43.8133 858.023 42.64C860.316 41.4133 862.823 40.8 865.543 40.8C868.316 40.8 870.823 41.3867 873.063 42.56C875.303 43.7333 877.09 45.3867 878.423 47.52C879.756 49.6533 880.423 52.2133 880.423 55.2V80H871.623ZM905.569 80.8C902.103 80.8 898.956 79.92 896.129 78.16C893.356 76.4 891.143 74.0267 889.489 71.04C887.889 68 887.089 64.6133 887.089 60.88C887.089 57.0933 887.889 53.7067 889.489 50.72C891.143 47.68 893.356 45.28 896.129 43.52C898.956 41.7067 902.103 40.8 905.569 40.8C908.503 40.8 911.089 41.44 913.329 42.72C915.623 43.9467 917.436 45.6533 918.769 47.84C920.103 50.0267 920.769 52.5067 920.769 55.28V66.32C920.769 69.0933 920.103 71.5733 918.769 73.76C917.489 75.9467 915.703 77.68 913.409 78.96C911.116 80.1867 908.503 80.8 905.569 80.8ZM907.009 72.48C910.263 72.48 912.876 71.3867 914.849 69.2C916.876 67.0133 917.889 64.2133 917.889 60.8C917.889 58.5067 917.436 56.48 916.529 54.72C915.623 52.96 914.343 51.6 912.689 50.64C911.089 49.6267 909.196 49.12 907.009 49.12C904.876 49.12 902.983 49.6267 901.329 50.64C899.729 51.6 898.449 52.96 897.489 54.72C896.583 56.48 896.129 58.5067 896.129 60.8C896.129 63.0933 896.583 65.12 897.489 66.88C898.449 68.64 899.729 70.0267 901.329 71.04C902.983 72 904.876 72.48 907.009 72.48ZM917.329 80V69.68L918.849 60.32L917.329 51.04V41.6H926.129V80H917.329ZM935.896 80V22.4H944.696V80H935.896ZM954.569 80V41.6H963.369V80H954.569ZM958.969 34.56C957.476 34.56 956.223 34.0533 955.209 33.04C954.249 32.0267 953.769 30.7733 953.769 29.28C953.769 27.7867 954.249 26.5333 955.209 25.52C956.223 24.5067 957.476 24 958.969 24C960.516 24 961.769 24.5067 962.729 25.52C963.689 26.5333 964.169 27.7867 964.169 29.28C964.169 30.7733 963.689 32.0267 962.729 33.04C961.769 34.0533 960.516 34.56 958.969 34.56ZM970.359 75.2L991.799 46.4H1002.12L980.679 75.2H970.359ZM970.359 80V75.2L978.359 72H1001.64V80H970.359ZM971.799 49.6V41.6H1002.12V46.4L994.119 49.6H971.799ZM1024.79 80.8C1021.32 80.8 1018.17 79.92 1015.35 78.16C1012.57 76.4 1010.36 74.0267 1008.71 71.04C1007.11 68 1006.31 64.6133 1006.31 60.88C1006.31 57.0933 1007.11 53.7067 1008.71 50.72C1010.36 47.68 1012.57 45.28 1015.35 43.52C1018.17 41.7067 1021.32 40.8 1024.79 40.8C1027.72 40.8 1030.31 41.44 1032.55 42.72C1034.84 43.9467 1036.65 45.6533 1037.99 47.84C1039.32 50.0267 1039.99 52.5067 1039.99 55.28V66.32C1039.99 69.0933 1039.32 71.5733 1037.99 73.76C1036.71 75.9467 1034.92 77.68 1032.63 78.96C1030.33 80.1867 1027.72 80.8 1024.79 80.8ZM1026.23 72.48C1029.48 72.48 1032.09 71.3867 1034.07 69.2C1036.09 67.0133 1037.11 64.2133 1037.11 60.8C1037.11 58.5067 1036.65 56.48 1035.75 54.72C1034.84 52.96 1033.56 51.6 1031.91 50.64C1030.31 49.6267 1028.41 49.12 1026.23 49.12C1024.09 49.12 1022.2 49.6267 1020.55 50.64C1018.95 51.6 1017.67 52.96 1016.71 54.72C1015.8 56.48 1015.35 58.5067 1015.35 60.8C1015.35 63.0933 1015.8 65.12 1016.71 66.88C1017.67 68.64 1018.95 70.0267 1020.55 71.04C1022.2 72 1024.09 72.48 1026.23 72.48ZM1036.55 80V69.68L1038.07 60.32L1036.55 51.04V41.6H1045.35V80H1036.55ZM1071.19 80.8C1067.73 80.8 1064.58 79.92 1061.75 78.16C1058.98 76.4 1056.77 74.0267 1055.11 71.04C1053.51 68 1052.71 64.6133 1052.71 60.88C1052.71 57.0933 1053.51 53.7067 1055.11 50.72C1056.77 47.68 1058.98 45.28 1061.75 43.52C1064.58 41.7067 1067.73 40.8 1071.19 40.8C1074.13 40.8 1076.71 41.44 1078.95 42.72C1081.25 43.9467 1083.06 45.6533 1084.39 47.84C1085.73 50.0267 1086.39 52.5067 1086.39 55.28V66.32C1086.39 69.0933 1085.73 71.5733 1084.39 73.76C1083.11 75.9467 1081.33 77.68 1079.03 78.96C1076.74 80.1867 1074.13 80.8 1071.19 80.8ZM1072.63 72.48C1074.82 72.48 1076.71 72 1078.31 71.04C1079.97 70.0267 1081.25 68.64 1082.15 66.88C1083.06 65.12 1083.51 63.0933 1083.51 60.8C1083.51 58.5067 1083.06 56.48 1082.15 54.72C1081.25 52.96 1079.97 51.6 1078.31 50.64C1076.71 49.6267 1074.82 49.12 1072.63 49.12C1070.5 49.12 1068.61 49.6267 1066.95 50.64C1065.35 51.6 1064.07 52.96 1063.11 54.72C1062.21 56.48 1061.75 58.5067 1061.75 60.8C1061.75 63.0933 1062.21 65.12 1063.11 66.88C1064.07 68.64 1065.35 70.0267 1066.95 71.04C1068.61 72 1070.5 72.48 1072.63 72.48ZM1091.75 80H1082.95V69.68L1084.47 60.32L1082.95 51.04V22.4H1091.75V80ZM1117.6 80.8C1114.13 80.8 1110.99 79.92 1108.16 78.16C1105.39 76.4 1103.17 74.0267 1101.52 71.04C1099.92 68 1099.12 64.6133 1099.12 60.88C1099.12 57.0933 1099.92 53.7067 1101.52 50.72C1103.17 47.68 1105.39 45.28 1108.16 43.52C1110.99 41.7067 1114.13 40.8 1117.6 40.8C1120.53 40.8 1123.12 41.44 1125.36 42.72C1127.65 43.9467 1129.47 45.6533 1130.8 47.84C1132.13 50.0267 1132.8 52.5067 1132.8 55.28V66.32C1132.8 69.0933 1132.13 71.5733 1130.8 73.76C1129.52 75.9467 1127.73 77.68 1125.44 78.96C1123.15 80.1867 1120.53 80.8 1117.6 80.8ZM1119.04 72.48C1122.29 72.48 1124.91 71.3867 1126.88 69.2C1128.91 67.0133 1129.92 64.2133 1129.92 60.8C1129.92 58.5067 1129.47 56.48 1128.56 54.72C1127.65 52.96 1126.37 51.6 1124.72 50.64C1123.12 49.6267 1121.23 49.12 1119.04 49.12C1116.91 49.12 1115.01 49.6267 1113.36 50.64C1111.76 51.6 1110.48 52.96 1109.52 54.72C1108.61 56.48 1108.16 58.5067 1108.16 60.8C1108.16 63.0933 1108.61 65.12 1109.52 66.88C1110.48 68.64 1111.76 70.0267 1113.36 71.04C1115.01 72 1116.91 72.48 1119.04 72.48ZM1129.36 80V69.68L1130.88 60.32L1129.36 51.04V41.6H1138.16V80H1129.36ZM1160.49 80.8C1158.35 80.8 1156.3 80.5333 1154.33 80C1152.35 79.4133 1150.54 78.6133 1148.89 77.6C1147.23 76.5333 1145.79 75.2533 1144.57 73.76L1150.17 68.16C1151.5 69.7067 1153.02 70.88 1154.73 71.68C1156.49 72.4267 1158.46 72.8 1160.65 72.8C1162.62 72.8 1164.11 72.5067 1165.13 71.92C1166.14 71.3333 1166.65 70.48 1166.65 69.36C1166.65 68.1867 1166.17 67.28 1165.21 66.64C1164.25 66 1162.99 65.4667 1161.45 65.04C1159.95 64.56 1158.35 64.08 1156.65 63.6C1154.99 63.12 1153.39 62.48 1151.85 61.68C1150.35 60.8267 1149.13 59.68 1148.17 58.24C1147.21 56.8 1146.73 54.9333 1146.73 52.64C1146.73 50.1867 1147.29 48.08 1148.41 46.32C1149.58 44.56 1151.21 43.2 1153.29 42.24C1155.42 41.28 1157.95 40.8 1160.89 40.8C1163.98 40.8 1166.7 41.36 1169.05 42.48C1171.45 43.5467 1173.45 45.1733 1175.05 47.36L1169.45 52.96C1168.33 51.5733 1167.05 50.5333 1165.61 49.84C1164.17 49.1467 1162.51 48.8 1160.65 48.8C1158.89 48.8 1157.53 49.0667 1156.57 49.6C1155.61 50.1333 1155.13 50.9067 1155.13 51.92C1155.13 52.9867 1155.61 53.8133 1156.57 54.4C1157.53 54.9867 1158.75 55.4933 1160.25 55.92C1161.79 56.3467 1163.39 56.8267 1165.05 57.36C1166.75 57.84 1168.35 58.5333 1169.85 59.44C1171.39 60.2933 1172.65 61.4667 1173.61 62.96C1174.57 64.4 1175.05 66.2933 1175.05 68.64C1175.05 72.3733 1173.74 75.3333 1171.13 77.52C1168.51 79.7067 1164.97 80.8 1160.49 80.8ZM1216 80.8C1212.21 80.8 1208.77 79.92 1205.68 78.16C1202.64 76.4 1200.24 74 1198.48 70.96C1196.72 67.92 1195.84 64.5333 1195.84 60.8C1195.84 57.0133 1196.72 53.6267 1198.48 50.64C1200.24 47.6 1202.64 45.2 1205.68 43.44C1208.77 41.68 1212.21 40.8 1216 40.8C1218.98 40.8 1221.76 41.3867 1224.32 42.56C1226.93 43.68 1229.14 45.3067 1230.96 47.44L1225.2 53.28C1224.08 51.9467 1222.72 50.96 1221.12 50.32C1219.57 49.6267 1217.86 49.28 1216 49.28C1213.81 49.28 1211.86 49.7867 1210.16 50.8C1208.5 51.76 1207.2 53.0933 1206.24 54.8C1205.33 56.5067 1204.88 58.5067 1204.88 60.8C1204.88 63.04 1205.33 65.04 1206.24 66.8C1207.2 68.5067 1208.5 69.8667 1210.16 70.88C1211.86 71.84 1213.81 72.32 1216 72.32C1217.86 72.32 1219.57 72 1221.12 71.36C1222.72 70.6667 1224.08 69.6533 1225.2 68.32L1230.96 74.16C1229.14 76.2933 1226.93 77.9467 1224.32 79.12C1221.76 80.24 1218.98 80.8 1216 80.8ZM1254.12 80.8C1250.39 80.8 1247 79.92 1243.96 78.16C1240.92 76.3467 1238.49 73.92 1236.68 70.88C1234.92 67.84 1234.04 64.4533 1234.04 60.72C1234.04 56.9867 1234.92 53.6267 1236.68 50.64C1238.49 47.6533 1240.92 45.28 1243.96 43.52C1247 41.7067 1250.39 40.8 1254.12 40.8C1257.91 40.8 1261.32 41.68 1264.36 43.44C1267.4 45.2 1269.8 47.6 1271.56 50.64C1273.37 53.6267 1274.28 56.9867 1274.28 60.72C1274.28 64.4533 1273.37 67.84 1271.56 70.88C1269.8 73.92 1267.4 76.3467 1264.36 78.16C1261.32 79.92 1257.91 80.8 1254.12 80.8ZM1254.12 72.32C1256.31 72.32 1258.23 71.84 1259.88 70.88C1261.59 69.8667 1262.89 68.48 1263.8 66.72C1264.76 64.96 1265.24 62.96 1265.24 60.72C1265.24 58.48 1264.76 56.5067 1263.8 54.8C1262.84 53.0933 1261.53 51.76 1259.88 50.8C1258.23 49.7867 1256.31 49.28 1254.12 49.28C1251.99 49.28 1250.07 49.7867 1248.36 50.8C1246.71 51.76 1245.4 53.0933 1244.44 54.8C1243.53 56.5067 1243.08 58.48 1243.08 60.72C1243.08 62.96 1243.53 64.96 1244.44 66.72C1245.4 68.48 1246.71 69.8667 1248.36 70.88C1250.07 71.84 1251.99 72.32 1254.12 72.32ZM1281.6 80V41.6H1290.4V80H1281.6ZM1307.12 80V57.12C1307.12 54.56 1306.32 52.5867 1304.72 51.2C1303.12 49.76 1301.15 49.04 1298.8 49.04C1297.2 49.04 1295.76 49.36 1294.48 50C1293.25 50.64 1292.27 51.5733 1291.52 52.8C1290.77 53.9733 1290.4 55.4133 1290.4 57.12L1286.96 55.2C1286.96 52.2667 1287.6 49.7333 1288.88 47.6C1290.16 45.4667 1291.89 43.8133 1294.08 42.64C1296.27 41.4133 1298.72 40.8 1301.44 40.8C1304.16 40.8 1306.61 41.3867 1308.8 42.56C1310.99 43.7333 1312.72 45.3867 1314 47.52C1315.28 49.6533 1315.92 52.2133 1315.92 55.2V80H1307.12ZM1332.64 80V57.12C1332.64 54.56 1331.84 52.5867 1330.24 51.2C1328.64 49.76 1326.67 49.04 1324.32 49.04C1322.77 49.04 1321.36 49.36 1320.08 50C1318.8 50.64 1317.79 51.5733 1317.04 52.8C1316.29 53.9733 1315.92 55.4133 1315.92 57.12L1310.96 55.2C1311.23 52.2667 1312.08 49.7333 1313.52 47.6C1314.96 45.4667 1316.8 43.8133 1319.04 42.64C1321.33 41.4133 1323.84 40.8 1326.56 40.8C1329.33 40.8 1331.84 41.3867 1334.08 42.56C1336.32 43.7333 1338.11 45.3867 1339.44 47.52C1340.77 49.6533 1341.44 52.2133 1341.44 55.2V80H1332.64ZM1368.11 80.8C1364.37 80.8 1360.99 79.92 1357.95 78.16C1354.91 76.3467 1352.48 73.92 1350.67 70.88C1348.91 67.84 1348.03 64.4533 1348.03 60.72C1348.03 56.9867 1348.91 53.6267 1350.67 50.64C1352.48 47.6533 1354.91 45.28 1357.95 43.52C1360.99 41.7067 1364.37 40.8 1368.11 40.8C1371.89 40.8 1375.31 41.68 1378.35 43.44C1381.39 45.2 1383.79 47.6 1385.55 50.64C1387.36 53.6267 1388.27 56.9867 1388.27 60.72C1388.27 64.4533 1387.36 67.84 1385.55 70.88C1383.79 73.92 1381.39 76.3467 1378.35 78.16C1375.31 79.92 1371.89 80.8 1368.11 80.8ZM1368.11 72.32C1370.29 72.32 1372.21 71.84 1373.87 70.88C1375.57 69.8667 1376.88 68.48 1377.79 66.72C1378.75 64.96 1379.23 62.96 1379.23 60.72C1379.23 58.48 1378.75 56.5067 1377.79 54.8C1376.83 53.0933 1375.52 51.76 1373.87 50.8C1372.21 49.7867 1370.29 49.28 1368.11 49.28C1365.97 49.28 1364.05 49.7867 1362.35 50.8C1360.69 51.76 1359.39 53.0933 1358.43 54.8C1357.52 56.5067 1357.07 58.48 1357.07 60.72C1357.07 62.96 1357.52 64.96 1358.43 66.72C1359.39 68.48 1360.69 69.8667 1362.35 70.88C1364.05 71.84 1365.97 72.32 1368.11 72.32ZM1412.8 80V24H1419.2L1442.48 62.32H1438.32L1461.6 24H1468V80H1458.8V40.16L1460.88 40.72L1443.6 69.12H1437.2L1419.92 40.72L1422 40.16V80H1412.8ZM1480.14 80V24H1489.34V80H1480.14ZM1486.46 80V71.6H1517.82V80H1486.46ZM1486.46 55.44V47.36H1515.1V55.44H1486.46ZM1486.46 32.4V24H1517.42V32.4H1486.46ZM1527.33 80V24H1536.53V80H1527.33Z" fill="#8A1A3B"/>
</svg>
