<svg width="3945" height="131" viewBox="0 0 3945 131" fill="none" xmlns="http://www.w3.org/2000/svg">
<path d="M12.4 58.88V50.88H26.4C28.32 50.88 30 50.5067 31.44 49.76C32.9333 48.96 34.1067 47.8667 34.96 46.48C35.8133 45.04 36.24 43.36 36.24 41.44C36.24 39.52 35.8133 37.8667 34.96 36.48C34.1067 35.04 32.9333 33.9467 31.44 33.2C30 32.4 28.32 32 26.4 32H12.4V24H26.88C30.4 24 33.5467 24.72 36.32 26.16C39.1467 27.6 41.36 29.6267 42.96 32.24C44.6133 34.8533 45.44 37.92 45.44 41.44C45.44 44.96 44.6133 48.0267 42.96 50.64C41.36 53.2533 39.1467 55.28 36.32 56.72C33.5467 58.16 30.4 58.88 26.88 58.88H12.4ZM6.08 80V24H15.28V80H6.08ZM53.7363 80V24H62.9363V80H53.7363ZM81.3844 80V72H97.4644C100.291 72 102.478 71.12 104.024 69.36C105.571 67.6 106.344 65.5733 106.344 63.28C106.344 61.7333 105.998 60.2933 105.304 58.96C104.611 57.6267 103.598 56.56 102.264 55.76C100.931 54.96 99.331 54.56 97.4644 54.56H81.3844V46.56H96.1044C98.5044 46.56 100.424 45.9467 101.864 44.72C103.304 43.4933 104.024 41.68 104.024 39.28C104.024 36.88 103.304 35.0667 101.864 33.84C100.424 32.6133 98.5044 32 96.1044 32H81.3844V24H96.3444C100.131 24 103.278 24.6933 105.784 26.08C108.291 27.4667 110.158 29.2533 111.384 31.44C112.611 33.6267 113.224 35.9733 113.224 38.48C113.224 41.4133 112.398 44 110.744 46.24C109.144 48.48 106.771 50.2933 103.624 51.68L104.344 48.8C107.864 50.24 110.611 52.2667 112.584 54.88C114.558 57.4933 115.544 60.56 115.544 64.08C115.544 66.96 114.824 69.6 113.384 72C111.998 74.4 109.918 76.3467 107.144 77.84C104.424 79.28 101.064 80 97.0644 80H81.3844ZM75.0644 80V24H84.2644V80H75.0644ZM147.166 58.88V50.88H161.166C163.086 50.88 164.766 50.5067 166.206 49.76C167.699 48.96 168.872 47.8667 169.726 46.48C170.579 45.04 171.006 43.36 171.006 41.44C171.006 39.52 170.579 37.8667 169.726 36.48C168.872 35.04 167.699 33.9467 166.206 33.2C164.766 32.4 163.086 32 161.166 32H147.166V24H161.646C165.166 24 168.312 24.72 171.086 26.16C173.912 27.6 176.126 29.6267 177.726 32.24C179.379 34.8533 180.206 37.92 180.206 41.44C180.206 44.96 179.379 48.0267 177.726 50.64C176.126 53.2533 173.912 55.28 171.086 56.72C168.312 58.16 165.166 58.88 161.646 58.88H147.166ZM140.846 80V24H150.046V80H140.846ZM203.814 80.8C199.974 80.8 196.507 79.9467 193.414 78.24C190.374 76.48 187.947 74.08 186.134 71.04C184.374 68 183.494 64.5867 183.494 60.8C183.494 57.0133 184.374 53.6267 186.134 50.64C187.894 47.6 190.267 45.2 193.254 43.44C196.294 41.68 199.654 40.8 203.334 40.8C206.907 40.8 210.054 41.6267 212.774 43.28C215.547 44.9333 217.707 47.2 219.254 50.08C220.854 52.96 221.654 56.24 221.654 59.92C221.654 60.56 221.6 61.2267 221.494 61.92C221.44 62.56 221.334 63.28 221.174 64.08H189.654V56.88H216.614L213.334 59.76C213.227 57.4133 212.774 55.44 211.974 53.84C211.174 52.24 210.027 51.0133 208.534 50.16C207.094 49.3067 205.307 48.88 203.174 48.88C200.934 48.88 198.987 49.36 197.334 50.32C195.68 51.28 194.4 52.64 193.494 54.4C192.587 56.1067 192.134 58.16 192.134 60.56C192.134 62.96 192.614 65.0667 193.574 66.88C194.534 68.6933 195.894 70.1067 197.654 71.12C199.414 72.08 201.44 72.56 203.734 72.56C205.707 72.56 207.52 72.2133 209.174 71.52C210.88 70.8267 212.32 69.8133 213.494 68.48L219.094 74.16C217.227 76.3467 214.96 78 212.294 79.12C209.627 80.24 206.8 80.8 203.814 80.8ZM228.708 80V41.6H237.508V80H228.708ZM237.508 58.64L234.468 57.12C234.468 52.2667 235.535 48.3467 237.668 45.36C239.855 42.32 243.135 40.8 247.508 40.8C249.428 40.8 251.161 41.1467 252.708 41.84C254.255 42.5333 255.695 43.6533 257.028 45.2L251.268 51.12C250.575 50.3733 249.801 49.84 248.948 49.52C248.095 49.2 247.108 49.04 245.988 49.04C243.535 49.04 241.508 49.8133 239.908 51.36C238.308 52.9067 237.508 55.3333 237.508 58.64ZM305.348 80.8C301.295 80.8 297.535 80.08 294.068 78.64C290.655 77.1467 287.668 75.0933 285.108 72.48C282.548 69.8133 280.575 66.7467 279.188 63.28C277.801 59.76 277.108 56 277.108 52C277.108 48 277.801 44.2667 279.188 40.8C280.575 37.28 282.548 34.2133 285.108 31.6C287.668 28.9867 290.655 26.9333 294.068 25.44C297.535 23.9467 301.295 23.2 305.348 23.2C309.881 23.2 313.801 23.9467 317.108 25.44C320.415 26.9333 323.348 28.96 325.908 31.52L319.668 37.76C318.015 35.9467 315.988 34.5333 313.588 33.52C311.241 32.5067 308.495 32 305.348 32C302.575 32 300.041 32.48 297.748 33.44C295.455 34.4 293.455 35.7867 291.748 37.6C290.095 39.36 288.815 41.4667 287.908 43.92C287.001 46.3733 286.548 49.0667 286.548 52C286.548 54.9333 287.001 57.6267 287.908 60.08C288.815 62.5333 290.095 64.6667 291.748 66.48C293.455 68.24 295.455 69.6 297.748 70.56C300.041 71.52 302.575 72 305.348 72C308.761 72 311.641 71.4933 313.988 70.48C316.388 69.4133 318.415 67.9733 320.068 66.16L326.308 72.4C323.748 75.0133 320.735 77.0667 317.268 78.56C313.801 80.0533 309.828 80.8 305.348 80.8ZM348.226 80.8C344.759 80.8 341.612 79.92 338.786 78.16C336.012 76.4 333.799 74.0267 332.146 71.04C330.546 68 329.746 64.6133 329.746 60.88C329.746 57.0933 330.546 53.7067 332.146 50.72C333.799 47.68 336.012 45.28 338.786 43.52C341.612 41.7067 344.759 40.8 348.226 40.8C351.159 40.8 353.746 41.44 355.986 42.72C358.279 43.9467 360.092 45.6533 361.426 47.84C362.759 50.0267 363.426 52.5067 363.426 55.28V66.32C363.426 69.0933 362.759 71.5733 361.426 73.76C360.146 75.9467 358.359 77.68 356.066 78.96C353.772 80.1867 351.159 80.8 348.226 80.8ZM349.666 72.48C352.919 72.48 355.532 71.3867 357.506 69.2C359.532 67.0133 360.546 64.2133 360.546 60.8C360.546 58.5067 360.092 56.48 359.186 54.72C358.279 52.96 356.999 51.6 355.346 50.64C353.746 49.6267 351.852 49.12 349.666 49.12C347.532 49.12 345.639 49.6267 343.986 50.64C342.386 51.6 341.106 52.96 340.146 54.72C339.239 56.48 338.786 58.5067 338.786 60.8C338.786 63.0933 339.239 65.12 340.146 66.88C341.106 68.64 342.386 70.0267 343.986 71.04C345.639 72 347.532 72.48 349.666 72.48ZM359.986 80V69.68L361.506 60.32L359.986 51.04V41.6H368.786V80H359.986ZM399.112 80.8C396.179 80.8 393.565 80.1867 391.272 78.96C388.979 77.68 387.165 75.9467 385.832 73.76C384.552 71.5733 383.912 69.0933 383.912 66.32V55.28C383.912 52.5067 384.579 50.0267 385.912 47.84C387.245 45.6533 389.059 43.9467 391.352 42.72C393.645 41.44 396.232 40.8 399.112 40.8C402.579 40.8 405.699 41.7067 408.472 43.52C411.299 45.28 413.512 47.68 415.112 50.72C416.765 53.7067 417.592 57.0933 417.592 60.88C417.592 64.6133 416.765 68 415.112 71.04C413.512 74.0267 411.299 76.4 408.472 78.16C405.699 79.92 402.579 80.8 399.112 80.8ZM378.552 96V41.6H387.352V51.92L385.832 61.28L387.352 70.56V96H378.552ZM397.672 72.48C399.805 72.48 401.672 72 403.272 71.04C404.925 70.0267 406.205 68.64 407.112 66.88C408.072 65.12 408.552 63.0933 408.552 60.8C408.552 58.5067 408.072 56.48 407.112 54.72C406.205 52.96 404.925 51.6 403.272 50.64C401.672 49.6267 399.805 49.12 397.672 49.12C395.539 49.12 393.645 49.6267 391.992 50.64C390.339 51.6 389.059 52.96 388.152 54.72C387.245 56.48 386.792 58.5067 386.792 60.8C386.792 63.0933 387.245 65.12 388.152 66.88C389.059 68.64 390.339 70.0267 391.992 71.04C393.645 72 395.539 72.48 397.672 72.48ZM425.038 80V41.6H433.838V80H425.038ZM429.438 34.56C427.945 34.56 426.691 34.0533 425.678 33.04C424.718 32.0267 424.238 30.7733 424.238 29.28C424.238 27.7867 424.718 26.5333 425.678 25.52C426.691 24.5067 427.945 24 429.438 24C430.985 24 432.238 24.5067 433.198 25.52C434.158 26.5333 434.638 27.7867 434.638 29.28C434.638 30.7733 434.158 32.0267 433.198 33.04C432.238 34.0533 430.985 34.56 429.438 34.56ZM449.548 80V25.6H458.348V80H449.548ZM440.348 49.6V41.6H467.548V49.6H440.348ZM488.929 80.8C485.462 80.8 482.315 79.92 479.489 78.16C476.715 76.4 474.502 74.0267 472.849 71.04C471.249 68 470.449 64.6133 470.449 60.88C470.449 57.0933 471.249 53.7067 472.849 50.72C474.502 47.68 476.715 45.28 479.489 43.52C482.315 41.7067 485.462 40.8 488.929 40.8C491.862 40.8 494.449 41.44 496.689 42.72C498.982 43.9467 500.795 45.6533 502.129 47.84C503.462 50.0267 504.129 52.5067 504.129 55.28V66.32C504.129 69.0933 503.462 71.5733 502.129 73.76C500.849 75.9467 499.062 77.68 496.769 78.96C494.475 80.1867 491.862 80.8 488.929 80.8ZM490.369 72.48C493.622 72.48 496.235 71.3867 498.209 69.2C500.235 67.0133 501.249 64.2133 501.249 60.8C501.249 58.5067 500.795 56.48 499.889 54.72C498.982 52.96 497.702 51.6 496.049 50.64C494.449 49.6267 492.555 49.12 490.369 49.12C488.235 49.12 486.342 49.6267 484.689 50.64C483.089 51.6 481.809 52.96 480.849 54.72C479.942 56.48 479.489 58.5067 479.489 60.8C479.489 63.0933 479.942 65.12 480.849 66.88C481.809 68.64 483.089 70.0267 484.689 71.04C486.342 72 488.235 72.48 490.369 72.48ZM500.689 80V69.68L502.209 60.32L500.689 51.04V41.6H509.489V80H500.689ZM536.471 80V24H542.871L545.671 34.56V80H536.471ZM575.271 80L541.751 36.24L542.871 24L576.391 67.76L575.271 80ZM575.271 80L572.471 70.16V24H581.671V80H575.271ZM610.214 80.8C606.481 80.8 603.094 79.92 600.054 78.16C597.014 76.3467 594.588 73.92 592.774 70.88C591.014 67.84 590.134 64.4533 590.134 60.72C590.134 56.9867 591.014 53.6267 592.774 50.64C594.588 47.6533 597.014 45.28 600.054 43.52C603.094 41.7067 606.481 40.8 610.214 40.8C614.001 40.8 617.414 41.68 620.454 43.44C623.494 45.2 625.894 47.6 627.654 50.64C629.468 53.6267 630.374 56.9867 630.374 60.72C630.374 64.4533 629.468 67.84 627.654 70.88C625.894 73.92 623.494 76.3467 620.454 78.16C617.414 79.92 614.001 80.8 610.214 80.8ZM610.214 72.32C612.401 72.32 614.321 71.84 615.974 70.88C617.681 69.8667 618.988 68.48 619.894 66.72C620.854 64.96 621.334 62.96 621.334 60.72C621.334 58.48 620.854 56.5067 619.894 54.8C618.934 53.0933 617.628 51.76 615.974 50.8C614.321 49.7867 612.401 49.28 610.214 49.28C608.081 49.28 606.161 49.7867 604.454 50.8C602.801 51.76 601.494 53.0933 600.534 54.8C599.628 56.5067 599.174 58.48 599.174 60.72C599.174 62.96 599.628 64.96 600.534 66.72C601.494 68.48 602.801 69.8667 604.454 70.88C606.161 71.84 608.081 72.32 610.214 72.32ZM637.693 80V41.6H646.493V80H637.693ZM663.213 80V57.12C663.213 54.56 662.413 52.5867 660.813 51.2C659.213 49.76 657.239 49.04 654.893 49.04C653.293 49.04 651.853 49.36 650.573 50C649.346 50.64 648.359 51.5733 647.613 52.8C646.866 53.9733 646.493 55.4133 646.493 57.12L643.053 55.2C643.053 52.2667 643.693 49.7333 644.973 47.6C646.253 45.4667 647.986 43.8133 650.173 42.64C652.359 41.4133 654.813 40.8 657.533 40.8C660.253 40.8 662.706 41.3867 664.893 42.56C667.079 43.7333 668.813 45.3867 670.093 47.52C671.373 49.6533 672.013 52.2133 672.013 55.2V80H663.213ZM688.733 80V57.12C688.733 54.56 687.933 52.5867 686.333 51.2C684.733 49.76 682.759 49.04 680.413 49.04C678.866 49.04 677.453 49.36 676.173 50C674.893 50.64 673.879 51.5733 673.133 52.8C672.386 53.9733 672.013 55.4133 672.013 57.12L667.053 55.2C667.319 52.2667 668.173 49.7333 669.613 47.6C671.053 45.4667 672.893 43.8133 675.133 42.64C677.426 41.4133 679.933 40.8 682.653 40.8C685.426 40.8 687.933 41.3867 690.173 42.56C692.413 43.7333 694.199 45.3867 695.533 47.52C696.866 49.6533 697.533 52.2133 697.533 55.2V80H688.733ZM706.679 80V41.6H715.479V80H706.679ZM711.079 34.56C709.585 34.56 708.332 34.0533 707.319 33.04C706.359 32.0267 705.879 30.7733 705.879 29.28C705.879 27.7867 706.359 26.5333 707.319 25.52C708.332 24.5067 709.585 24 711.079 24C712.625 24 713.879 24.5067 714.839 25.52C715.799 26.5333 716.279 27.7867 716.279 29.28C716.279 30.7733 715.799 32.0267 714.839 33.04C713.879 34.0533 712.625 34.56 711.079 34.56ZM751.669 80V57.84C751.669 55.28 750.842 53.1733 749.189 51.52C747.589 49.8667 745.509 49.04 742.949 49.04C741.242 49.04 739.722 49.4133 738.389 50.16C737.055 50.9067 736.015 51.9467 735.269 53.28C734.522 54.6133 734.149 56.1333 734.149 57.84L730.709 55.92C730.709 52.9867 731.349 50.4 732.629 48.16C733.909 45.8667 735.669 44.08 737.909 42.8C740.202 41.4667 742.762 40.8 745.589 40.8C748.469 40.8 751.029 41.5467 753.269 43.04C755.509 44.48 757.269 46.3733 758.549 48.72C759.829 51.0133 760.469 53.4133 760.469 55.92V80H751.669ZM725.349 80V41.6H734.149V80H725.349ZM785.491 80.8C782.025 80.8 778.878 79.92 776.051 78.16C773.278 76.4 771.065 74.0267 769.411 71.04C767.811 68 767.011 64.6133 767.011 60.88C767.011 57.0933 767.811 53.7067 769.411 50.72C771.065 47.68 773.278 45.28 776.051 43.52C778.878 41.7067 782.025 40.8 785.491 40.8C788.425 40.8 791.011 41.44 793.251 42.72C795.545 43.9467 797.358 45.6533 798.691 47.84C800.025 50.0267 800.691 52.5067 800.691 55.28V66.32C800.691 69.0933 800.025 71.5733 798.691 73.76C797.411 75.9467 795.625 77.68 793.331 78.96C791.038 80.1867 788.425 80.8 785.491 80.8ZM786.931 72.48C790.185 72.48 792.798 71.3867 794.771 69.2C796.798 67.0133 797.811 64.2133 797.811 60.8C797.811 58.5067 797.358 56.48 796.451 54.72C795.545 52.96 794.265 51.6 792.611 50.64C791.011 49.6267 789.118 49.12 786.931 49.12C784.798 49.12 782.905 49.6267 781.251 50.64C779.651 51.6 778.371 52.96 777.411 54.72C776.505 56.48 776.051 58.5067 776.051 60.8C776.051 63.0933 776.505 65.12 777.411 66.88C778.371 68.64 779.651 70.0267 781.251 71.04C782.905 72 784.798 72.48 786.931 72.48ZM797.251 80V69.68L798.771 60.32L797.251 51.04V41.6H806.051V80H797.251ZM815.818 80V22.4H824.618V80H815.818ZM868.267 80.8C864.427 80.8 860.96 79.9467 857.867 78.24C854.827 76.48 852.4 74.08 850.587 71.04C848.827 68 847.947 64.5867 847.947 60.8C847.947 57.0133 848.827 53.6267 850.587 50.64C852.347 47.6 854.72 45.2 857.707 43.44C860.747 41.68 864.107 40.8 867.787 40.8C871.36 40.8 874.507 41.6267 877.227 43.28C880 44.9333 882.16 47.2 883.707 50.08C885.307 52.96 886.107 56.24 886.107 59.92C886.107 60.56 886.054 61.2267 885.947 61.92C885.894 62.56 885.787 63.28 885.627 64.08H854.107V56.88H881.067L877.787 59.76C877.68 57.4133 877.227 55.44 876.427 53.84C875.627 52.24 874.48 51.0133 872.987 50.16C871.547 49.3067 869.76 48.88 867.627 48.88C865.387 48.88 863.44 49.36 861.787 50.32C860.134 51.28 858.854 52.64 857.947 54.4C857.04 56.1067 856.587 58.16 856.587 60.56C856.587 62.96 857.067 65.0667 858.027 66.88C858.987 68.6933 860.347 70.1067 862.107 71.12C863.867 72.08 865.894 72.56 868.187 72.56C870.16 72.56 871.974 72.2133 873.627 71.52C875.334 70.8267 876.774 69.8133 877.947 68.48L883.547 74.16C881.68 76.3467 879.414 78 876.747 79.12C874.08 80.24 871.254 80.8 868.267 80.8ZM916.697 56.24V48.64H930.857C933.684 48.64 935.87 47.92 937.417 46.48C939.017 44.9867 939.817 42.9333 939.817 40.32C939.817 37.9733 939.044 36 937.497 34.4C935.95 32.8 933.764 32 930.937 32H916.697V24H931.337C934.857 24 937.95 24.72 940.617 26.16C943.284 27.5467 945.337 29.4667 946.777 31.92C948.27 34.32 949.017 37.0667 949.017 40.16C949.017 43.4133 948.27 46.24 946.777 48.64C945.337 51.04 943.284 52.9067 940.617 54.24C937.95 55.5733 934.857 56.24 931.337 56.24H916.697ZM910.377 80V24H919.577V80H910.377ZM941.097 80L921.497 55.68L930.057 52.56L952.697 80H941.097ZM974.986 80.8C971.146 80.8 967.679 79.9467 964.586 78.24C961.546 76.48 959.119 74.08 957.306 71.04C955.546 68 954.666 64.5867 954.666 60.8C954.666 57.0133 955.546 53.6267 957.306 50.64C959.066 47.6 961.439 45.2 964.426 43.44C967.466 41.68 970.826 40.8 974.506 40.8C978.079 40.8 981.226 41.6267 983.946 43.28C986.719 44.9333 988.879 47.2 990.426 50.08C992.026 52.96 992.826 56.24 992.826 59.92C992.826 60.56 992.772 61.2267 992.666 61.92C992.612 62.56 992.506 63.28 992.346 64.08H960.826V56.88H987.786L984.506 59.76C984.399 57.4133 983.946 55.44 983.146 53.84C982.346 52.24 981.199 51.0133 979.706 50.16C978.266 49.3067 976.479 48.88 974.346 48.88C972.106 48.88 970.159 49.36 968.506 50.32C966.852 51.28 965.572 52.64 964.666 54.4C963.759 56.1067 963.306 58.16 963.306 60.56C963.306 62.96 963.786 65.0667 964.746 66.88C965.706 68.6933 967.066 70.1067 968.826 71.12C970.586 72.08 972.612 72.56 974.906 72.56C976.879 72.56 978.692 72.2133 980.346 71.52C982.052 70.8267 983.492 69.8133 984.666 68.48L990.266 74.16C988.399 76.3467 986.132 78 983.466 79.12C980.799 80.24 977.972 80.8 974.986 80.8ZM1015.96 80.8C1012.49 80.8 1009.35 79.92 1006.52 78.16C1003.75 76.4 1001.53 74.0267 999.88 71.04C998.28 68 997.48 64.6133 997.48 60.88C997.48 57.0933 998.28 53.7067 999.88 50.72C1001.53 47.68 1003.75 45.28 1006.52 43.52C1009.35 41.7067 1012.49 40.8 1015.96 40.8C1018.89 40.8 1021.48 41.44 1023.72 42.72C1026.01 43.9467 1027.83 45.6533 1029.16 47.84C1030.49 50.0267 1031.16 52.5067 1031.16 55.28V66.32C1031.16 69.0933 1030.49 71.5733 1029.16 73.76C1027.88 75.9467 1026.09 77.68 1023.8 78.96C1021.51 80.1867 1018.89 80.8 1015.96 80.8ZM1017.4 72.48C1020.65 72.48 1023.27 71.3867 1025.24 69.2C1027.27 67.0133 1028.28 64.2133 1028.28 60.8C1028.28 58.5067 1027.83 56.48 1026.92 54.72C1026.01 52.96 1024.73 51.6 1023.08 50.64C1021.48 49.6267 1019.59 49.12 1017.4 49.12C1015.27 49.12 1013.37 49.6267 1011.72 50.64C1010.12 51.6 1008.84 52.96 1007.88 54.72C1006.97 56.48 1006.52 58.5067 1006.52 60.8C1006.52 63.0933 1006.97 65.12 1007.88 66.88C1008.84 68.64 1010.12 70.0267 1011.72 71.04C1013.37 72 1015.27 72.48 1017.4 72.48ZM1027.72 80V69.68L1029.24 60.32L1027.72 51.04V41.6H1036.52V80H1027.72ZM1046.29 80V22.4H1055.09V80H1046.29ZM1092.98 89.52C1090.15 87.0133 1087.7 83.9467 1085.62 80.32C1083.59 76.6933 1082.02 72.72 1080.9 68.4C1079.78 64.08 1079.22 59.6 1079.22 54.96C1079.22 50.32 1079.78 45.84 1080.9 41.52C1082.02 37.2 1083.59 33.2267 1085.62 29.6C1087.7 25.9733 1090.15 22.9067 1092.98 20.4L1098.02 24.88C1094.5 28.1333 1091.75 32.3467 1089.78 37.52C1087.86 42.64 1086.9 48.4533 1086.9 54.96C1086.9 61.4133 1087.86 67.2267 1089.78 72.4C1091.75 77.5733 1094.5 81.7867 1098.02 85.04L1092.98 89.52ZM1114.87 80L1097.35 41.6H1107.11L1120.47 72.88H1114.71L1128.15 41.6H1137.51L1119.99 80H1114.87ZM1157.44 80.8C1153.98 80.8 1150.83 79.92 1148 78.16C1145.23 76.4 1143.02 74.0267 1141.36 71.04C1139.76 68 1138.96 64.6133 1138.96 60.88C1138.96 57.0933 1139.76 53.7067 1141.36 50.72C1143.02 47.68 1145.23 45.28 1148 43.52C1150.83 41.7067 1153.98 40.8 1157.44 40.8C1160.38 40.8 1162.96 41.44 1165.2 42.72C1167.5 43.9467 1169.31 45.6533 1170.64 47.84C1171.98 50.0267 1172.64 52.5067 1172.64 55.28V66.32C1172.64 69.0933 1171.98 71.5733 1170.64 73.76C1169.36 75.9467 1167.58 77.68 1165.28 78.96C1162.99 80.1867 1160.38 80.8 1157.44 80.8ZM1158.88 72.48C1162.14 72.48 1164.75 71.3867 1166.72 69.2C1168.75 67.0133 1169.76 64.2133 1169.76 60.8C1169.76 58.5067 1169.31 56.48 1168.4 54.72C1167.5 52.96 1166.22 51.6 1164.56 50.64C1162.96 49.6267 1161.07 49.12 1158.88 49.12C1156.75 49.12 1154.86 49.6267 1153.2 50.64C1151.6 51.6 1150.32 52.96 1149.36 54.72C1148.46 56.48 1148 58.5067 1148 60.8C1148 63.0933 1148.46 65.12 1149.36 66.88C1150.32 68.64 1151.6 70.0267 1153.2 71.04C1154.86 72 1156.75 72.48 1158.88 72.48ZM1169.2 80V69.68L1170.72 60.32L1169.2 51.04V41.6H1178V80H1169.2ZM1187.77 80V22.4H1196.57V80H1187.77ZM1223.96 80.8C1220.23 80.8 1216.84 79.92 1213.8 78.16C1210.76 76.3467 1208.34 73.92 1206.52 70.88C1204.76 67.84 1203.88 64.4533 1203.88 60.72C1203.88 56.9867 1204.76 53.6267 1206.52 50.64C1208.34 47.6533 1210.76 45.28 1213.8 43.52C1216.84 41.7067 1220.23 40.8 1223.96 40.8C1227.75 40.8 1231.16 41.68 1234.2 43.44C1237.24 45.2 1239.64 47.6 1241.4 50.64C1243.22 53.6267 1244.12 56.9867 1244.12 60.72C1244.12 64.4533 1243.22 67.84 1241.4 70.88C1239.64 73.92 1237.24 76.3467 1234.2 78.16C1231.16 79.92 1227.75 80.8 1223.96 80.8ZM1223.96 72.32C1226.15 72.32 1228.07 71.84 1229.72 70.88C1231.43 69.8667 1232.74 68.48 1233.64 66.72C1234.6 64.96 1235.08 62.96 1235.08 60.72C1235.08 58.48 1234.6 56.5067 1233.64 54.8C1232.68 53.0933 1231.38 51.76 1229.72 50.8C1228.07 49.7867 1226.15 49.28 1223.96 49.28C1221.83 49.28 1219.91 49.7867 1218.2 50.8C1216.55 51.76 1215.24 53.0933 1214.28 54.8C1213.38 56.5067 1212.92 58.48 1212.92 60.72C1212.92 62.96 1213.38 64.96 1214.28 66.72C1215.24 68.48 1216.55 69.8667 1218.2 70.88C1219.91 71.84 1221.83 72.32 1223.96 72.32ZM1251.44 80V41.6H1260.24V80H1251.44ZM1260.24 58.64L1257.2 57.12C1257.2 52.2667 1258.27 48.3467 1260.4 45.36C1262.59 42.32 1265.87 40.8 1270.24 40.8C1272.16 40.8 1273.9 41.1467 1275.44 41.84C1276.99 42.5333 1278.43 43.6533 1279.76 45.2L1274 51.12C1273.31 50.3733 1272.54 49.84 1271.68 49.52C1270.83 49.2 1269.84 49.04 1268.72 49.04C1266.27 49.04 1264.24 49.8133 1262.64 51.36C1261.04 52.9067 1260.24 55.3333 1260.24 58.64ZM1300.69 80.8C1296.85 80.8 1293.38 79.9467 1290.29 78.24C1287.25 76.48 1284.82 74.08 1283.01 71.04C1281.25 68 1280.37 64.5867 1280.37 60.8C1280.37 57.0133 1281.25 53.6267 1283.01 50.64C1284.77 47.6 1287.14 45.2 1290.13 43.44C1293.17 41.68 1296.53 40.8 1300.21 40.8C1303.78 40.8 1306.93 41.6267 1309.65 43.28C1312.42 44.9333 1314.58 47.2 1316.13 50.08C1317.73 52.96 1318.53 56.24 1318.53 59.92C1318.53 60.56 1318.48 61.2267 1318.37 61.92C1318.32 62.56 1318.21 63.28 1318.05 64.08H1286.53V56.88H1313.49L1310.21 59.76C1310.1 57.4133 1309.65 55.44 1308.85 53.84C1308.05 52.24 1306.9 51.0133 1305.41 50.16C1303.97 49.3067 1302.18 48.88 1300.05 48.88C1297.81 48.88 1295.86 49.36 1294.21 50.32C1292.56 51.28 1291.28 52.64 1290.37 54.4C1289.46 56.1067 1289.01 58.16 1289.01 60.56C1289.01 62.96 1289.49 65.0667 1290.45 66.88C1291.41 68.6933 1292.77 70.1067 1294.53 71.12C1296.29 72.08 1298.32 72.56 1300.61 72.56C1302.58 72.56 1304.4 72.2133 1306.05 71.52C1307.76 70.8267 1309.2 69.8133 1310.37 68.48L1315.97 74.16C1314.1 76.3467 1311.84 78 1309.17 79.12C1306.5 80.24 1303.68 80.8 1300.69 80.8ZM1338.14 80.8C1336.01 80.8 1333.96 80.5333 1331.98 80C1330.01 79.4133 1328.2 78.6133 1326.54 77.6C1324.89 76.5333 1323.45 75.2533 1322.22 73.76L1327.82 68.16C1329.16 69.7067 1330.68 70.88 1332.38 71.68C1334.14 72.4267 1336.12 72.8 1338.3 72.8C1340.28 72.8 1341.77 72.5067 1342.78 71.92C1343.8 71.3333 1344.3 70.48 1344.3 69.36C1344.3 68.1867 1343.82 67.28 1342.86 66.64C1341.9 66 1340.65 65.4667 1339.1 65.04C1337.61 64.56 1336.01 64.08 1334.3 63.6C1332.65 63.12 1331.05 62.48 1329.5 61.68C1328.01 60.8267 1326.78 59.68 1325.82 58.24C1324.86 56.8 1324.38 54.9333 1324.38 52.64C1324.38 50.1867 1324.94 48.08 1326.06 46.32C1327.24 44.56 1328.86 43.2 1330.94 42.24C1333.08 41.28 1335.61 40.8 1338.54 40.8C1341.64 40.8 1344.36 41.36 1346.7 42.48C1349.1 43.5467 1351.1 45.1733 1352.7 47.36L1347.1 52.96C1345.98 51.5733 1344.7 50.5333 1343.26 49.84C1341.82 49.1467 1340.17 48.8 1338.3 48.8C1336.54 48.8 1335.18 49.0667 1334.22 49.6C1333.26 50.1333 1332.78 50.9067 1332.78 51.92C1332.78 52.9867 1333.26 53.8133 1334.22 54.4C1335.18 54.9867 1336.41 55.4933 1337.9 55.92C1339.45 56.3467 1341.05 56.8267 1342.7 57.36C1344.41 57.84 1346.01 58.5333 1347.5 59.44C1349.05 60.2933 1350.3 61.4667 1351.26 62.96C1352.22 64.4 1352.7 66.2933 1352.7 68.64C1352.7 72.3733 1351.4 75.3333 1348.78 77.52C1346.17 79.7067 1342.62 80.8 1338.14 80.8ZM1392.05 80.8C1388.59 80.8 1385.44 79.92 1382.61 78.16C1379.84 76.4 1377.63 74.0267 1375.97 71.04C1374.37 68 1373.57 64.6133 1373.57 60.88C1373.57 57.0933 1374.37 53.7067 1375.97 50.72C1377.63 47.68 1379.84 45.28 1382.61 43.52C1385.44 41.7067 1388.59 40.8 1392.05 40.8C1394.99 40.8 1397.57 41.44 1399.81 42.72C1402.11 43.9467 1403.92 45.6533 1405.25 47.84C1406.59 50.0267 1407.25 52.5067 1407.25 55.28V66.32C1407.25 69.0933 1406.59 71.5733 1405.25 73.76C1403.97 75.9467 1402.19 77.68 1399.89 78.96C1397.6 80.1867 1394.99 80.8 1392.05 80.8ZM1393.49 72.48C1395.68 72.48 1397.57 72 1399.17 71.04C1400.83 70.0267 1402.11 68.64 1403.01 66.88C1403.92 65.12 1404.37 63.0933 1404.37 60.8C1404.37 58.5067 1403.92 56.48 1403.01 54.72C1402.11 52.96 1400.83 51.6 1399.17 50.64C1397.57 49.6267 1395.68 49.12 1393.49 49.12C1391.36 49.12 1389.47 49.6267 1387.81 50.64C1386.21 51.6 1384.93 52.96 1383.97 54.72C1383.07 56.48 1382.61 58.5067 1382.61 60.8C1382.61 63.0933 1383.07 65.12 1383.97 66.88C1384.93 68.64 1386.21 70.0267 1387.81 71.04C1389.47 72 1391.36 72.48 1393.49 72.48ZM1412.61 80H1403.81V69.68L1405.33 60.32L1403.81 51.04V22.4H1412.61V80ZM1440.22 80.8C1436.38 80.8 1432.91 79.9467 1429.82 78.24C1426.78 76.48 1424.35 74.08 1422.54 71.04C1420.78 68 1419.9 64.5867 1419.9 60.8C1419.9 57.0133 1420.78 53.6267 1422.54 50.64C1424.3 47.6 1426.67 45.2 1429.66 43.44C1432.7 41.68 1436.06 40.8 1439.74 40.8C1443.31 40.8 1446.46 41.6267 1449.18 43.28C1451.95 44.9333 1454.11 47.2 1455.66 50.08C1457.26 52.96 1458.06 56.24 1458.06 59.92C1458.06 60.56 1458.01 61.2267 1457.9 61.92C1457.85 62.56 1457.74 63.28 1457.58 64.08H1426.06V56.88H1453.02L1449.74 59.76C1449.63 57.4133 1449.18 55.44 1448.38 53.84C1447.58 52.24 1446.43 51.0133 1444.94 50.16C1443.5 49.3067 1441.71 48.88 1439.58 48.88C1437.34 48.88 1435.39 49.36 1433.74 50.32C1432.09 51.28 1430.81 52.64 1429.9 54.4C1428.99 56.1067 1428.54 58.16 1428.54 60.56C1428.54 62.96 1429.02 65.0667 1429.98 66.88C1430.94 68.6933 1432.3 70.1067 1434.06 71.12C1435.82 72.08 1437.85 72.56 1440.14 72.56C1442.11 72.56 1443.93 72.2133 1445.58 71.52C1447.29 70.8267 1448.73 69.8133 1449.9 68.48L1455.5 74.16C1453.63 76.3467 1451.37 78 1448.7 79.12C1446.03 80.24 1443.21 80.8 1440.22 80.8ZM1478.49 74.56L1499.13 52.64C1500.84 50.8267 1502.22 49.2 1503.29 47.76C1504.36 46.32 1505.13 44.96 1505.61 43.68C1506.09 42.4 1506.33 41.0933 1506.33 39.76C1506.33 37.2533 1505.5 35.3067 1503.85 33.92C1502.25 32.48 1500.2 31.76 1497.69 31.76C1495.02 31.76 1492.68 32.4267 1490.65 33.76C1488.62 35.0933 1486.81 37.1733 1485.21 40L1478.81 34.72C1481 30.9333 1483.69 28.08 1486.89 26.16C1490.09 24.1867 1493.8 23.2 1498.01 23.2C1501.48 23.2 1504.52 23.8933 1507.13 25.28C1509.74 26.6667 1511.77 28.6133 1513.21 31.12C1514.65 33.5733 1515.37 36.4267 1515.37 39.68C1515.37 42.0267 1515.08 44.1333 1514.49 46C1513.96 47.8133 1513.02 49.6533 1511.69 51.52C1510.36 53.3333 1508.52 55.4667 1506.17 57.92L1490.33 74.32L1478.49 74.56ZM1478.49 80V74.56L1486.41 71.76H1516.49V80H1478.49ZM1545.85 80.8C1541.64 80.8 1537.77 79.6267 1534.25 77.28C1530.78 74.88 1528.01 71.52 1525.93 67.2C1523.85 62.88 1522.81 57.7867 1522.81 51.92C1522.81 46.0533 1523.82 40.9867 1525.85 36.72C1527.93 32.4 1530.7 29.0667 1534.17 26.72C1537.64 24.3733 1541.48 23.2 1545.69 23.2C1549.96 23.2 1553.82 24.3733 1557.29 26.72C1560.76 29.0667 1563.5 32.4 1565.53 36.72C1567.61 40.9867 1568.65 46.08 1568.65 52C1568.65 57.8667 1567.61 62.96 1565.53 67.28C1563.5 71.6 1560.76 74.9333 1557.29 77.28C1553.88 79.6267 1550.06 80.8 1545.85 80.8ZM1545.69 72.16C1548.46 72.16 1550.86 71.4133 1552.89 69.92C1554.92 68.4267 1556.49 66.1867 1557.61 63.2C1558.78 60.2133 1559.37 56.4533 1559.37 51.92C1559.37 47.44 1558.78 43.7067 1557.61 40.72C1556.49 37.7333 1554.89 35.52 1552.81 34.08C1550.78 32.5867 1548.41 31.84 1545.69 31.84C1542.97 31.84 1540.57 32.5867 1538.49 34.08C1536.46 35.52 1534.89 37.7333 1533.77 40.72C1532.65 43.6533 1532.09 47.3867 1532.09 51.92C1532.09 56.4533 1532.65 60.2133 1533.77 63.2C1534.89 66.1867 1536.46 68.4267 1538.49 69.92C1540.57 71.4133 1542.97 72.16 1545.69 72.16ZM1585.23 80V24H1594.27V80H1585.23ZM1574.03 32.24V24H1593.47V32.24H1574.03ZM1602.63 60L1622.55 24H1632.95L1612.55 60H1602.63ZM1602.63 65.6V60L1606.55 57.36H1646.07V65.6H1602.63ZM1629.19 80V43.36H1638.23V80H1629.19ZM1655.24 89.52L1650.2 85.04C1653.72 81.7867 1656.44 77.5733 1658.36 72.4C1660.33 67.2267 1661.32 61.4133 1661.32 54.96C1661.32 48.4533 1660.33 42.64 1658.36 37.52C1656.44 32.3467 1653.72 28.1333 1650.2 24.88L1655.24 20.4C1658.07 22.9067 1660.49 25.9733 1662.52 29.6C1664.6 33.2267 1666.2 37.2 1667.32 41.52C1668.44 45.84 1669 50.32 1669 54.96C1669 59.6 1668.44 64.08 1667.32 68.4C1666.2 72.72 1664.6 76.6933 1662.52 80.32C1660.49 83.9467 1658.07 87.0133 1655.24 89.52Z" fill="#8A1A3B"/>
</svg>
