<svg width="4891" height="498" viewBox="0 0 4891 498" fill="none" xmlns="http://www.w3.org/2000/svg">
<g clip-path="url(#clip0_17199_72)">
<path d="M-6.74121 -1.15137H4891V497.507H-6.74121V-1.15137Z" fill="#F0B6C8"/>
<mask id="path-3-outside-1_17199_72" maskUnits="userSpaceOnUse" x="152.633" y="183.894" width="1650" height="128" fill="black">
<rect fill="white" x="152.633" y="183.894" width="1650" height="128"/>
<path d="M153.798 308.894V189.008H165.199L215.986 272.444H208.213L259 189.008H270.401V308.894H254.163V217.511L257.963 218.548L217.887 284.364H206.485L166.408 218.548L170.036 217.511V308.894H153.798ZM335.676 310.621C327.499 310.621 320.129 308.778 313.565 305.093C307 301.293 301.818 296.168 298.017 289.719C294.217 283.27 292.317 275.957 292.317 267.78C292.317 259.719 294.159 252.463 297.845 246.014C301.645 239.565 306.712 234.498 313.046 230.813C319.495 227.012 326.693 225.112 334.639 225.112C342.24 225.112 348.92 226.839 354.678 230.294C360.551 233.749 365.1 238.529 368.325 244.632C371.665 250.736 373.334 257.646 373.334 265.362C373.334 266.513 373.277 267.78 373.162 269.162C373.047 270.429 372.816 271.926 372.471 273.653H303.2V260.698H364.179L358.478 265.707C358.478 260.179 357.499 255.515 355.542 251.715C353.584 247.799 350.82 244.805 347.25 242.732C343.68 240.544 339.361 239.45 334.294 239.45C328.996 239.45 324.332 240.602 320.302 242.905C316.271 245.208 313.161 248.433 310.973 252.579C308.785 256.724 307.691 261.619 307.691 267.262C307.691 273.02 308.843 278.087 311.146 282.463C313.449 286.725 316.732 290.064 320.993 292.483C325.254 294.786 330.148 295.938 335.676 295.938C340.283 295.938 344.486 295.131 348.286 293.519C352.202 291.907 355.542 289.488 358.306 286.264L368.325 296.456C364.409 301.062 359.572 304.575 353.814 306.993C348.171 309.412 342.125 310.621 335.676 310.621ZM392.014 308.894V226.839H407.561V308.894H392.014ZM407.561 262.08L401.688 259.488C401.688 249.008 404.106 240.659 408.943 234.44C413.78 228.221 420.747 225.112 429.845 225.112C433.991 225.112 437.734 225.861 441.074 227.358C444.413 228.74 447.523 231.101 450.402 234.44L440.21 244.978C438.482 243.135 436.582 241.811 434.509 241.005C432.436 240.198 430.018 239.795 427.254 239.795C421.496 239.795 416.774 241.638 413.089 245.323C409.404 249.008 407.561 254.594 407.561 262.08ZM497.862 310.621C489.801 310.621 482.488 308.721 475.924 304.92C469.475 301.12 464.35 295.995 460.549 289.546C456.864 282.982 455.021 275.726 455.021 267.78C455.021 259.719 456.864 252.463 460.549 246.014C464.35 239.565 469.475 234.498 475.924 230.813C482.488 227.012 489.801 225.112 497.862 225.112C504.196 225.112 510.07 226.321 515.482 228.74C520.895 231.043 525.559 234.44 529.475 238.932L519.11 249.296C516.576 246.302 513.467 244.056 509.782 242.559C506.212 240.947 502.239 240.141 497.862 240.141C492.68 240.141 488.073 241.35 484.043 243.769C480.012 246.072 476.845 249.296 474.542 253.442C472.238 257.588 471.087 262.367 471.087 267.78C471.087 273.193 472.238 277.972 474.542 282.118C476.845 286.264 480.012 289.546 484.043 291.964C488.073 294.383 492.68 295.592 497.862 295.592C502.239 295.592 506.212 294.844 509.782 293.346C513.467 291.734 516.634 289.431 519.283 286.437L529.475 296.801C525.674 301.178 521.01 304.575 515.482 306.993C510.07 309.412 504.196 310.621 497.862 310.621ZM579.829 310.621C572.343 310.621 565.548 308.778 559.445 305.093C553.341 301.293 548.504 296.168 544.934 289.719C541.479 283.27 539.752 276.014 539.752 267.953C539.752 259.891 541.479 252.636 544.934 246.187C548.504 239.738 553.284 234.613 559.272 230.813C565.376 227.012 572.228 225.112 579.829 225.112C586.048 225.112 591.575 226.436 596.412 229.085C601.364 231.619 605.337 235.189 608.332 239.795C611.326 244.287 612.996 249.527 613.341 255.515V280.218C612.996 286.091 611.326 291.331 608.332 295.938C605.453 300.544 601.537 304.172 596.585 306.821C591.748 309.354 586.163 310.621 579.829 310.621ZM582.42 295.938C590.136 295.938 596.355 293.346 601.076 288.164C605.798 282.867 608.159 276.129 608.159 267.953C608.159 262.31 607.065 257.415 604.877 253.27C602.804 249.008 599.81 245.726 595.894 243.423C591.979 241.005 587.43 239.795 582.247 239.795C577.065 239.795 572.458 241.005 568.428 243.423C564.512 245.841 561.403 249.181 559.099 253.442C556.911 257.588 555.817 262.367 555.817 267.78C555.817 273.308 556.911 278.202 559.099 282.463C561.403 286.609 564.57 289.892 568.6 292.31C572.631 294.728 577.238 295.938 582.42 295.938ZM607.123 308.894V286.782L610.059 266.744L607.123 246.878V226.839H622.842V308.894H607.123ZM681.927 310.621C674.326 310.621 667.531 308.778 661.543 305.093C655.554 301.293 650.775 296.168 647.205 289.719C643.75 283.27 642.023 276.014 642.023 267.953C642.023 259.891 643.75 252.636 647.205 246.187C650.775 239.738 655.554 234.613 661.543 230.813C667.531 227.012 674.326 225.112 681.927 225.112C688.03 225.112 693.558 226.436 698.51 229.085C703.462 231.619 707.435 235.189 710.43 239.795C713.539 244.287 715.267 249.527 715.612 255.515V280.218C715.267 286.091 713.597 291.331 710.602 295.938C707.608 300.544 703.635 304.172 698.683 306.821C693.731 309.354 688.146 310.621 681.927 310.621ZM684.518 295.938C689.7 295.938 694.192 294.728 697.992 292.31C701.908 289.892 704.959 286.609 707.148 282.463C709.336 278.202 710.43 273.366 710.43 267.953C710.43 262.31 709.278 257.415 706.975 253.27C704.787 249.124 701.735 245.841 697.819 243.423C694.019 241.005 689.528 239.795 684.345 239.795C679.163 239.795 674.614 241.005 670.698 243.423C666.783 245.841 663.673 249.181 661.37 253.442C659.182 257.588 658.088 262.367 658.088 267.78C658.088 273.308 659.182 278.202 661.37 282.463C663.673 286.609 666.783 289.892 670.698 292.31C674.729 294.728 679.336 295.938 684.518 295.938ZM725.113 308.894H709.393V286.782L712.33 266.744L709.393 246.878V185.553H725.113V308.894ZM786.961 310.621C778.9 310.621 771.645 308.721 765.195 304.92C758.746 301.12 753.621 295.995 749.821 289.546C746.021 282.982 744.12 275.669 744.12 267.607C744.12 259.661 746.021 252.521 749.821 246.187C753.621 239.738 758.746 234.613 765.195 230.813C771.645 227.012 778.9 225.112 786.961 225.112C794.908 225.112 802.105 227.012 808.555 230.813C815.119 234.498 820.301 239.565 824.102 246.014C827.902 252.463 829.802 259.661 829.802 267.607C829.802 275.669 827.902 282.982 824.102 289.546C820.301 295.995 815.119 301.12 808.555 304.92C802.105 308.721 794.908 310.621 786.961 310.621ZM786.961 295.592C792.144 295.592 796.75 294.383 800.781 291.964C804.812 289.546 807.979 286.264 810.282 282.118C812.585 277.857 813.737 273.02 813.737 267.607C813.737 262.31 812.528 257.588 810.109 253.442C807.806 249.296 804.639 246.072 800.608 243.769C796.693 241.35 792.144 240.141 786.961 240.141C781.779 240.141 777.172 241.35 773.142 243.769C769.111 246.072 765.944 249.296 763.641 253.442C761.337 257.588 760.186 262.31 760.186 267.607C760.186 273.02 761.337 277.857 763.641 282.118C765.944 286.264 769.111 289.546 773.142 291.964C777.172 294.383 781.779 295.592 786.961 295.592ZM921.429 310.621C913.828 310.621 907.033 308.778 901.045 305.093C895.056 301.293 890.277 296.168 886.707 289.719C883.252 283.27 881.525 276.014 881.525 267.953C881.525 259.891 883.252 252.636 886.707 246.187C890.277 239.738 895.056 234.613 901.045 230.813C907.033 227.012 913.828 225.112 921.429 225.112C927.533 225.112 933.06 226.436 938.012 229.085C942.964 231.619 946.938 235.189 949.932 239.795C953.041 244.287 954.769 249.527 955.114 255.515V280.218C954.769 286.091 953.099 291.331 950.105 295.938C947.11 300.544 943.137 304.172 938.185 306.821C933.233 309.354 927.648 310.621 921.429 310.621ZM924.02 295.938C929.202 295.938 933.694 294.728 937.494 292.31C941.41 289.892 944.462 286.609 946.65 282.463C948.838 278.202 949.932 273.366 949.932 267.953C949.932 262.31 948.78 257.415 946.477 253.27C944.289 249.124 941.237 245.841 937.321 243.423C933.521 241.005 929.03 239.795 923.847 239.795C918.665 239.795 914.116 241.005 910.2 243.423C906.285 245.841 903.175 249.181 900.872 253.442C898.684 257.588 897.59 262.367 897.59 267.78C897.59 273.308 898.684 278.202 900.872 282.463C903.175 286.609 906.285 289.892 910.2 292.31C914.231 294.728 918.838 295.938 924.02 295.938ZM964.615 308.894H948.895V286.782L951.832 266.744L948.895 246.878V185.553H964.615V308.894ZM1026.98 310.621C1018.81 310.621 1011.43 308.778 1004.87 305.093C998.306 301.293 993.124 296.168 989.323 289.719C985.523 283.27 983.623 275.957 983.623 267.78C983.623 259.719 985.465 252.463 989.15 246.014C992.951 239.565 998.018 234.498 1004.35 230.813C1010.8 227.012 1018 225.112 1025.95 225.112C1033.55 225.112 1040.23 226.839 1045.98 230.294C1051.86 233.749 1056.41 238.529 1059.63 244.632C1062.97 250.736 1064.64 257.646 1064.64 265.362C1064.64 266.513 1064.58 267.78 1064.47 269.162C1064.35 270.429 1064.12 271.926 1063.78 273.653H994.506V260.698H1055.48L1049.78 265.707C1049.78 260.179 1048.81 255.515 1046.85 251.715C1044.89 247.799 1042.13 244.805 1038.56 242.732C1034.99 240.544 1030.67 239.45 1025.6 239.45C1020.3 239.45 1015.64 240.602 1011.61 242.905C1007.58 245.208 1004.47 248.433 1002.28 252.579C1000.09 256.724 998.997 261.619 998.997 267.262C998.997 273.02 1000.15 278.087 1002.45 282.463C1004.76 286.725 1008.04 290.064 1012.3 292.483C1016.56 294.786 1021.45 295.938 1026.98 295.938C1031.59 295.938 1035.79 295.131 1039.59 293.519C1043.51 291.907 1046.85 289.488 1049.61 286.264L1059.63 296.456C1055.72 301.062 1050.88 304.575 1045.12 306.993C1039.48 309.412 1033.43 310.621 1026.98 310.621ZM1152.83 308.894V192.463H1169.07V308.894H1152.83ZM1112.06 203.864V189.008H1209.66V203.864H1112.06ZM1209.59 308.894V226.839H1225.13V308.894H1209.59ZM1225.13 262.08L1219.26 259.488C1219.26 249.008 1221.68 240.659 1226.51 234.44C1231.35 228.221 1238.32 225.112 1247.42 225.112C1251.56 225.112 1255.31 225.861 1258.65 227.358C1261.99 228.74 1265.09 231.101 1267.97 234.44L1257.78 244.978C1256.05 243.135 1254.15 241.811 1252.08 241.005C1250.01 240.198 1247.59 239.795 1244.83 239.795C1239.07 239.795 1234.35 241.638 1230.66 245.323C1226.98 249.008 1225.13 254.594 1225.13 262.08ZM1312.84 310.621C1305.36 310.621 1298.56 308.778 1292.46 305.093C1286.36 301.293 1281.52 296.168 1277.95 289.719C1274.49 283.27 1272.77 276.014 1272.77 267.953C1272.77 259.891 1274.49 252.636 1277.95 246.187C1281.52 239.738 1286.3 234.613 1292.29 230.813C1298.39 227.012 1305.24 225.112 1312.84 225.112C1319.06 225.112 1324.59 226.436 1329.43 229.085C1334.38 231.619 1338.35 235.189 1341.35 239.795C1344.34 244.287 1346.01 249.527 1346.36 255.515V280.218C1346.01 286.091 1344.34 291.331 1341.35 295.938C1338.47 300.544 1334.55 304.172 1329.6 306.821C1324.76 309.354 1319.18 310.621 1312.84 310.621ZM1315.43 295.938C1323.15 295.938 1329.37 293.346 1334.09 288.164C1338.81 282.867 1341.17 276.129 1341.17 267.953C1341.17 262.31 1340.08 257.415 1337.89 253.27C1335.82 249.008 1332.82 245.726 1328.91 243.423C1324.99 241.005 1320.44 239.795 1315.26 239.795C1310.08 239.795 1305.47 241.005 1301.44 243.423C1297.53 245.841 1294.42 249.181 1292.11 253.442C1289.93 257.588 1288.83 262.367 1288.83 267.78C1288.83 273.308 1289.93 278.202 1292.11 282.463C1294.42 286.609 1297.58 289.892 1301.61 292.31C1305.65 294.728 1310.25 295.938 1315.43 295.938ZM1340.14 308.894V286.782L1343.07 266.744L1340.14 246.878V226.839H1355.86V308.894H1340.14ZM1423.41 310.621C1417.19 310.621 1411.54 309.354 1406.48 306.821C1401.52 304.172 1397.55 300.544 1394.56 295.938C1391.56 291.331 1389.89 286.091 1389.55 280.218V255.515C1389.89 249.527 1391.56 244.287 1394.56 239.795C1397.67 235.189 1401.7 231.619 1406.65 229.085C1411.72 226.436 1417.3 225.112 1423.41 225.112C1430.89 225.112 1437.63 227.012 1443.62 230.813C1449.72 234.613 1454.5 239.738 1457.95 246.187C1461.41 252.636 1463.14 259.891 1463.14 267.953C1463.14 276.014 1461.41 283.27 1457.95 289.719C1454.5 296.168 1449.72 301.293 1443.62 305.093C1437.63 308.778 1430.89 310.621 1423.41 310.621ZM1380.22 308.894V185.553H1395.77V246.878L1392.83 266.744L1395.77 286.782V308.894H1380.22ZM1420.81 295.938C1426 295.938 1430.55 294.728 1434.46 292.31C1438.38 289.892 1441.49 286.609 1443.79 282.463C1446.09 278.202 1447.24 273.308 1447.24 267.78C1447.24 262.367 1446.09 257.531 1443.79 253.27C1441.49 249.008 1438.38 245.726 1434.46 243.423C1430.55 241.005 1426.05 239.795 1420.99 239.795C1415.8 239.795 1411.26 241.005 1407.34 243.423C1403.42 245.726 1400.37 249.008 1398.18 253.27C1396 257.531 1394.9 262.425 1394.9 267.953C1394.9 273.366 1395.94 278.202 1398.01 282.463C1400.2 286.609 1403.25 289.892 1407.17 292.31C1411.2 294.728 1415.75 295.938 1420.81 295.938ZM1517.38 310.621C1509.9 310.621 1503.1 308.778 1497 305.093C1490.9 301.293 1486.06 296.168 1482.49 289.719C1479.04 283.27 1477.31 276.014 1477.31 267.953C1477.31 259.891 1479.04 252.636 1482.49 246.187C1486.06 239.738 1490.84 234.613 1496.83 230.813C1502.93 227.012 1509.78 225.112 1517.38 225.112C1523.6 225.112 1529.13 226.436 1533.97 229.085C1538.92 231.619 1542.89 235.189 1545.89 239.795C1548.88 244.287 1550.55 249.527 1550.9 255.515V280.218C1550.55 286.091 1548.88 291.331 1545.89 295.938C1543.01 300.544 1539.09 304.172 1534.14 306.821C1529.3 309.354 1523.72 310.621 1517.38 310.621ZM1519.98 295.938C1527.69 295.938 1533.91 293.346 1538.63 288.164C1543.35 282.867 1545.71 276.129 1545.71 267.953C1545.71 262.31 1544.62 257.415 1542.43 253.27C1540.36 249.008 1537.37 245.726 1533.45 243.423C1529.53 241.005 1524.99 239.795 1519.8 239.795C1514.62 239.795 1510.01 241.005 1505.98 243.423C1502.07 245.841 1498.96 249.181 1496.66 253.442C1494.47 257.588 1493.37 262.367 1493.37 267.78C1493.37 273.308 1494.47 278.202 1496.66 282.463C1498.96 286.609 1502.13 289.892 1506.16 292.31C1510.19 294.728 1514.79 295.938 1519.98 295.938ZM1544.68 308.894V286.782L1547.61 266.744L1544.68 246.878V226.839H1560.4V308.894H1544.68ZM1584.76 308.894V185.553H1600.31V308.894H1584.76ZM1682.82 308.894V261.043C1682.82 254.824 1680.87 249.699 1676.95 245.669C1673.04 241.638 1667.97 239.623 1661.75 239.623C1657.6 239.623 1653.92 240.544 1650.69 242.387C1647.47 244.229 1644.94 246.763 1643.09 249.987C1641.25 253.212 1640.33 256.897 1640.33 261.043L1633.94 257.415C1633.94 251.197 1635.32 245.669 1638.08 240.832C1640.85 235.995 1644.71 232.195 1649.66 229.431C1654.61 226.552 1660.2 225.112 1666.41 225.112C1672.63 225.112 1678.1 226.494 1682.82 229.258C1687.66 232.022 1691.46 235.88 1694.23 240.832C1696.99 245.784 1698.37 251.484 1698.37 257.934V308.894H1682.82ZM1624.78 308.894V185.553H1640.33V308.894H1624.78ZM1758.63 310.621C1750.57 310.621 1743.32 308.721 1736.87 304.92C1730.42 301.12 1725.29 295.995 1721.49 289.546C1717.69 282.982 1715.79 275.669 1715.79 267.607C1715.79 259.661 1717.69 252.521 1721.49 246.187C1725.29 239.738 1730.42 234.613 1736.87 230.813C1743.32 227.012 1750.57 225.112 1758.63 225.112C1766.58 225.112 1773.78 227.012 1780.23 230.813C1786.79 234.498 1791.97 239.565 1795.77 246.014C1799.58 252.463 1801.48 259.661 1801.48 267.607C1801.48 275.669 1799.58 282.982 1795.77 289.546C1791.97 295.995 1786.79 301.12 1780.23 304.92C1773.78 308.721 1766.58 310.621 1758.63 310.621ZM1758.63 295.592C1763.82 295.592 1768.42 294.383 1772.45 291.964C1776.48 289.546 1779.65 286.264 1781.96 282.118C1784.26 277.857 1785.41 273.02 1785.41 267.607C1785.41 262.31 1784.2 257.588 1781.78 253.442C1779.48 249.296 1776.31 246.072 1772.28 243.769C1768.37 241.35 1763.82 240.141 1758.63 240.141C1753.45 240.141 1748.85 241.35 1744.81 243.769C1740.78 246.072 1737.62 249.296 1735.31 253.442C1733.01 257.588 1731.86 262.31 1731.86 267.607C1731.86 273.02 1733.01 277.857 1735.31 282.118C1737.62 286.264 1740.78 289.546 1744.81 291.964C1748.85 294.383 1753.45 295.592 1758.63 295.592Z"/>
</mask>
<path d="M153.798 308.894V189.008H165.199L215.986 272.444H208.213L259 189.008H270.401V308.894H254.163V217.511L257.963 218.548L217.887 284.364H206.485L166.408 218.548L170.036 217.511V308.894H153.798ZM335.676 310.621C327.499 310.621 320.129 308.778 313.565 305.093C307 301.293 301.818 296.168 298.017 289.719C294.217 283.27 292.317 275.957 292.317 267.78C292.317 259.719 294.159 252.463 297.845 246.014C301.645 239.565 306.712 234.498 313.046 230.813C319.495 227.012 326.693 225.112 334.639 225.112C342.24 225.112 348.92 226.839 354.678 230.294C360.551 233.749 365.1 238.529 368.325 244.632C371.665 250.736 373.334 257.646 373.334 265.362C373.334 266.513 373.277 267.78 373.162 269.162C373.047 270.429 372.816 271.926 372.471 273.653H303.2V260.698H364.179L358.478 265.707C358.478 260.179 357.499 255.515 355.542 251.715C353.584 247.799 350.82 244.805 347.25 242.732C343.68 240.544 339.361 239.45 334.294 239.45C328.996 239.45 324.332 240.602 320.302 242.905C316.271 245.208 313.161 248.433 310.973 252.579C308.785 256.724 307.691 261.619 307.691 267.262C307.691 273.02 308.843 278.087 311.146 282.463C313.449 286.725 316.732 290.064 320.993 292.483C325.254 294.786 330.148 295.938 335.676 295.938C340.283 295.938 344.486 295.131 348.286 293.519C352.202 291.907 355.542 289.488 358.306 286.264L368.325 296.456C364.409 301.062 359.572 304.575 353.814 306.993C348.171 309.412 342.125 310.621 335.676 310.621ZM392.014 308.894V226.839H407.561V308.894H392.014ZM407.561 262.08L401.688 259.488C401.688 249.008 404.106 240.659 408.943 234.44C413.78 228.221 420.747 225.112 429.845 225.112C433.991 225.112 437.734 225.861 441.074 227.358C444.413 228.74 447.523 231.101 450.402 234.44L440.21 244.978C438.482 243.135 436.582 241.811 434.509 241.005C432.436 240.198 430.018 239.795 427.254 239.795C421.496 239.795 416.774 241.638 413.089 245.323C409.404 249.008 407.561 254.594 407.561 262.08ZM497.862 310.621C489.801 310.621 482.488 308.721 475.924 304.92C469.475 301.12 464.35 295.995 460.549 289.546C456.864 282.982 455.021 275.726 455.021 267.78C455.021 259.719 456.864 252.463 460.549 246.014C464.35 239.565 469.475 234.498 475.924 230.813C482.488 227.012 489.801 225.112 497.862 225.112C504.196 225.112 510.07 226.321 515.482 228.74C520.895 231.043 525.559 234.44 529.475 238.932L519.11 249.296C516.576 246.302 513.467 244.056 509.782 242.559C506.212 240.947 502.239 240.141 497.862 240.141C492.68 240.141 488.073 241.35 484.043 243.769C480.012 246.072 476.845 249.296 474.542 253.442C472.238 257.588 471.087 262.367 471.087 267.78C471.087 273.193 472.238 277.972 474.542 282.118C476.845 286.264 480.012 289.546 484.043 291.964C488.073 294.383 492.68 295.592 497.862 295.592C502.239 295.592 506.212 294.844 509.782 293.346C513.467 291.734 516.634 289.431 519.283 286.437L529.475 296.801C525.674 301.178 521.01 304.575 515.482 306.993C510.07 309.412 504.196 310.621 497.862 310.621ZM579.829 310.621C572.343 310.621 565.548 308.778 559.445 305.093C553.341 301.293 548.504 296.168 544.934 289.719C541.479 283.27 539.752 276.014 539.752 267.953C539.752 259.891 541.479 252.636 544.934 246.187C548.504 239.738 553.284 234.613 559.272 230.813C565.376 227.012 572.228 225.112 579.829 225.112C586.048 225.112 591.575 226.436 596.412 229.085C601.364 231.619 605.337 235.189 608.332 239.795C611.326 244.287 612.996 249.527 613.341 255.515V280.218C612.996 286.091 611.326 291.331 608.332 295.938C605.453 300.544 601.537 304.172 596.585 306.821C591.748 309.354 586.163 310.621 579.829 310.621ZM582.42 295.938C590.136 295.938 596.355 293.346 601.076 288.164C605.798 282.867 608.159 276.129 608.159 267.953C608.159 262.31 607.065 257.415 604.877 253.27C602.804 249.008 599.81 245.726 595.894 243.423C591.979 241.005 587.43 239.795 582.247 239.795C577.065 239.795 572.458 241.005 568.428 243.423C564.512 245.841 561.403 249.181 559.099 253.442C556.911 257.588 555.817 262.367 555.817 267.78C555.817 273.308 556.911 278.202 559.099 282.463C561.403 286.609 564.57 289.892 568.6 292.31C572.631 294.728 577.238 295.938 582.42 295.938ZM607.123 308.894V286.782L610.059 266.744L607.123 246.878V226.839H622.842V308.894H607.123ZM681.927 310.621C674.326 310.621 667.531 308.778 661.543 305.093C655.554 301.293 650.775 296.168 647.205 289.719C643.75 283.27 642.023 276.014 642.023 267.953C642.023 259.891 643.75 252.636 647.205 246.187C650.775 239.738 655.554 234.613 661.543 230.813C667.531 227.012 674.326 225.112 681.927 225.112C688.03 225.112 693.558 226.436 698.51 229.085C703.462 231.619 707.435 235.189 710.43 239.795C713.539 244.287 715.267 249.527 715.612 255.515V280.218C715.267 286.091 713.597 291.331 710.602 295.938C707.608 300.544 703.635 304.172 698.683 306.821C693.731 309.354 688.146 310.621 681.927 310.621ZM684.518 295.938C689.7 295.938 694.192 294.728 697.992 292.31C701.908 289.892 704.959 286.609 707.148 282.463C709.336 278.202 710.43 273.366 710.43 267.953C710.43 262.31 709.278 257.415 706.975 253.27C704.787 249.124 701.735 245.841 697.819 243.423C694.019 241.005 689.528 239.795 684.345 239.795C679.163 239.795 674.614 241.005 670.698 243.423C666.783 245.841 663.673 249.181 661.37 253.442C659.182 257.588 658.088 262.367 658.088 267.78C658.088 273.308 659.182 278.202 661.37 282.463C663.673 286.609 666.783 289.892 670.698 292.31C674.729 294.728 679.336 295.938 684.518 295.938ZM725.113 308.894H709.393V286.782L712.33 266.744L709.393 246.878V185.553H725.113V308.894ZM786.961 310.621C778.9 310.621 771.645 308.721 765.195 304.92C758.746 301.12 753.621 295.995 749.821 289.546C746.021 282.982 744.12 275.669 744.12 267.607C744.12 259.661 746.021 252.521 749.821 246.187C753.621 239.738 758.746 234.613 765.195 230.813C771.645 227.012 778.9 225.112 786.961 225.112C794.908 225.112 802.105 227.012 808.555 230.813C815.119 234.498 820.301 239.565 824.102 246.014C827.902 252.463 829.802 259.661 829.802 267.607C829.802 275.669 827.902 282.982 824.102 289.546C820.301 295.995 815.119 301.12 808.555 304.92C802.105 308.721 794.908 310.621 786.961 310.621ZM786.961 295.592C792.144 295.592 796.75 294.383 800.781 291.964C804.812 289.546 807.979 286.264 810.282 282.118C812.585 277.857 813.737 273.02 813.737 267.607C813.737 262.31 812.528 257.588 810.109 253.442C807.806 249.296 804.639 246.072 800.608 243.769C796.693 241.35 792.144 240.141 786.961 240.141C781.779 240.141 777.172 241.35 773.142 243.769C769.111 246.072 765.944 249.296 763.641 253.442C761.337 257.588 760.186 262.31 760.186 267.607C760.186 273.02 761.337 277.857 763.641 282.118C765.944 286.264 769.111 289.546 773.142 291.964C777.172 294.383 781.779 295.592 786.961 295.592ZM921.429 310.621C913.828 310.621 907.033 308.778 901.045 305.093C895.056 301.293 890.277 296.168 886.707 289.719C883.252 283.27 881.525 276.014 881.525 267.953C881.525 259.891 883.252 252.636 886.707 246.187C890.277 239.738 895.056 234.613 901.045 230.813C907.033 227.012 913.828 225.112 921.429 225.112C927.533 225.112 933.06 226.436 938.012 229.085C942.964 231.619 946.938 235.189 949.932 239.795C953.041 244.287 954.769 249.527 955.114 255.515V280.218C954.769 286.091 953.099 291.331 950.105 295.938C947.11 300.544 943.137 304.172 938.185 306.821C933.233 309.354 927.648 310.621 921.429 310.621ZM924.02 295.938C929.202 295.938 933.694 294.728 937.494 292.31C941.41 289.892 944.462 286.609 946.65 282.463C948.838 278.202 949.932 273.366 949.932 267.953C949.932 262.31 948.78 257.415 946.477 253.27C944.289 249.124 941.237 245.841 937.321 243.423C933.521 241.005 929.03 239.795 923.847 239.795C918.665 239.795 914.116 241.005 910.2 243.423C906.285 245.841 903.175 249.181 900.872 253.442C898.684 257.588 897.59 262.367 897.59 267.78C897.59 273.308 898.684 278.202 900.872 282.463C903.175 286.609 906.285 289.892 910.2 292.31C914.231 294.728 918.838 295.938 924.02 295.938ZM964.615 308.894H948.895V286.782L951.832 266.744L948.895 246.878V185.553H964.615V308.894ZM1026.98 310.621C1018.81 310.621 1011.43 308.778 1004.87 305.093C998.306 301.293 993.124 296.168 989.323 289.719C985.523 283.27 983.623 275.957 983.623 267.78C983.623 259.719 985.465 252.463 989.15 246.014C992.951 239.565 998.018 234.498 1004.35 230.813C1010.8 227.012 1018 225.112 1025.95 225.112C1033.55 225.112 1040.23 226.839 1045.98 230.294C1051.86 233.749 1056.41 238.529 1059.63 244.632C1062.97 250.736 1064.64 257.646 1064.64 265.362C1064.64 266.513 1064.58 267.78 1064.47 269.162C1064.35 270.429 1064.12 271.926 1063.78 273.653H994.506V260.698H1055.48L1049.78 265.707C1049.78 260.179 1048.81 255.515 1046.85 251.715C1044.89 247.799 1042.13 244.805 1038.56 242.732C1034.99 240.544 1030.67 239.45 1025.6 239.45C1020.3 239.45 1015.64 240.602 1011.61 242.905C1007.58 245.208 1004.47 248.433 1002.28 252.579C1000.09 256.724 998.997 261.619 998.997 267.262C998.997 273.02 1000.15 278.087 1002.45 282.463C1004.76 286.725 1008.04 290.064 1012.3 292.483C1016.56 294.786 1021.45 295.938 1026.98 295.938C1031.59 295.938 1035.79 295.131 1039.59 293.519C1043.51 291.907 1046.85 289.488 1049.61 286.264L1059.63 296.456C1055.72 301.062 1050.88 304.575 1045.12 306.993C1039.48 309.412 1033.43 310.621 1026.98 310.621ZM1152.83 308.894V192.463H1169.07V308.894H1152.83ZM1112.06 203.864V189.008H1209.66V203.864H1112.06ZM1209.59 308.894V226.839H1225.13V308.894H1209.59ZM1225.13 262.08L1219.26 259.488C1219.26 249.008 1221.68 240.659 1226.51 234.44C1231.35 228.221 1238.32 225.112 1247.42 225.112C1251.56 225.112 1255.31 225.861 1258.65 227.358C1261.99 228.74 1265.09 231.101 1267.97 234.44L1257.78 244.978C1256.05 243.135 1254.15 241.811 1252.08 241.005C1250.01 240.198 1247.59 239.795 1244.83 239.795C1239.07 239.795 1234.35 241.638 1230.66 245.323C1226.98 249.008 1225.13 254.594 1225.13 262.08ZM1312.84 310.621C1305.36 310.621 1298.56 308.778 1292.46 305.093C1286.36 301.293 1281.52 296.168 1277.95 289.719C1274.49 283.27 1272.77 276.014 1272.77 267.953C1272.77 259.891 1274.49 252.636 1277.95 246.187C1281.52 239.738 1286.3 234.613 1292.29 230.813C1298.39 227.012 1305.24 225.112 1312.84 225.112C1319.06 225.112 1324.59 226.436 1329.43 229.085C1334.38 231.619 1338.35 235.189 1341.35 239.795C1344.34 244.287 1346.01 249.527 1346.36 255.515V280.218C1346.01 286.091 1344.34 291.331 1341.35 295.938C1338.47 300.544 1334.55 304.172 1329.6 306.821C1324.76 309.354 1319.18 310.621 1312.84 310.621ZM1315.43 295.938C1323.15 295.938 1329.37 293.346 1334.09 288.164C1338.81 282.867 1341.17 276.129 1341.17 267.953C1341.17 262.31 1340.08 257.415 1337.89 253.27C1335.82 249.008 1332.82 245.726 1328.91 243.423C1324.99 241.005 1320.44 239.795 1315.26 239.795C1310.08 239.795 1305.47 241.005 1301.44 243.423C1297.53 245.841 1294.42 249.181 1292.11 253.442C1289.93 257.588 1288.83 262.367 1288.83 267.78C1288.83 273.308 1289.93 278.202 1292.11 282.463C1294.42 286.609 1297.58 289.892 1301.61 292.31C1305.65 294.728 1310.25 295.938 1315.43 295.938ZM1340.14 308.894V286.782L1343.07 266.744L1340.14 246.878V226.839H1355.86V308.894H1340.14ZM1423.41 310.621C1417.19 310.621 1411.54 309.354 1406.48 306.821C1401.52 304.172 1397.55 300.544 1394.56 295.938C1391.56 291.331 1389.89 286.091 1389.55 280.218V255.515C1389.89 249.527 1391.56 244.287 1394.56 239.795C1397.67 235.189 1401.7 231.619 1406.65 229.085C1411.72 226.436 1417.3 225.112 1423.41 225.112C1430.89 225.112 1437.63 227.012 1443.62 230.813C1449.72 234.613 1454.5 239.738 1457.95 246.187C1461.41 252.636 1463.14 259.891 1463.14 267.953C1463.14 276.014 1461.41 283.27 1457.95 289.719C1454.5 296.168 1449.72 301.293 1443.62 305.093C1437.63 308.778 1430.89 310.621 1423.41 310.621ZM1380.22 308.894V185.553H1395.77V246.878L1392.83 266.744L1395.77 286.782V308.894H1380.22ZM1420.81 295.938C1426 295.938 1430.55 294.728 1434.46 292.31C1438.38 289.892 1441.49 286.609 1443.79 282.463C1446.09 278.202 1447.24 273.308 1447.24 267.78C1447.24 262.367 1446.09 257.531 1443.79 253.27C1441.49 249.008 1438.38 245.726 1434.46 243.423C1430.55 241.005 1426.05 239.795 1420.99 239.795C1415.8 239.795 1411.26 241.005 1407.34 243.423C1403.42 245.726 1400.37 249.008 1398.18 253.27C1396 257.531 1394.9 262.425 1394.9 267.953C1394.9 273.366 1395.94 278.202 1398.01 282.463C1400.2 286.609 1403.25 289.892 1407.17 292.31C1411.2 294.728 1415.75 295.938 1420.81 295.938ZM1517.38 310.621C1509.9 310.621 1503.1 308.778 1497 305.093C1490.9 301.293 1486.06 296.168 1482.49 289.719C1479.04 283.27 1477.31 276.014 1477.31 267.953C1477.31 259.891 1479.04 252.636 1482.49 246.187C1486.06 239.738 1490.84 234.613 1496.83 230.813C1502.93 227.012 1509.78 225.112 1517.38 225.112C1523.6 225.112 1529.13 226.436 1533.97 229.085C1538.92 231.619 1542.89 235.189 1545.89 239.795C1548.88 244.287 1550.55 249.527 1550.9 255.515V280.218C1550.55 286.091 1548.88 291.331 1545.89 295.938C1543.01 300.544 1539.09 304.172 1534.14 306.821C1529.3 309.354 1523.72 310.621 1517.38 310.621ZM1519.98 295.938C1527.69 295.938 1533.91 293.346 1538.63 288.164C1543.35 282.867 1545.71 276.129 1545.71 267.953C1545.71 262.31 1544.62 257.415 1542.43 253.27C1540.36 249.008 1537.37 245.726 1533.45 243.423C1529.53 241.005 1524.99 239.795 1519.8 239.795C1514.62 239.795 1510.01 241.005 1505.98 243.423C1502.07 245.841 1498.96 249.181 1496.66 253.442C1494.47 257.588 1493.37 262.367 1493.37 267.78C1493.37 273.308 1494.47 278.202 1496.66 282.463C1498.96 286.609 1502.13 289.892 1506.16 292.31C1510.19 294.728 1514.79 295.938 1519.98 295.938ZM1544.68 308.894V286.782L1547.61 266.744L1544.68 246.878V226.839H1560.4V308.894H1544.68ZM1584.76 308.894V185.553H1600.31V308.894H1584.76ZM1682.82 308.894V261.043C1682.82 254.824 1680.87 249.699 1676.95 245.669C1673.04 241.638 1667.97 239.623 1661.75 239.623C1657.6 239.623 1653.92 240.544 1650.69 242.387C1647.47 244.229 1644.94 246.763 1643.09 249.987C1641.25 253.212 1640.33 256.897 1640.33 261.043L1633.94 257.415C1633.94 251.197 1635.32 245.669 1638.08 240.832C1640.85 235.995 1644.71 232.195 1649.66 229.431C1654.61 226.552 1660.2 225.112 1666.41 225.112C1672.63 225.112 1678.1 226.494 1682.82 229.258C1687.66 232.022 1691.46 235.88 1694.23 240.832C1696.99 245.784 1698.37 251.484 1698.37 257.934V308.894H1682.82ZM1624.78 308.894V185.553H1640.33V308.894H1624.78ZM1758.63 310.621C1750.57 310.621 1743.32 308.721 1736.87 304.92C1730.42 301.12 1725.29 295.995 1721.49 289.546C1717.69 282.982 1715.79 275.669 1715.79 267.607C1715.79 259.661 1717.69 252.521 1721.49 246.187C1725.29 239.738 1730.42 234.613 1736.87 230.813C1743.32 227.012 1750.57 225.112 1758.63 225.112C1766.58 225.112 1773.78 227.012 1780.23 230.813C1786.79 234.498 1791.97 239.565 1795.77 246.014C1799.58 252.463 1801.48 259.661 1801.48 267.607C1801.48 275.669 1799.58 282.982 1795.77 289.546C1791.97 295.995 1786.79 301.12 1780.23 304.92C1773.78 308.721 1766.58 310.621 1758.63 310.621ZM1758.63 295.592C1763.82 295.592 1768.42 294.383 1772.45 291.964C1776.48 289.546 1779.65 286.264 1781.96 282.118C1784.26 277.857 1785.41 273.02 1785.41 267.607C1785.41 262.31 1784.2 257.588 1781.78 253.442C1779.48 249.296 1776.31 246.072 1772.28 243.769C1768.37 241.35 1763.82 240.141 1758.63 240.141C1753.45 240.141 1748.85 241.35 1744.81 243.769C1740.78 246.072 1737.62 249.296 1735.31 253.442C1733.01 257.588 1731.86 262.31 1731.86 267.607C1731.86 273.02 1733.01 277.857 1735.31 282.118C1737.62 286.264 1740.78 289.546 1744.81 291.964C1748.85 294.383 1753.45 295.592 1758.63 295.592Z" fill="#8A1A3B"/>
<path d="M153.798 308.894H152.646V310.045H153.798V308.894ZM153.798 189.008V187.857H152.646V189.008H153.798ZM165.199 189.008L166.183 188.409L165.846 187.857H165.199V189.008ZM215.986 272.444V273.596H218.036L216.97 271.845L215.986 272.444ZM208.213 272.444L207.229 271.845L206.164 273.596H208.213V272.444ZM259 189.008V187.857H258.353L258.016 188.409L259 189.008ZM270.401 189.008H271.553V187.857H270.401V189.008ZM270.401 308.894V310.045H271.553V308.894H270.401ZM254.163 308.894H253.011V310.045H254.163V308.894ZM254.163 217.511L254.466 216.4L253.011 216.003V217.511H254.163ZM257.963 218.548L258.947 219.147L259.743 217.839L258.266 217.437L257.963 218.548ZM217.887 284.364V285.515H218.534L218.87 284.963L217.887 284.364ZM206.485 284.364L205.502 284.963L205.838 285.515H206.485V284.364ZM166.408 218.548L166.092 217.44L164.639 217.856L165.425 219.147L166.408 218.548ZM170.036 217.511H171.188V215.984L169.72 216.404L170.036 217.511ZM170.036 308.894V310.045H171.188V308.894H170.036ZM154.95 308.894V189.008H152.646V308.894H154.95ZM153.798 190.16H165.199V187.857H153.798V190.16ZM164.215 189.607L215.003 273.043L216.97 271.845L166.183 188.409L164.215 189.607ZM215.986 271.293H208.213V273.596H215.986V271.293ZM209.196 273.043L259.984 189.607L258.016 188.409L207.229 271.845L209.196 273.043ZM259 190.16H270.401V187.857H259V190.16ZM269.249 189.008V308.894H271.553V189.008H269.249ZM270.401 307.742H254.163V310.045H270.401V307.742ZM255.315 308.894V217.511H253.011V308.894H255.315ZM253.86 218.622L257.66 219.659L258.266 217.437L254.466 216.4L253.86 218.622ZM256.98 217.949L216.903 283.765L218.87 284.963L258.947 219.147L256.98 217.949ZM217.887 283.212H206.485V285.515H217.887V283.212ZM207.469 283.765L167.392 217.949L165.425 219.147L205.502 284.963L207.469 283.765ZM166.725 219.655L170.352 218.619L169.72 216.404L166.092 217.44L166.725 219.655ZM168.884 217.511V308.894H171.188V217.511H168.884ZM170.036 307.742H153.798V310.045H170.036V307.742ZM313.565 305.093L312.988 306.09L312.994 306.094L313.001 306.097L313.565 305.093ZM298.017 289.719L299.01 289.134L298.017 289.719ZM297.845 246.014L296.853 245.43L296.849 245.436L296.845 245.443L297.845 246.014ZM313.046 230.813L313.625 231.808L313.631 231.805L313.046 230.813ZM354.678 230.294L354.085 231.282L354.094 231.287L354.678 230.294ZM368.325 244.632L367.307 245.17L367.311 245.178L367.315 245.185L368.325 244.632ZM373.162 269.162L374.309 269.266L374.309 269.258L373.162 269.162ZM372.471 273.653V274.805H373.415L373.6 273.879L372.471 273.653ZM303.2 273.653H302.048V274.805H303.2V273.653ZM303.2 260.698V259.546H302.048V260.698H303.2ZM364.179 260.698L364.939 261.563L367.234 259.546H364.179V260.698ZM358.478 265.707H357.327V268.252L359.239 266.572L358.478 265.707ZM355.542 251.715L354.512 252.23L354.518 252.242L355.542 251.715ZM347.25 242.732L346.648 243.714L346.66 243.721L346.672 243.728L347.25 242.732ZM320.302 242.905L319.73 241.905L320.302 242.905ZM310.973 252.579L311.992 253.116L310.973 252.579ZM311.146 282.464L310.127 283L310.133 283.011L311.146 282.464ZM320.993 292.483L320.424 293.484L320.435 293.49L320.445 293.496L320.993 292.483ZM348.286 293.519L347.848 292.454L347.837 292.459L348.286 293.519ZM358.306 286.264L359.127 285.457L358.248 284.562L357.431 285.514L358.306 286.264ZM368.325 296.456L369.202 297.202L369.884 296.399L369.146 295.649L368.325 296.456ZM353.814 306.993L353.368 305.932L353.361 305.935L353.814 306.993ZM335.676 309.469C327.679 309.469 320.506 307.669 314.128 304.089L313.001 306.097C319.752 309.887 327.319 311.773 335.676 311.773V309.469ZM314.142 304.096C307.746 300.394 302.708 295.41 299.01 289.134L297.025 290.303C300.928 296.926 306.254 302.191 312.988 306.09L314.142 304.096ZM299.01 289.134C295.323 282.878 293.468 275.771 293.468 267.78H291.165C291.165 276.143 293.111 283.661 297.025 290.303L299.01 289.134ZM293.468 267.78C293.468 259.901 295.267 252.846 298.845 246.586L296.845 245.443C293.052 252.081 291.165 259.536 291.165 267.78H293.468ZM298.837 246.599C302.539 240.316 307.466 235.392 313.625 231.808L312.467 229.817C305.959 233.604 300.751 238.814 296.853 245.43L298.837 246.599ZM313.631 231.805C319.892 228.115 326.886 226.264 334.639 226.264V223.96C326.501 223.96 319.099 225.909 312.462 229.82L313.631 231.805ZM334.639 226.264C342.06 226.264 348.529 227.948 354.085 231.282L355.27 229.307C349.311 225.731 342.421 223.96 334.639 223.96V226.264ZM354.094 231.287C359.781 234.632 364.18 239.253 367.307 245.17L369.343 244.094C366.02 237.804 361.322 232.866 355.262 229.302L354.094 231.287ZM367.315 245.185C370.552 251.101 372.183 257.817 372.183 265.362H374.486C374.486 257.474 372.777 250.371 369.335 244.079L367.315 245.185ZM372.183 265.362C372.183 266.476 372.127 267.71 372.014 269.066L374.309 269.258C374.427 267.85 374.486 266.551 374.486 265.362H372.183ZM372.015 269.058C371.904 270.272 371.682 271.726 371.341 273.428L373.6 273.879C373.951 272.126 374.189 270.586 374.309 269.266L372.015 269.058ZM372.471 272.502H303.2V274.805H372.471V272.502ZM304.351 273.653V260.698H302.048V273.653H304.351ZM303.2 261.849H364.179V259.546H303.2V261.849ZM363.419 259.832L357.718 264.842L359.239 266.572L364.939 261.563L363.419 259.832ZM359.63 265.707C359.63 260.048 358.628 255.192 356.565 251.187L354.518 252.242C356.371 255.839 357.327 260.311 357.327 265.707H359.63ZM356.572 251.2C354.52 247.096 351.605 243.929 347.828 241.736L346.672 243.728C350.035 245.681 352.648 248.502 354.512 252.23L356.572 251.2ZM347.852 241.75C344.066 239.43 339.529 238.298 334.294 238.298V240.602C339.194 240.602 343.294 241.658 346.648 243.714L347.852 241.75ZM334.294 238.298C328.825 238.298 323.958 239.489 319.73 241.905L320.873 243.905C324.706 241.714 329.168 240.602 334.294 240.602V238.298ZM319.73 241.905C315.508 244.318 312.244 247.704 309.955 252.041L311.992 253.116C314.079 249.162 317.034 246.098 320.873 243.905L319.73 241.905ZM309.955 252.041C307.663 256.383 306.54 261.469 306.54 267.262H308.843C308.843 261.768 309.907 257.066 311.992 253.116L309.955 252.041ZM306.54 267.262C306.54 273.176 307.723 278.433 310.127 283L312.165 281.927C309.962 277.742 308.843 272.864 308.843 267.262H306.54ZM310.133 283.011C312.54 287.464 315.978 290.961 320.424 293.484L321.561 291.481C317.486 289.168 314.359 285.985 312.159 281.916L310.133 283.011ZM320.445 293.496C324.897 295.902 329.984 297.089 335.676 297.089V294.786C330.312 294.786 325.611 293.67 321.54 291.47L320.445 293.496ZM335.676 297.089C340.419 297.089 344.778 296.259 348.736 294.579L347.837 292.459C344.194 294.004 340.146 294.786 335.676 294.786V297.089ZM348.725 294.584C352.809 292.902 356.298 290.376 359.18 287.013L357.431 285.514C354.785 288.601 351.595 290.911 347.848 292.454L348.725 294.584ZM357.484 287.071L367.504 297.263L369.146 295.649L359.127 285.457L357.484 287.071ZM367.447 295.71C363.653 300.174 358.966 303.581 353.368 305.932L354.26 308.055C360.179 305.569 365.166 301.951 369.202 297.202L367.447 295.71ZM353.361 305.935C347.868 308.289 341.977 309.469 335.676 309.469V311.773C342.273 311.773 348.474 310.535 354.268 308.052L353.361 305.935ZM392.014 308.894H390.862V310.045H392.014V308.894ZM392.014 226.839V225.688H390.862V226.839H392.014ZM407.561 226.839H408.713V225.688H407.561V226.839ZM407.561 308.894V310.045H408.713V308.894H407.561ZM407.561 262.08L407.096 263.133L408.713 263.846V262.08H407.561ZM401.688 259.488H400.536V260.239L401.223 260.542L401.688 259.488ZM408.943 234.44L408.034 233.733L408.943 234.44ZM441.074 227.358L440.603 228.409L440.618 228.415L440.633 228.422L441.074 227.358ZM450.402 234.44L451.23 235.241L451.961 234.485L451.274 233.688L450.402 234.44ZM440.21 244.978L439.37 245.765L440.197 246.648L441.038 245.778L440.21 244.978ZM413.089 245.323L412.275 244.509L413.089 245.323ZM393.166 308.894V226.839H390.862V308.894H393.166ZM392.014 227.991H407.561V225.688H392.014V227.991ZM406.409 226.839V308.894H408.713V226.839H406.409ZM407.561 307.742H392.014V310.045H407.561V307.742ZM408.026 261.026L402.153 258.435L401.223 260.542L407.096 263.133L408.026 261.026ZM402.839 259.488C402.839 249.18 405.217 241.106 409.852 235.147L408.034 233.733C402.995 240.212 400.536 248.837 400.536 259.488H402.839ZM409.852 235.147C414.435 229.255 421.04 226.264 429.845 226.264V223.96C420.454 223.96 413.125 227.188 408.034 233.733L409.852 235.147ZM429.845 226.264C433.85 226.264 437.429 226.986 440.603 228.409L441.545 226.307C438.038 224.735 434.132 223.96 429.845 223.96V226.264ZM440.633 228.422C443.774 229.721 446.743 231.959 449.53 235.192L451.274 233.688C448.303 230.242 445.053 227.758 441.514 226.294L440.633 228.422ZM449.574 233.64L439.382 244.177L441.038 245.778L451.23 235.241L449.574 233.64ZM441.05 244.19C439.221 242.239 437.181 240.808 434.927 239.931L434.092 242.078C435.984 242.814 437.744 244.031 439.37 245.765L441.05 244.19ZM434.927 239.931C432.693 239.062 430.127 238.644 427.254 238.644V240.947C429.909 240.947 432.18 241.334 434.092 242.078L434.927 239.931ZM427.254 238.644C421.226 238.644 416.199 240.584 412.275 244.509L413.903 246.138C417.349 242.692 421.766 240.947 427.254 240.947V238.644ZM412.275 244.509C408.294 248.489 406.409 254.422 406.409 262.08H408.713C408.713 254.765 410.513 249.528 413.903 246.138L412.275 244.509ZM475.924 304.92L475.339 305.913L475.347 305.917L475.924 304.92ZM460.549 289.546L459.545 290.11L459.551 290.12L459.557 290.131L460.549 289.546ZM460.549 246.014L459.557 245.43L459.553 245.436L459.549 245.443L460.549 246.014ZM475.924 230.813L476.495 231.813L476.501 231.809L475.924 230.813ZM515.482 228.74L515.013 229.791L515.022 229.795L515.031 229.799L515.482 228.74ZM529.475 238.932L530.289 239.746L531.05 238.986L530.343 238.175L529.475 238.932ZM519.11 249.296L518.231 250.04L519.039 250.996L519.924 250.111L519.11 249.296ZM509.782 242.559L509.308 243.609L509.328 243.618L509.348 243.626L509.782 242.559ZM484.043 243.769L484.614 244.768L484.625 244.762L484.635 244.756L484.043 243.769ZM474.542 253.442L475.548 254.002L474.542 253.442ZM474.542 282.118L473.535 282.677L474.542 282.118ZM509.782 293.346L510.227 294.408L510.235 294.405L510.243 294.402L509.782 293.346ZM519.283 286.437L520.104 285.629L519.238 284.749L518.42 285.674L519.283 286.437ZM529.475 296.801L530.344 297.556L531.042 296.753L530.296 295.994L529.475 296.801ZM515.482 306.993L515.021 305.938L515.013 305.942L515.482 306.993ZM497.862 309.469C489.99 309.469 482.879 307.616 476.501 303.924L475.347 305.917C482.097 309.825 489.611 311.773 497.862 311.773V309.469ZM476.508 303.928C470.227 300.227 465.243 295.242 461.542 288.961L459.557 290.131C463.457 296.748 468.722 302.013 475.339 305.913L476.508 303.928ZM461.554 288.982C457.97 282.6 456.173 275.54 456.173 267.78H453.87C453.87 275.913 455.758 283.364 459.545 290.11L461.554 288.982ZM456.173 267.78C456.173 259.901 457.972 252.846 461.549 246.586L459.549 245.443C455.756 252.081 453.87 259.536 453.87 267.78H456.173ZM461.542 246.599C465.241 240.321 470.221 235.397 476.495 231.812L475.352 229.813C468.728 233.598 463.458 238.809 459.557 245.43L461.542 246.599ZM476.501 231.809C482.879 228.117 489.99 226.264 497.862 226.264V223.96C489.611 223.96 482.097 225.908 475.347 229.816L476.501 231.809ZM497.862 226.264C504.046 226.264 509.758 227.443 515.013 229.791L515.952 227.688C510.382 225.199 504.347 223.96 497.862 223.96V226.264ZM515.031 229.799C520.282 232.034 524.804 235.326 528.607 239.688L530.343 238.175C526.314 233.554 521.508 230.052 515.933 227.68L515.031 229.799ZM528.66 238.117L518.296 248.482L519.924 250.111L530.289 239.746L528.66 238.117ZM519.989 248.552C517.334 245.414 514.07 243.059 510.215 241.492L509.348 243.626C512.864 245.054 515.819 247.19 518.231 250.04L519.989 248.552ZM510.256 241.51C506.52 239.823 502.383 238.989 497.862 238.989V241.292C502.094 241.292 505.903 242.071 509.308 243.609L510.256 241.51ZM497.862 238.989C492.493 238.989 487.678 240.244 483.45 242.781L484.635 244.756C488.469 242.456 492.867 241.292 497.862 241.292V238.989ZM483.471 242.769C479.254 245.179 475.938 248.557 473.535 252.883L475.548 254.002C477.752 250.035 480.77 246.965 484.614 244.768L483.471 242.769ZM473.535 252.883C471.124 257.223 469.935 262.2 469.935 267.78H472.238C472.238 262.535 473.353 257.953 475.548 254.002L473.535 252.883ZM469.935 267.78C469.935 273.361 471.124 278.337 473.535 282.677L475.548 281.559C473.353 277.607 472.238 273.025 472.238 267.78H469.935ZM473.535 282.677C475.935 286.998 479.245 290.429 483.45 292.952L484.635 290.977C480.779 288.663 477.755 285.53 475.548 281.559L473.535 282.677ZM483.45 292.952C487.678 295.489 492.493 296.744 497.862 296.744V294.441C492.867 294.441 488.469 293.277 484.635 290.977L483.45 292.952ZM497.862 296.744C502.372 296.744 506.499 295.972 510.227 294.408L509.336 292.284C505.925 293.715 502.106 294.441 497.862 294.441V296.744ZM510.243 294.402C514.081 292.723 517.385 290.32 520.145 287.2L518.42 285.674C515.883 288.542 512.853 290.746 509.32 292.291L510.243 294.402ZM518.462 287.244L528.654 297.609L530.296 295.994L520.104 285.629L518.462 287.244ZM528.605 296.046C524.922 300.288 520.399 303.585 515.021 305.938L515.944 308.048C521.622 305.564 526.427 302.067 530.344 297.556L528.605 296.046ZM515.013 305.942C509.758 308.29 504.046 309.469 497.862 309.469V311.773C504.347 311.773 510.382 310.534 515.952 308.045L515.013 305.942ZM559.445 305.093L558.836 306.071L558.843 306.075L558.85 306.079L559.445 305.093ZM544.934 289.719L543.919 290.263L543.923 290.27L543.927 290.277L544.934 289.719ZM544.934 246.187L543.927 245.629L543.923 245.636L543.919 245.643L544.934 246.187ZM559.272 230.813L558.663 229.835L558.655 229.84L559.272 230.813ZM596.412 229.085L595.859 230.095L595.873 230.103L595.888 230.11L596.412 229.085ZM608.332 239.795L607.366 240.423L607.374 240.434L608.332 239.795ZM613.341 255.515H614.493V255.482L614.491 255.449L613.341 255.515ZM613.341 280.218L614.491 280.285L614.493 280.252V280.218H613.341ZM608.332 295.938L607.366 295.31L607.361 295.319L607.355 295.327L608.332 295.938ZM596.585 306.821L597.119 307.841L597.128 307.836L596.585 306.821ZM601.076 288.164L601.928 288.94L601.936 288.93L601.076 288.164ZM604.877 253.27L603.841 253.773L603.85 253.79L603.858 253.807L604.877 253.27ZM595.894 243.423L595.289 244.403L595.299 244.409L595.31 244.416L595.894 243.423ZM568.428 243.423L567.835 242.436L567.829 242.439L567.822 242.443L568.428 243.423ZM559.099 253.442L558.086 252.895L558.081 252.905L559.099 253.442ZM559.099 282.464L558.075 282.99L558.083 283.006L558.093 283.023L559.099 282.464ZM568.6 292.31L568.008 293.298L568.6 292.31ZM607.123 308.894H605.971V310.045H607.123V308.894ZM607.123 286.782L605.983 286.615L605.971 286.698V286.782H607.123ZM610.059 266.744L611.199 266.911L611.223 266.743L611.198 266.575L610.059 266.744ZM607.123 246.878H605.971V246.963L605.983 247.046L607.123 246.878ZM607.123 226.839V225.688H605.971V226.839H607.123ZM622.842 226.839H623.994V225.688H622.842V226.839ZM622.842 308.894V310.045H623.994V308.894H622.842ZM579.829 309.469C572.542 309.469 565.955 307.679 560.04 304.107L558.85 306.079C565.142 309.878 572.144 311.773 579.829 311.773V309.469ZM560.053 304.116C554.121 300.422 549.419 295.443 545.942 289.161L543.927 290.277C547.589 296.893 552.562 302.164 558.836 306.071L560.053 304.116ZM545.949 289.175C542.593 282.91 540.903 275.844 540.903 267.953H538.6C538.6 276.184 540.366 283.63 543.919 290.263L545.949 289.175ZM540.903 267.953C540.903 260.061 542.593 252.996 545.949 246.731L543.919 245.643C540.366 252.276 538.6 259.721 538.6 267.953H540.903ZM545.942 246.745C549.422 240.457 554.07 235.478 559.889 231.785L558.655 229.84C552.497 233.748 547.586 239.018 543.927 245.629L545.942 246.745ZM559.881 231.79C565.791 228.11 572.43 226.264 579.829 226.264V223.96C572.026 223.96 564.96 225.914 558.663 229.835L559.881 231.79ZM579.829 226.264C585.879 226.264 591.213 227.551 595.859 230.095L596.965 228.075C591.938 225.322 586.216 223.96 579.829 223.96V226.264ZM595.888 230.11C600.663 232.553 604.483 235.987 607.366 240.423L609.297 239.168C606.192 234.39 602.066 230.684 596.937 228.06L595.888 230.11ZM607.374 240.434C610.242 244.737 611.857 249.774 612.192 255.582L614.491 255.449C614.135 249.279 612.41 243.837 609.29 239.157L607.374 240.434ZM612.19 255.515V280.218H614.493V255.515H612.19ZM612.192 280.15C611.857 285.839 610.244 290.883 607.366 295.31L609.297 296.565C612.408 291.779 614.135 286.344 614.491 280.285L612.192 280.15ZM607.355 295.327C604.586 299.757 600.823 303.248 596.042 305.805L597.128 307.836C602.251 305.096 606.319 301.331 609.308 296.548L607.355 295.327ZM596.051 305.8C591.403 308.235 586.007 309.469 579.829 309.469V311.773C586.319 311.773 592.093 310.474 597.119 307.841L596.051 305.8ZM582.42 297.089C590.424 297.089 596.964 294.387 601.928 288.94L600.225 287.388C595.745 292.306 589.848 294.786 582.42 294.786V297.089ZM601.936 288.93C606.874 283.39 609.311 276.366 609.311 267.953H607.007C607.007 275.893 604.722 282.343 600.217 287.398L601.936 288.93ZM609.311 267.953C609.311 262.16 608.187 257.074 605.895 252.732L603.858 253.807C605.943 257.757 607.007 262.459 607.007 267.953H609.311ZM605.912 252.766C603.745 248.31 600.598 244.854 596.478 242.43L595.31 244.416C599.022 246.599 601.863 249.707 603.841 253.773L605.912 252.766ZM596.499 242.443C592.38 239.899 587.616 238.644 582.247 238.644V240.947C587.243 240.947 591.577 242.11 595.289 244.403L596.499 242.443ZM582.247 238.644C576.878 238.644 572.063 239.899 567.835 242.436L569.02 244.411C572.854 242.11 577.252 240.947 582.247 240.947V238.644ZM567.822 242.443C563.726 244.973 560.48 248.466 558.086 252.895L560.112 253.99C562.325 249.896 565.298 246.71 569.033 244.403L567.822 242.443ZM558.081 252.905C555.793 257.24 554.665 262.209 554.665 267.78H556.969C556.969 262.526 558.03 257.936 560.118 253.98L558.081 252.905ZM554.665 267.78C554.665 273.463 555.791 278.542 558.075 282.99L560.124 281.937C558.031 277.863 556.969 273.153 556.969 267.78H554.665ZM558.093 283.023C560.493 287.344 563.802 290.774 568.008 293.298L569.193 291.322C565.337 289.009 562.312 285.875 560.106 281.904L558.093 283.023ZM568.008 293.298C572.235 295.834 577.051 297.089 582.42 297.089V294.786C577.424 294.786 573.027 293.623 569.193 291.322L568.008 293.298ZM608.274 308.894V286.782H605.971V308.894H608.274ZM608.262 286.949L611.199 266.911L608.92 266.577L605.983 286.615L608.262 286.949ZM611.198 266.575L608.262 246.71L605.983 247.046L608.92 266.912L611.198 266.575ZM608.274 246.878V226.839H605.971V246.878H608.274ZM607.123 227.991H622.842V225.688H607.123V227.991ZM621.691 226.839V308.894H623.994V226.839H621.691ZM622.842 307.742H607.123V310.045H622.842V307.742ZM661.543 305.093L660.926 306.066L660.932 306.07L660.939 306.074L661.543 305.093ZM647.205 289.719L646.19 290.263L646.193 290.27L646.197 290.277L647.205 289.719ZM647.205 246.187L646.197 245.629L646.193 245.636L646.19 245.643L647.205 246.187ZM698.51 229.085L697.967 230.101L697.976 230.106L697.986 230.11L698.51 229.085ZM710.43 239.795L709.464 240.423L709.473 240.437L709.483 240.451L710.43 239.795ZM715.612 255.515H716.764V255.482L716.762 255.449L715.612 255.515ZM715.612 280.218L716.762 280.285L716.764 280.252V280.218H715.612ZM710.602 295.938L711.568 296.565L710.602 295.938ZM698.683 306.821L699.208 307.846L699.217 307.841L699.226 307.836L698.683 306.821ZM697.992 292.31L697.387 291.33L697.38 291.334L697.374 291.338L697.992 292.31ZM707.148 282.464L708.166 283.001L708.172 282.99L707.148 282.464ZM706.975 253.27L705.956 253.807L705.962 253.818L705.968 253.829L706.975 253.27ZM697.819 243.423L697.201 244.395L697.208 244.399L697.214 244.403L697.819 243.423ZM670.698 243.423L670.093 242.443L670.698 243.423ZM661.37 253.442L660.357 252.895L660.352 252.905L661.37 253.442ZM661.37 282.464L660.346 282.99L660.354 283.006L660.363 283.023L661.37 282.464ZM670.698 292.31L670.093 293.29L670.099 293.294L670.106 293.298L670.698 292.31ZM725.113 308.894V310.045H726.265V308.894H725.113ZM709.393 308.894H708.242V310.045H709.393V308.894ZM709.393 286.782L708.254 286.615L708.242 286.698V286.782H709.393ZM712.33 266.744L713.469 266.911L713.494 266.743L713.469 266.575L712.33 266.744ZM709.393 246.878H708.242V246.963L708.254 247.046L709.393 246.878ZM709.393 185.553V184.402H708.242V185.553H709.393ZM725.113 185.553H726.265V184.402H725.113V185.553ZM681.927 309.469C674.521 309.469 667.939 307.677 662.146 304.112L660.939 306.074C667.124 309.88 674.131 311.773 681.927 311.773V309.469ZM662.16 304.121C656.341 300.428 651.693 295.448 648.212 289.161L646.197 290.277C649.857 296.888 654.768 302.158 660.926 306.066L662.16 304.121ZM648.22 289.175C644.864 282.91 643.174 275.844 643.174 267.953H640.871C640.871 276.184 642.636 283.63 646.19 290.263L648.22 289.175ZM643.174 267.953C643.174 260.061 644.864 252.996 648.22 246.731L646.19 245.643C642.636 252.276 640.871 259.721 640.871 267.953H643.174ZM648.212 246.745C651.693 240.457 656.341 235.478 662.16 231.785L660.926 229.84C654.768 233.748 649.857 239.018 646.197 245.629L648.212 246.745ZM662.16 231.785C667.951 228.11 674.528 226.264 681.927 226.264V223.96C674.124 223.96 667.112 225.914 660.926 229.84L662.16 231.785ZM681.927 226.264C687.858 226.264 693.196 227.549 697.967 230.101L699.053 228.07C693.92 225.324 688.203 223.96 681.927 223.96V226.264ZM697.986 230.11C702.761 232.553 706.581 235.987 709.464 240.423L711.395 239.168C708.29 234.39 704.164 230.684 699.035 228.06L697.986 230.11ZM709.483 240.451C712.46 244.751 714.128 249.783 714.462 255.582L716.762 255.449C716.405 249.27 714.618 243.822 711.377 239.14L709.483 240.451ZM714.46 255.515V280.218H716.764V255.515H714.46ZM714.462 280.15C714.128 285.839 712.515 290.883 709.637 295.31L711.568 296.565C714.679 291.779 716.405 286.344 716.762 280.285L714.462 280.15ZM709.637 295.31C706.751 299.75 702.925 303.246 698.14 305.805L699.226 307.836C704.346 305.098 708.466 301.338 711.568 296.565L709.637 295.31ZM698.159 305.795C693.387 308.237 687.985 309.469 681.927 309.469V311.773C688.306 311.773 694.075 310.472 699.208 307.846L698.159 305.795ZM684.518 297.089C689.886 297.089 694.599 295.834 698.61 293.282L697.374 291.338C693.785 293.622 689.515 294.786 684.518 294.786V297.089ZM698.597 293.29C702.691 290.761 705.884 287.325 708.166 283.001L706.129 281.926C704.035 285.894 701.124 289.022 697.387 291.33L698.597 293.29ZM708.172 282.99C710.454 278.546 711.581 273.525 711.581 267.953H709.278C709.278 273.207 708.217 277.859 706.123 281.937L708.172 282.99ZM711.581 267.953C711.581 262.151 710.396 257.057 707.982 252.71L705.968 253.829C708.16 257.774 709.278 262.468 709.278 267.953H711.581ZM707.993 252.732C705.711 248.408 702.518 244.972 698.424 242.443L697.214 244.403C700.952 246.711 703.862 249.839 705.956 253.807L707.993 252.732ZM698.438 242.451C694.426 239.899 689.713 238.644 684.345 238.644V240.947C689.342 240.947 693.612 242.111 697.201 244.395L698.438 242.451ZM684.345 238.644C678.977 238.644 674.213 239.899 670.093 242.443L671.303 244.403C675.015 242.11 679.349 240.947 684.345 240.947V238.644ZM670.093 242.443C665.997 244.973 662.751 248.466 660.357 252.895L662.383 253.99C664.596 249.896 667.568 246.71 671.303 244.403L670.093 242.443ZM660.352 252.905C658.063 257.24 656.936 262.209 656.936 267.78H659.24C659.24 262.526 660.3 257.936 662.388 253.98L660.352 252.905ZM656.936 267.78C656.936 273.463 658.062 278.542 660.346 282.99L662.394 281.937C660.302 277.863 659.24 273.153 659.24 267.78H656.936ZM660.363 283.023C662.759 287.335 666.005 290.765 670.093 293.29L671.303 291.33C667.561 289.019 664.587 285.883 662.377 281.904L660.363 283.023ZM670.106 293.298C674.333 295.834 679.149 297.089 684.518 297.089V294.786C679.522 294.786 675.125 293.623 671.291 291.322L670.106 293.298ZM725.113 307.742H709.393V310.045H725.113V307.742ZM710.545 308.894V286.782H708.242V308.894H710.545ZM710.533 286.949L713.469 266.911L711.19 266.577L708.254 286.615L710.533 286.949ZM713.469 266.575L710.533 246.71L708.254 247.046L711.191 266.912L713.469 266.575ZM710.545 246.878V185.553H708.242V246.878H710.545ZM709.393 186.705H725.113V184.402H709.393V186.705ZM723.961 185.553V308.894H726.265V185.553H723.961ZM765.195 304.92L764.611 305.913L765.195 304.92ZM749.821 289.546L748.824 290.123L748.829 290.131L749.821 289.546ZM749.821 246.187L750.809 246.779L750.813 246.772L749.821 246.187ZM765.195 230.813L764.611 229.82L765.195 230.813ZM808.555 230.813L807.97 231.805L807.98 231.811L807.991 231.817L808.555 230.813ZM824.102 246.014L825.094 245.43L824.102 246.014ZM824.102 289.546L825.094 290.131L825.098 290.123L824.102 289.546ZM808.555 304.92L807.978 303.924L807.97 303.928L808.555 304.92ZM800.781 291.964L800.188 290.977L800.781 291.964ZM810.282 282.118L811.289 282.677L811.295 282.666L810.282 282.118ZM810.109 253.442L809.103 254.002L809.108 254.012L809.115 254.023L810.109 253.442ZM800.608 243.769L800.003 244.748L800.02 244.759L800.037 244.768L800.608 243.769ZM773.142 243.769L773.713 244.768L773.724 244.762L773.734 244.756L773.142 243.769ZM763.641 253.442L764.647 254.002L763.641 253.442ZM763.641 282.118L762.628 282.666L762.634 282.677L763.641 282.118ZM786.961 309.469C779.089 309.469 772.039 307.616 765.78 303.928L764.611 305.913C771.251 309.825 778.711 311.773 786.961 311.773V309.469ZM765.78 303.928C759.499 300.227 754.515 295.242 750.813 288.961L748.829 290.131C752.728 296.748 757.993 302.013 764.611 305.913L765.78 303.928ZM750.818 288.969C747.125 282.591 745.272 275.479 745.272 267.607H742.969C742.969 275.858 744.916 283.372 748.824 290.123L750.818 288.969ZM745.272 267.607C745.272 259.853 747.124 252.921 750.809 246.779L748.834 245.594C744.918 252.121 742.969 259.469 742.969 267.607H745.272ZM750.813 246.772C754.515 240.491 759.499 235.506 765.78 231.805L764.611 229.82C757.993 233.72 752.728 238.985 748.829 245.602L750.813 246.772ZM765.78 231.805C772.039 228.117 779.089 226.264 786.961 226.264V223.96C778.711 223.96 771.251 225.908 764.611 229.82L765.78 231.805ZM786.961 226.264C794.715 226.264 801.709 228.115 807.97 231.805L809.139 229.82C802.502 225.909 795.1 223.96 786.961 223.96V226.264ZM807.991 231.817C814.379 235.403 819.413 240.326 823.109 246.599L825.094 245.43C821.19 238.804 815.859 233.593 809.118 229.808L807.991 231.817ZM823.109 246.599C826.799 252.86 828.651 259.854 828.651 267.607H830.954C830.954 259.469 829.005 252.067 825.094 245.43L823.109 246.599ZM828.651 267.607C828.651 275.479 826.797 282.591 823.105 288.969L825.098 290.123C829.007 283.372 830.954 275.858 830.954 267.607H828.651ZM823.109 288.961C819.411 295.237 814.373 300.221 807.978 303.924L809.132 305.917C815.865 302.019 821.191 296.753 825.094 290.131L823.109 288.961ZM807.97 303.928C801.709 307.618 794.715 309.469 786.961 309.469V311.773C795.1 311.773 802.502 309.824 809.139 305.913L807.97 303.928ZM786.961 296.744C792.33 296.744 797.146 295.489 801.374 292.952L800.188 290.977C796.355 293.277 791.957 294.441 786.961 294.441V296.744ZM801.374 292.952C805.579 290.429 808.888 286.998 811.289 282.677L809.275 281.559C807.069 285.53 804.044 288.663 800.188 290.977L801.374 292.952ZM811.295 282.666C813.7 278.217 814.889 273.188 814.889 267.607H812.585C812.585 272.852 811.471 277.497 809.269 281.57L811.295 282.666ZM814.889 267.607C814.889 262.128 813.636 257.202 811.104 252.862L809.115 254.023C811.42 257.974 812.585 262.492 812.585 267.607H814.889ZM811.116 252.883C808.713 248.557 805.397 245.179 801.18 242.769L800.037 244.768C803.881 246.965 806.899 250.035 809.103 254.002L811.116 252.883ZM801.213 242.789C797.094 240.244 792.33 238.989 786.961 238.989V241.292C791.958 241.292 796.292 242.456 800.003 244.748L801.213 242.789ZM786.961 238.989C781.592 238.989 776.777 240.244 772.549 242.781L773.734 244.756C777.568 242.456 781.966 241.292 786.961 241.292V238.989ZM772.57 242.769C768.353 245.179 765.037 248.557 762.634 252.883L764.647 254.002C766.851 250.035 769.869 246.965 773.713 244.768L772.57 242.769ZM762.634 252.883C760.225 257.219 759.034 262.137 759.034 267.607H761.337C761.337 262.482 762.45 257.957 764.647 254.002L762.634 252.883ZM759.034 267.607C759.034 273.188 760.223 278.217 762.628 282.666L764.654 281.57C762.452 277.497 761.337 272.852 761.337 267.607H759.034ZM762.634 282.677C765.034 286.998 768.344 290.429 772.549 292.952L773.734 290.977C769.878 288.663 766.854 285.53 764.647 281.559L762.634 282.677ZM772.549 292.952C776.777 295.489 781.592 296.744 786.961 296.744V294.441C781.966 294.441 777.568 293.277 773.734 290.977L772.549 292.952ZM901.045 305.093L900.428 306.066L900.435 306.07L900.441 306.074L901.045 305.093ZM886.707 289.719L885.692 290.263L885.696 290.27L885.699 290.277L886.707 289.719ZM886.707 246.187L885.699 245.629L885.696 245.636L885.692 245.643L886.707 246.187ZM938.012 229.085L937.469 230.101L937.479 230.106L937.488 230.11L938.012 229.085ZM949.932 239.795L948.966 240.423L948.975 240.437L948.985 240.451L949.932 239.795ZM955.114 255.515H956.266V255.482L956.264 255.449L955.114 255.515ZM955.114 280.218L956.264 280.285L956.266 280.252V280.218H955.114ZM950.105 295.938L951.07 296.565L950.105 295.938ZM938.185 306.821L938.71 307.846L938.719 307.841L938.728 307.836L938.185 306.821ZM937.494 292.31L936.889 291.33L936.882 291.334L936.876 291.338L937.494 292.31ZM946.65 282.464L947.668 283.001L947.674 282.99L946.65 282.464ZM946.477 253.27L945.458 253.807L945.464 253.818L945.47 253.829L946.477 253.27ZM937.321 243.423L936.703 244.395L936.71 244.399L936.716 244.403L937.321 243.423ZM910.2 243.423L909.595 242.443L910.2 243.423ZM900.872 253.442L899.859 252.895L899.854 252.905L900.872 253.442ZM900.872 282.464L899.848 282.99L899.856 283.006L899.865 283.023L900.872 282.464ZM910.2 292.31L909.595 293.29L909.602 293.294L909.608 293.298L910.2 292.31ZM964.615 308.894V310.045H965.767V308.894H964.615ZM948.895 308.894H947.744V310.045H948.895V308.894ZM948.895 286.782L947.756 286.615L947.744 286.698V286.782H948.895ZM951.832 266.744L952.972 266.911L952.996 266.743L952.971 266.575L951.832 266.744ZM948.895 246.878H947.744V246.963L947.756 247.046L948.895 246.878ZM948.895 185.553V184.402H947.744V185.553H948.895ZM964.615 185.553H965.767V184.402H964.615V185.553ZM921.429 309.469C914.023 309.469 907.441 307.677 901.648 304.112L900.441 306.074C906.626 309.88 913.633 311.773 921.429 311.773V309.469ZM901.662 304.121C895.843 300.428 891.195 295.448 887.715 289.161L885.699 290.277C889.359 296.888 894.27 302.158 900.428 306.066L901.662 304.121ZM887.722 289.175C884.366 282.91 882.676 275.844 882.676 267.953H880.373C880.373 276.184 882.138 283.63 885.692 290.263L887.722 289.175ZM882.676 267.953C882.676 260.061 884.366 252.996 887.722 246.731L885.692 245.643C882.138 252.276 880.373 259.721 880.373 267.953H882.676ZM887.715 246.745C891.195 240.457 895.843 235.478 901.662 231.785L900.428 229.84C894.27 233.748 889.359 239.018 885.699 245.629L887.715 246.745ZM901.662 231.785C907.453 228.11 914.03 226.264 921.429 226.264V223.96C913.626 223.96 906.614 225.914 900.428 229.84L901.662 231.785ZM921.429 226.264C927.36 226.264 932.699 227.549 937.469 230.101L938.556 228.07C933.422 225.324 927.705 223.96 921.429 223.96V226.264ZM937.488 230.11C942.263 232.553 946.083 235.987 948.966 240.423L950.897 239.168C947.792 234.39 943.666 230.684 938.537 228.06L937.488 230.11ZM948.985 240.451C951.962 244.751 953.63 249.783 953.965 255.582L956.264 255.449C955.908 249.27 954.12 243.822 950.879 239.14L948.985 240.451ZM953.963 255.515V280.218H956.266V255.515H953.963ZM953.965 280.15C953.63 285.839 952.017 290.883 949.139 295.31L951.07 296.565C954.181 291.779 955.908 286.344 956.264 280.285L953.965 280.15ZM949.139 295.31C946.253 299.75 942.427 303.246 937.642 305.805L938.728 307.836C943.848 305.098 947.968 301.338 951.07 296.565L949.139 295.31ZM937.661 305.795C932.889 308.237 927.487 309.469 921.429 309.469V311.773C927.808 311.773 933.577 310.472 938.71 307.846L937.661 305.795ZM924.02 297.089C929.388 297.089 934.101 295.834 938.112 293.282L936.876 291.338C933.287 293.622 929.017 294.786 924.02 294.786V297.089ZM938.099 293.29C942.193 290.761 945.386 287.325 947.668 283.001L945.631 281.926C943.537 285.894 940.626 289.022 936.889 291.33L938.099 293.29ZM947.674 282.99C949.956 278.546 951.084 273.525 951.084 267.953H948.78C948.78 273.207 947.719 277.859 945.625 281.937L947.674 282.99ZM951.084 267.953C951.084 262.151 949.899 257.057 947.484 252.71L945.47 253.829C947.662 257.774 948.78 262.468 948.78 267.953H951.084ZM947.495 252.732C945.213 248.408 942.02 244.972 937.927 242.443L936.716 244.403C940.454 246.711 943.364 249.839 945.458 253.807L947.495 252.732ZM937.94 242.451C933.928 239.899 929.215 238.644 923.847 238.644V240.947C928.844 240.947 933.114 242.111 936.703 244.395L937.94 242.451ZM923.847 238.644C918.479 238.644 913.715 239.899 909.595 242.443L910.806 244.403C914.517 242.11 918.851 240.947 923.847 240.947V238.644ZM909.595 242.443C905.499 244.973 902.253 248.466 899.859 252.895L901.885 253.99C904.098 249.896 907.071 246.71 910.806 244.403L909.595 242.443ZM899.854 252.905C897.565 257.24 896.438 262.209 896.438 267.78H898.742C898.742 262.526 899.803 257.936 901.891 253.98L899.854 252.905ZM896.438 267.78C896.438 273.463 897.564 278.542 899.848 282.99L901.897 281.937C899.804 277.863 898.742 273.153 898.742 267.78H896.438ZM899.865 283.023C902.261 287.335 905.507 290.765 909.595 293.29L910.806 291.33C907.063 289.019 904.09 285.883 901.879 281.904L899.865 283.023ZM909.608 293.298C913.836 295.834 918.651 297.089 924.02 297.089V294.786C919.024 294.786 914.627 293.623 910.793 291.322L909.608 293.298ZM964.615 307.742H948.895V310.045H964.615V307.742ZM950.047 308.894V286.782H947.744V308.894H950.047ZM950.035 286.949L952.972 266.911L950.693 266.577L947.756 286.615L950.035 286.949ZM952.971 266.575L950.035 246.71L947.756 247.046L950.693 266.912L952.971 266.575ZM950.047 246.878V185.553H947.744V246.878H950.047ZM948.895 186.705H964.615V184.402H948.895V186.705ZM963.464 185.553V308.894H965.767V185.553H963.464ZM1004.87 305.093L1004.29 306.09L1004.3 306.094L1004.31 306.097L1004.87 305.093ZM989.323 289.719L990.315 289.134L989.323 289.719ZM989.151 246.014L988.158 245.43L988.154 245.436L988.151 245.443L989.151 246.014ZM1004.35 230.813L1004.93 231.808L1004.94 231.805L1004.35 230.813ZM1045.98 230.294L1045.39 231.282L1045.4 231.287L1045.98 230.294ZM1059.63 244.632L1058.61 245.17L1058.62 245.178L1058.62 245.185L1059.63 244.632ZM1064.47 269.162L1065.61 269.266L1065.62 269.258L1064.47 269.162ZM1063.78 273.653V274.805H1064.72L1064.91 273.879L1063.78 273.653ZM994.506 273.653H993.354V274.805H994.506V273.653ZM994.506 260.698V259.546H993.354V260.698H994.506ZM1055.48 260.698L1056.24 261.563L1058.54 259.546H1055.48V260.698ZM1049.78 265.707H1048.63V268.252L1050.54 266.572L1049.78 265.707ZM1046.85 251.715L1045.82 252.23L1045.82 252.242L1046.85 251.715ZM1038.56 242.732L1037.95 243.714L1037.97 243.721L1037.98 243.728L1038.56 242.732ZM1011.61 242.905L1011.04 241.905L1011.61 242.905ZM1002.28 252.579L1003.3 253.116L1002.28 252.579ZM1002.45 282.464L1001.43 283L1001.44 283.011L1002.45 282.464ZM1012.3 292.483L1011.73 293.484L1011.74 293.49L1011.75 293.496L1012.3 292.483ZM1039.59 293.519L1039.15 292.454L1039.14 292.459L1039.59 293.519ZM1049.61 286.264L1050.43 285.457L1049.55 284.562L1048.74 285.514L1049.61 286.264ZM1059.63 296.456L1060.51 297.202L1061.19 296.399L1060.45 295.649L1059.63 296.456ZM1045.12 306.993L1044.67 305.932L1044.67 305.935L1045.12 306.993ZM1026.98 309.469C1018.99 309.469 1011.81 307.669 1005.43 304.089L1004.31 306.097C1011.06 309.887 1018.63 311.773 1026.98 311.773V309.469ZM1005.45 304.096C999.052 300.394 994.014 295.41 990.315 289.134L988.331 290.303C992.233 296.926 997.56 302.191 1004.29 306.09L1005.45 304.096ZM990.315 289.134C986.629 282.878 984.774 275.771 984.774 267.78H982.471C982.471 276.143 984.417 283.661 988.331 290.303L990.315 289.134ZM984.774 267.78C984.774 259.901 986.573 252.846 990.15 246.586L988.151 245.443C984.358 252.081 982.471 259.536 982.471 267.78H984.774ZM990.143 246.599C993.845 240.316 998.772 235.392 1004.93 231.808L1003.77 229.817C997.265 233.604 992.057 238.814 988.158 245.43L990.143 246.599ZM1004.94 231.805C1011.2 228.115 1018.19 226.264 1025.95 226.264V223.96C1017.81 223.96 1010.4 225.909 1003.77 229.82L1004.94 231.805ZM1025.95 226.264C1033.37 226.264 1039.83 227.948 1045.39 231.282L1046.58 229.307C1040.62 225.731 1033.73 223.96 1025.95 223.96V226.264ZM1045.4 231.287C1051.09 234.632 1055.49 239.253 1058.61 245.17L1060.65 244.094C1057.33 237.804 1052.63 232.866 1046.57 229.302L1045.4 231.287ZM1058.62 245.185C1061.86 251.101 1063.49 257.817 1063.49 265.362H1065.79C1065.79 257.474 1064.08 250.371 1060.64 244.079L1058.62 245.185ZM1063.49 265.362C1063.49 266.476 1063.43 267.71 1063.32 269.066L1065.62 269.258C1065.73 267.85 1065.79 266.551 1065.79 265.362H1063.49ZM1063.32 269.058C1063.21 270.272 1062.99 271.726 1062.65 273.428L1064.91 273.879C1065.26 272.126 1065.49 270.586 1065.61 269.266L1063.32 269.058ZM1063.78 272.502H994.506V274.805H1063.78V272.502ZM995.657 273.653V260.698H993.354V273.653H995.657ZM994.506 261.849H1055.48V259.546H994.506V261.849ZM1054.72 259.832L1049.02 264.842L1050.54 266.572L1056.24 261.563L1054.72 259.832ZM1050.94 265.707C1050.94 260.048 1049.93 255.192 1047.87 251.187L1045.82 252.242C1047.68 255.839 1048.63 260.311 1048.63 265.707H1050.94ZM1047.88 251.2C1045.83 247.096 1042.91 243.929 1039.13 241.736L1037.98 243.728C1041.34 245.681 1043.95 248.502 1045.82 252.23L1047.88 251.2ZM1039.16 241.75C1035.37 239.43 1030.83 238.298 1025.6 238.298V240.602C1030.5 240.602 1034.6 241.658 1037.95 243.714L1039.16 241.75ZM1025.6 238.298C1020.13 238.298 1015.26 239.489 1011.04 241.905L1012.18 243.905C1016.01 241.714 1020.47 240.602 1025.6 240.602V238.298ZM1011.04 241.905C1006.81 244.318 1003.55 247.704 1001.26 252.041L1003.3 253.116C1005.38 249.162 1008.34 246.098 1012.18 243.905L1011.04 241.905ZM1001.26 252.041C998.969 256.383 997.845 261.469 997.845 267.262H1000.15C1000.15 261.768 1001.21 257.066 1003.3 253.116L1001.26 252.041ZM997.845 267.262C997.845 273.176 999.029 278.433 1001.43 283L1003.47 281.927C1001.27 277.742 1000.15 272.864 1000.15 267.262H997.845ZM1001.44 283.011C1003.85 287.464 1007.28 290.961 1011.73 293.484L1012.87 291.481C1008.79 289.168 1005.66 285.985 1003.46 281.916L1001.44 283.011ZM1011.75 293.496C1016.2 295.902 1021.29 297.089 1026.98 297.089V294.786C1021.62 294.786 1016.92 293.67 1012.85 291.47L1011.75 293.496ZM1026.98 297.089C1031.72 297.089 1036.08 296.259 1040.04 294.579L1039.14 292.459C1035.5 294.004 1031.45 294.786 1026.98 294.786V297.089ZM1040.03 294.584C1044.11 292.902 1047.6 290.376 1050.49 287.013L1048.74 285.514C1046.09 288.601 1042.9 290.911 1039.15 292.454L1040.03 294.584ZM1048.79 287.071L1058.81 297.263L1060.45 295.649L1050.43 285.457L1048.79 287.071ZM1058.75 295.71C1054.96 300.174 1050.27 303.581 1044.67 305.932L1045.57 308.055C1051.49 305.569 1056.47 301.951 1060.51 297.202L1058.75 295.71ZM1044.67 305.935C1039.17 308.289 1033.28 309.469 1026.98 309.469V311.773C1033.58 311.773 1039.78 310.535 1045.57 308.052L1044.67 305.935ZM1152.83 308.894H1151.68V310.045H1152.83V308.894ZM1152.83 192.463V191.311H1151.68V192.463H1152.83ZM1169.07 192.463H1170.22V191.311H1169.07V192.463ZM1169.07 308.894V310.045H1170.22V308.894H1169.07ZM1112.06 203.864H1110.91V205.016H1112.06V203.864ZM1112.06 189.008V187.857H1110.91V189.008H1112.06ZM1209.66 189.008H1210.81V187.857H1209.66V189.008ZM1209.66 203.864V205.016H1210.81V203.864H1209.66ZM1153.98 308.894V192.463H1151.68V308.894H1153.98ZM1152.83 193.615H1169.07V191.311H1152.83V193.615ZM1167.92 192.463V308.894H1170.22V192.463H1167.92ZM1169.07 307.742H1152.83V310.045H1169.07V307.742ZM1113.21 203.864V189.008H1110.91V203.864H1113.21ZM1112.06 190.16H1209.66V187.857H1112.06V190.16ZM1208.51 189.008V203.864H1210.81V189.008H1208.51ZM1209.66 202.713H1112.06V205.016H1209.66V202.713ZM1209.59 308.894H1208.43V310.045H1209.59V308.894ZM1209.59 226.839V225.688H1208.43V226.839H1209.59ZM1225.13 226.839H1226.28V225.688H1225.13V226.839ZM1225.13 308.894V310.045H1226.28V308.894H1225.13ZM1225.13 262.08L1224.67 263.133L1226.28 263.846V262.08H1225.13ZM1219.26 259.488H1218.11V260.239L1218.79 260.542L1219.26 259.488ZM1226.51 234.44L1225.61 233.733L1226.51 234.44ZM1258.65 227.358L1258.17 228.409L1258.19 228.415L1258.21 228.422L1258.65 227.358ZM1267.97 234.44L1268.8 235.241L1269.53 234.485L1268.85 233.688L1267.97 234.44ZM1257.78 244.978L1256.94 245.765L1257.77 246.648L1258.61 245.778L1257.78 244.978ZM1230.66 245.323L1229.85 244.509L1230.66 245.323ZM1210.74 308.894V226.839H1208.43V308.894H1210.74ZM1209.59 227.991H1225.13V225.688H1209.59V227.991ZM1223.98 226.839V308.894H1226.28V226.839H1223.98ZM1225.13 307.742H1209.59V310.045H1225.13V307.742ZM1225.6 261.026L1219.72 258.435L1218.79 260.542L1224.67 263.133L1225.6 261.026ZM1220.41 259.488C1220.41 249.18 1222.79 241.106 1227.42 235.147L1225.61 233.733C1220.57 240.212 1218.11 248.837 1218.11 259.488H1220.41ZM1227.42 235.147C1232.01 229.255 1238.61 226.264 1247.42 226.264V223.96C1238.03 223.96 1230.7 227.188 1225.61 233.733L1227.42 235.147ZM1247.42 226.264C1251.42 226.264 1255 226.986 1258.17 228.409L1259.12 226.307C1255.61 224.735 1251.7 223.96 1247.42 223.96V226.264ZM1258.21 228.422C1261.35 229.721 1264.31 231.959 1267.1 235.192L1268.85 233.688C1265.87 230.242 1262.62 227.758 1259.09 226.294L1258.21 228.422ZM1267.15 233.64L1256.95 244.177L1258.61 245.778L1268.8 235.241L1267.15 233.64ZM1258.62 244.19C1256.79 242.239 1254.75 240.808 1252.5 239.931L1251.66 242.078C1253.56 242.814 1255.32 244.031 1256.94 245.765L1258.62 244.19ZM1252.5 239.931C1250.26 239.062 1247.7 238.644 1244.83 238.644V240.947C1247.48 240.947 1249.75 241.334 1251.66 242.078L1252.5 239.931ZM1244.83 238.644C1238.8 238.644 1233.77 240.584 1229.85 244.509L1231.48 246.138C1234.92 242.692 1239.34 240.947 1244.83 240.947V238.644ZM1229.85 244.509C1225.87 248.489 1223.98 254.422 1223.98 262.08H1226.28C1226.28 254.765 1228.09 249.528 1231.48 246.138L1229.85 244.509ZM1292.46 305.093L1291.85 306.071L1291.86 306.075L1291.86 306.079L1292.46 305.093ZM1277.95 289.719L1276.93 290.263L1276.94 290.27L1276.94 290.277L1277.95 289.719ZM1277.95 246.187L1276.94 245.629L1276.94 245.636L1276.93 245.643L1277.95 246.187ZM1292.29 230.813L1291.68 229.835L1291.67 229.84L1292.29 230.813ZM1329.43 229.085L1328.87 230.095L1328.89 230.103L1328.9 230.11L1329.43 229.085ZM1341.35 239.795L1340.38 240.423L1340.39 240.434L1341.35 239.795ZM1346.36 255.515H1347.51V255.482L1347.51 255.449L1346.36 255.515ZM1346.36 280.218L1347.51 280.285L1347.51 280.252V280.218H1346.36ZM1341.35 295.938L1340.38 295.31L1340.38 295.319L1340.37 295.327L1341.35 295.938ZM1329.6 306.821L1330.13 307.841L1330.14 307.836L1329.6 306.821ZM1334.09 288.164L1334.94 288.94L1334.95 288.93L1334.09 288.164ZM1337.89 253.27L1336.86 253.773L1336.86 253.79L1336.87 253.807L1337.89 253.27ZM1328.91 243.423L1328.3 244.403L1328.31 244.409L1328.32 244.416L1328.91 243.423ZM1301.44 243.423L1300.85 242.436L1300.84 242.439L1300.84 242.443L1301.44 243.423ZM1292.11 253.442L1291.1 252.895L1291.1 252.905L1292.11 253.442ZM1292.11 282.464L1291.09 282.99L1291.1 283.006L1291.11 283.023L1292.11 282.464ZM1301.61 292.31L1301.02 293.298L1301.61 292.31ZM1340.14 308.894H1338.99V310.045H1340.14V308.894ZM1340.14 286.782L1339 286.615L1338.99 286.698V286.782H1340.14ZM1343.07 266.744L1344.21 266.911L1344.24 266.743L1344.21 266.575L1343.07 266.744ZM1340.14 246.878H1338.99V246.963L1339 247.046L1340.14 246.878ZM1340.14 226.839V225.688H1338.99V226.839H1340.14ZM1355.86 226.839H1357.01V225.688H1355.86V226.839ZM1355.86 308.894V310.045H1357.01V308.894H1355.86ZM1312.84 309.469C1305.56 309.469 1298.97 307.679 1293.05 304.107L1291.86 306.079C1298.16 309.878 1305.16 311.773 1312.84 311.773V309.469ZM1293.07 304.116C1287.14 300.422 1282.43 295.443 1278.96 289.161L1276.94 290.277C1280.6 296.893 1285.58 302.164 1291.85 306.071L1293.07 304.116ZM1278.96 289.175C1275.61 282.91 1273.92 275.844 1273.92 267.953H1271.61C1271.61 276.184 1273.38 283.63 1276.93 290.263L1278.96 289.175ZM1273.92 267.953C1273.92 260.061 1275.61 252.996 1278.96 246.731L1276.93 245.643C1273.38 252.276 1271.61 259.721 1271.61 267.953H1273.92ZM1278.96 246.745C1282.44 240.457 1287.08 235.478 1292.9 231.785L1291.67 229.84C1285.51 233.748 1280.6 239.018 1276.94 245.629L1278.96 246.745ZM1292.9 231.79C1298.81 228.11 1305.44 226.264 1312.84 226.264V223.96C1305.04 223.96 1297.97 225.914 1291.68 229.835L1292.9 231.79ZM1312.84 226.264C1318.89 226.264 1324.23 227.551 1328.87 230.095L1329.98 228.075C1324.95 225.322 1319.23 223.96 1312.84 223.96V226.264ZM1328.9 230.11C1333.68 232.553 1337.5 235.987 1340.38 240.423L1342.31 239.168C1339.21 234.39 1335.08 230.684 1329.95 228.06L1328.9 230.11ZM1340.39 240.434C1343.26 244.737 1344.87 249.774 1345.21 255.582L1347.51 255.449C1347.15 249.279 1345.42 243.837 1342.3 239.157L1340.39 240.434ZM1345.2 255.515V280.218H1347.51V255.515H1345.2ZM1345.21 280.15C1344.87 285.839 1343.26 290.883 1340.38 295.31L1342.31 296.565C1345.42 291.779 1347.15 286.344 1347.51 280.285L1345.21 280.15ZM1340.37 295.327C1337.6 299.757 1333.84 303.248 1329.06 305.805L1330.14 307.836C1335.27 305.096 1339.33 301.331 1342.32 296.548L1340.37 295.327ZM1329.07 305.8C1324.42 308.235 1319.02 309.469 1312.84 309.469V311.773C1319.33 311.773 1325.11 310.474 1330.13 307.841L1329.07 305.8ZM1315.43 297.089C1323.44 297.089 1329.98 294.387 1334.94 288.94L1333.24 287.388C1328.76 292.306 1322.86 294.786 1315.43 294.786V297.089ZM1334.95 288.93C1339.89 283.39 1342.33 276.366 1342.33 267.953H1340.02C1340.02 275.893 1337.74 282.343 1333.23 287.398L1334.95 288.93ZM1342.33 267.953C1342.33 262.16 1341.2 257.074 1338.91 252.732L1336.87 253.807C1338.96 257.757 1340.02 262.459 1340.02 267.953H1342.33ZM1338.93 252.766C1336.76 248.31 1333.61 244.854 1329.49 242.43L1328.32 244.416C1332.04 246.599 1334.88 249.707 1336.86 253.773L1338.93 252.766ZM1329.51 242.443C1325.39 239.899 1320.63 238.644 1315.26 238.644V240.947C1320.26 240.947 1324.59 242.11 1328.3 244.403L1329.51 242.443ZM1315.26 238.644C1309.89 238.644 1305.08 239.899 1300.85 242.436L1302.03 244.411C1305.87 242.11 1310.27 240.947 1315.26 240.947V238.644ZM1300.84 242.443C1296.74 244.973 1293.49 248.466 1291.1 252.895L1293.13 253.99C1295.34 249.896 1298.31 246.71 1302.05 244.403L1300.84 242.443ZM1291.1 252.905C1288.81 257.24 1287.68 262.209 1287.68 267.78H1289.98C1289.98 262.526 1291.04 257.936 1293.13 253.98L1291.1 252.905ZM1287.68 267.78C1287.68 273.463 1288.81 278.542 1291.09 282.99L1293.14 281.937C1291.05 277.863 1289.98 273.153 1289.98 267.78H1287.68ZM1291.11 283.023C1293.51 287.344 1296.82 290.774 1301.02 293.298L1302.21 291.322C1298.35 289.009 1295.33 285.875 1293.12 281.904L1291.11 283.023ZM1301.02 293.298C1305.25 295.834 1310.07 297.089 1315.43 297.089V294.786C1310.44 294.786 1306.04 293.623 1302.21 291.322L1301.02 293.298ZM1341.29 308.894V286.782H1338.99V308.894H1341.29ZM1341.28 286.949L1344.21 266.911L1341.93 266.577L1339 286.615L1341.28 286.949ZM1344.21 266.575L1341.28 246.71L1339 247.046L1341.93 266.912L1344.21 266.575ZM1341.29 246.878V226.839H1338.99V246.878H1341.29ZM1340.14 227.991H1355.86V225.688H1340.14V227.991ZM1354.71 226.839V308.894H1357.01V226.839H1354.71ZM1355.86 307.742H1340.14V310.045H1355.86V307.742ZM1406.48 306.821L1405.93 307.836L1405.95 307.844L1405.96 307.851L1406.48 306.821ZM1394.56 295.938L1393.59 296.565L1394.56 295.938ZM1389.55 280.218H1388.4V280.252L1388.4 280.285L1389.55 280.218ZM1389.55 255.515L1388.4 255.449L1388.4 255.482V255.515H1389.55ZM1394.56 239.795L1393.6 239.151L1393.6 239.157L1394.56 239.795ZM1406.65 229.085L1407.17 230.11L1407.18 230.106L1406.65 229.085ZM1443.62 230.813L1443 231.785L1443.01 231.79L1443.62 230.813ZM1457.95 246.187L1458.97 245.643L1457.95 246.187ZM1457.95 289.719L1458.97 290.263L1457.95 289.719ZM1443.62 305.093L1444.22 306.074L1444.23 306.071L1443.62 305.093ZM1380.22 308.894H1379.07V310.045H1380.22V308.894ZM1380.22 185.553V184.402H1379.07V185.553H1380.22ZM1395.77 185.553H1396.92V184.402H1395.77V185.553ZM1395.77 246.878L1396.91 247.046L1396.92 246.963V246.878H1395.77ZM1392.83 266.744L1391.69 266.575L1391.67 266.743L1391.69 266.911L1392.83 266.744ZM1395.77 286.782H1396.92V286.698L1396.91 286.615L1395.77 286.782ZM1395.77 308.894V310.045H1396.92V308.894H1395.77ZM1434.46 292.31L1435.07 293.29L1434.46 292.31ZM1443.79 282.464L1444.8 283.023L1444.8 283.011L1443.79 282.464ZM1443.79 253.27L1442.78 253.817L1443.79 253.27ZM1434.46 243.423L1433.86 244.403L1433.87 244.409L1433.88 244.416L1434.46 243.423ZM1407.34 243.423L1407.92 244.416L1407.93 244.409L1407.95 244.403L1407.34 243.423ZM1398.18 253.27L1397.16 252.743L1398.18 253.27ZM1398.01 282.464L1396.98 282.967L1396.98 282.984L1396.99 283.001L1398.01 282.464ZM1407.17 292.31L1406.56 293.29L1406.57 293.294L1406.57 293.298L1407.17 292.31ZM1423.41 309.469C1417.35 309.469 1411.88 308.237 1406.99 305.791L1405.96 307.851C1411.2 310.472 1417.03 311.773 1423.41 311.773V309.469ZM1407.02 305.805C1402.23 303.246 1398.41 299.75 1395.52 295.31L1393.59 296.565C1396.69 301.338 1400.81 305.098 1405.93 307.836L1407.02 305.805ZM1395.52 295.31C1392.65 290.883 1391.03 285.839 1390.7 280.15L1388.4 280.285C1388.75 286.344 1390.48 291.779 1393.59 296.565L1395.52 295.31ZM1390.7 280.218V255.515H1388.4V280.218H1390.7ZM1390.7 255.582C1391.03 249.774 1392.65 244.737 1395.52 240.434L1393.6 239.157C1390.48 243.837 1388.75 249.279 1388.4 255.449L1390.7 255.582ZM1395.51 240.44C1398.51 235.995 1402.39 232.555 1407.17 230.11L1406.12 228.06C1401 230.682 1396.82 234.383 1393.6 239.151L1395.51 240.44ZM1407.18 230.106C1412.07 227.549 1417.47 226.264 1423.41 226.264V223.96C1417.13 223.96 1411.36 225.324 1406.12 228.065L1407.18 230.106ZM1423.41 226.264C1430.69 226.264 1437.21 228.108 1443 231.785L1444.23 229.84C1438.05 225.916 1431.1 223.96 1423.41 223.96V226.264ZM1443.01 231.79C1448.94 235.482 1453.58 240.456 1456.94 246.731L1458.97 245.643C1455.42 239.02 1450.5 233.744 1444.23 229.835L1443.01 231.79ZM1456.94 246.731C1460.3 252.996 1461.99 260.061 1461.99 267.953H1464.29C1464.29 259.721 1462.52 252.276 1458.97 245.643L1456.94 246.731ZM1461.99 267.953C1461.99 275.844 1460.3 282.91 1456.94 289.175L1458.97 290.263C1462.52 283.63 1464.29 276.184 1464.29 267.953H1461.99ZM1456.94 289.175C1453.58 295.45 1448.94 300.424 1443.01 304.116L1444.23 306.071C1450.5 302.162 1455.42 296.886 1458.97 290.263L1456.94 289.175ZM1443.01 304.112C1437.22 307.679 1430.69 309.469 1423.41 309.469V311.773C1431.09 311.773 1438.04 309.878 1444.22 306.074L1443.01 304.112ZM1381.37 308.894V185.553H1379.07V308.894H1381.37ZM1380.22 186.705H1395.77V184.402H1380.22V186.705ZM1394.61 185.553V246.878H1396.92V185.553H1394.61ZM1394.63 246.71L1391.69 266.575L1393.97 266.912L1396.91 247.046L1394.63 246.71ZM1391.69 266.911L1394.63 286.949L1396.91 286.615L1393.97 266.577L1391.69 266.911ZM1394.61 286.782V308.894H1396.92V286.782H1394.61ZM1395.77 307.742H1380.22V310.045H1395.77V307.742ZM1420.81 297.089C1426.18 297.089 1430.95 295.834 1435.07 293.29L1433.86 291.33C1430.14 293.623 1425.81 294.786 1420.81 294.786V297.089ZM1435.07 293.29C1439.15 290.765 1442.4 287.335 1444.8 283.023L1442.78 281.904C1440.57 285.883 1437.6 289.019 1433.86 291.33L1435.07 293.29ZM1444.8 283.011C1447.21 278.559 1448.4 273.472 1448.4 267.78H1446.09C1446.09 273.144 1444.98 277.846 1442.78 281.916L1444.8 283.011ZM1448.4 267.78C1448.4 262.199 1447.21 257.17 1444.8 252.722L1442.78 253.817C1444.98 257.891 1446.09 262.536 1446.09 267.78H1448.4ZM1444.8 252.722C1442.41 248.289 1439.15 244.847 1435.05 242.43L1433.88 244.416C1437.6 246.605 1440.57 249.728 1442.78 253.817L1444.8 252.722ZM1435.07 242.443C1430.95 239.901 1426.25 238.644 1420.99 238.644V240.947C1425.86 240.947 1430.14 242.108 1433.86 244.403L1435.07 242.443ZM1420.99 238.644C1415.62 238.644 1410.85 239.899 1406.74 242.443L1407.95 244.403C1411.66 242.11 1415.99 240.947 1420.99 240.947V238.644ZM1406.76 242.43C1402.64 244.85 1399.44 248.299 1397.16 252.743L1399.21 253.796C1401.3 249.718 1404.21 246.602 1407.92 244.416L1406.76 242.43ZM1397.16 252.743C1394.88 257.191 1393.75 262.27 1393.75 267.953H1396.05C1396.05 262.58 1397.12 257.87 1399.21 253.796L1397.16 252.743ZM1393.75 267.953C1393.75 273.515 1394.82 278.528 1396.98 282.967L1399.05 281.96C1397.06 277.877 1396.05 273.216 1396.05 267.953H1393.75ZM1396.99 283.001C1399.28 287.325 1402.47 290.761 1406.56 293.29L1407.77 291.33C1404.04 289.022 1401.12 285.894 1399.03 281.926L1396.99 283.001ZM1406.57 293.298C1410.8 295.832 1415.56 297.089 1420.81 297.089V294.786C1415.94 294.786 1411.6 293.625 1407.76 291.322L1406.57 293.298ZM1497 305.093L1496.39 306.071L1496.4 306.075L1496.41 306.079L1497 305.093ZM1482.49 289.719L1481.47 290.263L1481.48 290.27L1481.48 290.277L1482.49 289.719ZM1482.49 246.187L1481.48 245.629L1481.48 245.636L1481.47 245.643L1482.49 246.187ZM1496.83 230.813L1496.22 229.835L1496.21 229.84L1496.83 230.813ZM1533.97 229.085L1533.41 230.095L1533.43 230.103L1533.44 230.11L1533.97 229.085ZM1545.89 239.795L1544.92 240.423L1544.93 240.434L1545.89 239.795ZM1550.9 255.515H1552.05V255.482L1552.05 255.449L1550.9 255.515ZM1550.9 280.218L1552.05 280.285L1552.05 280.252V280.218H1550.9ZM1545.89 295.938L1544.92 295.31L1544.92 295.319L1544.91 295.327L1545.89 295.938ZM1534.14 306.821L1534.68 307.841L1534.68 307.836L1534.14 306.821ZM1538.63 288.164L1539.48 288.94L1539.49 288.93L1538.63 288.164ZM1542.43 253.27L1541.4 253.773L1541.41 253.79L1541.41 253.807L1542.43 253.27ZM1533.45 243.423L1532.84 244.403L1532.86 244.409L1532.87 244.416L1533.45 243.423ZM1505.98 243.423L1505.39 242.436L1505.38 242.439L1505.38 242.443L1505.98 243.423ZM1496.66 253.442L1495.64 252.895L1495.64 252.905L1496.66 253.442ZM1496.66 282.464L1495.63 282.99L1495.64 283.006L1495.65 283.023L1496.66 282.464ZM1506.16 292.31L1505.56 293.298L1506.16 292.31ZM1544.68 308.894H1543.53V310.045H1544.68V308.894ZM1544.68 286.782L1543.54 286.615L1543.53 286.698V286.782H1544.68ZM1547.61 266.744L1548.75 266.911L1548.78 266.743L1548.75 266.575L1547.61 266.744ZM1544.68 246.878H1543.53V246.963L1543.54 247.046L1544.68 246.878ZM1544.68 226.839V225.688H1543.53V226.839H1544.68ZM1560.4 226.839H1561.55V225.688H1560.4V226.839ZM1560.4 308.894V310.045H1561.55V308.894H1560.4ZM1517.38 309.469C1510.1 309.469 1503.51 307.679 1497.6 304.107L1496.41 306.079C1502.7 309.878 1509.7 311.773 1517.38 311.773V309.469ZM1497.61 304.116C1491.68 300.422 1486.98 295.443 1483.5 289.161L1481.48 290.277C1485.15 296.893 1490.12 302.164 1496.39 306.071L1497.61 304.116ZM1483.51 289.175C1480.15 282.91 1478.46 275.844 1478.46 267.953H1476.16C1476.16 276.184 1477.92 283.63 1481.47 290.263L1483.51 289.175ZM1478.46 267.953C1478.46 260.061 1480.15 252.996 1483.51 246.731L1481.47 245.643C1477.92 252.276 1476.16 259.721 1476.16 267.953H1478.46ZM1483.5 246.745C1486.98 240.457 1491.63 235.478 1497.44 231.785L1496.21 229.84C1490.05 233.748 1485.14 239.018 1481.48 245.629L1483.5 246.745ZM1497.44 231.79C1503.35 228.11 1509.99 226.264 1517.38 226.264V223.96C1509.58 223.96 1502.52 225.914 1496.22 229.835L1497.44 231.79ZM1517.38 226.264C1523.44 226.264 1528.77 227.551 1533.41 230.095L1534.52 228.075C1529.49 225.322 1523.77 223.96 1517.38 223.96V226.264ZM1533.44 230.11C1538.22 232.553 1542.04 235.987 1544.92 240.423L1546.85 239.168C1543.75 234.39 1539.62 230.684 1534.49 228.06L1533.44 230.11ZM1544.93 240.434C1547.8 244.737 1549.41 249.774 1549.75 255.582L1552.05 255.449C1551.69 249.279 1549.97 243.837 1546.85 239.157L1544.93 240.434ZM1549.75 255.515V280.218H1552.05V255.515H1549.75ZM1549.75 280.15C1549.41 285.839 1547.8 290.883 1544.92 295.31L1546.85 296.565C1549.96 291.779 1551.69 286.344 1552.05 280.285L1549.75 280.15ZM1544.91 295.327C1542.14 299.757 1538.38 303.248 1533.6 305.805L1534.68 307.836C1539.81 305.096 1543.87 301.331 1546.86 296.548L1544.91 295.327ZM1533.61 305.8C1528.96 308.235 1523.56 309.469 1517.38 309.469V311.773C1523.87 311.773 1529.65 310.474 1534.68 307.841L1533.61 305.8ZM1519.98 297.089C1527.98 297.089 1534.52 294.387 1539.48 288.94L1537.78 287.388C1533.3 292.306 1527.4 294.786 1519.98 294.786V297.089ZM1539.49 288.93C1544.43 283.39 1546.87 276.366 1546.87 267.953H1544.56C1544.56 275.893 1542.28 282.343 1537.77 287.398L1539.49 288.93ZM1546.87 267.953C1546.87 262.16 1545.74 257.074 1543.45 252.732L1541.41 253.807C1543.5 257.757 1544.56 262.459 1544.56 267.953H1546.87ZM1543.47 252.766C1541.3 248.31 1538.15 244.854 1534.03 242.43L1532.87 244.416C1536.58 246.599 1539.42 249.707 1541.4 253.773L1543.47 252.766ZM1534.06 242.443C1529.94 239.899 1525.17 238.644 1519.8 238.644V240.947C1524.8 240.947 1529.13 242.11 1532.84 244.403L1534.06 242.443ZM1519.8 238.644C1514.43 238.644 1509.62 239.899 1505.39 242.436L1506.58 244.411C1510.41 242.11 1514.81 240.947 1519.8 240.947V238.644ZM1505.38 242.443C1501.28 244.973 1498.04 248.466 1495.64 252.895L1497.67 253.99C1499.88 249.896 1502.85 246.71 1506.59 244.403L1505.38 242.443ZM1495.64 252.905C1493.35 257.24 1492.22 262.209 1492.22 267.78H1494.52C1494.52 262.526 1495.59 257.936 1497.67 253.98L1495.64 252.905ZM1492.22 267.78C1492.22 273.463 1493.35 278.542 1495.63 282.99L1497.68 281.937C1495.59 277.863 1494.52 273.153 1494.52 267.78H1492.22ZM1495.65 283.023C1498.05 287.344 1501.36 290.774 1505.56 293.298L1506.75 291.322C1502.89 289.009 1499.87 285.875 1497.66 281.904L1495.65 283.023ZM1505.56 293.298C1509.79 295.834 1514.61 297.089 1519.98 297.089V294.786C1514.98 294.786 1510.58 293.623 1506.75 291.322L1505.56 293.298ZM1545.83 308.894V286.782H1543.53V308.894H1545.83ZM1545.82 286.949L1548.75 266.911L1546.48 266.577L1543.54 286.615L1545.82 286.949ZM1548.75 266.575L1545.82 246.71L1543.54 247.046L1546.48 266.912L1548.75 266.575ZM1545.83 246.878V226.839H1543.53V246.878H1545.83ZM1544.68 227.991H1560.4V225.688H1544.68V227.991ZM1559.25 226.839V308.894H1561.55V226.839H1559.25ZM1560.4 307.742H1544.68V310.045H1560.4V307.742ZM1584.76 308.894H1583.61V310.045H1584.76V308.894ZM1584.76 185.553V184.402H1583.61V185.553H1584.76ZM1600.31 185.553H1601.46V184.402H1600.31V185.553ZM1600.31 308.894V310.045H1601.46V308.894H1600.31ZM1585.91 308.894V185.553H1583.61V308.894H1585.91ZM1584.76 186.705H1600.31V184.402H1584.76V186.705ZM1599.16 185.553V308.894H1601.46V185.553H1599.16ZM1600.31 307.742H1584.76V310.045H1600.31V307.742ZM1682.82 308.894H1681.67V310.045H1682.82V308.894ZM1676.95 245.669L1677.78 244.866L1676.95 245.669ZM1650.69 242.387L1650.12 241.387L1650.69 242.387ZM1640.33 261.043L1639.76 262.045L1641.48 263.021V261.043H1640.33ZM1633.94 257.415H1632.79V258.086L1633.37 258.417L1633.94 257.415ZM1649.66 229.431L1650.22 230.436L1650.23 230.431L1650.24 230.426L1649.66 229.431ZM1682.82 229.258L1682.24 230.252L1682.25 230.258L1682.82 229.258ZM1694.23 240.832L1695.23 240.271L1694.23 240.832ZM1698.37 308.894V310.045H1699.52V308.894H1698.37ZM1624.78 308.894H1623.63V310.045H1624.78V308.894ZM1624.78 185.553V184.402H1623.63V185.553H1624.78ZM1640.33 185.553H1641.48V184.402H1640.33V185.553ZM1640.33 308.894V310.045H1641.48V308.894H1640.33ZM1683.98 308.894V261.043H1681.67V308.894H1683.98ZM1683.98 261.043C1683.98 254.559 1681.92 249.136 1677.78 244.866L1676.13 246.471C1679.81 250.263 1681.67 255.089 1681.67 261.043H1683.98ZM1677.78 244.866C1673.62 240.587 1668.24 238.471 1661.75 238.471V240.774C1667.69 240.774 1672.45 242.689 1676.13 246.471L1677.78 244.866ZM1661.75 238.471C1657.43 238.471 1653.54 239.433 1650.12 241.387L1651.27 243.386C1654.3 241.654 1657.78 240.774 1661.75 240.774V238.471ZM1650.12 241.387C1646.72 243.331 1644.04 246.013 1642.09 249.416L1644.09 250.559C1645.83 247.513 1648.22 245.127 1651.27 243.386L1650.12 241.387ZM1642.09 249.416C1640.14 252.834 1639.18 256.721 1639.18 261.043H1641.48C1641.48 257.074 1642.36 253.59 1644.09 250.559L1642.09 249.416ZM1640.9 260.041L1634.51 256.414L1633.37 258.417L1639.76 262.045L1640.9 260.041ZM1635.09 257.415C1635.09 251.373 1636.43 246.046 1639.08 241.403L1637.08 240.26C1634.21 245.291 1632.79 251.02 1632.79 257.415H1635.09ZM1639.08 241.403C1641.74 236.752 1645.45 233.1 1650.22 230.436L1649.1 228.425C1643.96 231.289 1639.95 235.238 1637.08 240.26L1639.08 241.403ZM1650.24 230.426C1655 227.658 1660.38 226.264 1666.41 226.264V223.96C1660.01 223.96 1654.22 225.445 1649.08 228.435L1650.24 230.426ZM1666.41 226.264C1672.46 226.264 1677.72 227.605 1682.24 230.252L1683.41 228.264C1678.49 225.383 1672.81 223.96 1666.41 223.96V226.264ZM1682.25 230.258C1686.9 232.916 1690.56 236.621 1693.22 241.393L1695.23 240.271C1692.37 235.139 1688.42 231.128 1683.4 228.258L1682.25 230.258ZM1693.22 241.393C1695.88 246.151 1697.22 251.654 1697.22 257.934H1699.52C1699.52 251.315 1698.1 245.417 1695.23 240.271L1693.22 241.393ZM1697.22 257.934V308.894H1699.52V257.934H1697.22ZM1698.37 307.742H1682.82V310.045H1698.37V307.742ZM1625.93 308.894V185.553H1623.63V308.894H1625.93ZM1624.78 186.705H1640.33V184.402H1624.78V186.705ZM1639.18 185.553V308.894H1641.48V185.553H1639.18ZM1640.33 307.742H1624.78V310.045H1640.33V307.742ZM1736.87 304.92L1736.28 305.913L1736.87 304.92ZM1721.49 289.546L1720.5 290.123L1720.5 290.131L1721.49 289.546ZM1721.49 246.187L1722.48 246.779L1722.49 246.772L1721.49 246.187ZM1736.87 230.813L1736.28 229.82L1736.87 230.813ZM1780.23 230.813L1779.64 231.805L1779.65 231.811L1779.66 231.817L1780.23 230.813ZM1795.77 246.014L1796.77 245.43L1795.77 246.014ZM1795.77 289.546L1796.77 290.131L1796.77 290.123L1795.77 289.546ZM1780.23 304.92L1779.65 303.924L1779.64 303.928L1780.23 304.92ZM1772.45 291.964L1771.86 290.977L1772.45 291.964ZM1781.96 282.118L1782.96 282.677L1782.97 282.666L1781.96 282.118ZM1781.78 253.442L1780.78 254.002L1780.78 254.012L1780.79 254.023L1781.78 253.442ZM1772.28 243.769L1771.68 244.748L1771.69 244.759L1771.71 244.768L1772.28 243.769ZM1744.81 243.769L1745.39 244.768L1745.4 244.762L1745.41 244.756L1744.81 243.769ZM1735.31 253.442L1736.32 254.002L1735.31 253.442ZM1735.31 282.118L1734.3 282.666L1734.31 282.677L1735.31 282.118ZM1758.63 309.469C1750.76 309.469 1743.71 307.616 1737.45 303.928L1736.28 305.913C1742.92 309.825 1750.38 311.773 1758.63 311.773V309.469ZM1737.45 303.928C1731.17 300.227 1726.19 295.242 1722.49 288.961L1720.5 290.131C1724.4 296.748 1729.67 302.013 1736.28 305.913L1737.45 303.928ZM1722.49 288.969C1718.8 282.591 1716.95 275.479 1716.95 267.607H1714.64C1714.64 275.858 1716.59 283.372 1720.5 290.123L1722.49 288.969ZM1716.95 267.607C1716.95 259.853 1718.8 252.921 1722.48 246.779L1720.51 245.594C1716.59 252.121 1714.64 259.469 1714.64 267.607H1716.95ZM1722.49 246.772C1726.19 240.491 1731.17 235.506 1737.45 231.805L1736.28 229.82C1729.67 233.72 1724.4 238.985 1720.5 245.602L1722.49 246.772ZM1737.45 231.805C1743.71 228.117 1750.76 226.264 1758.63 226.264V223.96C1750.38 223.96 1742.92 225.908 1736.28 229.82L1737.45 231.805ZM1758.63 226.264C1766.39 226.264 1773.38 228.115 1779.64 231.805L1780.81 229.82C1774.17 225.909 1766.77 223.96 1758.63 223.96V226.264ZM1779.66 231.817C1786.05 235.403 1791.09 240.326 1794.78 246.599L1796.77 245.43C1792.86 238.804 1787.53 233.593 1780.79 229.808L1779.66 231.817ZM1794.78 246.599C1798.47 252.86 1800.32 259.854 1800.32 267.607H1802.63C1802.63 259.469 1800.68 252.067 1796.77 245.43L1794.78 246.599ZM1800.32 267.607C1800.32 275.479 1798.47 282.591 1794.78 288.969L1796.77 290.123C1800.68 283.372 1802.63 275.858 1802.63 267.607H1800.32ZM1794.78 288.961C1791.08 295.237 1786.05 300.221 1779.65 303.924L1780.8 305.917C1787.54 302.019 1792.86 296.753 1796.77 290.131L1794.78 288.961ZM1779.64 303.928C1773.38 307.618 1766.39 309.469 1758.63 309.469V311.773C1766.77 311.773 1774.17 309.824 1780.81 305.913L1779.64 303.928ZM1758.63 296.744C1764 296.744 1768.82 295.489 1773.05 292.952L1771.86 290.977C1768.03 293.277 1763.63 294.441 1758.63 294.441V296.744ZM1773.05 292.952C1777.25 290.429 1780.56 286.998 1782.96 282.677L1780.95 281.559C1778.74 285.53 1775.72 288.663 1771.86 290.977L1773.05 292.952ZM1782.97 282.666C1785.37 278.217 1786.56 273.188 1786.56 267.607H1784.26C1784.26 272.852 1783.14 277.497 1780.94 281.57L1782.97 282.666ZM1786.56 267.607C1786.56 262.128 1785.31 257.202 1782.78 252.862L1780.79 254.023C1783.09 257.974 1784.26 262.492 1784.26 267.607H1786.56ZM1782.79 252.883C1780.39 248.557 1777.07 245.179 1772.85 242.769L1771.71 244.768C1775.55 246.965 1778.57 250.035 1780.78 254.002L1782.79 252.883ZM1772.89 242.789C1768.77 240.244 1764 238.989 1758.63 238.989V241.292C1763.63 241.292 1767.96 242.456 1771.68 244.748L1772.89 242.789ZM1758.63 238.989C1753.27 238.989 1748.45 240.244 1744.22 242.781L1745.41 244.756C1749.24 242.456 1753.64 241.292 1758.63 241.292V238.989ZM1744.24 242.769C1740.03 245.179 1736.71 248.557 1734.31 252.883L1736.32 254.002C1738.52 250.035 1741.54 246.965 1745.39 244.768L1744.24 242.769ZM1734.31 252.883C1731.9 257.219 1730.71 262.137 1730.71 267.607H1733.01C1733.01 262.482 1734.12 257.957 1736.32 254.002L1734.31 252.883ZM1730.71 267.607C1730.71 273.188 1731.9 278.217 1734.3 282.666L1736.33 281.57C1734.12 277.497 1733.01 272.852 1733.01 267.607H1730.71ZM1734.31 282.677C1736.71 286.998 1740.02 290.429 1744.22 292.952L1745.41 290.977C1741.55 288.663 1738.53 285.53 1736.32 281.559L1734.31 282.677ZM1744.22 292.952C1748.45 295.489 1753.27 296.744 1758.63 296.744V294.441C1753.64 294.441 1749.24 293.277 1745.41 290.977L1744.22 292.952Z" fill="#8A1A3B" mask="url(#path-3-outside-1_17199_72)"/>
</g>
<defs>
<clipPath id="clip0_17199_72">
<rect width="4891" height="497.507" rx="46.0655" fill="white"/>
</clipPath>
</defs>
</svg>
