<svg width="2600" height="131" viewBox="0 0 2600 131" fill="none" xmlns="http://www.w3.org/2000/svg">
<path d="M6.08 80V24H12.48L15.28 34.56V80H6.08ZM44.88 80L11.36 36.24L12.48 24L46 67.76L44.88 80ZM44.88 80L42.08 70.16V24H51.28V80H44.88ZM77.9838 80.8C74.7304 80.8 71.8238 80.08 69.2638 78.64C66.7571 77.2 64.7838 75.2267 63.3438 72.72C61.9571 70.16 61.2638 67.2267 61.2638 63.92V41.6H70.0638V63.52C70.0638 65.3867 70.3571 66.9867 70.9438 68.32C71.5838 69.6 72.4904 70.5867 73.6638 71.28C74.8904 71.9733 76.3304 72.32 77.9838 72.32C80.5438 72.32 82.4904 71.5733 83.8238 70.08C85.2104 68.5333 85.9038 66.3467 85.9038 63.52V41.6H94.7038V63.92C94.7038 67.28 93.9838 70.24 92.5438 72.8C91.1571 75.3067 89.2104 77.28 86.7038 78.72C84.1971 80.1067 81.2904 80.8 77.9838 80.8ZM73.5038 36.08L69.5038 32.08L79.7438 19.04L86.5438 25.84L73.5038 36.08ZM103.552 80V41.6H112.352V80H103.552ZM129.072 80V57.12C129.072 54.56 128.272 52.5867 126.672 51.2C125.072 49.76 123.099 49.04 120.752 49.04C119.152 49.04 117.712 49.36 116.432 50C115.205 50.64 114.219 51.5733 113.472 52.8C112.725 53.9733 112.352 55.4133 112.352 57.12L108.912 55.2C108.912 52.2667 109.552 49.7333 110.832 47.6C112.112 45.4667 113.845 43.8133 116.032 42.64C118.219 41.4133 120.672 40.8 123.392 40.8C126.112 40.8 128.565 41.3867 130.752 42.56C132.939 43.7333 134.672 45.3867 135.952 47.52C137.232 49.6533 137.872 52.2133 137.872 55.2V80H129.072ZM154.592 80V57.12C154.592 54.56 153.792 52.5867 152.192 51.2C150.592 49.76 148.619 49.04 146.272 49.04C144.725 49.04 143.312 49.36 142.032 50C140.752 50.64 139.739 51.5733 138.992 52.8C138.245 53.9733 137.872 55.4133 137.872 57.12L132.912 55.2C133.179 52.2667 134.032 49.7333 135.472 47.6C136.912 45.4667 138.752 43.8133 140.992 42.64C143.285 41.4133 145.792 40.8 148.512 40.8C151.285 40.8 153.792 41.3867 156.032 42.56C158.272 43.7333 160.059 45.3867 161.392 47.52C162.725 49.6533 163.392 52.2133 163.392 55.2V80H154.592ZM190.298 80.8C186.458 80.8 182.991 79.9467 179.898 78.24C176.858 76.48 174.431 74.08 172.618 71.04C170.858 68 169.978 64.5867 169.978 60.8C169.978 57.0133 170.858 53.6267 172.618 50.64C174.378 47.6 176.751 45.2 179.738 43.44C182.778 41.68 186.138 40.8 189.818 40.8C193.391 40.8 196.538 41.6267 199.258 43.28C202.031 44.9333 204.191 47.2 205.738 50.08C207.338 52.96 208.138 56.24 208.138 59.92C208.138 60.56 208.085 61.2267 207.978 61.92C207.925 62.56 207.818 63.28 207.658 64.08H176.138V56.88H203.098L199.818 59.76C199.711 57.4133 199.258 55.44 198.458 53.84C197.658 52.24 196.511 51.0133 195.018 50.16C193.578 49.3067 191.791 48.88 189.658 48.88C187.418 48.88 185.471 49.36 183.818 50.32C182.165 51.28 180.885 52.64 179.978 54.4C179.071 56.1067 178.618 58.16 178.618 60.56C178.618 62.96 179.098 65.0667 180.058 66.88C181.018 68.6933 182.378 70.1067 184.138 71.12C185.898 72.08 187.925 72.56 190.218 72.56C192.191 72.56 194.005 72.2133 195.658 71.52C197.365 70.8267 198.805 69.8133 199.978 68.48L205.578 74.16C203.711 76.3467 201.445 78 198.778 79.12C196.111 80.24 193.285 80.8 190.298 80.8ZM215.193 80V41.6H223.993V80H215.193ZM223.993 58.64L220.953 57.12C220.953 52.2667 222.019 48.3467 224.153 45.36C226.339 42.32 229.619 40.8 233.993 40.8C235.913 40.8 237.646 41.1467 239.193 41.84C240.739 42.5333 242.179 43.6533 243.513 45.2L237.753 51.12C237.059 50.3733 236.286 49.84 235.433 49.52C234.579 49.2 233.593 49.04 232.473 49.04C230.019 49.04 227.993 49.8133 226.393 51.36C224.793 52.9067 223.993 55.3333 223.993 58.64ZM264.199 80.8C260.465 80.8 257.079 79.92 254.039 78.16C250.999 76.3467 248.572 73.92 246.759 70.88C244.999 67.84 244.119 64.4533 244.119 60.72C244.119 56.9867 244.999 53.6267 246.759 50.64C248.572 47.6533 250.999 45.28 254.039 43.52C257.079 41.7067 260.465 40.8 264.199 40.8C267.985 40.8 271.399 41.68 274.439 43.44C277.479 45.2 279.879 47.6 281.639 50.64C283.452 53.6267 284.359 56.9867 284.359 60.72C284.359 64.4533 283.452 67.84 281.639 70.88C279.879 73.92 277.479 76.3467 274.439 78.16C271.399 79.92 267.985 80.8 264.199 80.8ZM264.199 72.32C266.385 72.32 268.305 71.84 269.959 70.88C271.665 69.8667 272.972 68.48 273.879 66.72C274.839 64.96 275.319 62.96 275.319 60.72C275.319 58.48 274.839 56.5067 273.879 54.8C272.919 53.0933 271.612 51.76 269.959 50.8C268.305 49.7867 266.385 49.28 264.199 49.28C262.065 49.28 260.145 49.7867 258.439 50.8C256.785 51.76 255.479 53.0933 254.519 54.8C253.612 56.5067 253.159 58.48 253.159 60.72C253.159 62.96 253.612 64.96 254.519 66.72C255.479 68.48 256.785 69.8667 258.439 70.88C260.145 71.84 262.065 72.32 264.199 72.32ZM323.773 80.8C320.306 80.8 317.159 79.92 314.333 78.16C311.559 76.4 309.346 74.0267 307.693 71.04C306.093 68 305.293 64.6133 305.293 60.88C305.293 57.0933 306.093 53.7067 307.693 50.72C309.346 47.68 311.559 45.28 314.333 43.52C317.159 41.7067 320.306 40.8 323.773 40.8C326.706 40.8 329.293 41.44 331.533 42.72C333.826 43.9467 335.639 45.6533 336.973 47.84C338.306 50.0267 338.973 52.5067 338.973 55.28V66.32C338.973 69.0933 338.306 71.5733 336.973 73.76C335.693 75.9467 333.906 77.68 331.613 78.96C329.319 80.1867 326.706 80.8 323.773 80.8ZM325.213 72.48C327.399 72.48 329.293 72 330.893 71.04C332.546 70.0267 333.826 68.64 334.733 66.88C335.639 65.12 336.093 63.0933 336.093 60.8C336.093 58.5067 335.639 56.48 334.733 54.72C333.826 52.96 332.546 51.6 330.893 50.64C329.293 49.6267 327.399 49.12 325.213 49.12C323.079 49.12 321.186 49.6267 319.533 50.64C317.933 51.6 316.653 52.96 315.693 54.72C314.786 56.48 314.333 58.5067 314.333 60.8C314.333 63.0933 314.786 65.12 315.693 66.88C316.653 68.64 317.933 70.0267 319.533 71.04C321.186 72 323.079 72.48 325.213 72.48ZM344.333 80H335.533V69.68L337.053 60.32L335.533 51.04V22.4H344.333V80ZM371.939 80.8C368.099 80.8 364.632 79.9467 361.539 78.24C358.499 76.48 356.072 74.08 354.259 71.04C352.499 68 351.619 64.5867 351.619 60.8C351.619 57.0133 352.499 53.6267 354.259 50.64C356.019 47.6 358.392 45.2 361.379 43.44C364.419 41.68 367.779 40.8 371.459 40.8C375.032 40.8 378.179 41.6267 380.899 43.28C383.672 44.9333 385.832 47.2 387.379 50.08C388.979 52.96 389.779 56.24 389.779 59.92C389.779 60.56 389.725 61.2267 389.619 61.92C389.565 62.56 389.459 63.28 389.299 64.08H357.779V56.88H384.739L381.459 59.76C381.352 57.4133 380.899 55.44 380.099 53.84C379.299 52.24 378.152 51.0133 376.659 50.16C375.219 49.3067 373.432 48.88 371.299 48.88C369.059 48.88 367.112 49.36 365.459 50.32C363.805 51.28 362.525 52.64 361.619 54.4C360.712 56.1067 360.259 58.16 360.259 60.56C360.259 62.96 360.739 65.0667 361.699 66.88C362.659 68.6933 364.019 70.1067 365.779 71.12C367.539 72.08 369.565 72.56 371.859 72.56C373.832 72.56 375.645 72.2133 377.299 71.52C379.005 70.8267 380.445 69.8133 381.619 68.48L387.219 74.16C385.352 76.3467 383.085 78 380.419 79.12C377.752 80.24 374.925 80.8 371.939 80.8ZM430.689 80.8C426.849 80.8 423.382 79.9467 420.289 78.24C417.249 76.48 414.822 74.08 413.009 71.04C411.249 68 410.369 64.5867 410.369 60.8C410.369 57.0133 411.249 53.6267 413.009 50.64C414.769 47.6 417.142 45.2 420.129 43.44C423.169 41.68 426.529 40.8 430.209 40.8C433.782 40.8 436.929 41.6267 439.649 43.28C442.422 44.9333 444.582 47.2 446.129 50.08C447.729 52.96 448.529 56.24 448.529 59.92C448.529 60.56 448.475 61.2267 448.369 61.92C448.315 62.56 448.209 63.28 448.049 64.08H416.529V56.88H443.489L440.209 59.76C440.102 57.4133 439.649 55.44 438.849 53.84C438.049 52.24 436.902 51.0133 435.409 50.16C433.969 49.3067 432.182 48.88 430.049 48.88C427.809 48.88 425.862 49.36 424.209 50.32C422.555 51.28 421.275 52.64 420.369 54.4C419.462 56.1067 419.009 58.16 419.009 60.56C419.009 62.96 419.489 65.0667 420.449 66.88C421.409 68.6933 422.769 70.1067 424.529 71.12C426.289 72.08 428.315 72.56 430.609 72.56C432.582 72.56 434.395 72.2133 436.049 71.52C437.755 70.8267 439.195 69.8133 440.369 68.48L445.969 74.16C444.102 76.3467 441.835 78 439.169 79.12C436.502 80.24 433.675 80.8 430.689 80.8ZM468.143 80.8C466.01 80.8 463.956 80.5333 461.983 80C460.01 79.4133 458.196 78.6133 456.543 77.6C454.89 76.5333 453.45 75.2533 452.223 73.76L457.823 68.16C459.156 69.7067 460.676 70.88 462.383 71.68C464.143 72.4267 466.116 72.8 468.303 72.8C470.276 72.8 471.77 72.5067 472.783 71.92C473.796 71.3333 474.303 70.48 474.303 69.36C474.303 68.1867 473.823 67.28 472.863 66.64C471.903 66 470.65 65.4667 469.103 65.04C467.61 64.56 466.01 64.08 464.303 63.6C462.65 63.12 461.05 62.48 459.503 61.68C458.01 60.8267 456.783 59.68 455.823 58.24C454.863 56.8 454.383 54.9333 454.383 52.64C454.383 50.1867 454.943 48.08 456.063 46.32C457.236 44.56 458.863 43.2 460.943 42.24C463.076 41.28 465.61 40.8 468.543 40.8C471.636 40.8 474.356 41.36 476.703 42.48C479.103 43.5467 481.103 45.1733 482.703 47.36L477.103 52.96C475.983 51.5733 474.703 50.5333 473.263 49.84C471.823 49.1467 470.17 48.8 468.303 48.8C466.543 48.8 465.183 49.0667 464.223 49.6C463.263 50.1333 462.783 50.9067 462.783 51.92C462.783 52.9867 463.263 53.8133 464.223 54.4C465.183 54.9867 466.41 55.4933 467.903 55.92C469.45 56.3467 471.05 56.8267 472.703 57.36C474.41 57.84 476.01 58.5333 477.503 59.44C479.05 60.2933 480.303 61.4667 481.263 62.96C482.223 64.4 482.703 66.2933 482.703 68.64C482.703 72.3733 481.396 75.3333 478.783 77.52C476.17 79.7067 472.623 80.8 468.143 80.8ZM495.798 80V25.6H504.598V80H495.798ZM486.598 49.6V41.6H513.798V49.6H486.598ZM535.179 80.8C531.712 80.8 528.565 79.92 525.739 78.16C522.965 76.4 520.752 74.0267 519.099 71.04C517.499 68 516.699 64.6133 516.699 60.88C516.699 57.0933 517.499 53.7067 519.099 50.72C520.752 47.68 522.965 45.28 525.739 43.52C528.565 41.7067 531.712 40.8 535.179 40.8C538.112 40.8 540.699 41.44 542.939 42.72C545.232 43.9467 547.045 45.6533 548.379 47.84C549.712 50.0267 550.379 52.5067 550.379 55.28V66.32C550.379 69.0933 549.712 71.5733 548.379 73.76C547.099 75.9467 545.312 77.68 543.019 78.96C540.725 80.1867 538.112 80.8 535.179 80.8ZM536.619 72.48C539.872 72.48 542.485 71.3867 544.459 69.2C546.485 67.0133 547.499 64.2133 547.499 60.8C547.499 58.5067 547.045 56.48 546.139 54.72C545.232 52.96 543.952 51.6 542.299 50.64C540.699 49.6267 538.805 49.12 536.619 49.12C534.485 49.12 532.592 49.6267 530.939 50.64C529.339 51.6 528.059 52.96 527.099 54.72C526.192 56.48 525.739 58.5067 525.739 60.8C525.739 63.0933 526.192 65.12 527.099 66.88C528.059 68.64 529.339 70.0267 530.939 71.04C532.592 72 534.485 72.48 536.619 72.48ZM546.939 80V69.68L548.459 60.32L546.939 51.04V41.6H555.739V80H546.939ZM586.065 80.8C583.132 80.8 580.518 80.1867 578.225 78.96C575.932 77.68 574.118 75.9467 572.785 73.76C571.505 71.5733 570.865 69.0933 570.865 66.32V55.28C570.865 52.5067 571.532 50.0267 572.865 47.84C574.198 45.6533 576.012 43.9467 578.305 42.72C580.598 41.44 583.185 40.8 586.065 40.8C589.532 40.8 592.652 41.7067 595.425 43.52C598.252 45.28 600.465 47.68 602.065 50.72C603.718 53.7067 604.545 57.0933 604.545 60.88C604.545 64.6133 603.718 68 602.065 71.04C600.465 74.0267 598.252 76.4 595.425 78.16C592.652 79.92 589.532 80.8 586.065 80.8ZM565.505 80V22.4H574.305V51.04L572.785 60.32L574.305 69.68V80H565.505ZM584.625 72.48C586.758 72.48 588.625 72 590.225 71.04C591.878 70.0267 593.158 68.64 594.065 66.88C595.025 65.12 595.505 63.0933 595.505 60.8C595.505 58.5067 595.025 56.48 594.065 54.72C593.158 52.96 591.878 51.6 590.225 50.64C588.625 49.6267 586.758 49.12 584.625 49.12C582.492 49.12 580.598 49.6267 578.945 50.64C577.292 51.6 576.012 52.96 575.105 54.72C574.198 56.48 573.745 58.5067 573.745 60.8C573.745 63.0933 574.198 65.12 575.105 66.88C576.012 68.64 577.292 70.0267 578.945 71.04C580.598 72 582.492 72.48 584.625 72.48ZM629.751 80.8C625.911 80.8 622.445 79.9467 619.351 78.24C616.311 76.48 613.885 74.08 612.071 71.04C610.311 68 609.431 64.5867 609.431 60.8C609.431 57.0133 610.311 53.6267 612.071 50.64C613.831 47.6 616.205 45.2 619.191 43.44C622.231 41.68 625.591 40.8 629.271 40.8C632.845 40.8 635.991 41.6267 638.711 43.28C641.485 44.9333 643.645 47.2 645.191 50.08C646.791 52.96 647.591 56.24 647.591 59.92C647.591 60.56 647.538 61.2267 647.431 61.92C647.378 62.56 647.271 63.28 647.111 64.08H615.591V56.88H642.551L639.271 59.76C639.165 57.4133 638.711 55.44 637.911 53.84C637.111 52.24 635.965 51.0133 634.471 50.16C633.031 49.3067 631.245 48.88 629.111 48.88C626.871 48.88 624.925 49.36 623.271 50.32C621.618 51.28 620.338 52.64 619.431 54.4C618.525 56.1067 618.071 58.16 618.071 60.56C618.071 62.96 618.551 65.0667 619.511 66.88C620.471 68.6933 621.831 70.1067 623.591 71.12C625.351 72.08 627.378 72.56 629.671 72.56C631.645 72.56 633.458 72.2133 635.111 71.52C636.818 70.8267 638.258 69.8133 639.431 68.48L645.031 74.16C643.165 76.3467 640.898 78 638.231 79.12C635.565 80.24 632.738 80.8 629.751 80.8ZM654.646 80V22.4H663.446V80H654.646ZM691.079 80.8C687.239 80.8 683.773 79.9467 680.679 78.24C677.639 76.48 675.213 74.08 673.399 71.04C671.639 68 670.759 64.5867 670.759 60.8C670.759 57.0133 671.639 53.6267 673.399 50.64C675.159 47.6 677.533 45.2 680.519 43.44C683.559 41.68 686.919 40.8 690.599 40.8C694.173 40.8 697.319 41.6267 700.039 43.28C702.813 44.9333 704.973 47.2 706.519 50.08C708.119 52.96 708.919 56.24 708.919 59.92C708.919 60.56 708.866 61.2267 708.759 61.92C708.706 62.56 708.599 63.28 708.439 64.08H676.919V56.88H703.879L700.599 59.76C700.493 57.4133 700.039 55.44 699.239 53.84C698.439 52.24 697.293 51.0133 695.799 50.16C694.359 49.3067 692.573 48.88 690.439 48.88C688.199 48.88 686.253 49.36 684.599 50.32C682.946 51.28 681.666 52.64 680.759 54.4C679.853 56.1067 679.399 58.16 679.399 60.56C679.399 62.96 679.879 65.0667 680.839 66.88C681.799 68.6933 683.159 70.1067 684.919 71.12C686.679 72.08 688.706 72.56 690.999 72.56C692.973 72.56 694.786 72.2133 696.439 71.52C698.146 70.8267 699.586 69.8133 700.759 68.48L706.359 74.16C704.493 76.3467 702.226 78 699.559 79.12C696.893 80.24 694.066 80.8 691.079 80.8ZM733.654 80.8C729.867 80.8 726.427 79.92 723.334 78.16C720.294 76.4 717.894 74 716.134 70.96C714.374 67.92 713.494 64.5333 713.494 60.8C713.494 57.0133 714.374 53.6267 716.134 50.64C717.894 47.6 720.294 45.2 723.334 43.44C726.427 41.68 729.867 40.8 733.654 40.8C736.64 40.8 739.414 41.3867 741.974 42.56C744.587 43.68 746.8 45.3067 748.614 47.44L742.854 53.28C741.734 51.9467 740.374 50.96 738.774 50.32C737.227 49.6267 735.52 49.28 733.654 49.28C731.467 49.28 729.52 49.7867 727.814 50.8C726.16 51.76 724.854 53.0933 723.894 54.8C722.987 56.5067 722.534 58.5067 722.534 60.8C722.534 63.04 722.987 65.04 723.894 66.8C724.854 68.5067 726.16 69.8667 727.814 70.88C729.52 71.84 731.467 72.32 733.654 72.32C735.52 72.32 737.227 72 738.774 71.36C740.374 70.6667 741.734 69.6533 742.854 68.32L748.614 74.16C746.8 76.2933 744.587 77.9467 741.974 79.12C739.414 80.24 736.64 80.8 733.654 80.8ZM755.038 80V41.6H763.838V80H755.038ZM759.438 34.56C757.945 34.56 756.691 34.0533 755.678 33.04C754.718 32.0267 754.238 30.7733 754.238 29.28C754.238 27.7867 754.718 26.5333 755.678 25.52C756.691 24.5067 757.945 24 759.438 24C760.985 24 762.238 24.5067 763.198 25.52C764.158 26.5333 764.638 27.7867 764.638 29.28C764.638 30.7733 764.158 32.0267 763.198 33.04C762.238 34.0533 760.985 34.56 759.438 34.56ZM773.708 80V41.6H782.508V80H773.708ZM799.228 80V57.12C799.228 54.56 798.428 52.5867 796.828 51.2C795.228 49.76 793.255 49.04 790.908 49.04C789.308 49.04 787.868 49.36 786.588 50C785.361 50.64 784.375 51.5733 783.628 52.8C782.881 53.9733 782.508 55.4133 782.508 57.12L779.068 55.2C779.068 52.2667 779.708 49.7333 780.988 47.6C782.268 45.4667 784.001 43.8133 786.188 42.64C788.375 41.4133 790.828 40.8 793.548 40.8C796.268 40.8 798.721 41.3867 800.908 42.56C803.095 43.7333 804.828 45.3867 806.108 47.52C807.388 49.6533 808.028 52.2133 808.028 55.2V80H799.228ZM824.748 80V57.12C824.748 54.56 823.948 52.5867 822.348 51.2C820.748 49.76 818.775 49.04 816.428 49.04C814.881 49.04 813.468 49.36 812.188 50C810.908 50.64 809.895 51.5733 809.148 52.8C808.401 53.9733 808.028 55.4133 808.028 57.12L803.068 55.2C803.335 52.2667 804.188 49.7333 805.628 47.6C807.068 45.4667 808.908 43.8133 811.148 42.64C813.441 41.4133 815.948 40.8 818.668 40.8C821.441 40.8 823.948 41.3867 826.188 42.56C828.428 43.7333 830.215 45.3867 831.548 47.52C832.881 49.6533 833.548 52.2133 833.548 55.2V80H824.748ZM860.454 80.8C856.614 80.8 853.148 79.9467 850.054 78.24C847.014 76.48 844.588 74.08 842.774 71.04C841.014 68 840.134 64.5867 840.134 60.8C840.134 57.0133 841.014 53.6267 842.774 50.64C844.534 47.6 846.908 45.2 849.894 43.44C852.934 41.68 856.294 40.8 859.974 40.8C863.548 40.8 866.694 41.6267 869.414 43.28C872.188 44.9333 874.348 47.2 875.894 50.08C877.494 52.96 878.294 56.24 878.294 59.92C878.294 60.56 878.241 61.2267 878.134 61.92C878.081 62.56 877.974 63.28 877.814 64.08H846.294V56.88H873.254L869.974 59.76C869.868 57.4133 869.414 55.44 868.614 53.84C867.814 52.24 866.668 51.0133 865.174 50.16C863.734 49.3067 861.948 48.88 859.814 48.88C857.574 48.88 855.628 49.36 853.974 50.32C852.321 51.28 851.041 52.64 850.134 54.4C849.228 56.1067 848.774 58.16 848.774 60.56C848.774 62.96 849.254 65.0667 850.214 66.88C851.174 68.6933 852.534 70.1067 854.294 71.12C856.054 72.08 858.081 72.56 860.374 72.56C862.348 72.56 864.161 72.2133 865.814 71.52C867.521 70.8267 868.961 69.8133 870.134 68.48L875.734 74.16C873.868 76.3467 871.601 78 868.934 79.12C866.268 80.24 863.441 80.8 860.454 80.8ZM911.669 80V57.84C911.669 55.28 910.842 53.1733 909.189 51.52C907.589 49.8667 905.509 49.04 902.949 49.04C901.242 49.04 899.722 49.4133 898.389 50.16C897.055 50.9067 896.015 51.9467 895.269 53.28C894.522 54.6133 894.149 56.1333 894.149 57.84L890.709 55.92C890.709 52.9867 891.349 50.4 892.629 48.16C893.909 45.8667 895.669 44.08 897.909 42.8C900.202 41.4667 902.762 40.8 905.589 40.8C908.469 40.8 911.029 41.5467 913.269 43.04C915.509 44.48 917.269 46.3733 918.549 48.72C919.829 51.0133 920.469 53.4133 920.469 55.92V80H911.669ZM885.349 80V41.6H894.149V80H885.349ZM934.783 80V25.6H943.583V80H934.783ZM925.583 49.6V41.6H952.783V49.6H925.583ZM975.683 80.8C971.95 80.8 968.563 79.92 965.523 78.16C962.483 76.3467 960.056 73.92 958.243 70.88C956.483 67.84 955.603 64.4533 955.603 60.72C955.603 56.9867 956.483 53.6267 958.243 50.64C960.056 47.6533 962.483 45.28 965.523 43.52C968.563 41.7067 971.95 40.8 975.683 40.8C979.47 40.8 982.883 41.68 985.923 43.44C988.963 45.2 991.363 47.6 993.123 50.64C994.936 53.6267 995.843 56.9867 995.843 60.72C995.843 64.4533 994.936 67.84 993.123 70.88C991.363 73.92 988.963 76.3467 985.923 78.16C982.883 79.92 979.47 80.8 975.683 80.8ZM975.683 72.32C977.87 72.32 979.79 71.84 981.443 70.88C983.15 69.8667 984.456 68.48 985.363 66.72C986.323 64.96 986.803 62.96 986.803 60.72C986.803 58.48 986.323 56.5067 985.363 54.8C984.403 53.0933 983.096 51.76 981.443 50.8C979.79 49.7867 977.87 49.28 975.683 49.28C973.55 49.28 971.63 49.7867 969.923 50.8C968.27 51.76 966.963 53.0933 966.003 54.8C965.096 56.5067 964.643 58.48 964.643 60.72C964.643 62.96 965.096 64.96 966.003 66.72C966.963 68.48 968.27 69.8667 969.923 70.88C971.63 71.84 973.55 72.32 975.683 72.32ZM1015.72 80.8C1013.59 80.8 1011.53 80.5333 1009.56 80C1007.59 79.4133 1005.77 78.6133 1004.12 77.6C1002.47 76.5333 1001.03 75.2533 999.801 73.76L1005.4 68.16C1006.73 69.7067 1008.25 70.88 1009.96 71.68C1011.72 72.4267 1013.69 72.8 1015.88 72.8C1017.85 72.8 1019.35 72.5067 1020.36 71.92C1021.37 71.3333 1021.88 70.48 1021.88 69.36C1021.88 68.1867 1021.4 67.28 1020.44 66.64C1019.48 66 1018.23 65.4667 1016.68 65.04C1015.19 64.56 1013.59 64.08 1011.88 63.6C1010.23 63.12 1008.63 62.48 1007.08 61.68C1005.59 60.8267 1004.36 59.68 1003.4 58.24C1002.44 56.8 1001.96 54.9333 1001.96 52.64C1001.96 50.1867 1002.52 48.08 1003.64 46.32C1004.81 44.56 1006.44 43.2 1008.52 42.24C1010.65 41.28 1013.19 40.8 1016.12 40.8C1019.21 40.8 1021.93 41.36 1024.28 42.48C1026.68 43.5467 1028.68 45.1733 1030.28 47.36L1024.68 52.96C1023.56 51.5733 1022.28 50.5333 1020.84 49.84C1019.4 49.1467 1017.75 48.8 1015.88 48.8C1014.12 48.8 1012.76 49.0667 1011.8 49.6C1010.84 50.1333 1010.36 50.9067 1010.36 51.92C1010.36 52.9867 1010.84 53.8133 1011.8 54.4C1012.76 54.9867 1013.99 55.4933 1015.48 55.92C1017.03 56.3467 1018.63 56.8267 1020.28 57.36C1021.99 57.84 1023.59 58.5333 1025.08 59.44C1026.63 60.2933 1027.88 61.4667 1028.84 62.96C1029.8 64.4 1030.28 66.2933 1030.28 68.64C1030.28 72.3733 1028.97 75.3333 1026.36 77.52C1023.75 79.7067 1020.2 80.8 1015.72 80.8ZM1058.83 80V36.56C1058.83 33.6267 1059.47 31.04 1060.75 28.8C1062.09 26.56 1063.9 24.8 1066.19 23.52C1068.54 22.24 1071.23 21.6 1074.27 21.6C1076.62 21.6 1078.62 22 1080.27 22.8C1081.93 23.6 1083.47 24.7467 1084.91 26.24L1079.23 31.92C1078.59 31.28 1077.9 30.7733 1077.15 30.4C1076.41 30.0267 1075.45 29.84 1074.27 29.84C1072.14 29.84 1070.49 30.4267 1069.31 31.6C1068.19 32.72 1067.63 34.3467 1067.63 36.48V80H1058.83ZM1049.63 49.6V41.6H1079.23V49.6H1049.63ZM1101.46 80.8C1097.73 80.8 1094.34 79.92 1091.3 78.16C1088.26 76.3467 1085.84 73.92 1084.02 70.88C1082.26 67.84 1081.38 64.4533 1081.38 60.72C1081.38 56.9867 1082.26 53.6267 1084.02 50.64C1085.84 47.6533 1088.26 45.28 1091.3 43.52C1094.34 41.7067 1097.73 40.8 1101.46 40.8C1105.25 40.8 1108.66 41.68 1111.7 43.44C1114.74 45.2 1117.14 47.6 1118.9 50.64C1120.72 53.6267 1121.62 56.9867 1121.62 60.72C1121.62 64.4533 1120.72 67.84 1118.9 70.88C1117.14 73.92 1114.74 76.3467 1111.7 78.16C1108.66 79.92 1105.25 80.8 1101.46 80.8ZM1101.46 72.32C1103.65 72.32 1105.57 71.84 1107.22 70.88C1108.93 69.8667 1110.24 68.48 1111.14 66.72C1112.1 64.96 1112.58 62.96 1112.58 60.72C1112.58 58.48 1112.1 56.5067 1111.14 54.8C1110.18 53.0933 1108.88 51.76 1107.22 50.8C1105.57 49.7867 1103.65 49.28 1101.46 49.28C1099.33 49.28 1097.41 49.7867 1095.7 50.8C1094.05 51.76 1092.74 53.0933 1091.78 54.8C1090.88 56.5067 1090.42 58.48 1090.42 60.72C1090.42 62.96 1090.88 64.96 1091.78 66.72C1092.74 68.48 1094.05 69.8667 1095.7 70.88C1097.41 71.84 1099.33 72.32 1101.46 72.32ZM1128.94 80V41.6H1137.74V80H1128.94ZM1137.74 58.64L1134.7 57.12C1134.7 52.2667 1135.77 48.3467 1137.9 45.36C1140.09 42.32 1143.37 40.8 1147.74 40.8C1149.66 40.8 1151.4 41.1467 1152.94 41.84C1154.49 42.5333 1155.93 43.6533 1157.26 45.2L1151.5 51.12C1150.81 50.3733 1150.04 49.84 1149.18 49.52C1148.33 49.2 1147.34 49.04 1146.22 49.04C1143.77 49.04 1141.74 49.8133 1140.14 51.36C1138.54 52.9067 1137.74 55.3333 1137.74 58.64ZM1161.52 80V41.6H1170.32V80H1161.52ZM1187.04 80V57.12C1187.04 54.56 1186.24 52.5867 1184.64 51.2C1183.04 49.76 1181.07 49.04 1178.72 49.04C1177.12 49.04 1175.68 49.36 1174.4 50C1173.17 50.64 1172.19 51.5733 1171.44 52.8C1170.69 53.9733 1170.32 55.4133 1170.32 57.12L1166.88 55.2C1166.88 52.2667 1167.52 49.7333 1168.8 47.6C1170.08 45.4667 1171.81 43.8133 1174 42.64C1176.19 41.4133 1178.64 40.8 1181.36 40.8C1184.08 40.8 1186.53 41.3867 1188.72 42.56C1190.91 43.7333 1192.64 45.3867 1193.92 47.52C1195.2 49.6533 1195.84 52.2133 1195.84 55.2V80H1187.04ZM1212.56 80V57.12C1212.56 54.56 1211.76 52.5867 1210.16 51.2C1208.56 49.76 1206.59 49.04 1204.24 49.04C1202.69 49.04 1201.28 49.36 1200 50C1198.72 50.64 1197.71 51.5733 1196.96 52.8C1196.21 53.9733 1195.84 55.4133 1195.84 57.12L1190.88 55.2C1191.15 52.2667 1192 49.7333 1193.44 47.6C1194.88 45.4667 1196.72 43.8133 1198.96 42.64C1201.25 41.4133 1203.76 40.8 1206.48 40.8C1209.25 40.8 1211.76 41.3867 1214 42.56C1216.24 43.7333 1218.03 45.3867 1219.36 47.52C1220.69 49.6533 1221.36 52.2133 1221.36 55.2V80H1212.56ZM1246.51 80.8C1243.04 80.8 1239.89 79.92 1237.07 78.16C1234.29 76.4 1232.08 74.0267 1230.43 71.04C1228.83 68 1228.03 64.6133 1228.03 60.88C1228.03 57.0933 1228.83 53.7067 1230.43 50.72C1232.08 47.68 1234.29 45.28 1237.07 43.52C1239.89 41.7067 1243.04 40.8 1246.51 40.8C1249.44 40.8 1252.03 41.44 1254.27 42.72C1256.56 43.9467 1258.37 45.6533 1259.71 47.84C1261.04 50.0267 1261.71 52.5067 1261.71 55.28V66.32C1261.71 69.0933 1261.04 71.5733 1259.71 73.76C1258.43 75.9467 1256.64 77.68 1254.35 78.96C1252.05 80.1867 1249.44 80.8 1246.51 80.8ZM1247.95 72.48C1251.2 72.48 1253.81 71.3867 1255.79 69.2C1257.81 67.0133 1258.83 64.2133 1258.83 60.8C1258.83 58.5067 1258.37 56.48 1257.47 54.72C1256.56 52.96 1255.28 51.6 1253.63 50.64C1252.03 49.6267 1250.13 49.12 1247.95 49.12C1245.81 49.12 1243.92 49.6267 1242.27 50.64C1240.67 51.6 1239.39 52.96 1238.43 54.72C1237.52 56.48 1237.07 58.5067 1237.07 60.8C1237.07 63.0933 1237.52 65.12 1238.43 66.88C1239.39 68.64 1240.67 70.0267 1242.27 71.04C1243.92 72 1245.81 72.48 1247.95 72.48ZM1258.27 80V69.68L1259.79 60.32L1258.27 51.04V41.6H1267.07V80H1258.27ZM1276.91 80V41.6H1285.71V80H1276.91ZM1281.31 34.56C1279.82 34.56 1278.57 34.0533 1277.55 33.04C1276.59 32.0267 1276.11 30.7733 1276.11 29.28C1276.11 27.7867 1276.59 26.5333 1277.55 25.52C1278.57 24.5067 1279.82 24 1281.31 24C1282.86 24 1284.11 24.5067 1285.07 25.52C1286.03 26.5333 1286.51 27.7867 1286.51 29.28C1286.51 30.7733 1286.03 32.0267 1285.07 33.04C1284.11 34.0533 1282.86 34.56 1281.31 34.56ZM1308.14 80.8C1306.01 80.8 1303.96 80.5333 1301.98 80C1300.01 79.4133 1298.2 78.6133 1296.54 77.6C1294.89 76.5333 1293.45 75.2533 1292.22 73.76L1297.82 68.16C1299.16 69.7067 1300.68 70.88 1302.38 71.68C1304.14 72.4267 1306.12 72.8 1308.3 72.8C1310.28 72.8 1311.77 72.5067 1312.78 71.92C1313.8 71.3333 1314.3 70.48 1314.3 69.36C1314.3 68.1867 1313.82 67.28 1312.86 66.64C1311.9 66 1310.65 65.4667 1309.1 65.04C1307.61 64.56 1306.01 64.08 1304.3 63.6C1302.65 63.12 1301.05 62.48 1299.5 61.68C1298.01 60.8267 1296.78 59.68 1295.82 58.24C1294.86 56.8 1294.38 54.9333 1294.38 52.64C1294.38 50.1867 1294.94 48.08 1296.06 46.32C1297.24 44.56 1298.86 43.2 1300.94 42.24C1303.08 41.28 1305.61 40.8 1308.54 40.8C1311.64 40.8 1314.36 41.36 1316.7 42.48C1319.1 43.5467 1321.1 45.1733 1322.7 47.36L1317.1 52.96C1315.98 51.5733 1314.7 50.5333 1313.26 49.84C1311.82 49.1467 1310.17 48.8 1308.3 48.8C1306.54 48.8 1305.18 49.0667 1304.22 49.6C1303.26 50.1333 1302.78 50.9067 1302.78 51.92C1302.78 52.9867 1303.26 53.8133 1304.22 54.4C1305.18 54.9867 1306.41 55.4933 1307.9 55.92C1309.45 56.3467 1311.05 56.8267 1312.7 57.36C1314.41 57.84 1316.01 58.5333 1317.5 59.44C1319.05 60.2933 1320.3 61.4667 1321.26 62.96C1322.22 64.4 1322.7 66.2933 1322.7 68.64C1322.7 72.3733 1321.4 75.3333 1318.78 77.52C1316.17 79.7067 1312.62 80.8 1308.14 80.8ZM1366.53 80.8C1363.6 80.8 1360.99 80.1867 1358.69 78.96C1356.4 77.68 1354.59 75.9467 1353.25 73.76C1351.97 71.5733 1351.33 69.0933 1351.33 66.32V55.28C1351.33 52.5067 1352 50.0267 1353.33 47.84C1354.67 45.6533 1356.48 43.9467 1358.77 42.72C1361.07 41.44 1363.65 40.8 1366.53 40.8C1370 40.8 1373.12 41.7067 1375.89 43.52C1378.72 45.28 1380.93 47.68 1382.53 50.72C1384.19 53.7067 1385.01 57.0933 1385.01 60.88C1385.01 64.6133 1384.19 68 1382.53 71.04C1380.93 74.0267 1378.72 76.4 1375.89 78.16C1373.12 79.92 1370 80.8 1366.53 80.8ZM1345.97 96V41.6H1354.77V51.92L1353.25 61.28L1354.77 70.56V96H1345.97ZM1365.09 72.48C1367.23 72.48 1369.09 72 1370.69 71.04C1372.35 70.0267 1373.63 68.64 1374.53 66.88C1375.49 65.12 1375.97 63.0933 1375.97 60.8C1375.97 58.5067 1375.49 56.48 1374.53 54.72C1373.63 52.96 1372.35 51.6 1370.69 50.64C1369.09 49.6267 1367.23 49.12 1365.09 49.12C1362.96 49.12 1361.07 49.6267 1359.41 50.64C1357.76 51.6 1356.48 52.96 1355.57 54.72C1354.67 56.48 1354.21 58.5067 1354.21 60.8C1354.21 63.0933 1354.67 65.12 1355.57 66.88C1356.48 68.64 1357.76 70.0267 1359.41 71.04C1361.07 72 1362.96 72.48 1365.09 72.48ZM1409.98 80.8C1406.25 80.8 1402.86 79.92 1399.82 78.16C1396.78 76.3467 1394.35 73.92 1392.54 70.88C1390.78 67.84 1389.9 64.4533 1389.9 60.72C1389.9 56.9867 1390.78 53.6267 1392.54 50.64C1394.35 47.6533 1396.78 45.28 1399.82 43.52C1402.86 41.7067 1406.25 40.8 1409.98 40.8C1413.77 40.8 1417.18 41.68 1420.22 43.44C1423.26 45.2 1425.66 47.6 1427.42 50.64C1429.23 53.6267 1430.14 56.9867 1430.14 60.72C1430.14 64.4533 1429.23 67.84 1427.42 70.88C1425.66 73.92 1423.26 76.3467 1420.22 78.16C1417.18 79.92 1413.77 80.8 1409.98 80.8ZM1409.98 72.32C1412.17 72.32 1414.09 71.84 1415.74 70.88C1417.45 69.8667 1418.75 68.48 1419.66 66.72C1420.62 64.96 1421.1 62.96 1421.1 60.72C1421.1 58.48 1420.62 56.5067 1419.66 54.8C1418.7 53.0933 1417.39 51.76 1415.74 50.8C1414.09 49.7867 1412.17 49.28 1409.98 49.28C1407.85 49.28 1405.93 49.7867 1404.22 50.8C1402.57 51.76 1401.26 53.0933 1400.3 54.8C1399.39 56.5067 1398.94 58.48 1398.94 60.72C1398.94 62.96 1399.39 64.96 1400.3 66.72C1401.26 68.48 1402.57 69.8667 1404.22 70.88C1405.93 71.84 1407.85 72.32 1409.98 72.32ZM1437.46 80V41.6H1446.26V80H1437.46ZM1446.26 58.64L1443.22 57.12C1443.22 52.2667 1444.28 48.3467 1446.42 45.36C1448.6 42.32 1451.88 40.8 1456.26 40.8C1458.18 40.8 1459.91 41.1467 1461.46 41.84C1463 42.5333 1464.44 43.6533 1465.78 45.2L1460.02 51.12C1459.32 50.3733 1458.55 49.84 1457.7 49.52C1456.84 49.2 1455.86 49.04 1454.74 49.04C1452.28 49.04 1450.26 49.8133 1448.66 51.36C1447.06 52.9067 1446.26 55.3333 1446.26 58.64ZM1500.02 80.8C1497.88 80.8 1495.83 80.5333 1493.86 80C1491.88 79.4133 1490.07 78.6133 1488.42 77.6C1486.76 76.5333 1485.32 75.2533 1484.1 73.76L1489.7 68.16C1491.03 69.7067 1492.55 70.88 1494.26 71.68C1496.02 72.4267 1497.99 72.8 1500.18 72.8C1502.15 72.8 1503.64 72.5067 1504.66 71.92C1505.67 71.3333 1506.18 70.48 1506.18 69.36C1506.18 68.1867 1505.7 67.28 1504.74 66.64C1503.78 66 1502.52 65.4667 1500.98 65.04C1499.48 64.56 1497.88 64.08 1496.18 63.6C1494.52 63.12 1492.92 62.48 1491.38 61.68C1489.88 60.8267 1488.66 59.68 1487.7 58.24C1486.74 56.8 1486.26 54.9333 1486.26 52.64C1486.26 50.1867 1486.82 48.08 1487.94 46.32C1489.11 44.56 1490.74 43.2 1492.82 42.24C1494.95 41.28 1497.48 40.8 1500.42 40.8C1503.51 40.8 1506.23 41.36 1508.58 42.48C1510.98 43.5467 1512.98 45.1733 1514.58 47.36L1508.98 52.96C1507.86 51.5733 1506.58 50.5333 1505.14 49.84C1503.7 49.1467 1502.04 48.8 1500.18 48.8C1498.42 48.8 1497.06 49.0667 1496.1 49.6C1495.14 50.1333 1494.66 50.9067 1494.66 51.92C1494.66 52.9867 1495.14 53.8133 1496.1 54.4C1497.06 54.9867 1498.28 55.4933 1499.78 55.92C1501.32 56.3467 1502.92 56.8267 1504.58 57.36C1506.28 57.84 1507.88 58.5333 1509.38 59.44C1510.92 60.2933 1512.18 61.4667 1513.14 62.96C1514.1 64.4 1514.58 66.2933 1514.58 68.64C1514.58 72.3733 1513.27 75.3333 1510.66 77.52C1508.04 79.7067 1504.5 80.8 1500.02 80.8ZM1539.67 80.8C1535.83 80.8 1532.37 79.9467 1529.27 78.24C1526.23 76.48 1523.81 74.08 1521.99 71.04C1520.23 68 1519.35 64.5867 1519.35 60.8C1519.35 57.0133 1520.23 53.6267 1521.99 50.64C1523.75 47.6 1526.13 45.2 1529.11 43.44C1532.15 41.68 1535.51 40.8 1539.19 40.8C1542.77 40.8 1545.91 41.6267 1548.63 43.28C1551.41 44.9333 1553.57 47.2 1555.11 50.08C1556.71 52.96 1557.51 56.24 1557.51 59.92C1557.51 60.56 1557.46 61.2267 1557.35 61.92C1557.3 62.56 1557.19 63.28 1557.03 64.08H1525.51V56.88H1552.47L1549.19 59.76C1549.09 57.4133 1548.63 55.44 1547.83 53.84C1547.03 52.24 1545.89 51.0133 1544.39 50.16C1542.95 49.3067 1541.17 48.88 1539.03 48.88C1536.79 48.88 1534.85 49.36 1533.19 50.32C1531.54 51.28 1530.26 52.64 1529.35 54.4C1528.45 56.1067 1527.99 58.16 1527.99 60.56C1527.99 62.96 1528.47 65.0667 1529.43 66.88C1530.39 68.6933 1531.75 70.1067 1533.51 71.12C1535.27 72.08 1537.3 72.56 1539.59 72.56C1541.57 72.56 1543.38 72.2133 1545.03 71.52C1546.74 70.8267 1548.18 69.8133 1549.35 68.48L1554.95 74.16C1553.09 76.3467 1550.82 78 1548.15 79.12C1545.49 80.24 1542.66 80.8 1539.67 80.8ZM1569.39 80V25.6H1578.19V80H1569.39ZM1560.19 49.6V41.6H1587.39V49.6H1560.19ZM1610.29 80.8C1606.56 80.8 1603.17 79.92 1600.13 78.16C1597.09 76.3467 1594.67 73.92 1592.85 70.88C1591.09 67.84 1590.21 64.4533 1590.21 60.72C1590.21 56.9867 1591.09 53.6267 1592.85 50.64C1594.67 47.6533 1597.09 45.28 1600.13 43.52C1603.17 41.7067 1606.56 40.8 1610.29 40.8C1614.08 40.8 1617.49 41.68 1620.53 43.44C1623.57 45.2 1625.97 47.6 1627.73 50.64C1629.55 53.6267 1630.45 56.9867 1630.45 60.72C1630.45 64.4533 1629.55 67.84 1627.73 70.88C1625.97 73.92 1623.57 76.3467 1620.53 78.16C1617.49 79.92 1614.08 80.8 1610.29 80.8ZM1610.29 72.32C1612.48 72.32 1614.4 71.84 1616.05 70.88C1617.76 69.8667 1619.07 68.48 1619.97 66.72C1620.93 64.96 1621.41 62.96 1621.41 60.72C1621.41 58.48 1620.93 56.5067 1619.97 54.8C1619.01 53.0933 1617.71 51.76 1616.05 50.8C1614.4 49.7867 1612.48 49.28 1610.29 49.28C1608.16 49.28 1606.24 49.7867 1604.53 50.8C1602.88 51.76 1601.57 53.0933 1600.61 54.8C1599.71 56.5067 1599.25 58.48 1599.25 60.72C1599.25 62.96 1599.71 64.96 1600.61 66.72C1601.57 68.48 1602.88 69.8667 1604.53 70.88C1606.24 71.84 1608.16 72.32 1610.29 72.32ZM1637.77 80V41.6H1646.57V80H1637.77ZM1646.57 58.64L1643.53 57.12C1643.53 52.2667 1644.6 48.3467 1646.73 45.36C1648.92 42.32 1652.2 40.8 1656.57 40.8C1658.49 40.8 1660.22 41.1467 1661.77 41.84C1663.32 42.5333 1664.76 43.6533 1666.09 45.2L1660.33 51.12C1659.64 50.3733 1658.86 49.84 1658.01 49.52C1657.16 49.2 1656.17 49.04 1655.05 49.04C1652.6 49.04 1650.57 49.8133 1648.97 51.36C1647.37 52.9067 1646.57 55.3333 1646.57 58.64ZM1687.02 80.8C1683.18 80.8 1679.71 79.9467 1676.62 78.24C1673.58 76.48 1671.15 74.08 1669.34 71.04C1667.58 68 1666.7 64.5867 1666.7 60.8C1666.7 57.0133 1667.58 53.6267 1669.34 50.64C1671.1 47.6 1673.47 45.2 1676.46 43.44C1679.5 41.68 1682.86 40.8 1686.54 40.8C1690.11 40.8 1693.26 41.6267 1695.98 43.28C1698.75 44.9333 1700.91 47.2 1702.46 50.08C1704.06 52.96 1704.86 56.24 1704.86 59.92C1704.86 60.56 1704.8 61.2267 1704.7 61.92C1704.64 62.56 1704.54 63.28 1704.38 64.08H1672.86V56.88H1699.82L1696.54 59.76C1696.43 57.4133 1695.98 55.44 1695.18 53.84C1694.38 52.24 1693.23 51.0133 1691.74 50.16C1690.3 49.3067 1688.51 48.88 1686.38 48.88C1684.14 48.88 1682.19 49.36 1680.54 50.32C1678.88 51.28 1677.6 52.64 1676.7 54.4C1675.79 56.1067 1675.34 58.16 1675.34 60.56C1675.34 62.96 1675.82 65.0667 1676.78 66.88C1677.74 68.6933 1679.1 70.1067 1680.86 71.12C1682.62 72.08 1684.64 72.56 1686.94 72.56C1688.91 72.56 1690.72 72.2133 1692.38 71.52C1694.08 70.8267 1695.52 69.8133 1696.7 68.48L1702.3 74.16C1700.43 76.3467 1698.16 78 1695.5 79.12C1692.83 80.24 1690 80.8 1687.02 80.8ZM1724.47 80.8C1722.34 80.8 1720.28 80.5333 1718.31 80C1716.34 79.4133 1714.52 78.6133 1712.87 77.6C1711.22 76.5333 1709.78 75.2533 1708.55 73.76L1714.15 68.16C1715.48 69.7067 1717 70.88 1718.71 71.68C1720.47 72.4267 1722.44 72.8 1724.63 72.8C1726.6 72.8 1728.1 72.5067 1729.11 71.92C1730.12 71.3333 1730.63 70.48 1730.63 69.36C1730.63 68.1867 1730.15 67.28 1729.19 66.64C1728.23 66 1726.98 65.4667 1725.43 65.04C1723.94 64.56 1722.34 64.08 1720.63 63.6C1718.98 63.12 1717.38 62.48 1715.83 61.68C1714.34 60.8267 1713.11 59.68 1712.15 58.24C1711.19 56.8 1710.71 54.9333 1710.71 52.64C1710.71 50.1867 1711.27 48.08 1712.39 46.32C1713.56 44.56 1715.19 43.2 1717.27 42.24C1719.4 41.28 1721.94 40.8 1724.87 40.8C1727.96 40.8 1730.68 41.36 1733.03 42.48C1735.43 43.5467 1737.43 45.1733 1739.03 47.36L1733.43 52.96C1732.31 51.5733 1731.03 50.5333 1729.59 49.84C1728.15 49.1467 1726.5 48.8 1724.63 48.8C1722.87 48.8 1721.51 49.0667 1720.55 49.6C1719.59 50.1333 1719.11 50.9067 1719.11 51.92C1719.11 52.9867 1719.59 53.8133 1720.55 54.4C1721.51 54.9867 1722.74 55.4933 1724.23 55.92C1725.78 56.3467 1727.38 56.8267 1729.03 57.36C1730.74 57.84 1732.34 58.5333 1733.83 59.44C1735.38 60.2933 1736.63 61.4667 1737.59 62.96C1738.55 64.4 1739.03 66.2933 1739.03 68.64C1739.03 72.3733 1737.72 75.3333 1735.11 77.52C1732.5 79.7067 1728.95 80.8 1724.47 80.8ZM1780.14 80.8C1776.3 80.8 1772.84 79.9467 1769.74 78.24C1766.7 76.48 1764.28 74.08 1762.46 71.04C1760.7 68 1759.82 64.5867 1759.82 60.8C1759.82 57.0133 1760.7 53.6267 1762.46 50.64C1764.22 47.6 1766.6 45.2 1769.58 43.44C1772.62 41.68 1775.98 40.8 1779.66 40.8C1783.24 40.8 1786.38 41.6267 1789.1 43.28C1791.88 44.9333 1794.04 47.2 1795.58 50.08C1797.18 52.96 1797.98 56.24 1797.98 59.92C1797.98 60.56 1797.93 61.2267 1797.82 61.92C1797.77 62.56 1797.66 63.28 1797.5 64.08H1765.98V56.88H1792.94L1789.66 59.76C1789.56 57.4133 1789.1 55.44 1788.3 53.84C1787.5 52.24 1786.36 51.0133 1784.86 50.16C1783.42 49.3067 1781.64 48.88 1779.5 48.88C1777.26 48.88 1775.32 49.36 1773.66 50.32C1772.01 51.28 1770.73 52.64 1769.82 54.4C1768.92 56.1067 1768.46 58.16 1768.46 60.56C1768.46 62.96 1768.94 65.0667 1769.9 66.88C1770.86 68.6933 1772.22 70.1067 1773.98 71.12C1775.74 72.08 1777.77 72.56 1780.06 72.56C1782.04 72.56 1783.85 72.2133 1785.5 71.52C1787.21 70.8267 1788.65 69.8133 1789.82 68.48L1795.42 74.16C1793.56 76.3467 1791.29 78 1788.62 79.12C1785.96 80.24 1783.13 80.8 1780.14 80.8ZM1822.72 80.8C1818.93 80.8 1815.49 79.92 1812.4 78.16C1809.36 76.4 1806.96 74 1805.2 70.96C1803.44 67.92 1802.56 64.5333 1802.56 60.8C1802.56 57.0133 1803.44 53.6267 1805.2 50.64C1806.96 47.6 1809.36 45.2 1812.4 43.44C1815.49 41.68 1818.93 40.8 1822.72 40.8C1825.7 40.8 1828.48 41.3867 1831.04 42.56C1833.65 43.68 1835.86 45.3067 1837.68 47.44L1831.92 53.28C1830.8 51.9467 1829.44 50.96 1827.84 50.32C1826.29 49.6267 1824.58 49.28 1822.72 49.28C1820.53 49.28 1818.58 49.7867 1816.88 50.8C1815.22 51.76 1813.92 53.0933 1812.96 54.8C1812.05 56.5067 1811.6 58.5067 1811.6 60.8C1811.6 63.04 1812.05 65.04 1812.96 66.8C1813.92 68.5067 1815.22 69.8667 1816.88 70.88C1818.58 71.84 1820.53 72.32 1822.72 72.32C1824.58 72.32 1826.29 72 1827.84 71.36C1829.44 70.6667 1830.8 69.6533 1831.92 68.32L1837.68 74.16C1835.86 76.2933 1833.65 77.9467 1831.04 79.12C1828.48 80.24 1825.7 80.8 1822.72 80.8ZM1860.84 80.8C1857.11 80.8 1853.72 79.92 1850.68 78.16C1847.64 76.3467 1845.21 73.92 1843.4 70.88C1841.64 67.84 1840.76 64.4533 1840.76 60.72C1840.76 56.9867 1841.64 53.6267 1843.4 50.64C1845.21 47.6533 1847.64 45.28 1850.68 43.52C1853.72 41.7067 1857.11 40.8 1860.84 40.8C1864.63 40.8 1868.04 41.68 1871.08 43.44C1874.12 45.2 1876.52 47.6 1878.28 50.64C1880.09 53.6267 1881 56.9867 1881 60.72C1881 64.4533 1880.09 67.84 1878.28 70.88C1876.52 73.92 1874.12 76.3467 1871.08 78.16C1868.04 79.92 1864.63 80.8 1860.84 80.8ZM1860.84 72.32C1863.03 72.32 1864.95 71.84 1866.6 70.88C1868.31 69.8667 1869.61 68.48 1870.52 66.72C1871.48 64.96 1871.96 62.96 1871.96 60.72C1871.96 58.48 1871.48 56.5067 1870.52 54.8C1869.56 53.0933 1868.25 51.76 1866.6 50.8C1864.95 49.7867 1863.03 49.28 1860.84 49.28C1858.71 49.28 1856.79 49.7867 1855.08 50.8C1853.43 51.76 1852.12 53.0933 1851.16 54.8C1850.25 56.5067 1849.8 58.48 1849.8 60.72C1849.8 62.96 1850.25 64.96 1851.16 66.72C1852.12 68.48 1853.43 69.8667 1855.08 70.88C1856.79 71.84 1858.71 72.32 1860.84 72.32ZM1914.64 80V57.84C1914.64 55.28 1913.81 53.1733 1912.16 51.52C1910.56 49.8667 1908.48 49.04 1905.92 49.04C1904.21 49.04 1902.69 49.4133 1901.36 50.16C1900.02 50.9067 1898.98 51.9467 1898.24 53.28C1897.49 54.6133 1897.12 56.1333 1897.12 57.84L1893.68 55.92C1893.68 52.9867 1894.32 50.4 1895.6 48.16C1896.88 45.8667 1898.64 44.08 1900.88 42.8C1903.17 41.4667 1905.73 40.8 1908.56 40.8C1911.44 40.8 1914 41.5467 1916.24 43.04C1918.48 44.48 1920.24 46.3733 1921.52 48.72C1922.8 51.0133 1923.44 53.4133 1923.44 55.92V80H1914.64ZM1888.32 80V41.6H1897.12V80H1888.32ZM1949.98 80.8C1946.25 80.8 1942.86 79.92 1939.82 78.16C1936.78 76.3467 1934.35 73.92 1932.54 70.88C1930.78 67.84 1929.9 64.4533 1929.9 60.72C1929.9 56.9867 1930.78 53.6267 1932.54 50.64C1934.35 47.6533 1936.78 45.28 1939.82 43.52C1942.86 41.7067 1946.25 40.8 1949.98 40.8C1953.77 40.8 1957.18 41.68 1960.22 43.44C1963.26 45.2 1965.66 47.6 1967.42 50.64C1969.23 53.6267 1970.14 56.9867 1970.14 60.72C1970.14 64.4533 1969.23 67.84 1967.42 70.88C1965.66 73.92 1963.26 76.3467 1960.22 78.16C1957.18 79.92 1953.77 80.8 1949.98 80.8ZM1949.98 72.32C1952.17 72.32 1954.09 71.84 1955.74 70.88C1957.45 69.8667 1958.75 68.48 1959.66 66.72C1960.62 64.96 1961.1 62.96 1961.1 60.72C1961.1 58.48 1960.62 56.5067 1959.66 54.8C1958.7 53.0933 1957.39 51.76 1955.74 50.8C1954.09 49.7867 1952.17 49.28 1949.98 49.28C1947.85 49.28 1945.93 49.7867 1944.22 50.8C1942.57 51.76 1941.26 53.0933 1940.3 54.8C1939.39 56.5067 1938.94 58.48 1938.94 60.72C1938.94 62.96 1939.39 64.96 1940.3 66.72C1941.26 68.48 1942.57 69.8667 1944.22 70.88C1945.93 71.84 1947.85 72.32 1949.98 72.32ZM1939.82 36.24L1935.82 32.24L1946.7 19.84H1953.34L1964.22 32.24L1960.22 36.24L1947.1 25.6L1953.02 25.68L1939.82 36.24ZM1977.46 80V41.6H1986.26V80H1977.46ZM2002.98 80V57.12C2002.98 54.56 2002.18 52.5867 2000.58 51.2C1998.98 49.76 1997 49.04 1994.66 49.04C1993.06 49.04 1991.62 49.36 1990.34 50C1989.11 50.64 1988.12 51.5733 1987.38 52.8C1986.63 53.9733 1986.26 55.4133 1986.26 57.12L1982.82 55.2C1982.82 52.2667 1983.46 49.7333 1984.74 47.6C1986.02 45.4667 1987.75 43.8133 1989.94 42.64C1992.12 41.4133 1994.58 40.8 1997.3 40.8C2000.02 40.8 2002.47 41.3867 2004.66 42.56C2006.84 43.7333 2008.58 45.3867 2009.86 47.52C2011.14 49.6533 2011.78 52.2133 2011.78 55.2V80H2002.98ZM2028.5 80V57.12C2028.5 54.56 2027.7 52.5867 2026.1 51.2C2024.5 49.76 2022.52 49.04 2020.18 49.04C2018.63 49.04 2017.22 49.36 2015.94 50C2014.66 50.64 2013.64 51.5733 2012.9 52.8C2012.15 53.9733 2011.78 55.4133 2011.78 57.12L2006.82 55.2C2007.08 52.2667 2007.94 49.7333 2009.38 47.6C2010.82 45.4667 2012.66 43.8133 2014.9 42.64C2017.19 41.4133 2019.7 40.8 2022.42 40.8C2025.19 40.8 2027.7 41.3867 2029.94 42.56C2032.18 43.7333 2033.96 45.3867 2035.3 47.52C2036.63 49.6533 2037.3 52.2133 2037.3 55.2V80H2028.5ZM2046.44 80V41.6H2055.24V80H2046.44ZM2050.84 34.56C2049.35 34.56 2048.1 34.0533 2047.08 33.04C2046.12 32.0267 2045.64 30.7733 2045.64 29.28C2045.64 27.7867 2046.12 26.5333 2047.08 25.52C2048.1 24.5067 2049.35 24 2050.84 24C2052.39 24 2053.64 24.5067 2054.6 25.52C2055.56 26.5333 2056.04 27.7867 2056.04 29.28C2056.04 30.7733 2055.56 32.0267 2054.6 33.04C2053.64 34.0533 2052.39 34.56 2050.84 34.56ZM2082.79 80.8C2079.01 80.8 2075.57 79.92 2072.47 78.16C2069.43 76.4 2067.03 74 2065.27 70.96C2063.51 67.92 2062.63 64.5333 2062.63 60.8C2062.63 57.0133 2063.51 53.6267 2065.27 50.64C2067.03 47.6 2069.43 45.2 2072.47 43.44C2075.57 41.68 2079.01 40.8 2082.79 40.8C2085.78 40.8 2088.55 41.3867 2091.11 42.56C2093.73 43.68 2095.94 45.3067 2097.75 47.44L2091.99 53.28C2090.87 51.9467 2089.51 50.96 2087.91 50.32C2086.37 49.6267 2084.66 49.28 2082.79 49.28C2080.61 49.28 2078.66 49.7867 2076.95 50.8C2075.3 51.76 2073.99 53.0933 2073.03 54.8C2072.13 56.5067 2071.67 58.5067 2071.67 60.8C2071.67 63.04 2072.13 65.04 2073.03 66.8C2073.99 68.5067 2075.3 69.8667 2076.95 70.88C2078.66 71.84 2080.61 72.32 2082.79 72.32C2084.66 72.32 2086.37 72 2087.91 71.36C2089.51 70.6667 2090.87 69.6533 2091.99 68.32L2097.75 74.16C2095.94 76.2933 2093.73 77.9467 2091.11 79.12C2088.55 80.24 2085.78 80.8 2082.79 80.8ZM2120.92 80.8C2117.18 80.8 2113.8 79.92 2110.76 78.16C2107.72 76.3467 2105.29 73.92 2103.48 70.88C2101.72 67.84 2100.84 64.4533 2100.84 60.72C2100.84 56.9867 2101.72 53.6267 2103.48 50.64C2105.29 47.6533 2107.72 45.28 2110.76 43.52C2113.8 41.7067 2117.18 40.8 2120.92 40.8C2124.7 40.8 2128.12 41.68 2131.16 43.44C2134.2 45.2 2136.6 47.6 2138.36 50.64C2140.17 53.6267 2141.08 56.9867 2141.08 60.72C2141.08 64.4533 2140.17 67.84 2138.36 70.88C2136.6 73.92 2134.2 76.3467 2131.16 78.16C2128.12 79.92 2124.7 80.8 2120.92 80.8ZM2120.92 72.32C2123.1 72.32 2125.02 71.84 2126.68 70.88C2128.38 69.8667 2129.69 68.48 2130.6 66.72C2131.56 64.96 2132.04 62.96 2132.04 60.72C2132.04 58.48 2131.56 56.5067 2130.6 54.8C2129.64 53.0933 2128.33 51.76 2126.68 50.8C2125.02 49.7867 2123.1 49.28 2120.92 49.28C2118.78 49.28 2116.86 49.7867 2115.16 50.8C2113.5 51.76 2112.2 53.0933 2111.24 54.8C2110.33 56.5067 2109.88 58.48 2109.88 60.72C2109.88 62.96 2110.33 64.96 2111.24 66.72C2112.2 68.48 2113.5 69.8667 2115.16 70.88C2116.86 71.84 2118.78 72.32 2120.92 72.32ZM2160.96 80.8C2158.82 80.8 2156.77 80.5333 2154.8 80C2152.82 79.4133 2151.01 78.6133 2149.36 77.6C2147.7 76.5333 2146.26 75.2533 2145.04 73.76L2150.64 68.16C2151.97 69.7067 2153.49 70.88 2155.2 71.68C2156.96 72.4267 2158.93 72.8 2161.12 72.8C2163.09 72.8 2164.58 72.5067 2165.6 71.92C2166.61 71.3333 2167.12 70.48 2167.12 69.36C2167.12 68.1867 2166.64 67.28 2165.68 66.64C2164.72 66 2163.46 65.4667 2161.92 65.04C2160.42 64.56 2158.82 64.08 2157.12 63.6C2155.46 63.12 2153.86 62.48 2152.32 61.68C2150.82 60.8267 2149.6 59.68 2148.64 58.24C2147.68 56.8 2147.2 54.9333 2147.2 52.64C2147.2 50.1867 2147.76 48.08 2148.88 46.32C2150.05 44.56 2151.68 43.2 2153.76 42.24C2155.89 41.28 2158.42 40.8 2161.36 40.8C2164.45 40.8 2167.17 41.36 2169.52 42.48C2171.92 43.5467 2173.92 45.1733 2175.52 47.36L2169.92 52.96C2168.8 51.5733 2167.52 50.5333 2166.08 49.84C2164.64 49.1467 2162.98 48.8 2161.12 48.8C2159.36 48.8 2158 49.0667 2157.04 49.6C2156.08 50.1333 2155.6 50.9067 2155.6 51.92C2155.6 52.9867 2156.08 53.8133 2157.04 54.4C2158 54.9867 2159.22 55.4933 2160.72 55.92C2162.26 56.3467 2163.86 56.8267 2165.52 57.36C2167.22 57.84 2168.82 58.5333 2170.32 59.44C2171.86 60.2933 2173.12 61.4667 2174.08 62.96C2175.04 64.4 2175.52 66.2933 2175.52 68.64C2175.52 72.3733 2174.21 75.3333 2171.6 77.52C2168.98 79.7067 2165.44 80.8 2160.96 80.8Z" fill="#8A1A3B"/>
</svg>
