<svg width="4134" height="131" viewBox="0 0 4134 131" fill="none" xmlns="http://www.w3.org/2000/svg">
<path d="M12.4 56.24V48.64H26.56C29.3867 48.64 31.5733 47.92 33.12 46.48C34.72 44.9867 35.52 42.9333 35.52 40.32C35.52 37.9733 34.7467 36 33.2 34.4C31.6533 32.8 29.4667 32 26.64 32H12.4V24H27.04C30.56 24 33.6533 24.72 36.32 26.16C38.9867 27.5467 41.04 29.4667 42.48 31.92C43.9733 34.32 44.72 37.0667 44.72 40.16C44.72 43.4133 43.9733 46.24 42.48 48.64C41.04 51.04 38.9867 52.9067 36.32 54.24C33.6533 55.5733 30.56 56.24 27.04 56.24H12.4ZM6.08 80V24H15.28V80H6.08ZM36.8 80L17.2 55.68L25.76 52.56L48.4 80H36.8ZM70.6888 80.8C66.8488 80.8 63.3821 79.9467 60.2888 78.24C57.2488 76.48 54.8221 74.08 53.0088 71.04C51.2488 68 50.3688 64.5867 50.3688 60.8C50.3688 57.0133 51.2488 53.6267 53.0088 50.64C54.7688 47.6 57.1421 45.2 60.1288 43.44C63.1688 41.68 66.5288 40.8 70.2088 40.8C73.7821 40.8 76.9288 41.6267 79.6488 43.28C82.4221 44.9333 84.5821 47.2 86.1288 50.08C87.7288 52.96 88.5288 56.24 88.5288 59.92C88.5288 60.56 88.4754 61.2267 88.3687 61.92C88.3154 62.56 88.2088 63.28 88.0488 64.08H56.5288V56.88H83.4888L80.2088 59.76C80.1021 57.4133 79.6488 55.44 78.8488 53.84C78.0488 52.24 76.9021 51.0133 75.4088 50.16C73.9688 49.3067 72.1821 48.88 70.0488 48.88C67.8088 48.88 65.8621 49.36 64.2088 50.32C62.5554 51.28 61.2754 52.64 60.3688 54.4C59.4621 56.1067 59.0088 58.16 59.0088 60.56C59.0088 62.96 59.4888 65.0667 60.4488 66.88C61.4088 68.6933 62.7688 70.1067 64.5288 71.12C66.2888 72.08 68.3154 72.56 70.6088 72.56C72.5821 72.56 74.3954 72.2133 76.0488 71.52C77.7554 70.8267 79.1954 69.8133 80.3688 68.48L85.9688 74.16C84.1021 76.3467 81.8354 78 79.1688 79.12C76.5021 80.24 73.6754 80.8 70.6888 80.8ZM121.903 80V57.84C121.903 55.28 121.076 53.1733 119.423 51.52C117.823 49.8667 115.743 49.04 113.183 49.04C111.476 49.04 109.956 49.4133 108.623 50.16C107.29 50.9067 106.25 51.9467 105.503 53.28C104.756 54.6133 104.383 56.1333 104.383 57.84L100.943 55.92C100.943 52.9867 101.583 50.4 102.863 48.16C104.143 45.8667 105.903 44.08 108.143 42.8C110.436 41.4667 112.996 40.8 115.823 40.8C118.703 40.8 121.263 41.5467 123.503 43.04C125.743 44.48 127.503 46.3733 128.783 48.72C130.063 51.0133 130.703 53.4133 130.703 55.92V80H121.903ZM95.5831 80V41.6H104.383V80H95.5831ZM155.726 80.8C152.259 80.8 149.112 79.92 146.286 78.16C143.512 76.4 141.299 74.0267 139.646 71.04C138.046 68 137.246 64.6133 137.246 60.88C137.246 57.0933 138.046 53.7067 139.646 50.72C141.299 47.68 143.512 45.28 146.286 43.52C149.112 41.7067 152.259 40.8 155.726 40.8C158.659 40.8 161.246 41.44 163.486 42.72C165.779 43.9467 167.592 45.6533 168.926 47.84C170.259 50.0267 170.926 52.5067 170.926 55.28V66.32C170.926 69.0933 170.259 71.5733 168.926 73.76C167.646 75.9467 165.859 77.68 163.566 78.96C161.272 80.1867 158.659 80.8 155.726 80.8ZM157.166 72.48C159.352 72.48 161.246 72 162.846 71.04C164.499 70.0267 165.779 68.64 166.686 66.88C167.592 65.12 168.046 63.0933 168.046 60.8C168.046 58.5067 167.592 56.48 166.686 54.72C165.779 52.96 164.499 51.6 162.846 50.64C161.246 49.6267 159.352 49.12 157.166 49.12C155.032 49.12 153.139 49.6267 151.486 50.64C149.886 51.6 148.606 52.96 147.646 54.72C146.739 56.48 146.286 58.5067 146.286 60.8C146.286 63.0933 146.739 65.12 147.646 66.88C148.606 68.64 149.886 70.0267 151.486 71.04C153.139 72 155.032 72.48 157.166 72.48ZM176.286 80H167.486V69.68L169.006 60.32L167.486 51.04V22.4H176.286V80ZM202.132 80.8C198.665 80.8 195.519 79.92 192.692 78.16C189.919 76.4 187.705 74.0267 186.052 71.04C184.452 68 183.652 64.6133 183.652 60.88C183.652 57.0933 184.452 53.7067 186.052 50.72C187.705 47.68 189.919 45.28 192.692 43.52C195.519 41.7067 198.665 40.8 202.132 40.8C205.065 40.8 207.652 41.44 209.892 42.72C212.185 43.9467 213.999 45.6533 215.332 47.84C216.665 50.0267 217.332 52.5067 217.332 55.28V66.32C217.332 69.0933 216.665 71.5733 215.332 73.76C214.052 75.9467 212.265 77.68 209.972 78.96C207.679 80.1867 205.065 80.8 202.132 80.8ZM203.572 72.48C206.825 72.48 209.439 71.3867 211.412 69.2C213.439 67.0133 214.452 64.2133 214.452 60.8C214.452 58.5067 213.999 56.48 213.092 54.72C212.185 52.96 210.905 51.6 209.252 50.64C207.652 49.6267 205.759 49.12 203.572 49.12C201.439 49.12 199.545 49.6267 197.892 50.64C196.292 51.6 195.012 52.96 194.052 54.72C193.145 56.48 192.692 58.5067 192.692 60.8C192.692 63.0933 193.145 65.12 194.052 66.88C195.012 68.64 196.292 70.0267 197.892 71.04C199.545 72 201.439 72.48 203.572 72.48ZM213.892 80V69.68L215.412 60.32L213.892 51.04V41.6H222.692V80H213.892ZM249.674 80V24H256.074L279.354 62.32H275.194L298.474 24H304.874V80H295.674V40.16L297.754 40.72L280.474 69.12H274.074L256.794 40.72L258.874 40.16V80H249.674ZM333.658 80.8C329.818 80.8 326.351 79.9467 323.258 78.24C320.218 76.48 317.791 74.08 315.978 71.04C314.218 68 313.338 64.5867 313.338 60.8C313.338 57.0133 314.218 53.6267 315.978 50.64C317.738 47.6 320.111 45.2 323.098 43.44C326.138 41.68 329.498 40.8 333.178 40.8C336.751 40.8 339.898 41.6267 342.618 43.28C345.391 44.9333 347.551 47.2 349.098 50.08C350.698 52.96 351.498 56.24 351.498 59.92C351.498 60.56 351.444 61.2267 351.337 61.92C351.284 62.56 351.178 63.28 351.018 64.08H319.498V56.88H346.458L343.178 59.76C343.071 57.4133 342.618 55.44 341.818 53.84C341.018 52.24 339.871 51.0133 338.378 50.16C336.938 49.3067 335.151 48.88 333.018 48.88C330.778 48.88 328.831 49.36 327.178 50.32C325.524 51.28 324.244 52.64 323.338 54.4C322.431 56.1067 321.978 58.16 321.978 60.56C321.978 62.96 322.458 65.0667 323.418 66.88C324.378 68.6933 325.738 70.1067 327.498 71.12C329.258 72.08 331.284 72.56 333.578 72.56C335.551 72.56 337.364 72.2133 339.018 71.52C340.724 70.8267 342.164 69.8133 343.338 68.48L348.938 74.16C347.071 76.3467 344.804 78 342.138 79.12C339.471 80.24 336.644 80.8 333.658 80.8ZM328.538 36.08L324.538 32.08L334.778 19.04L341.578 25.84L328.538 36.08ZM374.632 80.8C371.165 80.8 368.019 79.92 365.192 78.16C362.419 76.4 360.205 74.0267 358.552 71.04C356.952 68 356.152 64.6133 356.152 60.88C356.152 57.0933 356.952 53.7067 358.552 50.72C360.205 47.68 362.419 45.28 365.192 43.52C368.019 41.7067 371.165 40.8 374.632 40.8C377.565 40.8 380.152 41.44 382.392 42.72C384.685 43.9467 386.499 45.6533 387.832 47.84C389.165 50.0267 389.832 52.5067 389.832 55.28V66.32C389.832 69.0933 389.165 71.5733 387.832 73.76C386.552 75.9467 384.765 77.68 382.472 78.96C380.179 80.1867 377.565 80.8 374.632 80.8ZM376.072 72.48C378.259 72.48 380.152 72 381.752 71.04C383.405 70.0267 384.685 68.64 385.592 66.88C386.499 65.12 386.952 63.0933 386.952 60.8C386.952 58.5067 386.499 56.48 385.592 54.72C384.685 52.96 383.405 51.6 381.752 50.64C380.152 49.6267 378.259 49.12 376.072 49.12C373.939 49.12 372.045 49.6267 370.392 50.64C368.792 51.6 367.512 52.96 366.552 54.72C365.645 56.48 365.192 58.5067 365.192 60.8C365.192 63.0933 365.645 65.12 366.552 66.88C367.512 68.64 368.792 70.0267 370.392 71.04C372.045 72 373.939 72.48 376.072 72.48ZM395.192 80H386.392V69.68L387.912 60.32L386.392 51.04V22.4H395.192V80ZM405.038 80V41.6H413.838V80H405.038ZM409.438 34.56C407.945 34.56 406.691 34.0533 405.678 33.04C404.718 32.0267 404.238 30.7733 404.238 29.28C404.238 27.7867 404.718 26.5333 405.678 25.52C406.691 24.5067 407.945 24 409.438 24C410.985 24 412.238 24.5067 413.198 25.52C414.158 26.5333 414.638 27.7867 414.638 29.28C414.638 30.7733 414.158 32.0267 413.198 33.04C412.238 34.0533 410.985 34.56 409.438 34.56ZM439.788 80.8C436.321 80.8 433.175 79.92 430.348 78.16C427.575 76.4 425.361 74.0267 423.708 71.04C422.108 68 421.308 64.6133 421.308 60.88C421.308 57.0933 422.108 53.7067 423.708 50.72C425.361 47.68 427.575 45.28 430.348 43.52C433.175 41.7067 436.321 40.8 439.788 40.8C442.721 40.8 445.308 41.44 447.548 42.72C449.841 43.9467 451.655 45.6533 452.988 47.84C454.321 50.0267 454.988 52.5067 454.988 55.28V66.32C454.988 69.0933 454.321 71.5733 452.988 73.76C451.708 75.9467 449.921 77.68 447.628 78.96C445.335 80.1867 442.721 80.8 439.788 80.8ZM441.228 72.48C444.481 72.48 447.095 71.3867 449.068 69.2C451.095 67.0133 452.108 64.2133 452.108 60.8C452.108 58.5067 451.655 56.48 450.748 54.72C449.841 52.96 448.561 51.6 446.908 50.64C445.308 49.6267 443.415 49.12 441.228 49.12C439.095 49.12 437.201 49.6267 435.548 50.64C433.948 51.6 432.668 52.96 431.708 54.72C430.801 56.48 430.348 58.5067 430.348 60.8C430.348 63.0933 430.801 65.12 431.708 66.88C432.668 68.64 433.948 70.0267 435.548 71.04C437.201 72 439.095 72.48 441.228 72.48ZM451.548 80V69.68L453.068 60.32L451.548 51.04V41.6H460.348V80H451.548ZM480.904 80L503.944 24H510.344L533.224 80H523.304L505.384 34.64H508.744L490.664 80H480.904ZM492.264 69.2V61.2H521.944V69.2H492.264ZM566.356 80V57.84C566.356 55.28 565.53 53.1733 563.876 51.52C562.276 49.8667 560.196 49.04 557.636 49.04C555.93 49.04 554.41 49.4133 553.076 50.16C551.743 50.9067 550.703 51.9467 549.956 53.28C549.21 54.6133 548.836 56.1333 548.836 57.84L545.396 55.92C545.396 52.9867 546.036 50.4 547.316 48.16C548.596 45.8667 550.356 44.08 552.596 42.8C554.89 41.4667 557.45 40.8 560.276 40.8C563.156 40.8 565.716 41.5467 567.956 43.04C570.196 44.48 571.956 46.3733 573.236 48.72C574.516 51.0133 575.156 53.4133 575.156 55.92V80H566.356ZM540.036 80V41.6H548.836V80H540.036ZM599.859 80.8C596.605 80.8 593.699 80.08 591.139 78.64C588.632 77.2 586.659 75.2267 585.219 72.72C583.832 70.16 583.139 67.2267 583.139 63.92V41.6H591.939V63.52C591.939 65.3867 592.232 66.9867 592.819 68.32C593.459 69.6 594.365 70.5867 595.539 71.28C596.765 71.9733 598.205 72.32 599.859 72.32C602.419 72.32 604.365 71.5733 605.699 70.08C607.085 68.5333 607.779 66.3467 607.779 63.52V41.6H616.579V63.92C616.579 67.28 615.859 70.24 614.419 72.8C613.032 75.3067 611.085 77.28 608.579 78.72C606.072 80.1067 603.165 80.8 599.859 80.8ZM641.507 80.8C638.04 80.8 634.894 79.92 632.067 78.16C629.294 76.4 627.08 74.0267 625.427 71.04C623.827 68 623.027 64.6133 623.027 60.88C623.027 57.0933 623.827 53.7067 625.427 50.72C627.08 47.68 629.294 45.28 632.067 43.52C634.894 41.7067 638.04 40.8 641.507 40.8C644.44 40.8 647.027 41.44 649.267 42.72C651.56 43.9467 653.374 45.6533 654.707 47.84C656.04 50.0267 656.707 52.5067 656.707 55.28V66.32C656.707 69.0933 656.04 71.5733 654.707 73.76C653.427 75.9467 651.64 77.68 649.347 78.96C647.054 80.1867 644.44 80.8 641.507 80.8ZM642.947 72.48C646.2 72.48 648.814 71.3867 650.787 69.2C652.814 67.0133 653.827 64.2133 653.827 60.8C653.827 58.5067 653.374 56.48 652.467 54.72C651.56 52.96 650.28 51.6 648.627 50.64C647.027 49.6267 645.134 49.12 642.947 49.12C640.814 49.12 638.92 49.6267 637.267 50.64C635.667 51.6 634.387 52.96 633.427 54.72C632.52 56.48 632.067 58.5067 632.067 60.8C632.067 63.0933 632.52 65.12 633.427 66.88C634.387 68.64 635.667 70.0267 637.267 71.04C638.92 72 640.814 72.48 642.947 72.48ZM653.267 80V69.68L654.787 60.32L653.267 51.04V41.6H662.067V80H653.267ZM671.833 80V22.4H680.633V80H671.833ZM722.523 80.8C719.056 80.8 715.909 79.92 713.083 78.16C710.309 76.4 708.096 74.0267 706.443 71.04C704.843 68 704.043 64.6133 704.043 60.88C704.043 57.0933 704.843 53.7067 706.443 50.72C708.096 47.68 710.309 45.28 713.083 43.52C715.909 41.7067 719.056 40.8 722.523 40.8C725.456 40.8 728.043 41.44 730.283 42.72C732.576 43.9467 734.389 45.6533 735.723 47.84C737.056 50.0267 737.723 52.5067 737.723 55.28V66.32C737.723 69.0933 737.056 71.5733 735.723 73.76C734.443 75.9467 732.656 77.68 730.363 78.96C728.069 80.1867 725.456 80.8 722.523 80.8ZM723.963 72.48C726.149 72.48 728.043 72 729.643 71.04C731.296 70.0267 732.576 68.64 733.483 66.88C734.389 65.12 734.843 63.0933 734.843 60.8C734.843 58.5067 734.389 56.48 733.483 54.72C732.576 52.96 731.296 51.6 729.643 50.64C728.043 49.6267 726.149 49.12 723.963 49.12C721.829 49.12 719.936 49.6267 718.283 50.64C716.683 51.6 715.403 52.96 714.443 54.72C713.536 56.48 713.083 58.5067 713.083 60.8C713.083 63.0933 713.536 65.12 714.443 66.88C715.403 68.64 716.683 70.0267 718.283 71.04C719.936 72 721.829 72.48 723.963 72.48ZM743.083 80H734.283V69.68L735.803 60.32L734.283 51.04V22.4H743.083V80ZM770.449 80.8C766.715 80.8 763.329 79.92 760.289 78.16C757.249 76.3467 754.822 73.92 753.009 70.88C751.249 67.84 750.369 64.4533 750.369 60.72C750.369 56.9867 751.249 53.6267 753.009 50.64C754.822 47.6533 757.249 45.28 760.289 43.52C763.329 41.7067 766.715 40.8 770.449 40.8C774.235 40.8 777.649 41.68 780.689 43.44C783.729 45.2 786.129 47.6 787.889 50.64C789.702 53.6267 790.609 56.9867 790.609 60.72C790.609 64.4533 789.702 67.84 787.889 70.88C786.129 73.92 783.729 76.3467 780.689 78.16C777.649 79.92 774.235 80.8 770.449 80.8ZM770.449 72.32C772.635 72.32 774.555 71.84 776.209 70.88C777.915 69.8667 779.222 68.48 780.129 66.72C781.089 64.96 781.569 62.96 781.569 60.72C781.569 58.48 781.089 56.5067 780.129 54.8C779.169 53.0933 777.862 51.76 776.209 50.8C774.555 49.7867 772.635 49.28 770.449 49.28C768.315 49.28 766.395 49.7867 764.689 50.8C763.035 51.76 761.729 53.0933 760.769 54.8C759.862 56.5067 759.409 58.48 759.409 60.72C759.409 62.96 759.862 64.96 760.769 66.72C761.729 68.48 763.035 69.8667 764.689 70.88C766.395 71.84 768.315 72.32 770.449 72.32ZM810.487 80.8C808.354 80.8 806.3 80.5333 804.327 80C802.354 79.4133 800.54 78.6133 798.887 77.6C797.234 76.5333 795.794 75.2533 794.567 73.76L800.167 68.16C801.5 69.7067 803.02 70.88 804.727 71.68C806.487 72.4267 808.46 72.8 810.647 72.8C812.62 72.8 814.114 72.5067 815.127 71.92C816.14 71.3333 816.647 70.48 816.647 69.36C816.647 68.1867 816.167 67.28 815.207 66.64C814.247 66 812.994 65.4667 811.447 65.04C809.954 64.56 808.354 64.08 806.647 63.6C804.994 63.12 803.394 62.48 801.847 61.68C800.354 60.8267 799.127 59.68 798.167 58.24C797.207 56.8 796.727 54.9333 796.727 52.64C796.727 50.1867 797.287 48.08 798.407 46.32C799.58 44.56 801.207 43.2 803.287 42.24C805.42 41.28 807.954 40.8 810.887 40.8C813.98 40.8 816.7 41.36 819.047 42.48C821.447 43.5467 823.447 45.1733 825.047 47.36L819.447 52.96C818.327 51.5733 817.047 50.5333 815.607 49.84C814.167 49.1467 812.514 48.8 810.647 48.8C808.887 48.8 807.527 49.0667 806.567 49.6C805.607 50.1333 805.127 50.9067 805.127 51.92C805.127 52.9867 805.607 53.8133 806.567 54.4C807.527 54.9867 808.754 55.4933 810.247 55.92C811.794 56.3467 813.394 56.8267 815.047 57.36C816.754 57.84 818.354 58.5333 819.847 59.44C821.394 60.2933 822.647 61.4667 823.607 62.96C824.567 64.4 825.047 66.2933 825.047 68.64C825.047 72.3733 823.74 75.3333 821.127 77.52C818.514 79.7067 814.967 80.8 810.487 80.8ZM855.838 80V71.6H870.558C874.398 71.6 877.758 70.7733 880.638 69.12C883.571 67.4667 885.838 65.1733 887.438 62.24C889.091 59.2533 889.918 55.8133 889.918 51.92C889.918 48.08 889.091 44.6933 887.438 41.76C885.784 38.8267 883.491 36.5333 880.558 34.88C877.678 33.2267 874.344 32.4 870.558 32.4H855.838V24H870.798C874.851 24 878.611 24.72 882.078 26.16C885.544 27.5467 888.558 29.52 891.118 32.08C893.731 34.5867 895.758 37.5467 897.198 40.96C898.638 44.32 899.358 48 899.358 52C899.358 55.9467 898.638 59.6267 897.198 63.04C895.758 66.4533 893.758 69.44 891.198 72C888.638 74.5067 885.624 76.48 882.158 77.92C878.691 79.3067 874.958 80 870.958 80H855.838ZM849.518 80V24H858.718V80H849.518ZM925.136 80.8C921.403 80.8 918.016 79.92 914.976 78.16C911.936 76.3467 909.51 73.92 907.696 70.88C905.936 67.84 905.056 64.4533 905.056 60.72C905.056 56.9867 905.936 53.6267 907.696 50.64C909.51 47.6533 911.936 45.28 914.976 43.52C918.016 41.7067 921.403 40.8 925.136 40.8C928.923 40.8 932.336 41.68 935.376 43.44C938.416 45.2 940.816 47.6 942.576 50.64C944.39 53.6267 945.296 56.9867 945.296 60.72C945.296 64.4533 944.39 67.84 942.576 70.88C940.816 73.92 938.416 76.3467 935.376 78.16C932.336 79.92 928.923 80.8 925.136 80.8ZM925.136 72.32C927.323 72.32 929.243 71.84 930.896 70.88C932.603 69.8667 933.91 68.48 934.816 66.72C935.776 64.96 936.256 62.96 936.256 60.72C936.256 58.48 935.776 56.5067 934.816 54.8C933.856 53.0933 932.55 51.76 930.896 50.8C929.243 49.7867 927.323 49.28 925.136 49.28C923.003 49.28 921.083 49.7867 919.376 50.8C917.723 51.76 916.416 53.0933 915.456 54.8C914.55 56.5067 914.096 58.48 914.096 60.72C914.096 62.96 914.55 64.96 915.456 66.72C916.416 68.48 917.723 69.8667 919.376 70.88C921.083 71.84 923.003 72.32 925.136 72.32ZM952.614 80V41.6H961.414V80H952.614ZM978.134 80V57.12C978.134 54.56 977.334 52.5867 975.734 51.2C974.134 49.76 972.161 49.04 969.814 49.04C968.214 49.04 966.774 49.36 965.494 50C964.268 50.64 963.281 51.5733 962.534 52.8C961.788 53.9733 961.414 55.4133 961.414 57.12L957.974 55.2C957.974 52.2667 958.614 49.7333 959.894 47.6C961.174 45.4667 962.908 43.8133 965.094 42.64C967.281 41.4133 969.734 40.8 972.454 40.8C975.174 40.8 977.628 41.3867 979.814 42.56C982.001 43.7333 983.734 45.3867 985.014 47.52C986.294 49.6533 986.934 52.2133 986.934 55.2V80H978.134ZM1003.65 80V57.12C1003.65 54.56 1002.85 52.5867 1001.25 51.2C999.654 49.76 997.681 49.04 995.334 49.04C993.788 49.04 992.374 49.36 991.094 50C989.814 50.64 988.801 51.5733 988.054 52.8C987.308 53.9733 986.934 55.4133 986.934 57.12L981.974 55.2C982.241 52.2667 983.094 49.7333 984.534 47.6C985.974 45.4667 987.814 43.8133 990.054 42.64C992.348 41.4133 994.854 40.8 997.574 40.8C1000.35 40.8 1002.85 41.3867 1005.09 42.56C1007.33 43.7333 1009.12 45.3867 1010.45 47.52C1011.79 49.6533 1012.45 52.2133 1012.45 55.2V80H1003.65ZM1021.6 80V41.6H1030.4V80H1021.6ZM1026 34.56C1024.51 34.56 1023.25 34.0533 1022.24 33.04C1021.28 32.0267 1020.8 30.7733 1020.8 29.28C1020.8 27.7867 1021.28 26.5333 1022.24 25.52C1023.25 24.5067 1024.51 24 1026 24C1027.55 24 1028.8 24.5067 1029.76 25.52C1030.72 26.5333 1031.2 27.7867 1031.2 29.28C1031.2 30.7733 1030.72 32.0267 1029.76 33.04C1028.8 34.0533 1027.55 34.56 1026 34.56ZM1057.95 80.8C1054.16 80.8 1050.72 79.92 1047.63 78.16C1044.59 76.4 1042.19 74 1040.43 70.96C1038.67 67.92 1037.79 64.5333 1037.79 60.8C1037.79 57.0133 1038.67 53.6267 1040.43 50.64C1042.19 47.6 1044.59 45.2 1047.63 43.44C1050.72 41.68 1054.16 40.8 1057.95 40.8C1060.94 40.8 1063.71 41.3867 1066.27 42.56C1068.88 43.68 1071.1 45.3067 1072.91 47.44L1067.15 53.28C1066.03 51.9467 1064.67 50.96 1063.07 50.32C1061.52 49.6267 1059.82 49.28 1057.95 49.28C1055.76 49.28 1053.82 49.7867 1052.11 50.8C1050.46 51.76 1049.15 53.0933 1048.19 54.8C1047.28 56.5067 1046.83 58.5067 1046.83 60.8C1046.83 63.04 1047.28 65.04 1048.19 66.8C1049.15 68.5067 1050.46 69.8667 1052.11 70.88C1053.82 71.84 1055.76 72.32 1057.95 72.32C1059.82 72.32 1061.52 72 1063.07 71.36C1064.67 70.6667 1066.03 69.6533 1067.15 68.32L1072.91 74.16C1071.1 76.2933 1068.88 77.9467 1066.27 79.12C1063.71 80.24 1060.94 80.8 1057.95 80.8ZM1079.26 80V41.6H1088.06V80H1079.26ZM1079.1 36.08L1075.1 32.08L1085.34 19.04L1092.14 25.84L1079.1 36.08ZM1097.85 80V22.4H1106.65V80H1097.85ZM1116.52 80V41.6H1125.32V80H1116.52ZM1120.92 34.56C1119.43 34.56 1118.18 34.0533 1117.16 33.04C1116.2 32.0267 1115.72 30.7733 1115.72 29.28C1115.72 27.7867 1116.2 26.5333 1117.16 25.52C1118.18 24.5067 1119.43 24 1120.92 24C1122.47 24 1123.72 24.5067 1124.68 25.52C1125.64 26.5333 1126.12 27.7867 1126.12 29.28C1126.12 30.7733 1125.64 32.0267 1124.68 33.04C1123.72 34.0533 1122.47 34.56 1120.92 34.56ZM1152.79 80.8C1149.06 80.8 1145.67 79.92 1142.63 78.16C1139.59 76.3467 1137.17 73.92 1135.35 70.88C1133.59 67.84 1132.71 64.4533 1132.71 60.72C1132.71 56.9867 1133.59 53.6267 1135.35 50.64C1137.17 47.6533 1139.59 45.28 1142.63 43.52C1145.67 41.7067 1149.06 40.8 1152.79 40.8C1156.58 40.8 1159.99 41.68 1163.03 43.44C1166.07 45.2 1168.47 47.6 1170.23 50.64C1172.05 53.6267 1172.95 56.9867 1172.95 60.72C1172.95 64.4533 1172.05 67.84 1170.23 70.88C1168.47 73.92 1166.07 76.3467 1163.03 78.16C1159.99 79.92 1156.58 80.8 1152.79 80.8ZM1152.79 72.32C1154.98 72.32 1156.9 71.84 1158.55 70.88C1160.26 69.8667 1161.57 68.48 1162.47 66.72C1163.43 64.96 1163.91 62.96 1163.91 60.72C1163.91 58.48 1163.43 56.5067 1162.47 54.8C1161.51 53.0933 1160.21 51.76 1158.55 50.8C1156.9 49.7867 1154.98 49.28 1152.79 49.28C1150.66 49.28 1148.74 49.7867 1147.03 50.8C1145.38 51.76 1144.07 53.0933 1143.11 54.8C1142.21 56.5067 1141.75 58.48 1141.75 60.72C1141.75 62.96 1142.21 64.96 1143.11 66.72C1144.07 68.48 1145.38 69.8667 1147.03 70.88C1148.74 71.84 1150.66 72.32 1152.79 72.32ZM1192.83 80.8C1190.7 80.8 1188.64 80.5333 1186.67 80C1184.7 79.4133 1182.88 78.6133 1181.23 77.6C1179.58 76.5333 1178.14 75.2533 1176.91 73.76L1182.51 68.16C1183.84 69.7067 1185.36 70.88 1187.07 71.68C1188.83 72.4267 1190.8 72.8 1192.99 72.8C1194.96 72.8 1196.46 72.5067 1197.47 71.92C1198.48 71.3333 1198.99 70.48 1198.99 69.36C1198.99 68.1867 1198.51 67.28 1197.55 66.64C1196.59 66 1195.34 65.4667 1193.79 65.04C1192.3 64.56 1190.7 64.08 1188.99 63.6C1187.34 63.12 1185.74 62.48 1184.19 61.68C1182.7 60.8267 1181.47 59.68 1180.51 58.24C1179.55 56.8 1179.07 54.9333 1179.07 52.64C1179.07 50.1867 1179.63 48.08 1180.75 46.32C1181.92 44.56 1183.55 43.2 1185.63 42.24C1187.76 41.28 1190.3 40.8 1193.23 40.8C1196.32 40.8 1199.04 41.36 1201.39 42.48C1203.79 43.5467 1205.79 45.1733 1207.39 47.36L1201.79 52.96C1200.67 51.5733 1199.39 50.5333 1197.95 49.84C1196.51 49.1467 1194.86 48.8 1192.99 48.8C1191.23 48.8 1189.87 49.0667 1188.91 49.6C1187.95 50.1333 1187.47 50.9067 1187.47 51.92C1187.47 52.9867 1187.95 53.8133 1188.91 54.4C1189.87 54.9867 1191.1 55.4933 1192.59 55.92C1194.14 56.3467 1195.74 56.8267 1197.39 57.36C1199.1 57.84 1200.7 58.5333 1202.19 59.44C1203.74 60.2933 1204.99 61.4667 1205.95 62.96C1206.91 64.4 1207.39 66.2933 1207.39 68.64C1207.39 72.3733 1206.08 75.3333 1203.47 77.52C1200.86 79.7067 1197.31 80.8 1192.83 80.8Z" fill="#8A1A3B"/>
</svg>
