<svg width="723" height="803" viewBox="0 0 723 803" fill="none" xmlns="http://www.w3.org/2000/svg">
<g clip-path="url(#clip0_17151_21)">
<path d="M0 80C0 57.9086 17.9086 40 40 40H682.16C704.251 40 722.16 57.9086 722.16 80V722.16C722.16 744.251 704.251 762.16 682.16 762.16H40C17.9086 762.16 0 744.251 0 722.16V80Z" fill="#A21942"/>
<path d="M534.367 220.18C534.379 219.887 534.328 219.595 534.22 219.323C534.111 219.051 533.947 218.804 533.737 218.6C533.372 218.246 532.894 218.033 532.387 218H531.387L475.307 230.65L474.307 230.76C473.898 230.846 473.521 231.043 473.217 231.33C472.824 231.73 472.603 232.269 472.603 232.83C472.603 233.391 472.824 233.93 473.217 234.33L473.847 234.96L486.657 247.76L359.587 374.91L300.887 316.22C300.731 316.061 300.545 315.934 300.34 315.848C300.135 315.761 299.915 315.717 299.692 315.717C299.469 315.717 299.249 315.761 299.044 315.848C298.838 315.934 298.652 316.061 298.497 316.22L282.587 332.14L188.487 426.22C188.175 426.539 188 426.968 188 427.415C188 427.862 188.175 428.291 188.487 428.61L204.437 444.55C204.592 444.706 204.777 444.83 204.98 444.915C205.184 445 205.402 445.043 205.622 445.043C205.842 445.043 206.06 445 206.264 444.915C206.467 444.83 206.652 444.706 206.807 444.55L299.707 351.67L342.297 394.26C342.332 394.332 342.376 394.399 342.427 394.46L358.357 410.37C358.512 410.529 358.698 410.656 358.904 410.742C359.109 410.829 359.329 410.873 359.552 410.873C359.775 410.873 359.995 410.829 360.2 410.742C360.406 410.656 360.591 410.529 360.747 410.37L504.957 266.16L518.407 279.6C518.695 279.889 519.061 280.088 519.46 280.173C519.859 280.258 520.274 280.225 520.655 280.079C521.036 279.933 521.366 279.68 521.606 279.35C521.846 279.02 521.985 278.627 522.007 278.22V278.04L534.317 220.8L534.367 220.18Z" fill="white"/>
<path d="M396.007 407.65L360.587 443.38C360.263 443.651 359.851 443.791 359.43 443.775C359.008 443.758 358.608 443.585 358.307 443.29L326.187 410.55C320.307 404.69 319.047 409.44 319.047 411.74V580.03C319.044 580.576 319.149 581.117 319.356 581.622C319.563 582.127 319.867 582.587 320.252 582.974C320.636 583.362 321.094 583.669 321.597 583.88C322.101 584.09 322.641 584.199 323.187 584.2H398.857C399.96 584.195 401.017 583.754 401.796 582.973C402.575 582.191 403.014 581.134 403.017 580.03V408.97C403.017 406.67 401.207 402.45 396.017 407.65" fill="white"/>
<path d="M427.847 374.33L501.077 304.66C505.857 299.91 507.657 304.12 507.657 306.42V580.04C507.654 581.144 507.214 582.202 506.432 582.982C505.65 583.762 504.591 584.2 503.487 584.2H427.847C427.299 584.201 426.757 584.095 426.251 583.887C425.744 583.678 425.284 583.372 424.895 582.986C424.507 582.6 424.199 582.141 423.988 581.635C423.778 581.13 423.668 580.588 423.667 580.04V384.79C423.667 379.1 425.077 377.08 427.847 374.33Z" fill="white"/>
<path d="M216.857 465.08L290.107 395.43C294.867 390.65 296.687 394.87 296.687 397.17V580.04C296.682 581.145 296.239 582.203 295.456 582.983C294.672 583.762 293.612 584.2 292.507 584.2H216.857C215.754 584.198 214.696 583.759 213.915 582.979C213.134 582.2 212.692 581.143 212.687 580.04V475.53C212.687 469.86 214.107 467.84 216.857 465.08Z" fill="white"/>
</g>
<defs>
<clipPath id="clip0_17151_21">
<rect width="722.16" height="802.16" fill="white"/>
</clipPath>
</defs>
</svg>
