<svg width="2600" height="131" viewBox="0 0 2600 131" fill="none" xmlns="http://www.w3.org/2000/svg">
<path d="M6.08 80V24H12.48L15.28 34.56V80H6.08ZM44.88 80L11.36 36.24L12.48 24L46 67.76L44.88 80ZM44.88 80L42.08 70.16V24H51.28V80H44.88ZM77.9838 80.8C74.7304 80.8 71.8238 80.08 69.2638 78.64C66.7571 77.2 64.7838 75.2267 63.3438 72.72C61.9571 70.16 61.2638 67.2267 61.2638 63.92V41.6H70.0638V63.52C70.0638 65.3867 70.3571 66.9867 70.9438 68.32C71.5838 69.6 72.4904 70.5867 73.6638 71.28C74.8904 71.9733 76.3304 72.32 77.9838 72.32C80.5438 72.32 82.4904 71.5733 83.8238 70.08C85.2104 68.5333 85.9038 66.3467 85.9038 63.52V41.6H94.7038V63.92C94.7038 67.28 93.9838 70.24 92.5438 72.8C91.1571 75.3067 89.2104 77.28 86.7038 78.72C84.1971 80.1067 81.2904 80.8 77.9838 80.8ZM73.5038 36.08L69.5038 32.08L79.7438 19.04L86.5438 25.84L73.5038 36.08ZM103.552 80V41.6H112.352V80H103.552ZM129.072 80V57.12C129.072 54.56 128.272 52.5867 126.672 51.2C125.072 49.76 123.099 49.04 120.752 49.04C119.152 49.04 117.712 49.36 116.432 50C115.205 50.64 114.219 51.5733 113.472 52.8C112.725 53.9733 112.352 55.4133 112.352 57.12L108.912 55.2C108.912 52.2667 109.552 49.7333 110.832 47.6C112.112 45.4667 113.845 43.8133 116.032 42.64C118.219 41.4133 120.672 40.8 123.392 40.8C126.112 40.8 128.565 41.3867 130.752 42.56C132.939 43.7333 134.672 45.3867 135.952 47.52C137.232 49.6533 137.872 52.2133 137.872 55.2V80H129.072ZM154.592 80V57.12C154.592 54.56 153.792 52.5867 152.192 51.2C150.592 49.76 148.619 49.04 146.272 49.04C144.725 49.04 143.312 49.36 142.032 50C140.752 50.64 139.739 51.5733 138.992 52.8C138.245 53.9733 137.872 55.4133 137.872 57.12L132.912 55.2C133.179 52.2667 134.032 49.7333 135.472 47.6C136.912 45.4667 138.752 43.8133 140.992 42.64C143.285 41.4133 145.792 40.8 148.512 40.8C151.285 40.8 153.792 41.3867 156.032 42.56C158.272 43.7333 160.059 45.3867 161.392 47.52C162.725 49.6533 163.392 52.2133 163.392 55.2V80H154.592ZM190.298 80.8C186.458 80.8 182.991 79.9467 179.898 78.24C176.858 76.48 174.431 74.08 172.618 71.04C170.858 68 169.978 64.5867 169.978 60.8C169.978 57.0133 170.858 53.6267 172.618 50.64C174.378 47.6 176.751 45.2 179.738 43.44C182.778 41.68 186.138 40.8 189.818 40.8C193.391 40.8 196.538 41.6267 199.258 43.28C202.031 44.9333 204.191 47.2 205.738 50.08C207.338 52.96 208.138 56.24 208.138 59.92C208.138 60.56 208.085 61.2267 207.978 61.92C207.925 62.56 207.818 63.28 207.658 64.08H176.138V56.88H203.098L199.818 59.76C199.711 57.4133 199.258 55.44 198.458 53.84C197.658 52.24 196.511 51.0133 195.018 50.16C193.578 49.3067 191.791 48.88 189.658 48.88C187.418 48.88 185.471 49.36 183.818 50.32C182.165 51.28 180.885 52.64 179.978 54.4C179.071 56.1067 178.618 58.16 178.618 60.56C178.618 62.96 179.098 65.0667 180.058 66.88C181.018 68.6933 182.378 70.1067 184.138 71.12C185.898 72.08 187.925 72.56 190.218 72.56C192.191 72.56 194.005 72.2133 195.658 71.52C197.365 70.8267 198.805 69.8133 199.978 68.48L205.578 74.16C203.711 76.3467 201.445 78 198.778 79.12C196.111 80.24 193.285 80.8 190.298 80.8ZM215.193 80V41.6H223.993V80H215.193ZM223.993 58.64L220.953 57.12C220.953 52.2667 222.019 48.3467 224.153 45.36C226.339 42.32 229.619 40.8 233.993 40.8C235.913 40.8 237.646 41.1467 239.193 41.84C240.739 42.5333 242.179 43.6533 243.513 45.2L237.753 51.12C237.059 50.3733 236.286 49.84 235.433 49.52C234.579 49.2 233.593 49.04 232.473 49.04C230.019 49.04 227.993 49.8133 226.393 51.36C224.793 52.9067 223.993 55.3333 223.993 58.64ZM264.199 80.8C260.465 80.8 257.079 79.92 254.039 78.16C250.999 76.3467 248.572 73.92 246.759 70.88C244.999 67.84 244.119 64.4533 244.119 60.72C244.119 56.9867 244.999 53.6267 246.759 50.64C248.572 47.6533 250.999 45.28 254.039 43.52C257.079 41.7067 260.465 40.8 264.199 40.8C267.985 40.8 271.399 41.68 274.439 43.44C277.479 45.2 279.879 47.6 281.639 50.64C283.452 53.6267 284.359 56.9867 284.359 60.72C284.359 64.4533 283.452 67.84 281.639 70.88C279.879 73.92 277.479 76.3467 274.439 78.16C271.399 79.92 267.985 80.8 264.199 80.8ZM264.199 72.32C266.385 72.32 268.305 71.84 269.959 70.88C271.665 69.8667 272.972 68.48 273.879 66.72C274.839 64.96 275.319 62.96 275.319 60.72C275.319 58.48 274.839 56.5067 273.879 54.8C272.919 53.0933 271.612 51.76 269.959 50.8C268.305 49.7867 266.385 49.28 264.199 49.28C262.065 49.28 260.145 49.7867 258.439 50.8C256.785 51.76 255.479 53.0933 254.519 54.8C253.612 56.5067 253.159 58.48 253.159 60.72C253.159 62.96 253.612 64.96 254.519 66.72C255.479 68.48 256.785 69.8667 258.439 70.88C260.145 71.84 262.065 72.32 264.199 72.32ZM323.773 80.8C320.306 80.8 317.159 79.92 314.333 78.16C311.559 76.4 309.346 74.0267 307.693 71.04C306.093 68 305.293 64.6133 305.293 60.88C305.293 57.0933 306.093 53.7067 307.693 50.72C309.346 47.68 311.559 45.28 314.333 43.52C317.159 41.7067 320.306 40.8 323.773 40.8C326.706 40.8 329.293 41.44 331.533 42.72C333.826 43.9467 335.639 45.6533 336.973 47.84C338.306 50.0267 338.973 52.5067 338.973 55.28V66.32C338.973 69.0933 338.306 71.5733 336.973 73.76C335.693 75.9467 333.906 77.68 331.613 78.96C329.319 80.1867 326.706 80.8 323.773 80.8ZM325.213 72.48C327.399 72.48 329.293 72 330.893 71.04C332.546 70.0267 333.826 68.64 334.733 66.88C335.639 65.12 336.093 63.0933 336.093 60.8C336.093 58.5067 335.639 56.48 334.733 54.72C333.826 52.96 332.546 51.6 330.893 50.64C329.293 49.6267 327.399 49.12 325.213 49.12C323.079 49.12 321.186 49.6267 319.533 50.64C317.933 51.6 316.653 52.96 315.693 54.72C314.786 56.48 314.333 58.5067 314.333 60.8C314.333 63.0933 314.786 65.12 315.693 66.88C316.653 68.64 317.933 70.0267 319.533 71.04C321.186 72 323.079 72.48 325.213 72.48ZM344.333 80H335.533V69.68L337.053 60.32L335.533 51.04V22.4H344.333V80ZM371.939 80.8C368.099 80.8 364.632 79.9467 361.539 78.24C358.499 76.48 356.072 74.08 354.259 71.04C352.499 68 351.619 64.5867 351.619 60.8C351.619 57.0133 352.499 53.6267 354.259 50.64C356.019 47.6 358.392 45.2 361.379 43.44C364.419 41.68 367.779 40.8 371.459 40.8C375.032 40.8 378.179 41.6267 380.899 43.28C383.672 44.9333 385.832 47.2 387.379 50.08C388.979 52.96 389.779 56.24 389.779 59.92C389.779 60.56 389.725 61.2267 389.619 61.92C389.565 62.56 389.459 63.28 389.299 64.08H357.779V56.88H384.739L381.459 59.76C381.352 57.4133 380.899 55.44 380.099 53.84C379.299 52.24 378.152 51.0133 376.659 50.16C375.219 49.3067 373.432 48.88 371.299 48.88C369.059 48.88 367.112 49.36 365.459 50.32C363.805 51.28 362.525 52.64 361.619 54.4C360.712 56.1067 360.259 58.16 360.259 60.56C360.259 62.96 360.739 65.0667 361.699 66.88C362.659 68.6933 364.019 70.1067 365.779 71.12C367.539 72.08 369.565 72.56 371.859 72.56C373.832 72.56 375.645 72.2133 377.299 71.52C379.005 70.8267 380.445 69.8133 381.619 68.48L387.219 74.16C385.352 76.3467 383.085 78 380.419 79.12C377.752 80.24 374.925 80.8 371.939 80.8ZM430.689 80.8C426.849 80.8 423.382 79.9467 420.289 78.24C417.249 76.48 414.822 74.08 413.009 71.04C411.249 68 410.369 64.5867 410.369 60.8C410.369 57.0133 411.249 53.6267 413.009 50.64C414.769 47.6 417.142 45.2 420.129 43.44C423.169 41.68 426.529 40.8 430.209 40.8C433.782 40.8 436.929 41.6267 439.649 43.28C442.422 44.9333 444.582 47.2 446.129 50.08C447.729 52.96 448.529 56.24 448.529 59.92C448.529 60.56 448.475 61.2267 448.369 61.92C448.315 62.56 448.209 63.28 448.049 64.08H416.529V56.88H443.489L440.209 59.76C440.102 57.4133 439.649 55.44 438.849 53.84C438.049 52.24 436.902 51.0133 435.409 50.16C433.969 49.3067 432.182 48.88 430.049 48.88C427.809 48.88 425.862 49.36 424.209 50.32C422.555 51.28 421.275 52.64 420.369 54.4C419.462 56.1067 419.009 58.16 419.009 60.56C419.009 62.96 419.489 65.0667 420.449 66.88C421.409 68.6933 422.769 70.1067 424.529 71.12C426.289 72.08 428.315 72.56 430.609 72.56C432.582 72.56 434.395 72.2133 436.049 71.52C437.755 70.8267 439.195 69.8133 440.369 68.48L445.969 74.16C444.102 76.3467 441.835 78 439.169 79.12C436.502 80.24 433.675 80.8 430.689 80.8ZM455.583 80V41.6H464.383V80H455.583ZM481.103 80V57.12C481.103 54.56 480.303 52.5867 478.703 51.2C477.103 49.76 475.13 49.04 472.783 49.04C471.183 49.04 469.743 49.36 468.463 50C467.236 50.64 466.25 51.5733 465.503 52.8C464.756 53.9733 464.383 55.4133 464.383 57.12L460.943 55.2C460.943 52.2667 461.583 49.7333 462.863 47.6C464.143 45.4667 465.876 43.8133 468.063 42.64C470.25 41.4133 472.703 40.8 475.423 40.8C478.143 40.8 480.596 41.3867 482.783 42.56C484.97 43.7333 486.703 45.3867 487.983 47.52C489.263 49.6533 489.903 52.2133 489.903 55.2V80H481.103ZM506.623 80V57.12C506.623 54.56 505.823 52.5867 504.223 51.2C502.623 49.76 500.65 49.04 498.303 49.04C496.756 49.04 495.343 49.36 494.063 50C492.783 50.64 491.77 51.5733 491.023 52.8C490.276 53.9733 489.903 55.4133 489.903 57.12L484.943 55.2C485.21 52.2667 486.063 49.7333 487.503 47.6C488.943 45.4667 490.783 43.8133 493.023 42.64C495.316 41.4133 497.823 40.8 500.543 40.8C503.316 40.8 505.823 41.3867 508.063 42.56C510.303 43.7333 512.09 45.3867 513.423 47.52C514.756 49.6533 515.423 52.2133 515.423 55.2V80H506.623ZM545.049 80.8C542.116 80.8 539.503 80.1867 537.209 78.96C534.916 77.68 533.103 75.9467 531.769 73.76C530.489 71.5733 529.849 69.0933 529.849 66.32V55.28C529.849 52.5067 530.516 50.0267 531.849 47.84C533.183 45.6533 534.996 43.9467 537.289 42.72C539.583 41.44 542.169 40.8 545.049 40.8C548.516 40.8 551.636 41.7067 554.409 43.52C557.236 45.28 559.449 47.68 561.049 50.72C562.703 53.7067 563.529 57.0933 563.529 60.88C563.529 64.6133 562.703 68 561.049 71.04C559.449 74.0267 557.236 76.4 554.409 78.16C551.636 79.92 548.516 80.8 545.049 80.8ZM524.489 96V41.6H533.289V51.92L531.769 61.28L533.289 70.56V96H524.489ZM543.609 72.48C545.743 72.48 547.609 72 549.209 71.04C550.863 70.0267 552.143 68.64 553.049 66.88C554.009 65.12 554.489 63.0933 554.489 60.8C554.489 58.5067 554.009 56.48 553.049 54.72C552.143 52.96 550.863 51.6 549.209 50.64C547.609 49.6267 545.743 49.12 543.609 49.12C541.476 49.12 539.583 49.6267 537.929 50.64C536.276 51.6 534.996 52.96 534.089 54.72C533.183 56.48 532.729 58.5067 532.729 60.8C532.729 63.0933 533.183 65.12 534.089 66.88C534.996 68.64 536.276 70.0267 537.929 71.04C539.583 72 541.476 72.48 543.609 72.48ZM570.896 80V41.6H579.696V80H570.896ZM579.696 58.64L576.656 57.12C576.656 52.2667 577.722 48.3467 579.856 45.36C582.042 42.32 585.322 40.8 589.696 40.8C591.616 40.8 593.349 41.1467 594.896 41.84C596.442 42.5333 597.882 43.6533 599.216 45.2L593.456 51.12C592.762 50.3733 591.989 49.84 591.136 49.52C590.282 49.2 589.296 49.04 588.176 49.04C585.722 49.04 583.696 49.8133 582.096 51.36C580.496 52.9067 579.696 55.3333 579.696 58.64ZM620.142 80.8C616.302 80.8 612.835 79.9467 609.742 78.24C606.702 76.48 604.275 74.08 602.462 71.04C600.702 68 599.822 64.5867 599.822 60.8C599.822 57.0133 600.702 53.6267 602.462 50.64C604.222 47.6 606.595 45.2 609.582 43.44C612.622 41.68 615.982 40.8 619.662 40.8C623.235 40.8 626.382 41.6267 629.102 43.28C631.875 44.9333 634.035 47.2 635.582 50.08C637.182 52.96 637.982 56.24 637.982 59.92C637.982 60.56 637.929 61.2267 637.822 61.92C637.769 62.56 637.662 63.28 637.502 64.08H605.982V56.88H632.942L629.662 59.76C629.555 57.4133 629.102 55.44 628.302 53.84C627.502 52.24 626.355 51.0133 624.862 50.16C623.422 49.3067 621.635 48.88 619.502 48.88C617.262 48.88 615.315 49.36 613.662 50.32C612.009 51.28 610.729 52.64 609.822 54.4C608.915 56.1067 608.462 58.16 608.462 60.56C608.462 62.96 608.942 65.0667 609.902 66.88C610.862 68.6933 612.222 70.1067 613.982 71.12C615.742 72.08 617.769 72.56 620.062 72.56C622.035 72.56 623.849 72.2133 625.502 71.52C627.209 70.8267 628.649 69.8133 629.822 68.48L635.422 74.16C633.555 76.3467 631.289 78 628.622 79.12C625.955 80.24 623.129 80.8 620.142 80.8ZM661.036 96.8C656.983 96.8 653.436 96.0533 650.396 94.56C647.356 93.12 644.903 91.0667 643.036 88.4L648.796 82.64C650.343 84.56 652.103 86 654.076 86.96C656.05 87.92 658.423 88.4 661.196 88.4C664.663 88.4 667.41 87.4933 669.436 85.68C671.463 83.92 672.476 81.4933 672.476 78.4V68.96L673.996 60.48L672.476 51.92V41.6H681.276V78.4C681.276 82.08 680.423 85.28 678.716 88C677.01 90.7733 674.636 92.9333 671.596 94.48C668.556 96.0267 665.036 96.8 661.036 96.8ZM660.636 79.2C657.223 79.2 654.13 78.3733 651.356 76.72C648.636 75.0133 646.476 72.6933 644.876 69.76C643.33 66.8267 642.556 63.5467 642.556 59.92C642.556 56.2933 643.33 53.04 644.876 50.16C646.476 47.28 648.636 45.0133 651.356 43.36C654.13 41.6533 657.223 40.8 660.636 40.8C663.676 40.8 666.343 41.4133 668.636 42.64C670.93 43.8667 672.716 45.5733 673.996 47.76C675.276 49.8933 675.916 52.4 675.916 55.28V64.72C675.916 67.5467 675.25 70.0533 673.916 72.24C672.636 74.4267 670.85 76.1333 668.556 77.36C666.263 78.5867 663.623 79.2 660.636 79.2ZM662.396 70.88C664.53 70.88 666.396 70.4267 667.996 69.52C669.596 68.6133 670.823 67.36 671.676 65.76C672.583 64.1067 673.036 62.1867 673.036 60C673.036 57.8133 672.583 55.92 671.676 54.32C670.823 52.6667 669.596 51.3867 667.996 50.48C666.396 49.5733 664.53 49.12 662.396 49.12C660.263 49.12 658.37 49.5733 656.716 50.48C655.116 51.3867 653.863 52.6667 652.956 54.32C652.05 55.92 651.596 57.8133 651.596 60C651.596 62.1333 652.05 64.0267 652.956 65.68C653.863 67.3333 655.116 68.6133 656.716 69.52C658.37 70.4267 660.263 70.88 662.396 70.88ZM708.652 80.8C704.919 80.8 701.532 79.92 698.492 78.16C695.452 76.3467 693.025 73.92 691.212 70.88C689.452 67.84 688.572 64.4533 688.572 60.72C688.572 56.9867 689.452 53.6267 691.212 50.64C693.025 47.6533 695.452 45.28 698.492 43.52C701.532 41.7067 704.919 40.8 708.652 40.8C712.439 40.8 715.852 41.68 718.892 43.44C721.932 45.2 724.332 47.6 726.092 50.64C727.905 53.6267 728.812 56.9867 728.812 60.72C728.812 64.4533 727.905 67.84 726.092 70.88C724.332 73.92 721.932 76.3467 718.892 78.16C715.852 79.92 712.439 80.8 708.652 80.8ZM708.652 72.32C710.839 72.32 712.759 71.84 714.412 70.88C716.119 69.8667 717.425 68.48 718.332 66.72C719.292 64.96 719.772 62.96 719.772 60.72C719.772 58.48 719.292 56.5067 718.332 54.8C717.372 53.0933 716.065 51.76 714.412 50.8C712.759 49.7867 710.839 49.28 708.652 49.28C706.519 49.28 704.599 49.7867 702.892 50.8C701.239 51.76 699.932 53.0933 698.972 54.8C698.065 56.5067 697.612 58.48 697.612 60.72C697.612 62.96 698.065 64.96 698.972 66.72C699.932 68.48 701.239 69.8667 702.892 70.88C704.599 71.84 706.519 72.32 708.652 72.32ZM748.69 80.8C746.557 80.8 744.503 80.5333 742.53 80C740.557 79.4133 738.743 78.6133 737.09 77.6C735.437 76.5333 733.997 75.2533 732.77 73.76L738.37 68.16C739.703 69.7067 741.223 70.88 742.93 71.68C744.69 72.4267 746.663 72.8 748.85 72.8C750.823 72.8 752.317 72.5067 753.33 71.92C754.343 71.3333 754.85 70.48 754.85 69.36C754.85 68.1867 754.37 67.28 753.41 66.64C752.45 66 751.197 65.4667 749.65 65.04C748.157 64.56 746.557 64.08 744.85 63.6C743.197 63.12 741.597 62.48 740.05 61.68C738.557 60.8267 737.33 59.68 736.37 58.24C735.41 56.8 734.93 54.9333 734.93 52.64C734.93 50.1867 735.49 48.08 736.61 46.32C737.783 44.56 739.41 43.2 741.49 42.24C743.623 41.28 746.157 40.8 749.09 40.8C752.183 40.8 754.903 41.36 757.25 42.48C759.65 43.5467 761.65 45.1733 763.25 47.36L757.65 52.96C756.53 51.5733 755.25 50.5333 753.81 49.84C752.37 49.1467 750.717 48.8 748.85 48.8C747.09 48.8 745.73 49.0667 744.77 49.6C743.81 50.1333 743.33 50.9067 743.33 51.92C743.33 52.9867 743.81 53.8133 744.77 54.4C745.73 54.9867 746.957 55.4933 748.45 55.92C749.997 56.3467 751.597 56.8267 753.25 57.36C754.957 57.84 756.557 58.5333 758.05 59.44C759.597 60.2933 760.85 61.4667 761.81 62.96C762.77 64.4 763.25 66.2933 763.25 68.64C763.25 72.3733 761.943 75.3333 759.33 77.52C756.717 79.7067 753.17 80.8 748.69 80.8ZM791.801 80V36.56C791.801 33.6267 792.441 31.04 793.721 28.8C795.054 26.56 796.867 24.8 799.161 23.52C801.507 22.24 804.201 21.6 807.241 21.6C809.587 21.6 811.587 22 813.241 22.8C814.894 23.6 816.441 24.7467 817.881 26.24L812.201 31.92C811.561 31.28 810.867 30.7733 810.121 30.4C809.374 30.0267 808.414 29.84 807.241 29.84C805.107 29.84 803.454 30.4267 802.281 31.6C801.161 32.72 800.601 34.3467 800.601 36.48V80H791.801ZM782.601 49.6V41.6H812.201V49.6H782.601ZM834.433 80.8C830.7 80.8 827.313 79.92 824.273 78.16C821.233 76.3467 818.806 73.92 816.993 70.88C815.233 67.84 814.353 64.4533 814.353 60.72C814.353 56.9867 815.233 53.6267 816.993 50.64C818.806 47.6533 821.233 45.28 824.273 43.52C827.313 41.7067 830.7 40.8 834.433 40.8C838.22 40.8 841.633 41.68 844.673 43.44C847.713 45.2 850.113 47.6 851.873 50.64C853.686 53.6267 854.593 56.9867 854.593 60.72C854.593 64.4533 853.686 67.84 851.873 70.88C850.113 73.92 847.713 76.3467 844.673 78.16C841.633 79.92 838.22 80.8 834.433 80.8ZM834.433 72.32C836.62 72.32 838.54 71.84 840.193 70.88C841.9 69.8667 843.206 68.48 844.113 66.72C845.073 64.96 845.553 62.96 845.553 60.72C845.553 58.48 845.073 56.5067 844.113 54.8C843.153 53.0933 841.846 51.76 840.193 50.8C838.54 49.7867 836.62 49.28 834.433 49.28C832.3 49.28 830.38 49.7867 828.673 50.8C827.02 51.76 825.713 53.0933 824.753 54.8C823.846 56.5067 823.393 58.48 823.393 60.72C823.393 62.96 823.846 64.96 824.753 66.72C825.713 68.48 827.02 69.8667 828.673 70.88C830.38 71.84 832.3 72.32 834.433 72.32ZM861.911 80V41.6H870.711V80H861.911ZM870.711 58.64L867.671 57.12C867.671 52.2667 868.738 48.3467 870.871 45.36C873.058 42.32 876.338 40.8 880.711 40.8C882.631 40.8 884.365 41.1467 885.911 41.84C887.458 42.5333 888.898 43.6533 890.231 45.2L884.471 51.12C883.778 50.3733 883.005 49.84 882.151 49.52C881.298 49.2 880.311 49.04 879.191 49.04C876.738 49.04 874.711 49.8133 873.111 51.36C871.511 52.9067 870.711 55.3333 870.711 58.64ZM894.489 80V41.6H903.289V80H894.489ZM920.009 80V57.12C920.009 54.56 919.209 52.5867 917.609 51.2C916.009 49.76 914.036 49.04 911.689 49.04C910.089 49.04 908.649 49.36 907.369 50C906.143 50.64 905.156 51.5733 904.409 52.8C903.663 53.9733 903.289 55.4133 903.289 57.12L899.849 55.2C899.849 52.2667 900.489 49.7333 901.769 47.6C903.049 45.4667 904.783 43.8133 906.969 42.64C909.156 41.4133 911.609 40.8 914.329 40.8C917.049 40.8 919.503 41.3867 921.689 42.56C923.876 43.7333 925.609 45.3867 926.889 47.52C928.169 49.6533 928.809 52.2133 928.809 55.2V80H920.009ZM945.529 80V57.12C945.529 54.56 944.729 52.5867 943.129 51.2C941.529 49.76 939.556 49.04 937.209 49.04C935.663 49.04 934.249 49.36 932.969 50C931.689 50.64 930.676 51.5733 929.929 52.8C929.183 53.9733 928.809 55.4133 928.809 57.12L923.849 55.2C924.116 52.2667 924.969 49.7333 926.409 47.6C927.849 45.4667 929.689 43.8133 931.929 42.64C934.223 41.4133 936.729 40.8 939.449 40.8C942.223 40.8 944.729 41.3867 946.969 42.56C949.209 43.7333 950.996 45.3867 952.329 47.52C953.663 49.6533 954.329 52.2133 954.329 55.2V80H945.529ZM979.476 80.8C976.009 80.8 972.862 79.92 970.036 78.16C967.262 76.4 965.049 74.0267 963.396 71.04C961.796 68 960.996 64.6133 960.996 60.88C960.996 57.0933 961.796 53.7067 963.396 50.72C965.049 47.68 967.262 45.28 970.036 43.52C972.862 41.7067 976.009 40.8 979.476 40.8C982.409 40.8 984.996 41.44 987.236 42.72C989.529 43.9467 991.342 45.6533 992.676 47.84C994.009 50.0267 994.676 52.5067 994.676 55.28V66.32C994.676 69.0933 994.009 71.5733 992.676 73.76C991.396 75.9467 989.609 77.68 987.316 78.96C985.022 80.1867 982.409 80.8 979.476 80.8ZM980.916 72.48C984.169 72.48 986.782 71.3867 988.756 69.2C990.782 67.0133 991.796 64.2133 991.796 60.8C991.796 58.5067 991.342 56.48 990.436 54.72C989.529 52.96 988.249 51.6 986.596 50.64C984.996 49.6267 983.102 49.12 980.916 49.12C978.782 49.12 976.889 49.6267 975.236 50.64C973.636 51.6 972.356 52.96 971.396 54.72C970.489 56.48 970.036 58.5067 970.036 60.8C970.036 63.0933 970.489 65.12 971.396 66.88C972.356 68.64 973.636 70.0267 975.236 71.04C976.889 72 978.782 72.48 980.916 72.48ZM991.236 80V69.68L992.756 60.32L991.236 51.04V41.6H1000.04V80H991.236ZM1009.88 80V41.6H1018.68V80H1009.88ZM1014.28 34.56C1012.79 34.56 1011.54 34.0533 1010.52 33.04C1009.56 32.0267 1009.08 30.7733 1009.08 29.28C1009.08 27.7867 1009.56 26.5333 1010.52 25.52C1011.54 24.5067 1012.79 24 1014.28 24C1015.83 24 1017.08 24.5067 1018.04 25.52C1019 26.5333 1019.48 27.7867 1019.48 29.28C1019.48 30.7733 1019 32.0267 1018.04 33.04C1017.08 34.0533 1015.83 34.56 1014.28 34.56ZM1041.11 80.8C1038.98 80.8 1036.93 80.5333 1034.95 80C1032.98 79.4133 1031.17 78.6133 1029.51 77.6C1027.86 76.5333 1026.42 75.2533 1025.19 73.76L1030.79 68.16C1032.13 69.7067 1033.65 70.88 1035.35 71.68C1037.11 72.4267 1039.09 72.8 1041.27 72.8C1043.25 72.8 1044.74 72.5067 1045.75 71.92C1046.77 71.3333 1047.27 70.48 1047.27 69.36C1047.27 68.1867 1046.79 67.28 1045.83 66.64C1044.87 66 1043.62 65.4667 1042.07 65.04C1040.58 64.56 1038.98 64.08 1037.27 63.6C1035.62 63.12 1034.02 62.48 1032.47 61.68C1030.98 60.8267 1029.75 59.68 1028.79 58.24C1027.83 56.8 1027.35 54.9333 1027.35 52.64C1027.35 50.1867 1027.91 48.08 1029.03 46.32C1030.21 44.56 1031.83 43.2 1033.91 42.24C1036.05 41.28 1038.58 40.8 1041.51 40.8C1044.61 40.8 1047.33 41.36 1049.67 42.48C1052.07 43.5467 1054.07 45.1733 1055.67 47.36L1050.07 52.96C1048.95 51.5733 1047.67 50.5333 1046.23 49.84C1044.79 49.1467 1043.14 48.8 1041.27 48.8C1039.51 48.8 1038.15 49.0667 1037.19 49.6C1036.23 50.1333 1035.75 50.9067 1035.75 51.92C1035.75 52.9867 1036.23 53.8133 1037.19 54.4C1038.15 54.9867 1039.38 55.4933 1040.87 55.92C1042.42 56.3467 1044.02 56.8267 1045.67 57.36C1047.38 57.84 1048.98 58.5333 1050.47 59.44C1052.02 60.2933 1053.27 61.4667 1054.23 62.96C1055.19 64.4 1055.67 66.2933 1055.67 68.64C1055.67 72.3733 1054.37 75.3333 1051.75 77.52C1049.14 79.7067 1045.59 80.8 1041.11 80.8ZM1099.5 80.8C1096.57 80.8 1093.96 80.1867 1091.66 78.96C1089.37 77.68 1087.56 75.9467 1086.22 73.76C1084.94 71.5733 1084.3 69.0933 1084.3 66.32V55.28C1084.3 52.5067 1084.97 50.0267 1086.3 47.84C1087.64 45.6533 1089.45 43.9467 1091.74 42.72C1094.04 41.44 1096.62 40.8 1099.5 40.8C1102.97 40.8 1106.09 41.7067 1108.86 43.52C1111.69 45.28 1113.9 47.68 1115.5 50.72C1117.16 53.7067 1117.98 57.0933 1117.98 60.88C1117.98 64.6133 1117.16 68 1115.5 71.04C1113.9 74.0267 1111.69 76.4 1108.86 78.16C1106.09 79.92 1102.97 80.8 1099.5 80.8ZM1078.94 96V41.6H1087.74V51.92L1086.22 61.28L1087.74 70.56V96H1078.94ZM1098.06 72.48C1100.2 72.48 1102.06 72 1103.66 71.04C1105.32 70.0267 1106.6 68.64 1107.5 66.88C1108.46 65.12 1108.94 63.0933 1108.94 60.8C1108.94 58.5067 1108.46 56.48 1107.5 54.72C1106.6 52.96 1105.32 51.6 1103.66 50.64C1102.06 49.6267 1100.2 49.12 1098.06 49.12C1095.93 49.12 1094.04 49.6267 1092.38 50.64C1090.73 51.6 1089.45 52.96 1088.54 54.72C1087.64 56.48 1087.18 58.5067 1087.18 60.8C1087.18 63.0933 1087.64 65.12 1088.54 66.88C1089.45 68.64 1090.73 70.0267 1092.38 71.04C1094.04 72 1095.93 72.48 1098.06 72.48ZM1142.95 80.8C1139.22 80.8 1135.83 79.92 1132.79 78.16C1129.75 76.3467 1127.32 73.92 1125.51 70.88C1123.75 67.84 1122.87 64.4533 1122.87 60.72C1122.87 56.9867 1123.75 53.6267 1125.51 50.64C1127.32 47.6533 1129.75 45.28 1132.79 43.52C1135.83 41.7067 1139.22 40.8 1142.95 40.8C1146.74 40.8 1150.15 41.68 1153.19 43.44C1156.23 45.2 1158.63 47.6 1160.39 50.64C1162.2 53.6267 1163.11 56.9867 1163.11 60.72C1163.11 64.4533 1162.2 67.84 1160.39 70.88C1158.63 73.92 1156.23 76.3467 1153.19 78.16C1150.15 79.92 1146.74 80.8 1142.95 80.8ZM1142.95 72.32C1145.14 72.32 1147.06 71.84 1148.71 70.88C1150.42 69.8667 1151.72 68.48 1152.63 66.72C1153.59 64.96 1154.07 62.96 1154.07 60.72C1154.07 58.48 1153.59 56.5067 1152.63 54.8C1151.67 53.0933 1150.36 51.76 1148.71 50.8C1147.06 49.7867 1145.14 49.28 1142.95 49.28C1140.82 49.28 1138.9 49.7867 1137.19 50.8C1135.54 51.76 1134.23 53.0933 1133.27 54.8C1132.36 56.5067 1131.91 58.48 1131.91 60.72C1131.91 62.96 1132.36 64.96 1133.27 66.72C1134.23 68.48 1135.54 69.8667 1137.19 70.88C1138.9 71.84 1140.82 72.32 1142.95 72.32ZM1170.43 80V41.6H1179.23V80H1170.43ZM1179.23 58.64L1176.19 57.12C1176.19 52.2667 1177.25 48.3467 1179.39 45.36C1181.57 42.32 1184.85 40.8 1189.23 40.8C1191.15 40.8 1192.88 41.1467 1194.43 41.84C1195.97 42.5333 1197.41 43.6533 1198.75 45.2L1192.99 51.12C1192.29 50.3733 1191.52 49.84 1190.67 49.52C1189.81 49.2 1188.83 49.04 1187.71 49.04C1185.25 49.04 1183.23 49.8133 1181.63 51.36C1180.03 52.9067 1179.23 55.3333 1179.23 58.64ZM1232.99 80.8C1230.85 80.8 1228.8 80.5333 1226.83 80C1224.85 79.4133 1223.04 78.6133 1221.39 77.6C1219.73 76.5333 1218.29 75.2533 1217.07 73.76L1222.67 68.16C1224 69.7067 1225.52 70.88 1227.23 71.68C1228.99 72.4267 1230.96 72.8 1233.15 72.8C1235.12 72.8 1236.61 72.5067 1237.63 71.92C1238.64 71.3333 1239.15 70.48 1239.15 69.36C1239.15 68.1867 1238.67 67.28 1237.71 66.64C1236.75 66 1235.49 65.4667 1233.95 65.04C1232.45 64.56 1230.85 64.08 1229.15 63.6C1227.49 63.12 1225.89 62.48 1224.35 61.68C1222.85 60.8267 1221.63 59.68 1220.67 58.24C1219.71 56.8 1219.23 54.9333 1219.23 52.64C1219.23 50.1867 1219.79 48.08 1220.91 46.32C1222.08 44.56 1223.71 43.2 1225.79 42.24C1227.92 41.28 1230.45 40.8 1233.39 40.8C1236.48 40.8 1239.2 41.36 1241.55 42.48C1243.95 43.5467 1245.95 45.1733 1247.55 47.36L1241.95 52.96C1240.83 51.5733 1239.55 50.5333 1238.11 49.84C1236.67 49.1467 1235.01 48.8 1233.15 48.8C1231.39 48.8 1230.03 49.0667 1229.07 49.6C1228.11 50.1333 1227.63 50.9067 1227.63 51.92C1227.63 52.9867 1228.11 53.8133 1229.07 54.4C1230.03 54.9867 1231.25 55.4933 1232.75 55.92C1234.29 56.3467 1235.89 56.8267 1237.55 57.36C1239.25 57.84 1240.85 58.5333 1242.35 59.44C1243.89 60.2933 1245.15 61.4667 1246.11 62.96C1247.07 64.4 1247.55 66.2933 1247.55 68.64C1247.55 72.3733 1246.24 75.3333 1243.63 77.52C1241.01 79.7067 1237.47 80.8 1232.99 80.8ZM1272.64 80.8C1268.8 80.8 1265.34 79.9467 1262.24 78.24C1259.2 76.48 1256.78 74.08 1254.96 71.04C1253.2 68 1252.32 64.5867 1252.32 60.8C1252.32 57.0133 1253.2 53.6267 1254.96 50.64C1256.72 47.6 1259.1 45.2 1262.08 43.44C1265.12 41.68 1268.48 40.8 1272.16 40.8C1275.74 40.8 1278.88 41.6267 1281.6 43.28C1284.38 44.9333 1286.54 47.2 1288.08 50.08C1289.68 52.96 1290.48 56.24 1290.48 59.92C1290.48 60.56 1290.43 61.2267 1290.32 61.92C1290.27 62.56 1290.16 63.28 1290 64.08H1258.48V56.88H1285.44L1282.16 59.76C1282.06 57.4133 1281.6 55.44 1280.8 53.84C1280 52.24 1278.86 51.0133 1277.36 50.16C1275.92 49.3067 1274.14 48.88 1272 48.88C1269.76 48.88 1267.82 49.36 1266.16 50.32C1264.51 51.28 1263.23 52.64 1262.32 54.4C1261.42 56.1067 1260.96 58.16 1260.96 60.56C1260.96 62.96 1261.44 65.0667 1262.4 66.88C1263.36 68.6933 1264.72 70.1067 1266.48 71.12C1268.24 72.08 1270.27 72.56 1272.56 72.56C1274.54 72.56 1276.35 72.2133 1278 71.52C1279.71 70.8267 1281.15 69.8133 1282.32 68.48L1287.92 74.16C1286.06 76.3467 1283.79 78 1281.12 79.12C1278.46 80.24 1275.63 80.8 1272.64 80.8ZM1302.36 80V25.6H1311.16V80H1302.36ZM1293.16 49.6V41.6H1320.36V49.6H1293.16ZM1343.26 80.8C1339.53 80.8 1336.14 79.92 1333.1 78.16C1330.06 76.3467 1327.63 73.92 1325.82 70.88C1324.06 67.84 1323.18 64.4533 1323.18 60.72C1323.18 56.9867 1324.06 53.6267 1325.82 50.64C1327.63 47.6533 1330.06 45.28 1333.1 43.52C1336.14 41.7067 1339.53 40.8 1343.26 40.8C1347.05 40.8 1350.46 41.68 1353.5 43.44C1356.54 45.2 1358.94 47.6 1360.7 50.64C1362.51 53.6267 1363.42 56.9867 1363.42 60.72C1363.42 64.4533 1362.51 67.84 1360.7 70.88C1358.94 73.92 1356.54 76.3467 1353.5 78.16C1350.46 79.92 1347.05 80.8 1343.26 80.8ZM1343.26 72.32C1345.45 72.32 1347.37 71.84 1349.02 70.88C1350.73 69.8667 1352.03 68.48 1352.94 66.72C1353.9 64.96 1354.38 62.96 1354.38 60.72C1354.38 58.48 1353.9 56.5067 1352.94 54.8C1351.98 53.0933 1350.67 51.76 1349.02 50.8C1347.37 49.7867 1345.45 49.28 1343.26 49.28C1341.13 49.28 1339.21 49.7867 1337.5 50.8C1335.85 51.76 1334.54 53.0933 1333.58 54.8C1332.67 56.5067 1332.22 58.48 1332.22 60.72C1332.22 62.96 1332.67 64.96 1333.58 66.72C1334.54 68.48 1335.85 69.8667 1337.5 70.88C1339.21 71.84 1341.13 72.32 1343.26 72.32ZM1370.74 80V41.6H1379.54V80H1370.74ZM1379.54 58.64L1376.5 57.12C1376.5 52.2667 1377.57 48.3467 1379.7 45.36C1381.89 42.32 1385.17 40.8 1389.54 40.8C1391.46 40.8 1393.19 41.1467 1394.74 41.84C1396.29 42.5333 1397.73 43.6533 1399.06 45.2L1393.3 51.12C1392.61 50.3733 1391.83 49.84 1390.98 49.52C1390.13 49.2 1389.14 49.04 1388.02 49.04C1385.57 49.04 1383.54 49.8133 1381.94 51.36C1380.34 52.9067 1379.54 55.3333 1379.54 58.64ZM1419.99 80.8C1416.15 80.8 1412.68 79.9467 1409.59 78.24C1406.55 76.48 1404.12 74.08 1402.31 71.04C1400.55 68 1399.67 64.5867 1399.67 60.8C1399.67 57.0133 1400.55 53.6267 1402.31 50.64C1404.07 47.6 1406.44 45.2 1409.43 43.44C1412.47 41.68 1415.83 40.8 1419.51 40.8C1423.08 40.8 1426.23 41.6267 1428.95 43.28C1431.72 44.9333 1433.88 47.2 1435.43 50.08C1437.03 52.96 1437.83 56.24 1437.83 59.92C1437.83 60.56 1437.77 61.2267 1437.67 61.92C1437.61 62.56 1437.51 63.28 1437.35 64.08H1405.83V56.88H1432.79L1429.51 59.76C1429.4 57.4133 1428.95 55.44 1428.15 53.84C1427.35 52.24 1426.2 51.0133 1424.71 50.16C1423.27 49.3067 1421.48 48.88 1419.35 48.88C1417.11 48.88 1415.16 49.36 1413.51 50.32C1411.85 51.28 1410.57 52.64 1409.67 54.4C1408.76 56.1067 1408.31 58.16 1408.31 60.56C1408.31 62.96 1408.79 65.0667 1409.75 66.88C1410.71 68.6933 1412.07 70.1067 1413.83 71.12C1415.59 72.08 1417.61 72.56 1419.91 72.56C1421.88 72.56 1423.69 72.2133 1425.35 71.52C1427.05 70.8267 1428.49 69.8133 1429.67 68.48L1435.27 74.16C1433.4 76.3467 1431.13 78 1428.47 79.12C1425.8 80.24 1422.97 80.8 1419.99 80.8ZM1457.44 80.8C1455.31 80.8 1453.25 80.5333 1451.28 80C1449.31 79.4133 1447.49 78.6133 1445.84 77.6C1444.19 76.5333 1442.75 75.2533 1441.52 73.76L1447.12 68.16C1448.45 69.7067 1449.97 70.88 1451.68 71.68C1453.44 72.4267 1455.41 72.8 1457.6 72.8C1459.57 72.8 1461.07 72.5067 1462.08 71.92C1463.09 71.3333 1463.6 70.48 1463.6 69.36C1463.6 68.1867 1463.12 67.28 1462.16 66.64C1461.2 66 1459.95 65.4667 1458.4 65.04C1456.91 64.56 1455.31 64.08 1453.6 63.6C1451.95 63.12 1450.35 62.48 1448.8 61.68C1447.31 60.8267 1446.08 59.68 1445.12 58.24C1444.16 56.8 1443.68 54.9333 1443.68 52.64C1443.68 50.1867 1444.24 48.08 1445.36 46.32C1446.53 44.56 1448.16 43.2 1450.24 42.24C1452.37 41.28 1454.91 40.8 1457.84 40.8C1460.93 40.8 1463.65 41.36 1466 42.48C1468.4 43.5467 1470.4 45.1733 1472 47.36L1466.4 52.96C1465.28 51.5733 1464 50.5333 1462.56 49.84C1461.12 49.1467 1459.47 48.8 1457.6 48.8C1455.84 48.8 1454.48 49.0667 1453.52 49.6C1452.56 50.1333 1452.08 50.9067 1452.08 51.92C1452.08 52.9867 1452.56 53.8133 1453.52 54.4C1454.48 54.9867 1455.71 55.4933 1457.2 55.92C1458.75 56.3467 1460.35 56.8267 1462 57.36C1463.71 57.84 1465.31 58.5333 1466.8 59.44C1468.35 60.2933 1469.6 61.4667 1470.56 62.96C1471.52 64.4 1472 66.2933 1472 68.64C1472 72.3733 1470.69 75.3333 1468.08 77.52C1465.47 79.7067 1461.92 80.8 1457.44 80.8ZM1513.11 80.8C1509.27 80.8 1505.8 79.9467 1502.71 78.24C1499.67 76.48 1497.24 74.08 1495.43 71.04C1493.67 68 1492.79 64.5867 1492.79 60.8C1492.79 57.0133 1493.67 53.6267 1495.43 50.64C1497.19 47.6 1499.56 45.2 1502.55 43.44C1505.59 41.68 1508.95 40.8 1512.63 40.8C1516.2 40.8 1519.35 41.6267 1522.07 43.28C1524.84 44.9333 1527 47.2 1528.55 50.08C1530.15 52.96 1530.95 56.24 1530.95 59.92C1530.95 60.56 1530.9 61.2267 1530.79 61.92C1530.74 62.56 1530.63 63.28 1530.47 64.08H1498.95V56.88H1525.91L1522.63 59.76C1522.52 57.4133 1522.07 55.44 1521.27 53.84C1520.47 52.24 1519.32 51.0133 1517.83 50.16C1516.39 49.3067 1514.6 48.88 1512.47 48.88C1510.23 48.88 1508.28 49.36 1506.63 50.32C1504.98 51.28 1503.7 52.64 1502.79 54.4C1501.88 56.1067 1501.43 58.16 1501.43 60.56C1501.43 62.96 1501.91 65.0667 1502.87 66.88C1503.83 68.6933 1505.19 70.1067 1506.95 71.12C1508.71 72.08 1510.74 72.56 1513.03 72.56C1515 72.56 1516.82 72.2133 1518.47 71.52C1520.18 70.8267 1521.62 69.8133 1522.79 68.48L1528.39 74.16C1526.52 76.3467 1524.26 78 1521.59 79.12C1518.92 80.24 1516.1 80.8 1513.11 80.8ZM1555.69 80.8C1551.9 80.8 1548.46 79.92 1545.37 78.16C1542.33 76.4 1539.93 74 1538.17 70.96C1536.41 67.92 1535.53 64.5333 1535.53 60.8C1535.53 57.0133 1536.41 53.6267 1538.17 50.64C1539.93 47.6 1542.33 45.2 1545.37 43.44C1548.46 41.68 1551.9 40.8 1555.69 40.8C1558.67 40.8 1561.45 41.3867 1564.01 42.56C1566.62 43.68 1568.83 45.3067 1570.65 47.44L1564.89 53.28C1563.77 51.9467 1562.41 50.96 1560.81 50.32C1559.26 49.6267 1557.55 49.28 1555.69 49.28C1553.5 49.28 1551.55 49.7867 1549.85 50.8C1548.19 51.76 1546.89 53.0933 1545.93 54.8C1545.02 56.5067 1544.57 58.5067 1544.57 60.8C1544.57 63.04 1545.02 65.04 1545.93 66.8C1546.89 68.5067 1548.19 69.8667 1549.85 70.88C1551.55 71.84 1553.5 72.32 1555.69 72.32C1557.55 72.32 1559.26 72 1560.81 71.36C1562.41 70.6667 1563.77 69.6533 1564.89 68.32L1570.65 74.16C1568.83 76.2933 1566.62 77.9467 1564.01 79.12C1561.45 80.24 1558.67 80.8 1555.69 80.8ZM1593.81 80.8C1590.07 80.8 1586.69 79.92 1583.65 78.16C1580.61 76.3467 1578.18 73.92 1576.37 70.88C1574.61 67.84 1573.73 64.4533 1573.73 60.72C1573.73 56.9867 1574.61 53.6267 1576.37 50.64C1578.18 47.6533 1580.61 45.28 1583.65 43.52C1586.69 41.7067 1590.07 40.8 1593.81 40.8C1597.59 40.8 1601.01 41.68 1604.05 43.44C1607.09 45.2 1609.49 47.6 1611.25 50.64C1613.06 53.6267 1613.97 56.9867 1613.97 60.72C1613.97 64.4533 1613.06 67.84 1611.25 70.88C1609.49 73.92 1607.09 76.3467 1604.05 78.16C1601.01 79.92 1597.59 80.8 1593.81 80.8ZM1593.81 72.32C1595.99 72.32 1597.91 71.84 1599.57 70.88C1601.27 69.8667 1602.58 68.48 1603.49 66.72C1604.45 64.96 1604.93 62.96 1604.93 60.72C1604.93 58.48 1604.45 56.5067 1603.49 54.8C1602.53 53.0933 1601.22 51.76 1599.57 50.8C1597.91 49.7867 1595.99 49.28 1593.81 49.28C1591.67 49.28 1589.75 49.7867 1588.05 50.8C1586.39 51.76 1585.09 53.0933 1584.13 54.8C1583.22 56.5067 1582.77 58.48 1582.77 60.72C1582.77 62.96 1583.22 64.96 1584.13 66.72C1585.09 68.48 1586.39 69.8667 1588.05 70.88C1589.75 71.84 1591.67 72.32 1593.81 72.32ZM1647.61 80V57.84C1647.61 55.28 1646.78 53.1733 1645.13 51.52C1643.53 49.8667 1641.45 49.04 1638.89 49.04C1637.18 49.04 1635.66 49.4133 1634.33 50.16C1632.99 50.9067 1631.95 51.9467 1631.21 53.28C1630.46 54.6133 1630.09 56.1333 1630.09 57.84L1626.65 55.92C1626.65 52.9867 1627.29 50.4 1628.57 48.16C1629.85 45.8667 1631.61 44.08 1633.85 42.8C1636.14 41.4667 1638.7 40.8 1641.53 40.8C1644.41 40.8 1646.97 41.5467 1649.21 43.04C1651.45 44.48 1653.21 46.3733 1654.49 48.72C1655.77 51.0133 1656.41 53.4133 1656.41 55.92V80H1647.61ZM1621.29 80V41.6H1630.09V80H1621.29ZM1682.95 80.8C1679.22 80.8 1675.83 79.92 1672.79 78.16C1669.75 76.3467 1667.32 73.92 1665.51 70.88C1663.75 67.84 1662.87 64.4533 1662.87 60.72C1662.87 56.9867 1663.75 53.6267 1665.51 50.64C1667.32 47.6533 1669.75 45.28 1672.79 43.52C1675.83 41.7067 1679.22 40.8 1682.95 40.8C1686.74 40.8 1690.15 41.68 1693.19 43.44C1696.23 45.2 1698.63 47.6 1700.39 50.64C1702.2 53.6267 1703.11 56.9867 1703.11 60.72C1703.11 64.4533 1702.2 67.84 1700.39 70.88C1698.63 73.92 1696.23 76.3467 1693.19 78.16C1690.15 79.92 1686.74 80.8 1682.95 80.8ZM1682.95 72.32C1685.14 72.32 1687.06 71.84 1688.71 70.88C1690.42 69.8667 1691.72 68.48 1692.63 66.72C1693.59 64.96 1694.07 62.96 1694.07 60.72C1694.07 58.48 1693.59 56.5067 1692.63 54.8C1691.67 53.0933 1690.36 51.76 1688.71 50.8C1687.06 49.7867 1685.14 49.28 1682.95 49.28C1680.82 49.28 1678.9 49.7867 1677.19 50.8C1675.54 51.76 1674.23 53.0933 1673.27 54.8C1672.36 56.5067 1671.91 58.48 1671.91 60.72C1671.91 62.96 1672.36 64.96 1673.27 66.72C1674.23 68.48 1675.54 69.8667 1677.19 70.88C1678.9 71.84 1680.82 72.32 1682.95 72.32ZM1672.79 36.24L1668.79 32.24L1679.67 19.84H1686.31L1697.19 32.24L1693.19 36.24L1680.07 25.6L1685.99 25.68L1672.79 36.24ZM1710.43 80V41.6H1719.23V80H1710.43ZM1735.95 80V57.12C1735.95 54.56 1735.15 52.5867 1733.55 51.2C1731.95 49.76 1729.97 49.04 1727.63 49.04C1726.03 49.04 1724.59 49.36 1723.31 50C1722.08 50.64 1721.09 51.5733 1720.35 52.8C1719.6 53.9733 1719.23 55.4133 1719.23 57.12L1715.79 55.2C1715.79 52.2667 1716.43 49.7333 1717.71 47.6C1718.99 45.4667 1720.72 43.8133 1722.91 42.64C1725.09 41.4133 1727.55 40.8 1730.27 40.8C1732.99 40.8 1735.44 41.3867 1737.63 42.56C1739.81 43.7333 1741.55 45.3867 1742.83 47.52C1744.11 49.6533 1744.75 52.2133 1744.75 55.2V80H1735.95ZM1761.47 80V57.12C1761.47 54.56 1760.67 52.5867 1759.07 51.2C1757.47 49.76 1755.49 49.04 1753.15 49.04C1751.6 49.04 1750.19 49.36 1748.91 50C1747.63 50.64 1746.61 51.5733 1745.87 52.8C1745.12 53.9733 1744.75 55.4133 1744.75 57.12L1739.79 55.2C1740.05 52.2667 1740.91 49.7333 1742.35 47.6C1743.79 45.4667 1745.63 43.8133 1747.87 42.64C1750.16 41.4133 1752.67 40.8 1755.39 40.8C1758.16 40.8 1760.67 41.3867 1762.91 42.56C1765.15 43.7333 1766.93 45.3867 1768.27 47.52C1769.6 49.6533 1770.27 52.2133 1770.27 55.2V80H1761.47ZM1779.41 80V41.6H1788.21V80H1779.41ZM1783.81 34.56C1782.32 34.56 1781.07 34.0533 1780.05 33.04C1779.09 32.0267 1778.61 30.7733 1778.61 29.28C1778.61 27.7867 1779.09 26.5333 1780.05 25.52C1781.07 24.5067 1782.32 24 1783.81 24C1785.36 24 1786.61 24.5067 1787.57 25.52C1788.53 26.5333 1789.01 27.7867 1789.01 29.28C1789.01 30.7733 1788.53 32.0267 1787.57 33.04C1786.61 34.0533 1785.36 34.56 1783.81 34.56ZM1815.76 80.8C1811.98 80.8 1808.54 79.92 1805.44 78.16C1802.4 76.4 1800 74 1798.24 70.96C1796.48 67.92 1795.6 64.5333 1795.6 60.8C1795.6 57.0133 1796.48 53.6267 1798.24 50.64C1800 47.6 1802.4 45.2 1805.44 43.44C1808.54 41.68 1811.98 40.8 1815.76 40.8C1818.75 40.8 1821.52 41.3867 1824.08 42.56C1826.7 43.68 1828.91 45.3067 1830.72 47.44L1824.96 53.28C1823.84 51.9467 1822.48 50.96 1820.88 50.32C1819.34 49.6267 1817.63 49.28 1815.76 49.28C1813.58 49.28 1811.63 49.7867 1809.92 50.8C1808.27 51.76 1806.96 53.0933 1806 54.8C1805.1 56.5067 1804.64 58.5067 1804.64 60.8C1804.64 63.04 1805.1 65.04 1806 66.8C1806.96 68.5067 1808.27 69.8667 1809.92 70.88C1811.63 71.84 1813.58 72.32 1815.76 72.32C1817.63 72.32 1819.34 72 1820.88 71.36C1822.48 70.6667 1823.84 69.6533 1824.96 68.32L1830.72 74.16C1828.91 76.2933 1826.7 77.9467 1824.08 79.12C1821.52 80.24 1818.75 80.8 1815.76 80.8ZM1853.89 80.8C1850.15 80.8 1846.77 79.92 1843.73 78.16C1840.69 76.3467 1838.26 73.92 1836.45 70.88C1834.69 67.84 1833.81 64.4533 1833.81 60.72C1833.81 56.9867 1834.69 53.6267 1836.45 50.64C1838.26 47.6533 1840.69 45.28 1843.73 43.52C1846.77 41.7067 1850.15 40.8 1853.89 40.8C1857.67 40.8 1861.09 41.68 1864.13 43.44C1867.17 45.2 1869.57 47.6 1871.33 50.64C1873.14 53.6267 1874.05 56.9867 1874.05 60.72C1874.05 64.4533 1873.14 67.84 1871.33 70.88C1869.57 73.92 1867.17 76.3467 1864.13 78.16C1861.09 79.92 1857.67 80.8 1853.89 80.8ZM1853.89 72.32C1856.07 72.32 1857.99 71.84 1859.65 70.88C1861.35 69.8667 1862.66 68.48 1863.57 66.72C1864.53 64.96 1865.01 62.96 1865.01 60.72C1865.01 58.48 1864.53 56.5067 1863.57 54.8C1862.61 53.0933 1861.3 51.76 1859.65 50.8C1857.99 49.7867 1856.07 49.28 1853.89 49.28C1851.75 49.28 1849.83 49.7867 1848.13 50.8C1846.47 51.76 1845.17 53.0933 1844.21 54.8C1843.3 56.5067 1842.85 58.48 1842.85 60.72C1842.85 62.96 1843.3 64.96 1844.21 66.72C1845.17 68.48 1846.47 69.8667 1848.13 70.88C1849.83 71.84 1851.75 72.32 1853.89 72.32ZM1893.92 80.8C1891.79 80.8 1889.74 80.5333 1887.76 80C1885.79 79.4133 1883.98 78.6133 1882.32 77.6C1880.67 76.5333 1879.23 75.2533 1878 73.76L1883.6 68.16C1884.94 69.7067 1886.46 70.88 1888.16 71.68C1889.92 72.4267 1891.9 72.8 1894.08 72.8C1896.06 72.8 1897.55 72.5067 1898.56 71.92C1899.58 71.3333 1900.08 70.48 1900.08 69.36C1900.08 68.1867 1899.6 67.28 1898.64 66.64C1897.68 66 1896.43 65.4667 1894.88 65.04C1893.39 64.56 1891.79 64.08 1890.08 63.6C1888.43 63.12 1886.83 62.48 1885.28 61.68C1883.79 60.8267 1882.56 59.68 1881.6 58.24C1880.64 56.8 1880.16 54.9333 1880.16 52.64C1880.16 50.1867 1880.72 48.08 1881.84 46.32C1883.02 44.56 1884.64 43.2 1886.72 42.24C1888.86 41.28 1891.39 40.8 1894.32 40.8C1897.42 40.8 1900.14 41.36 1902.48 42.48C1904.88 43.5467 1906.88 45.1733 1908.48 47.36L1902.88 52.96C1901.76 51.5733 1900.48 50.5333 1899.04 49.84C1897.6 49.1467 1895.95 48.8 1894.08 48.8C1892.32 48.8 1890.96 49.0667 1890 49.6C1889.04 50.1333 1888.56 50.9067 1888.56 51.92C1888.56 52.9867 1889.04 53.8133 1890 54.4C1890.96 54.9867 1892.19 55.4933 1893.68 55.92C1895.23 56.3467 1896.83 56.8267 1898.48 57.36C1900.19 57.84 1901.79 58.5333 1903.28 59.44C1904.83 60.2933 1906.08 61.4667 1907.04 62.96C1908 64.4 1908.48 66.2933 1908.48 68.64C1908.48 72.3733 1907.18 75.3333 1904.56 77.52C1901.95 79.7067 1898.4 80.8 1893.92 80.8Z" fill="#8A1A3B"/>
</svg>
