<svg width="1820" height="131" viewBox="0 0 1820 131" fill="none" xmlns="http://www.w3.org/2000/svg">
<path d="M31.92 80.8C27.92 80.8 24.1867 80.0533 20.72 78.56C17.2533 77.0667 14.2133 75.0133 11.6 72.4C8.98667 69.7333 6.93333 66.6667 5.44 63.2C4 59.68 3.28 55.92 3.28 51.92C3.28 47.92 4 44.1867 5.44 40.72C6.93333 37.2533 8.96 34.2133 11.52 31.6C14.1333 28.9333 17.1467 26.88 20.56 25.44C24.0267 23.9467 27.76 23.2 31.76 23.2C35.76 23.2 39.4667 23.9467 42.88 25.44C46.3467 26.88 49.3867 28.9333 52 31.6C54.6133 34.2133 56.64 37.28 58.08 40.8C59.5733 44.2667 60.32 48 60.32 52C60.32 56 59.5733 59.76 58.08 63.28C56.64 66.7467 54.6133 69.7867 52 72.4C49.44 75.0133 46.4267 77.0667 42.96 78.56C39.5467 80.0533 35.8667 80.8 31.92 80.8ZM57.52 83.84L32.32 58.64L38.24 52.72L63.44 77.92L57.52 83.84ZM31.76 72C35.5467 72 38.8533 71.1467 41.68 69.44C44.56 67.7333 46.8 65.3867 48.4 62.4C50.0533 59.36 50.88 55.8667 50.88 51.92C50.88 48.9867 50.4 46.32 49.44 43.92C48.5333 41.4667 47.2267 39.36 45.52 37.6C43.8133 35.7867 41.7867 34.4 39.44 33.44C37.1467 32.48 34.5867 32 31.76 32C28.0267 32 24.72 32.8533 21.84 34.56C19.0133 36.2133 16.7733 38.5333 15.12 41.52C13.52 44.5067 12.72 47.9733 12.72 51.92C12.72 54.8533 13.1733 57.5733 14.08 60.08C15.04 62.5333 16.3467 64.64 18 66.4C19.7067 68.16 21.7333 69.5467 24.08 70.56C26.4267 71.52 28.9867 72 31.76 72ZM86.265 80.8C83.0117 80.8 80.105 80.08 77.545 78.64C75.0383 77.2 73.065 75.2267 71.625 72.72C70.2383 70.16 69.545 67.2267 69.545 63.92V41.6H78.345V63.52C78.345 65.3867 78.6383 66.9867 79.225 68.32C79.865 69.6 80.7717 70.5867 81.945 71.28C83.1717 71.9733 84.6117 72.32 86.265 72.32C88.825 72.32 90.7717 71.5733 92.105 70.08C93.4917 68.5333 94.185 66.3467 94.185 63.52V41.6H102.985V63.92C102.985 67.28 102.265 70.24 100.825 72.8C99.4383 75.3067 97.4917 77.28 94.985 78.72C92.4783 80.1067 89.5717 80.8 86.265 80.8ZM127.913 80.8C124.446 80.8 121.3 79.92 118.473 78.16C115.7 76.4 113.486 74.0267 111.833 71.04C110.233 68 109.433 64.6133 109.433 60.88C109.433 57.0933 110.233 53.7067 111.833 50.72C113.486 47.68 115.7 45.28 118.473 43.52C121.3 41.7067 124.446 40.8 127.913 40.8C130.846 40.8 133.433 41.44 135.673 42.72C137.966 43.9467 139.78 45.6533 141.113 47.84C142.446 50.0267 143.113 52.5067 143.113 55.28V66.32C143.113 69.0933 142.446 71.5733 141.113 73.76C139.833 75.9467 138.046 77.68 135.753 78.96C133.46 80.1867 130.846 80.8 127.913 80.8ZM129.353 72.48C132.606 72.48 135.22 71.3867 137.193 69.2C139.22 67.0133 140.233 64.2133 140.233 60.8C140.233 58.5067 139.78 56.48 138.873 54.72C137.966 52.96 136.686 51.6 135.033 50.64C133.433 49.6267 131.54 49.12 129.353 49.12C127.22 49.12 125.326 49.6267 123.673 50.64C122.073 51.6 120.793 52.96 119.833 54.72C118.926 56.48 118.473 58.5067 118.473 60.8C118.473 63.0933 118.926 65.12 119.833 66.88C120.793 68.64 122.073 70.0267 123.673 71.04C125.326 72 127.22 72.48 129.353 72.48ZM139.673 80V69.68L141.193 60.32L139.673 51.04V41.6H148.473V80H139.673ZM184.559 80V57.84C184.559 55.28 183.733 53.1733 182.079 51.52C180.479 49.8667 178.399 49.04 175.839 49.04C174.133 49.04 172.613 49.4133 171.279 50.16C169.946 50.9067 168.906 51.9467 168.159 53.28C167.413 54.6133 167.039 56.1333 167.039 57.84L163.599 55.92C163.599 52.9867 164.239 50.4 165.519 48.16C166.799 45.8667 168.559 44.08 170.799 42.8C173.093 41.4667 175.653 40.8 178.479 40.8C181.359 40.8 183.919 41.5467 186.159 43.04C188.399 44.48 190.159 46.3733 191.439 48.72C192.719 51.0133 193.359 53.4133 193.359 55.92V80H184.559ZM158.239 80V41.6H167.039V80H158.239ZM207.673 80V25.6H216.473V80H207.673ZM198.473 49.6V41.6H225.673V49.6H198.473ZM232.148 80V41.6H240.948V80H232.148ZM236.548 34.56C235.054 34.56 233.801 34.0533 232.788 33.04C231.828 32.0267 231.348 30.7733 231.348 29.28C231.348 27.7867 231.828 26.5333 232.788 25.52C233.801 24.5067 235.054 24 236.548 24C238.094 24 239.348 24.5067 240.308 25.52C241.268 26.5333 241.748 27.7867 241.748 29.28C241.748 30.7733 241.268 32.0267 240.308 33.04C239.348 34.0533 238.094 34.56 236.548 34.56ZM266.898 80.8C263.431 80.8 260.284 79.92 257.458 78.16C254.684 76.4 252.471 74.0267 250.818 71.04C249.218 68 248.418 64.6133 248.418 60.88C248.418 57.0933 249.218 53.7067 250.818 50.72C252.471 47.68 254.684 45.28 257.458 43.52C260.284 41.7067 263.431 40.8 266.898 40.8C269.831 40.8 272.418 41.44 274.658 42.72C276.951 43.9467 278.764 45.6533 280.098 47.84C281.431 50.0267 282.098 52.5067 282.098 55.28V66.32C282.098 69.0933 281.431 71.5733 280.098 73.76C278.818 75.9467 277.031 77.68 274.738 78.96C272.444 80.1867 269.831 80.8 266.898 80.8ZM268.338 72.48C270.524 72.48 272.418 72 274.018 71.04C275.671 70.0267 276.951 68.64 277.858 66.88C278.764 65.12 279.218 63.0933 279.218 60.8C279.218 58.5067 278.764 56.48 277.858 54.72C276.951 52.96 275.671 51.6 274.018 50.64C272.418 49.6267 270.524 49.12 268.338 49.12C266.204 49.12 264.311 49.6267 262.658 50.64C261.058 51.6 259.778 52.96 258.818 54.72C257.911 56.48 257.458 58.5067 257.458 60.8C257.458 63.0933 257.911 65.12 258.818 66.88C259.778 68.64 261.058 70.0267 262.658 71.04C264.311 72 266.204 72.48 268.338 72.48ZM287.458 80H278.658V69.68L280.178 60.32L278.658 51.04V22.4H287.458V80ZM313.304 80.8C309.837 80.8 306.69 79.92 303.864 78.16C301.09 76.4 298.877 74.0267 297.224 71.04C295.624 68 294.824 64.6133 294.824 60.88C294.824 57.0933 295.624 53.7067 297.224 50.72C298.877 47.68 301.09 45.28 303.864 43.52C306.69 41.7067 309.837 40.8 313.304 40.8C316.237 40.8 318.824 41.44 321.064 42.72C323.357 43.9467 325.17 45.6533 326.504 47.84C327.837 50.0267 328.504 52.5067 328.504 55.28V66.32C328.504 69.0933 327.837 71.5733 326.504 73.76C325.224 75.9467 323.437 77.68 321.144 78.96C318.85 80.1867 316.237 80.8 313.304 80.8ZM314.744 72.48C317.997 72.48 320.61 71.3867 322.584 69.2C324.61 67.0133 325.624 64.2133 325.624 60.8C325.624 58.5067 325.17 56.48 324.264 54.72C323.357 52.96 322.077 51.6 320.424 50.64C318.824 49.6267 316.93 49.12 314.744 49.12C312.61 49.12 310.717 49.6267 309.064 50.64C307.464 51.6 306.184 52.96 305.224 54.72C304.317 56.48 303.864 58.5067 303.864 60.8C303.864 63.0933 304.317 65.12 305.224 66.88C306.184 68.64 307.464 70.0267 309.064 71.04C310.717 72 312.61 72.48 314.744 72.48ZM325.064 80V69.68L326.584 60.32L325.064 51.04V41.6H333.864V80H325.064ZM359.71 80.8C356.243 80.8 353.097 79.92 350.27 78.16C347.497 76.4 345.283 74.0267 343.63 71.04C342.03 68 341.23 64.6133 341.23 60.88C341.23 57.0933 342.03 53.7067 343.63 50.72C345.283 47.68 347.497 45.28 350.27 43.52C353.097 41.7067 356.243 40.8 359.71 40.8C362.643 40.8 365.23 41.44 367.47 42.72C369.763 43.9467 371.577 45.6533 372.91 47.84C374.243 50.0267 374.91 52.5067 374.91 55.28V66.32C374.91 69.0933 374.243 71.5733 372.91 73.76C371.63 75.9467 369.843 77.68 367.55 78.96C365.257 80.1867 362.643 80.8 359.71 80.8ZM361.15 72.48C363.337 72.48 365.23 72 366.83 71.04C368.483 70.0267 369.763 68.64 370.67 66.88C371.577 65.12 372.03 63.0933 372.03 60.8C372.03 58.5067 371.577 56.48 370.67 54.72C369.763 52.96 368.483 51.6 366.83 50.64C365.23 49.6267 363.337 49.12 361.15 49.12C359.017 49.12 357.123 49.6267 355.47 50.64C353.87 51.6 352.59 52.96 351.63 54.72C350.723 56.48 350.27 58.5067 350.27 60.8C350.27 63.0933 350.723 65.12 351.63 66.88C352.59 68.64 353.87 70.0267 355.47 71.04C357.123 72 359.017 72.48 361.15 72.48ZM380.27 80H371.47V69.68L372.99 60.32L371.47 51.04V22.4H380.27V80ZM407.876 80.8C404.036 80.8 400.57 79.9467 397.476 78.24C394.436 76.48 392.01 74.08 390.196 71.04C388.436 68 387.556 64.5867 387.556 60.8C387.556 57.0133 388.436 53.6267 390.196 50.64C391.956 47.6 394.33 45.2 397.316 43.44C400.356 41.68 403.716 40.8 407.396 40.8C410.97 40.8 414.116 41.6267 416.836 43.28C419.61 44.9333 421.77 47.2 423.316 50.08C424.916 52.96 425.716 56.24 425.716 59.92C425.716 60.56 425.663 61.2267 425.556 61.92C425.503 62.56 425.396 63.28 425.236 64.08H393.716V56.88H420.676L417.396 59.76C417.29 57.4133 416.836 55.44 416.036 53.84C415.236 52.24 414.09 51.0133 412.596 50.16C411.156 49.3067 409.37 48.88 407.236 48.88C404.996 48.88 403.05 49.36 401.396 50.32C399.743 51.28 398.463 52.64 397.556 54.4C396.65 56.1067 396.196 58.16 396.196 60.56C396.196 62.96 396.676 65.0667 397.636 66.88C398.596 68.6933 399.956 70.1067 401.716 71.12C403.476 72.08 405.503 72.56 407.796 72.56C409.77 72.56 411.583 72.2133 413.236 71.52C414.943 70.8267 416.383 69.8133 417.556 68.48L423.156 74.16C421.29 76.3467 419.023 78 416.356 79.12C413.69 80.24 410.863 80.8 407.876 80.8ZM464.866 80.8C461.4 80.8 458.253 79.92 455.426 78.16C452.653 76.4 450.44 74.0267 448.786 71.04C447.186 68 446.386 64.6133 446.386 60.88C446.386 57.0933 447.186 53.7067 448.786 50.72C450.44 47.68 452.653 45.28 455.426 43.52C458.253 41.7067 461.4 40.8 464.866 40.8C467.8 40.8 470.386 41.44 472.626 42.72C474.92 43.9467 476.733 45.6533 478.066 47.84C479.4 50.0267 480.066 52.5067 480.066 55.28V66.32C480.066 69.0933 479.4 71.5733 478.066 73.76C476.786 75.9467 475 77.68 472.706 78.96C470.413 80.1867 467.8 80.8 464.866 80.8ZM466.306 72.48C468.493 72.48 470.386 72 471.986 71.04C473.64 70.0267 474.92 68.64 475.826 66.88C476.733 65.12 477.186 63.0933 477.186 60.8C477.186 58.5067 476.733 56.48 475.826 54.72C474.92 52.96 473.64 51.6 471.986 50.64C470.386 49.6267 468.493 49.12 466.306 49.12C464.173 49.12 462.28 49.6267 460.626 50.64C459.026 51.6 457.746 52.96 456.786 54.72C455.88 56.48 455.426 58.5067 455.426 60.8C455.426 63.0933 455.88 65.12 456.786 66.88C457.746 68.64 459.026 70.0267 460.626 71.04C462.28 72 464.173 72.48 466.306 72.48ZM485.426 80H476.626V69.68L478.146 60.32L476.626 51.04V22.4H485.426V80ZM513.033 80.8C509.193 80.8 505.726 79.9467 502.633 78.24C499.593 76.48 497.166 74.08 495.353 71.04C493.593 68 492.713 64.5867 492.713 60.8C492.713 57.0133 493.593 53.6267 495.353 50.64C497.113 47.6 499.486 45.2 502.473 43.44C505.513 41.68 508.873 40.8 512.553 40.8C516.126 40.8 519.273 41.6267 521.993 43.28C524.766 44.9333 526.926 47.2 528.473 50.08C530.073 52.96 530.873 56.24 530.873 59.92C530.873 60.56 530.819 61.2267 530.712 61.92C530.659 62.56 530.553 63.28 530.393 64.08H498.873V56.88H525.833L522.553 59.76C522.446 57.4133 521.993 55.44 521.193 53.84C520.393 52.24 519.246 51.0133 517.753 50.16C516.313 49.3067 514.526 48.88 512.393 48.88C510.153 48.88 508.206 49.36 506.553 50.32C504.899 51.28 503.619 52.64 502.713 54.4C501.806 56.1067 501.353 58.16 501.353 60.56C501.353 62.96 501.833 65.0667 502.793 66.88C503.753 68.6933 505.113 70.1067 506.873 71.12C508.633 72.08 510.659 72.56 512.953 72.56C514.926 72.56 516.739 72.2133 518.393 71.52C520.099 70.8267 521.539 69.8133 522.713 68.48L528.313 74.16C526.446 76.3467 524.179 78 521.513 79.12C518.846 80.24 516.019 80.8 513.033 80.8ZM555.143 80V24H564.343V80H555.143ZM561.463 80V71.6H592.823V80H561.463ZM561.463 55.44V47.36H590.103V55.44H561.463ZM561.463 32.4V24H592.423V32.4H561.463ZM601.13 80V41.6H609.93V80H601.13ZM626.65 80V57.12C626.65 54.56 625.85 52.5867 624.25 51.2C622.65 49.76 620.677 49.04 618.33 49.04C616.73 49.04 615.29 49.36 614.01 50C612.783 50.64 611.797 51.5733 611.05 52.8C610.303 53.9733 609.93 55.4133 609.93 57.12L606.49 55.2C606.49 52.2667 607.13 49.7333 608.41 47.6C609.69 45.4667 611.423 43.8133 613.61 42.64C615.797 41.4133 618.25 40.8 620.97 40.8C623.69 40.8 626.143 41.3867 628.33 42.56C630.517 43.7333 632.25 45.3867 633.53 47.52C634.81 49.6533 635.45 52.2133 635.45 55.2V80H626.65ZM652.17 80V57.12C652.17 54.56 651.37 52.5867 649.77 51.2C648.17 49.76 646.197 49.04 643.85 49.04C642.303 49.04 640.89 49.36 639.61 50C638.33 50.64 637.317 51.5733 636.57 52.8C635.823 53.9733 635.45 55.4133 635.45 57.12L630.49 55.2C630.757 52.2667 631.61 49.7333 633.05 47.6C634.49 45.4667 636.33 43.8133 638.57 42.64C640.863 41.4133 643.37 40.8 646.09 40.8C648.863 40.8 651.37 41.3867 653.61 42.56C655.85 43.7333 657.637 45.3867 658.97 47.52C660.303 49.6533 660.97 52.2133 660.97 55.2V80H652.17ZM690.596 80.8C687.663 80.8 685.05 80.1867 682.756 78.96C680.463 77.68 678.65 75.9467 677.316 73.76C676.036 71.5733 675.396 69.0933 675.396 66.32V55.28C675.396 52.5067 676.063 50.0267 677.396 47.84C678.73 45.6533 680.543 43.9467 682.836 42.72C685.13 41.44 687.716 40.8 690.596 40.8C694.063 40.8 697.183 41.7067 699.956 43.52C702.783 45.28 704.996 47.68 706.596 50.72C708.25 53.7067 709.076 57.0933 709.076 60.88C709.076 64.6133 708.25 68 706.596 71.04C704.996 74.0267 702.783 76.4 699.956 78.16C697.183 79.92 694.063 80.8 690.596 80.8ZM670.036 96V41.6H678.836V51.92L677.316 61.28L678.836 70.56V96H670.036ZM689.156 72.48C691.29 72.48 693.156 72 694.756 71.04C696.41 70.0267 697.69 68.64 698.596 66.88C699.556 65.12 700.036 63.0933 700.036 60.8C700.036 58.5067 699.556 56.48 698.596 54.72C697.69 52.96 696.41 51.6 694.756 50.64C693.156 49.6267 691.29 49.12 689.156 49.12C687.023 49.12 685.13 49.6267 683.476 50.64C681.823 51.6 680.543 52.96 679.636 54.72C678.73 56.48 678.276 58.5067 678.276 60.8C678.276 63.0933 678.73 65.12 679.636 66.88C680.543 68.64 681.823 70.0267 683.476 71.04C685.13 72 687.023 72.48 689.156 72.48ZM716.443 80V41.6H725.243V80H716.443ZM725.243 58.64L722.203 57.12C722.203 52.2667 723.269 48.3467 725.403 45.36C727.589 42.32 730.869 40.8 735.243 40.8C737.163 40.8 738.896 41.1467 740.443 41.84C741.989 42.5333 743.429 43.6533 744.763 45.2L739.003 51.12C738.309 50.3733 737.536 49.84 736.683 49.52C735.829 49.2 734.843 49.04 733.723 49.04C731.269 49.04 729.243 49.8133 727.643 51.36C726.043 52.9067 725.243 55.3333 725.243 58.64ZM765.689 80.8C761.849 80.8 758.382 79.9467 755.289 78.24C752.249 76.48 749.822 74.08 748.009 71.04C746.249 68 745.369 64.5867 745.369 60.8C745.369 57.0133 746.249 53.6267 748.009 50.64C749.769 47.6 752.142 45.2 755.129 43.44C758.169 41.68 761.529 40.8 765.209 40.8C768.782 40.8 771.929 41.6267 774.649 43.28C777.422 44.9333 779.582 47.2 781.129 50.08C782.729 52.96 783.529 56.24 783.529 59.92C783.529 60.56 783.475 61.2267 783.369 61.92C783.315 62.56 783.209 63.28 783.049 64.08H751.529V56.88H778.489L775.209 59.76C775.102 57.4133 774.649 55.44 773.849 53.84C773.049 52.24 771.902 51.0133 770.409 50.16C768.969 49.3067 767.182 48.88 765.049 48.88C762.809 48.88 760.862 49.36 759.209 50.32C757.555 51.28 756.275 52.64 755.369 54.4C754.462 56.1067 754.009 58.16 754.009 60.56C754.009 62.96 754.489 65.0667 755.449 66.88C756.409 68.6933 757.769 70.1067 759.529 71.12C761.289 72.08 763.315 72.56 765.609 72.56C767.582 72.56 769.395 72.2133 771.049 71.52C772.755 70.8267 774.195 69.8133 775.369 68.48L780.969 74.16C779.102 76.3467 776.835 78 774.169 79.12C771.502 80.24 768.675 80.8 765.689 80.8ZM806.583 96.8C802.53 96.8 798.983 96.0533 795.943 94.56C792.903 93.12 790.45 91.0667 788.583 88.4L794.343 82.64C795.89 84.56 797.65 86 799.623 86.96C801.596 87.92 803.97 88.4 806.743 88.4C810.21 88.4 812.956 87.4933 814.983 85.68C817.01 83.92 818.023 81.4933 818.023 78.4V68.96L819.543 60.48L818.023 51.92V41.6H826.823V78.4C826.823 82.08 825.97 85.28 824.263 88C822.556 90.7733 820.183 92.9333 817.143 94.48C814.103 96.0267 810.583 96.8 806.583 96.8ZM806.183 79.2C802.77 79.2 799.676 78.3733 796.903 76.72C794.183 75.0133 792.023 72.6933 790.423 69.76C788.876 66.8267 788.103 63.5467 788.103 59.92C788.103 56.2933 788.876 53.04 790.423 50.16C792.023 47.28 794.183 45.0133 796.903 43.36C799.676 41.6533 802.77 40.8 806.183 40.8C809.223 40.8 811.89 41.4133 814.183 42.64C816.476 43.8667 818.263 45.5733 819.543 47.76C820.823 49.8933 821.463 52.4 821.463 55.28V64.72C821.463 67.5467 820.796 70.0533 819.463 72.24C818.183 74.4267 816.396 76.1333 814.103 77.36C811.81 78.5867 809.17 79.2 806.183 79.2ZM807.943 70.88C810.076 70.88 811.943 70.4267 813.543 69.52C815.143 68.6133 816.37 67.36 817.223 65.76C818.13 64.1067 818.583 62.1867 818.583 60C818.583 57.8133 818.13 55.92 817.223 54.32C816.37 52.6667 815.143 51.3867 813.543 50.48C811.943 49.5733 810.076 49.12 807.943 49.12C805.81 49.12 803.916 49.5733 802.263 50.48C800.663 51.3867 799.41 52.6667 798.503 54.32C797.596 55.92 797.143 57.8133 797.143 60C797.143 62.1333 797.596 64.0267 798.503 65.68C799.41 67.3333 800.663 68.6133 802.263 69.52C803.916 70.4267 805.81 70.88 807.943 70.88ZM854.199 80.8C850.465 80.8 847.079 79.92 844.039 78.16C840.999 76.3467 838.572 73.92 836.759 70.88C834.999 67.84 834.119 64.4533 834.119 60.72C834.119 56.9867 834.999 53.6267 836.759 50.64C838.572 47.6533 840.999 45.28 844.039 43.52C847.079 41.7067 850.465 40.8 854.199 40.8C857.985 40.8 861.399 41.68 864.439 43.44C867.479 45.2 869.879 47.6 871.639 50.64C873.452 53.6267 874.359 56.9867 874.359 60.72C874.359 64.4533 873.452 67.84 871.639 70.88C869.879 73.92 867.479 76.3467 864.439 78.16C861.399 79.92 857.985 80.8 854.199 80.8ZM854.199 72.32C856.385 72.32 858.305 71.84 859.959 70.88C861.665 69.8667 862.972 68.48 863.879 66.72C864.839 64.96 865.319 62.96 865.319 60.72C865.319 58.48 864.839 56.5067 863.879 54.8C862.919 53.0933 861.612 51.76 859.959 50.8C858.305 49.7867 856.385 49.28 854.199 49.28C852.065 49.28 850.145 49.7867 848.439 50.8C846.785 51.76 845.479 53.0933 844.519 54.8C843.612 56.5067 843.159 58.48 843.159 60.72C843.159 62.96 843.612 64.96 844.519 66.72C845.479 68.48 846.785 69.8667 848.439 70.88C850.145 71.84 852.065 72.32 854.199 72.32ZM894.237 80.8C892.104 80.8 890.05 80.5333 888.077 80C886.104 79.4133 884.29 78.6133 882.637 77.6C880.984 76.5333 879.544 75.2533 878.317 73.76L883.917 68.16C885.25 69.7067 886.77 70.88 888.477 71.68C890.237 72.4267 892.21 72.8 894.397 72.8C896.37 72.8 897.864 72.5067 898.877 71.92C899.89 71.3333 900.397 70.48 900.397 69.36C900.397 68.1867 899.917 67.28 898.957 66.64C897.997 66 896.744 65.4667 895.197 65.04C893.704 64.56 892.104 64.08 890.397 63.6C888.744 63.12 887.144 62.48 885.597 61.68C884.104 60.8267 882.877 59.68 881.917 58.24C880.957 56.8 880.477 54.9333 880.477 52.64C880.477 50.1867 881.037 48.08 882.157 46.32C883.33 44.56 884.957 43.2 887.037 42.24C889.17 41.28 891.704 40.8 894.637 40.8C897.73 40.8 900.45 41.36 902.797 42.48C905.197 43.5467 907.197 45.1733 908.797 47.36L903.197 52.96C902.077 51.5733 900.797 50.5333 899.357 49.84C897.917 49.1467 896.264 48.8 894.397 48.8C892.637 48.8 891.277 49.0667 890.317 49.6C889.357 50.1333 888.877 50.9067 888.877 51.92C888.877 52.9867 889.357 53.8133 890.317 54.4C891.277 54.9867 892.504 55.4933 893.997 55.92C895.544 56.3467 897.144 56.8267 898.797 57.36C900.504 57.84 902.104 58.5333 903.597 59.44C905.144 60.2933 906.397 61.4667 907.357 62.96C908.317 64.4 908.797 66.2933 908.797 68.64C908.797 72.3733 907.49 75.3333 904.877 77.52C902.264 79.7067 898.717 80.8 894.237 80.8ZM958.388 80V57.84C958.388 55.28 957.561 53.1733 955.908 51.52C954.308 49.8667 952.228 49.04 949.668 49.04C947.961 49.04 946.441 49.4133 945.108 50.16C943.774 50.9067 942.734 51.9467 941.988 53.28C941.241 54.6133 940.868 56.1333 940.868 57.84L937.428 55.92C937.428 52.9867 938.068 50.4 939.348 48.16C940.628 45.8667 942.388 44.08 944.628 42.8C946.921 41.4667 949.481 40.8 952.308 40.8C955.188 40.8 957.748 41.5467 959.988 43.04C962.228 44.48 963.988 46.3733 965.268 48.72C966.548 51.0133 967.188 53.4133 967.188 55.92V80H958.388ZM932.068 80V41.6H940.868V80H932.068ZM993.73 80.8C989.997 80.8 986.61 79.92 983.57 78.16C980.53 76.3467 978.103 73.92 976.29 70.88C974.53 67.84 973.65 64.4533 973.65 60.72C973.65 56.9867 974.53 53.6267 976.29 50.64C978.103 47.6533 980.53 45.28 983.57 43.52C986.61 41.7067 989.997 40.8 993.73 40.8C997.517 40.8 1000.93 41.68 1003.97 43.44C1007.01 45.2 1009.41 47.6 1011.17 50.64C1012.98 53.6267 1013.89 56.9867 1013.89 60.72C1013.89 64.4533 1012.98 67.84 1011.17 70.88C1009.41 73.92 1007.01 76.3467 1003.97 78.16C1000.93 79.92 997.517 80.8 993.73 80.8ZM993.73 72.32C995.917 72.32 997.837 71.84 999.49 70.88C1001.2 69.8667 1002.5 68.48 1003.41 66.72C1004.37 64.96 1004.85 62.96 1004.85 60.72C1004.85 58.48 1004.37 56.5067 1003.41 54.8C1002.45 53.0933 1001.14 51.76 999.49 50.8C997.837 49.7867 995.917 49.28 993.73 49.28C991.597 49.28 989.677 49.7867 987.97 50.8C986.317 51.76 985.01 53.0933 984.05 54.8C983.143 56.5067 982.69 58.48 982.69 60.72C982.69 62.96 983.143 64.96 984.05 66.72C985.01 68.48 986.317 69.8667 987.97 70.88C989.677 71.84 991.597 72.32 993.73 72.32ZM1038.42 80V24H1044.82L1068.1 62.32H1063.94L1087.22 24H1093.62V80H1084.42V40.16L1086.5 40.72L1069.22 69.12H1062.82L1045.54 40.72L1047.62 40.16V80H1038.42ZM1122.41 80.8C1118.57 80.8 1115.1 79.9467 1112.01 78.24C1108.97 76.48 1106.54 74.08 1104.73 71.04C1102.97 68 1102.09 64.5867 1102.09 60.8C1102.09 57.0133 1102.97 53.6267 1104.73 50.64C1106.49 47.6 1108.86 45.2 1111.85 43.44C1114.89 41.68 1118.25 40.8 1121.93 40.8C1125.5 40.8 1128.65 41.6267 1131.37 43.28C1134.14 44.9333 1136.3 47.2 1137.85 50.08C1139.45 52.96 1140.25 56.24 1140.25 59.92C1140.25 60.56 1140.19 61.2267 1140.09 61.92C1140.03 62.56 1139.93 63.28 1139.77 64.08H1108.25V56.88H1135.21L1131.93 59.76C1131.82 57.4133 1131.37 55.44 1130.57 53.84C1129.77 52.24 1128.62 51.0133 1127.13 50.16C1125.69 49.3067 1123.9 48.88 1121.77 48.88C1119.53 48.88 1117.58 49.36 1115.93 50.32C1114.27 51.28 1112.99 52.64 1112.09 54.4C1111.18 56.1067 1110.73 58.16 1110.73 60.56C1110.73 62.96 1111.21 65.0667 1112.17 66.88C1113.13 68.6933 1114.49 70.1067 1116.25 71.12C1118.01 72.08 1120.03 72.56 1122.33 72.56C1124.3 72.56 1126.11 72.2133 1127.77 71.52C1129.47 70.8267 1130.91 69.8133 1132.09 68.48L1137.69 74.16C1135.82 76.3467 1133.55 78 1130.89 79.12C1128.22 80.24 1125.39 80.8 1122.41 80.8ZM1147.3 80V41.6H1156.1V80H1147.3ZM1156.1 58.64L1153.06 57.12C1153.06 52.2667 1154.13 48.3467 1156.26 45.36C1158.45 42.32 1161.73 40.8 1166.1 40.8C1168.02 40.8 1169.76 41.1467 1171.3 41.84C1172.85 42.5333 1174.29 43.6533 1175.62 45.2L1169.86 51.12C1169.17 50.3733 1168.4 49.84 1167.54 49.52C1166.69 49.2 1165.7 49.04 1164.58 49.04C1162.13 49.04 1160.1 49.8133 1158.5 51.36C1156.9 52.9067 1156.1 55.3333 1156.1 58.64ZM1196.39 80.8C1192.6 80.8 1189.16 79.92 1186.07 78.16C1183.03 76.4 1180.63 74 1178.87 70.96C1177.11 67.92 1176.23 64.5333 1176.23 60.8C1176.23 57.0133 1177.11 53.6267 1178.87 50.64C1180.63 47.6 1183.03 45.2 1186.07 43.44C1189.16 41.68 1192.6 40.8 1196.39 40.8C1199.37 40.8 1202.15 41.3867 1204.71 42.56C1207.32 43.68 1209.53 45.3067 1211.35 47.44L1205.59 53.28C1204.47 51.9467 1203.11 50.96 1201.51 50.32C1199.96 49.6267 1198.25 49.28 1196.39 49.28C1194.2 49.28 1192.25 49.7867 1190.55 50.8C1188.89 51.76 1187.59 53.0933 1186.63 54.8C1185.72 56.5067 1185.27 58.5067 1185.27 60.8C1185.27 63.04 1185.72 65.04 1186.63 66.8C1187.59 68.5067 1188.89 69.8667 1190.55 70.88C1192.25 71.84 1194.2 72.32 1196.39 72.32C1198.25 72.32 1199.96 72 1201.51 71.36C1203.11 70.6667 1204.47 69.6533 1205.59 68.32L1211.35 74.16C1209.53 76.2933 1207.32 77.9467 1204.71 79.12C1202.15 80.24 1199.37 80.8 1196.39 80.8ZM1232.99 80.8C1229.52 80.8 1226.38 79.92 1223.55 78.16C1220.78 76.4 1218.56 74.0267 1216.91 71.04C1215.31 68 1214.51 64.6133 1214.51 60.88C1214.51 57.0933 1215.31 53.7067 1216.91 50.72C1218.56 47.68 1220.78 45.28 1223.55 43.52C1226.38 41.7067 1229.52 40.8 1232.99 40.8C1235.92 40.8 1238.51 41.44 1240.75 42.72C1243.04 43.9467 1244.86 45.6533 1246.19 47.84C1247.52 50.0267 1248.19 52.5067 1248.19 55.28V66.32C1248.19 69.0933 1247.52 71.5733 1246.19 73.76C1244.91 75.9467 1243.12 77.68 1240.83 78.96C1238.54 80.1867 1235.92 80.8 1232.99 80.8ZM1234.43 72.48C1237.68 72.48 1240.3 71.3867 1242.27 69.2C1244.3 67.0133 1245.31 64.2133 1245.31 60.8C1245.31 58.5067 1244.86 56.48 1243.95 54.72C1243.04 52.96 1241.76 51.6 1240.11 50.64C1238.51 49.6267 1236.62 49.12 1234.43 49.12C1232.3 49.12 1230.4 49.6267 1228.75 50.64C1227.15 51.6 1225.87 52.96 1224.91 54.72C1224 56.48 1223.55 58.5067 1223.55 60.8C1223.55 63.0933 1224 65.12 1224.91 66.88C1225.87 68.64 1227.15 70.0267 1228.75 71.04C1230.4 72 1232.3 72.48 1234.43 72.48ZM1244.75 80V69.68L1246.27 60.32L1244.75 51.04V41.6H1253.55V80H1244.75ZM1279.4 80.8C1275.93 80.8 1272.78 79.92 1269.96 78.16C1267.18 76.4 1264.97 74.0267 1263.32 71.04C1261.72 68 1260.92 64.6133 1260.92 60.88C1260.92 57.0933 1261.72 53.7067 1263.32 50.72C1264.97 47.68 1267.18 45.28 1269.96 43.52C1272.78 41.7067 1275.93 40.8 1279.4 40.8C1282.33 40.8 1284.92 41.44 1287.16 42.72C1289.45 43.9467 1291.26 45.6533 1292.6 47.84C1293.93 50.0267 1294.6 52.5067 1294.6 55.28V66.32C1294.6 69.0933 1293.93 71.5733 1292.6 73.76C1291.32 75.9467 1289.53 77.68 1287.24 78.96C1284.94 80.1867 1282.33 80.8 1279.4 80.8ZM1280.84 72.48C1283.02 72.48 1284.92 72 1286.52 71.04C1288.17 70.0267 1289.45 68.64 1290.36 66.88C1291.26 65.12 1291.72 63.0933 1291.72 60.8C1291.72 58.5067 1291.26 56.48 1290.36 54.72C1289.45 52.96 1288.17 51.6 1286.52 50.64C1284.92 49.6267 1283.02 49.12 1280.84 49.12C1278.7 49.12 1276.81 49.6267 1275.16 50.64C1273.56 51.6 1272.28 52.96 1271.32 54.72C1270.41 56.48 1269.96 58.5067 1269.96 60.8C1269.96 63.0933 1270.41 65.12 1271.32 66.88C1272.28 68.64 1273.56 70.0267 1275.16 71.04C1276.81 72 1278.7 72.48 1280.84 72.48ZM1299.96 80H1291.16V69.68L1292.68 60.32L1291.16 51.04V22.4H1299.96V80ZM1327.32 80.8C1323.59 80.8 1320.2 79.92 1317.16 78.16C1314.12 76.3467 1311.7 73.92 1309.88 70.88C1308.12 67.84 1307.24 64.4533 1307.24 60.72C1307.24 56.9867 1308.12 53.6267 1309.88 50.64C1311.7 47.6533 1314.12 45.28 1317.16 43.52C1320.2 41.7067 1323.59 40.8 1327.32 40.8C1331.11 40.8 1334.52 41.68 1337.56 43.44C1340.6 45.2 1343 47.6 1344.76 50.64C1346.58 53.6267 1347.48 56.9867 1347.48 60.72C1347.48 64.4533 1346.58 67.84 1344.76 70.88C1343 73.92 1340.6 76.3467 1337.56 78.16C1334.52 79.92 1331.11 80.8 1327.32 80.8ZM1327.32 72.32C1329.51 72.32 1331.43 71.84 1333.08 70.88C1334.79 69.8667 1336.1 68.48 1337 66.72C1337.96 64.96 1338.44 62.96 1338.44 60.72C1338.44 58.48 1337.96 56.5067 1337 54.8C1336.04 53.0933 1334.74 51.76 1333.08 50.8C1331.43 49.7867 1329.51 49.28 1327.32 49.28C1325.19 49.28 1323.27 49.7867 1321.56 50.8C1319.91 51.76 1318.6 53.0933 1317.64 54.8C1316.74 56.5067 1316.28 58.48 1316.28 60.72C1316.28 62.96 1316.74 64.96 1317.64 66.72C1318.6 68.48 1319.91 69.8667 1321.56 70.88C1323.27 71.84 1325.19 72.32 1327.32 72.32ZM1372.02 80V24H1381.22V80H1372.02ZM1378.34 56V47.6H1406.82V56H1378.34ZM1378.34 32.4V24H1408.18V32.4H1378.34ZM1432.25 80.8C1428.51 80.8 1425.13 79.92 1422.09 78.16C1419.05 76.3467 1416.62 73.92 1414.81 70.88C1413.05 67.84 1412.17 64.4533 1412.17 60.72C1412.17 56.9867 1413.05 53.6267 1414.81 50.64C1416.62 47.6533 1419.05 45.28 1422.09 43.52C1425.13 41.7067 1428.51 40.8 1432.25 40.8C1436.03 40.8 1439.45 41.68 1442.49 43.44C1445.53 45.2 1447.93 47.6 1449.69 50.64C1451.5 53.6267 1452.41 56.9867 1452.41 60.72C1452.41 64.4533 1451.5 67.84 1449.69 70.88C1447.93 73.92 1445.53 76.3467 1442.49 78.16C1439.45 79.92 1436.03 80.8 1432.25 80.8ZM1432.25 72.32C1434.43 72.32 1436.35 71.84 1438.01 70.88C1439.71 69.8667 1441.02 68.48 1441.93 66.72C1442.89 64.96 1443.37 62.96 1443.37 60.72C1443.37 58.48 1442.89 56.5067 1441.93 54.8C1440.97 53.0933 1439.66 51.76 1438.01 50.8C1436.35 49.7867 1434.43 49.28 1432.25 49.28C1430.11 49.28 1428.19 49.7867 1426.49 50.8C1424.83 51.76 1423.53 53.0933 1422.57 54.8C1421.66 56.5067 1421.21 58.48 1421.21 60.72C1421.21 62.96 1421.66 64.96 1422.57 66.72C1423.53 68.48 1424.83 69.8667 1426.49 70.88C1428.19 71.84 1430.11 72.32 1432.25 72.32ZM1459.72 80V41.6H1468.52V80H1459.72ZM1468.52 58.64L1465.48 57.12C1465.48 52.2667 1466.55 48.3467 1468.68 45.36C1470.87 42.32 1474.15 40.8 1478.52 40.8C1480.44 40.8 1482.18 41.1467 1483.72 41.84C1485.27 42.5333 1486.71 43.6533 1488.04 45.2L1482.28 51.12C1481.59 50.3733 1480.82 49.84 1479.96 49.52C1479.11 49.2 1478.12 49.04 1477 49.04C1474.55 49.04 1472.52 49.8133 1470.92 51.36C1469.32 52.9067 1468.52 55.3333 1468.52 58.64ZM1492.3 80V41.6H1501.1V80H1492.3ZM1517.82 80V57.12C1517.82 54.56 1517.02 52.5867 1515.42 51.2C1513.82 49.76 1511.85 49.04 1509.5 49.04C1507.9 49.04 1506.46 49.36 1505.18 50C1503.96 50.64 1502.97 51.5733 1502.22 52.8C1501.48 53.9733 1501.1 55.4133 1501.1 57.12L1497.66 55.2C1497.66 52.2667 1498.3 49.7333 1499.58 47.6C1500.86 45.4667 1502.6 43.8133 1504.78 42.64C1506.97 41.4133 1509.42 40.8 1512.14 40.8C1514.86 40.8 1517.32 41.3867 1519.5 42.56C1521.69 43.7333 1523.42 45.3867 1524.7 47.52C1525.98 49.6533 1526.62 52.2133 1526.62 55.2V80H1517.82ZM1543.34 80V57.12C1543.34 54.56 1542.54 52.5867 1540.94 51.2C1539.34 49.76 1537.37 49.04 1535.02 49.04C1533.48 49.04 1532.06 49.36 1530.78 50C1529.5 50.64 1528.49 51.5733 1527.74 52.8C1527 53.9733 1526.62 55.4133 1526.62 57.12L1521.66 55.2C1521.93 52.2667 1522.78 49.7333 1524.22 47.6C1525.66 45.4667 1527.5 43.8133 1529.74 42.64C1532.04 41.4133 1534.54 40.8 1537.26 40.8C1540.04 40.8 1542.54 41.3867 1544.78 42.56C1547.02 43.7333 1548.81 45.3867 1550.14 47.52C1551.48 49.6533 1552.14 52.2133 1552.14 55.2V80H1543.34ZM1577.29 80.8C1573.82 80.8 1570.67 79.92 1567.85 78.16C1565.07 76.4 1562.86 74.0267 1561.21 71.04C1559.61 68 1558.81 64.6133 1558.81 60.88C1558.81 57.0933 1559.61 53.7067 1561.21 50.72C1562.86 47.68 1565.07 45.28 1567.85 43.52C1570.67 41.7067 1573.82 40.8 1577.29 40.8C1580.22 40.8 1582.81 41.44 1585.05 42.72C1587.34 43.9467 1589.15 45.6533 1590.49 47.84C1591.82 50.0267 1592.49 52.5067 1592.49 55.28V66.32C1592.49 69.0933 1591.82 71.5733 1590.49 73.76C1589.21 75.9467 1587.42 77.68 1585.13 78.96C1582.83 80.1867 1580.22 80.8 1577.29 80.8ZM1578.73 72.48C1581.98 72.48 1584.59 71.3867 1586.57 69.2C1588.59 67.0133 1589.61 64.2133 1589.61 60.8C1589.61 58.5067 1589.15 56.48 1588.25 54.72C1587.34 52.96 1586.06 51.6 1584.41 50.64C1582.81 49.6267 1580.91 49.12 1578.73 49.12C1576.59 49.12 1574.7 49.6267 1573.05 50.64C1571.45 51.6 1570.17 52.96 1569.21 54.72C1568.3 56.48 1567.85 58.5067 1567.85 60.8C1567.85 63.0933 1568.3 65.12 1569.21 66.88C1570.17 68.64 1571.45 70.0267 1573.05 71.04C1574.7 72 1576.59 72.48 1578.73 72.48ZM1589.05 80V69.68L1590.57 60.32L1589.05 51.04V41.6H1597.85V80H1589.05ZM1607.61 80V22.4H1616.41V80H1607.61Z" fill="#8A1A3B"/>
</svg>
