<svg width="1513" height="131" viewBox="0 0 1513 131" fill="none" xmlns="http://www.w3.org/2000/svg">
<path d="M12.4 58.88V50.88H26.4C28.32 50.88 30 50.5067 31.44 49.76C32.9333 48.96 34.1067 47.8667 34.96 46.48C35.8133 45.04 36.24 43.36 36.24 41.44C36.24 39.52 35.8133 37.8667 34.96 36.48C34.1067 35.04 32.9333 33.9467 31.44 33.2C30 32.4 28.32 32 26.4 32H12.4V24H26.88C30.4 24 33.5467 24.72 36.32 26.16C39.1467 27.6 41.36 29.6267 42.96 32.24C44.6133 34.8533 45.44 37.92 45.44 41.44C45.44 44.96 44.6133 48.0267 42.96 50.64C41.36 53.2533 39.1467 55.28 36.32 56.72C33.5467 58.16 30.4 58.88 26.88 58.88H12.4ZM6.08 80V24H15.28V80H6.08ZM53.7363 80V24H62.9363V80H53.7363ZM81.3844 80V72H97.4644C100.291 72 102.478 71.12 104.024 69.36C105.571 67.6 106.344 65.5733 106.344 63.28C106.344 61.7333 105.998 60.2933 105.304 58.96C104.611 57.6267 103.598 56.56 102.264 55.76C100.931 54.96 99.331 54.56 97.4644 54.56H81.3844V46.56H96.1044C98.5044 46.56 100.424 45.9467 101.864 44.72C103.304 43.4933 104.024 41.68 104.024 39.28C104.024 36.88 103.304 35.0667 101.864 33.84C100.424 32.6133 98.5044 32 96.1044 32H81.3844V24H96.3444C100.131 24 103.278 24.6933 105.784 26.08C108.291 27.4667 110.158 29.2533 111.384 31.44C112.611 33.6267 113.224 35.9733 113.224 38.48C113.224 41.4133 112.398 44 110.744 46.24C109.144 48.48 106.771 50.2933 103.624 51.68L104.344 48.8C107.864 50.24 110.611 52.2667 112.584 54.88C114.558 57.4933 115.544 60.56 115.544 64.08C115.544 66.96 114.824 69.6 113.384 72C111.998 74.4 109.918 76.3467 107.144 77.84C104.424 79.28 101.064 80 97.0644 80H81.3844ZM75.0644 80V24H84.2644V80H75.0644ZM147.166 56.24V48.64H161.326C164.152 48.64 166.339 47.92 167.886 46.48C169.486 44.9867 170.286 42.9333 170.286 40.32C170.286 37.9733 169.512 36 167.966 34.4C166.419 32.8 164.232 32 161.406 32H147.166V24H161.806C165.326 24 168.419 24.72 171.086 26.16C173.752 27.5467 175.806 29.4667 177.246 31.92C178.739 34.32 179.486 37.0667 179.486 40.16C179.486 43.4133 178.739 46.24 177.246 48.64C175.806 51.04 173.752 52.9067 171.086 54.24C168.419 55.5733 165.326 56.24 161.806 56.24H147.166ZM140.846 80V24H150.046V80H140.846ZM171.566 80L151.966 55.68L160.526 52.56L183.166 80H171.566ZM205.454 80.8C201.614 80.8 198.148 79.9467 195.054 78.24C192.014 76.48 189.588 74.08 187.774 71.04C186.014 68 185.134 64.5867 185.134 60.8C185.134 57.0133 186.014 53.6267 187.774 50.64C189.534 47.6 191.908 45.2 194.894 43.44C197.934 41.68 201.294 40.8 204.974 40.8C208.548 40.8 211.694 41.6267 214.414 43.28C217.188 44.9333 219.348 47.2 220.894 50.08C222.494 52.96 223.294 56.24 223.294 59.92C223.294 60.56 223.241 61.2267 223.134 61.92C223.081 62.56 222.974 63.28 222.814 64.08H191.294V56.88H218.254L214.974 59.76C214.868 57.4133 214.414 55.44 213.614 53.84C212.814 52.24 211.668 51.0133 210.174 50.16C208.734 49.3067 206.948 48.88 204.814 48.88C202.574 48.88 200.628 49.36 198.974 50.32C197.321 51.28 196.041 52.64 195.134 54.4C194.228 56.1067 193.774 58.16 193.774 60.56C193.774 62.96 194.254 65.0667 195.214 66.88C196.174 68.6933 197.534 70.1067 199.294 71.12C201.054 72.08 203.081 72.56 205.374 72.56C207.348 72.56 209.161 72.2133 210.814 71.52C212.521 70.8267 213.961 69.8133 215.134 68.48L220.734 74.16C218.868 76.3467 216.601 78 213.934 79.12C211.268 80.24 208.441 80.8 205.454 80.8ZM246.429 80.8C242.962 80.8 239.815 79.92 236.989 78.16C234.215 76.4 232.002 74.0267 230.349 71.04C228.749 68 227.949 64.6133 227.949 60.88C227.949 57.0933 228.749 53.7067 230.349 50.72C232.002 47.68 234.215 45.28 236.989 43.52C239.815 41.7067 242.962 40.8 246.429 40.8C249.362 40.8 251.949 41.44 254.189 42.72C256.482 43.9467 258.295 45.6533 259.629 47.84C260.962 50.0267 261.629 52.5067 261.629 55.28V66.32C261.629 69.0933 260.962 71.5733 259.629 73.76C258.349 75.9467 256.562 77.68 254.269 78.96C251.975 80.1867 249.362 80.8 246.429 80.8ZM247.869 72.48C251.122 72.48 253.735 71.3867 255.709 69.2C257.735 67.0133 258.749 64.2133 258.749 60.8C258.749 58.5067 258.295 56.48 257.389 54.72C256.482 52.96 255.202 51.6 253.549 50.64C251.949 49.6267 250.055 49.12 247.869 49.12C245.735 49.12 243.842 49.6267 242.189 50.64C240.589 51.6 239.309 52.96 238.349 54.72C237.442 56.48 236.989 58.5067 236.989 60.8C236.989 63.0933 237.442 65.12 238.349 66.88C239.309 68.64 240.589 70.0267 242.189 71.04C243.842 72 245.735 72.48 247.869 72.48ZM258.189 80V69.68L259.709 60.32L258.189 51.04V41.6H266.989V80H258.189ZM276.755 80V22.4H285.555V80H276.755ZM323.444 89.52C320.618 87.0133 318.164 83.9467 316.084 80.32C314.058 76.6933 312.484 72.72 311.364 68.4C310.244 64.08 309.684 59.6 309.684 54.96C309.684 50.32 310.244 45.84 311.364 41.52C312.484 37.2 314.058 33.2267 316.084 29.6C318.164 25.9733 320.618 22.9067 323.444 20.4L328.484 24.88C324.964 28.1333 322.218 32.3467 320.244 37.52C318.324 42.64 317.364 48.4533 317.364 54.96C317.364 61.4133 318.324 67.2267 320.244 72.4C322.218 77.5733 324.964 81.7867 328.484 85.04L323.444 89.52ZM345.34 80L327.82 41.6H337.58L350.94 72.88H345.18L358.62 41.6H367.98L350.46 80H345.34ZM387.913 80.8C384.446 80.8 381.3 79.92 378.473 78.16C375.7 76.4 373.486 74.0267 371.833 71.04C370.233 68 369.433 64.6133 369.433 60.88C369.433 57.0933 370.233 53.7067 371.833 50.72C373.486 47.68 375.7 45.28 378.473 43.52C381.3 41.7067 384.446 40.8 387.913 40.8C390.846 40.8 393.433 41.44 395.673 42.72C397.966 43.9467 399.78 45.6533 401.113 47.84C402.446 50.0267 403.113 52.5067 403.113 55.28V66.32C403.113 69.0933 402.446 71.5733 401.113 73.76C399.833 75.9467 398.046 77.68 395.753 78.96C393.46 80.1867 390.846 80.8 387.913 80.8ZM389.353 72.48C392.606 72.48 395.22 71.3867 397.193 69.2C399.22 67.0133 400.233 64.2133 400.233 60.8C400.233 58.5067 399.78 56.48 398.873 54.72C397.966 52.96 396.686 51.6 395.033 50.64C393.433 49.6267 391.54 49.12 389.353 49.12C387.22 49.12 385.326 49.6267 383.673 50.64C382.073 51.6 380.793 52.96 379.833 54.72C378.926 56.48 378.473 58.5067 378.473 60.8C378.473 63.0933 378.926 65.12 379.833 66.88C380.793 68.64 382.073 70.0267 383.673 71.04C385.326 72 387.22 72.48 389.353 72.48ZM399.673 80V69.68L401.193 60.32L399.673 51.04V41.6H408.473V80H399.673ZM418.239 80V22.4H427.039V80H418.239ZM454.433 80.8C450.7 80.8 447.313 79.92 444.273 78.16C441.233 76.3467 438.806 73.92 436.993 70.88C435.233 67.84 434.353 64.4533 434.353 60.72C434.353 56.9867 435.233 53.6267 436.993 50.64C438.806 47.6533 441.233 45.28 444.273 43.52C447.313 41.7067 450.7 40.8 454.433 40.8C458.22 40.8 461.633 41.68 464.673 43.44C467.713 45.2 470.113 47.6 471.873 50.64C473.686 53.6267 474.593 56.9867 474.593 60.72C474.593 64.4533 473.686 67.84 471.873 70.88C470.113 73.92 467.713 76.3467 464.673 78.16C461.633 79.92 458.22 80.8 454.433 80.8ZM454.433 72.32C456.62 72.32 458.54 71.84 460.193 70.88C461.9 69.8667 463.206 68.48 464.113 66.72C465.073 64.96 465.553 62.96 465.553 60.72C465.553 58.48 465.073 56.5067 464.113 54.8C463.153 53.0933 461.846 51.76 460.193 50.8C458.54 49.7867 456.62 49.28 454.433 49.28C452.3 49.28 450.38 49.7867 448.673 50.8C447.02 51.76 445.713 53.0933 444.753 54.8C443.846 56.5067 443.393 58.48 443.393 60.72C443.393 62.96 443.846 64.96 444.753 66.72C445.713 68.48 447.02 69.8667 448.673 70.88C450.38 71.84 452.3 72.32 454.433 72.32ZM481.911 80V41.6H490.711V80H481.911ZM490.711 58.64L487.671 57.12C487.671 52.2667 488.738 48.3467 490.871 45.36C493.058 42.32 496.338 40.8 500.711 40.8C502.631 40.8 504.365 41.1467 505.911 41.84C507.458 42.5333 508.898 43.6533 510.231 45.2L504.471 51.12C503.778 50.3733 503.005 49.84 502.151 49.52C501.298 49.2 500.311 49.04 499.191 49.04C496.738 49.04 494.711 49.8133 493.111 51.36C491.511 52.9067 490.711 55.3333 490.711 58.64ZM531.158 80.8C527.318 80.8 523.851 79.9467 520.758 78.24C517.718 76.48 515.291 74.08 513.478 71.04C511.718 68 510.838 64.5867 510.838 60.8C510.838 57.0133 511.718 53.6267 513.478 50.64C515.238 47.6 517.611 45.2 520.598 43.44C523.638 41.68 526.998 40.8 530.678 40.8C534.251 40.8 537.398 41.6267 540.118 43.28C542.891 44.9333 545.051 47.2 546.598 50.08C548.198 52.96 548.998 56.24 548.998 59.92C548.998 60.56 548.944 61.2267 548.837 61.92C548.784 62.56 548.678 63.28 548.518 64.08H516.998V56.88H543.958L540.678 59.76C540.571 57.4133 540.118 55.44 539.318 53.84C538.518 52.24 537.371 51.0133 535.878 50.16C534.438 49.3067 532.651 48.88 530.518 48.88C528.278 48.88 526.331 49.36 524.678 50.32C523.024 51.28 521.744 52.64 520.838 54.4C519.931 56.1067 519.478 58.16 519.478 60.56C519.478 62.96 519.958 65.0667 520.918 66.88C521.878 68.6933 523.238 70.1067 524.998 71.12C526.758 72.08 528.784 72.56 531.078 72.56C533.051 72.56 534.864 72.2133 536.518 71.52C538.224 70.8267 539.664 69.8133 540.838 68.48L546.438 74.16C544.571 76.3467 542.304 78 539.638 79.12C536.971 80.24 534.144 80.8 531.158 80.8ZM568.612 80.8C566.479 80.8 564.425 80.5333 562.452 80C560.479 79.4133 558.665 78.6133 557.012 77.6C555.359 76.5333 553.919 75.2533 552.692 73.76L558.292 68.16C559.625 69.7067 561.145 70.88 562.852 71.68C564.612 72.4267 566.585 72.8 568.772 72.8C570.745 72.8 572.239 72.5067 573.252 71.92C574.265 71.3333 574.772 70.48 574.772 69.36C574.772 68.1867 574.292 67.28 573.332 66.64C572.372 66 571.119 65.4667 569.572 65.04C568.079 64.56 566.479 64.08 564.772 63.6C563.119 63.12 561.519 62.48 559.972 61.68C558.479 60.8267 557.252 59.68 556.292 58.24C555.332 56.8 554.852 54.9333 554.852 52.64C554.852 50.1867 555.412 48.08 556.532 46.32C557.705 44.56 559.332 43.2 561.412 42.24C563.545 41.28 566.079 40.8 569.012 40.8C572.105 40.8 574.825 41.36 577.172 42.48C579.572 43.5467 581.572 45.1733 583.172 47.36L577.572 52.96C576.452 51.5733 575.172 50.5333 573.732 49.84C572.292 49.1467 570.639 48.8 568.772 48.8C567.012 48.8 565.652 49.0667 564.692 49.6C563.732 50.1333 563.252 50.9067 563.252 51.92C563.252 52.9867 563.732 53.8133 564.692 54.4C565.652 54.9867 566.879 55.4933 568.372 55.92C569.919 56.3467 571.519 56.8267 573.172 57.36C574.879 57.84 576.479 58.5333 577.972 59.44C579.519 60.2933 580.772 61.4667 581.732 62.96C582.692 64.4 583.172 66.2933 583.172 68.64C583.172 72.3733 581.865 75.3333 579.252 77.52C576.639 79.7067 573.092 80.8 568.612 80.8ZM622.523 80.8C619.056 80.8 615.909 79.92 613.083 78.16C610.309 76.4 608.096 74.0267 606.443 71.04C604.843 68 604.043 64.6133 604.043 60.88C604.043 57.0933 604.843 53.7067 606.443 50.72C608.096 47.68 610.309 45.28 613.083 43.52C615.909 41.7067 619.056 40.8 622.523 40.8C625.456 40.8 628.043 41.44 630.283 42.72C632.576 43.9467 634.389 45.6533 635.723 47.84C637.056 50.0267 637.723 52.5067 637.723 55.28V66.32C637.723 69.0933 637.056 71.5733 635.723 73.76C634.443 75.9467 632.656 77.68 630.363 78.96C628.069 80.1867 625.456 80.8 622.523 80.8ZM623.963 72.48C626.149 72.48 628.043 72 629.643 71.04C631.296 70.0267 632.576 68.64 633.483 66.88C634.389 65.12 634.843 63.0933 634.843 60.8C634.843 58.5067 634.389 56.48 633.483 54.72C632.576 52.96 631.296 51.6 629.643 50.64C628.043 49.6267 626.149 49.12 623.963 49.12C621.829 49.12 619.936 49.6267 618.283 50.64C616.683 51.6 615.403 52.96 614.443 54.72C613.536 56.48 613.083 58.5067 613.083 60.8C613.083 63.0933 613.536 65.12 614.443 66.88C615.403 68.64 616.683 70.0267 618.283 71.04C619.936 72 621.829 72.48 623.963 72.48ZM643.083 80H634.283V69.68L635.803 60.32L634.283 51.04V22.4H643.083V80ZM670.689 80.8C666.849 80.8 663.382 79.9467 660.289 78.24C657.249 76.48 654.822 74.08 653.009 71.04C651.249 68 650.369 64.5867 650.369 60.8C650.369 57.0133 651.249 53.6267 653.009 50.64C654.769 47.6 657.142 45.2 660.129 43.44C663.169 41.68 666.529 40.8 670.209 40.8C673.782 40.8 676.929 41.6267 679.649 43.28C682.422 44.9333 684.582 47.2 686.129 50.08C687.729 52.96 688.529 56.24 688.529 59.92C688.529 60.56 688.475 61.2267 688.369 61.92C688.315 62.56 688.209 63.28 688.049 64.08H656.529V56.88H683.489L680.209 59.76C680.102 57.4133 679.649 55.44 678.849 53.84C678.049 52.24 676.902 51.0133 675.409 50.16C673.969 49.3067 672.182 48.88 670.049 48.88C667.809 48.88 665.862 49.36 664.209 50.32C662.555 51.28 661.275 52.64 660.369 54.4C659.462 56.1067 659.009 58.16 659.009 60.56C659.009 62.96 659.489 65.0667 660.449 66.88C661.409 68.6933 662.769 70.1067 664.529 71.12C666.289 72.08 668.315 72.56 670.609 72.56C672.582 72.56 674.395 72.2133 676.049 71.52C677.755 70.8267 679.195 69.8133 680.369 68.48L685.969 74.16C684.102 76.3467 681.835 78 679.169 79.12C676.502 80.24 673.675 80.8 670.689 80.8ZM708.959 74.56L729.599 52.64C731.305 50.8267 732.692 49.2 733.759 47.76C734.825 46.32 735.599 44.96 736.079 43.68C736.559 42.4 736.799 41.0933 736.799 39.76C736.799 37.2533 735.972 35.3067 734.319 33.92C732.719 32.48 730.665 31.76 728.159 31.76C725.492 31.76 723.145 32.4267 721.119 33.76C719.092 35.0933 717.279 37.1733 715.679 40L709.279 34.72C711.465 30.9333 714.159 28.08 717.359 26.16C720.559 24.1867 724.265 23.2 728.479 23.2C731.945 23.2 734.985 23.8933 737.599 25.28C740.212 26.6667 742.239 28.6133 743.679 31.12C745.119 33.5733 745.839 36.4267 745.839 39.68C745.839 42.0267 745.545 44.1333 744.959 46C744.425 47.8133 743.492 49.6533 742.159 51.52C740.825 53.3333 738.985 55.4667 736.639 57.92L720.799 74.32L708.959 74.56ZM708.959 80V74.56L716.879 71.76H746.959V80H708.959ZM776.32 80.8C772.107 80.8 768.24 79.6267 764.72 77.28C761.253 74.88 758.48 71.52 756.4 67.2C754.32 62.88 753.28 57.7867 753.28 51.92C753.28 46.0533 754.293 40.9867 756.32 36.72C758.4 32.4 761.173 29.0667 764.64 26.72C768.107 24.3733 771.947 23.2 776.16 23.2C780.427 23.2 784.293 24.3733 787.76 26.72C791.227 29.0667 793.973 32.4 796 36.72C798.08 40.9867 799.12 46.08 799.12 52C799.12 57.8667 798.08 62.96 796 67.28C793.973 71.6 791.227 74.9333 787.76 77.28C784.347 79.6267 780.533 80.8 776.32 80.8ZM776.16 72.16C778.933 72.16 781.333 71.4133 783.36 69.92C785.387 68.4267 786.96 66.1867 788.08 63.2C789.253 60.2133 789.84 56.4533 789.84 51.92C789.84 47.44 789.253 43.7067 788.08 40.72C786.96 37.7333 785.36 35.52 783.28 34.08C781.253 32.5867 778.88 31.84 776.16 31.84C773.44 31.84 771.04 32.5867 768.96 34.08C766.933 35.52 765.36 37.7333 764.24 40.72C763.12 43.6533 762.56 47.3867 762.56 51.92C762.56 56.4533 763.12 60.2133 764.24 63.2C765.36 66.1867 766.933 68.4267 768.96 69.92C771.04 71.4133 773.44 72.16 776.16 72.16ZM815.702 80V24H824.742V80H815.702ZM804.502 32.24V24H823.942V32.24H804.502ZM833.099 60L853.019 24H863.419L843.019 60H833.099ZM833.099 65.6V60L837.019 57.36H876.539V65.6H833.099ZM859.659 80V43.36H868.699V80H859.659ZM885.71 89.52L880.67 85.04C884.19 81.7867 886.91 77.5733 888.83 72.4C890.803 67.2267 891.79 61.4133 891.79 54.96C891.79 48.4533 890.803 42.64 888.83 37.52C886.91 32.3467 884.19 28.1333 880.67 24.88L885.71 20.4C888.537 22.9067 890.963 25.9733 892.99 29.6C895.07 33.2267 896.67 37.2 897.79 41.52C898.91 45.84 899.47 50.32 899.47 54.96C899.47 59.6 898.91 64.08 897.79 68.4C896.67 72.72 895.07 76.6933 892.99 80.32C890.963 83.9467 888.537 87.0133 885.71 89.52Z" fill="#8A1A3B"/>
</svg>
