<svg width="4134" height="131" viewBox="0 0 4134 131" fill="none" xmlns="http://www.w3.org/2000/svg">
<path d="M12.4 80V71.6H27.12C30.96 71.6 34.32 70.7733 37.2 69.12C40.1333 67.4667 42.4 65.1733 44 62.24C45.6533 59.2533 46.48 55.8133 46.48 51.92C46.48 48.08 45.6533 44.6933 44 41.76C42.3467 38.8267 40.0533 36.5333 37.12 34.88C34.24 33.2267 30.9067 32.4 27.12 32.4H12.4V24H27.36C31.4133 24 35.1733 24.72 38.64 26.16C42.1067 27.5467 45.12 29.52 47.68 32.08C50.2933 34.5867 52.32 37.5467 53.76 40.96C55.2 44.32 55.92 48 55.92 52C55.92 55.9467 55.2 59.6267 53.76 63.04C52.32 66.4533 50.32 69.44 47.76 72C45.2 74.5067 42.1867 76.48 38.72 77.92C35.2533 79.3067 31.52 80 27.52 80H12.4ZM6.08 80V24H15.28V80H6.08ZM64.1788 80V41.6H72.9788V80H64.1788ZM68.5788 34.56C67.0854 34.56 65.8321 34.0533 64.8188 33.04C63.8588 32.0267 63.3788 30.7733 63.3788 29.28C63.3788 27.7867 63.8588 26.5333 64.8188 25.52C65.8321 24.5067 67.0854 24 68.5788 24C70.1254 24 71.3788 24.5067 72.3388 25.52C73.2988 26.5333 73.7788 27.7867 73.7788 29.28C73.7788 30.7733 73.2988 32.0267 72.3388 33.04C71.3788 34.0533 70.1254 34.56 68.5788 34.56ZM88.1288 80V36.56C88.1288 33.6267 88.7688 31.04 90.0488 28.8C91.3821 26.56 93.1954 24.8 95.4888 23.52C97.8354 22.24 100.529 21.6 103.569 21.6C105.915 21.6 107.915 22 109.569 22.8C111.222 23.6 112.769 24.7467 114.209 26.24L108.529 31.92C107.889 31.28 107.195 30.7733 106.449 30.4C105.702 30.0267 104.742 29.84 103.569 29.84C101.435 29.84 99.7821 30.4267 98.6088 31.6C97.4888 32.72 96.9288 34.3467 96.9288 36.48V80H88.1288ZM78.9288 49.6V41.6H108.529V49.6H78.9288ZM131.001 80.8C127.161 80.8 123.695 79.9467 120.601 78.24C117.561 76.48 115.135 74.08 113.321 71.04C111.561 68 110.681 64.5867 110.681 60.8C110.681 57.0133 111.561 53.6267 113.321 50.64C115.081 47.6 117.455 45.2 120.441 43.44C123.481 41.68 126.841 40.8 130.521 40.8C134.095 40.8 137.241 41.6267 139.961 43.28C142.735 44.9333 144.895 47.2 146.441 50.08C148.041 52.96 148.841 56.24 148.841 59.92C148.841 60.56 148.788 61.2267 148.681 61.92C148.628 62.56 148.521 63.28 148.361 64.08H116.841V56.88H143.801L140.521 59.76C140.415 57.4133 139.961 55.44 139.161 53.84C138.361 52.24 137.215 51.0133 135.721 50.16C134.281 49.3067 132.495 48.88 130.361 48.88C128.121 48.88 126.175 49.36 124.521 50.32C122.868 51.28 121.588 52.64 120.681 54.4C119.775 56.1067 119.321 58.16 119.321 60.56C119.321 62.96 119.801 65.0667 120.761 66.88C121.721 68.6933 123.081 70.1067 124.841 71.12C126.601 72.08 128.628 72.56 130.921 72.56C132.895 72.56 134.708 72.2133 136.361 71.52C138.068 70.8267 139.508 69.8133 140.681 68.48L146.281 74.16C144.415 76.3467 142.148 78 139.481 79.12C136.815 80.24 133.988 80.8 131.001 80.8ZM155.896 80V41.6H164.696V80H155.896ZM164.696 58.64L161.656 57.12C161.656 52.2667 162.722 48.3467 164.856 45.36C167.042 42.32 170.322 40.8 174.696 40.8C176.616 40.8 178.349 41.1467 179.896 41.84C181.442 42.5333 182.882 43.6533 184.216 45.2L178.456 51.12C177.762 50.3733 176.989 49.84 176.136 49.52C175.282 49.2 174.296 49.04 173.176 49.04C170.722 49.04 168.696 49.8133 167.096 51.36C165.496 52.9067 164.696 55.3333 164.696 58.64ZM205.142 80.8C201.302 80.8 197.835 79.9467 194.742 78.24C191.702 76.48 189.275 74.08 187.462 71.04C185.702 68 184.822 64.5867 184.822 60.8C184.822 57.0133 185.702 53.6267 187.462 50.64C189.222 47.6 191.595 45.2 194.582 43.44C197.622 41.68 200.982 40.8 204.662 40.8C208.235 40.8 211.382 41.6267 214.102 43.28C216.875 44.9333 219.035 47.2 220.582 50.08C222.182 52.96 222.982 56.24 222.982 59.92C222.982 60.56 222.929 61.2267 222.822 61.92C222.769 62.56 222.662 63.28 222.502 64.08H190.982V56.88H217.942L214.662 59.76C214.555 57.4133 214.102 55.44 213.302 53.84C212.502 52.24 211.355 51.0133 209.862 50.16C208.422 49.3067 206.635 48.88 204.502 48.88C202.262 48.88 200.315 49.36 198.662 50.32C197.009 51.28 195.729 52.64 194.822 54.4C193.915 56.1067 193.462 58.16 193.462 60.56C193.462 62.96 193.942 65.0667 194.902 66.88C195.862 68.6933 197.222 70.1067 198.982 71.12C200.742 72.08 202.769 72.56 205.062 72.56C207.035 72.56 208.849 72.2133 210.502 71.52C212.209 70.8267 213.649 69.8133 214.822 68.48L220.422 74.16C218.555 76.3467 216.289 78 213.622 79.12C210.955 80.24 208.129 80.8 205.142 80.8ZM256.356 80V57.84C256.356 55.28 255.53 53.1733 253.876 51.52C252.276 49.8667 250.196 49.04 247.636 49.04C245.93 49.04 244.41 49.4133 243.076 50.16C241.743 50.9067 240.703 51.9467 239.956 53.28C239.21 54.6133 238.836 56.1333 238.836 57.84L235.396 55.92C235.396 52.9867 236.036 50.4 237.316 48.16C238.596 45.8667 240.356 44.08 242.596 42.8C244.89 41.4667 247.45 40.8 250.276 40.8C253.156 40.8 255.716 41.5467 257.956 43.04C260.196 44.48 261.956 46.3733 263.236 48.72C264.516 51.0133 265.156 53.4133 265.156 55.92V80H256.356ZM230.036 80V41.6H238.836V80H230.036ZM291.779 80.8C287.992 80.8 284.552 79.92 281.459 78.16C278.419 76.4 276.019 74 274.259 70.96C272.499 67.92 271.619 64.5333 271.619 60.8C271.619 57.0133 272.499 53.6267 274.259 50.64C276.019 47.6 278.419 45.2 281.459 43.44C284.552 41.68 287.992 40.8 291.779 40.8C294.765 40.8 297.539 41.3867 300.099 42.56C302.712 43.68 304.925 45.3067 306.739 47.44L300.979 53.28C299.859 51.9467 298.499 50.96 296.899 50.32C295.352 49.6267 293.645 49.28 291.779 49.28C289.592 49.28 287.645 49.7867 285.939 50.8C284.285 51.76 282.979 53.0933 282.019 54.8C281.112 56.5067 280.659 58.5067 280.659 60.8C280.659 63.04 281.112 65.04 282.019 66.8C282.979 68.5067 284.285 69.8667 285.939 70.88C287.645 71.84 289.592 72.32 291.779 72.32C293.645 72.32 295.352 72 296.899 71.36C298.499 70.6667 299.859 69.6533 300.979 68.32L306.739 74.16C304.925 76.2933 302.712 77.9467 300.099 79.12C297.539 80.24 294.765 80.8 291.779 80.8ZM289.299 96.8C287.325 96.8 285.592 96.56 284.099 96.08C282.605 95.6 281.165 94.9067 279.779 94L283.379 89.44C283.965 89.9733 284.685 90.4 285.539 90.72C286.392 91.0933 287.432 91.28 288.659 91.28C290.045 91.28 291.032 91.0933 291.619 90.72C292.259 90.3467 292.579 89.8933 292.579 89.36C292.579 88.7733 292.285 88.24 291.699 87.76C291.165 87.3333 290.285 87.12 289.059 87.12H284.899L287.539 78.88H293.939L292.019 84.64L288.819 82.24C292.125 82.1333 294.792 82.7733 296.819 84.16C298.845 85.6 299.859 87.3867 299.859 89.52C299.859 91.6 298.872 93.3333 296.899 94.72C294.979 96.1067 292.445 96.8 289.299 96.8ZM328.382 80.8C324.915 80.8 321.769 79.92 318.942 78.16C316.169 76.4 313.955 74.0267 312.302 71.04C310.702 68 309.902 64.6133 309.902 60.88C309.902 57.0933 310.702 53.7067 312.302 50.72C313.955 47.68 316.169 45.28 318.942 43.52C321.769 41.7067 324.915 40.8 328.382 40.8C331.315 40.8 333.902 41.44 336.142 42.72C338.435 43.9467 340.249 45.6533 341.582 47.84C342.915 50.0267 343.582 52.5067 343.582 55.28V66.32C343.582 69.0933 342.915 71.5733 341.582 73.76C340.302 75.9467 338.515 77.68 336.222 78.96C333.929 80.1867 331.315 80.8 328.382 80.8ZM329.822 72.48C333.075 72.48 335.689 71.3867 337.662 69.2C339.689 67.0133 340.702 64.2133 340.702 60.8C340.702 58.5067 340.249 56.48 339.342 54.72C338.435 52.96 337.155 51.6 335.502 50.64C333.902 49.6267 332.009 49.12 329.822 49.12C327.689 49.12 325.795 49.6267 324.142 50.64C322.542 51.6 321.262 52.96 320.302 54.72C319.395 56.48 318.942 58.5067 318.942 60.8C318.942 63.0933 319.395 65.12 320.302 66.88C321.262 68.64 322.542 70.0267 324.142 71.04C325.795 72 327.689 72.48 329.822 72.48ZM340.142 80V69.68L341.662 60.32L340.142 51.04V41.6H348.942V80H340.142ZM390.804 80.8C387.337 80.8 384.19 79.92 381.364 78.16C378.59 76.4 376.377 74.0267 374.724 71.04C373.124 68 372.324 64.6133 372.324 60.88C372.324 57.0933 373.124 53.7067 374.724 50.72C376.377 47.68 378.59 45.28 381.364 43.52C384.19 41.7067 387.337 40.8 390.804 40.8C393.737 40.8 396.324 41.44 398.564 42.72C400.857 43.9467 402.67 45.6533 404.004 47.84C405.337 50.0267 406.004 52.5067 406.004 55.28V66.32C406.004 69.0933 405.337 71.5733 404.004 73.76C402.724 75.9467 400.937 77.68 398.644 78.96C396.35 80.1867 393.737 80.8 390.804 80.8ZM392.244 72.48C394.43 72.48 396.324 72 397.924 71.04C399.577 70.0267 400.857 68.64 401.764 66.88C402.67 65.12 403.124 63.0933 403.124 60.8C403.124 58.5067 402.67 56.48 401.764 54.72C400.857 52.96 399.577 51.6 397.924 50.64C396.324 49.6267 394.43 49.12 392.244 49.12C390.11 49.12 388.217 49.6267 386.564 50.64C384.964 51.6 383.684 52.96 382.724 54.72C381.817 56.48 381.364 58.5067 381.364 60.8C381.364 63.0933 381.817 65.12 382.724 66.88C383.684 68.64 384.964 70.0267 386.564 71.04C388.217 72 390.11 72.48 392.244 72.48ZM411.364 80H402.564V69.68L404.084 60.32L402.564 51.04V22.4H411.364V80ZM438.97 80.8C435.13 80.8 431.663 79.9467 428.57 78.24C425.53 76.48 423.103 74.08 421.29 71.04C419.53 68 418.65 64.5867 418.65 60.8C418.65 57.0133 419.53 53.6267 421.29 50.64C423.05 47.6 425.423 45.2 428.41 43.44C431.45 41.68 434.81 40.8 438.49 40.8C442.063 40.8 445.21 41.6267 447.93 43.28C450.703 44.9333 452.863 47.2 454.41 50.08C456.01 52.96 456.81 56.24 456.81 59.92C456.81 60.56 456.757 61.2267 456.65 61.92C456.597 62.56 456.49 63.28 456.33 64.08H424.81V56.88H451.77L448.49 59.76C448.383 57.4133 447.93 55.44 447.13 53.84C446.33 52.24 445.183 51.0133 443.69 50.16C442.25 49.3067 440.463 48.88 438.33 48.88C436.09 48.88 434.143 49.36 432.49 50.32C430.837 51.28 429.557 52.64 428.65 54.4C427.743 56.1067 427.29 58.16 427.29 60.56C427.29 62.96 427.77 65.0667 428.73 66.88C429.69 68.6933 431.05 70.1067 432.81 71.12C434.57 72.08 436.597 72.56 438.89 72.56C440.863 72.56 442.677 72.2133 444.33 71.52C446.037 70.8267 447.477 69.8133 448.65 68.48L454.25 74.16C452.383 76.3467 450.117 78 447.45 79.12C444.783 80.24 441.957 80.8 438.97 80.8ZM487.4 56.24V48.64H501.56C504.387 48.64 506.573 47.92 508.12 46.48C509.72 44.9867 510.52 42.9333 510.52 40.32C510.52 37.9733 509.747 36 508.2 34.4C506.653 32.8 504.467 32 501.64 32H487.4V24H502.04C505.56 24 508.653 24.72 511.32 26.16C513.987 27.5467 516.04 29.4667 517.48 31.92C518.973 34.32 519.72 37.0667 519.72 40.16C519.72 43.4133 518.973 46.24 517.48 48.64C516.04 51.04 513.987 52.9067 511.32 54.24C508.653 55.5733 505.56 56.24 502.04 56.24H487.4ZM481.08 80V24H490.28V80H481.08ZM511.8 80L492.2 55.68L500.76 52.56L523.4 80H511.8ZM545.689 80.8C541.849 80.8 538.382 79.9467 535.289 78.24C532.249 76.48 529.822 74.08 528.009 71.04C526.249 68 525.369 64.5867 525.369 60.8C525.369 57.0133 526.249 53.6267 528.009 50.64C529.769 47.6 532.142 45.2 535.129 43.44C538.169 41.68 541.529 40.8 545.209 40.8C548.782 40.8 551.929 41.6267 554.649 43.28C557.422 44.9333 559.582 47.2 561.129 50.08C562.729 52.96 563.529 56.24 563.529 59.92C563.529 60.56 563.475 61.2267 563.369 61.92C563.315 62.56 563.209 63.28 563.049 64.08H531.529V56.88H558.489L555.209 59.76C555.102 57.4133 554.649 55.44 553.849 53.84C553.049 52.24 551.902 51.0133 550.409 50.16C548.969 49.3067 547.182 48.88 545.049 48.88C542.809 48.88 540.862 49.36 539.209 50.32C537.555 51.28 536.275 52.64 535.369 54.4C534.462 56.1067 534.009 58.16 534.009 60.56C534.009 62.96 534.489 65.0667 535.449 66.88C536.409 68.6933 537.769 70.1067 539.529 71.12C541.289 72.08 543.315 72.56 545.609 72.56C547.582 72.56 549.395 72.2133 551.049 71.52C552.755 70.8267 554.195 69.8133 555.369 68.48L560.969 74.16C559.102 76.3467 556.835 78 554.169 79.12C551.502 80.24 548.675 80.8 545.689 80.8ZM596.903 80V57.84C596.903 55.28 596.076 53.1733 594.423 51.52C592.823 49.8667 590.743 49.04 588.183 49.04C586.476 49.04 584.956 49.4133 583.623 50.16C582.29 50.9067 581.25 51.9467 580.503 53.28C579.756 54.6133 579.383 56.1333 579.383 57.84L575.943 55.92C575.943 52.9867 576.583 50.4 577.863 48.16C579.143 45.8667 580.903 44.08 583.143 42.8C585.436 41.4667 587.996 40.8 590.823 40.8C593.703 40.8 596.263 41.5467 598.503 43.04C600.743 44.48 602.503 46.3733 603.783 48.72C605.063 51.0133 605.703 53.4133 605.703 55.92V80H596.903ZM570.583 80V41.6H579.383V80H570.583ZM630.726 80.8C627.259 80.8 624.112 79.92 621.286 78.16C618.512 76.4 616.299 74.0267 614.646 71.04C613.046 68 612.246 64.6133 612.246 60.88C612.246 57.0933 613.046 53.7067 614.646 50.72C616.299 47.68 618.512 45.28 621.286 43.52C624.112 41.7067 627.259 40.8 630.726 40.8C633.659 40.8 636.246 41.44 638.486 42.72C640.779 43.9467 642.592 45.6533 643.926 47.84C645.259 50.0267 645.926 52.5067 645.926 55.28V66.32C645.926 69.0933 645.259 71.5733 643.926 73.76C642.646 75.9467 640.859 77.68 638.566 78.96C636.272 80.1867 633.659 80.8 630.726 80.8ZM632.166 72.48C634.352 72.48 636.246 72 637.846 71.04C639.499 70.0267 640.779 68.64 641.686 66.88C642.592 65.12 643.046 63.0933 643.046 60.8C643.046 58.5067 642.592 56.48 641.686 54.72C640.779 52.96 639.499 51.6 637.846 50.64C636.246 49.6267 634.352 49.12 632.166 49.12C630.032 49.12 628.139 49.6267 626.486 50.64C624.886 51.6 623.606 52.96 622.646 54.72C621.739 56.48 621.286 58.5067 621.286 60.8C621.286 63.0933 621.739 65.12 622.646 66.88C623.606 68.64 624.886 70.0267 626.486 71.04C628.139 72 630.032 72.48 632.166 72.48ZM651.286 80H642.486V69.68L644.006 60.32L642.486 51.04V22.4H651.286V80ZM661.132 80V41.6H669.932V80H661.132ZM665.532 34.56C664.039 34.56 662.785 34.0533 661.772 33.04C660.812 32.0267 660.332 30.7733 660.332 29.28C660.332 27.7867 660.812 26.5333 661.772 25.52C662.785 24.5067 664.039 24 665.532 24C667.079 24 668.332 24.5067 669.292 25.52C670.252 26.5333 670.732 27.7867 670.732 29.28C670.732 30.7733 670.252 32.0267 669.292 33.04C668.332 34.0533 667.079 34.56 665.532 34.56ZM679.802 80V41.6H688.602V80H679.802ZM705.322 80V57.12C705.322 54.56 704.522 52.5867 702.922 51.2C701.322 49.76 699.349 49.04 697.002 49.04C695.402 49.04 693.962 49.36 692.682 50C691.455 50.64 690.469 51.5733 689.722 52.8C688.975 53.9733 688.602 55.4133 688.602 57.12L685.162 55.2C685.162 52.2667 685.802 49.7333 687.082 47.6C688.362 45.4667 690.095 43.8133 692.282 42.64C694.469 41.4133 696.922 40.8 699.642 40.8C702.362 40.8 704.815 41.3867 707.002 42.56C709.189 43.7333 710.922 45.3867 712.202 47.52C713.482 49.6533 714.122 52.2133 714.122 55.2V80H705.322ZM730.842 80V57.12C730.842 54.56 730.042 52.5867 728.442 51.2C726.842 49.76 724.869 49.04 722.522 49.04C720.975 49.04 719.562 49.36 718.282 50C717.002 50.64 715.989 51.5733 715.242 52.8C714.495 53.9733 714.122 55.4133 714.122 57.12L709.162 55.2C709.429 52.2667 710.282 49.7333 711.722 47.6C713.162 45.4667 715.002 43.8133 717.242 42.64C719.535 41.4133 722.042 40.8 724.762 40.8C727.535 40.8 730.042 41.3867 732.282 42.56C734.522 43.7333 736.309 45.3867 737.642 47.52C738.975 49.6533 739.642 52.2133 739.642 55.2V80H730.842ZM766.548 80.8C762.708 80.8 759.241 79.9467 756.148 78.24C753.108 76.48 750.681 74.08 748.868 71.04C747.108 68 746.228 64.5867 746.228 60.8C746.228 57.0133 747.108 53.6267 748.868 50.64C750.628 47.6 753.001 45.2 755.988 43.44C759.028 41.68 762.388 40.8 766.068 40.8C769.641 40.8 772.788 41.6267 775.508 43.28C778.281 44.9333 780.441 47.2 781.988 50.08C783.588 52.96 784.388 56.24 784.388 59.92C784.388 60.56 784.335 61.2267 784.228 61.92C784.175 62.56 784.068 63.28 783.908 64.08H752.388V56.88H779.348L776.068 59.76C775.961 57.4133 775.508 55.44 774.708 53.84C773.908 52.24 772.761 51.0133 771.268 50.16C769.828 49.3067 768.041 48.88 765.908 48.88C763.668 48.88 761.721 49.36 760.068 50.32C758.415 51.28 757.135 52.64 756.228 54.4C755.321 56.1067 754.868 58.16 754.868 60.56C754.868 62.96 755.348 65.0667 756.308 66.88C757.268 68.6933 758.628 70.1067 760.388 71.12C762.148 72.08 764.175 72.56 766.468 72.56C768.441 72.56 770.255 72.2133 771.908 71.52C773.615 70.8267 775.055 69.8133 776.228 68.48L781.828 74.16C779.961 76.3467 777.695 78 775.028 79.12C772.361 80.24 769.535 80.8 766.548 80.8ZM817.763 80V57.84C817.763 55.28 816.936 53.1733 815.283 51.52C813.683 49.8667 811.603 49.04 809.043 49.04C807.336 49.04 805.816 49.4133 804.483 50.16C803.149 50.9067 802.109 51.9467 801.363 53.28C800.616 54.6133 800.243 56.1333 800.243 57.84L796.803 55.92C796.803 52.9867 797.443 50.4 798.723 48.16C800.003 45.8667 801.763 44.08 804.003 42.8C806.296 41.4667 808.856 40.8 811.683 40.8C814.563 40.8 817.123 41.5467 819.363 43.04C821.603 44.48 823.363 46.3733 824.643 48.72C825.923 51.0133 826.562 53.4133 826.562 55.92V80H817.763ZM791.443 80V41.6H800.243V80H791.443ZM840.876 80V25.6H849.676V80H840.876ZM831.676 49.6V41.6H858.876V49.6H831.676ZM881.777 80.8C878.044 80.8 874.657 79.92 871.617 78.16C868.577 76.3467 866.15 73.92 864.337 70.88C862.577 67.84 861.697 64.4533 861.697 60.72C861.697 56.9867 862.577 53.6267 864.337 50.64C866.15 47.6533 868.577 45.28 871.617 43.52C874.657 41.7067 878.044 40.8 881.777 40.8C885.564 40.8 888.977 41.68 892.017 43.44C895.057 45.2 897.457 47.6 899.217 50.64C901.03 53.6267 901.937 56.9867 901.937 60.72C901.937 64.4533 901.03 67.84 899.217 70.88C897.457 73.92 895.057 76.3467 892.017 78.16C888.977 79.92 885.564 80.8 881.777 80.8ZM881.777 72.32C883.964 72.32 885.884 71.84 887.537 70.88C889.244 69.8667 890.55 68.48 891.457 66.72C892.417 64.96 892.897 62.96 892.897 60.72C892.897 58.48 892.417 56.5067 891.457 54.8C890.497 53.0933 889.19 51.76 887.537 50.8C885.884 49.7867 883.964 49.28 881.777 49.28C879.644 49.28 877.724 49.7867 876.017 50.8C874.364 51.76 873.057 53.0933 872.097 54.8C871.19 56.5067 870.737 58.48 870.737 60.72C870.737 62.96 871.19 64.96 872.097 66.72C873.057 68.48 874.364 69.8667 876.017 70.88C877.724 71.84 879.644 72.32 881.777 72.32ZM926.471 80V24H932.871L956.151 62.32H951.991L975.271 24H981.671V80H972.471V40.16L974.551 40.72L957.271 69.12H950.871L933.591 40.72L935.671 40.16V80H926.471ZM1010.45 80.8C1006.61 80.8 1003.15 79.9467 1000.05 78.24C997.014 76.48 994.588 74.08 992.774 71.04C991.014 68 990.134 64.5867 990.134 60.8C990.134 57.0133 991.014 53.6267 992.774 50.64C994.534 47.6 996.908 45.2 999.894 43.44C1002.93 41.68 1006.29 40.8 1009.97 40.8C1013.55 40.8 1016.69 41.6267 1019.41 43.28C1022.19 44.9333 1024.35 47.2 1025.89 50.08C1027.49 52.96 1028.29 56.24 1028.29 59.92C1028.29 60.56 1028.24 61.2267 1028.13 61.92C1028.08 62.56 1027.97 63.28 1027.81 64.08H996.294V56.88H1023.25L1019.97 59.76C1019.87 57.4133 1019.41 55.44 1018.61 53.84C1017.81 52.24 1016.67 51.0133 1015.17 50.16C1013.73 49.3067 1011.95 48.88 1009.81 48.88C1007.57 48.88 1005.63 49.36 1003.97 50.32C1002.32 51.28 1001.04 52.64 1000.13 54.4C999.228 56.1067 998.774 58.16 998.774 60.56C998.774 62.96 999.254 65.0667 1000.21 66.88C1001.17 68.6933 1002.53 70.1067 1004.29 71.12C1006.05 72.08 1008.08 72.56 1010.37 72.56C1012.35 72.56 1014.16 72.2133 1015.81 71.52C1017.52 70.8267 1018.96 69.8133 1020.13 68.48L1025.73 74.16C1023.87 76.3467 1021.6 78 1018.93 79.12C1016.27 80.24 1013.44 80.8 1010.45 80.8ZM1061.67 80V57.84C1061.67 55.28 1060.84 53.1733 1059.19 51.52C1057.59 49.8667 1055.51 49.04 1052.95 49.04C1051.24 49.04 1049.72 49.4133 1048.39 50.16C1047.06 50.9067 1046.02 51.9467 1045.27 53.28C1044.52 54.6133 1044.15 56.1333 1044.15 57.84L1040.71 55.92C1040.71 52.9867 1041.35 50.4 1042.63 48.16C1043.91 45.8667 1045.67 44.08 1047.91 42.8C1050.2 41.4667 1052.76 40.8 1055.59 40.8C1058.47 40.8 1061.03 41.5467 1063.27 43.04C1065.51 44.48 1067.27 46.3733 1068.55 48.72C1069.83 51.0133 1070.47 53.4133 1070.47 55.92V80H1061.67ZM1035.35 80V41.6H1044.15V80H1035.35ZM1091.97 80.8C1089.84 80.8 1087.78 80.5333 1085.81 80C1083.84 79.4133 1082.02 78.6133 1080.37 77.6C1078.72 76.5333 1077.28 75.2533 1076.05 73.76L1081.65 68.16C1082.98 69.7067 1084.5 70.88 1086.21 71.68C1087.97 72.4267 1089.94 72.8 1092.13 72.8C1094.1 72.8 1095.6 72.5067 1096.61 71.92C1097.62 71.3333 1098.13 70.48 1098.13 69.36C1098.13 68.1867 1097.65 67.28 1096.69 66.64C1095.73 66 1094.48 65.4667 1092.93 65.04C1091.44 64.56 1089.84 64.08 1088.13 63.6C1086.48 63.12 1084.88 62.48 1083.33 61.68C1081.84 60.8267 1080.61 59.68 1079.65 58.24C1078.69 56.8 1078.21 54.9333 1078.21 52.64C1078.21 50.1867 1078.77 48.08 1079.89 46.32C1081.06 44.56 1082.69 43.2 1084.77 42.24C1086.9 41.28 1089.44 40.8 1092.37 40.8C1095.46 40.8 1098.18 41.36 1100.53 42.48C1102.93 43.5467 1104.93 45.1733 1106.53 47.36L1100.93 52.96C1099.81 51.5733 1098.53 50.5333 1097.09 49.84C1095.65 49.1467 1094 48.8 1092.13 48.8C1090.37 48.8 1089.01 49.0667 1088.05 49.6C1087.09 50.1333 1086.61 50.9067 1086.61 51.92C1086.61 52.9867 1087.09 53.8133 1088.05 54.4C1089.01 54.9867 1090.24 55.4933 1091.73 55.92C1093.28 56.3467 1094.88 56.8267 1096.53 57.36C1098.24 57.84 1099.84 58.5333 1101.33 59.44C1102.88 60.2933 1104.13 61.4667 1105.09 62.96C1106.05 64.4 1106.53 66.2933 1106.53 68.64C1106.53 72.3733 1105.22 75.3333 1102.61 77.52C1100 79.7067 1096.45 80.8 1091.97 80.8ZM1129.87 80.8C1126.4 80.8 1123.25 79.92 1120.43 78.16C1117.65 76.4 1115.44 74.0267 1113.79 71.04C1112.19 68 1111.39 64.6133 1111.39 60.88C1111.39 57.0933 1112.19 53.7067 1113.79 50.72C1115.44 47.68 1117.65 45.28 1120.43 43.52C1123.25 41.7067 1126.4 40.8 1129.87 40.8C1132.8 40.8 1135.39 41.44 1137.63 42.72C1139.92 43.9467 1141.73 45.6533 1143.07 47.84C1144.4 50.0267 1145.07 52.5067 1145.07 55.28V66.32C1145.07 69.0933 1144.4 71.5733 1143.07 73.76C1141.79 75.9467 1140 77.68 1137.71 78.96C1135.41 80.1867 1132.8 80.8 1129.87 80.8ZM1131.31 72.48C1134.56 72.48 1137.17 71.3867 1139.15 69.2C1141.17 67.0133 1142.19 64.2133 1142.19 60.8C1142.19 58.5067 1141.73 56.48 1140.83 54.72C1139.92 52.96 1138.64 51.6 1136.99 50.64C1135.39 49.6267 1133.49 49.12 1131.31 49.12C1129.17 49.12 1127.28 49.6267 1125.63 50.64C1124.03 51.6 1122.75 52.96 1121.79 54.72C1120.88 56.48 1120.43 58.5067 1120.43 60.8C1120.43 63.0933 1120.88 65.12 1121.79 66.88C1122.75 68.64 1124.03 70.0267 1125.63 71.04C1127.28 72 1129.17 72.48 1131.31 72.48ZM1141.63 80V69.68L1143.15 60.32L1141.63 51.04V41.6H1150.43V80H1141.63ZM1160.19 80V22.4H1168.99V80H1160.19ZM1212.64 80.8C1208.8 80.8 1205.34 79.9467 1202.24 78.24C1199.2 76.48 1196.78 74.08 1194.96 71.04C1193.2 68 1192.32 64.5867 1192.32 60.8C1192.32 57.0133 1193.2 53.6267 1194.96 50.64C1196.72 47.6 1199.1 45.2 1202.08 43.44C1205.12 41.68 1208.48 40.8 1212.16 40.8C1215.74 40.8 1218.88 41.6267 1221.6 43.28C1224.38 44.9333 1226.54 47.2 1228.08 50.08C1229.68 52.96 1230.48 56.24 1230.48 59.92C1230.48 60.56 1230.43 61.2267 1230.32 61.92C1230.27 62.56 1230.16 63.28 1230 64.08H1198.48V56.88H1225.44L1222.16 59.76C1222.06 57.4133 1221.6 55.44 1220.8 53.84C1220 52.24 1218.86 51.0133 1217.36 50.16C1215.92 49.3067 1214.14 48.88 1212 48.88C1209.76 48.88 1207.82 49.36 1206.16 50.32C1204.51 51.28 1203.23 52.64 1202.32 54.4C1201.42 56.1067 1200.96 58.16 1200.96 60.56C1200.96 62.96 1201.44 65.0667 1202.4 66.88C1203.36 68.6933 1204.72 70.1067 1206.48 71.12C1208.24 72.08 1210.27 72.56 1212.56 72.56C1214.54 72.56 1216.35 72.2133 1218 71.52C1219.71 70.8267 1221.15 69.8133 1222.32 68.48L1227.92 74.16C1226.06 76.3467 1223.79 78 1221.12 79.12C1218.46 80.24 1215.63 80.8 1212.64 80.8ZM1263.86 80V57.84C1263.86 55.28 1263.03 53.1733 1261.38 51.52C1259.78 49.8667 1257.7 49.04 1255.14 49.04C1253.43 49.04 1251.91 49.4133 1250.58 50.16C1249.24 50.9067 1248.2 51.9467 1247.46 53.28C1246.71 54.6133 1246.34 56.1333 1246.34 57.84L1242.9 55.92C1242.9 52.9867 1243.54 50.4 1244.82 48.16C1246.1 45.8667 1247.86 44.08 1250.1 42.8C1252.39 41.4667 1254.95 40.8 1257.78 40.8C1260.66 40.8 1263.22 41.5467 1265.46 43.04C1267.7 44.48 1269.46 46.3733 1270.74 48.72C1272.02 51.0133 1272.66 53.4133 1272.66 55.92V80H1263.86ZM1237.54 80V41.6H1246.34V80H1237.54ZM1286.97 80V25.6H1295.77V80H1286.97ZM1277.77 49.6V41.6H1304.97V49.6H1277.77ZM1311.36 80V41.6H1320.16V80H1311.36ZM1320.16 58.64L1317.12 57.12C1317.12 52.2667 1318.19 48.3467 1320.32 45.36C1322.51 42.32 1325.79 40.8 1330.16 40.8C1332.08 40.8 1333.82 41.1467 1335.36 41.84C1336.91 42.5333 1338.35 43.6533 1339.68 45.2L1333.92 51.12C1333.23 50.3733 1332.46 49.84 1331.6 49.52C1330.75 49.2 1329.76 49.04 1328.64 49.04C1326.19 49.04 1324.16 49.8133 1322.56 51.36C1320.96 52.9067 1320.16 55.3333 1320.16 58.64ZM1360.61 80.8C1356.77 80.8 1353.3 79.9467 1350.21 78.24C1347.17 76.48 1344.74 74.08 1342.93 71.04C1341.17 68 1340.29 64.5867 1340.29 60.8C1340.29 57.0133 1341.17 53.6267 1342.93 50.64C1344.69 47.6 1347.06 45.2 1350.05 43.44C1353.09 41.68 1356.45 40.8 1360.13 40.8C1363.7 40.8 1366.85 41.6267 1369.57 43.28C1372.34 44.9333 1374.5 47.2 1376.05 50.08C1377.65 52.96 1378.45 56.24 1378.45 59.92C1378.45 60.56 1378.4 61.2267 1378.29 61.92C1378.24 62.56 1378.13 63.28 1377.97 64.08H1346.45V56.88H1373.41L1370.13 59.76C1370.02 57.4133 1369.57 55.44 1368.77 53.84C1367.97 52.24 1366.82 51.0133 1365.33 50.16C1363.89 49.3067 1362.1 48.88 1359.97 48.88C1357.73 48.88 1355.78 49.36 1354.13 50.32C1352.48 51.28 1351.2 52.64 1350.29 54.4C1349.38 56.1067 1348.93 58.16 1348.93 60.56C1348.93 62.96 1349.41 65.0667 1350.37 66.88C1351.33 68.6933 1352.69 70.1067 1354.45 71.12C1356.21 72.08 1358.24 72.56 1360.53 72.56C1362.5 72.56 1364.32 72.2133 1365.97 71.52C1367.68 70.8267 1369.12 69.8133 1370.29 68.48L1375.89 74.16C1374.02 76.3467 1371.76 78 1369.09 79.12C1366.42 80.24 1363.6 80.8 1360.61 80.8ZM1402.72 80V24H1411.92V80H1402.72ZM1438.32 80V24H1447.52V80H1438.32ZM1409.04 55.2V46.8H1440.32V55.2H1409.04ZM1476.07 80.8C1472.34 80.8 1468.95 79.92 1465.91 78.16C1462.87 76.3467 1460.45 73.92 1458.63 70.88C1456.87 67.84 1455.99 64.4533 1455.99 60.72C1455.99 56.9867 1456.87 53.6267 1458.63 50.64C1460.45 47.6533 1462.87 45.28 1465.91 43.52C1468.95 41.7067 1472.34 40.8 1476.07 40.8C1479.86 40.8 1483.27 41.68 1486.31 43.44C1489.35 45.2 1491.75 47.6 1493.51 50.64C1495.33 53.6267 1496.23 56.9867 1496.23 60.72C1496.23 64.4533 1495.33 67.84 1493.51 70.88C1491.75 73.92 1489.35 76.3467 1486.31 78.16C1483.27 79.92 1479.86 80.8 1476.07 80.8ZM1476.07 72.32C1478.26 72.32 1480.18 71.84 1481.83 70.88C1483.54 69.8667 1484.85 68.48 1485.75 66.72C1486.71 64.96 1487.19 62.96 1487.19 60.72C1487.19 58.48 1486.71 56.5067 1485.75 54.8C1484.79 53.0933 1483.49 51.76 1481.83 50.8C1480.18 49.7867 1478.26 49.28 1476.07 49.28C1473.94 49.28 1472.02 49.7867 1470.31 50.8C1468.66 51.76 1467.35 53.0933 1466.39 54.8C1465.49 56.5067 1465.03 58.48 1465.03 60.72C1465.03 62.96 1465.49 64.96 1466.39 66.72C1467.35 68.48 1468.66 69.8667 1470.31 70.88C1472.02 71.84 1473.94 72.32 1476.07 72.32ZM1503.55 80V41.6H1512.35V80H1503.55ZM1529.07 80V57.12C1529.07 54.56 1528.27 52.5867 1526.67 51.2C1525.07 49.76 1523.1 49.04 1520.75 49.04C1519.15 49.04 1517.71 49.36 1516.43 50C1515.21 50.64 1514.22 51.5733 1513.47 52.8C1512.73 53.9733 1512.35 55.4133 1512.35 57.12L1508.91 55.2C1508.91 52.2667 1509.55 49.7333 1510.83 47.6C1512.11 45.4667 1513.85 43.8133 1516.03 42.64C1518.22 41.4133 1520.67 40.8 1523.39 40.8C1526.11 40.8 1528.57 41.3867 1530.75 42.56C1532.94 43.7333 1534.67 45.3867 1535.95 47.52C1537.23 49.6533 1537.87 52.2133 1537.87 55.2V80H1529.07ZM1554.59 80V57.12C1554.59 54.56 1553.79 52.5867 1552.19 51.2C1550.59 49.76 1548.62 49.04 1546.27 49.04C1544.73 49.04 1543.31 49.36 1542.03 50C1540.75 50.64 1539.74 51.5733 1538.99 52.8C1538.25 53.9733 1537.87 55.4133 1537.87 57.12L1532.91 55.2C1533.18 52.2667 1534.03 49.7333 1535.47 47.6C1536.91 45.4667 1538.75 43.8133 1540.99 42.64C1543.29 41.4133 1545.79 40.8 1548.51 40.8C1551.29 40.8 1553.79 41.3867 1556.03 42.56C1558.27 43.7333 1560.06 45.3867 1561.39 47.52C1562.73 49.6533 1563.39 52.2133 1563.39 55.2V80H1554.59ZM1590.3 80.8C1586.46 80.8 1582.99 79.9467 1579.9 78.24C1576.86 76.48 1574.43 74.08 1572.62 71.04C1570.86 68 1569.98 64.5867 1569.98 60.8C1569.98 57.0133 1570.86 53.6267 1572.62 50.64C1574.38 47.6 1576.75 45.2 1579.74 43.44C1582.78 41.68 1586.14 40.8 1589.82 40.8C1593.39 40.8 1596.54 41.6267 1599.26 43.28C1602.03 44.9333 1604.19 47.2 1605.74 50.08C1607.34 52.96 1608.14 56.24 1608.14 59.92C1608.14 60.56 1608.08 61.2267 1607.98 61.92C1607.92 62.56 1607.82 63.28 1607.66 64.08H1576.14V56.88H1603.1L1599.82 59.76C1599.71 57.4133 1599.26 55.44 1598.46 53.84C1597.66 52.24 1596.51 51.0133 1595.02 50.16C1593.58 49.3067 1591.79 48.88 1589.66 48.88C1587.42 48.88 1585.47 49.36 1583.82 50.32C1582.16 51.28 1580.88 52.64 1579.98 54.4C1579.07 56.1067 1578.62 58.16 1578.62 60.56C1578.62 62.96 1579.1 65.0667 1580.06 66.88C1581.02 68.6933 1582.38 70.1067 1584.14 71.12C1585.9 72.08 1587.92 72.56 1590.22 72.56C1592.19 72.56 1594 72.2133 1595.66 71.52C1597.36 70.8267 1598.8 69.8133 1599.98 68.48L1605.58 74.16C1603.71 76.3467 1601.44 78 1598.78 79.12C1596.11 80.24 1593.28 80.8 1590.3 80.8ZM1641.51 80V57.84C1641.51 55.28 1640.69 53.1733 1639.03 51.52C1637.43 49.8667 1635.35 49.04 1632.79 49.04C1631.09 49.04 1629.57 49.4133 1628.23 50.16C1626.9 50.9067 1625.86 51.9467 1625.11 53.28C1624.37 54.6133 1623.99 56.1333 1623.99 57.84L1620.55 55.92C1620.55 52.9867 1621.19 50.4 1622.47 48.16C1623.75 45.8667 1625.51 44.08 1627.75 42.8C1630.05 41.4667 1632.61 40.8 1635.43 40.8C1638.31 40.8 1640.87 41.5467 1643.11 43.04C1645.35 44.48 1647.11 46.3733 1648.39 48.72C1649.67 51.0133 1650.31 53.4133 1650.31 55.92V80H1641.51ZM1615.19 80V41.6H1623.99V80H1615.19ZM1671.82 80.8C1669.68 80.8 1667.63 80.5333 1665.66 80C1663.68 79.4133 1661.87 78.6133 1660.22 77.6C1658.56 76.5333 1657.12 75.2533 1655.9 73.76L1661.5 68.16C1662.83 69.7067 1664.35 70.88 1666.06 71.68C1667.82 72.4267 1669.79 72.8 1671.98 72.8C1673.95 72.8 1675.44 72.5067 1676.46 71.92C1677.47 71.3333 1677.98 70.48 1677.98 69.36C1677.98 68.1867 1677.5 67.28 1676.54 66.64C1675.58 66 1674.32 65.4667 1672.78 65.04C1671.28 64.56 1669.68 64.08 1667.98 63.6C1666.32 63.12 1664.72 62.48 1663.18 61.68C1661.68 60.8267 1660.46 59.68 1659.5 58.24C1658.54 56.8 1658.06 54.9333 1658.06 52.64C1658.06 50.1867 1658.62 48.08 1659.74 46.32C1660.91 44.56 1662.54 43.2 1664.62 42.24C1666.75 41.28 1669.28 40.8 1672.22 40.8C1675.31 40.8 1678.03 41.36 1680.38 42.48C1682.78 43.5467 1684.78 45.1733 1686.38 47.36L1680.78 52.96C1679.66 51.5733 1678.38 50.5333 1676.94 49.84C1675.5 49.1467 1673.84 48.8 1671.98 48.8C1670.22 48.8 1668.86 49.0667 1667.9 49.6C1666.94 50.1333 1666.46 50.9067 1666.46 51.92C1666.46 52.9867 1666.94 53.8133 1667.9 54.4C1668.86 54.9867 1670.08 55.4933 1671.58 55.92C1673.12 56.3467 1674.72 56.8267 1676.38 57.36C1678.08 57.84 1679.68 58.5333 1681.18 59.44C1682.72 60.2933 1683.98 61.4667 1684.94 62.96C1685.9 64.4 1686.38 66.2933 1686.38 68.64C1686.38 72.3733 1685.07 75.3333 1682.46 77.52C1679.84 79.7067 1676.3 80.8 1671.82 80.8ZM1727.49 80.8C1723.65 80.8 1720.18 79.9467 1717.09 78.24C1714.05 76.48 1711.62 74.08 1709.81 71.04C1708.05 68 1707.17 64.5867 1707.17 60.8C1707.17 57.0133 1708.05 53.6267 1709.81 50.64C1711.57 47.6 1713.94 45.2 1716.93 43.44C1719.97 41.68 1723.33 40.8 1727.01 40.8C1730.58 40.8 1733.73 41.6267 1736.45 43.28C1739.22 44.9333 1741.38 47.2 1742.93 50.08C1744.53 52.96 1745.33 56.24 1745.33 59.92C1745.33 60.56 1745.27 61.2267 1745.17 61.92C1745.11 62.56 1745.01 63.28 1744.85 64.08H1713.33V56.88H1740.29L1737.01 59.76C1736.9 57.4133 1736.45 55.44 1735.65 53.84C1734.85 52.24 1733.7 51.0133 1732.21 50.16C1730.77 49.3067 1728.98 48.88 1726.85 48.88C1724.61 48.88 1722.66 49.36 1721.01 50.32C1719.35 51.28 1718.07 52.64 1717.17 54.4C1716.26 56.1067 1715.81 58.16 1715.81 60.56C1715.81 62.96 1716.29 65.0667 1717.25 66.88C1718.21 68.6933 1719.57 70.1067 1721.33 71.12C1723.09 72.08 1725.11 72.56 1727.41 72.56C1729.38 72.56 1731.19 72.2133 1732.85 71.52C1734.55 70.8267 1735.99 69.8133 1737.17 68.48L1742.77 74.16C1740.9 76.3467 1738.63 78 1735.97 79.12C1733.3 80.24 1730.47 80.8 1727.49 80.8ZM1769.6 80V24H1776L1799.28 62.32H1795.12L1818.4 24H1824.8V80H1815.6V40.16L1817.68 40.72L1800.4 69.12H1794L1776.72 40.72L1778.8 40.16V80H1769.6ZM1851.5 80.8C1848.25 80.8 1845.34 80.08 1842.78 78.64C1840.27 77.2 1838.3 75.2267 1836.86 72.72C1835.47 70.16 1834.78 67.2267 1834.78 63.92V41.6H1843.58V63.52C1843.58 65.3867 1843.87 66.9867 1844.46 68.32C1845.1 69.6 1846.01 70.5867 1847.18 71.28C1848.41 71.9733 1849.85 72.32 1851.5 72.32C1854.06 72.32 1856.01 71.5733 1857.34 70.08C1858.73 68.5333 1859.42 66.3467 1859.42 63.52V41.6H1868.22V63.92C1868.22 67.28 1867.5 70.24 1866.06 72.8C1864.67 75.3067 1862.73 77.28 1860.22 78.72C1857.71 80.1067 1854.81 80.8 1851.5 80.8ZM1877.07 80V22.4H1885.87V80H1877.07ZM1921.98 80V57.84C1921.98 55.28 1921.15 53.1733 1919.5 51.52C1917.9 49.8667 1915.82 49.04 1913.26 49.04C1911.55 49.04 1910.03 49.4133 1908.7 50.16C1907.37 50.9067 1906.33 51.9467 1905.58 53.28C1904.83 54.6133 1904.46 56.1333 1904.46 57.84L1901.02 55.92C1901.02 52.9867 1901.66 50.4 1902.94 48.16C1904.22 45.8667 1905.98 44.08 1908.22 42.8C1910.51 41.4667 1913.07 40.8 1915.9 40.8C1918.78 40.8 1921.34 41.44 1923.58 42.72C1925.82 44 1927.58 45.7867 1928.86 48.08C1930.14 50.32 1930.78 52.9333 1930.78 55.92V80H1921.98ZM1895.66 80V22.4H1904.46V80H1895.66ZM1957.56 80.8C1953.72 80.8 1950.26 79.9467 1947.16 78.24C1944.12 76.48 1941.7 74.08 1939.88 71.04C1938.12 68 1937.24 64.5867 1937.24 60.8C1937.24 57.0133 1938.12 53.6267 1939.88 50.64C1941.64 47.6 1944.02 45.2 1947 43.44C1950.04 41.68 1953.4 40.8 1957.08 40.8C1960.66 40.8 1963.8 41.6267 1966.52 43.28C1969.3 44.9333 1971.46 47.2 1973 50.08C1974.6 52.96 1975.4 56.24 1975.4 59.92C1975.4 60.56 1975.35 61.2267 1975.24 61.92C1975.19 62.56 1975.08 63.28 1974.92 64.08H1943.4V56.88H1970.36L1967.08 59.76C1966.98 57.4133 1966.52 55.44 1965.72 53.84C1964.92 52.24 1963.78 51.0133 1962.28 50.16C1960.84 49.3067 1959.06 48.88 1956.92 48.88C1954.68 48.88 1952.74 49.36 1951.08 50.32C1949.43 51.28 1948.15 52.64 1947.24 54.4C1946.34 56.1067 1945.88 58.16 1945.88 60.56C1945.88 62.96 1946.36 65.0667 1947.32 66.88C1948.28 68.6933 1949.64 70.1067 1951.4 71.12C1953.16 72.08 1955.19 72.56 1957.48 72.56C1959.46 72.56 1961.27 72.2133 1962.92 71.52C1964.63 70.8267 1966.07 69.8133 1967.24 68.48L1972.84 74.16C1970.98 76.3467 1968.71 78 1966.04 79.12C1963.38 80.24 1960.55 80.8 1957.56 80.8ZM1982.46 80V41.6H1991.26V80H1982.46ZM1991.26 58.64L1988.22 57.12C1988.22 52.2667 1989.28 48.3467 1991.42 45.36C1993.6 42.32 1996.88 40.8 2001.26 40.8C2003.18 40.8 2004.91 41.1467 2006.46 41.84C2008 42.5333 2009.44 43.6533 2010.78 45.2L2005.02 51.12C2004.32 50.3733 2003.55 49.84 2002.7 49.52C2001.84 49.2 2000.86 49.04 1999.74 49.04C1997.28 49.04 1995.26 49.8133 1993.66 51.36C1992.06 52.9067 1991.26 55.3333 1991.26 58.64ZM2031.7 80.8C2027.86 80.8 2024.4 79.9467 2021.3 78.24C2018.26 76.48 2015.84 74.08 2014.02 71.04C2012.26 68 2011.38 64.5867 2011.38 60.8C2011.38 57.0133 2012.26 53.6267 2014.02 50.64C2015.78 47.6 2018.16 45.2 2021.14 43.44C2024.18 41.68 2027.54 40.8 2031.22 40.8C2034.8 40.8 2037.94 41.6267 2040.66 43.28C2043.44 44.9333 2045.6 47.2 2047.14 50.08C2048.74 52.96 2049.54 56.24 2049.54 59.92C2049.54 60.56 2049.49 61.2267 2049.38 61.92C2049.33 62.56 2049.22 63.28 2049.06 64.08H2017.54V56.88H2044.5L2041.22 59.76C2041.12 57.4133 2040.66 55.44 2039.86 53.84C2039.06 52.24 2037.92 51.0133 2036.42 50.16C2034.98 49.3067 2033.2 48.88 2031.06 48.88C2028.82 48.88 2026.88 49.36 2025.22 50.32C2023.57 51.28 2022.29 52.64 2021.38 54.4C2020.48 56.1067 2020.02 58.16 2020.02 60.56C2020.02 62.96 2020.5 65.0667 2021.46 66.88C2022.42 68.6933 2023.78 70.1067 2025.54 71.12C2027.3 72.08 2029.33 72.56 2031.62 72.56C2033.6 72.56 2035.41 72.2133 2037.06 71.52C2038.77 70.8267 2040.21 69.8133 2041.38 68.48L2046.98 74.16C2045.12 76.3467 2042.85 78 2040.18 79.12C2037.52 80.24 2034.69 80.8 2031.7 80.8ZM2069.16 80.8C2067.03 80.8 2064.97 80.5333 2063 80C2061.03 79.4133 2059.21 78.6133 2057.56 77.6C2055.91 76.5333 2054.47 75.2533 2053.24 73.76L2058.84 68.16C2060.17 69.7067 2061.69 70.88 2063.4 71.68C2065.16 72.4267 2067.13 72.8 2069.32 72.8C2071.29 72.8 2072.79 72.5067 2073.8 71.92C2074.81 71.3333 2075.32 70.48 2075.32 69.36C2075.32 68.1867 2074.84 67.28 2073.88 66.64C2072.92 66 2071.67 65.4667 2070.12 65.04C2068.63 64.56 2067.03 64.08 2065.32 63.6C2063.67 63.12 2062.07 62.48 2060.52 61.68C2059.03 60.8267 2057.8 59.68 2056.84 58.24C2055.88 56.8 2055.4 54.9333 2055.4 52.64C2055.4 50.1867 2055.96 48.08 2057.08 46.32C2058.25 44.56 2059.88 43.2 2061.96 42.24C2064.09 41.28 2066.63 40.8 2069.56 40.8C2072.65 40.8 2075.37 41.36 2077.72 42.48C2080.12 43.5467 2082.12 45.1733 2083.72 47.36L2078.12 52.96C2077 51.5733 2075.72 50.5333 2074.28 49.84C2072.84 49.1467 2071.19 48.8 2069.32 48.8C2067.56 48.8 2066.2 49.0667 2065.24 49.6C2064.28 50.1333 2063.8 50.9067 2063.8 51.92C2063.8 52.9867 2064.28 53.8133 2065.24 54.4C2066.2 54.9867 2067.43 55.4933 2068.92 55.92C2070.47 56.3467 2072.07 56.8267 2073.72 57.36C2075.43 57.84 2077.03 58.5333 2078.52 59.44C2080.07 60.2933 2081.32 61.4667 2082.28 62.96C2083.24 64.4 2083.72 66.2933 2083.72 68.64C2083.72 72.3733 2082.41 75.3333 2079.8 77.52C2077.19 79.7067 2073.64 80.8 2069.16 80.8ZM2127.55 80.8C2124.62 80.8 2122 80.1867 2119.71 78.96C2117.42 77.68 2115.6 75.9467 2114.27 73.76C2112.99 71.5733 2112.35 69.0933 2112.35 66.32V55.28C2112.35 52.5067 2113.02 50.0267 2114.35 47.84C2115.68 45.6533 2117.5 43.9467 2119.79 42.72C2122.08 41.44 2124.67 40.8 2127.55 40.8C2131.02 40.8 2134.14 41.7067 2136.91 43.52C2139.74 45.28 2141.95 47.68 2143.55 50.72C2145.2 53.7067 2146.03 57.0933 2146.03 60.88C2146.03 64.6133 2145.2 68 2143.55 71.04C2141.95 74.0267 2139.74 76.4 2136.91 78.16C2134.14 79.92 2131.02 80.8 2127.55 80.8ZM2106.99 96V41.6H2115.79V51.92L2114.27 61.28L2115.79 70.56V96H2106.99ZM2126.11 72.48C2128.24 72.48 2130.11 72 2131.71 71.04C2133.36 70.0267 2134.64 68.64 2135.55 66.88C2136.51 65.12 2136.99 63.0933 2136.99 60.8C2136.99 58.5067 2136.51 56.48 2135.55 54.72C2134.64 52.96 2133.36 51.6 2131.71 50.64C2130.11 49.6267 2128.24 49.12 2126.11 49.12C2123.98 49.12 2122.08 49.6267 2120.43 50.64C2118.78 51.6 2117.5 52.96 2116.59 54.72C2115.68 56.48 2115.23 58.5067 2115.23 60.8C2115.23 63.0933 2115.68 65.12 2116.59 66.88C2117.5 68.64 2118.78 70.0267 2120.43 71.04C2122.08 72 2123.98 72.48 2126.11 72.48ZM2171 80.8C2167.26 80.8 2163.88 79.92 2160.84 78.16C2157.8 76.3467 2155.37 73.92 2153.56 70.88C2151.8 67.84 2150.92 64.4533 2150.92 60.72C2150.92 56.9867 2151.8 53.6267 2153.56 50.64C2155.37 47.6533 2157.8 45.28 2160.84 43.52C2163.88 41.7067 2167.26 40.8 2171 40.8C2174.78 40.8 2178.2 41.68 2181.24 43.44C2184.28 45.2 2186.68 47.6 2188.44 50.64C2190.25 53.6267 2191.16 56.9867 2191.16 60.72C2191.16 64.4533 2190.25 67.84 2188.44 70.88C2186.68 73.92 2184.28 76.3467 2181.24 78.16C2178.2 79.92 2174.78 80.8 2171 80.8ZM2171 72.32C2173.18 72.32 2175.1 71.84 2176.76 70.88C2178.46 69.8667 2179.77 68.48 2180.68 66.72C2181.64 64.96 2182.12 62.96 2182.12 60.72C2182.12 58.48 2181.64 56.5067 2180.68 54.8C2179.72 53.0933 2178.41 51.76 2176.76 50.8C2175.1 49.7867 2173.18 49.28 2171 49.28C2168.86 49.28 2166.94 49.7867 2165.24 50.8C2163.58 51.76 2162.28 53.0933 2161.32 54.8C2160.41 56.5067 2159.96 58.48 2159.96 60.72C2159.96 62.96 2160.41 64.96 2161.32 66.72C2162.28 68.48 2163.58 69.8667 2165.24 70.88C2166.94 71.84 2168.86 72.32 2171 72.32ZM2198.47 80V41.6H2207.27V80H2198.47ZM2207.27 58.64L2204.23 57.12C2204.23 52.2667 2205.3 48.3467 2207.43 45.36C2209.62 42.32 2212.9 40.8 2217.27 40.8C2219.19 40.8 2220.93 41.1467 2222.47 41.84C2224.02 42.5333 2225.46 43.6533 2226.79 45.2L2221.03 51.12C2220.34 50.3733 2219.57 49.84 2218.71 49.52C2217.86 49.2 2216.87 49.04 2215.75 49.04C2213.3 49.04 2211.27 49.8133 2209.67 51.36C2208.07 52.9067 2207.27 55.3333 2207.27 58.64ZM2274.95 80.8C2271.11 80.8 2267.49 80.0533 2264.07 78.56C2260.66 77.0667 2257.67 75.0133 2255.11 72.4C2252.55 69.7333 2250.53 66.6667 2249.03 63.2C2247.59 59.68 2246.87 55.92 2246.87 51.92C2246.87 47.92 2247.59 44.1867 2249.03 40.72C2250.53 37.2533 2252.55 34.2133 2255.11 31.6C2257.73 28.9333 2260.77 26.88 2264.23 25.44C2267.75 23.9467 2271.54 23.2 2275.59 23.2C2280.02 23.2 2284.13 24.0533 2287.91 25.76C2291.7 27.4667 2294.87 29.8933 2297.43 33.04L2291.19 39.28C2289.54 36.9333 2287.33 35.1467 2284.55 33.92C2281.78 32.64 2278.79 32 2275.59 32C2271.75 32 2268.37 32.8533 2265.43 34.56C2262.55 36.2133 2260.31 38.5333 2258.71 41.52C2257.11 44.5067 2256.31 47.9733 2256.31 51.92C2256.31 55.8667 2257.11 59.36 2258.71 62.4C2260.37 65.3867 2262.58 67.7333 2265.35 69.44C2268.13 71.1467 2271.27 72 2274.79 72C2278.53 72 2281.73 71.3333 2284.39 70C2287.11 68.6133 2289.19 66.5867 2290.63 63.92C2292.07 61.2 2292.79 57.8667 2292.79 53.92L2298.55 58.08H2274.63V49.68H2302.31V50.96C2302.31 57.6267 2301.11 63.1733 2298.71 67.6C2296.37 72.0267 2293.14 75.3333 2289.03 77.52C2284.93 79.7067 2280.23 80.8 2274.95 80.8ZM2310.27 80V41.6H2319.07V80H2310.27ZM2319.07 58.64L2316.03 57.12C2316.03 52.2667 2317.1 48.3467 2319.23 45.36C2321.42 42.32 2324.7 40.8 2329.07 40.8C2330.99 40.8 2332.72 41.1467 2334.27 41.84C2335.82 42.5333 2337.26 43.6533 2338.59 45.2L2332.83 51.12C2332.14 50.3733 2331.36 49.84 2330.51 49.52C2329.66 49.2 2328.67 49.04 2327.55 49.04C2325.1 49.04 2323.07 49.8133 2321.47 51.36C2319.87 52.9067 2319.07 55.3333 2319.07 58.64ZM2357.76 80.8C2354.29 80.8 2351.14 79.92 2348.32 78.16C2345.54 76.4 2343.33 74.0267 2341.68 71.04C2340.08 68 2339.28 64.6133 2339.28 60.88C2339.28 57.0933 2340.08 53.7067 2341.68 50.72C2343.33 47.68 2345.54 45.28 2348.32 43.52C2351.14 41.7067 2354.29 40.8 2357.76 40.8C2360.69 40.8 2363.28 41.44 2365.52 42.72C2367.81 43.9467 2369.62 45.6533 2370.96 47.84C2372.29 50.0267 2372.96 52.5067 2372.96 55.28V66.32C2372.96 69.0933 2372.29 71.5733 2370.96 73.76C2369.68 75.9467 2367.89 77.68 2365.6 78.96C2363.3 80.1867 2360.69 80.8 2357.76 80.8ZM2359.2 72.48C2362.45 72.48 2365.06 71.3867 2367.04 69.2C2369.06 67.0133 2370.08 64.2133 2370.08 60.8C2370.08 58.5067 2369.62 56.48 2368.72 54.72C2367.81 52.96 2366.53 51.6 2364.88 50.64C2363.28 49.6267 2361.38 49.12 2359.2 49.12C2357.06 49.12 2355.17 49.6267 2353.52 50.64C2351.92 51.6 2350.64 52.96 2349.68 54.72C2348.77 56.48 2348.32 58.5067 2348.32 60.8C2348.32 63.0933 2348.77 65.12 2349.68 66.88C2350.64 68.64 2351.92 70.0267 2353.52 71.04C2355.17 72 2357.06 72.48 2359.2 72.48ZM2369.52 80V69.68L2371.04 60.32L2369.52 51.04V41.6H2378.32V80H2369.52ZM2403.84 80.8C2400.59 80.8 2397.68 80.08 2395.12 78.64C2392.62 77.2 2390.64 75.2267 2389.2 72.72C2387.82 70.16 2387.12 67.2267 2387.12 63.92V41.6H2395.92V63.52C2395.92 65.3867 2396.22 66.9867 2396.8 68.32C2397.44 69.6 2398.35 70.5867 2399.52 71.28C2400.75 71.9733 2402.19 72.32 2403.84 72.32C2406.4 72.32 2408.35 71.5733 2409.68 70.08C2411.07 68.5333 2411.76 66.3467 2411.76 63.52V41.6H2420.56V63.92C2420.56 67.28 2419.84 70.24 2418.4 72.8C2417.02 75.3067 2415.07 77.28 2412.56 78.72C2410.06 80.1067 2407.15 80.8 2403.84 80.8ZM2461.51 80.8C2458.04 80.8 2454.89 79.92 2452.07 78.16C2449.29 76.4 2447.08 74.0267 2445.43 71.04C2443.83 68 2443.03 64.6133 2443.03 60.88C2443.03 57.0933 2443.83 53.7067 2445.43 50.72C2447.08 47.68 2449.29 45.28 2452.07 43.52C2454.89 41.7067 2458.04 40.8 2461.51 40.8C2464.44 40.8 2467.03 41.44 2469.27 42.72C2471.56 43.9467 2473.37 45.6533 2474.71 47.84C2476.04 50.0267 2476.71 52.5067 2476.71 55.28V66.32C2476.71 69.0933 2476.04 71.5733 2474.71 73.76C2473.43 75.9467 2471.64 77.68 2469.35 78.96C2467.05 80.1867 2464.44 80.8 2461.51 80.8ZM2462.95 72.48C2465.13 72.48 2467.03 72 2468.63 71.04C2470.28 70.0267 2471.56 68.64 2472.47 66.88C2473.37 65.12 2473.83 63.0933 2473.83 60.8C2473.83 58.5067 2473.37 56.48 2472.47 54.72C2471.56 52.96 2470.28 51.6 2468.63 50.64C2467.03 49.6267 2465.13 49.12 2462.95 49.12C2460.81 49.12 2458.92 49.6267 2457.27 50.64C2455.67 51.6 2454.39 52.96 2453.43 54.72C2452.52 56.48 2452.07 58.5067 2452.07 60.8C2452.07 63.0933 2452.52 65.12 2453.43 66.88C2454.39 68.64 2455.67 70.0267 2457.27 71.04C2458.92 72 2460.81 72.48 2462.95 72.48ZM2482.07 80H2473.27V69.68L2474.79 60.32L2473.27 51.04V22.4H2482.07V80ZM2509.67 80.8C2505.83 80.8 2502.37 79.9467 2499.27 78.24C2496.23 76.48 2493.81 74.08 2491.99 71.04C2490.23 68 2489.35 64.5867 2489.35 60.8C2489.35 57.0133 2490.23 53.6267 2491.99 50.64C2493.75 47.6 2496.13 45.2 2499.11 43.44C2502.15 41.68 2505.51 40.8 2509.19 40.8C2512.77 40.8 2515.91 41.6267 2518.63 43.28C2521.41 44.9333 2523.57 47.2 2525.11 50.08C2526.71 52.96 2527.51 56.24 2527.51 59.92C2527.51 60.56 2527.46 61.2267 2527.35 61.92C2527.3 62.56 2527.19 63.28 2527.03 64.08H2495.51V56.88H2522.47L2519.19 59.76C2519.09 57.4133 2518.63 55.44 2517.83 53.84C2517.03 52.24 2515.89 51.0133 2514.39 50.16C2512.95 49.3067 2511.17 48.88 2509.03 48.88C2506.79 48.88 2504.85 49.36 2503.19 50.32C2501.54 51.28 2500.26 52.64 2499.35 54.4C2498.45 56.1067 2497.99 58.16 2497.99 60.56C2497.99 62.96 2498.47 65.0667 2499.43 66.88C2500.39 68.6933 2501.75 70.1067 2503.51 71.12C2505.27 72.08 2507.3 72.56 2509.59 72.56C2511.57 72.56 2513.38 72.2133 2515.03 71.52C2516.74 70.8267 2518.18 69.8133 2519.35 68.48L2524.95 74.16C2523.09 76.3467 2520.82 78 2518.15 79.12C2515.49 80.24 2512.66 80.8 2509.67 80.8ZM2551.78 80V24H2560.98V80H2551.78ZM2598.23 80V57.84C2598.23 55.28 2597.4 53.1733 2595.75 51.52C2594.15 49.8667 2592.07 49.04 2589.51 49.04C2587.8 49.04 2586.28 49.4133 2584.95 50.16C2583.62 50.9067 2582.58 51.9467 2581.83 53.28C2581.08 54.6133 2580.71 56.1333 2580.71 57.84L2577.27 55.92C2577.27 52.9867 2577.91 50.4 2579.19 48.16C2580.47 45.8667 2582.23 44.08 2584.47 42.8C2586.76 41.4667 2589.32 40.8 2592.15 40.8C2595.03 40.8 2597.59 41.5467 2599.83 43.04C2602.07 44.48 2603.83 46.3733 2605.11 48.72C2606.39 51.0133 2607.03 53.4133 2607.03 55.92V80H2598.23ZM2571.91 80V41.6H2580.71V80H2571.91ZM2628.53 80.8C2626.4 80.8 2624.35 80.5333 2622.37 80C2620.4 79.4133 2618.59 78.6133 2616.93 77.6C2615.28 76.5333 2613.84 75.2533 2612.61 73.76L2618.21 68.16C2619.55 69.7067 2621.07 70.88 2622.77 71.68C2624.53 72.4267 2626.51 72.8 2628.69 72.8C2630.67 72.8 2632.16 72.5067 2633.17 71.92C2634.19 71.3333 2634.69 70.48 2634.69 69.36C2634.69 68.1867 2634.21 67.28 2633.25 66.64C2632.29 66 2631.04 65.4667 2629.49 65.04C2628 64.56 2626.4 64.08 2624.69 63.6C2623.04 63.12 2621.44 62.48 2619.89 61.68C2618.4 60.8267 2617.17 59.68 2616.21 58.24C2615.25 56.8 2614.77 54.9333 2614.77 52.64C2614.77 50.1867 2615.33 48.08 2616.45 46.32C2617.63 44.56 2619.25 43.2 2621.33 42.24C2623.47 41.28 2626 40.8 2628.93 40.8C2632.03 40.8 2634.75 41.36 2637.09 42.48C2639.49 43.5467 2641.49 45.1733 2643.09 47.36L2637.49 52.96C2636.37 51.5733 2635.09 50.5333 2633.65 49.84C2632.21 49.1467 2630.56 48.8 2628.69 48.8C2626.93 48.8 2625.57 49.0667 2624.61 49.6C2623.65 50.1333 2623.17 50.9067 2623.17 51.92C2623.17 52.9867 2623.65 53.8133 2624.61 54.4C2625.57 54.9867 2626.8 55.4933 2628.29 55.92C2629.84 56.3467 2631.44 56.8267 2633.09 57.36C2634.8 57.84 2636.4 58.5333 2637.89 59.44C2639.44 60.2933 2640.69 61.4667 2641.65 62.96C2642.61 64.4 2643.09 66.2933 2643.09 68.64C2643.09 72.3733 2641.79 75.3333 2639.17 77.52C2636.56 79.7067 2633.01 80.8 2628.53 80.8ZM2656.19 80V25.6H2664.99V80H2656.19ZM2646.99 49.6V41.6H2674.19V49.6H2646.99ZM2680.58 80V41.6H2689.38V80H2680.58ZM2689.38 58.64L2686.34 57.12C2686.34 52.2667 2687.41 48.3467 2689.54 45.36C2691.73 42.32 2695.01 40.8 2699.38 40.8C2701.3 40.8 2703.04 41.1467 2704.58 41.84C2706.13 42.5333 2707.57 43.6533 2708.9 45.2L2703.14 51.12C2702.45 50.3733 2701.68 49.84 2700.82 49.52C2699.97 49.2 2698.98 49.04 2697.86 49.04C2695.41 49.04 2693.38 49.8133 2691.78 51.36C2690.18 52.9067 2689.38 55.3333 2689.38 58.64ZM2728.92 80.8C2725.67 80.8 2722.76 80.08 2720.2 78.64C2717.69 77.2 2715.72 75.2267 2714.28 72.72C2712.89 70.16 2712.2 67.2267 2712.2 63.92V41.6H2721V63.52C2721 65.3867 2721.29 66.9867 2721.88 68.32C2722.52 69.6 2723.43 70.5867 2724.6 71.28C2725.83 71.9733 2727.27 72.32 2728.92 72.32C2731.48 72.32 2733.43 71.5733 2734.76 70.08C2736.15 68.5333 2736.84 66.3467 2736.84 63.52V41.6H2745.64V63.92C2745.64 67.28 2744.92 70.24 2743.48 72.8C2742.09 75.3067 2740.15 77.28 2737.64 78.72C2735.13 80.1067 2732.23 80.8 2728.92 80.8ZM2772.17 80.8C2768.38 80.8 2764.94 79.92 2761.85 78.16C2758.81 76.4 2756.41 74 2754.65 70.96C2752.89 67.92 2752.01 64.5333 2752.01 60.8C2752.01 57.0133 2752.89 53.6267 2754.65 50.64C2756.41 47.6 2758.81 45.2 2761.85 43.44C2764.94 41.68 2768.38 40.8 2772.17 40.8C2775.16 40.8 2777.93 41.3867 2780.49 42.56C2783.1 43.68 2785.32 45.3067 2787.13 47.44L2781.37 53.28C2780.25 51.9467 2778.89 50.96 2777.29 50.32C2775.74 49.6267 2774.04 49.28 2772.17 49.28C2769.98 49.28 2768.04 49.7867 2766.33 50.8C2764.68 51.76 2763.37 53.0933 2762.41 54.8C2761.5 56.5067 2761.05 58.5067 2761.05 60.8C2761.05 63.04 2761.5 65.04 2762.41 66.8C2763.37 68.5067 2764.68 69.8667 2766.33 70.88C2768.04 71.84 2769.98 72.32 2772.17 72.32C2774.04 72.32 2775.74 72 2777.29 71.36C2778.89 70.6667 2780.25 69.6533 2781.37 68.32L2787.13 74.16C2785.32 76.2933 2783.1 77.9467 2780.49 79.12C2777.93 80.24 2775.16 80.8 2772.17 80.8ZM2769.69 96.8C2767.72 96.8 2765.98 96.56 2764.49 96.08C2763 95.6 2761.56 94.9067 2760.17 94L2763.77 89.44C2764.36 89.9733 2765.08 90.4 2765.93 90.72C2766.78 91.0933 2767.82 91.28 2769.05 91.28C2770.44 91.28 2771.42 91.0933 2772.01 90.72C2772.65 90.3467 2772.97 89.8933 2772.97 89.36C2772.97 88.7733 2772.68 88.24 2772.09 87.76C2771.56 87.3333 2770.68 87.12 2769.45 87.12H2765.29L2767.93 78.88H2774.33L2772.41 84.64L2769.21 82.24C2772.52 82.1333 2775.18 82.7733 2777.21 84.16C2779.24 85.6 2780.25 87.3867 2780.25 89.52C2780.25 91.6 2779.26 93.3333 2777.29 94.72C2775.37 96.1067 2772.84 96.8 2769.69 96.8ZM2808.77 80.8C2805.31 80.8 2802.16 79.92 2799.33 78.16C2796.56 76.4 2794.35 74.0267 2792.69 71.04C2791.09 68 2790.29 64.6133 2790.29 60.88C2790.29 57.0933 2791.09 53.7067 2792.69 50.72C2794.35 47.68 2796.56 45.28 2799.33 43.52C2802.16 41.7067 2805.31 40.8 2808.77 40.8C2811.71 40.8 2814.29 41.44 2816.53 42.72C2818.83 43.9467 2820.64 45.6533 2821.97 47.84C2823.31 50.0267 2823.97 52.5067 2823.97 55.28V66.32C2823.97 69.0933 2823.31 71.5733 2821.97 73.76C2820.69 75.9467 2818.91 77.68 2816.61 78.96C2814.32 80.1867 2811.71 80.8 2808.77 80.8ZM2810.21 72.48C2813.47 72.48 2816.08 71.3867 2818.05 69.2C2820.08 67.0133 2821.09 64.2133 2821.09 60.8C2821.09 58.5067 2820.64 56.48 2819.73 54.72C2818.83 52.96 2817.55 51.6 2815.89 50.64C2814.29 49.6267 2812.4 49.12 2810.21 49.12C2808.08 49.12 2806.19 49.6267 2804.53 50.64C2802.93 51.6 2801.65 52.96 2800.69 54.72C2799.79 56.48 2799.33 58.5067 2799.33 60.8C2799.33 63.0933 2799.79 65.12 2800.69 66.88C2801.65 68.64 2802.93 70.0267 2804.53 71.04C2806.19 72 2808.08 72.48 2810.21 72.48ZM2820.53 80V69.68L2822.05 60.32L2820.53 51.04V41.6H2829.33V80H2820.53ZM2816.77 36.08C2815.01 36.08 2813.52 35.76 2812.29 35.12C2811.07 34.48 2809.92 33.8667 2808.85 33.28C2807.84 32.64 2806.69 32.32 2805.41 32.32C2804.08 32.32 2803.01 32.56 2802.21 33.04C2801.41 33.52 2800.64 34.24 2799.89 35.2L2795.17 30.48C2796.72 28.72 2798.27 27.3333 2799.81 26.32C2801.36 25.2533 2803.17 24.72 2805.25 24.72C2807.01 24.72 2808.51 25.04 2809.73 25.68C2810.96 26.2667 2812.11 26.88 2813.17 27.52C2814.24 28.16 2815.39 28.48 2816.61 28.48C2818 28.48 2819.09 28.24 2819.89 27.76C2820.69 27.28 2821.44 26.56 2822.13 25.6L2826.85 30.32C2825.31 32.08 2823.76 33.4933 2822.21 34.56C2820.67 35.5733 2818.85 36.08 2816.77 36.08ZM2856.7 80.8C2852.97 80.8 2849.58 79.92 2846.54 78.16C2843.5 76.3467 2841.07 73.92 2839.26 70.88C2837.5 67.84 2836.62 64.4533 2836.62 60.72C2836.62 56.9867 2837.5 53.6267 2839.26 50.64C2841.07 47.6533 2843.5 45.28 2846.54 43.52C2849.58 41.7067 2852.97 40.8 2856.7 40.8C2860.49 40.8 2863.9 41.68 2866.94 43.44C2869.98 45.2 2872.38 47.6 2874.14 50.64C2875.95 53.6267 2876.86 56.9867 2876.86 60.72C2876.86 64.4533 2875.95 67.84 2874.14 70.88C2872.38 73.92 2869.98 76.3467 2866.94 78.16C2863.9 79.92 2860.49 80.8 2856.7 80.8ZM2856.7 72.32C2858.89 72.32 2860.81 71.84 2862.46 70.88C2864.17 69.8667 2865.47 68.48 2866.38 66.72C2867.34 64.96 2867.82 62.96 2867.82 60.72C2867.82 58.48 2867.34 56.5067 2866.38 54.8C2865.42 53.0933 2864.11 51.76 2862.46 50.8C2860.81 49.7867 2858.89 49.28 2856.7 49.28C2854.57 49.28 2852.65 49.7867 2850.94 50.8C2849.29 51.76 2847.98 53.0933 2847.02 54.8C2846.11 56.5067 2845.66 58.48 2845.66 60.72C2845.66 62.96 2846.11 64.96 2847.02 66.72C2847.98 68.48 2849.29 69.8667 2850.94 70.88C2852.65 71.84 2854.57 72.32 2856.7 72.32Z" fill="#8A1A3B"/>
</svg>
