<svg width="2600" height="131" viewBox="0 0 2600 131" fill="none" xmlns="http://www.w3.org/2000/svg">
<path d="M6.08 80V24H15.28V80H6.08ZM12.4 80V71.6H43.76V80H12.4ZM12.4 55.44V47.36H41.04V55.44H12.4ZM12.4 32.4V24H43.36V32.4H12.4ZM65.0275 80L47.5075 41.6H57.2675L70.6275 72.88H64.8675L78.3075 41.6H87.6675L70.1475 80H65.0275ZM109.121 80.8C105.387 80.8 102.001 79.92 98.9606 78.16C95.9206 76.3467 93.494 73.92 91.6806 70.88C89.9206 67.84 89.0406 64.4533 89.0406 60.72C89.0406 56.9867 89.9206 53.6267 91.6806 50.64C93.494 47.6533 95.9206 45.28 98.9606 43.52C102.001 41.7067 105.387 40.8 109.121 40.8C112.907 40.8 116.321 41.68 119.361 43.44C122.401 45.2 124.801 47.6 126.561 50.64C128.374 53.6267 129.281 56.9867 129.281 60.72C129.281 64.4533 128.374 67.84 126.561 70.88C124.801 73.92 122.401 76.3467 119.361 78.16C116.321 79.92 112.907 80.8 109.121 80.8ZM109.121 72.32C111.307 72.32 113.227 71.84 114.881 70.88C116.587 69.8667 117.894 68.48 118.801 66.72C119.761 64.96 120.241 62.96 120.241 60.72C120.241 58.48 119.761 56.5067 118.801 54.8C117.841 53.0933 116.534 51.76 114.881 50.8C113.227 49.7867 111.307 49.28 109.121 49.28C106.987 49.28 105.067 49.7867 103.361 50.8C101.707 51.76 100.401 53.0933 99.4406 54.8C98.534 56.5067 98.0806 58.48 98.0806 60.72C98.0806 62.96 98.534 64.96 99.4406 66.72C100.401 68.48 101.707 69.8667 103.361 70.88C105.067 71.84 106.987 72.32 109.121 72.32ZM136.599 80V22.4H145.399V80H136.599ZM170.953 80.8C167.699 80.8 164.793 80.08 162.233 78.64C159.726 77.2 157.753 75.2267 156.313 72.72C154.926 70.16 154.233 67.2267 154.233 63.92V41.6H163.033V63.52C163.033 65.3867 163.326 66.9867 163.913 68.32C164.553 69.6 165.459 70.5867 166.633 71.28C167.859 71.9733 169.299 72.32 170.953 72.32C173.513 72.32 175.459 71.5733 176.793 70.08C178.179 68.5333 178.873 66.3467 178.873 63.52V41.6H187.673V63.92C187.673 67.28 186.953 70.24 185.513 72.8C184.126 75.3067 182.179 77.28 179.673 78.72C177.166 80.1067 174.259 80.8 170.953 80.8ZM214.201 80.8C210.414 80.8 206.974 79.92 203.881 78.16C200.841 76.4 198.441 74 196.681 70.96C194.921 67.92 194.041 64.5333 194.041 60.8C194.041 57.0133 194.921 53.6267 196.681 50.64C198.441 47.6 200.841 45.2 203.881 43.44C206.974 41.68 210.414 40.8 214.201 40.8C217.187 40.8 219.961 41.3867 222.521 42.56C225.134 43.68 227.347 45.3067 229.161 47.44L223.401 53.28C222.281 51.9467 220.921 50.96 219.321 50.32C217.774 49.6267 216.067 49.28 214.201 49.28C212.014 49.28 210.067 49.7867 208.361 50.8C206.707 51.76 205.401 53.0933 204.441 54.8C203.534 56.5067 203.081 58.5067 203.081 60.8C203.081 63.04 203.534 65.04 204.441 66.8C205.401 68.5067 206.707 69.8667 208.361 70.88C210.067 71.84 212.014 72.32 214.201 72.32C216.067 72.32 217.774 72 219.321 71.36C220.921 70.6667 222.281 69.6533 223.401 68.32L229.161 74.16C227.347 76.2933 225.134 77.9467 222.521 79.12C219.961 80.24 217.187 80.8 214.201 80.8ZM211.721 96.8C209.747 96.8 208.014 96.56 206.521 96.08C205.027 95.6 203.587 94.9067 202.201 94L205.801 89.44C206.387 89.9733 207.107 90.4 207.961 90.72C208.814 91.0933 209.854 91.28 211.081 91.28C212.467 91.28 213.454 91.0933 214.041 90.72C214.681 90.3467 215.001 89.8933 215.001 89.36C215.001 88.7733 214.707 88.24 214.121 87.76C213.587 87.3333 212.707 87.12 211.481 87.12H207.321L209.961 78.88H216.361L214.441 84.64L211.241 82.24C214.547 82.1333 217.214 82.7733 219.241 84.16C221.267 85.6 222.281 87.3867 222.281 89.52C222.281 91.6 221.294 93.3333 219.321 94.72C217.401 96.1067 214.867 96.8 211.721 96.8ZM250.804 80.8C247.337 80.8 244.19 79.92 241.364 78.16C238.59 76.4 236.377 74.0267 234.724 71.04C233.124 68 232.324 64.6133 232.324 60.88C232.324 57.0933 233.124 53.7067 234.724 50.72C236.377 47.68 238.59 45.28 241.364 43.52C244.19 41.7067 247.337 40.8 250.804 40.8C253.737 40.8 256.324 41.44 258.564 42.72C260.857 43.9467 262.67 45.6533 264.004 47.84C265.337 50.0267 266.004 52.5067 266.004 55.28V66.32C266.004 69.0933 265.337 71.5733 264.004 73.76C262.724 75.9467 260.937 77.68 258.644 78.96C256.35 80.1867 253.737 80.8 250.804 80.8ZM252.244 72.48C255.497 72.48 258.11 71.3867 260.084 69.2C262.11 67.0133 263.124 64.2133 263.124 60.8C263.124 58.5067 262.67 56.48 261.764 54.72C260.857 52.96 259.577 51.6 257.924 50.64C256.324 49.6267 254.43 49.12 252.244 49.12C250.11 49.12 248.217 49.6267 246.564 50.64C244.964 51.6 243.684 52.96 242.724 54.72C241.817 56.48 241.364 58.5067 241.364 60.8C241.364 63.0933 241.817 65.12 242.724 66.88C243.684 68.64 244.964 70.0267 246.564 71.04C248.217 72 250.11 72.48 252.244 72.48ZM262.564 80V69.68L264.084 60.32L262.564 51.04V41.6H271.364V80H262.564ZM258.804 36.08C257.044 36.08 255.55 35.76 254.324 35.12C253.097 34.48 251.95 33.8667 250.884 33.28C249.87 32.64 248.724 32.32 247.444 32.32C246.11 32.32 245.044 32.56 244.244 33.04C243.444 33.52 242.67 34.24 241.924 35.2L237.204 30.48C238.75 28.72 240.297 27.3333 241.844 26.32C243.39 25.2533 245.204 24.72 247.284 24.72C249.044 24.72 250.537 25.04 251.764 25.68C252.99 26.2667 254.137 26.88 255.204 27.52C256.27 28.16 257.417 28.48 258.644 28.48C260.03 28.48 261.124 28.24 261.924 27.76C262.724 27.28 263.47 26.56 264.164 25.6L268.884 30.32C267.337 32.08 265.79 33.4933 264.244 34.56C262.697 35.5733 260.884 36.08 258.804 36.08ZM298.73 80.8C294.997 80.8 291.61 79.92 288.57 78.16C285.53 76.3467 283.103 73.92 281.29 70.88C279.53 67.84 278.65 64.4533 278.65 60.72C278.65 56.9867 279.53 53.6267 281.29 50.64C283.103 47.6533 285.53 45.28 288.57 43.52C291.61 41.7067 294.997 40.8 298.73 40.8C302.517 40.8 305.93 41.68 308.97 43.44C312.01 45.2 314.41 47.6 316.17 50.64C317.983 53.6267 318.89 56.9867 318.89 60.72C318.89 64.4533 317.983 67.84 316.17 70.88C314.41 73.92 312.01 76.3467 308.97 78.16C305.93 79.92 302.517 80.8 298.73 80.8ZM298.73 72.32C300.917 72.32 302.837 71.84 304.49 70.88C306.197 69.8667 307.503 68.48 308.41 66.72C309.37 64.96 309.85 62.96 309.85 60.72C309.85 58.48 309.37 56.5067 308.41 54.8C307.45 53.0933 306.143 51.76 304.49 50.8C302.837 49.7867 300.917 49.28 298.73 49.28C296.597 49.28 294.677 49.7867 292.97 50.8C291.317 51.76 290.01 53.0933 289.05 54.8C288.143 56.5067 287.69 58.48 287.69 60.72C287.69 62.96 288.143 64.96 289.05 66.72C290.01 68.48 291.317 69.8667 292.97 70.88C294.677 71.84 296.597 72.32 298.73 72.32ZM358.304 80.8C354.837 80.8 351.69 79.92 348.864 78.16C346.09 76.4 343.877 74.0267 342.224 71.04C340.624 68 339.824 64.6133 339.824 60.88C339.824 57.0933 340.624 53.7067 342.224 50.72C343.877 47.68 346.09 45.28 348.864 43.52C351.69 41.7067 354.837 40.8 358.304 40.8C361.237 40.8 363.824 41.44 366.064 42.72C368.357 43.9467 370.17 45.6533 371.504 47.84C372.837 50.0267 373.504 52.5067 373.504 55.28V66.32C373.504 69.0933 372.837 71.5733 371.504 73.76C370.224 75.9467 368.437 77.68 366.144 78.96C363.85 80.1867 361.237 80.8 358.304 80.8ZM359.744 72.48C361.93 72.48 363.824 72 365.424 71.04C367.077 70.0267 368.357 68.64 369.264 66.88C370.17 65.12 370.624 63.0933 370.624 60.8C370.624 58.5067 370.17 56.48 369.264 54.72C368.357 52.96 367.077 51.6 365.424 50.64C363.824 49.6267 361.93 49.12 359.744 49.12C357.61 49.12 355.717 49.6267 354.064 50.64C352.464 51.6 351.184 52.96 350.224 54.72C349.317 56.48 348.864 58.5067 348.864 60.8C348.864 63.0933 349.317 65.12 350.224 66.88C351.184 68.64 352.464 70.0267 354.064 71.04C355.717 72 357.61 72.48 359.744 72.48ZM378.864 80H370.064V69.68L371.584 60.32L370.064 51.04V22.4H378.864V80ZM406.23 80.8C402.497 80.8 399.11 79.92 396.07 78.16C393.03 76.3467 390.603 73.92 388.79 70.88C387.03 67.84 386.15 64.4533 386.15 60.72C386.15 56.9867 387.03 53.6267 388.79 50.64C390.603 47.6533 393.03 45.28 396.07 43.52C399.11 41.7067 402.497 40.8 406.23 40.8C410.017 40.8 413.43 41.68 416.47 43.44C419.51 45.2 421.91 47.6 423.67 50.64C425.483 53.6267 426.39 56.9867 426.39 60.72C426.39 64.4533 425.483 67.84 423.67 70.88C421.91 73.92 419.51 76.3467 416.47 78.16C413.43 79.92 410.017 80.8 406.23 80.8ZM406.23 72.32C408.417 72.32 410.337 71.84 411.99 70.88C413.697 69.8667 415.003 68.48 415.91 66.72C416.87 64.96 417.35 62.96 417.35 60.72C417.35 58.48 416.87 56.5067 415.91 54.8C414.95 53.0933 413.643 51.76 411.99 50.8C410.337 49.7867 408.417 49.28 406.23 49.28C404.097 49.28 402.177 49.7867 400.47 50.8C398.817 51.76 397.51 53.0933 396.55 54.8C395.643 56.5067 395.19 58.48 395.19 60.72C395.19 62.96 395.643 64.96 396.55 66.72C397.51 68.48 398.817 69.8667 400.47 70.88C402.177 71.84 404.097 72.32 406.23 72.32ZM457.244 58.88V50.88H471.244C473.164 50.88 474.844 50.5067 476.284 49.76C477.777 48.96 478.95 47.8667 479.804 46.48C480.657 45.04 481.084 43.36 481.084 41.44C481.084 39.52 480.657 37.8667 479.804 36.48C478.95 35.04 477.777 33.9467 476.284 33.2C474.844 32.4 473.164 32 471.244 32H457.244V24H471.724C475.244 24 478.39 24.72 481.164 26.16C483.99 27.6 486.204 29.6267 487.804 32.24C489.457 34.8533 490.284 37.92 490.284 41.44C490.284 44.96 489.457 48.0267 487.804 50.64C486.204 53.2533 483.99 55.28 481.164 56.72C478.39 58.16 475.244 58.88 471.724 58.88H457.244ZM450.924 80V24H460.124V80H450.924ZM498.58 80V24H507.78V80H498.58ZM526.228 80V72H542.308C545.135 72 547.321 71.12 548.868 69.36C550.415 67.6 551.188 65.5733 551.188 63.28C551.188 61.7333 550.841 60.2933 550.148 58.96C549.455 57.6267 548.441 56.56 547.108 55.76C545.775 54.96 544.175 54.56 542.308 54.56H526.228V46.56H540.948C543.348 46.56 545.268 45.9467 546.708 44.72C548.148 43.4933 548.868 41.68 548.868 39.28C548.868 36.88 548.148 35.0667 546.708 33.84C545.268 32.6133 543.348 32 540.948 32H526.228V24H541.188C544.975 24 548.121 24.6933 550.628 26.08C553.135 27.4667 555.001 29.2533 556.228 31.44C557.455 33.6267 558.068 35.9733 558.068 38.48C558.068 41.4133 557.241 44 555.588 46.24C553.988 48.48 551.615 50.2933 548.468 51.68L549.188 48.8C552.708 50.24 555.455 52.2667 557.428 54.88C559.401 57.4933 560.388 60.56 560.388 64.08C560.388 66.96 559.668 69.6 558.228 72C556.841 74.4 554.761 76.3467 551.988 77.84C549.268 79.28 545.908 80 541.908 80H526.228ZM519.908 80V24H529.108V80H519.908ZM585.689 80V24H592.089L615.369 62.32H611.209L634.489 24H640.889V80H631.689V40.16L633.769 40.72L616.489 69.12H610.089L592.809 40.72L594.889 40.16V80H585.689ZM667.593 80.8C664.34 80.8 661.433 80.08 658.873 78.64C656.366 77.2 654.393 75.2267 652.953 72.72C651.566 70.16 650.873 67.2267 650.873 63.92V41.6H659.673V63.52C659.673 65.3867 659.966 66.9867 660.553 68.32C661.193 69.6 662.1 70.5867 663.273 71.28C664.5 71.9733 665.94 72.32 667.593 72.32C670.153 72.32 672.1 71.5733 673.433 70.08C674.82 68.5333 675.513 66.3467 675.513 63.52V41.6H684.313V63.92C684.313 67.28 683.593 70.24 682.153 72.8C680.766 75.3067 678.82 77.28 676.313 78.72C673.806 80.1067 670.9 80.8 667.593 80.8ZM719.481 80V57.84C719.481 55.28 718.655 53.1733 717.001 51.52C715.401 49.8667 713.321 49.04 710.761 49.04C709.055 49.04 707.535 49.4133 706.201 50.16C704.868 50.9067 703.828 51.9467 703.081 53.28C702.335 54.6133 701.961 56.1333 701.961 57.84L698.521 55.92C698.521 52.9867 699.161 50.4 700.441 48.16C701.721 45.8667 703.481 44.08 705.721 42.8C708.015 41.4667 710.575 40.8 713.401 40.8C716.281 40.8 718.841 41.5467 721.081 43.04C723.321 44.48 725.081 46.3733 726.361 48.72C727.641 51.0133 728.281 53.4133 728.281 55.92V80H719.481ZM693.161 80V41.6H701.961V80H693.161ZM737.304 80V41.6H746.104V80H737.304ZM741.704 34.56C740.21 34.56 738.957 34.0533 737.944 33.04C736.984 32.0267 736.504 30.7733 736.504 29.28C736.504 27.7867 736.984 26.5333 737.944 25.52C738.957 24.5067 740.21 24 741.704 24C743.25 24 744.504 24.5067 745.464 25.52C746.424 26.5333 746.904 27.7867 746.904 29.28C746.904 30.7733 746.424 32.0267 745.464 33.04C744.504 34.0533 743.25 34.56 741.704 34.56ZM773.654 80.8C769.867 80.8 766.427 79.92 763.334 78.16C760.294 76.4 757.894 74 756.134 70.96C754.374 67.92 753.494 64.5333 753.494 60.8C753.494 57.0133 754.374 53.6267 756.134 50.64C757.894 47.6 760.294 45.2 763.334 43.44C766.427 41.68 769.867 40.8 773.654 40.8C776.64 40.8 779.414 41.3867 781.974 42.56C784.587 43.68 786.8 45.3067 788.614 47.44L782.854 53.28C781.734 51.9467 780.374 50.96 778.774 50.32C777.227 49.6267 775.52 49.28 773.654 49.28C771.467 49.28 769.52 49.7867 767.814 50.8C766.16 51.76 764.854 53.0933 763.894 54.8C762.987 56.5067 762.534 58.5067 762.534 60.8C762.534 63.04 762.987 65.04 763.894 66.8C764.854 68.5067 766.16 69.8667 767.814 70.88C769.52 71.84 771.467 72.32 773.654 72.32C775.52 72.32 777.227 72 778.774 71.36C780.374 70.6667 781.734 69.6533 782.854 68.32L788.614 74.16C786.8 76.2933 784.587 77.9467 781.974 79.12C779.414 80.24 776.64 80.8 773.654 80.8ZM795.038 80V41.6H803.838V80H795.038ZM799.438 34.56C797.945 34.56 796.691 34.0533 795.678 33.04C794.718 32.0267 794.238 30.7733 794.238 29.28C794.238 27.7867 794.718 26.5333 795.678 25.52C796.691 24.5067 797.945 24 799.438 24C800.985 24 802.238 24.5067 803.198 25.52C804.158 26.5333 804.638 27.7867 804.638 29.28C804.638 30.7733 804.158 32.0267 803.198 33.04C802.238 34.0533 800.985 34.56 799.438 34.56ZM834.268 80.8C831.335 80.8 828.721 80.1867 826.428 78.96C824.135 77.68 822.321 75.9467 820.988 73.76C819.708 71.5733 819.068 69.0933 819.068 66.32V55.28C819.068 52.5067 819.735 50.0267 821.068 47.84C822.401 45.6533 824.215 43.9467 826.508 42.72C828.801 41.44 831.388 40.8 834.268 40.8C837.735 40.8 840.855 41.7067 843.628 43.52C846.455 45.28 848.668 47.68 850.268 50.72C851.921 53.7067 852.748 57.0933 852.748 60.88C852.748 64.6133 851.921 68 850.268 71.04C848.668 74.0267 846.455 76.4 843.628 78.16C840.855 79.92 837.735 80.8 834.268 80.8ZM813.708 96V41.6H822.508V51.92L820.988 61.28L822.508 70.56V96H813.708ZM832.828 72.48C834.961 72.48 836.828 72 838.428 71.04C840.081 70.0267 841.361 68.64 842.268 66.88C843.228 65.12 843.708 63.0933 843.708 60.8C843.708 58.5067 843.228 56.48 842.268 54.72C841.361 52.96 840.081 51.6 838.428 50.64C836.828 49.6267 834.961 49.12 832.828 49.12C830.695 49.12 828.801 49.6267 827.148 50.64C825.495 51.6 824.215 52.96 823.308 54.72C822.401 56.48 821.948 58.5067 821.948 60.8C821.948 63.0933 822.401 65.12 823.308 66.88C824.215 68.64 825.495 70.0267 827.148 71.04C828.801 72 830.695 72.48 832.828 72.48ZM876.194 80.8C872.728 80.8 869.581 79.92 866.754 78.16C863.981 76.4 861.768 74.0267 860.114 71.04C858.514 68 857.714 64.6133 857.714 60.88C857.714 57.0933 858.514 53.7067 860.114 50.72C861.768 47.68 863.981 45.28 866.754 43.52C869.581 41.7067 872.728 40.8 876.194 40.8C879.128 40.8 881.714 41.44 883.954 42.72C886.248 43.9467 888.061 45.6533 889.394 47.84C890.728 50.0267 891.394 52.5067 891.394 55.28V66.32C891.394 69.0933 890.728 71.5733 889.394 73.76C888.114 75.9467 886.328 77.68 884.034 78.96C881.741 80.1867 879.128 80.8 876.194 80.8ZM877.634 72.48C880.888 72.48 883.501 71.3867 885.474 69.2C887.501 67.0133 888.514 64.2133 888.514 60.8C888.514 58.5067 888.061 56.48 887.154 54.72C886.248 52.96 884.968 51.6 883.314 50.64C881.714 49.6267 879.821 49.12 877.634 49.12C875.501 49.12 873.608 49.6267 871.954 50.64C870.354 51.6 869.074 52.96 868.114 54.72C867.208 56.48 866.754 58.5067 866.754 60.8C866.754 63.0933 867.208 65.12 868.114 66.88C869.074 68.64 870.354 70.0267 871.954 71.04C873.608 72 875.501 72.48 877.634 72.48ZM887.954 80V69.68L889.474 60.32L887.954 51.04V41.6H896.754V80H887.954ZM906.521 80V22.4H915.321V80H906.521ZM953.21 89.52C950.383 87.0133 947.93 83.9467 945.85 80.32C943.823 76.6933 942.25 72.72 941.13 68.4C940.01 64.08 939.45 59.6 939.45 54.96C939.45 50.32 940.01 45.84 941.13 41.52C942.25 37.2 943.823 33.2267 945.85 29.6C947.93 25.9733 950.383 22.9067 953.21 20.4L958.25 24.88C954.73 28.1333 951.983 32.3467 950.01 37.52C948.09 42.64 947.13 48.4533 947.13 54.96C947.13 61.4133 948.09 67.2267 950.01 72.4C951.983 77.5733 954.73 81.7867 958.25 85.04L953.21 89.52ZM966.236 80V24H972.636L975.436 34.56V80H966.236ZM1005.04 80L971.516 36.24L972.636 24L1006.16 67.76L1005.04 80ZM1005.04 80L1002.24 70.16V24H1011.44V80H1005.04ZM1039.98 80.8C1036.25 80.8 1032.86 79.92 1029.82 78.16C1026.78 76.3467 1024.35 73.92 1022.54 70.88C1020.78 67.84 1019.9 64.4533 1019.9 60.72C1019.9 56.9867 1020.78 53.6267 1022.54 50.64C1024.35 47.6533 1026.78 45.28 1029.82 43.52C1032.86 41.7067 1036.25 40.8 1039.98 40.8C1043.77 40.8 1047.18 41.68 1050.22 43.44C1053.26 45.2 1055.66 47.6 1057.42 50.64C1059.23 53.6267 1060.14 56.9867 1060.14 60.72C1060.14 64.4533 1059.23 67.84 1057.42 70.88C1055.66 73.92 1053.26 76.3467 1050.22 78.16C1047.18 79.92 1043.77 80.8 1039.98 80.8ZM1039.98 72.32C1042.17 72.32 1044.09 71.84 1045.74 70.88C1047.45 69.8667 1048.75 68.48 1049.66 66.72C1050.62 64.96 1051.1 62.96 1051.1 60.72C1051.1 58.48 1050.62 56.5067 1049.66 54.8C1048.7 53.0933 1047.39 51.76 1045.74 50.8C1044.09 49.7867 1042.17 49.28 1039.98 49.28C1037.85 49.28 1035.93 49.7867 1034.22 50.8C1032.57 51.76 1031.26 53.0933 1030.3 54.8C1029.39 56.5067 1028.94 58.48 1028.94 60.72C1028.94 62.96 1029.39 64.96 1030.3 66.72C1031.26 68.48 1032.57 69.8667 1034.22 70.88C1035.93 71.84 1037.85 72.32 1039.98 72.32ZM1067.46 80V41.6H1076.26V80H1067.46ZM1092.98 80V57.12C1092.98 54.56 1092.18 52.5867 1090.58 51.2C1088.98 49.76 1087 49.04 1084.66 49.04C1083.06 49.04 1081.62 49.36 1080.34 50C1079.11 50.64 1078.12 51.5733 1077.38 52.8C1076.63 53.9733 1076.26 55.4133 1076.26 57.12L1072.82 55.2C1072.82 52.2667 1073.46 49.7333 1074.74 47.6C1076.02 45.4667 1077.75 43.8133 1079.94 42.64C1082.12 41.4133 1084.58 40.8 1087.3 40.8C1090.02 40.8 1092.47 41.3867 1094.66 42.56C1096.84 43.7333 1098.58 45.3867 1099.86 47.52C1101.14 49.6533 1101.78 52.2133 1101.78 55.2V80H1092.98ZM1118.5 80V57.12C1118.5 54.56 1117.7 52.5867 1116.1 51.2C1114.5 49.76 1112.52 49.04 1110.18 49.04C1108.63 49.04 1107.22 49.36 1105.94 50C1104.66 50.64 1103.64 51.5733 1102.9 52.8C1102.15 53.9733 1101.78 55.4133 1101.78 57.12L1096.82 55.2C1097.08 52.2667 1097.94 49.7333 1099.38 47.6C1100.82 45.4667 1102.66 43.8133 1104.9 42.64C1107.19 41.4133 1109.7 40.8 1112.42 40.8C1115.19 40.8 1117.7 41.3867 1119.94 42.56C1122.18 43.7333 1123.96 45.3867 1125.3 47.52C1126.63 49.6533 1127.3 52.2133 1127.3 55.2V80H1118.5ZM1136.44 80V41.6H1145.24V80H1136.44ZM1140.84 34.56C1139.35 34.56 1138.1 34.0533 1137.08 33.04C1136.12 32.0267 1135.64 30.7733 1135.64 29.28C1135.64 27.7867 1136.12 26.5333 1137.08 25.52C1138.1 24.5067 1139.35 24 1140.84 24C1142.39 24 1143.64 24.5067 1144.6 25.52C1145.56 26.5333 1146.04 27.7867 1146.04 29.28C1146.04 30.7733 1145.56 32.0267 1144.6 33.04C1143.64 34.0533 1142.39 34.56 1140.84 34.56ZM1181.43 80V57.84C1181.43 55.28 1180.61 53.1733 1178.95 51.52C1177.35 49.8667 1175.27 49.04 1172.71 49.04C1171.01 49.04 1169.49 49.4133 1168.15 50.16C1166.82 50.9067 1165.78 51.9467 1165.03 53.28C1164.29 54.6133 1163.91 56.1333 1163.91 57.84L1160.47 55.92C1160.47 52.9867 1161.11 50.4 1162.39 48.16C1163.67 45.8667 1165.43 44.08 1167.67 42.8C1169.97 41.4667 1172.53 40.8 1175.35 40.8C1178.23 40.8 1180.79 41.5467 1183.03 43.04C1185.27 44.48 1187.03 46.3733 1188.31 48.72C1189.59 51.0133 1190.23 53.4133 1190.23 55.92V80H1181.43ZM1155.11 80V41.6H1163.91V80H1155.11ZM1215.26 80.8C1211.79 80.8 1208.64 79.92 1205.82 78.16C1203.04 76.4 1200.83 74.0267 1199.18 71.04C1197.58 68 1196.78 64.6133 1196.78 60.88C1196.78 57.0933 1197.58 53.7067 1199.18 50.72C1200.83 47.68 1203.04 45.28 1205.82 43.52C1208.64 41.7067 1211.79 40.8 1215.26 40.8C1218.19 40.8 1220.78 41.44 1223.02 42.72C1225.31 43.9467 1227.12 45.6533 1228.46 47.84C1229.79 50.0267 1230.46 52.5067 1230.46 55.28V66.32C1230.46 69.0933 1229.79 71.5733 1228.46 73.76C1227.18 75.9467 1225.39 77.68 1223.1 78.96C1220.8 80.1867 1218.19 80.8 1215.26 80.8ZM1216.7 72.48C1219.95 72.48 1222.56 71.3867 1224.54 69.2C1226.56 67.0133 1227.58 64.2133 1227.58 60.8C1227.58 58.5067 1227.12 56.48 1226.22 54.72C1225.31 52.96 1224.03 51.6 1222.38 50.64C1220.78 49.6267 1218.88 49.12 1216.7 49.12C1214.56 49.12 1212.67 49.6267 1211.02 50.64C1209.42 51.6 1208.14 52.96 1207.18 54.72C1206.27 56.48 1205.82 58.5067 1205.82 60.8C1205.82 63.0933 1206.27 65.12 1207.18 66.88C1208.14 68.64 1209.42 70.0267 1211.02 71.04C1212.67 72 1214.56 72.48 1216.7 72.48ZM1227.02 80V69.68L1228.54 60.32L1227.02 51.04V41.6H1235.82V80H1227.02ZM1245.58 80V22.4H1254.38V80H1245.58ZM1266.26 89.52L1261.22 85.04C1264.74 81.7867 1267.46 77.5733 1269.38 72.4C1271.35 67.2267 1272.34 61.4133 1272.34 54.96C1272.34 48.4533 1271.35 42.64 1269.38 37.52C1267.46 32.3467 1264.74 28.1333 1261.22 24.88L1266.26 20.4C1269.08 22.9067 1271.51 25.9733 1273.54 29.6C1275.62 33.2267 1277.22 37.2 1278.34 41.52C1279.46 45.84 1280.02 50.32 1280.02 54.96C1280.02 59.6 1279.46 64.08 1278.34 68.4C1277.22 72.72 1275.62 76.6933 1273.54 80.32C1271.51 83.9467 1269.08 87.0133 1266.26 89.52ZM1321.94 80.8C1318.1 80.8 1314.63 79.9467 1311.54 78.24C1308.5 76.48 1306.07 74.08 1304.26 71.04C1302.5 68 1301.62 64.5867 1301.62 60.8C1301.62 57.0133 1302.5 53.6267 1304.26 50.64C1306.02 47.6 1308.39 45.2 1311.38 43.44C1314.42 41.68 1317.78 40.8 1321.46 40.8C1325.03 40.8 1328.18 41.6267 1330.9 43.28C1333.67 44.9333 1335.83 47.2 1337.38 50.08C1338.98 52.96 1339.78 56.24 1339.78 59.92C1339.78 60.56 1339.73 61.2267 1339.62 61.92C1339.57 62.56 1339.46 63.28 1339.3 64.08H1307.78V56.88H1334.74L1331.46 59.76C1331.35 57.4133 1330.9 55.44 1330.1 53.84C1329.3 52.24 1328.15 51.0133 1326.66 50.16C1325.22 49.3067 1323.43 48.88 1321.3 48.88C1319.06 48.88 1317.11 49.36 1315.46 50.32C1313.81 51.28 1312.53 52.64 1311.62 54.4C1310.71 56.1067 1310.26 58.16 1310.26 60.56C1310.26 62.96 1310.74 65.0667 1311.7 66.88C1312.66 68.6933 1314.02 70.1067 1315.78 71.12C1317.54 72.08 1319.57 72.56 1321.86 72.56C1323.83 72.56 1325.65 72.2133 1327.3 71.52C1329.01 70.8267 1330.45 69.8133 1331.62 68.48L1337.22 74.16C1335.35 76.3467 1333.09 78 1330.42 79.12C1327.75 80.24 1324.93 80.8 1321.94 80.8ZM1382.53 80L1359.89 24H1369.89L1387.57 69.36H1384.05L1401.89 24H1411.73L1388.93 80H1382.53ZM1426.9 80.8C1423.43 80.8 1420.28 79.92 1417.46 78.16C1414.68 76.4 1412.47 74.0267 1410.82 71.04C1409.22 68 1408.42 64.6133 1408.42 60.88C1408.42 57.0933 1409.22 53.7067 1410.82 50.72C1412.47 47.68 1414.68 45.28 1417.46 43.52C1420.28 41.7067 1423.43 40.8 1426.9 40.8C1429.83 40.8 1432.42 41.44 1434.66 42.72C1436.95 43.9467 1438.76 45.6533 1440.1 47.84C1441.43 50.0267 1442.1 52.5067 1442.1 55.28V66.32C1442.1 69.0933 1441.43 71.5733 1440.1 73.76C1438.82 75.9467 1437.03 77.68 1434.74 78.96C1432.44 80.1867 1429.83 80.8 1426.9 80.8ZM1428.34 72.48C1431.59 72.48 1434.2 71.3867 1436.18 69.2C1438.2 67.0133 1439.22 64.2133 1439.22 60.8C1439.22 58.5067 1438.76 56.48 1437.86 54.72C1436.95 52.96 1435.67 51.6 1434.02 50.64C1432.42 49.6267 1430.52 49.12 1428.34 49.12C1426.2 49.12 1424.31 49.6267 1422.66 50.64C1421.06 51.6 1419.78 52.96 1418.82 54.72C1417.91 56.48 1417.46 58.5067 1417.46 60.8C1417.46 63.0933 1417.91 65.12 1418.82 66.88C1419.78 68.64 1421.06 70.0267 1422.66 71.04C1424.31 72 1426.2 72.48 1428.34 72.48ZM1438.66 80V69.68L1440.18 60.32L1438.66 51.04V41.6H1447.46V80H1438.66ZM1457.22 80V22.4H1466.02V80H1457.22ZM1493.42 80.8C1489.68 80.8 1486.3 79.92 1483.26 78.16C1480.22 76.3467 1477.79 73.92 1475.98 70.88C1474.22 67.84 1473.34 64.4533 1473.34 60.72C1473.34 56.9867 1474.22 53.6267 1475.98 50.64C1477.79 47.6533 1480.22 45.28 1483.26 43.52C1486.3 41.7067 1489.68 40.8 1493.42 40.8C1497.2 40.8 1500.62 41.68 1503.66 43.44C1506.7 45.2 1509.1 47.6 1510.86 50.64C1512.67 53.6267 1513.58 56.9867 1513.58 60.72C1513.58 64.4533 1512.67 67.84 1510.86 70.88C1509.1 73.92 1506.7 76.3467 1503.66 78.16C1500.62 79.92 1497.2 80.8 1493.42 80.8ZM1493.42 72.32C1495.6 72.32 1497.52 71.84 1499.18 70.88C1500.88 69.8667 1502.19 68.48 1503.1 66.72C1504.06 64.96 1504.54 62.96 1504.54 60.72C1504.54 58.48 1504.06 56.5067 1503.1 54.8C1502.14 53.0933 1500.83 51.76 1499.18 50.8C1497.52 49.7867 1495.6 49.28 1493.42 49.28C1491.28 49.28 1489.36 49.7867 1487.66 50.8C1486 51.76 1484.7 53.0933 1483.74 54.8C1482.83 56.5067 1482.38 58.48 1482.38 60.72C1482.38 62.96 1482.83 64.96 1483.74 66.72C1484.7 68.48 1486 69.8667 1487.66 70.88C1489.36 71.84 1491.28 72.32 1493.42 72.32ZM1520.9 80V41.6H1529.7V80H1520.9ZM1529.7 58.64L1526.66 57.12C1526.66 52.2667 1527.72 48.3467 1529.86 45.36C1532.04 42.32 1535.32 40.8 1539.7 40.8C1541.62 40.8 1543.35 41.1467 1544.9 41.84C1546.44 42.5333 1547.88 43.6533 1549.22 45.2L1543.46 51.12C1542.76 50.3733 1541.99 49.84 1541.14 49.52C1540.28 49.2 1539.3 49.04 1538.18 49.04C1535.72 49.04 1533.7 49.8133 1532.1 51.36C1530.5 52.9067 1529.7 55.3333 1529.7 58.64ZM1570.14 80.8C1566.3 80.8 1562.84 79.9467 1559.74 78.24C1556.7 76.48 1554.28 74.08 1552.46 71.04C1550.7 68 1549.82 64.5867 1549.82 60.8C1549.82 57.0133 1550.7 53.6267 1552.46 50.64C1554.22 47.6 1556.6 45.2 1559.58 43.44C1562.62 41.68 1565.98 40.8 1569.66 40.8C1573.24 40.8 1576.38 41.6267 1579.1 43.28C1581.88 44.9333 1584.04 47.2 1585.58 50.08C1587.18 52.96 1587.98 56.24 1587.98 59.92C1587.98 60.56 1587.93 61.2267 1587.82 61.92C1587.77 62.56 1587.66 63.28 1587.5 64.08H1555.98V56.88H1582.94L1579.66 59.76C1579.56 57.4133 1579.1 55.44 1578.3 53.84C1577.5 52.24 1576.36 51.0133 1574.86 50.16C1573.42 49.3067 1571.64 48.88 1569.5 48.88C1567.26 48.88 1565.32 49.36 1563.66 50.32C1562.01 51.28 1560.73 52.64 1559.82 54.4C1558.92 56.1067 1558.46 58.16 1558.46 60.56C1558.46 62.96 1558.94 65.0667 1559.9 66.88C1560.86 68.6933 1562.22 70.1067 1563.98 71.12C1565.74 72.08 1567.77 72.56 1570.06 72.56C1572.04 72.56 1573.85 72.2133 1575.5 71.52C1577.21 70.8267 1578.65 69.8133 1579.82 68.48L1585.42 74.16C1583.56 76.3467 1581.29 78 1578.62 79.12C1575.96 80.24 1573.13 80.8 1570.14 80.8ZM1607.6 80.8C1605.46 80.8 1603.41 80.5333 1601.44 80C1599.46 79.4133 1597.65 78.6133 1596 77.6C1594.34 76.5333 1592.9 75.2533 1591.68 73.76L1597.28 68.16C1598.61 69.7067 1600.13 70.88 1601.84 71.68C1603.6 72.4267 1605.57 72.8 1607.76 72.8C1609.73 72.8 1611.22 72.5067 1612.24 71.92C1613.25 71.3333 1613.76 70.48 1613.76 69.36C1613.76 68.1867 1613.28 67.28 1612.32 66.64C1611.36 66 1610.1 65.4667 1608.56 65.04C1607.06 64.56 1605.46 64.08 1603.76 63.6C1602.1 63.12 1600.5 62.48 1598.96 61.68C1597.46 60.8267 1596.24 59.68 1595.28 58.24C1594.32 56.8 1593.84 54.9333 1593.84 52.64C1593.84 50.1867 1594.4 48.08 1595.52 46.32C1596.69 44.56 1598.32 43.2 1600.4 42.24C1602.53 41.28 1605.06 40.8 1608 40.8C1611.09 40.8 1613.81 41.36 1616.16 42.48C1618.56 43.5467 1620.56 45.1733 1622.16 47.36L1616.56 52.96C1615.44 51.5733 1614.16 50.5333 1612.72 49.84C1611.28 49.1467 1609.62 48.8 1607.76 48.8C1606 48.8 1604.64 49.0667 1603.68 49.6C1602.72 50.1333 1602.24 50.9067 1602.24 51.92C1602.24 52.9867 1602.72 53.8133 1603.68 54.4C1604.64 54.9867 1605.86 55.4933 1607.36 55.92C1608.9 56.3467 1610.5 56.8267 1612.16 57.36C1613.86 57.84 1615.46 58.5333 1616.96 59.44C1618.5 60.2933 1619.76 61.4667 1620.72 62.96C1621.68 64.4 1622.16 66.2933 1622.16 68.64C1622.16 72.3733 1620.85 75.3333 1618.24 77.52C1615.62 79.7067 1612.08 80.8 1607.6 80.8ZM1640.2 80L1663.24 24H1669.64L1692.52 80H1682.6L1664.68 34.64H1668.04L1649.96 80H1640.2ZM1651.56 69.2V61.2H1681.24V69.2H1651.56ZM1713.15 80.8C1709.68 80.8 1706.53 79.92 1703.71 78.16C1700.93 76.4 1698.72 74.0267 1697.07 71.04C1695.47 68 1694.67 64.6133 1694.67 60.88C1694.67 57.0933 1695.47 53.7067 1697.07 50.72C1698.72 47.68 1700.93 45.28 1703.71 43.52C1706.53 41.7067 1709.68 40.8 1713.15 40.8C1716.08 40.8 1718.67 41.44 1720.91 42.72C1723.2 43.9467 1725.01 45.6533 1726.35 47.84C1727.68 50.0267 1728.35 52.5067 1728.35 55.28V66.32C1728.35 69.0933 1727.68 71.5733 1726.35 73.76C1725.07 75.9467 1723.28 77.68 1720.99 78.96C1718.69 80.1867 1716.08 80.8 1713.15 80.8ZM1714.59 72.48C1716.77 72.48 1718.67 72 1720.27 71.04C1721.92 70.0267 1723.2 68.64 1724.11 66.88C1725.01 65.12 1725.47 63.0933 1725.47 60.8C1725.47 58.5067 1725.01 56.48 1724.11 54.72C1723.2 52.96 1721.92 51.6 1720.27 50.64C1718.67 49.6267 1716.77 49.12 1714.59 49.12C1712.45 49.12 1710.56 49.6267 1708.91 50.64C1707.31 51.6 1706.03 52.96 1705.07 54.72C1704.16 56.48 1703.71 58.5067 1703.71 60.8C1703.71 63.0933 1704.16 65.12 1705.07 66.88C1706.03 68.64 1707.31 70.0267 1708.91 71.04C1710.56 72 1712.45 72.48 1714.59 72.48ZM1733.71 80H1724.91V69.68L1726.43 60.32L1724.91 51.04V22.4H1733.71V80ZM1743.55 80V41.6H1752.35V80H1743.55ZM1747.95 34.56C1746.46 34.56 1745.21 34.0533 1744.19 33.04C1743.23 32.0267 1742.75 30.7733 1742.75 29.28C1742.75 27.7867 1743.23 26.5333 1744.19 25.52C1745.21 24.5067 1746.46 24 1747.95 24C1749.5 24 1750.75 24.5067 1751.71 25.52C1752.67 26.5333 1753.15 27.7867 1753.15 29.28C1753.15 30.7733 1752.67 32.0267 1751.71 33.04C1750.75 34.0533 1749.5 34.56 1747.95 34.56ZM1779.9 80.8C1776.12 80.8 1772.68 79.92 1769.58 78.16C1766.54 76.4 1764.14 74 1762.38 70.96C1760.62 67.92 1759.74 64.5333 1759.74 60.8C1759.74 57.0133 1760.62 53.6267 1762.38 50.64C1764.14 47.6 1766.54 45.2 1769.58 43.44C1772.68 41.68 1776.12 40.8 1779.9 40.8C1782.89 40.8 1785.66 41.3867 1788.22 42.56C1790.84 43.68 1793.05 45.3067 1794.86 47.44L1789.1 53.28C1787.98 51.9467 1786.62 50.96 1785.02 50.32C1783.48 49.6267 1781.77 49.28 1779.9 49.28C1777.72 49.28 1775.77 49.7867 1774.06 50.8C1772.41 51.76 1771.1 53.0933 1770.14 54.8C1769.24 56.5067 1768.78 58.5067 1768.78 60.8C1768.78 63.04 1769.24 65.04 1770.14 66.8C1771.1 68.5067 1772.41 69.8667 1774.06 70.88C1775.77 71.84 1777.72 72.32 1779.9 72.32C1781.77 72.32 1783.48 72 1785.02 71.36C1786.62 70.6667 1787.98 69.6533 1789.1 68.32L1794.86 74.16C1793.05 76.2933 1790.84 77.9467 1788.22 79.12C1785.66 80.24 1782.89 80.8 1779.9 80.8ZM1801.29 80V41.6H1810.09V80H1801.29ZM1805.69 34.56C1804.19 34.56 1802.94 34.0533 1801.93 33.04C1800.97 32.0267 1800.49 30.7733 1800.49 29.28C1800.49 27.7867 1800.97 26.5333 1801.93 25.52C1802.94 24.5067 1804.19 24 1805.69 24C1807.23 24 1808.49 24.5067 1809.45 25.52C1810.41 26.5333 1810.89 27.7867 1810.89 29.28C1810.89 30.7733 1810.41 32.0267 1809.45 33.04C1808.49 34.0533 1807.23 34.56 1805.69 34.56ZM1837.56 80.8C1833.82 80.8 1830.44 79.92 1827.4 78.16C1824.36 76.3467 1821.93 73.92 1820.12 70.88C1818.36 67.84 1817.48 64.4533 1817.48 60.72C1817.48 56.9867 1818.36 53.6267 1820.12 50.64C1821.93 47.6533 1824.36 45.28 1827.4 43.52C1830.44 41.7067 1833.82 40.8 1837.56 40.8C1841.34 40.8 1844.76 41.68 1847.8 43.44C1850.84 45.2 1853.24 47.6 1855 50.64C1856.81 53.6267 1857.72 56.9867 1857.72 60.72C1857.72 64.4533 1856.81 67.84 1855 70.88C1853.24 73.92 1850.84 76.3467 1847.8 78.16C1844.76 79.92 1841.34 80.8 1837.56 80.8ZM1837.56 72.32C1839.74 72.32 1841.66 71.84 1843.32 70.88C1845.02 69.8667 1846.33 68.48 1847.24 66.72C1848.2 64.96 1848.68 62.96 1848.68 60.72C1848.68 58.48 1848.2 56.5067 1847.24 54.8C1846.28 53.0933 1844.97 51.76 1843.32 50.8C1841.66 49.7867 1839.74 49.28 1837.56 49.28C1835.42 49.28 1833.5 49.7867 1831.8 50.8C1830.14 51.76 1828.84 53.0933 1827.88 54.8C1826.97 56.5067 1826.52 58.48 1826.52 60.72C1826.52 62.96 1826.97 64.96 1827.88 66.72C1828.84 68.48 1830.14 69.8667 1831.8 70.88C1833.5 71.84 1835.42 72.32 1837.56 72.32ZM1891.36 80V57.84C1891.36 55.28 1890.53 53.1733 1888.88 51.52C1887.28 49.8667 1885.2 49.04 1882.64 49.04C1880.93 49.04 1879.41 49.4133 1878.08 50.16C1876.74 50.9067 1875.7 51.9467 1874.96 53.28C1874.21 54.6133 1873.84 56.1333 1873.84 57.84L1870.4 55.92C1870.4 52.9867 1871.04 50.4 1872.32 48.16C1873.6 45.8667 1875.36 44.08 1877.6 42.8C1879.89 41.4667 1882.45 40.8 1885.28 40.8C1888.16 40.8 1890.72 41.5467 1892.96 43.04C1895.2 44.48 1896.96 46.3733 1898.24 48.72C1899.52 51.0133 1900.16 53.4133 1900.16 55.92V80H1891.36ZM1865.04 80V41.6H1873.84V80H1865.04ZM1925.18 80.8C1921.71 80.8 1918.57 79.92 1915.74 78.16C1912.97 76.4 1910.75 74.0267 1909.1 71.04C1907.5 68 1906.7 64.6133 1906.7 60.88C1906.7 57.0933 1907.5 53.7067 1909.1 50.72C1910.75 47.68 1912.97 45.28 1915.74 43.52C1918.57 41.7067 1921.71 40.8 1925.18 40.8C1928.11 40.8 1930.7 41.44 1932.94 42.72C1935.23 43.9467 1937.05 45.6533 1938.38 47.84C1939.71 50.0267 1940.38 52.5067 1940.38 55.28V66.32C1940.38 69.0933 1939.71 71.5733 1938.38 73.76C1937.1 75.9467 1935.31 77.68 1933.02 78.96C1930.73 80.1867 1928.11 80.8 1925.18 80.8ZM1926.62 72.48C1929.87 72.48 1932.49 71.3867 1934.46 69.2C1936.49 67.0133 1937.5 64.2133 1937.5 60.8C1937.5 58.5067 1937.05 56.48 1936.14 54.72C1935.23 52.96 1933.95 51.6 1932.3 50.64C1930.7 49.6267 1928.81 49.12 1926.62 49.12C1924.49 49.12 1922.59 49.6267 1920.94 50.64C1919.34 51.6 1918.06 52.96 1917.1 54.72C1916.19 56.48 1915.74 58.5067 1915.74 60.8C1915.74 63.0933 1916.19 65.12 1917.1 66.88C1918.06 68.64 1919.34 70.0267 1920.94 71.04C1922.59 72 1924.49 72.48 1926.62 72.48ZM1936.94 80V69.68L1938.46 60.32L1936.94 51.04V41.6H1945.74V80H1936.94ZM1971.59 80.8C1968.12 80.8 1964.97 79.92 1962.15 78.16C1959.37 76.4 1957.16 74.0267 1955.51 71.04C1953.91 68 1953.11 64.6133 1953.11 60.88C1953.11 57.0933 1953.91 53.7067 1955.51 50.72C1957.16 47.68 1959.37 45.28 1962.15 43.52C1964.97 41.7067 1968.12 40.8 1971.59 40.8C1974.52 40.8 1977.11 41.44 1979.35 42.72C1981.64 43.9467 1983.45 45.6533 1984.79 47.84C1986.12 50.0267 1986.79 52.5067 1986.79 55.28V66.32C1986.79 69.0933 1986.12 71.5733 1984.79 73.76C1983.51 75.9467 1981.72 77.68 1979.43 78.96C1977.13 80.1867 1974.52 80.8 1971.59 80.8ZM1973.03 72.48C1975.21 72.48 1977.11 72 1978.71 71.04C1980.36 70.0267 1981.64 68.64 1982.55 66.88C1983.45 65.12 1983.91 63.0933 1983.91 60.8C1983.91 58.5067 1983.45 56.48 1982.55 54.72C1981.64 52.96 1980.36 51.6 1978.71 50.64C1977.11 49.6267 1975.21 49.12 1973.03 49.12C1970.89 49.12 1969 49.6267 1967.35 50.64C1965.75 51.6 1964.47 52.96 1963.51 54.72C1962.6 56.48 1962.15 58.5067 1962.15 60.8C1962.15 63.0933 1962.6 65.12 1963.51 66.88C1964.47 68.64 1965.75 70.0267 1967.35 71.04C1969 72 1970.89 72.48 1973.03 72.48ZM1992.15 80H1983.35V69.68L1984.87 60.32L1983.35 51.04V22.4H1992.15V80ZM2019.51 80.8C2015.78 80.8 2012.39 79.92 2009.35 78.16C2006.31 76.3467 2003.88 73.92 2002.07 70.88C2000.31 67.84 1999.43 64.4533 1999.43 60.72C1999.43 56.9867 2000.31 53.6267 2002.07 50.64C2003.88 47.6533 2006.31 45.28 2009.35 43.52C2012.39 41.7067 2015.78 40.8 2019.51 40.8C2023.3 40.8 2026.71 41.68 2029.75 43.44C2032.79 45.2 2035.19 47.6 2036.95 50.64C2038.76 53.6267 2039.67 56.9867 2039.67 60.72C2039.67 64.4533 2038.76 67.84 2036.95 70.88C2035.19 73.92 2032.79 76.3467 2029.75 78.16C2026.71 79.92 2023.3 80.8 2019.51 80.8ZM2019.51 72.32C2021.7 72.32 2023.62 71.84 2025.27 70.88C2026.98 69.8667 2028.28 68.48 2029.19 66.72C2030.15 64.96 2030.63 62.96 2030.63 60.72C2030.63 58.48 2030.15 56.5067 2029.19 54.8C2028.23 53.0933 2026.92 51.76 2025.27 50.8C2023.62 49.7867 2021.7 49.28 2019.51 49.28C2017.38 49.28 2015.46 49.7867 2013.75 50.8C2012.1 51.76 2010.79 53.0933 2009.83 54.8C2008.92 56.5067 2008.47 58.48 2008.47 60.72C2008.47 62.96 2008.92 64.96 2009.83 66.72C2010.79 68.48 2012.1 69.8667 2013.75 70.88C2015.46 71.84 2017.38 72.32 2019.51 72.32ZM2059.55 80.8C2057.42 80.8 2055.36 80.5333 2053.39 80C2051.42 79.4133 2049.6 78.6133 2047.95 77.6C2046.3 76.5333 2044.86 75.2533 2043.63 73.76L2049.23 68.16C2050.56 69.7067 2052.08 70.88 2053.79 71.68C2055.55 72.4267 2057.52 72.8 2059.71 72.8C2061.68 72.8 2063.18 72.5067 2064.19 71.92C2065.2 71.3333 2065.71 70.48 2065.71 69.36C2065.71 68.1867 2065.23 67.28 2064.27 66.64C2063.31 66 2062.06 65.4667 2060.51 65.04C2059.02 64.56 2057.42 64.08 2055.71 63.6C2054.06 63.12 2052.46 62.48 2050.91 61.68C2049.42 60.8267 2048.19 59.68 2047.23 58.24C2046.27 56.8 2045.79 54.9333 2045.79 52.64C2045.79 50.1867 2046.35 48.08 2047.47 46.32C2048.64 44.56 2050.27 43.2 2052.35 42.24C2054.48 41.28 2057.02 40.8 2059.95 40.8C2063.04 40.8 2065.76 41.36 2068.11 42.48C2070.51 43.5467 2072.51 45.1733 2074.11 47.36L2068.51 52.96C2067.39 51.5733 2066.11 50.5333 2064.67 49.84C2063.23 49.1467 2061.58 48.8 2059.71 48.8C2057.95 48.8 2056.59 49.0667 2055.63 49.6C2054.67 50.1333 2054.19 50.9067 2054.19 51.92C2054.19 52.9867 2054.67 53.8133 2055.63 54.4C2056.59 54.9867 2057.82 55.4933 2059.31 55.92C2060.86 56.3467 2062.46 56.8267 2064.11 57.36C2065.82 57.84 2067.42 58.5333 2068.91 59.44C2070.46 60.2933 2071.71 61.4667 2072.67 62.96C2073.63 64.4 2074.11 66.2933 2074.11 68.64C2074.11 72.3733 2072.8 75.3333 2070.19 77.52C2067.58 79.7067 2064.03 80.8 2059.55 80.8ZM2117.94 80.8C2115.01 80.8 2112.39 80.1867 2110.1 78.96C2107.81 77.68 2105.99 75.9467 2104.66 73.76C2103.38 71.5733 2102.74 69.0933 2102.74 66.32V55.28C2102.74 52.5067 2103.41 50.0267 2104.74 47.84C2106.07 45.6533 2107.89 43.9467 2110.18 42.72C2112.47 41.44 2115.06 40.8 2117.94 40.8C2121.41 40.8 2124.53 41.7067 2127.3 43.52C2130.13 45.28 2132.34 47.68 2133.94 50.72C2135.59 53.7067 2136.42 57.0933 2136.42 60.88C2136.42 64.6133 2135.59 68 2133.94 71.04C2132.34 74.0267 2130.13 76.4 2127.3 78.16C2124.53 79.92 2121.41 80.8 2117.94 80.8ZM2097.38 96V41.6H2106.18V51.92L2104.66 61.28L2106.18 70.56V96H2097.38ZM2116.5 72.48C2118.63 72.48 2120.5 72 2122.1 71.04C2123.75 70.0267 2125.03 68.64 2125.94 66.88C2126.9 65.12 2127.38 63.0933 2127.38 60.8C2127.38 58.5067 2126.9 56.48 2125.94 54.72C2125.03 52.96 2123.75 51.6 2122.1 50.64C2120.5 49.6267 2118.63 49.12 2116.5 49.12C2114.37 49.12 2112.47 49.6267 2110.82 50.64C2109.17 51.6 2107.89 52.96 2106.98 54.72C2106.07 56.48 2105.62 58.5067 2105.62 60.8C2105.62 63.0933 2106.07 65.12 2106.98 66.88C2107.89 68.64 2109.17 70.0267 2110.82 71.04C2112.47 72 2114.37 72.48 2116.5 72.48ZM2161.39 80.8C2157.65 80.8 2154.27 79.92 2151.23 78.16C2148.19 76.3467 2145.76 73.92 2143.95 70.88C2142.19 67.84 2141.31 64.4533 2141.31 60.72C2141.31 56.9867 2142.19 53.6267 2143.95 50.64C2145.76 47.6533 2148.19 45.28 2151.23 43.52C2154.27 41.7067 2157.65 40.8 2161.39 40.8C2165.17 40.8 2168.59 41.68 2171.63 43.44C2174.67 45.2 2177.07 47.6 2178.83 50.64C2180.64 53.6267 2181.55 56.9867 2181.55 60.72C2181.55 64.4533 2180.64 67.84 2178.83 70.88C2177.07 73.92 2174.67 76.3467 2171.63 78.16C2168.59 79.92 2165.17 80.8 2161.39 80.8ZM2161.39 72.32C2163.57 72.32 2165.49 71.84 2167.15 70.88C2168.85 69.8667 2170.16 68.48 2171.07 66.72C2172.03 64.96 2172.51 62.96 2172.51 60.72C2172.51 58.48 2172.03 56.5067 2171.07 54.8C2170.11 53.0933 2168.8 51.76 2167.15 50.8C2165.49 49.7867 2163.57 49.28 2161.39 49.28C2159.25 49.28 2157.33 49.7867 2155.63 50.8C2153.97 51.76 2152.67 53.0933 2151.71 54.8C2150.8 56.5067 2150.35 58.48 2150.35 60.72C2150.35 62.96 2150.8 64.96 2151.71 66.72C2152.67 68.48 2153.97 69.8667 2155.63 70.88C2157.33 71.84 2159.25 72.32 2161.39 72.32ZM2188.86 80V41.6H2197.66V80H2188.86ZM2197.66 58.64L2194.62 57.12C2194.62 52.2667 2195.69 48.3467 2197.82 45.36C2200.01 42.32 2203.29 40.8 2207.66 40.8C2209.58 40.8 2211.32 41.1467 2212.86 41.84C2214.41 42.5333 2215.85 43.6533 2217.18 45.2L2211.42 51.12C2210.73 50.3733 2209.96 49.84 2209.1 49.52C2208.25 49.2 2207.26 49.04 2206.14 49.04C2203.69 49.04 2201.66 49.8133 2200.06 51.36C2198.46 52.9067 2197.66 55.3333 2197.66 58.64ZM2255.66 80.8C2251.24 80.8 2247.48 80 2244.38 78.4C2241.29 76.8 2238.52 74.4533 2236.06 71.36L2242.3 65.12C2243.85 67.36 2245.69 69.12 2247.82 70.4C2249.96 71.6267 2252.68 72.24 2255.98 72.24C2259.08 72.24 2261.53 71.6 2263.34 70.32C2265.21 69.04 2266.14 67.28 2266.14 65.04C2266.14 63.1733 2265.66 61.6533 2264.7 60.48C2263.74 59.3067 2262.46 58.3467 2260.86 57.6C2259.32 56.8 2257.58 56.1067 2255.66 55.52C2253.8 54.88 2251.9 54.1867 2249.98 53.44C2248.12 52.64 2246.38 51.6533 2244.78 50.48C2243.24 49.3067 2241.98 47.7867 2241.02 45.92C2240.06 44.0533 2239.58 41.68 2239.58 38.8C2239.58 35.4933 2240.38 32.6933 2241.98 30.4C2243.64 28.0533 2245.85 26.2667 2248.62 25.04C2251.4 23.8133 2254.49 23.2 2257.9 23.2C2261.58 23.2 2264.86 23.92 2267.74 25.36C2270.68 26.8 2273.05 28.64 2274.86 30.88L2268.62 37.12C2267.02 35.3067 2265.34 33.9733 2263.58 33.12C2261.88 32.2133 2259.9 31.76 2257.66 31.76C2254.89 31.76 2252.7 32.32 2251.1 33.44C2249.56 34.56 2248.78 36.1333 2248.78 38.16C2248.78 39.8667 2249.26 41.2533 2250.22 42.32C2251.18 43.3333 2252.44 44.2133 2253.98 44.96C2255.58 45.6533 2257.32 46.32 2259.18 46.96C2261.1 47.6 2263 48.32 2264.86 49.12C2266.78 49.92 2268.52 50.96 2270.06 52.24C2271.66 53.4667 2272.94 55.0667 2273.9 57.04C2274.86 59.0133 2275.34 61.4933 2275.34 64.48C2275.34 69.4933 2273.56 73.4667 2269.98 76.4C2266.46 79.3333 2261.69 80.8 2255.66 80.8ZM2300.69 80.8C2296.85 80.8 2293.38 79.9467 2290.29 78.24C2287.25 76.48 2284.82 74.08 2283.01 71.04C2281.25 68 2280.37 64.5867 2280.37 60.8C2280.37 57.0133 2281.25 53.6267 2283.01 50.64C2284.77 47.6 2287.14 45.2 2290.13 43.44C2293.17 41.68 2296.53 40.8 2300.21 40.8C2303.78 40.8 2306.93 41.6267 2309.65 43.28C2312.42 44.9333 2314.58 47.2 2316.13 50.08C2317.73 52.96 2318.53 56.24 2318.53 59.92C2318.53 60.56 2318.48 61.2267 2318.37 61.92C2318.32 62.56 2318.21 63.28 2318.05 64.08H2286.53V56.88H2313.49L2310.21 59.76C2310.1 57.4133 2309.65 55.44 2308.85 53.84C2308.05 52.24 2306.9 51.0133 2305.41 50.16C2303.97 49.3067 2302.18 48.88 2300.05 48.88C2297.81 48.88 2295.86 49.36 2294.21 50.32C2292.56 51.28 2291.28 52.64 2290.37 54.4C2289.46 56.1067 2289.01 58.16 2289.01 60.56C2289.01 62.96 2289.49 65.0667 2290.45 66.88C2291.41 68.6933 2292.77 70.1067 2294.53 71.12C2296.29 72.08 2298.32 72.56 2300.61 72.56C2302.58 72.56 2304.4 72.2133 2306.05 71.52C2307.76 70.8267 2309.2 69.8133 2310.37 68.48L2315.97 74.16C2314.1 76.3467 2311.84 78 2309.17 79.12C2306.5 80.24 2303.68 80.8 2300.69 80.8ZM2330.41 80V25.6H2339.21V80H2330.41ZM2321.21 49.6V41.6H2348.41V49.6H2321.21ZM2371.31 80.8C2367.57 80.8 2364.19 79.92 2361.15 78.16C2358.11 76.3467 2355.68 73.92 2353.87 70.88C2352.11 67.84 2351.23 64.4533 2351.23 60.72C2351.23 56.9867 2352.11 53.6267 2353.87 50.64C2355.68 47.6533 2358.11 45.28 2361.15 43.52C2364.19 41.7067 2367.57 40.8 2371.31 40.8C2375.09 40.8 2378.51 41.68 2381.55 43.44C2384.59 45.2 2386.99 47.6 2388.75 50.64C2390.56 53.6267 2391.47 56.9867 2391.47 60.72C2391.47 64.4533 2390.56 67.84 2388.75 70.88C2386.99 73.92 2384.59 76.3467 2381.55 78.16C2378.51 79.92 2375.09 80.8 2371.31 80.8ZM2371.31 72.32C2373.49 72.32 2375.41 71.84 2377.07 70.88C2378.77 69.8667 2380.08 68.48 2380.99 66.72C2381.95 64.96 2382.43 62.96 2382.43 60.72C2382.43 58.48 2381.95 56.5067 2380.99 54.8C2380.03 53.0933 2378.72 51.76 2377.07 50.8C2375.41 49.7867 2373.49 49.28 2371.31 49.28C2369.17 49.28 2367.25 49.7867 2365.55 50.8C2363.89 51.76 2362.59 53.0933 2361.63 54.8C2360.72 56.5067 2360.27 58.48 2360.27 60.72C2360.27 62.96 2360.72 64.96 2361.63 66.72C2362.59 68.48 2363.89 69.8667 2365.55 70.88C2367.25 71.84 2369.17 72.32 2371.31 72.32ZM2398.79 80V41.6H2407.59V80H2398.79ZM2407.59 58.64L2404.55 57.12C2404.55 52.2667 2405.61 48.3467 2407.75 45.36C2409.93 42.32 2413.21 40.8 2417.59 40.8C2419.51 40.8 2421.24 41.1467 2422.79 41.84C2424.33 42.5333 2425.77 43.6533 2427.11 45.2L2421.35 51.12C2420.65 50.3733 2419.88 49.84 2419.03 49.52C2418.17 49.2 2417.19 49.04 2416.07 49.04C2413.61 49.04 2411.59 49.8133 2409.99 51.36C2408.39 52.9067 2407.59 55.3333 2407.59 58.64Z" fill="#8A1A3B"/>
</svg>
