<svg width="2271" height="131" viewBox="0 0 2271 131" fill="none" xmlns="http://www.w3.org/2000/svg">
<path d="M6.08 80V24H15.28V80H6.08ZM12.4 80V71.6H43.76V80H12.4ZM12.4 55.44V47.36H41.04V55.44H12.4ZM12.4 32.4V24H43.36V32.4H12.4ZM65.0275 80L47.5075 41.6H57.2675L70.6275 72.88H64.8675L78.3075 41.6H87.6675L70.1475 80H65.0275ZM109.121 80.8C105.387 80.8 102.001 79.92 98.9606 78.16C95.9206 76.3467 93.494 73.92 91.6806 70.88C89.9206 67.84 89.0406 64.4533 89.0406 60.72C89.0406 56.9867 89.9206 53.6267 91.6806 50.64C93.494 47.6533 95.9206 45.28 98.9606 43.52C102.001 41.7067 105.387 40.8 109.121 40.8C112.907 40.8 116.321 41.68 119.361 43.44C122.401 45.2 124.801 47.6 126.561 50.64C128.374 53.6267 129.281 56.9867 129.281 60.72C129.281 64.4533 128.374 67.84 126.561 70.88C124.801 73.92 122.401 76.3467 119.361 78.16C116.321 79.92 112.907 80.8 109.121 80.8ZM109.121 72.32C111.307 72.32 113.227 71.84 114.881 70.88C116.587 69.8667 117.894 68.48 118.801 66.72C119.761 64.96 120.241 62.96 120.241 60.72C120.241 58.48 119.761 56.5067 118.801 54.8C117.841 53.0933 116.534 51.76 114.881 50.8C113.227 49.7867 111.307 49.28 109.121 49.28C106.987 49.28 105.067 49.7867 103.361 50.8C101.707 51.76 100.401 53.0933 99.4406 54.8C98.534 56.5067 98.0806 58.48 98.0806 60.72C98.0806 62.96 98.534 64.96 99.4406 66.72C100.401 68.48 101.707 69.8667 103.361 70.88C105.067 71.84 106.987 72.32 109.121 72.32ZM136.599 80V22.4H145.399V80H136.599ZM170.953 80.8C167.699 80.8 164.793 80.08 162.233 78.64C159.726 77.2 157.753 75.2267 156.313 72.72C154.926 70.16 154.233 67.2267 154.233 63.92V41.6H163.033V63.52C163.033 65.3867 163.326 66.9867 163.913 68.32C164.553 69.6 165.459 70.5867 166.633 71.28C167.859 71.9733 169.299 72.32 170.953 72.32C173.513 72.32 175.459 71.5733 176.793 70.08C178.179 68.5333 178.873 66.3467 178.873 63.52V41.6H187.673V63.92C187.673 67.28 186.953 70.24 185.513 72.8C184.126 75.3067 182.179 77.28 179.673 78.72C177.166 80.1067 174.259 80.8 170.953 80.8ZM214.201 80.8C210.414 80.8 206.974 79.92 203.881 78.16C200.841 76.4 198.441 74 196.681 70.96C194.921 67.92 194.041 64.5333 194.041 60.8C194.041 57.0133 194.921 53.6267 196.681 50.64C198.441 47.6 200.841 45.2 203.881 43.44C206.974 41.68 210.414 40.8 214.201 40.8C217.187 40.8 219.961 41.3867 222.521 42.56C225.134 43.68 227.347 45.3067 229.161 47.44L223.401 53.28C222.281 51.9467 220.921 50.96 219.321 50.32C217.774 49.6267 216.067 49.28 214.201 49.28C212.014 49.28 210.067 49.7867 208.361 50.8C206.707 51.76 205.401 53.0933 204.441 54.8C203.534 56.5067 203.081 58.5067 203.081 60.8C203.081 63.04 203.534 65.04 204.441 66.8C205.401 68.5067 206.707 69.8667 208.361 70.88C210.067 71.84 212.014 72.32 214.201 72.32C216.067 72.32 217.774 72 219.321 71.36C220.921 70.6667 222.281 69.6533 223.401 68.32L229.161 74.16C227.347 76.2933 225.134 77.9467 222.521 79.12C219.961 80.24 217.187 80.8 214.201 80.8ZM211.721 96.8C209.747 96.8 208.014 96.56 206.521 96.08C205.027 95.6 203.587 94.9067 202.201 94L205.801 89.44C206.387 89.9733 207.107 90.4 207.961 90.72C208.814 91.0933 209.854 91.28 211.081 91.28C212.467 91.28 213.454 91.0933 214.041 90.72C214.681 90.3467 215.001 89.8933 215.001 89.36C215.001 88.7733 214.707 88.24 214.121 87.76C213.587 87.3333 212.707 87.12 211.481 87.12H207.321L209.961 78.88H216.361L214.441 84.64L211.241 82.24C214.547 82.1333 217.214 82.7733 219.241 84.16C221.267 85.6 222.281 87.3867 222.281 89.52C222.281 91.6 221.294 93.3333 219.321 94.72C217.401 96.1067 214.867 96.8 211.721 96.8ZM250.804 80.8C247.337 80.8 244.19 79.92 241.364 78.16C238.59 76.4 236.377 74.0267 234.724 71.04C233.124 68 232.324 64.6133 232.324 60.88C232.324 57.0933 233.124 53.7067 234.724 50.72C236.377 47.68 238.59 45.28 241.364 43.52C244.19 41.7067 247.337 40.8 250.804 40.8C253.737 40.8 256.324 41.44 258.564 42.72C260.857 43.9467 262.67 45.6533 264.004 47.84C265.337 50.0267 266.004 52.5067 266.004 55.28V66.32C266.004 69.0933 265.337 71.5733 264.004 73.76C262.724 75.9467 260.937 77.68 258.644 78.96C256.35 80.1867 253.737 80.8 250.804 80.8ZM252.244 72.48C255.497 72.48 258.11 71.3867 260.084 69.2C262.11 67.0133 263.124 64.2133 263.124 60.8C263.124 58.5067 262.67 56.48 261.764 54.72C260.857 52.96 259.577 51.6 257.924 50.64C256.324 49.6267 254.43 49.12 252.244 49.12C250.11 49.12 248.217 49.6267 246.564 50.64C244.964 51.6 243.684 52.96 242.724 54.72C241.817 56.48 241.364 58.5067 241.364 60.8C241.364 63.0933 241.817 65.12 242.724 66.88C243.684 68.64 244.964 70.0267 246.564 71.04C248.217 72 250.11 72.48 252.244 72.48ZM262.564 80V69.68L264.084 60.32L262.564 51.04V41.6H271.364V80H262.564ZM258.804 36.08C257.044 36.08 255.55 35.76 254.324 35.12C253.097 34.48 251.95 33.8667 250.884 33.28C249.87 32.64 248.724 32.32 247.444 32.32C246.11 32.32 245.044 32.56 244.244 33.04C243.444 33.52 242.67 34.24 241.924 35.2L237.204 30.48C238.75 28.72 240.297 27.3333 241.844 26.32C243.39 25.2533 245.204 24.72 247.284 24.72C249.044 24.72 250.537 25.04 251.764 25.68C252.99 26.2667 254.137 26.88 255.204 27.52C256.27 28.16 257.417 28.48 258.644 28.48C260.03 28.48 261.124 28.24 261.924 27.76C262.724 27.28 263.47 26.56 264.164 25.6L268.884 30.32C267.337 32.08 265.79 33.4933 264.244 34.56C262.697 35.5733 260.884 36.08 258.804 36.08ZM298.73 80.8C294.997 80.8 291.61 79.92 288.57 78.16C285.53 76.3467 283.103 73.92 281.29 70.88C279.53 67.84 278.65 64.4533 278.65 60.72C278.65 56.9867 279.53 53.6267 281.29 50.64C283.103 47.6533 285.53 45.28 288.57 43.52C291.61 41.7067 294.997 40.8 298.73 40.8C302.517 40.8 305.93 41.68 308.97 43.44C312.01 45.2 314.41 47.6 316.17 50.64C317.983 53.6267 318.89 56.9867 318.89 60.72C318.89 64.4533 317.983 67.84 316.17 70.88C314.41 73.92 312.01 76.3467 308.97 78.16C305.93 79.92 302.517 80.8 298.73 80.8ZM298.73 72.32C300.917 72.32 302.837 71.84 304.49 70.88C306.197 69.8667 307.503 68.48 308.41 66.72C309.37 64.96 309.85 62.96 309.85 60.72C309.85 58.48 309.37 56.5067 308.41 54.8C307.45 53.0933 306.143 51.76 304.49 50.8C302.837 49.7867 300.917 49.28 298.73 49.28C296.597 49.28 294.677 49.7867 292.97 50.8C291.317 51.76 290.01 53.0933 289.05 54.8C288.143 56.5067 287.69 58.48 287.69 60.72C287.69 62.96 288.143 64.96 289.05 66.72C290.01 68.48 291.317 69.8667 292.97 70.88C294.677 71.84 296.597 72.32 298.73 72.32ZM358.304 80.8C354.837 80.8 351.69 79.92 348.864 78.16C346.09 76.4 343.877 74.0267 342.224 71.04C340.624 68 339.824 64.6133 339.824 60.88C339.824 57.0933 340.624 53.7067 342.224 50.72C343.877 47.68 346.09 45.28 348.864 43.52C351.69 41.7067 354.837 40.8 358.304 40.8C361.237 40.8 363.824 41.44 366.064 42.72C368.357 43.9467 370.17 45.6533 371.504 47.84C372.837 50.0267 373.504 52.5067 373.504 55.28V66.32C373.504 69.0933 372.837 71.5733 371.504 73.76C370.224 75.9467 368.437 77.68 366.144 78.96C363.85 80.1867 361.237 80.8 358.304 80.8ZM359.744 72.48C361.93 72.48 363.824 72 365.424 71.04C367.077 70.0267 368.357 68.64 369.264 66.88C370.17 65.12 370.624 63.0933 370.624 60.8C370.624 58.5067 370.17 56.48 369.264 54.72C368.357 52.96 367.077 51.6 365.424 50.64C363.824 49.6267 361.93 49.12 359.744 49.12C357.61 49.12 355.717 49.6267 354.064 50.64C352.464 51.6 351.184 52.96 350.224 54.72C349.317 56.48 348.864 58.5067 348.864 60.8C348.864 63.0933 349.317 65.12 350.224 66.88C351.184 68.64 352.464 70.0267 354.064 71.04C355.717 72 357.61 72.48 359.744 72.48ZM378.864 80H370.064V69.68L371.584 60.32L370.064 51.04V22.4H378.864V80ZM404.71 80.8C401.243 80.8 398.097 79.92 395.27 78.16C392.497 76.4 390.283 74.0267 388.63 71.04C387.03 68 386.23 64.6133 386.23 60.88C386.23 57.0933 387.03 53.7067 388.63 50.72C390.283 47.68 392.497 45.28 395.27 43.52C398.097 41.7067 401.243 40.8 404.71 40.8C407.643 40.8 410.23 41.44 412.47 42.72C414.763 43.9467 416.577 45.6533 417.91 47.84C419.243 50.0267 419.91 52.5067 419.91 55.28V66.32C419.91 69.0933 419.243 71.5733 417.91 73.76C416.63 75.9467 414.843 77.68 412.55 78.96C410.257 80.1867 407.643 80.8 404.71 80.8ZM406.15 72.48C409.403 72.48 412.017 71.3867 413.99 69.2C416.017 67.0133 417.03 64.2133 417.03 60.8C417.03 58.5067 416.577 56.48 415.67 54.72C414.763 52.96 413.483 51.6 411.83 50.64C410.23 49.6267 408.337 49.12 406.15 49.12C404.017 49.12 402.123 49.6267 400.47 50.64C398.87 51.6 397.59 52.96 396.63 54.72C395.723 56.48 395.27 58.5067 395.27 60.8C395.27 63.0933 395.723 65.12 396.63 66.88C397.59 68.64 398.87 70.0267 400.47 71.04C402.123 72 404.017 72.48 406.15 72.48ZM416.47 80V69.68L417.99 60.32L416.47 51.04V41.6H425.27V80H416.47ZM465.082 80V25.6H474.282V80H465.082ZM446.842 32.4V24H492.522V32.4H446.842ZM505.491 80.8C502.025 80.8 498.878 79.92 496.051 78.16C493.278 76.4 491.065 74.0267 489.411 71.04C487.811 68 487.011 64.6133 487.011 60.88C487.011 57.0933 487.811 53.7067 489.411 50.72C491.065 47.68 493.278 45.28 496.051 43.52C498.878 41.7067 502.025 40.8 505.491 40.8C508.425 40.8 511.011 41.44 513.251 42.72C515.545 43.9467 517.358 45.6533 518.691 47.84C520.025 50.0267 520.691 52.5067 520.691 55.28V66.32C520.691 69.0933 520.025 71.5733 518.691 73.76C517.411 75.9467 515.625 77.68 513.331 78.96C511.038 80.1867 508.425 80.8 505.491 80.8ZM506.931 72.48C510.185 72.48 512.798 71.3867 514.771 69.2C516.798 67.0133 517.811 64.2133 517.811 60.8C517.811 58.5067 517.358 56.48 516.451 54.72C515.545 52.96 514.265 51.6 512.611 50.64C511.011 49.6267 509.118 49.12 506.931 49.12C504.798 49.12 502.905 49.6267 501.251 50.64C499.651 51.6 498.371 52.96 497.411 54.72C496.505 56.48 496.051 58.5067 496.051 60.8C496.051 63.0933 496.505 65.12 497.411 66.88C498.371 68.64 499.651 70.0267 501.251 71.04C502.905 72 504.798 72.48 506.931 72.48ZM517.251 80V69.68L518.771 60.32L517.251 51.04V41.6H526.051V80H517.251ZM560.138 80L549.098 63.76L547.498 62.32L532.618 41.6H543.258L553.098 55.84L554.618 57.2L570.698 80H560.138ZM531.898 80L547.418 58.48L552.538 64.8L542.138 80H531.898ZM555.418 62.16L550.218 55.92L559.818 41.6H569.978L555.418 62.16ZM591.507 80.8C588.04 80.8 584.894 79.92 582.067 78.16C579.294 76.4 577.08 74.0267 575.427 71.04C573.827 68 573.027 64.6133 573.027 60.88C573.027 57.0933 573.827 53.7067 575.427 50.72C577.08 47.68 579.294 45.28 582.067 43.52C584.894 41.7067 588.04 40.8 591.507 40.8C594.44 40.8 597.027 41.44 599.267 42.72C601.56 43.9467 603.374 45.6533 604.707 47.84C606.04 50.0267 606.707 52.5067 606.707 55.28V66.32C606.707 69.0933 606.04 71.5733 604.707 73.76C603.427 75.9467 601.64 77.68 599.347 78.96C597.054 80.1867 594.44 80.8 591.507 80.8ZM592.947 72.48C596.2 72.48 598.814 71.3867 600.787 69.2C602.814 67.0133 603.827 64.2133 603.827 60.8C603.827 58.5067 603.374 56.48 602.467 54.72C601.56 52.96 600.28 51.6 598.627 50.64C597.027 49.6267 595.134 49.12 592.947 49.12C590.814 49.12 588.92 49.6267 587.267 50.64C585.667 51.6 584.387 52.96 583.427 54.72C582.52 56.48 582.067 58.5067 582.067 60.8C582.067 63.0933 582.52 65.12 583.427 66.88C584.387 68.64 585.667 70.0267 587.267 71.04C588.92 72 590.814 72.48 592.947 72.48ZM603.267 80V69.68L604.787 60.32L603.267 51.04V41.6H612.067V80H603.267ZM653.929 80.8C650.462 80.8 647.315 79.92 644.489 78.16C641.715 76.4 639.502 74.0267 637.849 71.04C636.249 68 635.449 64.6133 635.449 60.88C635.449 57.0933 636.249 53.7067 637.849 50.72C639.502 47.68 641.715 45.28 644.489 43.52C647.315 41.7067 650.462 40.8 653.929 40.8C656.862 40.8 659.449 41.44 661.689 42.72C663.982 43.9467 665.795 45.6533 667.129 47.84C668.462 50.0267 669.129 52.5067 669.129 55.28V66.32C669.129 69.0933 668.462 71.5733 667.129 73.76C665.849 75.9467 664.062 77.68 661.769 78.96C659.475 80.1867 656.862 80.8 653.929 80.8ZM655.369 72.48C657.555 72.48 659.449 72 661.049 71.04C662.702 70.0267 663.982 68.64 664.889 66.88C665.795 65.12 666.249 63.0933 666.249 60.8C666.249 58.5067 665.795 56.48 664.889 54.72C663.982 52.96 662.702 51.6 661.049 50.64C659.449 49.6267 657.555 49.12 655.369 49.12C653.235 49.12 651.342 49.6267 649.689 50.64C648.089 51.6 646.809 52.96 645.849 54.72C644.942 56.48 644.489 58.5067 644.489 60.8C644.489 63.0933 644.942 65.12 645.849 66.88C646.809 68.64 648.089 70.0267 649.689 71.04C651.342 72 653.235 72.48 655.369 72.48ZM674.489 80H665.689V69.68L667.209 60.32L665.689 51.04V22.4H674.489V80ZM702.095 80.8C698.255 80.8 694.788 79.9467 691.695 78.24C688.655 76.48 686.228 74.08 684.415 71.04C682.655 68 681.775 64.5867 681.775 60.8C681.775 57.0133 682.655 53.6267 684.415 50.64C686.175 47.6 688.548 45.2 691.535 43.44C694.575 41.68 697.935 40.8 701.615 40.8C705.188 40.8 708.335 41.6267 711.055 43.28C713.828 44.9333 715.988 47.2 717.535 50.08C719.135 52.96 719.935 56.24 719.935 59.92C719.935 60.56 719.882 61.2267 719.775 61.92C719.722 62.56 719.615 63.28 719.455 64.08H687.935V56.88H714.895L711.615 59.76C711.508 57.4133 711.055 55.44 710.255 53.84C709.455 52.24 708.308 51.0133 706.815 50.16C705.375 49.3067 703.588 48.88 701.455 48.88C699.215 48.88 697.268 49.36 695.615 50.32C693.962 51.28 692.682 52.64 691.775 54.4C690.868 56.1067 690.415 58.16 690.415 60.56C690.415 62.96 690.895 65.0667 691.855 66.88C692.815 68.6933 694.175 70.1067 695.935 71.12C697.695 72.08 699.722 72.56 702.015 72.56C703.988 72.56 705.802 72.2133 707.455 71.52C709.162 70.8267 710.602 69.8133 711.775 68.48L717.375 74.16C715.508 76.3467 713.242 78 710.575 79.12C707.908 80.24 705.082 80.8 702.095 80.8ZM737.779 80L760.819 24H767.219L790.099 80H780.179L762.259 34.64H765.619L747.539 80H737.779ZM749.139 69.2V61.2H778.819V69.2H749.139ZM817.471 80.8C814.538 80.8 811.925 80.1867 809.631 78.96C807.338 77.68 805.525 75.9467 804.191 73.76C802.911 71.5733 802.271 69.0933 802.271 66.32V55.28C802.271 52.5067 802.938 50.0267 804.271 47.84C805.605 45.6533 807.418 43.9467 809.711 42.72C812.005 41.44 814.591 40.8 817.471 40.8C820.938 40.8 824.058 41.7067 826.831 43.52C829.658 45.28 831.871 47.68 833.471 50.72C835.125 53.7067 835.951 57.0933 835.951 60.88C835.951 64.6133 835.125 68 833.471 71.04C831.871 74.0267 829.658 76.4 826.831 78.16C824.058 79.92 820.938 80.8 817.471 80.8ZM796.911 80V22.4H805.711V51.04L804.191 60.32L805.711 69.68V80H796.911ZM816.031 72.48C818.165 72.48 820.031 72 821.631 71.04C823.285 70.0267 824.565 68.64 825.471 66.88C826.431 65.12 826.911 63.0933 826.911 60.8C826.911 58.5067 826.431 56.48 825.471 54.72C824.565 52.96 823.285 51.6 821.631 50.64C820.031 49.6267 818.165 49.12 816.031 49.12C813.898 49.12 812.005 49.6267 810.351 50.64C808.698 51.6 807.418 52.96 806.511 54.72C805.605 56.48 805.151 58.5067 805.151 60.8C805.151 63.0933 805.605 65.12 806.511 66.88C807.418 68.64 808.698 70.0267 810.351 71.04C812.005 72 813.898 72.48 816.031 72.48ZM859.398 80.8C855.931 80.8 852.784 79.92 849.958 78.16C847.184 76.4 844.971 74.0267 843.318 71.04C841.718 68 840.918 64.6133 840.918 60.88C840.918 57.0933 841.718 53.7067 843.318 50.72C844.971 47.68 847.184 45.28 849.958 43.52C852.784 41.7067 855.931 40.8 859.398 40.8C862.331 40.8 864.918 41.44 867.158 42.72C869.451 43.9467 871.264 45.6533 872.598 47.84C873.931 50.0267 874.598 52.5067 874.598 55.28V66.32C874.598 69.0933 873.931 71.5733 872.598 73.76C871.318 75.9467 869.531 77.68 867.238 78.96C864.944 80.1867 862.331 80.8 859.398 80.8ZM860.838 72.48C864.091 72.48 866.704 71.3867 868.678 69.2C870.704 67.0133 871.718 64.2133 871.718 60.8C871.718 58.5067 871.264 56.48 870.358 54.72C869.451 52.96 868.171 51.6 866.518 50.64C864.918 49.6267 863.024 49.12 860.838 49.12C858.704 49.12 856.811 49.6267 855.158 50.64C853.558 51.6 852.278 52.96 851.318 54.72C850.411 56.48 849.958 58.5067 849.958 60.8C849.958 63.0933 850.411 65.12 851.318 66.88C852.278 68.64 853.558 70.0267 855.158 71.04C856.811 72 858.704 72.48 860.838 72.48ZM871.158 80V69.68L872.678 60.32L871.158 51.04V41.6H879.958V80H871.158ZM916.044 80V57.84C916.044 55.28 915.217 53.1733 913.564 51.52C911.964 49.8667 909.884 49.04 907.324 49.04C905.617 49.04 904.097 49.4133 902.764 50.16C901.43 50.9067 900.39 51.9467 899.644 53.28C898.897 54.6133 898.524 56.1333 898.524 57.84L895.084 55.92C895.084 52.9867 895.724 50.4 897.004 48.16C898.284 45.8667 900.044 44.08 902.284 42.8C904.577 41.4667 907.137 40.8 909.964 40.8C912.844 40.8 915.404 41.5467 917.644 43.04C919.884 44.48 921.644 46.3733 922.924 48.72C924.204 51.0133 924.844 53.4133 924.844 55.92V80H916.044ZM889.724 80V41.6H898.524V80H889.724ZM949.866 80.8C946.4 80.8 943.253 79.92 940.426 78.16C937.653 76.4 935.44 74.0267 933.786 71.04C932.186 68 931.386 64.6133 931.386 60.88C931.386 57.0933 932.186 53.7067 933.786 50.72C935.44 47.68 937.653 45.28 940.426 43.52C943.253 41.7067 946.4 40.8 949.866 40.8C952.8 40.8 955.386 41.44 957.626 42.72C959.92 43.9467 961.733 45.6533 963.066 47.84C964.4 50.0267 965.066 52.5067 965.066 55.28V66.32C965.066 69.0933 964.4 71.5733 963.066 73.76C961.786 75.9467 960 77.68 957.706 78.96C955.413 80.1867 952.8 80.8 949.866 80.8ZM951.306 72.48C953.493 72.48 955.386 72 956.986 71.04C958.64 70.0267 959.92 68.64 960.826 66.88C961.733 65.12 962.186 63.0933 962.186 60.8C962.186 58.5067 961.733 56.48 960.826 54.72C959.92 52.96 958.64 51.6 956.986 50.64C955.386 49.6267 953.493 49.12 951.306 49.12C949.173 49.12 947.28 49.6267 945.626 50.64C944.026 51.6 942.746 52.96 941.786 54.72C940.88 56.48 940.426 58.5067 940.426 60.8C940.426 63.0933 940.88 65.12 941.786 66.88C942.746 68.64 944.026 70.0267 945.626 71.04C947.28 72 949.173 72.48 951.306 72.48ZM970.426 80H961.626V69.68L963.146 60.32L961.626 51.04V22.4H970.426V80ZM997.793 80.8C994.059 80.8 990.673 79.92 987.633 78.16C984.593 76.3467 982.166 73.92 980.353 70.88C978.593 67.84 977.713 64.4533 977.713 60.72C977.713 56.9867 978.593 53.6267 980.353 50.64C982.166 47.6533 984.593 45.28 987.633 43.52C990.673 41.7067 994.059 40.8 997.793 40.8C1001.58 40.8 1004.99 41.68 1008.03 43.44C1011.07 45.2 1013.47 47.6 1015.23 50.64C1017.05 53.6267 1017.95 56.9867 1017.95 60.72C1017.95 64.4533 1017.05 67.84 1015.23 70.88C1013.47 73.92 1011.07 76.3467 1008.03 78.16C1004.99 79.92 1001.58 80.8 997.793 80.8ZM997.793 72.32C999.979 72.32 1001.9 71.84 1003.55 70.88C1005.26 69.8667 1006.57 68.48 1007.47 66.72C1008.43 64.96 1008.91 62.96 1008.91 60.72C1008.91 58.48 1008.43 56.5067 1007.47 54.8C1006.51 53.0933 1005.21 51.76 1003.55 50.8C1001.9 49.7867 999.979 49.28 997.793 49.28C995.659 49.28 993.739 49.7867 992.033 50.8C990.379 51.76 989.073 53.0933 988.113 54.8C987.206 56.5067 986.753 58.48 986.753 60.72C986.753 62.96 987.206 64.96 988.113 66.72C989.073 68.48 990.379 69.8667 992.033 70.88C993.739 71.84 995.659 72.32 997.793 72.32ZM1051.59 80V57.84C1051.59 55.28 1050.76 53.1733 1049.11 51.52C1047.51 49.8667 1045.43 49.04 1042.87 49.04C1041.16 49.04 1039.64 49.4133 1038.31 50.16C1036.98 50.9067 1035.94 51.9467 1035.19 53.28C1034.44 54.6133 1034.07 56.1333 1034.07 57.84L1030.63 55.92C1030.63 52.9867 1031.27 50.4 1032.55 48.16C1033.83 45.8667 1035.59 44.08 1037.83 42.8C1040.12 41.4667 1042.68 40.8 1045.51 40.8C1048.39 40.8 1050.95 41.5467 1053.19 43.04C1055.43 44.48 1057.19 46.3733 1058.47 48.72C1059.75 51.0133 1060.39 53.4133 1060.39 55.92V80H1051.59ZM1025.27 80V41.6H1034.07V80H1025.27ZM1086.93 80.8C1083.2 80.8 1079.81 79.92 1076.77 78.16C1073.73 76.3467 1071.31 73.92 1069.49 70.88C1067.73 67.84 1066.85 64.4533 1066.85 60.72C1066.85 56.9867 1067.73 53.6267 1069.49 50.64C1071.31 47.6533 1073.73 45.28 1076.77 43.52C1079.81 41.7067 1083.2 40.8 1086.93 40.8C1090.72 40.8 1094.13 41.68 1097.17 43.44C1100.21 45.2 1102.61 47.6 1104.37 50.64C1106.19 53.6267 1107.09 56.9867 1107.09 60.72C1107.09 64.4533 1106.19 67.84 1104.37 70.88C1102.61 73.92 1100.21 76.3467 1097.17 78.16C1094.13 79.92 1090.72 80.8 1086.93 80.8ZM1086.93 72.32C1089.12 72.32 1091.04 71.84 1092.69 70.88C1094.4 69.8667 1095.71 68.48 1096.61 66.72C1097.57 64.96 1098.05 62.96 1098.05 60.72C1098.05 58.48 1097.57 56.5067 1096.61 54.8C1095.65 53.0933 1094.35 51.76 1092.69 50.8C1091.04 49.7867 1089.12 49.28 1086.93 49.28C1084.8 49.28 1082.88 49.7867 1081.17 50.8C1079.52 51.76 1078.21 53.0933 1077.25 54.8C1076.35 56.5067 1075.89 58.48 1075.89 60.72C1075.89 62.96 1076.35 64.96 1077.25 66.72C1078.21 68.48 1079.52 69.8667 1081.17 70.88C1082.88 71.84 1084.8 72.32 1086.93 72.32ZM1156.75 80V57.84C1156.75 55.28 1155.92 53.1733 1154.27 51.52C1152.67 49.8667 1150.59 49.04 1148.03 49.04C1146.32 49.04 1144.8 49.4133 1143.47 50.16C1142.13 50.9067 1141.09 51.9467 1140.35 53.28C1139.6 54.6133 1139.23 56.1333 1139.23 57.84L1135.79 55.92C1135.79 52.9867 1136.43 50.4 1137.71 48.16C1138.99 45.8667 1140.75 44.08 1142.99 42.8C1145.28 41.4667 1147.84 40.8 1150.67 40.8C1153.55 40.8 1156.11 41.5467 1158.35 43.04C1160.59 44.48 1162.35 46.3733 1163.63 48.72C1164.91 51.0133 1165.55 53.4133 1165.55 55.92V80H1156.75ZM1130.43 80V41.6H1139.23V80H1130.43ZM1192.09 80.8C1188.36 80.8 1184.97 79.92 1181.93 78.16C1178.89 76.3467 1176.46 73.92 1174.65 70.88C1172.89 67.84 1172.01 64.4533 1172.01 60.72C1172.01 56.9867 1172.89 53.6267 1174.65 50.64C1176.46 47.6533 1178.89 45.28 1181.93 43.52C1184.97 41.7067 1188.36 40.8 1192.09 40.8C1195.88 40.8 1199.29 41.68 1202.33 43.44C1205.37 45.2 1207.77 47.6 1209.53 50.64C1211.34 53.6267 1212.25 56.9867 1212.25 60.72C1212.25 64.4533 1211.34 67.84 1209.53 70.88C1207.77 73.92 1205.37 76.3467 1202.33 78.16C1199.29 79.92 1195.88 80.8 1192.09 80.8ZM1192.09 72.32C1194.28 72.32 1196.2 71.84 1197.85 70.88C1199.56 69.8667 1200.86 68.48 1201.77 66.72C1202.73 64.96 1203.21 62.96 1203.21 60.72C1203.21 58.48 1202.73 56.5067 1201.77 54.8C1200.81 53.0933 1199.5 51.76 1197.85 50.8C1196.2 49.7867 1194.28 49.28 1192.09 49.28C1189.96 49.28 1188.04 49.7867 1186.33 50.8C1184.68 51.76 1183.37 53.0933 1182.41 54.8C1181.5 56.5067 1181.05 58.48 1181.05 60.72C1181.05 62.96 1181.5 64.96 1182.41 66.72C1183.37 68.48 1184.68 69.8667 1186.33 70.88C1188.04 71.84 1189.96 72.32 1192.09 72.32ZM1236.78 80V24H1245.98V80H1236.78ZM1243.1 80V71.6H1274.46V80H1243.1ZM1243.1 55.44V47.36H1271.74V55.44H1243.1ZM1243.1 32.4V24H1274.06V32.4H1243.1ZM1309.09 80V57.84C1309.09 55.28 1308.26 53.1733 1306.61 51.52C1305.01 49.8667 1302.93 49.04 1300.37 49.04C1298.66 49.04 1297.14 49.4133 1295.81 50.16C1294.48 50.9067 1293.44 51.9467 1292.69 53.28C1291.94 54.6133 1291.57 56.1333 1291.57 57.84L1288.13 55.92C1288.13 52.9867 1288.77 50.4 1290.05 48.16C1291.33 45.8667 1293.09 44.08 1295.33 42.8C1297.62 41.4667 1300.18 40.8 1303.01 40.8C1305.89 40.8 1308.45 41.5467 1310.69 43.04C1312.93 44.48 1314.69 46.3733 1315.97 48.72C1317.25 51.0133 1317.89 53.4133 1317.89 55.92V80H1309.09ZM1282.77 80V41.6H1291.57V80H1282.77ZM1339.39 80.8C1337.26 80.8 1335.21 80.5333 1333.23 80C1331.26 79.4133 1329.45 78.6133 1327.79 77.6C1326.14 76.5333 1324.7 75.2533 1323.47 73.76L1329.07 68.16C1330.41 69.7067 1331.93 70.88 1333.63 71.68C1335.39 72.4267 1337.37 72.8 1339.55 72.8C1341.53 72.8 1343.02 72.5067 1344.03 71.92C1345.05 71.3333 1345.55 70.48 1345.55 69.36C1345.55 68.1867 1345.07 67.28 1344.11 66.64C1343.15 66 1341.9 65.4667 1340.35 65.04C1338.86 64.56 1337.26 64.08 1335.55 63.6C1333.9 63.12 1332.3 62.48 1330.75 61.68C1329.26 60.8267 1328.03 59.68 1327.07 58.24C1326.11 56.8 1325.63 54.9333 1325.63 52.64C1325.63 50.1867 1326.19 48.08 1327.31 46.32C1328.49 44.56 1330.11 43.2 1332.19 42.24C1334.33 41.28 1336.86 40.8 1339.79 40.8C1342.89 40.8 1345.61 41.36 1347.95 42.48C1350.35 43.5467 1352.35 45.1733 1353.95 47.36L1348.35 52.96C1347.23 51.5733 1345.95 50.5333 1344.51 49.84C1343.07 49.1467 1341.42 48.8 1339.55 48.8C1337.79 48.8 1336.43 49.0667 1335.47 49.6C1334.51 50.1333 1334.03 50.9067 1334.03 51.92C1334.03 52.9867 1334.51 53.8133 1335.47 54.4C1336.43 54.9867 1337.66 55.4933 1339.15 55.92C1340.7 56.3467 1342.3 56.8267 1343.95 57.36C1345.66 57.84 1347.26 58.5333 1348.75 59.44C1350.3 60.2933 1351.55 61.4667 1352.51 62.96C1353.47 64.4 1353.95 66.2933 1353.95 68.64C1353.95 72.3733 1352.65 75.3333 1350.03 77.52C1347.42 79.7067 1343.87 80.8 1339.39 80.8ZM1361.29 80V41.6H1370.09V80H1361.29ZM1365.69 34.56C1364.19 34.56 1362.94 34.0533 1361.93 33.04C1360.97 32.0267 1360.49 30.7733 1360.49 29.28C1360.49 27.7867 1360.97 26.5333 1361.93 25.52C1362.94 24.5067 1364.19 24 1365.69 24C1367.23 24 1368.49 24.5067 1369.45 25.52C1370.41 26.5333 1370.89 27.7867 1370.89 29.28C1370.89 30.7733 1370.41 32.0267 1369.45 33.04C1368.49 34.0533 1367.23 34.56 1365.69 34.56ZM1406.28 80V57.84C1406.28 55.28 1405.45 53.1733 1403.8 51.52C1402.2 49.8667 1400.12 49.04 1397.56 49.04C1395.85 49.04 1394.33 49.4133 1393 50.16C1391.66 50.9067 1390.62 51.9467 1389.88 53.28C1389.13 54.6133 1388.76 56.1333 1388.76 57.84L1385.32 55.92C1385.32 52.9867 1385.96 50.4 1387.24 48.16C1388.52 45.8667 1390.28 44.08 1392.52 42.8C1394.81 41.4667 1397.37 40.8 1400.2 40.8C1403.08 40.8 1405.64 41.5467 1407.88 43.04C1410.12 44.48 1411.88 46.3733 1413.16 48.72C1414.44 51.0133 1415.08 53.4133 1415.08 55.92V80H1406.28ZM1379.96 80V41.6H1388.76V80H1379.96ZM1441.62 80.8C1437.89 80.8 1434.5 79.92 1431.46 78.16C1428.42 76.3467 1425.99 73.92 1424.18 70.88C1422.42 67.84 1421.54 64.4533 1421.54 60.72C1421.54 56.9867 1422.42 53.6267 1424.18 50.64C1425.99 47.6533 1428.42 45.28 1431.46 43.52C1434.5 41.7067 1437.89 40.8 1441.62 40.8C1445.41 40.8 1448.82 41.68 1451.86 43.44C1454.9 45.2 1457.3 47.6 1459.06 50.64C1460.87 53.6267 1461.78 56.9867 1461.78 60.72C1461.78 64.4533 1460.87 67.84 1459.06 70.88C1457.3 73.92 1454.9 76.3467 1451.86 78.16C1448.82 79.92 1445.41 80.8 1441.62 80.8ZM1441.62 72.32C1443.81 72.32 1445.73 71.84 1447.38 70.88C1449.09 69.8667 1450.39 68.48 1451.3 66.72C1452.26 64.96 1452.74 62.96 1452.74 60.72C1452.74 58.48 1452.26 56.5067 1451.3 54.8C1450.34 53.0933 1449.03 51.76 1447.38 50.8C1445.73 49.7867 1443.81 49.28 1441.62 49.28C1439.49 49.28 1437.57 49.7867 1435.86 50.8C1434.21 51.76 1432.9 53.0933 1431.94 54.8C1431.03 56.5067 1430.58 58.48 1430.58 60.72C1430.58 62.96 1431.03 64.96 1431.94 66.72C1432.9 68.48 1434.21 69.8667 1435.86 70.88C1437.57 71.84 1439.49 72.32 1441.62 72.32ZM1492.63 80V72H1508.71C1511.54 72 1513.73 71.12 1515.27 69.36C1516.82 67.6 1517.59 65.5733 1517.59 63.28C1517.59 61.7333 1517.25 60.2933 1516.55 58.96C1515.86 57.6267 1514.85 56.56 1513.51 55.76C1512.18 54.96 1510.58 54.56 1508.71 54.56H1492.63V46.56H1507.35C1509.75 46.56 1511.67 45.9467 1513.11 44.72C1514.55 43.4933 1515.27 41.68 1515.27 39.28C1515.27 36.88 1514.55 35.0667 1513.11 33.84C1511.67 32.6133 1509.75 32 1507.35 32H1492.63V24H1507.59C1511.38 24 1514.53 24.6933 1517.03 26.08C1519.54 27.4667 1521.41 29.2533 1522.63 31.44C1523.86 33.6267 1524.47 35.9733 1524.47 38.48C1524.47 41.4133 1523.65 44 1521.99 46.24C1520.39 48.48 1518.02 50.2933 1514.87 51.68L1515.59 48.8C1519.11 50.24 1521.86 52.2667 1523.83 54.88C1525.81 57.4933 1526.79 60.56 1526.79 64.08C1526.79 66.96 1526.07 69.6 1524.63 72C1523.25 74.4 1521.17 76.3467 1518.39 77.84C1515.67 79.28 1512.31 80 1508.31 80H1492.63ZM1486.31 80V24H1495.51V80H1486.31ZM1550.96 80.8C1547.49 80.8 1544.35 79.92 1541.52 78.16C1538.75 76.4 1536.53 74.0267 1534.88 71.04C1533.28 68 1532.48 64.6133 1532.48 60.88C1532.48 57.0933 1533.28 53.7067 1534.88 50.72C1536.53 47.68 1538.75 45.28 1541.52 43.52C1544.35 41.7067 1547.49 40.8 1550.96 40.8C1553.89 40.8 1556.48 41.44 1558.72 42.72C1561.01 43.9467 1562.83 45.6533 1564.16 47.84C1565.49 50.0267 1566.16 52.5067 1566.16 55.28V66.32C1566.16 69.0933 1565.49 71.5733 1564.16 73.76C1562.88 75.9467 1561.09 77.68 1558.8 78.96C1556.51 80.1867 1553.89 80.8 1550.96 80.8ZM1552.4 72.48C1555.65 72.48 1558.27 71.3867 1560.24 69.2C1562.27 67.0133 1563.28 64.2133 1563.28 60.8C1563.28 58.5067 1562.83 56.48 1561.92 54.72C1561.01 52.96 1559.73 51.6 1558.08 50.64C1556.48 49.6267 1554.59 49.12 1552.4 49.12C1550.27 49.12 1548.37 49.6267 1546.72 50.64C1545.12 51.6 1543.84 52.96 1542.88 54.72C1541.97 56.48 1541.52 58.5067 1541.52 60.8C1541.52 63.0933 1541.97 65.12 1542.88 66.88C1543.84 68.64 1545.12 70.0267 1546.72 71.04C1548.37 72 1550.27 72.48 1552.4 72.48ZM1562.72 80V69.68L1564.24 60.32L1562.72 51.04V41.6H1571.52V80H1562.72ZM1548.64 36.08L1544.64 32.08L1554.88 19.04L1561.68 25.84L1548.64 36.08ZM1593.85 80.8C1591.71 80.8 1589.66 80.5333 1587.69 80C1585.71 79.4133 1583.9 78.6133 1582.25 77.6C1580.59 76.5333 1579.15 75.2533 1577.93 73.76L1583.53 68.16C1584.86 69.7067 1586.38 70.88 1588.09 71.68C1589.85 72.4267 1591.82 72.8 1594.01 72.8C1595.98 72.8 1597.47 72.5067 1598.49 71.92C1599.5 71.3333 1600.01 70.48 1600.01 69.36C1600.01 68.1867 1599.53 67.28 1598.57 66.64C1597.61 66 1596.35 65.4667 1594.81 65.04C1593.31 64.56 1591.71 64.08 1590.01 63.6C1588.35 63.12 1586.75 62.48 1585.21 61.68C1583.71 60.8267 1582.49 59.68 1581.53 58.24C1580.57 56.8 1580.09 54.9333 1580.09 52.64C1580.09 50.1867 1580.65 48.08 1581.77 46.32C1582.94 44.56 1584.57 43.2 1586.65 42.24C1588.78 41.28 1591.31 40.8 1594.25 40.8C1597.34 40.8 1600.06 41.36 1602.41 42.48C1604.81 43.5467 1606.81 45.1733 1608.41 47.36L1602.81 52.96C1601.69 51.5733 1600.41 50.5333 1598.97 49.84C1597.53 49.1467 1595.87 48.8 1594.01 48.8C1592.25 48.8 1590.89 49.0667 1589.93 49.6C1588.97 50.1333 1588.49 50.9067 1588.49 51.92C1588.49 52.9867 1588.97 53.8133 1589.93 54.4C1590.89 54.9867 1592.11 55.4933 1593.61 55.92C1595.15 56.3467 1596.75 56.8267 1598.41 57.36C1600.11 57.84 1601.71 58.5333 1603.21 59.44C1604.75 60.2933 1606.01 61.4667 1606.97 62.96C1607.93 64.4 1608.41 66.2933 1608.41 68.64C1608.41 72.3733 1607.1 75.3333 1604.49 77.52C1601.87 79.7067 1598.33 80.8 1593.85 80.8ZM1615.74 80V41.6H1624.54V80H1615.74ZM1620.14 34.56C1618.65 34.56 1617.39 34.0533 1616.38 33.04C1615.42 32.0267 1614.94 30.7733 1614.94 29.28C1614.94 27.7867 1615.42 26.5333 1616.38 25.52C1617.39 24.5067 1618.65 24 1620.14 24C1621.69 24 1622.94 24.5067 1623.9 25.52C1624.86 26.5333 1625.34 27.7867 1625.34 29.28C1625.34 30.7733 1624.86 32.0267 1623.9 33.04C1622.94 34.0533 1621.69 34.56 1620.14 34.56ZM1652.09 80.8C1648.3 80.8 1644.86 79.92 1641.77 78.16C1638.73 76.4 1636.33 74 1634.57 70.96C1632.81 67.92 1631.93 64.5333 1631.93 60.8C1631.93 57.0133 1632.81 53.6267 1634.57 50.64C1636.33 47.6 1638.73 45.2 1641.77 43.44C1644.86 41.68 1648.3 40.8 1652.09 40.8C1655.08 40.8 1657.85 41.3867 1660.41 42.56C1663.02 43.68 1665.24 45.3067 1667.05 47.44L1661.29 53.28C1660.17 51.9467 1658.81 50.96 1657.21 50.32C1655.66 49.6267 1653.96 49.28 1652.09 49.28C1649.9 49.28 1647.96 49.7867 1646.25 50.8C1644.6 51.76 1643.29 53.0933 1642.33 54.8C1641.42 56.5067 1640.97 58.5067 1640.97 60.8C1640.97 63.04 1641.42 65.04 1642.33 66.8C1643.29 68.5067 1644.6 69.8667 1646.25 70.88C1647.96 71.84 1649.9 72.32 1652.09 72.32C1653.96 72.32 1655.66 72 1657.21 71.36C1658.81 70.6667 1660.17 69.6533 1661.29 68.32L1667.05 74.16C1665.24 76.2933 1663.02 77.9467 1660.41 79.12C1657.85 80.24 1655.08 80.8 1652.09 80.8ZM1690.21 80.8C1686.48 80.8 1683.09 79.92 1680.05 78.16C1677.01 76.3467 1674.59 73.92 1672.77 70.88C1671.01 67.84 1670.13 64.4533 1670.13 60.72C1670.13 56.9867 1671.01 53.6267 1672.77 50.64C1674.59 47.6533 1677.01 45.28 1680.05 43.52C1683.09 41.7067 1686.48 40.8 1690.21 40.8C1694 40.8 1697.41 41.68 1700.45 43.44C1703.49 45.2 1705.89 47.6 1707.65 50.64C1709.47 53.6267 1710.37 56.9867 1710.37 60.72C1710.37 64.4533 1709.47 67.84 1707.65 70.88C1705.89 73.92 1703.49 76.3467 1700.45 78.16C1697.41 79.92 1694 80.8 1690.21 80.8ZM1690.21 72.32C1692.4 72.32 1694.32 71.84 1695.97 70.88C1697.68 69.8667 1698.99 68.48 1699.89 66.72C1700.85 64.96 1701.33 62.96 1701.33 60.72C1701.33 58.48 1700.85 56.5067 1699.89 54.8C1698.93 53.0933 1697.63 51.76 1695.97 50.8C1694.32 49.7867 1692.4 49.28 1690.21 49.28C1688.08 49.28 1686.16 49.7867 1684.45 50.8C1682.8 51.76 1681.49 53.0933 1680.53 54.8C1679.63 56.5067 1679.17 58.48 1679.17 60.72C1679.17 62.96 1679.63 64.96 1680.53 66.72C1681.49 68.48 1682.8 69.8667 1684.45 70.88C1686.16 71.84 1688.08 72.32 1690.21 72.32Z" fill="#9C1C2B"/>
</svg>
