<svg width="2271" height="131" viewBox="0 0 2271 131" fill="none" xmlns="http://www.w3.org/2000/svg">
<path d="M12.4 58.88V50.88H26.4C28.32 50.88 30 50.5067 31.44 49.76C32.9333 48.96 34.1067 47.8667 34.96 46.48C35.8133 45.04 36.24 43.36 36.24 41.44C36.24 39.52 35.8133 37.8667 34.96 36.48C34.1067 35.04 32.9333 33.9467 31.44 33.2C30 32.4 28.32 32 26.4 32H12.4V24H26.88C30.4 24 33.5467 24.72 36.32 26.16C39.1467 27.6 41.36 29.6267 42.96 32.24C44.6133 34.8533 45.44 37.92 45.44 41.44C45.44 44.96 44.6133 48.0267 42.96 50.64C41.36 53.2533 39.1467 55.28 36.32 56.72C33.5467 58.16 30.4 58.88 26.88 58.88H12.4ZM6.08 80V24H15.28V80H6.08ZM68.8081 80.8C65.0748 80.8 61.6881 79.92 58.6481 78.16C55.6081 76.3467 53.1815 73.92 51.3681 70.88C49.6081 67.84 48.7281 64.4533 48.7281 60.72C48.7281 56.9867 49.6081 53.6267 51.3681 50.64C53.1815 47.6533 55.6081 45.28 58.6481 43.52C61.6881 41.7067 65.0748 40.8 68.8081 40.8C72.5948 40.8 76.0081 41.68 79.0481 43.44C82.0881 45.2 84.4881 47.6 86.2481 50.64C88.0615 53.6267 88.9681 56.9867 88.9681 60.72C88.9681 64.4533 88.0615 67.84 86.2481 70.88C84.4881 73.92 82.0881 76.3467 79.0481 78.16C76.0081 79.92 72.5948 80.8 68.8081 80.8ZM68.8081 72.32C70.9948 72.32 72.9148 71.84 74.5681 70.88C76.2748 69.8667 77.5815 68.48 78.4881 66.72C79.4481 64.96 79.9281 62.96 79.9281 60.72C79.9281 58.48 79.4481 56.5067 78.4881 54.8C77.5281 53.0933 76.2215 51.76 74.5681 50.8C72.9148 49.7867 70.9948 49.28 68.8081 49.28C66.6748 49.28 64.7548 49.7867 63.0481 50.8C61.3948 51.76 60.0881 53.0933 59.1281 54.8C58.2215 56.5067 57.7681 58.48 57.7681 60.72C57.7681 62.96 58.2215 64.96 59.1281 66.72C60.0881 68.48 61.3948 69.8667 63.0481 70.88C64.7548 71.84 66.6748 72.32 68.8081 72.32ZM96.2863 80V41.6H105.086V80H96.2863ZM105.086 58.64L102.046 57.12C102.046 52.2667 103.113 48.3467 105.246 45.36C107.433 42.32 110.713 40.8 115.086 40.8C117.006 40.8 118.74 41.1467 120.286 41.84C121.833 42.5333 123.273 43.6533 124.606 45.2L118.846 51.12C118.153 50.3733 117.38 49.84 116.526 49.52C115.673 49.2 114.686 49.04 113.566 49.04C111.113 49.04 109.086 49.8133 107.486 51.36C105.886 52.9067 105.086 55.3333 105.086 58.64ZM145.373 80.8C141.586 80.8 138.146 79.92 135.053 78.16C132.013 76.4 129.613 74 127.853 70.96C126.093 67.92 125.213 64.5333 125.213 60.8C125.213 57.0133 126.093 53.6267 127.853 50.64C129.613 47.6 132.013 45.2 135.053 43.44C138.146 41.68 141.586 40.8 145.373 40.8C148.359 40.8 151.133 41.3867 153.693 42.56C156.306 43.68 158.519 45.3067 160.333 47.44L154.573 53.28C153.453 51.9467 152.093 50.96 150.493 50.32C148.946 49.6267 147.239 49.28 145.373 49.28C143.186 49.28 141.239 49.7867 139.533 50.8C137.879 51.76 136.573 53.0933 135.613 54.8C134.706 56.5067 134.253 58.5067 134.253 60.8C134.253 63.04 134.706 65.04 135.613 66.8C136.573 68.5067 137.879 69.8667 139.533 70.88C141.239 71.84 143.186 72.32 145.373 72.32C147.239 72.32 148.946 72 150.493 71.36C152.093 70.6667 153.453 69.6533 154.573 68.32L160.333 74.16C158.519 76.2933 156.306 77.9467 153.693 79.12C151.133 80.24 148.359 80.8 145.373 80.8ZM183.736 80.8C179.896 80.8 176.429 79.9467 173.336 78.24C170.296 76.48 167.869 74.08 166.056 71.04C164.296 68 163.416 64.5867 163.416 60.8C163.416 57.0133 164.296 53.6267 166.056 50.64C167.816 47.6 170.189 45.2 173.176 43.44C176.216 41.68 179.576 40.8 183.256 40.8C186.829 40.8 189.976 41.6267 192.696 43.28C195.469 44.9333 197.629 47.2 199.176 50.08C200.776 52.96 201.576 56.24 201.576 59.92C201.576 60.56 201.522 61.2267 201.416 61.92C201.362 62.56 201.256 63.28 201.096 64.08H169.576V56.88H196.536L193.256 59.76C193.149 57.4133 192.696 55.44 191.896 53.84C191.096 52.24 189.949 51.0133 188.456 50.16C187.016 49.3067 185.229 48.88 183.096 48.88C180.856 48.88 178.909 49.36 177.256 50.32C175.602 51.28 174.322 52.64 173.416 54.4C172.509 56.1067 172.056 58.16 172.056 60.56C172.056 62.96 172.536 65.0667 173.496 66.88C174.456 68.6933 175.816 70.1067 177.576 71.12C179.336 72.08 181.362 72.56 183.656 72.56C185.629 72.56 187.442 72.2133 189.096 71.52C190.802 70.8267 192.242 69.8133 193.416 68.48L199.016 74.16C197.149 76.3467 194.882 78 192.216 79.12C189.549 80.24 186.722 80.8 183.736 80.8ZM234.95 80V57.84C234.95 55.28 234.123 53.1733 232.47 51.52C230.87 49.8667 228.79 49.04 226.23 49.04C224.523 49.04 223.003 49.4133 221.67 50.16C220.337 50.9067 219.297 51.9467 218.55 53.28C217.803 54.6133 217.43 56.1333 217.43 57.84L213.99 55.92C213.99 52.9867 214.63 50.4 215.91 48.16C217.19 45.8667 218.95 44.08 221.19 42.8C223.483 41.4667 226.043 40.8 228.87 40.8C231.75 40.8 234.31 41.5467 236.55 43.04C238.79 44.48 240.55 46.3733 241.83 48.72C243.11 51.0133 243.75 53.4133 243.75 55.92V80H234.95ZM208.63 80V41.6H217.43V80H208.63ZM258.064 80V25.6H266.864V80H258.064ZM248.864 49.6V41.6H276.064V49.6H248.864ZM297.444 80.8C293.978 80.8 290.831 79.92 288.004 78.16C285.231 76.4 283.018 74.0267 281.364 71.04C279.764 68 278.964 64.6133 278.964 60.88C278.964 57.0933 279.764 53.7067 281.364 50.72C283.018 47.68 285.231 45.28 288.004 43.52C290.831 41.7067 293.978 40.8 297.444 40.8C300.378 40.8 302.964 41.44 305.204 42.72C307.498 43.9467 309.311 45.6533 310.644 47.84C311.978 50.0267 312.644 52.5067 312.644 55.28V66.32C312.644 69.0933 311.978 71.5733 310.644 73.76C309.364 75.9467 307.578 77.68 305.284 78.96C302.991 80.1867 300.378 80.8 297.444 80.8ZM298.884 72.48C302.138 72.48 304.751 71.3867 306.724 69.2C308.751 67.0133 309.764 64.2133 309.764 60.8C309.764 58.5067 309.311 56.48 308.404 54.72C307.498 52.96 306.218 51.6 304.564 50.64C302.964 49.6267 301.071 49.12 298.884 49.12C296.751 49.12 294.858 49.6267 293.204 50.64C291.604 51.6 290.324 52.96 289.364 54.72C288.458 56.48 288.004 58.5067 288.004 60.8C288.004 63.0933 288.458 65.12 289.364 66.88C290.324 68.64 291.604 70.0267 293.204 71.04C294.858 72 296.751 72.48 298.884 72.48ZM309.204 80V69.68L310.724 60.32L309.204 51.04V41.6H318.004V80H309.204ZM343.771 96.8C339.717 96.8 336.171 96.0533 333.131 94.56C330.091 93.12 327.637 91.0667 325.771 88.4L331.531 82.64C333.077 84.56 334.837 86 336.811 86.96C338.784 87.92 341.157 88.4 343.931 88.4C347.397 88.4 350.144 87.4933 352.171 85.68C354.197 83.92 355.211 81.4933 355.211 78.4V68.96L356.731 60.48L355.211 51.92V41.6H364.011V78.4C364.011 82.08 363.157 85.28 361.451 88C359.744 90.7733 357.371 92.9333 354.331 94.48C351.291 96.0267 347.771 96.8 343.771 96.8ZM343.371 79.2C339.957 79.2 336.864 78.3733 334.091 76.72C331.371 75.0133 329.211 72.6933 327.611 69.76C326.064 66.8267 325.291 63.5467 325.291 59.92C325.291 56.2933 326.064 53.04 327.611 50.16C329.211 47.28 331.371 45.0133 334.091 43.36C336.864 41.6533 339.957 40.8 343.371 40.8C346.411 40.8 349.077 41.4133 351.371 42.64C353.664 43.8667 355.451 45.5733 356.731 47.76C358.011 49.8933 358.651 52.4 358.651 55.28V64.72C358.651 67.5467 357.984 70.0533 356.651 72.24C355.371 74.4267 353.584 76.1333 351.291 77.36C348.997 78.5867 346.357 79.2 343.371 79.2ZM345.131 70.88C347.264 70.88 349.131 70.4267 350.731 69.52C352.331 68.6133 353.557 67.36 354.411 65.76C355.317 64.1067 355.771 62.1867 355.771 60C355.771 57.8133 355.317 55.92 354.411 54.32C353.557 52.6667 352.331 51.3867 350.731 50.48C349.131 49.5733 347.264 49.12 345.131 49.12C342.997 49.12 341.104 49.5733 339.451 50.48C337.851 51.3867 336.597 52.6667 335.691 54.32C334.784 55.92 334.331 57.8133 334.331 60C334.331 62.1333 334.784 64.0267 335.691 65.68C336.597 67.3333 337.851 68.6133 339.451 69.52C341.104 70.4267 342.997 70.88 345.131 70.88ZM391.626 80.8C387.786 80.8 384.32 79.9467 381.226 78.24C378.186 76.48 375.76 74.08 373.946 71.04C372.186 68 371.306 64.5867 371.306 60.8C371.306 57.0133 372.186 53.6267 373.946 50.64C375.706 47.6 378.08 45.2 381.066 43.44C384.106 41.68 387.466 40.8 391.146 40.8C394.72 40.8 397.866 41.6267 400.586 43.28C403.36 44.9333 405.52 47.2 407.066 50.08C408.666 52.96 409.466 56.24 409.466 59.92C409.466 60.56 409.413 61.2267 409.306 61.92C409.253 62.56 409.146 63.28 408.986 64.08H377.466V56.88H404.426L401.146 59.76C401.04 57.4133 400.586 55.44 399.786 53.84C398.986 52.24 397.84 51.0133 396.346 50.16C394.906 49.3067 393.12 48.88 390.986 48.88C388.746 48.88 386.8 49.36 385.146 50.32C383.493 51.28 382.213 52.64 381.306 54.4C380.4 56.1067 379.946 58.16 379.946 60.56C379.946 62.96 380.426 65.0667 381.386 66.88C382.346 68.6933 383.706 70.1067 385.466 71.12C387.226 72.08 389.253 72.56 391.546 72.56C393.52 72.56 395.333 72.2133 396.986 71.52C398.693 70.8267 400.133 69.8133 401.306 68.48L406.906 74.16C405.04 76.3467 402.773 78 400.106 79.12C397.44 80.24 394.613 80.8 391.626 80.8ZM416.521 80V41.6H425.321V80H416.521ZM442.041 80V57.12C442.041 54.56 441.241 52.5867 439.641 51.2C438.041 49.76 436.067 49.04 433.721 49.04C432.121 49.04 430.681 49.36 429.401 50C428.174 50.64 427.187 51.5733 426.441 52.8C425.694 53.9733 425.321 55.4133 425.321 57.12L421.881 55.2C421.881 52.2667 422.521 49.7333 423.801 47.6C425.081 45.4667 426.814 43.8133 429.001 42.64C431.187 41.4133 433.641 40.8 436.361 40.8C439.081 40.8 441.534 41.3867 443.721 42.56C445.907 43.7333 447.641 45.3867 448.921 47.52C450.201 49.6533 450.841 52.2133 450.841 55.2V80H442.041ZM467.561 80V57.12C467.561 54.56 466.761 52.5867 465.161 51.2C463.561 49.76 461.587 49.04 459.241 49.04C457.694 49.04 456.281 49.36 455.001 50C453.721 50.64 452.707 51.5733 451.961 52.8C451.214 53.9733 450.841 55.4133 450.841 57.12L445.881 55.2C446.147 52.2667 447.001 49.7333 448.441 47.6C449.881 45.4667 451.721 43.8133 453.961 42.64C456.254 41.4133 458.761 40.8 461.481 40.8C464.254 40.8 466.761 41.3867 469.001 42.56C471.241 43.7333 473.027 45.3867 474.361 47.52C475.694 49.6533 476.361 52.2133 476.361 55.2V80H467.561ZM517.523 80.8C514.056 80.8 510.909 79.92 508.083 78.16C505.309 76.4 503.096 74.0267 501.443 71.04C499.843 68 499.043 64.6133 499.043 60.88C499.043 57.0933 499.843 53.7067 501.443 50.72C503.096 47.68 505.309 45.28 508.083 43.52C510.909 41.7067 514.056 40.8 517.523 40.8C520.456 40.8 523.043 41.44 525.283 42.72C527.576 43.9467 529.389 45.6533 530.723 47.84C532.056 50.0267 532.723 52.5067 532.723 55.28V66.32C532.723 69.0933 532.056 71.5733 530.723 73.76C529.443 75.9467 527.656 77.68 525.363 78.96C523.069 80.1867 520.456 80.8 517.523 80.8ZM518.963 72.48C521.149 72.48 523.043 72 524.643 71.04C526.296 70.0267 527.576 68.64 528.483 66.88C529.389 65.12 529.843 63.0933 529.843 60.8C529.843 58.5067 529.389 56.48 528.483 54.72C527.576 52.96 526.296 51.6 524.643 50.64C523.043 49.6267 521.149 49.12 518.963 49.12C516.829 49.12 514.936 49.6267 513.283 50.64C511.683 51.6 510.403 52.96 509.443 54.72C508.536 56.48 508.083 58.5067 508.083 60.8C508.083 63.0933 508.536 65.12 509.443 66.88C510.403 68.64 511.683 70.0267 513.283 71.04C514.936 72 516.829 72.48 518.963 72.48ZM538.083 80H529.283V69.68L530.803 60.32L529.283 51.04V22.4H538.083V80ZM565.689 80.8C561.849 80.8 558.382 79.9467 555.289 78.24C552.249 76.48 549.822 74.08 548.009 71.04C546.249 68 545.369 64.5867 545.369 60.8C545.369 57.0133 546.249 53.6267 548.009 50.64C549.769 47.6 552.142 45.2 555.129 43.44C558.169 41.68 561.529 40.8 565.209 40.8C568.782 40.8 571.929 41.6267 574.649 43.28C577.422 44.9333 579.582 47.2 581.129 50.08C582.729 52.96 583.529 56.24 583.529 59.92C583.529 60.56 583.475 61.2267 583.369 61.92C583.315 62.56 583.209 63.28 583.049 64.08H551.529V56.88H578.489L575.209 59.76C575.102 57.4133 574.649 55.44 573.849 53.84C573.049 52.24 571.902 51.0133 570.409 50.16C568.969 49.3067 567.182 48.88 565.049 48.88C562.809 48.88 560.862 49.36 559.209 50.32C557.555 51.28 556.275 52.64 555.369 54.4C554.462 56.1067 554.009 58.16 554.009 60.56C554.009 62.96 554.489 65.0667 555.449 66.88C556.409 68.6933 557.769 70.1067 559.529 71.12C561.289 72.08 563.315 72.56 565.609 72.56C567.582 72.56 569.395 72.2133 571.049 71.52C572.755 70.8267 574.195 69.8133 575.369 68.48L580.969 74.16C579.102 76.3467 576.835 78 574.169 79.12C571.502 80.24 568.675 80.8 565.689 80.8ZM601.373 80L624.413 24H630.813L653.693 80H643.773L625.853 34.64H629.213L611.133 80H601.373ZM612.733 69.2V61.2H642.413V69.2H612.733ZM660.505 80V22.4H669.305V80H660.505ZM694.859 80.8C691.605 80.8 688.699 80.08 686.139 78.64C683.632 77.2 681.659 75.2267 680.219 72.72C678.832 70.16 678.139 67.2267 678.139 63.92V41.6H686.939V63.52C686.939 65.3867 687.232 66.9867 687.819 68.32C688.459 69.6 689.365 70.5867 690.539 71.28C691.765 71.9733 693.205 72.32 694.859 72.32C697.419 72.32 699.365 71.5733 700.699 70.08C702.085 68.5333 702.779 66.3467 702.779 63.52V41.6H711.579V63.92C711.579 67.28 710.859 70.24 709.419 72.8C708.032 75.3067 706.085 77.28 703.579 78.72C701.072 80.1067 698.165 80.8 694.859 80.8ZM746.747 80V57.84C746.747 55.28 745.92 53.1733 744.267 51.52C742.667 49.8667 740.587 49.04 738.027 49.04C736.32 49.04 734.8 49.4133 733.467 50.16C732.134 50.9067 731.094 51.9467 730.347 53.28C729.6 54.6133 729.227 56.1333 729.227 57.84L725.787 55.92C725.787 52.9867 726.427 50.4 727.707 48.16C728.987 45.8667 730.747 44.08 732.987 42.8C735.28 41.4667 737.84 40.8 740.667 40.8C743.547 40.8 746.107 41.5467 748.347 43.04C750.587 44.48 752.347 46.3733 753.627 48.72C754.907 51.0133 755.547 53.4133 755.547 55.92V80H746.747ZM720.427 80V41.6H729.227V80H720.427ZM782.089 80.8C778.356 80.8 774.969 79.92 771.929 78.16C768.889 76.3467 766.463 73.92 764.649 70.88C762.889 67.84 762.009 64.4533 762.009 60.72C762.009 56.9867 762.889 53.6267 764.649 50.64C766.463 47.6533 768.889 45.28 771.929 43.52C774.969 41.7067 778.356 40.8 782.089 40.8C785.876 40.8 789.289 41.68 792.329 43.44C795.369 45.2 797.769 47.6 799.529 50.64C801.343 53.6267 802.249 56.9867 802.249 60.72C802.249 64.4533 801.343 67.84 799.529 70.88C797.769 73.92 795.369 76.3467 792.329 78.16C789.289 79.92 785.876 80.8 782.089 80.8ZM782.089 72.32C784.276 72.32 786.196 71.84 787.849 70.88C789.556 69.8667 790.863 68.48 791.769 66.72C792.729 64.96 793.209 62.96 793.209 60.72C793.209 58.48 792.729 56.5067 791.769 54.8C790.809 53.0933 789.503 51.76 787.849 50.8C786.196 49.7867 784.276 49.28 782.089 49.28C779.956 49.28 778.036 49.7867 776.329 50.8C774.676 51.76 773.369 53.0933 772.409 54.8C771.503 56.5067 771.049 58.48 771.049 60.72C771.049 62.96 771.503 64.96 772.409 66.72C773.369 68.48 774.676 69.8667 776.329 70.88C778.036 71.84 779.956 72.32 782.089 72.32ZM822.128 80.8C819.994 80.8 817.941 80.5333 815.968 80C813.994 79.4133 812.181 78.6133 810.528 77.6C808.874 76.5333 807.434 75.2533 806.208 73.76L811.808 68.16C813.141 69.7067 814.661 70.88 816.368 71.68C818.128 72.4267 820.101 72.8 822.288 72.8C824.261 72.8 825.754 72.5067 826.768 71.92C827.781 71.3333 828.288 70.48 828.288 69.36C828.288 68.1867 827.808 67.28 826.848 66.64C825.888 66 824.634 65.4667 823.088 65.04C821.594 64.56 819.994 64.08 818.288 63.6C816.634 63.12 815.034 62.48 813.488 61.68C811.994 60.8267 810.768 59.68 809.808 58.24C808.848 56.8 808.368 54.9333 808.368 52.64C808.368 50.1867 808.928 48.08 810.048 46.32C811.221 44.56 812.848 43.2 814.928 42.24C817.061 41.28 819.594 40.8 822.528 40.8C825.621 40.8 828.341 41.36 830.688 42.48C833.088 43.5467 835.088 45.1733 836.688 47.36L831.088 52.96C829.968 51.5733 828.688 50.5333 827.248 49.84C825.808 49.1467 824.154 48.8 822.288 48.8C820.528 48.8 819.168 49.0667 818.208 49.6C817.248 50.1333 816.768 50.9067 816.768 51.92C816.768 52.9867 817.248 53.8133 818.208 54.4C819.168 54.9867 820.394 55.4933 821.888 55.92C823.434 56.3467 825.034 56.8267 826.688 57.36C828.394 57.84 829.994 58.5333 831.488 59.44C833.034 60.2933 834.288 61.4667 835.248 62.96C836.208 64.4 836.688 66.2933 836.688 68.64C836.688 72.3733 835.381 75.3333 832.768 77.52C830.154 79.7067 826.608 80.8 822.128 80.8ZM880.518 80.8C877.585 80.8 874.971 80.1867 872.678 78.96C870.385 77.68 868.571 75.9467 867.238 73.76C865.958 71.5733 865.318 69.0933 865.318 66.32V55.28C865.318 52.5067 865.985 50.0267 867.318 47.84C868.651 45.6533 870.465 43.9467 872.758 42.72C875.051 41.44 877.638 40.8 880.518 40.8C883.985 40.8 887.105 41.7067 889.878 43.52C892.705 45.28 894.918 47.68 896.518 50.72C898.171 53.7067 898.998 57.0933 898.998 60.88C898.998 64.6133 898.171 68 896.518 71.04C894.918 74.0267 892.705 76.4 889.878 78.16C887.105 79.92 883.985 80.8 880.518 80.8ZM859.958 96V41.6H868.758V51.92L867.238 61.28L868.758 70.56V96H859.958ZM879.078 72.48C881.211 72.48 883.078 72 884.678 71.04C886.331 70.0267 887.611 68.64 888.518 66.88C889.478 65.12 889.958 63.0933 889.958 60.8C889.958 58.5067 889.478 56.48 888.518 54.72C887.611 52.96 886.331 51.6 884.678 50.64C883.078 49.6267 881.211 49.12 879.078 49.12C876.945 49.12 875.051 49.6267 873.398 50.64C871.745 51.6 870.465 52.96 869.558 54.72C868.651 56.48 868.198 58.5067 868.198 60.8C868.198 63.0933 868.651 65.12 869.558 66.88C870.465 68.64 871.745 70.0267 873.398 71.04C875.051 72 876.945 72.48 879.078 72.48ZM923.964 80.8C920.231 80.8 916.844 79.92 913.804 78.16C910.764 76.3467 908.338 73.92 906.524 70.88C904.764 67.84 903.884 64.4533 903.884 60.72C903.884 56.9867 904.764 53.6267 906.524 50.64C908.338 47.6533 910.764 45.28 913.804 43.52C916.844 41.7067 920.231 40.8 923.964 40.8C927.751 40.8 931.164 41.68 934.204 43.44C937.244 45.2 939.644 47.6 941.404 50.64C943.218 53.6267 944.124 56.9867 944.124 60.72C944.124 64.4533 943.218 67.84 941.404 70.88C939.644 73.92 937.244 76.3467 934.204 78.16C931.164 79.92 927.751 80.8 923.964 80.8ZM923.964 72.32C926.151 72.32 928.071 71.84 929.724 70.88C931.431 69.8667 932.738 68.48 933.644 66.72C934.604 64.96 935.084 62.96 935.084 60.72C935.084 58.48 934.604 56.5067 933.644 54.8C932.684 53.0933 931.378 51.76 929.724 50.8C928.071 49.7867 926.151 49.28 923.964 49.28C921.831 49.28 919.911 49.7867 918.204 50.8C916.551 51.76 915.244 53.0933 914.284 54.8C913.378 56.5067 912.924 58.48 912.924 60.72C912.924 62.96 913.378 64.96 914.284 66.72C915.244 68.48 916.551 69.8667 918.204 70.88C919.911 71.84 921.831 72.32 923.964 72.32ZM951.443 80V41.6H960.243V80H951.443ZM960.243 58.64L957.203 57.12C957.203 52.2667 958.269 48.3467 960.403 45.36C962.589 42.32 965.869 40.8 970.243 40.8C972.163 40.8 973.896 41.1467 975.443 41.84C976.989 42.5333 978.429 43.6533 979.763 45.2L974.003 51.12C973.309 50.3733 972.536 49.84 971.683 49.52C970.829 49.2 969.843 49.04 968.723 49.04C966.269 49.04 964.243 49.8133 962.643 51.36C961.043 52.9067 960.243 55.3333 960.243 58.64ZM1002.64 80V24H1011.84V80H1002.64ZM1008.96 56V47.6H1037.44V56H1008.96ZM1008.96 32.4V24H1038.8V32.4H1008.96ZM1061.35 80.8C1057.88 80.8 1054.74 79.92 1051.91 78.16C1049.14 76.4 1046.92 74.0267 1045.27 71.04C1043.67 68 1042.87 64.6133 1042.87 60.88C1042.87 57.0933 1043.67 53.7067 1045.27 50.72C1046.92 47.68 1049.14 45.28 1051.91 43.52C1054.74 41.7067 1057.88 40.8 1061.35 40.8C1064.28 40.8 1066.87 41.44 1069.11 42.72C1071.4 43.9467 1073.22 45.6533 1074.55 47.84C1075.88 50.0267 1076.55 52.5067 1076.55 55.28V66.32C1076.55 69.0933 1075.88 71.5733 1074.55 73.76C1073.27 75.9467 1071.48 77.68 1069.19 78.96C1066.9 80.1867 1064.28 80.8 1061.35 80.8ZM1062.79 72.48C1066.04 72.48 1068.66 71.3867 1070.63 69.2C1072.66 67.0133 1073.67 64.2133 1073.67 60.8C1073.67 58.5067 1073.22 56.48 1072.31 54.72C1071.4 52.96 1070.12 51.6 1068.47 50.64C1066.87 49.6267 1064.98 49.12 1062.79 49.12C1060.66 49.12 1058.76 49.6267 1057.11 50.64C1055.51 51.6 1054.23 52.96 1053.27 54.72C1052.36 56.48 1051.91 58.5067 1051.91 60.8C1051.91 63.0933 1052.36 65.12 1053.27 66.88C1054.23 68.64 1055.51 70.0267 1057.11 71.04C1058.76 72 1060.66 72.48 1062.79 72.48ZM1073.11 80V69.68L1074.63 60.32L1073.11 51.04V41.6H1081.91V80H1073.11ZM1091.76 80V41.6H1100.56V80H1091.76ZM1096.16 34.56C1094.66 34.56 1093.41 34.0533 1092.4 33.04C1091.44 32.0267 1090.96 30.7733 1090.96 29.28C1090.96 27.7867 1091.44 26.5333 1092.4 25.52C1093.41 24.5067 1094.66 24 1096.16 24C1097.7 24 1098.96 24.5067 1099.92 25.52C1100.88 26.5333 1101.36 27.7867 1101.36 29.28C1101.36 30.7733 1100.88 32.0267 1099.92 33.04C1098.96 34.0533 1097.7 34.56 1096.16 34.56ZM1134.75 80L1123.71 63.76L1122.11 62.32L1107.23 41.6H1117.87L1127.71 55.84L1129.23 57.2L1145.31 80H1134.75ZM1106.51 80L1122.03 58.48L1127.15 64.8L1116.75 80H1106.51ZM1130.03 62.16L1124.83 55.92L1134.43 41.6H1144.59L1130.03 62.16ZM1166.12 80.8C1162.65 80.8 1159.5 79.92 1156.68 78.16C1153.9 76.4 1151.69 74.0267 1150.04 71.04C1148.44 68 1147.64 64.6133 1147.64 60.88C1147.64 57.0933 1148.44 53.7067 1150.04 50.72C1151.69 47.68 1153.9 45.28 1156.68 43.52C1159.5 41.7067 1162.65 40.8 1166.12 40.8C1169.05 40.8 1171.64 41.44 1173.88 42.72C1176.17 43.9467 1177.98 45.6533 1179.32 47.84C1180.65 50.0267 1181.32 52.5067 1181.32 55.28V66.32C1181.32 69.0933 1180.65 71.5733 1179.32 73.76C1178.04 75.9467 1176.25 77.68 1173.96 78.96C1171.66 80.1867 1169.05 80.8 1166.12 80.8ZM1167.56 72.48C1170.81 72.48 1173.42 71.3867 1175.4 69.2C1177.42 67.0133 1178.44 64.2133 1178.44 60.8C1178.44 58.5067 1177.98 56.48 1177.08 54.72C1176.17 52.96 1174.89 51.6 1173.24 50.64C1171.64 49.6267 1169.74 49.12 1167.56 49.12C1165.42 49.12 1163.53 49.6267 1161.88 50.64C1160.28 51.6 1159 52.96 1158.04 54.72C1157.13 56.48 1156.68 58.5067 1156.68 60.8C1156.68 63.0933 1157.13 65.12 1158.04 66.88C1159 68.64 1160.28 70.0267 1161.88 71.04C1163.53 72 1165.42 72.48 1167.56 72.48ZM1177.88 80V69.68L1179.4 60.32L1177.88 51.04V41.6H1186.68V80H1177.88ZM1196.44 63.76V55.44H1223.56V63.76H1196.44ZM1234.52 80V24H1243.72V80H1234.52ZM1240.84 80V71.6H1272.2V80H1240.84ZM1240.84 55.44V47.36H1269.48V55.44H1240.84ZM1240.84 32.4V24H1271.8V32.4H1240.84ZM1286.35 80V25.6H1295.15V80H1286.35ZM1277.15 49.6V41.6H1304.35V49.6H1277.15ZM1325.73 80.8C1322.26 80.8 1319.11 79.92 1316.29 78.16C1313.51 76.4 1311.3 74.0267 1309.65 71.04C1308.05 68 1307.25 64.6133 1307.25 60.88C1307.25 57.0933 1308.05 53.7067 1309.65 50.72C1311.3 47.68 1313.51 45.28 1316.29 43.52C1319.11 41.7067 1322.26 40.8 1325.73 40.8C1328.66 40.8 1331.25 41.44 1333.49 42.72C1335.78 43.9467 1337.59 45.6533 1338.93 47.84C1340.26 50.0267 1340.93 52.5067 1340.93 55.28V66.32C1340.93 69.0933 1340.26 71.5733 1338.93 73.76C1337.65 75.9467 1335.86 77.68 1333.57 78.96C1331.27 80.1867 1328.66 80.8 1325.73 80.8ZM1327.17 72.48C1330.42 72.48 1333.03 71.3867 1335.01 69.2C1337.03 67.0133 1338.05 64.2133 1338.05 60.8C1338.05 58.5067 1337.59 56.48 1336.69 54.72C1335.78 52.96 1334.5 51.6 1332.85 50.64C1331.25 49.6267 1329.35 49.12 1327.17 49.12C1325.03 49.12 1323.14 49.6267 1321.49 50.64C1319.89 51.6 1318.61 52.96 1317.65 54.72C1316.74 56.48 1316.29 58.5067 1316.29 60.8C1316.29 63.0933 1316.74 65.12 1317.65 66.88C1318.61 68.64 1319.89 70.0267 1321.49 71.04C1323.14 72 1325.03 72.48 1327.17 72.48ZM1337.49 80V69.68L1339.01 60.32L1337.49 51.04V41.6H1346.29V80H1337.49ZM1323.41 36.08L1319.41 32.08L1329.65 19.04L1336.45 25.84L1323.41 36.08ZM1356.05 80V41.6H1364.85V80H1356.05ZM1364.85 58.64L1361.81 57.12C1361.81 52.2667 1362.88 48.3467 1365.01 45.36C1367.2 42.32 1370.48 40.8 1374.85 40.8C1376.77 40.8 1378.51 41.1467 1380.05 41.84C1381.6 42.5333 1383.04 43.6533 1384.37 45.2L1378.61 51.12C1377.92 50.3733 1377.15 49.84 1376.29 49.52C1375.44 49.2 1374.45 49.04 1373.33 49.04C1370.88 49.04 1368.85 49.8133 1367.25 51.36C1365.65 52.9067 1364.85 55.3333 1364.85 58.64ZM1388.71 80V41.6H1397.51V80H1388.71ZM1393.11 34.56C1391.62 34.56 1390.36 34.0533 1389.35 33.04C1388.39 32.0267 1387.91 30.7733 1387.91 29.28C1387.91 27.7867 1388.39 26.5333 1389.35 25.52C1390.36 24.5067 1391.62 24 1393.11 24C1394.66 24 1395.91 24.5067 1396.87 25.52C1397.83 26.5333 1398.31 27.7867 1398.31 29.28C1398.31 30.7733 1397.83 32.0267 1396.87 33.04C1395.91 34.0533 1394.66 34.56 1393.11 34.56ZM1423.46 80.8C1419.99 80.8 1416.85 79.92 1414.02 78.16C1411.25 76.4 1409.03 74.0267 1407.38 71.04C1405.78 68 1404.98 64.6133 1404.98 60.88C1404.98 57.0933 1405.78 53.7067 1407.38 50.72C1409.03 47.68 1411.25 45.28 1414.02 43.52C1416.85 41.7067 1419.99 40.8 1423.46 40.8C1426.39 40.8 1428.98 41.44 1431.22 42.72C1433.51 43.9467 1435.33 45.6533 1436.66 47.84C1437.99 50.0267 1438.66 52.5067 1438.66 55.28V66.32C1438.66 69.0933 1437.99 71.5733 1436.66 73.76C1435.38 75.9467 1433.59 77.68 1431.3 78.96C1429.01 80.1867 1426.39 80.8 1423.46 80.8ZM1424.9 72.48C1428.15 72.48 1430.77 71.3867 1432.74 69.2C1434.77 67.0133 1435.78 64.2133 1435.78 60.8C1435.78 58.5067 1435.33 56.48 1434.42 54.72C1433.51 52.96 1432.23 51.6 1430.58 50.64C1428.98 49.6267 1427.09 49.12 1424.9 49.12C1422.77 49.12 1420.87 49.6267 1419.22 50.64C1417.62 51.6 1416.34 52.96 1415.38 54.72C1414.47 56.48 1414.02 58.5067 1414.02 60.8C1414.02 63.0933 1414.47 65.12 1415.38 66.88C1416.34 68.64 1417.62 70.0267 1419.22 71.04C1420.87 72 1422.77 72.48 1424.9 72.48ZM1435.22 80V69.68L1436.74 60.32L1435.22 51.04V41.6H1444.02V80H1435.22ZM1496.12 80V57.84C1496.12 55.28 1495.3 53.1733 1493.64 51.52C1492.04 49.8667 1489.96 49.04 1487.4 49.04C1485.7 49.04 1484.18 49.4133 1482.84 50.16C1481.51 50.9067 1480.47 51.9467 1479.72 53.28C1478.98 54.6133 1478.6 56.1333 1478.6 57.84L1475.16 55.92C1475.16 52.9867 1475.8 50.4 1477.08 48.16C1478.36 45.8667 1480.12 44.08 1482.36 42.8C1484.66 41.4667 1487.22 40.8 1490.04 40.8C1492.92 40.8 1495.48 41.5467 1497.72 43.04C1499.96 44.48 1501.72 46.3733 1503 48.72C1504.28 51.0133 1504.92 53.4133 1504.92 55.92V80H1496.12ZM1469.8 80V41.6H1478.6V80H1469.8ZM1531.46 80.8C1527.73 80.8 1524.34 79.92 1521.3 78.16C1518.26 76.3467 1515.84 73.92 1514.02 70.88C1512.26 67.84 1511.38 64.4533 1511.38 60.72C1511.38 56.9867 1512.26 53.6267 1514.02 50.64C1515.84 47.6533 1518.26 45.28 1521.3 43.52C1524.34 41.7067 1527.73 40.8 1531.46 40.8C1535.25 40.8 1538.66 41.68 1541.7 43.44C1544.74 45.2 1547.14 47.6 1548.9 50.64C1550.72 53.6267 1551.62 56.9867 1551.62 60.72C1551.62 64.4533 1550.72 67.84 1548.9 70.88C1547.14 73.92 1544.74 76.3467 1541.7 78.16C1538.66 79.92 1535.25 80.8 1531.46 80.8ZM1531.46 72.32C1533.65 72.32 1535.57 71.84 1537.22 70.88C1538.93 69.8667 1540.24 68.48 1541.14 66.72C1542.1 64.96 1542.58 62.96 1542.58 60.72C1542.58 58.48 1542.1 56.5067 1541.14 54.8C1540.18 53.0933 1538.88 51.76 1537.22 50.8C1535.57 49.7867 1533.65 49.28 1531.46 49.28C1529.33 49.28 1527.41 49.7867 1525.7 50.8C1524.05 51.76 1522.74 53.0933 1521.78 54.8C1520.88 56.5067 1520.42 58.48 1520.42 60.72C1520.42 62.96 1520.88 64.96 1521.78 66.72C1522.74 68.48 1524.05 69.8667 1525.7 70.88C1527.41 71.84 1529.33 72.32 1531.46 72.32ZM1576.16 80V24H1585.36V80H1576.16ZM1582.48 80V71.6H1613.84V80H1582.48ZM1582.48 55.44V47.36H1611.12V55.44H1582.48ZM1582.48 32.4V24H1613.44V32.4H1582.48ZM1648.47 80V57.84C1648.47 55.28 1647.64 53.1733 1645.99 51.52C1644.39 49.8667 1642.31 49.04 1639.75 49.04C1638.04 49.04 1636.52 49.4133 1635.19 50.16C1633.85 50.9067 1632.81 51.9467 1632.07 53.28C1631.32 54.6133 1630.95 56.1333 1630.95 57.84L1627.51 55.92C1627.51 52.9867 1628.15 50.4 1629.43 48.16C1630.71 45.8667 1632.47 44.08 1634.71 42.8C1637 41.4667 1639.56 40.8 1642.39 40.8C1645.27 40.8 1647.83 41.5467 1650.07 43.04C1652.31 44.48 1654.07 46.3733 1655.35 48.72C1656.63 51.0133 1657.27 53.4133 1657.27 55.92V80H1648.47ZM1622.15 80V41.6H1630.95V80H1622.15ZM1678.77 80.8C1676.63 80.8 1674.58 80.5333 1672.61 80C1670.63 79.4133 1668.82 78.6133 1667.17 77.6C1665.51 76.5333 1664.07 75.2533 1662.85 73.76L1668.45 68.16C1669.78 69.7067 1671.3 70.88 1673.01 71.68C1674.77 72.4267 1676.74 72.8 1678.93 72.8C1680.9 72.8 1682.39 72.5067 1683.41 71.92C1684.42 71.3333 1684.93 70.48 1684.93 69.36C1684.93 68.1867 1684.45 67.28 1683.49 66.64C1682.53 66 1681.27 65.4667 1679.73 65.04C1678.23 64.56 1676.63 64.08 1674.93 63.6C1673.27 63.12 1671.67 62.48 1670.13 61.68C1668.63 60.8267 1667.41 59.68 1666.45 58.24C1665.49 56.8 1665.01 54.9333 1665.01 52.64C1665.01 50.1867 1665.57 48.08 1666.69 46.32C1667.86 44.56 1669.49 43.2 1671.57 42.24C1673.7 41.28 1676.23 40.8 1679.17 40.8C1682.26 40.8 1684.98 41.36 1687.33 42.48C1689.73 43.5467 1691.73 45.1733 1693.33 47.36L1687.73 52.96C1686.61 51.5733 1685.33 50.5333 1683.89 49.84C1682.45 49.1467 1680.79 48.8 1678.93 48.8C1677.17 48.8 1675.81 49.0667 1674.85 49.6C1673.89 50.1333 1673.41 50.9067 1673.41 51.92C1673.41 52.9867 1673.89 53.8133 1674.85 54.4C1675.81 54.9867 1677.03 55.4933 1678.53 55.92C1680.07 56.3467 1681.67 56.8267 1683.33 57.36C1685.03 57.84 1686.63 58.5333 1688.13 59.44C1689.67 60.2933 1690.93 61.4667 1691.89 62.96C1692.85 64.4 1693.33 66.2933 1693.33 68.64C1693.33 72.3733 1692.02 75.3333 1689.41 77.52C1686.79 79.7067 1683.25 80.8 1678.77 80.8ZM1700.66 80V41.6H1709.46V80H1700.66ZM1705.06 34.56C1703.57 34.56 1702.32 34.0533 1701.3 33.04C1700.34 32.0267 1699.86 30.7733 1699.86 29.28C1699.86 27.7867 1700.34 26.5333 1701.3 25.52C1702.32 24.5067 1703.57 24 1705.06 24C1706.61 24 1707.86 24.5067 1708.82 25.52C1709.78 26.5333 1710.26 27.7867 1710.26 29.28C1710.26 30.7733 1709.78 32.0267 1708.82 33.04C1707.86 34.0533 1706.61 34.56 1705.06 34.56ZM1745.65 80V57.84C1745.65 55.28 1744.83 53.1733 1743.17 51.52C1741.57 49.8667 1739.49 49.04 1736.93 49.04C1735.23 49.04 1733.71 49.4133 1732.37 50.16C1731.04 50.9067 1730 51.9467 1729.25 53.28C1728.51 54.6133 1728.13 56.1333 1728.13 57.84L1724.69 55.92C1724.69 52.9867 1725.33 50.4 1726.61 48.16C1727.89 45.8667 1729.65 44.08 1731.89 42.8C1734.19 41.4667 1736.75 40.8 1739.57 40.8C1742.45 40.8 1745.01 41.5467 1747.25 43.04C1749.49 44.48 1751.25 46.3733 1752.53 48.72C1753.81 51.0133 1754.45 53.4133 1754.45 55.92V80H1745.65ZM1719.33 80V41.6H1728.13V80H1719.33ZM1781 80.8C1777.26 80.8 1773.88 79.92 1770.84 78.16C1767.8 76.3467 1765.37 73.92 1763.56 70.88C1761.8 67.84 1760.92 64.4533 1760.92 60.72C1760.92 56.9867 1761.8 53.6267 1763.56 50.64C1765.37 47.6533 1767.8 45.28 1770.84 43.52C1773.88 41.7067 1777.26 40.8 1781 40.8C1784.78 40.8 1788.2 41.68 1791.24 43.44C1794.28 45.2 1796.68 47.6 1798.44 50.64C1800.25 53.6267 1801.16 56.9867 1801.16 60.72C1801.16 64.4533 1800.25 67.84 1798.44 70.88C1796.68 73.92 1794.28 76.3467 1791.24 78.16C1788.2 79.92 1784.78 80.8 1781 80.8ZM1781 72.32C1783.18 72.32 1785.1 71.84 1786.76 70.88C1788.46 69.8667 1789.77 68.48 1790.68 66.72C1791.64 64.96 1792.12 62.96 1792.12 60.72C1792.12 58.48 1791.64 56.5067 1790.68 54.8C1789.72 53.0933 1788.41 51.76 1786.76 50.8C1785.1 49.7867 1783.18 49.28 1781 49.28C1778.86 49.28 1776.94 49.7867 1775.24 50.8C1773.58 51.76 1772.28 53.0933 1771.32 54.8C1770.41 56.5067 1769.96 58.48 1769.96 60.72C1769.96 62.96 1770.41 64.96 1771.32 66.72C1772.28 68.48 1773.58 69.8667 1775.24 70.88C1776.94 71.84 1778.86 72.32 1781 72.32ZM1832.01 80V72H1848.09C1850.92 72 1853.1 71.12 1854.65 69.36C1856.2 67.6 1856.97 65.5733 1856.97 63.28C1856.97 61.7333 1856.62 60.2933 1855.93 58.96C1855.24 57.6267 1854.22 56.56 1852.89 55.76C1851.56 54.96 1849.96 54.56 1848.09 54.56H1832.01V46.56H1846.73C1849.13 46.56 1851.05 45.9467 1852.49 44.72C1853.93 43.4933 1854.65 41.68 1854.65 39.28C1854.65 36.88 1853.93 35.0667 1852.49 33.84C1851.05 32.6133 1849.13 32 1846.73 32H1832.01V24H1846.97C1850.76 24 1853.9 24.6933 1856.41 26.08C1858.92 27.4667 1860.78 29.2533 1862.01 31.44C1863.24 33.6267 1863.85 35.9733 1863.85 38.48C1863.85 41.4133 1863.02 44 1861.37 46.24C1859.77 48.48 1857.4 50.2933 1854.25 51.68L1854.97 48.8C1858.49 50.24 1861.24 52.2667 1863.21 54.88C1865.18 57.4933 1866.17 60.56 1866.17 64.08C1866.17 66.96 1865.45 69.6 1864.01 72C1862.62 74.4 1860.54 76.3467 1857.77 77.84C1855.05 79.28 1851.69 80 1847.69 80H1832.01ZM1825.69 80V24H1834.89V80H1825.69ZM1890.34 80.8C1886.87 80.8 1883.72 79.92 1880.9 78.16C1878.12 76.4 1875.91 74.0267 1874.26 71.04C1872.66 68 1871.86 64.6133 1871.86 60.88C1871.86 57.0933 1872.66 53.7067 1874.26 50.72C1875.91 47.68 1878.12 45.28 1880.9 43.52C1883.72 41.7067 1886.87 40.8 1890.34 40.8C1893.27 40.8 1895.86 41.44 1898.1 42.72C1900.39 43.9467 1902.2 45.6533 1903.54 47.84C1904.87 50.0267 1905.54 52.5067 1905.54 55.28V66.32C1905.54 69.0933 1904.87 71.5733 1903.54 73.76C1902.26 75.9467 1900.47 77.68 1898.18 78.96C1895.88 80.1867 1893.27 80.8 1890.34 80.8ZM1891.78 72.48C1895.03 72.48 1897.64 71.3867 1899.62 69.2C1901.64 67.0133 1902.66 64.2133 1902.66 60.8C1902.66 58.5067 1902.2 56.48 1901.3 54.72C1900.39 52.96 1899.11 51.6 1897.46 50.64C1895.86 49.6267 1893.96 49.12 1891.78 49.12C1889.64 49.12 1887.75 49.6267 1886.1 50.64C1884.5 51.6 1883.22 52.96 1882.26 54.72C1881.35 56.48 1880.9 58.5067 1880.9 60.8C1880.9 63.0933 1881.35 65.12 1882.26 66.88C1883.22 68.64 1884.5 70.0267 1886.1 71.04C1887.75 72 1889.64 72.48 1891.78 72.48ZM1902.1 80V69.68L1903.62 60.32L1902.1 51.04V41.6H1910.9V80H1902.1ZM1888.02 36.08L1884.02 32.08L1894.26 19.04L1901.06 25.84L1888.02 36.08ZM1933.22 80.8C1931.09 80.8 1929.03 80.5333 1927.06 80C1925.09 79.4133 1923.27 78.6133 1921.62 77.6C1919.97 76.5333 1918.53 75.2533 1917.3 73.76L1922.9 68.16C1924.23 69.7067 1925.75 70.88 1927.46 71.68C1929.22 72.4267 1931.19 72.8 1933.38 72.8C1935.35 72.8 1936.85 72.5067 1937.86 71.92C1938.87 71.3333 1939.38 70.48 1939.38 69.36C1939.38 68.1867 1938.9 67.28 1937.94 66.64C1936.98 66 1935.73 65.4667 1934.18 65.04C1932.69 64.56 1931.09 64.08 1929.38 63.6C1927.73 63.12 1926.13 62.48 1924.58 61.68C1923.09 60.8267 1921.86 59.68 1920.9 58.24C1919.94 56.8 1919.46 54.9333 1919.46 52.64C1919.46 50.1867 1920.02 48.08 1921.14 46.32C1922.31 44.56 1923.94 43.2 1926.02 42.24C1928.15 41.28 1930.69 40.8 1933.62 40.8C1936.71 40.8 1939.43 41.36 1941.78 42.48C1944.18 43.5467 1946.18 45.1733 1947.78 47.36L1942.18 52.96C1941.06 51.5733 1939.78 50.5333 1938.34 49.84C1936.9 49.1467 1935.25 48.8 1933.38 48.8C1931.62 48.8 1930.26 49.0667 1929.3 49.6C1928.34 50.1333 1927.86 50.9067 1927.86 51.92C1927.86 52.9867 1928.34 53.8133 1929.3 54.4C1930.26 54.9867 1931.49 55.4933 1932.98 55.92C1934.53 56.3467 1936.13 56.8267 1937.78 57.36C1939.49 57.84 1941.09 58.5333 1942.58 59.44C1944.13 60.2933 1945.38 61.4667 1946.34 62.96C1947.3 64.4 1947.78 66.2933 1947.78 68.64C1947.78 72.3733 1946.47 75.3333 1943.86 77.52C1941.25 79.7067 1937.7 80.8 1933.22 80.8ZM1955.12 80V41.6H1963.92V80H1955.12ZM1959.52 34.56C1958.02 34.56 1956.77 34.0533 1955.76 33.04C1954.8 32.0267 1954.32 30.7733 1954.32 29.28C1954.32 27.7867 1954.8 26.5333 1955.76 25.52C1956.77 24.5067 1958.02 24 1959.52 24C1961.06 24 1962.32 24.5067 1963.28 25.52C1964.24 26.5333 1964.72 27.7867 1964.72 29.28C1964.72 30.7733 1964.24 32.0267 1963.28 33.04C1962.32 34.0533 1961.06 34.56 1959.52 34.56ZM1991.47 80.8C1987.68 80.8 1984.24 79.92 1981.15 78.16C1978.11 76.4 1975.71 74 1973.95 70.96C1972.19 67.92 1971.31 64.5333 1971.31 60.8C1971.31 57.0133 1972.19 53.6267 1973.95 50.64C1975.71 47.6 1978.11 45.2 1981.15 43.44C1984.24 41.68 1987.68 40.8 1991.47 40.8C1994.45 40.8 1997.23 41.3867 1999.79 42.56C2002.4 43.68 2004.61 45.3067 2006.43 47.44L2000.67 53.28C1999.55 51.9467 1998.19 50.96 1996.59 50.32C1995.04 49.6267 1993.33 49.28 1991.47 49.28C1989.28 49.28 1987.33 49.7867 1985.63 50.8C1983.97 51.76 1982.67 53.0933 1981.71 54.8C1980.8 56.5067 1980.35 58.5067 1980.35 60.8C1980.35 63.04 1980.8 65.04 1981.71 66.8C1982.67 68.5067 1983.97 69.8667 1985.63 70.88C1987.33 71.84 1989.28 72.32 1991.47 72.32C1993.33 72.32 1995.04 72 1996.59 71.36C1998.19 70.6667 1999.55 69.6533 2000.67 68.32L2006.43 74.16C2004.61 76.2933 2002.4 77.9467 1999.79 79.12C1997.23 80.24 1994.45 80.8 1991.47 80.8ZM2029.59 80.8C2025.86 80.8 2022.47 79.92 2019.43 78.16C2016.39 76.3467 2013.96 73.92 2012.15 70.88C2010.39 67.84 2009.51 64.4533 2009.51 60.72C2009.51 56.9867 2010.39 53.6267 2012.15 50.64C2013.96 47.6533 2016.39 45.28 2019.43 43.52C2022.47 41.7067 2025.86 40.8 2029.59 40.8C2033.38 40.8 2036.79 41.68 2039.83 43.44C2042.87 45.2 2045.27 47.6 2047.03 50.64C2048.84 53.6267 2049.75 56.9867 2049.75 60.72C2049.75 64.4533 2048.84 67.84 2047.03 70.88C2045.27 73.92 2042.87 76.3467 2039.83 78.16C2036.79 79.92 2033.38 80.8 2029.59 80.8ZM2029.59 72.32C2031.78 72.32 2033.7 71.84 2035.35 70.88C2037.06 69.8667 2038.36 68.48 2039.27 66.72C2040.23 64.96 2040.71 62.96 2040.71 60.72C2040.71 58.48 2040.23 56.5067 2039.27 54.8C2038.31 53.0933 2037 51.76 2035.35 50.8C2033.7 49.7867 2031.78 49.28 2029.59 49.28C2027.46 49.28 2025.54 49.7867 2023.83 50.8C2022.18 51.76 2020.87 53.0933 2019.91 54.8C2019 56.5067 2018.55 58.48 2018.55 60.72C2018.55 62.96 2019 64.96 2019.91 66.72C2020.87 68.48 2022.18 69.8667 2023.83 70.88C2025.54 71.84 2027.46 72.32 2029.59 72.32Z" fill="#9C1C2B"/>
</svg>
