<svg width="2271" height="131" viewBox="0 0 2271 131" fill="none" xmlns="http://www.w3.org/2000/svg">
<path d="M6.08 80V24H15.28V80H6.08ZM12.4 80V71.6H43.76V80H12.4ZM12.4 55.44V47.36H41.04V55.44H12.4ZM12.4 32.4V24H43.36V32.4H12.4ZM65.0275 80L47.5075 41.6H57.2675L70.6275 72.88H64.8675L78.3075 41.6H87.6675L70.1475 80H65.0275ZM109.121 80.8C105.387 80.8 102.001 79.92 98.9606 78.16C95.9206 76.3467 93.494 73.92 91.6806 70.88C89.9206 67.84 89.0406 64.4533 89.0406 60.72C89.0406 56.9867 89.9206 53.6267 91.6806 50.64C93.494 47.6533 95.9206 45.28 98.9606 43.52C102.001 41.7067 105.387 40.8 109.121 40.8C112.907 40.8 116.321 41.68 119.361 43.44C122.401 45.2 124.801 47.6 126.561 50.64C128.374 53.6267 129.281 56.9867 129.281 60.72C129.281 64.4533 128.374 67.84 126.561 70.88C124.801 73.92 122.401 76.3467 119.361 78.16C116.321 79.92 112.907 80.8 109.121 80.8ZM109.121 72.32C111.307 72.32 113.227 71.84 114.881 70.88C116.587 69.8667 117.894 68.48 118.801 66.72C119.761 64.96 120.241 62.96 120.241 60.72C120.241 58.48 119.761 56.5067 118.801 54.8C117.841 53.0933 116.534 51.76 114.881 50.8C113.227 49.7867 111.307 49.28 109.121 49.28C106.987 49.28 105.067 49.7867 103.361 50.8C101.707 51.76 100.401 53.0933 99.4406 54.8C98.534 56.5067 98.0806 58.48 98.0806 60.72C98.0806 62.96 98.534 64.96 99.4406 66.72C100.401 68.48 101.707 69.8667 103.361 70.88C105.067 71.84 106.987 72.32 109.121 72.32ZM136.599 80V22.4H145.399V80H136.599ZM170.953 80.8C167.699 80.8 164.793 80.08 162.233 78.64C159.726 77.2 157.753 75.2267 156.313 72.72C154.926 70.16 154.233 67.2267 154.233 63.92V41.6H163.033V63.52C163.033 65.3867 163.326 66.9867 163.913 68.32C164.553 69.6 165.459 70.5867 166.633 71.28C167.859 71.9733 169.299 72.32 170.953 72.32C173.513 72.32 175.459 71.5733 176.793 70.08C178.179 68.5333 178.873 66.3467 178.873 63.52V41.6H187.673V63.92C187.673 67.28 186.953 70.24 185.513 72.8C184.126 75.3067 182.179 77.28 179.673 78.72C177.166 80.1067 174.259 80.8 170.953 80.8ZM214.201 80.8C210.414 80.8 206.974 79.92 203.881 78.16C200.841 76.4 198.441 74 196.681 70.96C194.921 67.92 194.041 64.5333 194.041 60.8C194.041 57.0133 194.921 53.6267 196.681 50.64C198.441 47.6 200.841 45.2 203.881 43.44C206.974 41.68 210.414 40.8 214.201 40.8C217.187 40.8 219.961 41.3867 222.521 42.56C225.134 43.68 227.347 45.3067 229.161 47.44L223.401 53.28C222.281 51.9467 220.921 50.96 219.321 50.32C217.774 49.6267 216.067 49.28 214.201 49.28C212.014 49.28 210.067 49.7867 208.361 50.8C206.707 51.76 205.401 53.0933 204.441 54.8C203.534 56.5067 203.081 58.5067 203.081 60.8C203.081 63.04 203.534 65.04 204.441 66.8C205.401 68.5067 206.707 69.8667 208.361 70.88C210.067 71.84 212.014 72.32 214.201 72.32C216.067 72.32 217.774 72 219.321 71.36C220.921 70.6667 222.281 69.6533 223.401 68.32L229.161 74.16C227.347 76.2933 225.134 77.9467 222.521 79.12C219.961 80.24 217.187 80.8 214.201 80.8ZM211.721 96.8C209.747 96.8 208.014 96.56 206.521 96.08C205.027 95.6 203.587 94.9067 202.201 94L205.801 89.44C206.387 89.9733 207.107 90.4 207.961 90.72C208.814 91.0933 209.854 91.28 211.081 91.28C212.467 91.28 213.454 91.0933 214.041 90.72C214.681 90.3467 215.001 89.8933 215.001 89.36C215.001 88.7733 214.707 88.24 214.121 87.76C213.587 87.3333 212.707 87.12 211.481 87.12H207.321L209.961 78.88H216.361L214.441 84.64L211.241 82.24C214.547 82.1333 217.214 82.7733 219.241 84.16C221.267 85.6 222.281 87.3867 222.281 89.52C222.281 91.6 221.294 93.3333 219.321 94.72C217.401 96.1067 214.867 96.8 211.721 96.8ZM250.804 80.8C247.337 80.8 244.19 79.92 241.364 78.16C238.59 76.4 236.377 74.0267 234.724 71.04C233.124 68 232.324 64.6133 232.324 60.88C232.324 57.0933 233.124 53.7067 234.724 50.72C236.377 47.68 238.59 45.28 241.364 43.52C244.19 41.7067 247.337 40.8 250.804 40.8C253.737 40.8 256.324 41.44 258.564 42.72C260.857 43.9467 262.67 45.6533 264.004 47.84C265.337 50.0267 266.004 52.5067 266.004 55.28V66.32C266.004 69.0933 265.337 71.5733 264.004 73.76C262.724 75.9467 260.937 77.68 258.644 78.96C256.35 80.1867 253.737 80.8 250.804 80.8ZM252.244 72.48C255.497 72.48 258.11 71.3867 260.084 69.2C262.11 67.0133 263.124 64.2133 263.124 60.8C263.124 58.5067 262.67 56.48 261.764 54.72C260.857 52.96 259.577 51.6 257.924 50.64C256.324 49.6267 254.43 49.12 252.244 49.12C250.11 49.12 248.217 49.6267 246.564 50.64C244.964 51.6 243.684 52.96 242.724 54.72C241.817 56.48 241.364 58.5067 241.364 60.8C241.364 63.0933 241.817 65.12 242.724 66.88C243.684 68.64 244.964 70.0267 246.564 71.04C248.217 72 250.11 72.48 252.244 72.48ZM262.564 80V69.68L264.084 60.32L262.564 51.04V41.6H271.364V80H262.564ZM258.804 36.08C257.044 36.08 255.55 35.76 254.324 35.12C253.097 34.48 251.95 33.8667 250.884 33.28C249.87 32.64 248.724 32.32 247.444 32.32C246.11 32.32 245.044 32.56 244.244 33.04C243.444 33.52 242.67 34.24 241.924 35.2L237.204 30.48C238.75 28.72 240.297 27.3333 241.844 26.32C243.39 25.2533 245.204 24.72 247.284 24.72C249.044 24.72 250.537 25.04 251.764 25.68C252.99 26.2667 254.137 26.88 255.204 27.52C256.27 28.16 257.417 28.48 258.644 28.48C260.03 28.48 261.124 28.24 261.924 27.76C262.724 27.28 263.47 26.56 264.164 25.6L268.884 30.32C267.337 32.08 265.79 33.4933 264.244 34.56C262.697 35.5733 260.884 36.08 258.804 36.08ZM298.73 80.8C294.997 80.8 291.61 79.92 288.57 78.16C285.53 76.3467 283.103 73.92 281.29 70.88C279.53 67.84 278.65 64.4533 278.65 60.72C278.65 56.9867 279.53 53.6267 281.29 50.64C283.103 47.6533 285.53 45.28 288.57 43.52C291.61 41.7067 294.997 40.8 298.73 40.8C302.517 40.8 305.93 41.68 308.97 43.44C312.01 45.2 314.41 47.6 316.17 50.64C317.983 53.6267 318.89 56.9867 318.89 60.72C318.89 64.4533 317.983 67.84 316.17 70.88C314.41 73.92 312.01 76.3467 308.97 78.16C305.93 79.92 302.517 80.8 298.73 80.8ZM298.73 72.32C300.917 72.32 302.837 71.84 304.49 70.88C306.197 69.8667 307.503 68.48 308.41 66.72C309.37 64.96 309.85 62.96 309.85 60.72C309.85 58.48 309.37 56.5067 308.41 54.8C307.45 53.0933 306.143 51.76 304.49 50.8C302.837 49.7867 300.917 49.28 298.73 49.28C296.597 49.28 294.677 49.7867 292.97 50.8C291.317 51.76 290.01 53.0933 289.05 54.8C288.143 56.5067 287.69 58.48 287.69 60.72C287.69 62.96 288.143 64.96 289.05 66.72C290.01 68.48 291.317 69.8667 292.97 70.88C294.677 71.84 296.597 72.32 298.73 72.32ZM358.304 80.8C354.837 80.8 351.69 79.92 348.864 78.16C346.09 76.4 343.877 74.0267 342.224 71.04C340.624 68 339.824 64.6133 339.824 60.88C339.824 57.0933 340.624 53.7067 342.224 50.72C343.877 47.68 346.09 45.28 348.864 43.52C351.69 41.7067 354.837 40.8 358.304 40.8C361.237 40.8 363.824 41.44 366.064 42.72C368.357 43.9467 370.17 45.6533 371.504 47.84C372.837 50.0267 373.504 52.5067 373.504 55.28V66.32C373.504 69.0933 372.837 71.5733 371.504 73.76C370.224 75.9467 368.437 77.68 366.144 78.96C363.85 80.1867 361.237 80.8 358.304 80.8ZM359.744 72.48C361.93 72.48 363.824 72 365.424 71.04C367.077 70.0267 368.357 68.64 369.264 66.88C370.17 65.12 370.624 63.0933 370.624 60.8C370.624 58.5067 370.17 56.48 369.264 54.72C368.357 52.96 367.077 51.6 365.424 50.64C363.824 49.6267 361.93 49.12 359.744 49.12C357.61 49.12 355.717 49.6267 354.064 50.64C352.464 51.6 351.184 52.96 350.224 54.72C349.317 56.48 348.864 58.5067 348.864 60.8C348.864 63.0933 349.317 65.12 350.224 66.88C351.184 68.64 352.464 70.0267 354.064 71.04C355.717 72 357.61 72.48 359.744 72.48ZM378.864 80H370.064V69.68L371.584 60.32L370.064 51.04V22.4H378.864V80ZM404.71 80.8C401.243 80.8 398.097 79.92 395.27 78.16C392.497 76.4 390.283 74.0267 388.63 71.04C387.03 68 386.23 64.6133 386.23 60.88C386.23 57.0933 387.03 53.7067 388.63 50.72C390.283 47.68 392.497 45.28 395.27 43.52C398.097 41.7067 401.243 40.8 404.71 40.8C407.643 40.8 410.23 41.44 412.47 42.72C414.763 43.9467 416.577 45.6533 417.91 47.84C419.243 50.0267 419.91 52.5067 419.91 55.28V66.32C419.91 69.0933 419.243 71.5733 417.91 73.76C416.63 75.9467 414.843 77.68 412.55 78.96C410.257 80.1867 407.643 80.8 404.71 80.8ZM406.15 72.48C409.403 72.48 412.017 71.3867 413.99 69.2C416.017 67.0133 417.03 64.2133 417.03 60.8C417.03 58.5067 416.577 56.48 415.67 54.72C414.763 52.96 413.483 51.6 411.83 50.64C410.23 49.6267 408.337 49.12 406.15 49.12C404.017 49.12 402.123 49.6267 400.47 50.64C398.87 51.6 397.59 52.96 396.63 54.72C395.723 56.48 395.27 58.5067 395.27 60.8C395.27 63.0933 395.723 65.12 396.63 66.88C397.59 68.64 398.87 70.0267 400.47 71.04C402.123 72 404.017 72.48 406.15 72.48ZM416.47 80V69.68L417.99 60.32L416.47 51.04V41.6H425.27V80H416.47ZM465.082 80V25.6H474.282V80H465.082ZM446.842 32.4V24H492.522V32.4H446.842ZM505.491 80.8C502.025 80.8 498.878 79.92 496.051 78.16C493.278 76.4 491.065 74.0267 489.411 71.04C487.811 68 487.011 64.6133 487.011 60.88C487.011 57.0933 487.811 53.7067 489.411 50.72C491.065 47.68 493.278 45.28 496.051 43.52C498.878 41.7067 502.025 40.8 505.491 40.8C508.425 40.8 511.011 41.44 513.251 42.72C515.545 43.9467 517.358 45.6533 518.691 47.84C520.025 50.0267 520.691 52.5067 520.691 55.28V66.32C520.691 69.0933 520.025 71.5733 518.691 73.76C517.411 75.9467 515.625 77.68 513.331 78.96C511.038 80.1867 508.425 80.8 505.491 80.8ZM506.931 72.48C510.185 72.48 512.798 71.3867 514.771 69.2C516.798 67.0133 517.811 64.2133 517.811 60.8C517.811 58.5067 517.358 56.48 516.451 54.72C515.545 52.96 514.265 51.6 512.611 50.64C511.011 49.6267 509.118 49.12 506.931 49.12C504.798 49.12 502.905 49.6267 501.251 50.64C499.651 51.6 498.371 52.96 497.411 54.72C496.505 56.48 496.051 58.5067 496.051 60.8C496.051 63.0933 496.505 65.12 497.411 66.88C498.371 68.64 499.651 70.0267 501.251 71.04C502.905 72 504.798 72.48 506.931 72.48ZM517.251 80V69.68L518.771 60.32L517.251 51.04V41.6H526.051V80H517.251ZM560.138 80L549.098 63.76L547.498 62.32L532.618 41.6H543.258L553.098 55.84L554.618 57.2L570.698 80H560.138ZM531.898 80L547.418 58.48L552.538 64.8L542.138 80H531.898ZM555.418 62.16L550.218 55.92L559.818 41.6H569.978L555.418 62.16ZM591.507 80.8C588.04 80.8 584.894 79.92 582.067 78.16C579.294 76.4 577.08 74.0267 575.427 71.04C573.827 68 573.027 64.6133 573.027 60.88C573.027 57.0933 573.827 53.7067 575.427 50.72C577.08 47.68 579.294 45.28 582.067 43.52C584.894 41.7067 588.04 40.8 591.507 40.8C594.44 40.8 597.027 41.44 599.267 42.72C601.56 43.9467 603.374 45.6533 604.707 47.84C606.04 50.0267 606.707 52.5067 606.707 55.28V66.32C606.707 69.0933 606.04 71.5733 604.707 73.76C603.427 75.9467 601.64 77.68 599.347 78.96C597.054 80.1867 594.44 80.8 591.507 80.8ZM592.947 72.48C596.2 72.48 598.814 71.3867 600.787 69.2C602.814 67.0133 603.827 64.2133 603.827 60.8C603.827 58.5067 603.374 56.48 602.467 54.72C601.56 52.96 600.28 51.6 598.627 50.64C597.027 49.6267 595.134 49.12 592.947 49.12C590.814 49.12 588.92 49.6267 587.267 50.64C585.667 51.6 584.387 52.96 583.427 54.72C582.52 56.48 582.067 58.5067 582.067 60.8C582.067 63.0933 582.52 65.12 583.427 66.88C584.387 68.64 585.667 70.0267 587.267 71.04C588.92 72 590.814 72.48 592.947 72.48ZM603.267 80V69.68L604.787 60.32L603.267 51.04V41.6H612.067V80H603.267ZM653.929 80.8C650.462 80.8 647.315 79.92 644.489 78.16C641.715 76.4 639.502 74.0267 637.849 71.04C636.249 68 635.449 64.6133 635.449 60.88C635.449 57.0933 636.249 53.7067 637.849 50.72C639.502 47.68 641.715 45.28 644.489 43.52C647.315 41.7067 650.462 40.8 653.929 40.8C656.862 40.8 659.449 41.44 661.689 42.72C663.982 43.9467 665.795 45.6533 667.129 47.84C668.462 50.0267 669.129 52.5067 669.129 55.28V66.32C669.129 69.0933 668.462 71.5733 667.129 73.76C665.849 75.9467 664.062 77.68 661.769 78.96C659.475 80.1867 656.862 80.8 653.929 80.8ZM655.369 72.48C657.555 72.48 659.449 72 661.049 71.04C662.702 70.0267 663.982 68.64 664.889 66.88C665.795 65.12 666.249 63.0933 666.249 60.8C666.249 58.5067 665.795 56.48 664.889 54.72C663.982 52.96 662.702 51.6 661.049 50.64C659.449 49.6267 657.555 49.12 655.369 49.12C653.235 49.12 651.342 49.6267 649.689 50.64C648.089 51.6 646.809 52.96 645.849 54.72C644.942 56.48 644.489 58.5067 644.489 60.8C644.489 63.0933 644.942 65.12 645.849 66.88C646.809 68.64 648.089 70.0267 649.689 71.04C651.342 72 653.235 72.48 655.369 72.48ZM674.489 80H665.689V69.68L667.209 60.32L665.689 51.04V22.4H674.489V80ZM702.095 80.8C698.255 80.8 694.788 79.9467 691.695 78.24C688.655 76.48 686.228 74.08 684.415 71.04C682.655 68 681.775 64.5867 681.775 60.8C681.775 57.0133 682.655 53.6267 684.415 50.64C686.175 47.6 688.548 45.2 691.535 43.44C694.575 41.68 697.935 40.8 701.615 40.8C705.188 40.8 708.335 41.6267 711.055 43.28C713.828 44.9333 715.988 47.2 717.535 50.08C719.135 52.96 719.935 56.24 719.935 59.92C719.935 60.56 719.882 61.2267 719.775 61.92C719.722 62.56 719.615 63.28 719.455 64.08H687.935V56.88H714.895L711.615 59.76C711.508 57.4133 711.055 55.44 710.255 53.84C709.455 52.24 708.308 51.0133 706.815 50.16C705.375 49.3067 703.588 48.88 701.455 48.88C699.215 48.88 697.268 49.36 695.615 50.32C693.962 51.28 692.682 52.64 691.775 54.4C690.868 56.1067 690.415 58.16 690.415 60.56C690.415 62.96 690.895 65.0667 691.855 66.88C692.815 68.6933 694.175 70.1067 695.935 71.12C697.695 72.08 699.722 72.56 702.015 72.56C703.988 72.56 705.802 72.2133 707.455 71.52C709.162 70.8267 710.602 69.8133 711.775 68.48L717.375 74.16C715.508 76.3467 713.242 78 710.575 79.12C707.908 80.24 705.082 80.8 702.095 80.8ZM737.779 80L760.819 24H767.219L790.099 80H780.179L762.259 34.64H765.619L747.539 80H737.779ZM749.139 69.2V61.2H778.819V69.2H749.139ZM817.471 80.8C814.538 80.8 811.925 80.1867 809.631 78.96C807.338 77.68 805.525 75.9467 804.191 73.76C802.911 71.5733 802.271 69.0933 802.271 66.32V55.28C802.271 52.5067 802.938 50.0267 804.271 47.84C805.605 45.6533 807.418 43.9467 809.711 42.72C812.005 41.44 814.591 40.8 817.471 40.8C820.938 40.8 824.058 41.7067 826.831 43.52C829.658 45.28 831.871 47.68 833.471 50.72C835.125 53.7067 835.951 57.0933 835.951 60.88C835.951 64.6133 835.125 68 833.471 71.04C831.871 74.0267 829.658 76.4 826.831 78.16C824.058 79.92 820.938 80.8 817.471 80.8ZM796.911 96V41.6H805.711V51.92L804.191 61.28L805.711 70.56V96H796.911ZM816.031 72.48C818.165 72.48 820.031 72 821.631 71.04C823.285 70.0267 824.565 68.64 825.471 66.88C826.431 65.12 826.911 63.0933 826.911 60.8C826.911 58.5067 826.431 56.48 825.471 54.72C824.565 52.96 823.285 51.6 821.631 50.64C820.031 49.6267 818.165 49.12 816.031 49.12C813.898 49.12 812.005 49.6267 810.351 50.64C808.698 51.6 807.418 52.96 806.511 54.72C805.605 56.48 805.151 58.5067 805.151 60.8C805.151 63.0933 805.605 65.12 806.511 66.88C807.418 68.64 808.698 70.0267 810.351 71.04C812.005 72 813.898 72.48 816.031 72.48ZM843.318 80V41.6H852.118V80H843.318ZM852.118 58.64L849.078 57.12C849.078 52.2667 850.144 48.3467 852.278 45.36C854.464 42.32 857.744 40.8 862.118 40.8C864.038 40.8 865.771 41.1467 867.318 41.84C868.864 42.5333 870.304 43.6533 871.638 45.2L865.878 51.12C865.184 50.3733 864.411 49.84 863.558 49.52C862.704 49.2 861.718 49.04 860.598 49.04C858.144 49.04 856.118 49.8133 854.518 51.36C852.918 52.9067 852.118 55.3333 852.118 58.64ZM892.324 80.8C888.59 80.8 885.204 79.92 882.164 78.16C879.124 76.3467 876.697 73.92 874.884 70.88C873.124 67.84 872.244 64.4533 872.244 60.72C872.244 56.9867 873.124 53.6267 874.884 50.64C876.697 47.6533 879.124 45.28 882.164 43.52C885.204 41.7067 888.59 40.8 892.324 40.8C896.11 40.8 899.524 41.68 902.564 43.44C905.604 45.2 908.004 47.6 909.764 50.64C911.577 53.6267 912.484 56.9867 912.484 60.72C912.484 64.4533 911.577 67.84 909.764 70.88C908.004 73.92 905.604 76.3467 902.564 78.16C899.524 79.92 896.11 80.8 892.324 80.8ZM892.324 72.32C894.51 72.32 896.43 71.84 898.084 70.88C899.79 69.8667 901.097 68.48 902.004 66.72C902.964 64.96 903.444 62.96 903.444 60.72C903.444 58.48 902.964 56.5067 902.004 54.8C901.044 53.0933 899.737 51.76 898.084 50.8C896.43 49.7867 894.51 49.28 892.324 49.28C890.19 49.28 888.27 49.7867 886.564 50.8C884.91 51.76 883.604 53.0933 882.644 54.8C881.737 56.5067 881.284 58.48 881.284 60.72C881.284 62.96 881.737 64.96 882.644 66.72C883.604 68.48 884.91 69.8667 886.564 70.88C888.27 71.84 890.19 72.32 892.324 72.32ZM931.434 80L913.914 41.6H923.674L937.034 72.88H931.274L944.714 41.6H954.074L936.554 80H931.434ZM974.007 80.8C970.54 80.8 967.394 79.92 964.567 78.16C961.794 76.4 959.58 74.0267 957.927 71.04C956.327 68 955.527 64.6133 955.527 60.88C955.527 57.0933 956.327 53.7067 957.927 50.72C959.58 47.68 961.794 45.28 964.567 43.52C967.394 41.7067 970.54 40.8 974.007 40.8C976.94 40.8 979.527 41.44 981.767 42.72C984.06 43.9467 985.874 45.6533 987.207 47.84C988.54 50.0267 989.207 52.5067 989.207 55.28V66.32C989.207 69.0933 988.54 71.5733 987.207 73.76C985.927 75.9467 984.14 77.68 981.847 78.96C979.554 80.1867 976.94 80.8 974.007 80.8ZM975.447 72.48C978.7 72.48 981.314 71.3867 983.287 69.2C985.314 67.0133 986.327 64.2133 986.327 60.8C986.327 58.5067 985.874 56.48 984.967 54.72C984.06 52.96 982.78 51.6 981.127 50.64C979.527 49.6267 977.634 49.12 975.447 49.12C973.314 49.12 971.42 49.6267 969.767 50.64C968.167 51.6 966.887 52.96 965.927 54.72C965.02 56.48 964.567 58.5067 964.567 60.8C964.567 63.0933 965.02 65.12 965.927 66.88C966.887 68.64 968.167 70.0267 969.767 71.04C971.42 72 973.314 72.48 975.447 72.48ZM985.767 80V69.68L987.287 60.32L985.767 51.04V41.6H994.567V80H985.767ZM1022.01 80.8C1018.23 80.8 1014.79 79.92 1011.69 78.16C1008.65 76.4 1006.25 74 1004.49 70.96C1002.73 67.92 1001.85 64.5333 1001.85 60.8C1001.85 57.0133 1002.73 53.6267 1004.49 50.64C1006.25 47.6 1008.65 45.2 1011.69 43.44C1014.79 41.68 1018.23 40.8 1022.01 40.8C1025 40.8 1027.77 41.3867 1030.33 42.56C1032.95 43.68 1035.16 45.3067 1036.97 47.44L1031.21 53.28C1030.09 51.9467 1028.73 50.96 1027.13 50.32C1025.59 49.6267 1023.88 49.28 1022.01 49.28C1019.83 49.28 1017.88 49.7867 1016.17 50.8C1014.52 51.76 1013.21 53.0933 1012.25 54.8C1011.35 56.5067 1010.89 58.5067 1010.89 60.8C1010.89 63.04 1011.35 65.04 1012.25 66.8C1013.21 68.5067 1014.52 69.8667 1016.17 70.88C1017.88 71.84 1019.83 72.32 1022.01 72.32C1023.88 72.32 1025.59 72 1027.13 71.36C1028.73 70.6667 1030.09 69.6533 1031.21 68.32L1036.97 74.16C1035.16 76.2933 1032.95 77.9467 1030.33 79.12C1027.77 80.24 1025 80.8 1022.01 80.8ZM1019.53 96.8C1017.56 96.8 1015.83 96.56 1014.33 96.08C1012.84 95.6 1011.4 94.9067 1010.01 94L1013.61 89.44C1014.2 89.9733 1014.92 90.4 1015.77 90.72C1016.63 91.0933 1017.67 91.28 1018.89 91.28C1020.28 91.28 1021.27 91.0933 1021.85 90.72C1022.49 90.3467 1022.81 89.8933 1022.81 89.36C1022.81 88.7733 1022.52 88.24 1021.93 87.76C1021.4 87.3333 1020.52 87.12 1019.29 87.12H1015.13L1017.77 78.88H1024.17L1022.25 84.64L1019.05 82.24C1022.36 82.1333 1025.03 82.7733 1027.05 84.16C1029.08 85.6 1030.09 87.3867 1030.09 89.52C1030.09 91.6 1029.11 93.3333 1027.13 94.72C1025.21 96.1067 1022.68 96.8 1019.53 96.8ZM1058.62 80.8C1055.15 80.8 1052 79.92 1049.18 78.16C1046.4 76.4 1044.19 74.0267 1042.54 71.04C1040.94 68 1040.14 64.6133 1040.14 60.88C1040.14 57.0933 1040.94 53.7067 1042.54 50.72C1044.19 47.68 1046.4 45.28 1049.18 43.52C1052 41.7067 1055.15 40.8 1058.62 40.8C1061.55 40.8 1064.14 41.44 1066.38 42.72C1068.67 43.9467 1070.48 45.6533 1071.82 47.84C1073.15 50.0267 1073.82 52.5067 1073.82 55.28V66.32C1073.82 69.0933 1073.15 71.5733 1071.82 73.76C1070.54 75.9467 1068.75 77.68 1066.46 78.96C1064.16 80.1867 1061.55 80.8 1058.62 80.8ZM1060.06 72.48C1063.31 72.48 1065.92 71.3867 1067.9 69.2C1069.92 67.0133 1070.94 64.2133 1070.94 60.8C1070.94 58.5067 1070.48 56.48 1069.58 54.72C1068.67 52.96 1067.39 51.6 1065.74 50.64C1064.14 49.6267 1062.24 49.12 1060.06 49.12C1057.92 49.12 1056.03 49.6267 1054.38 50.64C1052.78 51.6 1051.5 52.96 1050.54 54.72C1049.63 56.48 1049.18 58.5067 1049.18 60.8C1049.18 63.0933 1049.63 65.12 1050.54 66.88C1051.5 68.64 1052.78 70.0267 1054.38 71.04C1056.03 72 1057.92 72.48 1060.06 72.48ZM1070.38 80V69.68L1071.9 60.32L1070.38 51.04V41.6H1079.18V80H1070.38ZM1066.62 36.08C1064.86 36.08 1063.36 35.76 1062.14 35.12C1060.91 34.48 1059.76 33.8667 1058.7 33.28C1057.68 32.64 1056.54 32.32 1055.26 32.32C1053.92 32.32 1052.86 32.56 1052.06 33.04C1051.26 33.52 1050.48 34.24 1049.74 35.2L1045.02 30.48C1046.56 28.72 1048.11 27.3333 1049.66 26.32C1051.2 25.2533 1053.02 24.72 1055.1 24.72C1056.86 24.72 1058.35 25.04 1059.58 25.68C1060.8 26.2667 1061.95 26.88 1063.02 27.52C1064.08 28.16 1065.23 28.48 1066.46 28.48C1067.84 28.48 1068.94 28.24 1069.74 27.76C1070.54 27.28 1071.28 26.56 1071.98 25.6L1076.7 30.32C1075.15 32.08 1073.6 33.4933 1072.06 34.56C1070.51 35.5733 1068.7 36.08 1066.62 36.08ZM1106.54 80.8C1102.81 80.8 1099.42 79.92 1096.38 78.16C1093.34 76.3467 1090.92 73.92 1089.1 70.88C1087.34 67.84 1086.46 64.4533 1086.46 60.72C1086.46 56.9867 1087.34 53.6267 1089.1 50.64C1090.92 47.6533 1093.34 45.28 1096.38 43.52C1099.42 41.7067 1102.81 40.8 1106.54 40.8C1110.33 40.8 1113.74 41.68 1116.78 43.44C1119.82 45.2 1122.22 47.6 1123.98 50.64C1125.8 53.6267 1126.7 56.9867 1126.7 60.72C1126.7 64.4533 1125.8 67.84 1123.98 70.88C1122.22 73.92 1119.82 76.3467 1116.78 78.16C1113.74 79.92 1110.33 80.8 1106.54 80.8ZM1106.54 72.32C1108.73 72.32 1110.65 71.84 1112.3 70.88C1114.01 69.8667 1115.32 68.48 1116.22 66.72C1117.18 64.96 1117.66 62.96 1117.66 60.72C1117.66 58.48 1117.18 56.5067 1116.22 54.8C1115.26 53.0933 1113.96 51.76 1112.3 50.8C1110.65 49.7867 1108.73 49.28 1106.54 49.28C1104.41 49.28 1102.49 49.7867 1100.78 50.8C1099.13 51.76 1097.82 53.0933 1096.86 54.8C1095.96 56.5067 1095.5 58.48 1095.5 60.72C1095.5 62.96 1095.96 64.96 1096.86 66.72C1097.82 68.48 1099.13 69.8667 1100.78 70.88C1102.49 71.84 1104.41 72.32 1106.54 72.32ZM1176.36 80V57.84C1176.36 55.28 1175.53 53.1733 1173.88 51.52C1172.28 49.8667 1170.2 49.04 1167.64 49.04C1165.93 49.04 1164.41 49.4133 1163.08 50.16C1161.74 50.9067 1160.7 51.9467 1159.96 53.28C1159.21 54.6133 1158.84 56.1333 1158.84 57.84L1155.4 55.92C1155.4 52.9867 1156.04 50.4 1157.32 48.16C1158.6 45.8667 1160.36 44.08 1162.6 42.8C1164.89 41.4667 1167.45 40.8 1170.28 40.8C1173.16 40.8 1175.72 41.5467 1177.96 43.04C1180.2 44.48 1181.96 46.3733 1183.24 48.72C1184.52 51.0133 1185.16 53.4133 1185.16 55.92V80H1176.36ZM1150.04 80V41.6H1158.84V80H1150.04ZM1211.7 80.8C1207.97 80.8 1204.58 79.92 1201.54 78.16C1198.5 76.3467 1196.07 73.92 1194.26 70.88C1192.5 67.84 1191.62 64.4533 1191.62 60.72C1191.62 56.9867 1192.5 53.6267 1194.26 50.64C1196.07 47.6533 1198.5 45.28 1201.54 43.52C1204.58 41.7067 1207.97 40.8 1211.7 40.8C1215.49 40.8 1218.9 41.68 1221.94 43.44C1224.98 45.2 1227.38 47.6 1229.14 50.64C1230.95 53.6267 1231.86 56.9867 1231.86 60.72C1231.86 64.4533 1230.95 67.84 1229.14 70.88C1227.38 73.92 1224.98 76.3467 1221.94 78.16C1218.9 79.92 1215.49 80.8 1211.7 80.8ZM1211.7 72.32C1213.89 72.32 1215.81 71.84 1217.46 70.88C1219.17 69.8667 1220.47 68.48 1221.38 66.72C1222.34 64.96 1222.82 62.96 1222.82 60.72C1222.82 58.48 1222.34 56.5067 1221.38 54.8C1220.42 53.0933 1219.11 51.76 1217.46 50.8C1215.81 49.7867 1213.89 49.28 1211.7 49.28C1209.57 49.28 1207.65 49.7867 1205.94 50.8C1204.29 51.76 1202.98 53.0933 1202.02 54.8C1201.11 56.5067 1200.66 58.48 1200.66 60.72C1200.66 62.96 1201.11 64.96 1202.02 66.72C1202.98 68.48 1204.29 69.8667 1205.94 70.88C1207.65 71.84 1209.57 72.32 1211.7 72.32ZM1256.39 80V24H1265.59V80H1256.39ZM1262.71 80V71.6H1294.07V80H1262.71ZM1262.71 55.44V47.36H1291.35V55.44H1262.71ZM1262.71 32.4V24H1293.67V32.4H1262.71ZM1328.7 80V57.84C1328.7 55.28 1327.87 53.1733 1326.22 51.52C1324.62 49.8667 1322.54 49.04 1319.98 49.04C1318.27 49.04 1316.75 49.4133 1315.42 50.16C1314.09 50.9067 1313.05 51.9467 1312.3 53.28C1311.55 54.6133 1311.18 56.1333 1311.18 57.84L1307.74 55.92C1307.74 52.9867 1308.38 50.4 1309.66 48.16C1310.94 45.8667 1312.7 44.08 1314.94 42.8C1317.23 41.4667 1319.79 40.8 1322.62 40.8C1325.5 40.8 1328.06 41.5467 1330.3 43.04C1332.54 44.48 1334.3 46.3733 1335.58 48.72C1336.86 51.0133 1337.5 53.4133 1337.5 55.92V80H1328.7ZM1302.38 80V41.6H1311.18V80H1302.38ZM1359 80.8C1356.87 80.8 1354.82 80.5333 1352.84 80C1350.87 79.4133 1349.06 78.6133 1347.4 77.6C1345.75 76.5333 1344.31 75.2533 1343.08 73.76L1348.68 68.16C1350.02 69.7067 1351.54 70.88 1353.24 71.68C1355 72.4267 1356.98 72.8 1359.16 72.8C1361.14 72.8 1362.63 72.5067 1363.64 71.92C1364.66 71.3333 1365.16 70.48 1365.16 69.36C1365.16 68.1867 1364.68 67.28 1363.72 66.64C1362.76 66 1361.51 65.4667 1359.96 65.04C1358.47 64.56 1356.87 64.08 1355.16 63.6C1353.51 63.12 1351.91 62.48 1350.36 61.68C1348.87 60.8267 1347.64 59.68 1346.68 58.24C1345.72 56.8 1345.24 54.9333 1345.24 52.64C1345.24 50.1867 1345.8 48.08 1346.92 46.32C1348.1 44.56 1349.72 43.2 1351.8 42.24C1353.94 41.28 1356.47 40.8 1359.4 40.8C1362.5 40.8 1365.22 41.36 1367.56 42.48C1369.96 43.5467 1371.96 45.1733 1373.56 47.36L1367.96 52.96C1366.84 51.5733 1365.56 50.5333 1364.12 49.84C1362.68 49.1467 1361.03 48.8 1359.16 48.8C1357.4 48.8 1356.04 49.0667 1355.08 49.6C1354.12 50.1333 1353.64 50.9067 1353.64 51.92C1353.64 52.9867 1354.12 53.8133 1355.08 54.4C1356.04 54.9867 1357.27 55.4933 1358.76 55.92C1360.31 56.3467 1361.91 56.8267 1363.56 57.36C1365.27 57.84 1366.87 58.5333 1368.36 59.44C1369.91 60.2933 1371.16 61.4667 1372.12 62.96C1373.08 64.4 1373.56 66.2933 1373.56 68.64C1373.56 72.3733 1372.26 75.3333 1369.64 77.52C1367.03 79.7067 1363.48 80.8 1359 80.8ZM1380.9 80V41.6H1389.7V80H1380.9ZM1385.3 34.56C1383.8 34.56 1382.55 34.0533 1381.54 33.04C1380.58 32.0267 1380.1 30.7733 1380.1 29.28C1380.1 27.7867 1380.58 26.5333 1381.54 25.52C1382.55 24.5067 1383.8 24 1385.3 24C1386.84 24 1388.1 24.5067 1389.06 25.52C1390.02 26.5333 1390.5 27.7867 1390.5 29.28C1390.5 30.7733 1390.02 32.0267 1389.06 33.04C1388.1 34.0533 1386.84 34.56 1385.3 34.56ZM1425.89 80V57.84C1425.89 55.28 1425.06 53.1733 1423.41 51.52C1421.81 49.8667 1419.73 49.04 1417.17 49.04C1415.46 49.04 1413.94 49.4133 1412.61 50.16C1411.27 50.9067 1410.23 51.9467 1409.49 53.28C1408.74 54.6133 1408.37 56.1333 1408.37 57.84L1404.93 55.92C1404.93 52.9867 1405.57 50.4 1406.85 48.16C1408.13 45.8667 1409.89 44.08 1412.13 42.8C1414.42 41.4667 1416.98 40.8 1419.81 40.8C1422.69 40.8 1425.25 41.5467 1427.49 43.04C1429.73 44.48 1431.49 46.3733 1432.77 48.72C1434.05 51.0133 1434.69 53.4133 1434.69 55.92V80H1425.89ZM1399.57 80V41.6H1408.37V80H1399.57ZM1461.23 80.8C1457.5 80.8 1454.11 79.92 1451.07 78.16C1448.03 76.3467 1445.6 73.92 1443.79 70.88C1442.03 67.84 1441.15 64.4533 1441.15 60.72C1441.15 56.9867 1442.03 53.6267 1443.79 50.64C1445.6 47.6533 1448.03 45.28 1451.07 43.52C1454.11 41.7067 1457.5 40.8 1461.23 40.8C1465.02 40.8 1468.43 41.68 1471.47 43.44C1474.51 45.2 1476.91 47.6 1478.67 50.64C1480.48 53.6267 1481.39 56.9867 1481.39 60.72C1481.39 64.4533 1480.48 67.84 1478.67 70.88C1476.91 73.92 1474.51 76.3467 1471.47 78.16C1468.43 79.92 1465.02 80.8 1461.23 80.8ZM1461.23 72.32C1463.42 72.32 1465.34 71.84 1466.99 70.88C1468.7 69.8667 1470 68.48 1470.91 66.72C1471.87 64.96 1472.35 62.96 1472.35 60.72C1472.35 58.48 1471.87 56.5067 1470.91 54.8C1469.95 53.0933 1468.64 51.76 1466.99 50.8C1465.34 49.7867 1463.42 49.28 1461.23 49.28C1459.1 49.28 1457.18 49.7867 1455.47 50.8C1453.82 51.76 1452.51 53.0933 1451.55 54.8C1450.64 56.5067 1450.19 58.48 1450.19 60.72C1450.19 62.96 1450.64 64.96 1451.55 66.72C1452.51 68.48 1453.82 69.8667 1455.47 70.88C1457.18 71.84 1459.1 72.32 1461.23 72.32ZM1512.24 80V72H1528.32C1531.15 72 1533.34 71.12 1534.88 69.36C1536.43 67.6 1537.2 65.5733 1537.2 63.28C1537.2 61.7333 1536.86 60.2933 1536.16 58.96C1535.47 57.6267 1534.46 56.56 1533.12 55.76C1531.79 54.96 1530.19 54.56 1528.32 54.56H1512.24V46.56H1526.96C1529.36 46.56 1531.28 45.9467 1532.72 44.72C1534.16 43.4933 1534.88 41.68 1534.88 39.28C1534.88 36.88 1534.16 35.0667 1532.72 33.84C1531.28 32.6133 1529.36 32 1526.96 32H1512.24V24H1527.2C1530.99 24 1534.14 24.6933 1536.64 26.08C1539.15 27.4667 1541.02 29.2533 1542.24 31.44C1543.47 33.6267 1544.08 35.9733 1544.08 38.48C1544.08 41.4133 1543.26 44 1541.6 46.24C1540 48.48 1537.63 50.2933 1534.48 51.68L1535.2 48.8C1538.72 50.24 1541.47 52.2667 1543.44 54.88C1545.42 57.4933 1546.4 60.56 1546.4 64.08C1546.4 66.96 1545.68 69.6 1544.24 72C1542.86 74.4 1540.78 76.3467 1538 77.84C1535.28 79.28 1531.92 80 1527.92 80H1512.24ZM1505.92 80V24H1515.12V80H1505.92ZM1570.57 80.8C1567.1 80.8 1563.96 79.92 1561.13 78.16C1558.36 76.4 1556.14 74.0267 1554.49 71.04C1552.89 68 1552.09 64.6133 1552.09 60.88C1552.09 57.0933 1552.89 53.7067 1554.49 50.72C1556.14 47.68 1558.36 45.28 1561.13 43.52C1563.96 41.7067 1567.1 40.8 1570.57 40.8C1573.5 40.8 1576.09 41.44 1578.33 42.72C1580.62 43.9467 1582.44 45.6533 1583.77 47.84C1585.1 50.0267 1585.77 52.5067 1585.77 55.28V66.32C1585.77 69.0933 1585.1 71.5733 1583.77 73.76C1582.49 75.9467 1580.7 77.68 1578.41 78.96C1576.12 80.1867 1573.5 80.8 1570.57 80.8ZM1572.01 72.48C1575.26 72.48 1577.88 71.3867 1579.85 69.2C1581.88 67.0133 1582.89 64.2133 1582.89 60.8C1582.89 58.5067 1582.44 56.48 1581.53 54.72C1580.62 52.96 1579.34 51.6 1577.69 50.64C1576.09 49.6267 1574.2 49.12 1572.01 49.12C1569.88 49.12 1567.98 49.6267 1566.33 50.64C1564.73 51.6 1563.45 52.96 1562.49 54.72C1561.58 56.48 1561.13 58.5067 1561.13 60.8C1561.13 63.0933 1561.58 65.12 1562.49 66.88C1563.45 68.64 1564.73 70.0267 1566.33 71.04C1567.98 72 1569.88 72.48 1572.01 72.48ZM1582.33 80V69.68L1583.85 60.32L1582.33 51.04V41.6H1591.13V80H1582.33ZM1568.25 36.08L1564.25 32.08L1574.49 19.04L1581.29 25.84L1568.25 36.08ZM1613.46 80.8C1611.32 80.8 1609.27 80.5333 1607.3 80C1605.32 79.4133 1603.51 78.6133 1601.86 77.6C1600.2 76.5333 1598.76 75.2533 1597.54 73.76L1603.14 68.16C1604.47 69.7067 1605.99 70.88 1607.7 71.68C1609.46 72.4267 1611.43 72.8 1613.62 72.8C1615.59 72.8 1617.08 72.5067 1618.1 71.92C1619.11 71.3333 1619.62 70.48 1619.62 69.36C1619.62 68.1867 1619.14 67.28 1618.18 66.64C1617.22 66 1615.96 65.4667 1614.42 65.04C1612.92 64.56 1611.32 64.08 1609.62 63.6C1607.96 63.12 1606.36 62.48 1604.82 61.68C1603.32 60.8267 1602.1 59.68 1601.14 58.24C1600.18 56.8 1599.7 54.9333 1599.7 52.64C1599.7 50.1867 1600.26 48.08 1601.38 46.32C1602.55 44.56 1604.18 43.2 1606.26 42.24C1608.39 41.28 1610.92 40.8 1613.86 40.8C1616.95 40.8 1619.67 41.36 1622.02 42.48C1624.42 43.5467 1626.42 45.1733 1628.02 47.36L1622.42 52.96C1621.3 51.5733 1620.02 50.5333 1618.58 49.84C1617.14 49.1467 1615.48 48.8 1613.62 48.8C1611.86 48.8 1610.5 49.0667 1609.54 49.6C1608.58 50.1333 1608.1 50.9067 1608.1 51.92C1608.1 52.9867 1608.58 53.8133 1609.54 54.4C1610.5 54.9867 1611.72 55.4933 1613.22 55.92C1614.76 56.3467 1616.36 56.8267 1618.02 57.36C1619.72 57.84 1621.32 58.5333 1622.82 59.44C1624.36 60.2933 1625.62 61.4667 1626.58 62.96C1627.54 64.4 1628.02 66.2933 1628.02 68.64C1628.02 72.3733 1626.71 75.3333 1624.1 77.52C1621.48 79.7067 1617.94 80.8 1613.46 80.8ZM1635.35 80V41.6H1644.15V80H1635.35ZM1639.75 34.56C1638.26 34.56 1637 34.0533 1635.99 33.04C1635.03 32.0267 1634.55 30.7733 1634.55 29.28C1634.55 27.7867 1635.03 26.5333 1635.99 25.52C1637 24.5067 1638.26 24 1639.75 24C1641.3 24 1642.55 24.5067 1643.51 25.52C1644.47 26.5333 1644.95 27.7867 1644.95 29.28C1644.95 30.7733 1644.47 32.0267 1643.51 33.04C1642.55 34.0533 1641.3 34.56 1639.75 34.56ZM1671.7 80.8C1667.91 80.8 1664.47 79.92 1661.38 78.16C1658.34 76.4 1655.94 74 1654.18 70.96C1652.42 67.92 1651.54 64.5333 1651.54 60.8C1651.54 57.0133 1652.42 53.6267 1654.18 50.64C1655.94 47.6 1658.34 45.2 1661.38 43.44C1664.47 41.68 1667.91 40.8 1671.7 40.8C1674.69 40.8 1677.46 41.3867 1680.02 42.56C1682.63 43.68 1684.85 45.3067 1686.66 47.44L1680.9 53.28C1679.78 51.9467 1678.42 50.96 1676.82 50.32C1675.27 49.6267 1673.57 49.28 1671.7 49.28C1669.51 49.28 1667.57 49.7867 1665.86 50.8C1664.21 51.76 1662.9 53.0933 1661.94 54.8C1661.03 56.5067 1660.58 58.5067 1660.58 60.8C1660.58 63.04 1661.03 65.04 1661.94 66.8C1662.9 68.5067 1664.21 69.8667 1665.86 70.88C1667.57 71.84 1669.51 72.32 1671.7 72.32C1673.57 72.32 1675.27 72 1676.82 71.36C1678.42 70.6667 1679.78 69.6533 1680.9 68.32L1686.66 74.16C1684.85 76.2933 1682.63 77.9467 1680.02 79.12C1677.46 80.24 1674.69 80.8 1671.7 80.8ZM1709.82 80.8C1706.09 80.8 1702.7 79.92 1699.66 78.16C1696.62 76.3467 1694.2 73.92 1692.38 70.88C1690.62 67.84 1689.74 64.4533 1689.74 60.72C1689.74 56.9867 1690.62 53.6267 1692.38 50.64C1694.2 47.6533 1696.62 45.28 1699.66 43.52C1702.7 41.7067 1706.09 40.8 1709.82 40.8C1713.61 40.8 1717.02 41.68 1720.06 43.44C1723.1 45.2 1725.5 47.6 1727.26 50.64C1729.08 53.6267 1729.98 56.9867 1729.98 60.72C1729.98 64.4533 1729.08 67.84 1727.26 70.88C1725.5 73.92 1723.1 76.3467 1720.06 78.16C1717.02 79.92 1713.61 80.8 1709.82 80.8ZM1709.82 72.32C1712.01 72.32 1713.93 71.84 1715.58 70.88C1717.29 69.8667 1718.6 68.48 1719.5 66.72C1720.46 64.96 1720.94 62.96 1720.94 60.72C1720.94 58.48 1720.46 56.5067 1719.5 54.8C1718.54 53.0933 1717.24 51.76 1715.58 50.8C1713.93 49.7867 1712.01 49.28 1709.82 49.28C1707.69 49.28 1705.77 49.7867 1704.06 50.8C1702.41 51.76 1701.1 53.0933 1700.14 54.8C1699.24 56.5067 1698.78 58.48 1698.78 60.72C1698.78 62.96 1699.24 64.96 1700.14 66.72C1701.1 68.48 1702.41 69.8667 1704.06 70.88C1705.77 71.84 1707.69 72.32 1709.82 72.32Z" fill="#9C1C2B"/>
</svg>
