<svg width="723" height="803" viewBox="0 0 723 803" fill="none" xmlns="http://www.w3.org/2000/svg">
<g clip-path="url(#clip0_17151_11)">
<path d="M0 80C0 57.9086 17.9086 40 40 40H682.16C704.251 40 722.16 57.9086 722.16 80V722.16C722.16 744.251 704.251 762.16 682.16 762.16H40C17.9086 762.16 0 744.251 0 722.16V80Z" fill="#C5192D"/>
<path d="M489.1 267.352L475.16 256.332V506.552L330.58 553.262H315.89L171.96 513.052V256.332L158 267.352V522.842L315.23 566.372H331.24L476.29 520.312L489.1 516.542V267.352ZM563.3 250.792C563.352 248.738 562.993 246.693 562.243 244.78C561.493 242.866 560.367 241.122 558.932 239.65C557.498 238.178 555.783 237.009 553.889 236.21C551.995 235.411 549.96 235 547.905 235C545.85 235 543.815 235.411 541.921 236.21C540.027 237.009 538.312 238.178 536.878 239.65C535.443 241.122 534.317 242.866 533.567 244.78C532.817 246.693 532.458 248.738 532.51 250.792V267.392H563.3V250.792Z" fill="white"/>
<path d="M185.77 256.912L315.89 332.042V539.212L185.77 499.962V256.912Z" fill="white"/>
<path d="M330.2 539.302V332.542L461.16 256.922V499.932L330.2 539.302Z" fill="white"/>
<path d="M547.91 549.452L532.51 495.652V279.412H563.29V495.652L547.91 549.452Z" fill="white"/>
</g>
<defs>
<clipPath id="clip0_17151_11">
<rect width="722.16" height="802.16" fill="white"/>
</clipPath>
</defs>
</svg>
