<svg width="2271" height="131" viewBox="0 0 2271 131" fill="none" xmlns="http://www.w3.org/2000/svg">
<path d="M6.08 80V24H12.48L15.28 34.56V80H6.08ZM44.88 80L11.36 36.24L12.48 24L46 67.76L44.88 80ZM44.88 80L42.08 70.16V24H51.28V80H44.88ZM77.9838 80.8C74.7304 80.8 71.8238 80.08 69.2638 78.64C66.7571 77.2 64.7838 75.2267 63.3438 72.72C61.9571 70.16 61.2638 67.2267 61.2638 63.92V41.6H70.0638V63.52C70.0638 65.3867 70.3571 66.9867 70.9438 68.32C71.5838 69.6 72.4904 70.5867 73.6638 71.28C74.8904 71.9733 76.3304 72.32 77.9838 72.32C80.5438 72.32 82.4904 71.5733 83.8238 70.08C85.2104 68.5333 85.9038 66.3467 85.9038 63.52V41.6H94.7038V63.92C94.7038 67.28 93.9838 70.24 92.5438 72.8C91.1571 75.3067 89.2104 77.28 86.7038 78.72C84.1971 80.1067 81.2904 80.8 77.9838 80.8ZM73.5038 36.08L69.5038 32.08L79.7438 19.04L86.5438 25.84L73.5038 36.08ZM103.552 80V41.6H112.352V80H103.552ZM129.072 80V57.12C129.072 54.56 128.272 52.5867 126.672 51.2C125.072 49.76 123.099 49.04 120.752 49.04C119.152 49.04 117.712 49.36 116.432 50C115.205 50.64 114.219 51.5733 113.472 52.8C112.725 53.9733 112.352 55.4133 112.352 57.12L108.912 55.2C108.912 52.2667 109.552 49.7333 110.832 47.6C112.112 45.4667 113.845 43.8133 116.032 42.64C118.219 41.4133 120.672 40.8 123.392 40.8C126.112 40.8 128.565 41.3867 130.752 42.56C132.939 43.7333 134.672 45.3867 135.952 47.52C137.232 49.6533 137.872 52.2133 137.872 55.2V80H129.072ZM154.592 80V57.12C154.592 54.56 153.792 52.5867 152.192 51.2C150.592 49.76 148.619 49.04 146.272 49.04C144.725 49.04 143.312 49.36 142.032 50C140.752 50.64 139.739 51.5733 138.992 52.8C138.245 53.9733 137.872 55.4133 137.872 57.12L132.912 55.2C133.179 52.2667 134.032 49.7333 135.472 47.6C136.912 45.4667 138.752 43.8133 140.992 42.64C143.285 41.4133 145.792 40.8 148.512 40.8C151.285 40.8 153.792 41.3867 156.032 42.56C158.272 43.7333 160.059 45.3867 161.392 47.52C162.725 49.6533 163.392 52.2133 163.392 55.2V80H154.592ZM190.298 80.8C186.458 80.8 182.991 79.9467 179.898 78.24C176.858 76.48 174.431 74.08 172.618 71.04C170.858 68 169.978 64.5867 169.978 60.8C169.978 57.0133 170.858 53.6267 172.618 50.64C174.378 47.6 176.751 45.2 179.738 43.44C182.778 41.68 186.138 40.8 189.818 40.8C193.391 40.8 196.538 41.6267 199.258 43.28C202.031 44.9333 204.191 47.2 205.738 50.08C207.338 52.96 208.138 56.24 208.138 59.92C208.138 60.56 208.085 61.2267 207.978 61.92C207.925 62.56 207.818 63.28 207.658 64.08H176.138V56.88H203.098L199.818 59.76C199.711 57.4133 199.258 55.44 198.458 53.84C197.658 52.24 196.511 51.0133 195.018 50.16C193.578 49.3067 191.791 48.88 189.658 48.88C187.418 48.88 185.471 49.36 183.818 50.32C182.165 51.28 180.885 52.64 179.978 54.4C179.071 56.1067 178.618 58.16 178.618 60.56C178.618 62.96 179.098 65.0667 180.058 66.88C181.018 68.6933 182.378 70.1067 184.138 71.12C185.898 72.08 187.925 72.56 190.218 72.56C192.191 72.56 194.005 72.2133 195.658 71.52C197.365 70.8267 198.805 69.8133 199.978 68.48L205.578 74.16C203.711 76.3467 201.445 78 198.778 79.12C196.111 80.24 193.285 80.8 190.298 80.8ZM215.193 80V41.6H223.993V80H215.193ZM223.993 58.64L220.953 57.12C220.953 52.2667 222.019 48.3467 224.153 45.36C226.339 42.32 229.619 40.8 233.993 40.8C235.913 40.8 237.646 41.1467 239.193 41.84C240.739 42.5333 242.179 43.6533 243.513 45.2L237.753 51.12C237.059 50.3733 236.286 49.84 235.433 49.52C234.579 49.2 233.593 49.04 232.473 49.04C230.019 49.04 227.993 49.8133 226.393 51.36C224.793 52.9067 223.993 55.3333 223.993 58.64ZM264.199 80.8C260.465 80.8 257.079 79.92 254.039 78.16C250.999 76.3467 248.572 73.92 246.759 70.88C244.999 67.84 244.119 64.4533 244.119 60.72C244.119 56.9867 244.999 53.6267 246.759 50.64C248.572 47.6533 250.999 45.28 254.039 43.52C257.079 41.7067 260.465 40.8 264.199 40.8C267.985 40.8 271.399 41.68 274.439 43.44C277.479 45.2 279.879 47.6 281.639 50.64C283.452 53.6267 284.359 56.9867 284.359 60.72C284.359 64.4533 283.452 67.84 281.639 70.88C279.879 73.92 277.479 76.3467 274.439 78.16C271.399 79.92 267.985 80.8 264.199 80.8ZM264.199 72.32C266.385 72.32 268.305 71.84 269.959 70.88C271.665 69.8667 272.972 68.48 273.879 66.72C274.839 64.96 275.319 62.96 275.319 60.72C275.319 58.48 274.839 56.5067 273.879 54.8C272.919 53.0933 271.612 51.76 269.959 50.8C268.305 49.7867 266.385 49.28 264.199 49.28C262.065 49.28 260.145 49.7867 258.439 50.8C256.785 51.76 255.479 53.0933 254.519 54.8C253.612 56.5067 253.159 58.48 253.159 60.72C253.159 62.96 253.612 64.96 254.519 66.72C255.479 68.48 256.785 69.8667 258.439 70.88C260.145 71.84 262.065 72.32 264.199 72.32ZM323.773 80.8C320.306 80.8 317.159 79.92 314.333 78.16C311.559 76.4 309.346 74.0267 307.693 71.04C306.093 68 305.293 64.6133 305.293 60.88C305.293 57.0933 306.093 53.7067 307.693 50.72C309.346 47.68 311.559 45.28 314.333 43.52C317.159 41.7067 320.306 40.8 323.773 40.8C326.706 40.8 329.293 41.44 331.533 42.72C333.826 43.9467 335.639 45.6533 336.973 47.84C338.306 50.0267 338.973 52.5067 338.973 55.28V66.32C338.973 69.0933 338.306 71.5733 336.973 73.76C335.693 75.9467 333.906 77.68 331.613 78.96C329.319 80.1867 326.706 80.8 323.773 80.8ZM325.213 72.48C327.399 72.48 329.293 72 330.893 71.04C332.546 70.0267 333.826 68.64 334.733 66.88C335.639 65.12 336.093 63.0933 336.093 60.8C336.093 58.5067 335.639 56.48 334.733 54.72C333.826 52.96 332.546 51.6 330.893 50.64C329.293 49.6267 327.399 49.12 325.213 49.12C323.079 49.12 321.186 49.6267 319.533 50.64C317.933 51.6 316.653 52.96 315.693 54.72C314.786 56.48 314.333 58.5067 314.333 60.8C314.333 63.0933 314.786 65.12 315.693 66.88C316.653 68.64 317.933 70.0267 319.533 71.04C321.186 72 323.079 72.48 325.213 72.48ZM344.333 80H335.533V69.68L337.053 60.32L335.533 51.04V22.4H344.333V80ZM371.939 80.8C368.099 80.8 364.632 79.9467 361.539 78.24C358.499 76.48 356.072 74.08 354.259 71.04C352.499 68 351.619 64.5867 351.619 60.8C351.619 57.0133 352.499 53.6267 354.259 50.64C356.019 47.6 358.392 45.2 361.379 43.44C364.419 41.68 367.779 40.8 371.459 40.8C375.032 40.8 378.179 41.6267 380.899 43.28C383.672 44.9333 385.832 47.2 387.379 50.08C388.979 52.96 389.779 56.24 389.779 59.92C389.779 60.56 389.725 61.2267 389.619 61.92C389.565 62.56 389.459 63.28 389.299 64.08H357.779V56.88H384.739L381.459 59.76C381.352 57.4133 380.899 55.44 380.099 53.84C379.299 52.24 378.152 51.0133 376.659 50.16C375.219 49.3067 373.432 48.88 371.299 48.88C369.059 48.88 367.112 49.36 365.459 50.32C363.805 51.28 362.525 52.64 361.619 54.4C360.712 56.1067 360.259 58.16 360.259 60.56C360.259 62.96 360.739 65.0667 361.699 66.88C362.659 68.6933 364.019 70.1067 365.779 71.12C367.539 72.08 369.565 72.56 371.859 72.56C373.832 72.56 375.645 72.2133 377.299 71.52C379.005 70.8267 380.445 69.8133 381.619 68.48L387.219 74.16C385.352 76.3467 383.085 78 380.419 79.12C377.752 80.24 374.925 80.8 371.939 80.8ZM433.409 80.8C430.475 80.8 427.862 80.1867 425.569 78.96C423.275 77.68 421.462 75.9467 420.129 73.76C418.849 71.5733 418.209 69.0933 418.209 66.32V55.28C418.209 52.5067 418.875 50.0267 420.209 47.84C421.542 45.6533 423.355 43.9467 425.649 42.72C427.942 41.44 430.529 40.8 433.409 40.8C436.875 40.8 439.995 41.7067 442.769 43.52C445.595 45.28 447.809 47.68 449.409 50.72C451.062 53.7067 451.889 57.0933 451.889 60.88C451.889 64.6133 451.062 68 449.409 71.04C447.809 74.0267 445.595 76.4 442.769 78.16C439.995 79.92 436.875 80.8 433.409 80.8ZM412.849 96V41.6H421.649V51.92L420.129 61.28L421.649 70.56V96H412.849ZM431.969 72.48C434.102 72.48 435.969 72 437.569 71.04C439.222 70.0267 440.502 68.64 441.409 66.88C442.369 65.12 442.849 63.0933 442.849 60.8C442.849 58.5067 442.369 56.48 441.409 54.72C440.502 52.96 439.222 51.6 437.569 50.64C435.969 49.6267 434.102 49.12 431.969 49.12C429.835 49.12 427.942 49.6267 426.289 50.64C424.635 51.6 423.355 52.96 422.449 54.72C421.542 56.48 421.089 58.5067 421.089 60.8C421.089 63.0933 421.542 65.12 422.449 66.88C423.355 68.64 424.635 70.0267 426.289 71.04C427.942 72 429.835 72.48 431.969 72.48ZM459.255 80V41.6H468.055V80H459.255ZM468.055 58.64L465.015 57.12C465.015 52.2667 466.082 48.3467 468.215 45.36C470.402 42.32 473.682 40.8 478.055 40.8C479.975 40.8 481.708 41.1467 483.255 41.84C484.802 42.5333 486.242 43.6533 487.575 45.2L481.815 51.12C481.122 50.3733 480.348 49.84 479.495 49.52C478.642 49.2 477.655 49.04 476.535 49.04C474.082 49.04 472.055 49.8133 470.455 51.36C468.855 52.9067 468.055 55.3333 468.055 58.64ZM508.261 80.8C504.528 80.8 501.141 79.92 498.101 78.16C495.061 76.3467 492.635 73.92 490.821 70.88C489.061 67.84 488.181 64.4533 488.181 60.72C488.181 56.9867 489.061 53.6267 490.821 50.64C492.635 47.6533 495.061 45.28 498.101 43.52C501.141 41.7067 504.528 40.8 508.261 40.8C512.048 40.8 515.461 41.68 518.501 43.44C521.541 45.2 523.941 47.6 525.701 50.64C527.515 53.6267 528.421 56.9867 528.421 60.72C528.421 64.4533 527.515 67.84 525.701 70.88C523.941 73.92 521.541 76.3467 518.501 78.16C515.461 79.92 512.048 80.8 508.261 80.8ZM508.261 72.32C510.448 72.32 512.368 71.84 514.021 70.88C515.728 69.8667 517.035 68.48 517.941 66.72C518.901 64.96 519.381 62.96 519.381 60.72C519.381 58.48 518.901 56.5067 517.941 54.8C516.981 53.0933 515.675 51.76 514.021 50.8C512.368 49.7867 510.448 49.28 508.261 49.28C506.128 49.28 504.208 49.7867 502.501 50.8C500.848 51.76 499.541 53.0933 498.581 54.8C497.675 56.5067 497.221 58.48 497.221 60.72C497.221 62.96 497.675 64.96 498.581 66.72C499.541 68.48 500.848 69.8667 502.501 70.88C504.208 71.84 506.128 72.32 508.261 72.32ZM539.926 80V36.56C539.926 33.6267 540.566 31.04 541.846 28.8C543.179 26.56 544.992 24.8 547.286 23.52C549.632 22.24 552.326 21.6 555.366 21.6C557.712 21.6 559.712 22 561.366 22.8C563.019 23.6 564.566 24.7467 566.006 26.24L560.326 31.92C559.686 31.28 558.992 30.7733 558.246 30.4C557.499 30.0267 556.539 29.84 555.366 29.84C553.232 29.84 551.579 30.4267 550.406 31.6C549.286 32.72 548.726 34.3467 548.726 36.48V80H539.926ZM530.726 49.6V41.6H560.326V49.6H530.726ZM582.798 80.8C578.958 80.8 575.491 79.9467 572.398 78.24C569.358 76.48 566.931 74.08 565.118 71.04C563.358 68 562.478 64.5867 562.478 60.8C562.478 57.0133 563.358 53.6267 565.118 50.64C566.878 47.6 569.251 45.2 572.238 43.44C575.278 41.68 578.638 40.8 582.318 40.8C585.891 40.8 589.038 41.6267 591.758 43.28C594.531 44.9333 596.691 47.2 598.238 50.08C599.838 52.96 600.638 56.24 600.638 59.92C600.638 60.56 600.585 61.2267 600.478 61.92C600.425 62.56 600.318 63.28 600.158 64.08H568.638V56.88H595.598L592.318 59.76C592.211 57.4133 591.758 55.44 590.958 53.84C590.158 52.24 589.011 51.0133 587.518 50.16C586.078 49.3067 584.291 48.88 582.158 48.88C579.918 48.88 577.971 49.36 576.318 50.32C574.665 51.28 573.385 52.64 572.478 54.4C571.571 56.1067 571.118 58.16 571.118 60.56C571.118 62.96 571.598 65.0667 572.558 66.88C573.518 68.6933 574.878 70.1067 576.638 71.12C578.398 72.08 580.425 72.56 582.718 72.56C584.691 72.56 586.505 72.2133 588.158 71.52C589.865 70.8267 591.305 69.8133 592.478 68.48L598.078 74.16C596.211 76.3467 593.945 78 591.278 79.12C588.611 80.24 585.785 80.8 582.798 80.8ZM620.253 80.8C618.119 80.8 616.066 80.5333 614.093 80C612.119 79.4133 610.306 78.6133 608.653 77.6C606.999 76.5333 605.559 75.2533 604.333 73.76L609.933 68.16C611.266 69.7067 612.786 70.88 614.493 71.68C616.253 72.4267 618.226 72.8 620.413 72.8C622.386 72.8 623.879 72.5067 624.893 71.92C625.906 71.3333 626.413 70.48 626.413 69.36C626.413 68.1867 625.933 67.28 624.973 66.64C624.013 66 622.759 65.4667 621.213 65.04C619.719 64.56 618.119 64.08 616.413 63.6C614.759 63.12 613.159 62.48 611.613 61.68C610.119 60.8267 608.893 59.68 607.933 58.24C606.973 56.8 606.493 54.9333 606.493 52.64C606.493 50.1867 607.053 48.08 608.173 46.32C609.346 44.56 610.973 43.2 613.053 42.24C615.186 41.28 617.719 40.8 620.653 40.8C623.746 40.8 626.466 41.36 628.813 42.48C631.213 43.5467 633.213 45.1733 634.813 47.36L629.213 52.96C628.093 51.5733 626.813 50.5333 625.373 49.84C623.933 49.1467 622.279 48.8 620.413 48.8C618.653 48.8 617.293 49.0667 616.333 49.6C615.373 50.1333 614.893 50.9067 614.893 51.92C614.893 52.9867 615.373 53.8133 616.333 54.4C617.293 54.9867 618.519 55.4933 620.013 55.92C621.559 56.3467 623.159 56.8267 624.813 57.36C626.519 57.84 628.119 58.5333 629.613 59.44C631.159 60.2933 632.413 61.4667 633.373 62.96C634.333 64.4 634.813 66.2933 634.813 68.64C634.813 72.3733 633.506 75.3333 630.893 77.52C628.279 79.7067 624.733 80.8 620.253 80.8ZM654.628 80.8C652.494 80.8 650.441 80.5333 648.468 80C646.494 79.4133 644.681 78.6133 643.028 77.6C641.374 76.5333 639.934 75.2533 638.708 73.76L644.308 68.16C645.641 69.7067 647.161 70.88 648.868 71.68C650.628 72.4267 652.601 72.8 654.788 72.8C656.761 72.8 658.254 72.5067 659.268 71.92C660.281 71.3333 660.788 70.48 660.788 69.36C660.788 68.1867 660.308 67.28 659.348 66.64C658.388 66 657.134 65.4667 655.588 65.04C654.094 64.56 652.494 64.08 650.788 63.6C649.134 63.12 647.534 62.48 645.988 61.68C644.494 60.8267 643.268 59.68 642.308 58.24C641.348 56.8 640.868 54.9333 640.868 52.64C640.868 50.1867 641.428 48.08 642.548 46.32C643.721 44.56 645.348 43.2 647.428 42.24C649.561 41.28 652.094 40.8 655.028 40.8C658.121 40.8 660.841 41.36 663.188 42.48C665.588 43.5467 667.588 45.1733 669.188 47.36L663.588 52.96C662.468 51.5733 661.188 50.5333 659.748 49.84C658.308 49.1467 656.654 48.8 654.788 48.8C653.028 48.8 651.668 49.0667 650.708 49.6C649.748 50.1333 649.268 50.9067 649.268 51.92C649.268 52.9867 649.748 53.8133 650.708 54.4C651.668 54.9867 652.894 55.4933 654.388 55.92C655.934 56.3467 657.534 56.8267 659.188 57.36C660.894 57.84 662.494 58.5333 663.988 59.44C665.534 60.2933 666.788 61.4667 667.748 62.96C668.708 64.4 669.188 66.2933 669.188 68.64C669.188 72.3733 667.881 75.3333 665.268 77.52C662.654 79.7067 659.108 80.8 654.628 80.8ZM694.043 80.8C690.309 80.8 686.923 79.92 683.883 78.16C680.843 76.3467 678.416 73.92 676.603 70.88C674.843 67.84 673.963 64.4533 673.963 60.72C673.963 56.9867 674.843 53.6267 676.603 50.64C678.416 47.6533 680.843 45.28 683.883 43.52C686.923 41.7067 690.309 40.8 694.043 40.8C697.829 40.8 701.243 41.68 704.283 43.44C707.323 45.2 709.723 47.6 711.483 50.64C713.296 53.6267 714.203 56.9867 714.203 60.72C714.203 64.4533 713.296 67.84 711.483 70.88C709.723 73.92 707.323 76.3467 704.283 78.16C701.243 79.92 697.829 80.8 694.043 80.8ZM694.043 72.32C696.229 72.32 698.149 71.84 699.803 70.88C701.509 69.8667 702.816 68.48 703.723 66.72C704.683 64.96 705.163 62.96 705.163 60.72C705.163 58.48 704.683 56.5067 703.723 54.8C702.763 53.0933 701.456 51.76 699.803 50.8C698.149 49.7867 696.229 49.28 694.043 49.28C691.909 49.28 689.989 49.7867 688.283 50.8C686.629 51.76 685.323 53.0933 684.363 54.8C683.456 56.5067 683.003 58.48 683.003 60.72C683.003 62.96 683.456 64.96 684.363 66.72C685.323 68.48 686.629 69.8667 688.283 70.88C689.989 71.84 691.909 72.32 694.043 72.32ZM721.521 80V41.6H730.321V80H721.521ZM730.321 58.64L727.281 57.12C727.281 52.2667 728.347 48.3467 730.481 45.36C732.667 42.32 735.947 40.8 740.321 40.8C742.241 40.8 743.974 41.1467 745.521 41.84C747.067 42.5333 748.507 43.6533 749.841 45.2L744.081 51.12C743.387 50.3733 742.614 49.84 741.761 49.52C740.907 49.2 739.921 49.04 738.801 49.04C736.347 49.04 734.321 49.8133 732.721 51.36C731.121 52.9067 730.321 55.3333 730.321 58.64ZM770.767 80.8C766.927 80.8 763.46 79.9467 760.367 78.24C757.327 76.48 754.9 74.08 753.087 71.04C751.327 68 750.447 64.5867 750.447 60.8C750.447 57.0133 751.327 53.6267 753.087 50.64C754.847 47.6 757.22 45.2 760.207 43.44C763.247 41.68 766.607 40.8 770.287 40.8C773.86 40.8 777.007 41.6267 779.727 43.28C782.5 44.9333 784.66 47.2 786.207 50.08C787.807 52.96 788.607 56.24 788.607 59.92C788.607 60.56 788.554 61.2267 788.447 61.92C788.394 62.56 788.287 63.28 788.127 64.08H756.607V56.88H783.567L780.287 59.76C780.18 57.4133 779.727 55.44 778.927 53.84C778.127 52.24 776.98 51.0133 775.487 50.16C774.047 49.3067 772.26 48.88 770.127 48.88C767.887 48.88 765.94 49.36 764.287 50.32C762.634 51.28 761.354 52.64 760.447 54.4C759.54 56.1067 759.087 58.16 759.087 60.56C759.087 62.96 759.567 65.0667 760.527 66.88C761.487 68.6933 762.847 70.1067 764.607 71.12C766.367 72.08 768.394 72.56 770.687 72.56C772.66 72.56 774.474 72.2133 776.127 71.52C777.834 70.8267 779.274 69.8133 780.447 68.48L786.047 74.16C784.18 76.3467 781.914 78 779.247 79.12C776.58 80.24 773.754 80.8 770.767 80.8ZM808.221 80.8C806.088 80.8 804.035 80.5333 802.061 80C800.088 79.4133 798.275 78.6133 796.621 77.6C794.968 76.5333 793.528 75.2533 792.301 73.76L797.901 68.16C799.235 69.7067 800.755 70.88 802.461 71.68C804.221 72.4267 806.195 72.8 808.381 72.8C810.355 72.8 811.848 72.5067 812.861 71.92C813.875 71.3333 814.381 70.48 814.381 69.36C814.381 68.1867 813.901 67.28 812.941 66.64C811.981 66 810.728 65.4667 809.181 65.04C807.688 64.56 806.088 64.08 804.381 63.6C802.728 63.12 801.128 62.48 799.581 61.68C798.088 60.8267 796.861 59.68 795.901 58.24C794.941 56.8 794.461 54.9333 794.461 52.64C794.461 50.1867 795.021 48.08 796.141 46.32C797.315 44.56 798.941 43.2 801.021 42.24C803.155 41.28 805.688 40.8 808.621 40.8C811.715 40.8 814.435 41.36 816.781 42.48C819.181 43.5467 821.181 45.1733 822.781 47.36L817.181 52.96C816.061 51.5733 814.781 50.5333 813.341 49.84C811.901 49.1467 810.248 48.8 808.381 48.8C806.621 48.8 805.261 49.0667 804.301 49.6C803.341 50.1333 802.861 50.9067 802.861 51.92C802.861 52.9867 803.341 53.8133 804.301 54.4C805.261 54.9867 806.488 55.4933 807.981 55.92C809.528 56.3467 811.128 56.8267 812.781 57.36C814.488 57.84 816.088 58.5333 817.581 59.44C819.128 60.2933 820.381 61.4667 821.341 62.96C822.301 64.4 822.781 66.2933 822.781 68.64C822.781 72.3733 821.475 75.3333 818.861 77.52C816.248 79.7067 812.701 80.8 808.221 80.8ZM866.612 80.8C863.679 80.8 861.065 80.1867 858.772 78.96C856.479 77.68 854.665 75.9467 853.332 73.76C852.052 71.5733 851.412 69.0933 851.412 66.32V55.28C851.412 52.5067 852.079 50.0267 853.412 47.84C854.745 45.6533 856.559 43.9467 858.852 42.72C861.145 41.44 863.732 40.8 866.612 40.8C870.079 40.8 873.199 41.7067 875.972 43.52C878.799 45.28 881.012 47.68 882.612 50.72C884.265 53.7067 885.092 57.0933 885.092 60.88C885.092 64.6133 884.265 68 882.612 71.04C881.012 74.0267 878.799 76.4 875.972 78.16C873.199 79.92 870.079 80.8 866.612 80.8ZM846.052 96V41.6H854.852V51.92L853.332 61.28L854.852 70.56V96H846.052ZM865.172 72.48C867.305 72.48 869.172 72 870.772 71.04C872.425 70.0267 873.705 68.64 874.612 66.88C875.572 65.12 876.052 63.0933 876.052 60.8C876.052 58.5067 875.572 56.48 874.612 54.72C873.705 52.96 872.425 51.6 870.772 50.64C869.172 49.6267 867.305 49.12 865.172 49.12C863.039 49.12 861.145 49.6267 859.492 50.64C857.839 51.6 856.559 52.96 855.652 54.72C854.745 56.48 854.292 58.5067 854.292 60.8C854.292 63.0933 854.745 65.12 855.652 66.88C856.559 68.64 857.839 70.0267 859.492 71.04C861.145 72 863.039 72.48 865.172 72.48ZM910.058 80.8C906.325 80.8 902.938 79.92 899.898 78.16C896.858 76.3467 894.431 73.92 892.618 70.88C890.858 67.84 889.978 64.4533 889.978 60.72C889.978 56.9867 890.858 53.6267 892.618 50.64C894.431 47.6533 896.858 45.28 899.898 43.52C902.938 41.7067 906.325 40.8 910.058 40.8C913.845 40.8 917.258 41.68 920.298 43.44C923.338 45.2 925.738 47.6 927.498 50.64C929.311 53.6267 930.218 56.9867 930.218 60.72C930.218 64.4533 929.311 67.84 927.498 70.88C925.738 73.92 923.338 76.3467 920.298 78.16C917.258 79.92 913.845 80.8 910.058 80.8ZM910.058 72.32C912.245 72.32 914.165 71.84 915.818 70.88C917.525 69.8667 918.831 68.48 919.738 66.72C920.698 64.96 921.178 62.96 921.178 60.72C921.178 58.48 920.698 56.5067 919.738 54.8C918.778 53.0933 917.471 51.76 915.818 50.8C914.165 49.7867 912.245 49.28 910.058 49.28C907.925 49.28 906.005 49.7867 904.298 50.8C902.645 51.76 901.338 53.0933 900.378 54.8C899.471 56.5067 899.018 58.48 899.018 60.72C899.018 62.96 899.471 64.96 900.378 66.72C901.338 68.48 902.645 69.8667 904.298 70.88C906.005 71.84 907.925 72.32 910.058 72.32ZM937.536 80V41.6H946.336V80H937.536ZM946.336 58.64L943.296 57.12C943.296 52.2667 944.363 48.3467 946.496 45.36C948.683 42.32 951.963 40.8 956.336 40.8C958.256 40.8 959.99 41.1467 961.536 41.84C963.083 42.5333 964.523 43.6533 965.856 45.2L960.096 51.12C959.403 50.3733 958.63 49.84 957.776 49.52C956.923 49.2 955.936 49.04 954.816 49.04C952.363 49.04 950.336 49.8133 948.736 51.36C947.136 52.9067 946.336 55.3333 946.336 58.64ZM1005.38 80.8C1001.54 80.8 998.07 79.9467 994.976 78.24C991.936 76.48 989.51 74.08 987.696 71.04C985.936 68 985.056 64.5867 985.056 60.8C985.056 57.0133 985.936 53.6267 987.696 50.64C989.456 47.6 991.83 45.2 994.816 43.44C997.856 41.68 1001.22 40.8 1004.9 40.8C1008.47 40.8 1011.62 41.6267 1014.34 43.28C1017.11 44.9333 1019.27 47.2 1020.82 50.08C1022.42 52.96 1023.22 56.24 1023.22 59.92C1023.22 60.56 1023.16 61.2267 1023.06 61.92C1023 62.56 1022.9 63.28 1022.74 64.08H991.216V56.88H1018.18L1014.9 59.76C1014.79 57.4133 1014.34 55.44 1013.54 53.84C1012.74 52.24 1011.59 51.0133 1010.1 50.16C1008.66 49.3067 1006.87 48.88 1004.74 48.88C1002.5 48.88 1000.55 49.36 998.896 50.32C997.243 51.28 995.963 52.64 995.056 54.4C994.15 56.1067 993.696 58.16 993.696 60.56C993.696 62.96 994.176 65.0667 995.136 66.88C996.096 68.6933 997.456 70.1067 999.216 71.12C1000.98 72.08 1003 72.56 1005.3 72.56C1007.27 72.56 1009.08 72.2133 1010.74 71.52C1012.44 70.8267 1013.88 69.8133 1015.06 68.48L1020.66 74.16C1018.79 76.3467 1016.52 78 1013.86 79.12C1011.19 80.24 1008.36 80.8 1005.38 80.8ZM1042.83 80.8C1040.7 80.8 1038.64 80.5333 1036.67 80C1034.7 79.4133 1032.88 78.6133 1031.23 77.6C1029.58 76.5333 1028.14 75.2533 1026.91 73.76L1032.51 68.16C1033.84 69.7067 1035.36 70.88 1037.07 71.68C1038.83 72.4267 1040.8 72.8 1042.99 72.8C1044.96 72.8 1046.46 72.5067 1047.47 71.92C1048.48 71.3333 1048.99 70.48 1048.99 69.36C1048.99 68.1867 1048.51 67.28 1047.55 66.64C1046.59 66 1045.34 65.4667 1043.79 65.04C1042.3 64.56 1040.7 64.08 1038.99 63.6C1037.34 63.12 1035.74 62.48 1034.19 61.68C1032.7 60.8267 1031.47 59.68 1030.51 58.24C1029.55 56.8 1029.07 54.9333 1029.07 52.64C1029.07 50.1867 1029.63 48.08 1030.75 46.32C1031.92 44.56 1033.55 43.2 1035.63 42.24C1037.76 41.28 1040.3 40.8 1043.23 40.8C1046.32 40.8 1049.04 41.36 1051.39 42.48C1053.79 43.5467 1055.79 45.1733 1057.39 47.36L1051.79 52.96C1050.67 51.5733 1049.39 50.5333 1047.95 49.84C1046.51 49.1467 1044.86 48.8 1042.99 48.8C1041.23 48.8 1039.87 49.0667 1038.91 49.6C1037.95 50.1333 1037.47 50.9067 1037.47 51.92C1037.47 52.9867 1037.95 53.8133 1038.91 54.4C1039.87 54.9867 1041.1 55.4933 1042.59 55.92C1044.14 56.3467 1045.74 56.8267 1047.39 57.36C1049.1 57.84 1050.7 58.5333 1052.19 59.44C1053.74 60.2933 1054.99 61.4667 1055.95 62.96C1056.91 64.4 1057.39 66.2933 1057.39 68.64C1057.39 72.3733 1056.08 75.3333 1053.47 77.52C1050.86 79.7067 1047.31 80.8 1042.83 80.8ZM1082.33 80.8C1078.54 80.8 1075.1 79.92 1072.01 78.16C1068.97 76.4 1066.57 74 1064.81 70.96C1063.05 67.92 1062.17 64.5333 1062.17 60.8C1062.17 57.0133 1063.05 53.6267 1064.81 50.64C1066.57 47.6 1068.97 45.2 1072.01 43.44C1075.1 41.68 1078.54 40.8 1082.33 40.8C1085.31 40.8 1088.09 41.3867 1090.65 42.56C1093.26 43.68 1095.47 45.3067 1097.29 47.44L1091.53 53.28C1090.41 51.9467 1089.05 50.96 1087.45 50.32C1085.9 49.6267 1084.19 49.28 1082.33 49.28C1080.14 49.28 1078.19 49.7867 1076.49 50.8C1074.83 51.76 1073.53 53.0933 1072.57 54.8C1071.66 56.5067 1071.21 58.5067 1071.21 60.8C1071.21 63.04 1071.66 65.04 1072.57 66.8C1073.53 68.5067 1074.83 69.8667 1076.49 70.88C1078.19 71.84 1080.14 72.32 1082.33 72.32C1084.19 72.32 1085.9 72 1087.45 71.36C1089.05 70.6667 1090.41 69.6533 1091.53 68.32L1097.29 74.16C1095.47 76.2933 1093.26 77.9467 1090.65 79.12C1088.09 80.24 1085.31 80.8 1082.33 80.8ZM1120.45 80.8C1116.72 80.8 1113.33 79.92 1110.29 78.16C1107.25 76.3467 1104.82 73.92 1103.01 70.88C1101.25 67.84 1100.37 64.4533 1100.37 60.72C1100.37 56.9867 1101.25 53.6267 1103.01 50.64C1104.82 47.6533 1107.25 45.28 1110.29 43.52C1113.33 41.7067 1116.72 40.8 1120.45 40.8C1124.24 40.8 1127.65 41.68 1130.69 43.44C1133.73 45.2 1136.13 47.6 1137.89 50.64C1139.7 53.6267 1140.61 56.9867 1140.61 60.72C1140.61 64.4533 1139.7 67.84 1137.89 70.88C1136.13 73.92 1133.73 76.3467 1130.69 78.16C1127.65 79.92 1124.24 80.8 1120.45 80.8ZM1120.45 72.32C1122.64 72.32 1124.56 71.84 1126.21 70.88C1127.92 69.8667 1129.22 68.48 1130.13 66.72C1131.09 64.96 1131.57 62.96 1131.57 60.72C1131.57 58.48 1131.09 56.5067 1130.13 54.8C1129.17 53.0933 1127.86 51.76 1126.21 50.8C1124.56 49.7867 1122.64 49.28 1120.45 49.28C1118.32 49.28 1116.4 49.7867 1114.69 50.8C1113.04 51.76 1111.73 53.0933 1110.77 54.8C1109.86 56.5067 1109.41 58.48 1109.41 60.72C1109.41 62.96 1109.86 64.96 1110.77 66.72C1111.73 68.48 1113.04 69.8667 1114.69 70.88C1116.4 71.84 1118.32 72.32 1120.45 72.32ZM1147.93 80V22.4H1156.73V80H1147.93ZM1182.6 80.8C1179.13 80.8 1175.99 79.92 1173.16 78.16C1170.39 76.4 1168.17 74.0267 1166.52 71.04C1164.92 68 1164.12 64.6133 1164.12 60.88C1164.12 57.0933 1164.92 53.7067 1166.52 50.72C1168.17 47.68 1170.39 45.28 1173.16 43.52C1175.99 41.7067 1179.13 40.8 1182.6 40.8C1185.53 40.8 1188.12 41.44 1190.36 42.72C1192.65 43.9467 1194.47 45.6533 1195.8 47.84C1197.13 50.0267 1197.8 52.5067 1197.8 55.28V66.32C1197.8 69.0933 1197.13 71.5733 1195.8 73.76C1194.52 75.9467 1192.73 77.68 1190.44 78.96C1188.15 80.1867 1185.53 80.8 1182.6 80.8ZM1184.04 72.48C1187.29 72.48 1189.91 71.3867 1191.88 69.2C1193.91 67.0133 1194.92 64.2133 1194.92 60.8C1194.92 58.5067 1194.47 56.48 1193.56 54.72C1192.65 52.96 1191.37 51.6 1189.72 50.64C1188.12 49.6267 1186.23 49.12 1184.04 49.12C1181.91 49.12 1180.01 49.6267 1178.36 50.64C1176.76 51.6 1175.48 52.96 1174.52 54.72C1173.61 56.48 1173.16 58.5067 1173.16 60.8C1173.16 63.0933 1173.61 65.12 1174.52 66.88C1175.48 68.64 1176.76 70.0267 1178.36 71.04C1180.01 72 1181.91 72.48 1184.04 72.48ZM1194.36 80V69.68L1195.88 60.32L1194.36 51.04V41.6H1203.16V80H1194.36ZM1212.93 80V41.6H1221.73V80H1212.93ZM1221.73 58.64L1218.69 57.12C1218.69 52.2667 1219.75 48.3467 1221.89 45.36C1224.07 42.32 1227.35 40.8 1231.73 40.8C1233.65 40.8 1235.38 41.1467 1236.93 41.84C1238.47 42.5333 1239.91 43.6533 1241.25 45.2L1235.49 51.12C1234.79 50.3733 1234.02 49.84 1233.17 49.52C1232.31 49.2 1231.33 49.04 1230.21 49.04C1227.75 49.04 1225.73 49.8133 1224.13 51.36C1222.53 52.9067 1221.73 55.3333 1221.73 58.64ZM1245.59 80V41.6H1254.39V80H1245.59ZM1249.99 34.56C1248.49 34.56 1247.24 34.0533 1246.23 33.04C1245.27 32.0267 1244.79 30.7733 1244.79 29.28C1244.79 27.7867 1245.27 26.5333 1246.23 25.52C1247.24 24.5067 1248.49 24 1249.99 24C1251.53 24 1252.79 24.5067 1253.75 25.52C1254.71 26.5333 1255.19 27.7867 1255.19 29.28C1255.19 30.7733 1254.71 32.0267 1253.75 33.04C1252.79 34.0533 1251.53 34.56 1249.99 34.56ZM1280.34 80.8C1276.87 80.8 1273.72 79.92 1270.9 78.16C1268.12 76.4 1265.91 74.0267 1264.26 71.04C1262.66 68 1261.86 64.6133 1261.86 60.88C1261.86 57.0933 1262.66 53.7067 1264.26 50.72C1265.91 47.68 1268.12 45.28 1270.9 43.52C1273.72 41.7067 1276.87 40.8 1280.34 40.8C1283.27 40.8 1285.86 41.44 1288.1 42.72C1290.39 43.9467 1292.2 45.6533 1293.54 47.84C1294.87 50.0267 1295.54 52.5067 1295.54 55.28V66.32C1295.54 69.0933 1294.87 71.5733 1293.54 73.76C1292.26 75.9467 1290.47 77.68 1288.18 78.96C1285.88 80.1867 1283.27 80.8 1280.34 80.8ZM1281.78 72.48C1283.96 72.48 1285.86 72 1287.46 71.04C1289.11 70.0267 1290.39 68.64 1291.3 66.88C1292.2 65.12 1292.66 63.0933 1292.66 60.8C1292.66 58.5067 1292.2 56.48 1291.3 54.72C1290.39 52.96 1289.11 51.6 1287.46 50.64C1285.86 49.6267 1283.96 49.12 1281.78 49.12C1279.64 49.12 1277.75 49.6267 1276.1 50.64C1274.5 51.6 1273.22 52.96 1272.26 54.72C1271.35 56.48 1270.9 58.5067 1270.9 60.8C1270.9 63.0933 1271.35 65.12 1272.26 66.88C1273.22 68.64 1274.5 70.0267 1276.1 71.04C1277.75 72 1279.64 72.48 1281.78 72.48ZM1300.9 80H1292.1V69.68L1293.62 60.32L1292.1 51.04V22.4H1300.9V80ZM1326.74 80.8C1323.27 80.8 1320.13 79.92 1317.3 78.16C1314.53 76.4 1312.31 74.0267 1310.66 71.04C1309.06 68 1308.26 64.6133 1308.26 60.88C1308.26 57.0933 1309.06 53.7067 1310.66 50.72C1312.31 47.68 1314.53 45.28 1317.3 43.52C1320.13 41.7067 1323.27 40.8 1326.74 40.8C1329.67 40.8 1332.26 41.44 1334.5 42.72C1336.79 43.9467 1338.61 45.6533 1339.94 47.84C1341.27 50.0267 1341.94 52.5067 1341.94 55.28V66.32C1341.94 69.0933 1341.27 71.5733 1339.94 73.76C1338.66 75.9467 1336.87 77.68 1334.58 78.96C1332.29 80.1867 1329.67 80.8 1326.74 80.8ZM1328.18 72.48C1331.43 72.48 1334.05 71.3867 1336.02 69.2C1338.05 67.0133 1339.06 64.2133 1339.06 60.8C1339.06 58.5067 1338.61 56.48 1337.7 54.72C1336.79 52.96 1335.51 51.6 1333.86 50.64C1332.26 49.6267 1330.37 49.12 1328.18 49.12C1326.05 49.12 1324.15 49.6267 1322.5 50.64C1320.9 51.6 1319.62 52.96 1318.66 54.72C1317.75 56.48 1317.3 58.5067 1317.3 60.8C1317.3 63.0933 1317.75 65.12 1318.66 66.88C1319.62 68.64 1320.9 70.0267 1322.5 71.04C1324.15 72 1326.05 72.48 1328.18 72.48ZM1338.5 80V69.68L1340.02 60.32L1338.5 51.04V41.6H1347.3V80H1338.5ZM1373.15 80.8C1369.68 80.8 1366.53 79.92 1363.71 78.16C1360.93 76.4 1358.72 74.0267 1357.07 71.04C1355.47 68 1354.67 64.6133 1354.67 60.88C1354.67 57.0933 1355.47 53.7067 1357.07 50.72C1358.72 47.68 1360.93 45.28 1363.71 43.52C1366.53 41.7067 1369.68 40.8 1373.15 40.8C1376.08 40.8 1378.67 41.44 1380.91 42.72C1383.2 43.9467 1385.01 45.6533 1386.35 47.84C1387.68 50.0267 1388.35 52.5067 1388.35 55.28V66.32C1388.35 69.0933 1387.68 71.5733 1386.35 73.76C1385.07 75.9467 1383.28 77.68 1380.99 78.96C1378.69 80.1867 1376.08 80.8 1373.15 80.8ZM1374.59 72.48C1376.77 72.48 1378.67 72 1380.27 71.04C1381.92 70.0267 1383.2 68.64 1384.11 66.88C1385.01 65.12 1385.47 63.0933 1385.47 60.8C1385.47 58.5067 1385.01 56.48 1384.11 54.72C1383.2 52.96 1381.92 51.6 1380.27 50.64C1378.67 49.6267 1376.77 49.12 1374.59 49.12C1372.45 49.12 1370.56 49.6267 1368.91 50.64C1367.31 51.6 1366.03 52.96 1365.07 54.72C1364.16 56.48 1363.71 58.5067 1363.71 60.8C1363.71 63.0933 1364.16 65.12 1365.07 66.88C1366.03 68.64 1367.31 70.0267 1368.91 71.04C1370.56 72 1372.45 72.48 1374.59 72.48ZM1393.71 80H1384.91V69.68L1386.43 60.32L1384.91 51.04V22.4H1393.71V80ZM1421.31 80.8C1417.47 80.8 1414.01 79.9467 1410.91 78.24C1407.87 76.48 1405.45 74.08 1403.63 71.04C1401.87 68 1400.99 64.5867 1400.99 60.8C1400.99 57.0133 1401.87 53.6267 1403.63 50.64C1405.39 47.6 1407.77 45.2 1410.75 43.44C1413.79 41.68 1417.15 40.8 1420.83 40.8C1424.41 40.8 1427.55 41.6267 1430.27 43.28C1433.05 44.9333 1435.21 47.2 1436.75 50.08C1438.35 52.96 1439.15 56.24 1439.15 59.92C1439.15 60.56 1439.1 61.2267 1438.99 61.92C1438.94 62.56 1438.83 63.28 1438.67 64.08H1407.15V56.88H1434.11L1430.83 59.76C1430.73 57.4133 1430.27 55.44 1429.47 53.84C1428.67 52.24 1427.53 51.0133 1426.03 50.16C1424.59 49.3067 1422.81 48.88 1420.67 48.88C1418.43 48.88 1416.49 49.36 1414.83 50.32C1413.18 51.28 1411.9 52.64 1410.99 54.4C1410.09 56.1067 1409.63 58.16 1409.63 60.56C1409.63 62.96 1410.11 65.0667 1411.07 66.88C1412.03 68.6933 1413.39 70.1067 1415.15 71.12C1416.91 72.08 1418.94 72.56 1421.23 72.56C1423.21 72.56 1425.02 72.2133 1426.67 71.52C1428.38 70.8267 1429.82 69.8133 1430.99 68.48L1436.59 74.16C1434.73 76.3467 1432.46 78 1429.79 79.12C1427.13 80.24 1424.3 80.8 1421.31 80.8ZM1488.54 80V57.84C1488.54 55.28 1487.72 53.1733 1486.06 51.52C1484.46 49.8667 1482.38 49.04 1479.82 49.04C1478.12 49.04 1476.6 49.4133 1475.26 50.16C1473.93 50.9067 1472.89 51.9467 1472.14 53.28C1471.4 54.6133 1471.02 56.1333 1471.02 57.84L1467.58 55.92C1467.58 52.9867 1468.22 50.4 1469.5 48.16C1470.78 45.8667 1472.54 44.08 1474.78 42.8C1477.08 41.4667 1479.64 40.8 1482.46 40.8C1485.34 40.8 1487.9 41.5467 1490.14 43.04C1492.38 44.48 1494.14 46.3733 1495.42 48.72C1496.7 51.0133 1497.34 53.4133 1497.34 55.92V80H1488.54ZM1462.22 80V41.6H1471.02V80H1462.22ZM1522.37 80.8C1518.9 80.8 1515.75 79.92 1512.93 78.16C1510.15 76.4 1507.94 74.0267 1506.29 71.04C1504.69 68 1503.89 64.6133 1503.89 60.88C1503.89 57.0933 1504.69 53.7067 1506.29 50.72C1507.94 47.68 1510.15 45.28 1512.93 43.52C1515.75 41.7067 1518.9 40.8 1522.37 40.8C1525.3 40.8 1527.89 41.44 1530.13 42.72C1532.42 43.9467 1534.23 45.6533 1535.57 47.84C1536.9 50.0267 1537.57 52.5067 1537.57 55.28V66.32C1537.57 69.0933 1536.9 71.5733 1535.57 73.76C1534.29 75.9467 1532.5 77.68 1530.21 78.96C1527.91 80.1867 1525.3 80.8 1522.37 80.8ZM1523.81 72.48C1527.06 72.48 1529.67 71.3867 1531.65 69.2C1533.67 67.0133 1534.69 64.2133 1534.69 60.8C1534.69 58.5067 1534.23 56.48 1533.33 54.72C1532.42 52.96 1531.14 51.6 1529.49 50.64C1527.89 49.6267 1525.99 49.12 1523.81 49.12C1521.67 49.12 1519.78 49.6267 1518.13 50.64C1516.53 51.6 1515.25 52.96 1514.29 54.72C1513.38 56.48 1512.93 58.5067 1512.93 60.8C1512.93 63.0933 1513.38 65.12 1514.29 66.88C1515.25 68.64 1516.53 70.0267 1518.13 71.04C1519.78 72 1521.67 72.48 1523.81 72.48ZM1534.13 80V69.68L1535.65 60.32L1534.13 51.04V41.6H1542.93V80H1534.13ZM1569.91 80V24H1579.11V80H1569.91ZM1576.23 80V71.6H1607.59V80H1576.23ZM1576.23 55.44V47.36H1604.87V55.44H1576.23ZM1576.23 32.4V24H1607.19V32.4H1576.23ZM1631.35 80.8C1627.88 80.8 1624.74 79.92 1621.91 78.16C1619.14 76.4 1616.92 74.0267 1615.27 71.04C1613.67 68 1612.87 64.6133 1612.87 60.88C1612.87 57.0933 1613.67 53.7067 1615.27 50.72C1616.92 47.68 1619.14 45.28 1621.91 43.52C1624.74 41.7067 1627.88 40.8 1631.35 40.8C1634.28 40.8 1636.87 41.44 1639.11 42.72C1641.4 43.9467 1643.22 45.6533 1644.55 47.84C1645.88 50.0267 1646.55 52.5067 1646.55 55.28V66.32C1646.55 69.0933 1645.88 71.5733 1644.55 73.76C1643.27 75.9467 1641.48 77.68 1639.19 78.96C1636.9 80.1867 1634.28 80.8 1631.35 80.8ZM1632.79 72.48C1634.98 72.48 1636.87 72 1638.47 71.04C1640.12 70.0267 1641.4 68.64 1642.31 66.88C1643.22 65.12 1643.67 63.0933 1643.67 60.8C1643.67 58.5067 1643.22 56.48 1642.31 54.72C1641.4 52.96 1640.12 51.6 1638.47 50.64C1636.87 49.6267 1634.98 49.12 1632.79 49.12C1630.66 49.12 1628.76 49.6267 1627.11 50.64C1625.51 51.6 1624.23 52.96 1623.27 54.72C1622.36 56.48 1621.91 58.5067 1621.91 60.8C1621.91 63.0933 1622.36 65.12 1623.27 66.88C1624.23 68.64 1625.51 70.0267 1627.11 71.04C1628.76 72 1630.66 72.48 1632.79 72.48ZM1651.91 80H1643.11V69.68L1644.63 60.32L1643.11 51.04V22.4H1651.91V80ZM1677.44 80.8C1674.18 80.8 1671.28 80.08 1668.72 78.64C1666.21 77.2 1664.24 75.2267 1662.8 72.72C1661.41 70.16 1660.72 67.2267 1660.72 63.92V41.6H1669.52V63.52C1669.52 65.3867 1669.81 66.9867 1670.4 68.32C1671.04 69.6 1671.94 70.5867 1673.12 71.28C1674.34 71.9733 1675.78 72.32 1677.44 72.32C1680 72.32 1681.94 71.5733 1683.28 70.08C1684.66 68.5333 1685.36 66.3467 1685.36 63.52V41.6H1694.16V63.92C1694.16 67.28 1693.44 70.24 1692 72.8C1690.61 75.3067 1688.66 77.28 1686.16 78.72C1683.65 80.1067 1680.74 80.8 1677.44 80.8ZM1720.69 80.8C1716.9 80.8 1713.46 79.92 1710.37 78.16C1707.33 76.4 1704.93 74 1703.17 70.96C1701.41 67.92 1700.53 64.5333 1700.53 60.8C1700.53 57.0133 1701.41 53.6267 1703.17 50.64C1704.93 47.6 1707.33 45.2 1710.37 43.44C1713.46 41.68 1716.9 40.8 1720.69 40.8C1723.67 40.8 1726.45 41.3867 1729.01 42.56C1731.62 43.68 1733.83 45.3067 1735.65 47.44L1729.89 53.28C1728.77 51.9467 1727.41 50.96 1725.81 50.32C1724.26 49.6267 1722.55 49.28 1720.69 49.28C1718.5 49.28 1716.55 49.7867 1714.85 50.8C1713.19 51.76 1711.89 53.0933 1710.93 54.8C1710.02 56.5067 1709.57 58.5067 1709.57 60.8C1709.57 63.04 1710.02 65.04 1710.93 66.8C1711.89 68.5067 1713.19 69.8667 1714.85 70.88C1716.55 71.84 1718.5 72.32 1720.69 72.32C1722.55 72.32 1724.26 72 1725.81 71.36C1727.41 70.6667 1728.77 69.6533 1729.89 68.32L1735.65 74.16C1733.83 76.2933 1731.62 77.9467 1729.01 79.12C1726.45 80.24 1723.67 80.8 1720.69 80.8ZM1757.29 80.8C1753.82 80.8 1750.67 79.92 1747.85 78.16C1745.07 76.4 1742.86 74.0267 1741.21 71.04C1739.61 68 1738.81 64.6133 1738.81 60.88C1738.81 57.0933 1739.61 53.7067 1741.21 50.72C1742.86 47.68 1745.07 45.28 1747.85 43.52C1750.67 41.7067 1753.82 40.8 1757.29 40.8C1760.22 40.8 1762.81 41.44 1765.05 42.72C1767.34 43.9467 1769.15 45.6533 1770.49 47.84C1771.82 50.0267 1772.49 52.5067 1772.49 55.28V66.32C1772.49 69.0933 1771.82 71.5733 1770.49 73.76C1769.21 75.9467 1767.42 77.68 1765.13 78.96C1762.83 80.1867 1760.22 80.8 1757.29 80.8ZM1758.73 72.48C1761.98 72.48 1764.59 71.3867 1766.57 69.2C1768.59 67.0133 1769.61 64.2133 1769.61 60.8C1769.61 58.5067 1769.15 56.48 1768.25 54.72C1767.34 52.96 1766.06 51.6 1764.41 50.64C1762.81 49.6267 1760.91 49.12 1758.73 49.12C1756.59 49.12 1754.7 49.6267 1753.05 50.64C1751.45 51.6 1750.17 52.96 1749.21 54.72C1748.3 56.48 1747.85 58.5067 1747.85 60.8C1747.85 63.0933 1748.3 65.12 1749.21 66.88C1750.17 68.64 1751.45 70.0267 1753.05 71.04C1754.7 72 1756.59 72.48 1758.73 72.48ZM1769.05 80V69.68L1770.57 60.32L1769.05 51.04V41.6H1777.85V80H1769.05ZM1805.29 80.8C1801.51 80.8 1798.07 79.92 1794.97 78.16C1791.93 76.4 1789.53 74 1787.77 70.96C1786.01 67.92 1785.13 64.5333 1785.13 60.8C1785.13 57.0133 1786.01 53.6267 1787.77 50.64C1789.53 47.6 1791.93 45.2 1794.97 43.44C1798.07 41.68 1801.51 40.8 1805.29 40.8C1808.28 40.8 1811.05 41.3867 1813.61 42.56C1816.23 43.68 1818.44 45.3067 1820.25 47.44L1814.49 53.28C1813.37 51.9467 1812.01 50.96 1810.41 50.32C1808.87 49.6267 1807.16 49.28 1805.29 49.28C1803.11 49.28 1801.16 49.7867 1799.45 50.8C1797.8 51.76 1796.49 53.0933 1795.53 54.8C1794.63 56.5067 1794.17 58.5067 1794.17 60.8C1794.17 63.04 1794.63 65.04 1795.53 66.8C1796.49 68.5067 1797.8 69.8667 1799.45 70.88C1801.16 71.84 1803.11 72.32 1805.29 72.32C1807.16 72.32 1808.87 72 1810.41 71.36C1812.01 70.6667 1813.37 69.6533 1814.49 68.32L1820.25 74.16C1818.44 76.2933 1816.23 77.9467 1813.61 79.12C1811.05 80.24 1808.28 80.8 1805.29 80.8ZM1802.81 96.8C1800.84 96.8 1799.11 96.56 1797.61 96.08C1796.12 95.6 1794.68 94.9067 1793.29 94L1796.89 89.44C1797.48 89.9733 1798.2 90.4 1799.05 90.72C1799.91 91.0933 1800.95 91.28 1802.17 91.28C1803.56 91.28 1804.55 91.0933 1805.13 90.72C1805.77 90.3467 1806.09 89.8933 1806.09 89.36C1806.09 88.7733 1805.8 88.24 1805.21 87.76C1804.68 87.3333 1803.8 87.12 1802.57 87.12H1798.41L1801.05 78.88H1807.45L1805.53 84.64L1802.33 82.24C1805.64 82.1333 1808.31 82.7733 1810.33 84.16C1812.36 85.6 1813.37 87.3867 1813.37 89.52C1813.37 91.6 1812.39 93.3333 1810.41 94.72C1808.49 96.1067 1805.96 96.8 1802.81 96.8ZM1841.9 80.8C1838.43 80.8 1835.28 79.92 1832.46 78.16C1829.68 76.4 1827.47 74.0267 1825.82 71.04C1824.22 68 1823.42 64.6133 1823.42 60.88C1823.42 57.0933 1824.22 53.7067 1825.82 50.72C1827.47 47.68 1829.68 45.28 1832.46 43.52C1835.28 41.7067 1838.43 40.8 1841.9 40.8C1844.83 40.8 1847.42 41.44 1849.66 42.72C1851.95 43.9467 1853.76 45.6533 1855.1 47.84C1856.43 50.0267 1857.1 52.5067 1857.1 55.28V66.32C1857.1 69.0933 1856.43 71.5733 1855.1 73.76C1853.82 75.9467 1852.03 77.68 1849.74 78.96C1847.44 80.1867 1844.83 80.8 1841.9 80.8ZM1843.34 72.48C1846.59 72.48 1849.2 71.3867 1851.18 69.2C1853.2 67.0133 1854.22 64.2133 1854.22 60.8C1854.22 58.5067 1853.76 56.48 1852.86 54.72C1851.95 52.96 1850.67 51.6 1849.02 50.64C1847.42 49.6267 1845.52 49.12 1843.34 49.12C1841.2 49.12 1839.31 49.6267 1837.66 50.64C1836.06 51.6 1834.78 52.96 1833.82 54.72C1832.91 56.48 1832.46 58.5067 1832.46 60.8C1832.46 63.0933 1832.91 65.12 1833.82 66.88C1834.78 68.64 1836.06 70.0267 1837.66 71.04C1839.31 72 1841.2 72.48 1843.34 72.48ZM1853.66 80V69.68L1855.18 60.32L1853.66 51.04V41.6H1862.46V80H1853.66ZM1849.9 36.08C1848.14 36.08 1846.64 35.76 1845.42 35.12C1844.19 34.48 1843.04 33.8667 1841.98 33.28C1840.96 32.64 1839.82 32.32 1838.54 32.32C1837.2 32.32 1836.14 32.56 1835.34 33.04C1834.54 33.52 1833.76 34.24 1833.02 35.2L1828.3 30.48C1829.84 28.72 1831.39 27.3333 1832.94 26.32C1834.48 25.2533 1836.3 24.72 1838.38 24.72C1840.14 24.72 1841.63 25.04 1842.86 25.68C1844.08 26.2667 1845.23 26.88 1846.3 27.52C1847.36 28.16 1848.51 28.48 1849.74 28.48C1851.12 28.48 1852.22 28.24 1853.02 27.76C1853.82 27.28 1854.56 26.56 1855.26 25.6L1859.98 30.32C1858.43 32.08 1856.88 33.4933 1855.34 34.56C1853.79 35.5733 1851.98 36.08 1849.9 36.08ZM1889.82 80.8C1886.09 80.8 1882.7 79.92 1879.66 78.16C1876.62 76.3467 1874.2 73.92 1872.38 70.88C1870.62 67.84 1869.74 64.4533 1869.74 60.72C1869.74 56.9867 1870.62 53.6267 1872.38 50.64C1874.2 47.6533 1876.62 45.28 1879.66 43.52C1882.7 41.7067 1886.09 40.8 1889.82 40.8C1893.61 40.8 1897.02 41.68 1900.06 43.44C1903.1 45.2 1905.5 47.6 1907.26 50.64C1909.08 53.6267 1909.98 56.9867 1909.98 60.72C1909.98 64.4533 1909.08 67.84 1907.26 70.88C1905.5 73.92 1903.1 76.3467 1900.06 78.16C1897.02 79.92 1893.61 80.8 1889.82 80.8ZM1889.82 72.32C1892.01 72.32 1893.93 71.84 1895.58 70.88C1897.29 69.8667 1898.6 68.48 1899.5 66.72C1900.46 64.96 1900.94 62.96 1900.94 60.72C1900.94 58.48 1900.46 56.5067 1899.5 54.8C1898.54 53.0933 1897.24 51.76 1895.58 50.8C1893.93 49.7867 1892.01 49.28 1889.82 49.28C1887.69 49.28 1885.77 49.7867 1884.06 50.8C1882.41 51.76 1881.1 53.0933 1880.14 54.8C1879.24 56.5067 1878.78 58.48 1878.78 60.72C1878.78 62.96 1879.24 64.96 1880.14 66.72C1881.1 68.48 1882.41 69.8667 1884.06 70.88C1885.77 71.84 1887.69 72.32 1889.82 72.32ZM1940.84 80V72H1956.92C1959.74 72 1961.93 71.12 1963.48 69.36C1965.02 67.6 1965.8 65.5733 1965.8 63.28C1965.8 61.7333 1965.45 60.2933 1964.76 58.96C1964.06 57.6267 1963.05 56.56 1961.72 55.76C1960.38 54.96 1958.78 54.56 1956.92 54.56H1940.84V46.56H1955.56C1957.96 46.56 1959.88 45.9467 1961.32 44.72C1962.76 43.4933 1963.48 41.68 1963.48 39.28C1963.48 36.88 1962.76 35.0667 1961.32 33.84C1959.88 32.6133 1957.96 32 1955.56 32H1940.84V24H1955.8C1959.58 24 1962.73 24.6933 1965.24 26.08C1967.74 27.4667 1969.61 29.2533 1970.84 31.44C1972.06 33.6267 1972.68 35.9733 1972.68 38.48C1972.68 41.4133 1971.85 44 1970.2 46.24C1968.6 48.48 1966.22 50.2933 1963.08 51.68L1963.8 48.8C1967.32 50.24 1970.06 52.2667 1972.04 54.88C1974.01 57.4933 1975 60.56 1975 64.08C1975 66.96 1974.28 69.6 1972.84 72C1971.45 74.4 1969.37 76.3467 1966.6 77.84C1963.88 79.28 1960.52 80 1956.52 80H1940.84ZM1934.52 80V24H1943.72V80H1934.52ZM1999.16 80.8C1995.7 80.8 1992.55 79.92 1989.72 78.16C1986.95 76.4 1984.74 74.0267 1983.08 71.04C1981.48 68 1980.68 64.6133 1980.68 60.88C1980.68 57.0933 1981.48 53.7067 1983.08 50.72C1984.74 47.68 1986.95 45.28 1989.72 43.52C1992.55 41.7067 1995.7 40.8 1999.16 40.8C2002.1 40.8 2004.68 41.44 2006.92 42.72C2009.22 43.9467 2011.03 45.6533 2012.36 47.84C2013.7 50.0267 2014.36 52.5067 2014.36 55.28V66.32C2014.36 69.0933 2013.7 71.5733 2012.36 73.76C2011.08 75.9467 2009.3 77.68 2007 78.96C2004.71 80.1867 2002.1 80.8 1999.16 80.8ZM2000.6 72.48C2003.86 72.48 2006.47 71.3867 2008.44 69.2C2010.47 67.0133 2011.48 64.2133 2011.48 60.8C2011.48 58.5067 2011.03 56.48 2010.12 54.72C2009.22 52.96 2007.94 51.6 2006.28 50.64C2004.68 49.6267 2002.79 49.12 2000.6 49.12C1998.47 49.12 1996.58 49.6267 1994.92 50.64C1993.32 51.6 1992.04 52.96 1991.08 54.72C1990.18 56.48 1989.72 58.5067 1989.72 60.8C1989.72 63.0933 1990.18 65.12 1991.08 66.88C1992.04 68.64 1993.32 70.0267 1994.92 71.04C1996.58 72 1998.47 72.48 2000.6 72.48ZM2010.92 80V69.68L2012.44 60.32L2010.92 51.04V41.6H2019.72V80H2010.92ZM1996.84 36.08L1992.84 32.08L2003.08 19.04L2009.88 25.84L1996.84 36.08ZM2042.05 80.8C2039.92 80.8 2037.86 80.5333 2035.89 80C2033.92 79.4133 2032.1 78.6133 2030.45 77.6C2028.8 76.5333 2027.36 75.2533 2026.13 73.76L2031.73 68.16C2033.06 69.7067 2034.58 70.88 2036.29 71.68C2038.05 72.4267 2040.02 72.8 2042.21 72.8C2044.18 72.8 2045.68 72.5067 2046.69 71.92C2047.7 71.3333 2048.21 70.48 2048.21 69.36C2048.21 68.1867 2047.73 67.28 2046.77 66.64C2045.81 66 2044.56 65.4667 2043.01 65.04C2041.52 64.56 2039.92 64.08 2038.21 63.6C2036.56 63.12 2034.96 62.48 2033.41 61.68C2031.92 60.8267 2030.69 59.68 2029.73 58.24C2028.77 56.8 2028.29 54.9333 2028.29 52.64C2028.29 50.1867 2028.85 48.08 2029.97 46.32C2031.14 44.56 2032.77 43.2 2034.85 42.24C2036.98 41.28 2039.52 40.8 2042.45 40.8C2045.54 40.8 2048.26 41.36 2050.61 42.48C2053.01 43.5467 2055.01 45.1733 2056.61 47.36L2051.01 52.96C2049.89 51.5733 2048.61 50.5333 2047.17 49.84C2045.73 49.1467 2044.08 48.8 2042.21 48.8C2040.45 48.8 2039.09 49.0667 2038.13 49.6C2037.17 50.1333 2036.69 50.9067 2036.69 51.92C2036.69 52.9867 2037.17 53.8133 2038.13 54.4C2039.09 54.9867 2040.32 55.4933 2041.81 55.92C2043.36 56.3467 2044.96 56.8267 2046.61 57.36C2048.32 57.84 2049.92 58.5333 2051.41 59.44C2052.96 60.2933 2054.21 61.4667 2055.17 62.96C2056.13 64.4 2056.61 66.2933 2056.61 68.64C2056.61 72.3733 2055.3 75.3333 2052.69 77.52C2050.08 79.7067 2046.53 80.8 2042.05 80.8ZM2063.94 80V41.6H2072.74V80H2063.94ZM2068.34 34.56C2066.85 34.56 2065.6 34.0533 2064.58 33.04C2063.62 32.0267 2063.14 30.7733 2063.14 29.28C2063.14 27.7867 2063.62 26.5333 2064.58 25.52C2065.6 24.5067 2066.85 24 2068.34 24C2069.89 24 2071.14 24.5067 2072.1 25.52C2073.06 26.5333 2073.54 27.7867 2073.54 29.28C2073.54 30.7733 2073.06 32.0267 2072.1 33.04C2071.14 34.0533 2069.89 34.56 2068.34 34.56ZM2100.29 80.8C2096.51 80.8 2093.07 79.92 2089.97 78.16C2086.93 76.4 2084.53 74 2082.77 70.96C2081.01 67.92 2080.13 64.5333 2080.13 60.8C2080.13 57.0133 2081.01 53.6267 2082.77 50.64C2084.53 47.6 2086.93 45.2 2089.97 43.44C2093.07 41.68 2096.51 40.8 2100.29 40.8C2103.28 40.8 2106.05 41.3867 2108.61 42.56C2111.23 43.68 2113.44 45.3067 2115.25 47.44L2109.49 53.28C2108.37 51.9467 2107.01 50.96 2105.41 50.32C2103.87 49.6267 2102.16 49.28 2100.29 49.28C2098.11 49.28 2096.16 49.7867 2094.45 50.8C2092.8 51.76 2091.49 53.0933 2090.53 54.8C2089.63 56.5067 2089.17 58.5067 2089.17 60.8C2089.17 63.04 2089.63 65.04 2090.53 66.8C2091.49 68.5067 2092.8 69.8667 2094.45 70.88C2096.16 71.84 2098.11 72.32 2100.29 72.32C2102.16 72.32 2103.87 72 2105.41 71.36C2107.01 70.6667 2108.37 69.6533 2109.49 68.32L2115.25 74.16C2113.44 76.2933 2111.23 77.9467 2108.61 79.12C2106.05 80.24 2103.28 80.8 2100.29 80.8ZM2136.9 80.8C2133.43 80.8 2130.28 79.92 2127.46 78.16C2124.68 76.4 2122.47 74.0267 2120.82 71.04C2119.22 68 2118.42 64.6133 2118.42 60.88C2118.42 57.0933 2119.22 53.7067 2120.82 50.72C2122.47 47.68 2124.68 45.28 2127.46 43.52C2130.28 41.7067 2133.43 40.8 2136.9 40.8C2139.83 40.8 2142.42 41.44 2144.66 42.72C2146.95 43.9467 2148.76 45.6533 2150.1 47.84C2151.43 50.0267 2152.1 52.5067 2152.1 55.28V66.32C2152.1 69.0933 2151.43 71.5733 2150.1 73.76C2148.82 75.9467 2147.03 77.68 2144.74 78.96C2142.44 80.1867 2139.83 80.8 2136.9 80.8ZM2138.34 72.48C2141.59 72.48 2144.2 71.3867 2146.18 69.2C2148.2 67.0133 2149.22 64.2133 2149.22 60.8C2149.22 58.5067 2148.76 56.48 2147.86 54.72C2146.95 52.96 2145.67 51.6 2144.02 50.64C2142.42 49.6267 2140.52 49.12 2138.34 49.12C2136.2 49.12 2134.31 49.6267 2132.66 50.64C2131.06 51.6 2129.78 52.96 2128.82 54.72C2127.91 56.48 2127.46 58.5067 2127.46 60.8C2127.46 63.0933 2127.91 65.12 2128.82 66.88C2129.78 68.64 2131.06 70.0267 2132.66 71.04C2134.31 72 2136.2 72.48 2138.34 72.48ZM2148.66 80V69.68L2150.18 60.32L2148.66 51.04V41.6H2157.46V80H2148.66Z" fill="#9C1C2B"/>
</svg>
