<svg width="2271" height="131" viewBox="0 0 2271 131" fill="none" xmlns="http://www.w3.org/2000/svg">
<path d="M6.08 80V24H15.28V80H6.08ZM12.4 80V71.6H43.76V80H12.4ZM12.4 55.44V47.36H41.04V55.44H12.4ZM12.4 32.4V24H43.36V32.4H12.4ZM65.0275 80L47.5075 41.6H57.2675L70.6275 72.88H64.8675L78.3075 41.6H87.6675L70.1475 80H65.0275ZM109.121 80.8C105.387 80.8 102.001 79.92 98.9606 78.16C95.9206 76.3467 93.494 73.92 91.6806 70.88C89.9206 67.84 89.0406 64.4533 89.0406 60.72C89.0406 56.9867 89.9206 53.6267 91.6806 50.64C93.494 47.6533 95.9206 45.28 98.9606 43.52C102.001 41.7067 105.387 40.8 109.121 40.8C112.907 40.8 116.321 41.68 119.361 43.44C122.401 45.2 124.801 47.6 126.561 50.64C128.374 53.6267 129.281 56.9867 129.281 60.72C129.281 64.4533 128.374 67.84 126.561 70.88C124.801 73.92 122.401 76.3467 119.361 78.16C116.321 79.92 112.907 80.8 109.121 80.8ZM109.121 72.32C111.307 72.32 113.227 71.84 114.881 70.88C116.587 69.8667 117.894 68.48 118.801 66.72C119.761 64.96 120.241 62.96 120.241 60.72C120.241 58.48 119.761 56.5067 118.801 54.8C117.841 53.0933 116.534 51.76 114.881 50.8C113.227 49.7867 111.307 49.28 109.121 49.28C106.987 49.28 105.067 49.7867 103.361 50.8C101.707 51.76 100.401 53.0933 99.4406 54.8C98.534 56.5067 98.0806 58.48 98.0806 60.72C98.0806 62.96 98.534 64.96 99.4406 66.72C100.401 68.48 101.707 69.8667 103.361 70.88C105.067 71.84 106.987 72.32 109.121 72.32ZM136.599 80V22.4H145.399V80H136.599ZM170.953 80.8C167.699 80.8 164.793 80.08 162.233 78.64C159.726 77.2 157.753 75.2267 156.313 72.72C154.926 70.16 154.233 67.2267 154.233 63.92V41.6H163.033V63.52C163.033 65.3867 163.326 66.9867 163.913 68.32C164.553 69.6 165.459 70.5867 166.633 71.28C167.859 71.9733 169.299 72.32 170.953 72.32C173.513 72.32 175.459 71.5733 176.793 70.08C178.179 68.5333 178.873 66.3467 178.873 63.52V41.6H187.673V63.92C187.673 67.28 186.953 70.24 185.513 72.8C184.126 75.3067 182.179 77.28 179.673 78.72C177.166 80.1067 174.259 80.8 170.953 80.8ZM214.201 80.8C210.414 80.8 206.974 79.92 203.881 78.16C200.841 76.4 198.441 74 196.681 70.96C194.921 67.92 194.041 64.5333 194.041 60.8C194.041 57.0133 194.921 53.6267 196.681 50.64C198.441 47.6 200.841 45.2 203.881 43.44C206.974 41.68 210.414 40.8 214.201 40.8C217.187 40.8 219.961 41.3867 222.521 42.56C225.134 43.68 227.347 45.3067 229.161 47.44L223.401 53.28C222.281 51.9467 220.921 50.96 219.321 50.32C217.774 49.6267 216.067 49.28 214.201 49.28C212.014 49.28 210.067 49.7867 208.361 50.8C206.707 51.76 205.401 53.0933 204.441 54.8C203.534 56.5067 203.081 58.5067 203.081 60.8C203.081 63.04 203.534 65.04 204.441 66.8C205.401 68.5067 206.707 69.8667 208.361 70.88C210.067 71.84 212.014 72.32 214.201 72.32C216.067 72.32 217.774 72 219.321 71.36C220.921 70.6667 222.281 69.6533 223.401 68.32L229.161 74.16C227.347 76.2933 225.134 77.9467 222.521 79.12C219.961 80.24 217.187 80.8 214.201 80.8ZM211.721 96.8C209.747 96.8 208.014 96.56 206.521 96.08C205.027 95.6 203.587 94.9067 202.201 94L205.801 89.44C206.387 89.9733 207.107 90.4 207.961 90.72C208.814 91.0933 209.854 91.28 211.081 91.28C212.467 91.28 213.454 91.0933 214.041 90.72C214.681 90.3467 215.001 89.8933 215.001 89.36C215.001 88.7733 214.707 88.24 214.121 87.76C213.587 87.3333 212.707 87.12 211.481 87.12H207.321L209.961 78.88H216.361L214.441 84.64L211.241 82.24C214.547 82.1333 217.214 82.7733 219.241 84.16C221.267 85.6 222.281 87.3867 222.281 89.52C222.281 91.6 221.294 93.3333 219.321 94.72C217.401 96.1067 214.867 96.8 211.721 96.8ZM250.804 80.8C247.337 80.8 244.19 79.92 241.364 78.16C238.59 76.4 236.377 74.0267 234.724 71.04C233.124 68 232.324 64.6133 232.324 60.88C232.324 57.0933 233.124 53.7067 234.724 50.72C236.377 47.68 238.59 45.28 241.364 43.52C244.19 41.7067 247.337 40.8 250.804 40.8C253.737 40.8 256.324 41.44 258.564 42.72C260.857 43.9467 262.67 45.6533 264.004 47.84C265.337 50.0267 266.004 52.5067 266.004 55.28V66.32C266.004 69.0933 265.337 71.5733 264.004 73.76C262.724 75.9467 260.937 77.68 258.644 78.96C256.35 80.1867 253.737 80.8 250.804 80.8ZM252.244 72.48C255.497 72.48 258.11 71.3867 260.084 69.2C262.11 67.0133 263.124 64.2133 263.124 60.8C263.124 58.5067 262.67 56.48 261.764 54.72C260.857 52.96 259.577 51.6 257.924 50.64C256.324 49.6267 254.43 49.12 252.244 49.12C250.11 49.12 248.217 49.6267 246.564 50.64C244.964 51.6 243.684 52.96 242.724 54.72C241.817 56.48 241.364 58.5067 241.364 60.8C241.364 63.0933 241.817 65.12 242.724 66.88C243.684 68.64 244.964 70.0267 246.564 71.04C248.217 72 250.11 72.48 252.244 72.48ZM262.564 80V69.68L264.084 60.32L262.564 51.04V41.6H271.364V80H262.564ZM258.804 36.08C257.044 36.08 255.55 35.76 254.324 35.12C253.097 34.48 251.95 33.8667 250.884 33.28C249.87 32.64 248.724 32.32 247.444 32.32C246.11 32.32 245.044 32.56 244.244 33.04C243.444 33.52 242.67 34.24 241.924 35.2L237.204 30.48C238.75 28.72 240.297 27.3333 241.844 26.32C243.39 25.2533 245.204 24.72 247.284 24.72C249.044 24.72 250.537 25.04 251.764 25.68C252.99 26.2667 254.137 26.88 255.204 27.52C256.27 28.16 257.417 28.48 258.644 28.48C260.03 28.48 261.124 28.24 261.924 27.76C262.724 27.28 263.47 26.56 264.164 25.6L268.884 30.32C267.337 32.08 265.79 33.4933 264.244 34.56C262.697 35.5733 260.884 36.08 258.804 36.08ZM298.73 80.8C294.997 80.8 291.61 79.92 288.57 78.16C285.53 76.3467 283.103 73.92 281.29 70.88C279.53 67.84 278.65 64.4533 278.65 60.72C278.65 56.9867 279.53 53.6267 281.29 50.64C283.103 47.6533 285.53 45.28 288.57 43.52C291.61 41.7067 294.997 40.8 298.73 40.8C302.517 40.8 305.93 41.68 308.97 43.44C312.01 45.2 314.41 47.6 316.17 50.64C317.983 53.6267 318.89 56.9867 318.89 60.72C318.89 64.4533 317.983 67.84 316.17 70.88C314.41 73.92 312.01 76.3467 308.97 78.16C305.93 79.92 302.517 80.8 298.73 80.8ZM298.73 72.32C300.917 72.32 302.837 71.84 304.49 70.88C306.197 69.8667 307.503 68.48 308.41 66.72C309.37 64.96 309.85 62.96 309.85 60.72C309.85 58.48 309.37 56.5067 308.41 54.8C307.45 53.0933 306.143 51.76 304.49 50.8C302.837 49.7867 300.917 49.28 298.73 49.28C296.597 49.28 294.677 49.7867 292.97 50.8C291.317 51.76 290.01 53.0933 289.05 54.8C288.143 56.5067 287.69 58.48 287.69 60.72C287.69 62.96 288.143 64.96 289.05 66.72C290.01 68.48 291.317 69.8667 292.97 70.88C294.677 71.84 296.597 72.32 298.73 72.32ZM358.304 80.8C354.837 80.8 351.69 79.92 348.864 78.16C346.09 76.4 343.877 74.0267 342.224 71.04C340.624 68 339.824 64.6133 339.824 60.88C339.824 57.0933 340.624 53.7067 342.224 50.72C343.877 47.68 346.09 45.28 348.864 43.52C351.69 41.7067 354.837 40.8 358.304 40.8C361.237 40.8 363.824 41.44 366.064 42.72C368.357 43.9467 370.17 45.6533 371.504 47.84C372.837 50.0267 373.504 52.5067 373.504 55.28V66.32C373.504 69.0933 372.837 71.5733 371.504 73.76C370.224 75.9467 368.437 77.68 366.144 78.96C363.85 80.1867 361.237 80.8 358.304 80.8ZM359.744 72.48C361.93 72.48 363.824 72 365.424 71.04C367.077 70.0267 368.357 68.64 369.264 66.88C370.17 65.12 370.624 63.0933 370.624 60.8C370.624 58.5067 370.17 56.48 369.264 54.72C368.357 52.96 367.077 51.6 365.424 50.64C363.824 49.6267 361.93 49.12 359.744 49.12C357.61 49.12 355.717 49.6267 354.064 50.64C352.464 51.6 351.184 52.96 350.224 54.72C349.317 56.48 348.864 58.5067 348.864 60.8C348.864 63.0933 349.317 65.12 350.224 66.88C351.184 68.64 352.464 70.0267 354.064 71.04C355.717 72 357.61 72.48 359.744 72.48ZM378.864 80H370.064V69.68L371.584 60.32L370.064 51.04V22.4H378.864V80ZM406.23 80.8C402.497 80.8 399.11 79.92 396.07 78.16C393.03 76.3467 390.603 73.92 388.79 70.88C387.03 67.84 386.15 64.4533 386.15 60.72C386.15 56.9867 387.03 53.6267 388.79 50.64C390.603 47.6533 393.03 45.28 396.07 43.52C399.11 41.7067 402.497 40.8 406.23 40.8C410.017 40.8 413.43 41.68 416.47 43.44C419.51 45.2 421.91 47.6 423.67 50.64C425.483 53.6267 426.39 56.9867 426.39 60.72C426.39 64.4533 425.483 67.84 423.67 70.88C421.91 73.92 419.51 76.3467 416.47 78.16C413.43 79.92 410.017 80.8 406.23 80.8ZM406.23 72.32C408.417 72.32 410.337 71.84 411.99 70.88C413.697 69.8667 415.003 68.48 415.91 66.72C416.87 64.96 417.35 62.96 417.35 60.72C417.35 58.48 416.87 56.5067 415.91 54.8C414.95 53.0933 413.643 51.76 411.99 50.8C410.337 49.7867 408.417 49.28 406.23 49.28C404.097 49.28 402.177 49.7867 400.47 50.8C398.817 51.76 397.51 53.0933 396.55 54.8C395.643 56.5067 395.19 58.48 395.19 60.72C395.19 62.96 395.643 64.96 396.55 66.72C397.51 68.48 398.817 69.8667 400.47 70.88C402.177 71.84 404.097 72.32 406.23 72.32ZM450.924 80V24H460.124V80H450.924ZM478.572 80V71.6H493.292C497.132 71.6 500.492 70.7733 503.372 69.12C506.305 67.4667 508.572 65.1733 510.172 62.24C511.825 59.2533 512.652 55.8133 512.652 51.92C512.652 48.08 511.825 44.6933 510.172 41.76C508.519 38.8267 506.225 36.5333 503.292 34.88C500.412 33.2267 497.079 32.4 493.292 32.4H478.572V24H493.532C497.585 24 501.345 24.72 504.812 26.16C508.279 27.5467 511.292 29.52 513.852 32.08C516.465 34.5867 518.492 37.5467 519.932 40.96C521.372 44.32 522.092 48 522.092 52C522.092 55.9467 521.372 59.6267 519.932 63.04C518.492 66.4533 516.492 69.44 513.932 72C511.372 74.5067 508.359 76.48 504.892 77.92C501.425 79.3067 497.692 80 493.692 80H478.572ZM472.252 80V24H481.452V80H472.252ZM531.471 80V24H540.671V80H531.471ZM537.791 80V71.6H569.151V80H537.791ZM537.791 55.44V47.36H566.431V55.44H537.791ZM537.791 32.4V24H568.751V32.4H537.791ZM584.978 80V72H601.058C603.885 72 606.071 71.12 607.618 69.36C609.165 67.6 609.938 65.5733 609.938 63.28C609.938 61.7333 609.591 60.2933 608.898 58.96C608.205 57.6267 607.191 56.56 605.858 55.76C604.525 54.96 602.925 54.56 601.058 54.56H584.978V46.56H599.698C602.098 46.56 604.018 45.9467 605.458 44.72C606.898 43.4933 607.618 41.68 607.618 39.28C607.618 36.88 606.898 35.0667 605.458 33.84C604.018 32.6133 602.098 32 599.698 32H584.978V24H599.938C603.725 24 606.871 24.6933 609.378 26.08C611.885 27.4667 613.751 29.2533 614.978 31.44C616.205 33.6267 616.818 35.9733 616.818 38.48C616.818 41.4133 615.991 44 614.338 46.24C612.738 48.48 610.365 50.2933 607.218 51.68L607.938 48.8C611.458 50.24 614.205 52.2667 616.178 54.88C618.151 57.4933 619.138 60.56 619.138 64.08C619.138 66.96 618.418 69.6 616.978 72C615.591 74.4 613.511 76.3467 610.738 77.84C608.018 79.28 604.658 80 600.658 80H584.978ZM578.658 80V24H587.858V80H578.658ZM669.559 80V57.84C669.559 55.28 668.733 53.1733 667.079 51.52C665.479 49.8667 663.399 49.04 660.839 49.04C659.133 49.04 657.613 49.4133 656.279 50.16C654.946 50.9067 653.906 51.9467 653.159 53.28C652.413 54.6133 652.039 56.1333 652.039 57.84L648.599 55.92C648.599 52.9867 649.239 50.4 650.519 48.16C651.799 45.8667 653.559 44.08 655.799 42.8C658.093 41.4667 660.653 40.8 663.479 40.8C666.359 40.8 668.919 41.5467 671.159 43.04C673.399 44.48 675.159 46.3733 676.439 48.72C677.719 51.0133 678.359 53.4133 678.359 55.92V80H669.559ZM643.239 80V41.6H652.039V80H643.239ZM703.382 80.8C699.915 80.8 696.769 79.92 693.942 78.16C691.169 76.4 688.955 74.0267 687.302 71.04C685.702 68 684.902 64.6133 684.902 60.88C684.902 57.0933 685.702 53.7067 687.302 50.72C688.955 47.68 691.169 45.28 693.942 43.52C696.769 41.7067 699.915 40.8 703.382 40.8C706.315 40.8 708.902 41.44 711.142 42.72C713.435 43.9467 715.249 45.6533 716.582 47.84C717.915 50.0267 718.582 52.5067 718.582 55.28V66.32C718.582 69.0933 717.915 71.5733 716.582 73.76C715.302 75.9467 713.515 77.68 711.222 78.96C708.929 80.1867 706.315 80.8 703.382 80.8ZM704.822 72.48C708.075 72.48 710.689 71.3867 712.662 69.2C714.689 67.0133 715.702 64.2133 715.702 60.8C715.702 58.5067 715.249 56.48 714.342 54.72C713.435 52.96 712.155 51.6 710.502 50.64C708.902 49.6267 707.009 49.12 704.822 49.12C702.689 49.12 700.795 49.6267 699.142 50.64C697.542 51.6 696.262 52.96 695.302 54.72C694.395 56.48 693.942 58.5067 693.942 60.8C693.942 63.0933 694.395 65.12 695.302 66.88C696.262 68.64 697.542 70.0267 699.142 71.04C700.795 72 702.689 72.48 704.822 72.48ZM715.142 80V69.68L716.662 60.32L715.142 51.04V41.6H723.942V80H715.142ZM750.924 80V24H760.124V80H750.924ZM757.244 80V71.6H788.604V80H757.244ZM757.244 55.44V47.36H785.884V55.44H757.244ZM757.244 32.4V24H788.204V32.4H757.244ZM812.366 80.8C808.9 80.8 805.753 79.92 802.926 78.16C800.153 76.4 797.94 74.0267 796.286 71.04C794.686 68 793.886 64.6133 793.886 60.88C793.886 57.0933 794.686 53.7067 796.286 50.72C797.94 47.68 800.153 45.28 802.926 43.52C805.753 41.7067 808.9 40.8 812.366 40.8C815.3 40.8 817.886 41.44 820.126 42.72C822.42 43.9467 824.233 45.6533 825.566 47.84C826.9 50.0267 827.566 52.5067 827.566 55.28V66.32C827.566 69.0933 826.9 71.5733 825.566 73.76C824.286 75.9467 822.5 77.68 820.206 78.96C817.913 80.1867 815.3 80.8 812.366 80.8ZM813.806 72.48C815.993 72.48 817.886 72 819.486 71.04C821.14 70.0267 822.42 68.64 823.326 66.88C824.233 65.12 824.686 63.0933 824.686 60.8C824.686 58.5067 824.233 56.48 823.326 54.72C822.42 52.96 821.14 51.6 819.486 50.64C817.886 49.6267 815.993 49.12 813.806 49.12C811.673 49.12 809.78 49.6267 808.126 50.64C806.526 51.6 805.246 52.96 804.286 54.72C803.38 56.48 802.926 58.5067 802.926 60.8C802.926 63.0933 803.38 65.12 804.286 66.88C805.246 68.64 806.526 70.0267 808.126 71.04C809.78 72 811.673 72.48 813.806 72.48ZM832.926 80H824.126V69.68L825.646 60.32L824.126 51.04V22.4H832.926V80ZM858.453 80.8C855.199 80.8 852.293 80.08 849.733 78.64C847.226 77.2 845.253 75.2267 843.813 72.72C842.426 70.16 841.733 67.2267 841.733 63.92V41.6H850.533V63.52C850.533 65.3867 850.826 66.9867 851.413 68.32C852.053 69.6 852.959 70.5867 854.133 71.28C855.359 71.9733 856.799 72.32 858.453 72.32C861.013 72.32 862.959 71.5733 864.293 70.08C865.679 68.5333 866.373 66.3467 866.373 63.52V41.6H875.173V63.92C875.173 67.28 874.453 70.24 873.013 72.8C871.626 75.3067 869.679 77.28 867.173 78.72C864.666 80.1067 861.759 80.8 858.453 80.8ZM901.701 80.8C897.914 80.8 894.474 79.92 891.381 78.16C888.341 76.4 885.941 74 884.181 70.96C882.421 67.92 881.541 64.5333 881.541 60.8C881.541 57.0133 882.421 53.6267 884.181 50.64C885.941 47.6 888.341 45.2 891.381 43.44C894.474 41.68 897.914 40.8 901.701 40.8C904.687 40.8 907.461 41.3867 910.021 42.56C912.634 43.68 914.847 45.3067 916.661 47.44L910.901 53.28C909.781 51.9467 908.421 50.96 906.821 50.32C905.274 49.6267 903.567 49.28 901.701 49.28C899.514 49.28 897.567 49.7867 895.861 50.8C894.207 51.76 892.901 53.0933 891.941 54.8C891.034 56.5067 890.581 58.5067 890.581 60.8C890.581 63.04 891.034 65.04 891.941 66.8C892.901 68.5067 894.207 69.8667 895.861 70.88C897.567 71.84 899.514 72.32 901.701 72.32C903.567 72.32 905.274 72 906.821 71.36C908.421 70.6667 909.781 69.6533 910.901 68.32L916.661 74.16C914.847 76.2933 912.634 77.9467 910.021 79.12C907.461 80.24 904.687 80.8 901.701 80.8ZM938.304 80.8C934.837 80.8 931.69 79.92 928.864 78.16C926.09 76.4 923.877 74.0267 922.224 71.04C920.624 68 919.824 64.6133 919.824 60.88C919.824 57.0933 920.624 53.7067 922.224 50.72C923.877 47.68 926.09 45.28 928.864 43.52C931.69 41.7067 934.837 40.8 938.304 40.8C941.237 40.8 943.824 41.44 946.064 42.72C948.357 43.9467 950.17 45.6533 951.504 47.84C952.837 50.0267 953.504 52.5067 953.504 55.28V66.32C953.504 69.0933 952.837 71.5733 951.504 73.76C950.224 75.9467 948.437 77.68 946.144 78.96C943.85 80.1867 941.237 80.8 938.304 80.8ZM939.744 72.48C942.997 72.48 945.61 71.3867 947.584 69.2C949.61 67.0133 950.624 64.2133 950.624 60.8C950.624 58.5067 950.17 56.48 949.264 54.72C948.357 52.96 947.077 51.6 945.424 50.64C943.824 49.6267 941.93 49.12 939.744 49.12C937.61 49.12 935.717 49.6267 934.064 50.64C932.464 51.6 931.184 52.96 930.224 54.72C929.317 56.48 928.864 58.5067 928.864 60.8C928.864 63.0933 929.317 65.12 930.224 66.88C931.184 68.64 932.464 70.0267 934.064 71.04C935.717 72 937.61 72.48 939.744 72.48ZM950.064 80V69.68L951.584 60.32L950.064 51.04V41.6H958.864V80H950.064ZM986.31 80.8C982.523 80.8 979.083 79.92 975.99 78.16C972.95 76.4 970.55 74 968.79 70.96C967.03 67.92 966.15 64.5333 966.15 60.8C966.15 57.0133 967.03 53.6267 968.79 50.64C970.55 47.6 972.95 45.2 975.99 43.44C979.083 41.68 982.523 40.8 986.31 40.8C989.297 40.8 992.07 41.3867 994.63 42.56C997.243 43.68 999.457 45.3067 1001.27 47.44L995.51 53.28C994.39 51.9467 993.03 50.96 991.43 50.32C989.883 49.6267 988.177 49.28 986.31 49.28C984.123 49.28 982.177 49.7867 980.47 50.8C978.817 51.76 977.51 53.0933 976.55 54.8C975.643 56.5067 975.19 58.5067 975.19 60.8C975.19 63.04 975.643 65.04 976.55 66.8C977.51 68.5067 978.817 69.8667 980.47 70.88C982.177 71.84 984.123 72.32 986.31 72.32C988.177 72.32 989.883 72 991.43 71.36C993.03 70.6667 994.39 69.6533 995.51 68.32L1001.27 74.16C999.457 76.2933 997.243 77.9467 994.63 79.12C992.07 80.24 989.297 80.8 986.31 80.8ZM983.83 96.8C981.857 96.8 980.123 96.56 978.63 96.08C977.137 95.6 975.697 94.9067 974.31 94L977.91 89.44C978.497 89.9733 979.217 90.4 980.07 90.72C980.923 91.0933 981.963 91.28 983.19 91.28C984.577 91.28 985.563 91.0933 986.15 90.72C986.79 90.3467 987.11 89.8933 987.11 89.36C987.11 88.7733 986.817 88.24 986.23 87.76C985.697 87.3333 984.817 87.12 983.59 87.12H979.43L982.07 78.88H988.47L986.55 84.64L983.35 82.24C986.657 82.1333 989.323 82.7733 991.35 84.16C993.377 85.6 994.39 87.3867 994.39 89.52C994.39 91.6 993.403 93.3333 991.43 94.72C989.51 96.1067 986.977 96.8 983.83 96.8ZM1022.91 80.8C1019.45 80.8 1016.3 79.92 1013.47 78.16C1010.7 76.4 1008.49 74.0267 1006.83 71.04C1005.23 68 1004.43 64.6133 1004.43 60.88C1004.43 57.0933 1005.23 53.7067 1006.83 50.72C1008.49 47.68 1010.7 45.28 1013.47 43.52C1016.3 41.7067 1019.45 40.8 1022.91 40.8C1025.85 40.8 1028.43 41.44 1030.67 42.72C1032.97 43.9467 1034.78 45.6533 1036.11 47.84C1037.45 50.0267 1038.11 52.5067 1038.11 55.28V66.32C1038.11 69.0933 1037.45 71.5733 1036.11 73.76C1034.83 75.9467 1033.05 77.68 1030.75 78.96C1028.46 80.1867 1025.85 80.8 1022.91 80.8ZM1024.35 72.48C1027.61 72.48 1030.22 71.3867 1032.19 69.2C1034.22 67.0133 1035.23 64.2133 1035.23 60.8C1035.23 58.5067 1034.78 56.48 1033.87 54.72C1032.97 52.96 1031.69 51.6 1030.03 50.64C1028.43 49.6267 1026.54 49.12 1024.35 49.12C1022.22 49.12 1020.33 49.6267 1018.67 50.64C1017.07 51.6 1015.79 52.96 1014.83 54.72C1013.93 56.48 1013.47 58.5067 1013.47 60.8C1013.47 63.0933 1013.93 65.12 1014.83 66.88C1015.79 68.64 1017.07 70.0267 1018.67 71.04C1020.33 72 1022.22 72.48 1024.35 72.48ZM1034.67 80V69.68L1036.19 60.32L1034.67 51.04V41.6H1043.47V80H1034.67ZM1030.91 36.08C1029.15 36.08 1027.66 35.76 1026.43 35.12C1025.21 34.48 1024.06 33.8667 1022.99 33.28C1021.98 32.64 1020.83 32.32 1019.55 32.32C1018.22 32.32 1017.15 32.56 1016.35 33.04C1015.55 33.52 1014.78 34.24 1014.03 35.2L1009.31 30.48C1010.86 28.72 1012.41 27.3333 1013.95 26.32C1015.5 25.2533 1017.31 24.72 1019.39 24.72C1021.15 24.72 1022.65 25.04 1023.87 25.68C1025.1 26.2667 1026.25 26.88 1027.31 27.52C1028.38 28.16 1029.53 28.48 1030.75 28.48C1032.14 28.48 1033.23 28.24 1034.03 27.76C1034.83 27.28 1035.58 26.56 1036.27 25.6L1040.99 30.32C1039.45 32.08 1037.9 33.4933 1036.35 34.56C1034.81 35.5733 1032.99 36.08 1030.91 36.08ZM1070.84 80.8C1067.11 80.8 1063.72 79.92 1060.68 78.16C1057.64 76.3467 1055.21 73.92 1053.4 70.88C1051.64 67.84 1050.76 64.4533 1050.76 60.72C1050.76 56.9867 1051.64 53.6267 1053.4 50.64C1055.21 47.6533 1057.64 45.28 1060.68 43.52C1063.72 41.7067 1067.11 40.8 1070.84 40.8C1074.63 40.8 1078.04 41.68 1081.08 43.44C1084.12 45.2 1086.52 47.6 1088.28 50.64C1090.09 53.6267 1091 56.9867 1091 60.72C1091 64.4533 1090.09 67.84 1088.28 70.88C1086.52 73.92 1084.12 76.3467 1081.08 78.16C1078.04 79.92 1074.63 80.8 1070.84 80.8ZM1070.84 72.32C1073.03 72.32 1074.95 71.84 1076.6 70.88C1078.31 69.8667 1079.61 68.48 1080.52 66.72C1081.48 64.96 1081.96 62.96 1081.96 60.72C1081.96 58.48 1081.48 56.5067 1080.52 54.8C1079.56 53.0933 1078.25 51.76 1076.6 50.8C1074.95 49.7867 1073.03 49.28 1070.84 49.28C1068.71 49.28 1066.79 49.7867 1065.08 50.8C1063.43 51.76 1062.12 53.0933 1061.16 54.8C1060.25 56.5067 1059.8 58.48 1059.8 60.72C1059.8 62.96 1060.25 64.96 1061.16 66.72C1062.12 68.48 1063.43 69.8667 1065.08 70.88C1066.79 71.84 1068.71 72.32 1070.84 72.32ZM1121.85 80V72H1137.93C1140.76 72 1142.95 71.12 1144.49 69.36C1146.04 67.6 1146.81 65.5733 1146.81 63.28C1146.81 61.7333 1146.47 60.2933 1145.77 58.96C1145.08 57.6267 1144.07 56.56 1142.73 55.76C1141.4 54.96 1139.8 54.56 1137.93 54.56H1121.85V46.56H1136.57C1138.97 46.56 1140.89 45.9467 1142.33 44.72C1143.77 43.4933 1144.49 41.68 1144.49 39.28C1144.49 36.88 1143.77 35.0667 1142.33 33.84C1140.89 32.6133 1138.97 32 1136.57 32H1121.85V24H1136.81C1140.6 24 1143.75 24.6933 1146.25 26.08C1148.76 27.4667 1150.63 29.2533 1151.85 31.44C1153.08 33.6267 1153.69 35.9733 1153.69 38.48C1153.69 41.4133 1152.87 44 1151.21 46.24C1149.61 48.48 1147.24 50.2933 1144.09 51.68L1144.81 48.8C1148.33 50.24 1151.08 52.2667 1153.05 54.88C1155.03 57.4933 1156.01 60.56 1156.01 64.08C1156.01 66.96 1155.29 69.6 1153.85 72C1152.47 74.4 1150.39 76.3467 1147.61 77.84C1144.89 79.28 1141.53 80 1137.53 80H1121.85ZM1115.53 80V24H1124.73V80H1115.53ZM1180.18 80.8C1176.71 80.8 1173.57 79.92 1170.74 78.16C1167.97 76.4 1165.75 74.0267 1164.1 71.04C1162.5 68 1161.7 64.6133 1161.7 60.88C1161.7 57.0933 1162.5 53.7067 1164.1 50.72C1165.75 47.68 1167.97 45.28 1170.74 43.52C1173.57 41.7067 1176.71 40.8 1180.18 40.8C1183.11 40.8 1185.7 41.44 1187.94 42.72C1190.23 43.9467 1192.05 45.6533 1193.38 47.84C1194.71 50.0267 1195.38 52.5067 1195.38 55.28V66.32C1195.38 69.0933 1194.71 71.5733 1193.38 73.76C1192.1 75.9467 1190.31 77.68 1188.02 78.96C1185.73 80.1867 1183.11 80.8 1180.18 80.8ZM1181.62 72.48C1184.87 72.48 1187.49 71.3867 1189.46 69.2C1191.49 67.0133 1192.5 64.2133 1192.5 60.8C1192.5 58.5067 1192.05 56.48 1191.14 54.72C1190.23 52.96 1188.95 51.6 1187.3 50.64C1185.7 49.6267 1183.81 49.12 1181.62 49.12C1179.49 49.12 1177.59 49.6267 1175.94 50.64C1174.34 51.6 1173.06 52.96 1172.1 54.72C1171.19 56.48 1170.74 58.5067 1170.74 60.8C1170.74 63.0933 1171.19 65.12 1172.1 66.88C1173.06 68.64 1174.34 70.0267 1175.94 71.04C1177.59 72 1179.49 72.48 1181.62 72.48ZM1191.94 80V69.68L1193.46 60.32L1191.94 51.04V41.6H1200.74V80H1191.94ZM1177.86 36.08L1173.86 32.08L1184.1 19.04L1190.9 25.84L1177.86 36.08ZM1223.07 80.8C1220.93 80.8 1218.88 80.5333 1216.91 80C1214.93 79.4133 1213.12 78.6133 1211.47 77.6C1209.81 76.5333 1208.37 75.2533 1207.15 73.76L1212.75 68.16C1214.08 69.7067 1215.6 70.88 1217.31 71.68C1219.07 72.4267 1221.04 72.8 1223.23 72.8C1225.2 72.8 1226.69 72.5067 1227.71 71.92C1228.72 71.3333 1229.23 70.48 1229.23 69.36C1229.23 68.1867 1228.75 67.28 1227.79 66.64C1226.83 66 1225.57 65.4667 1224.03 65.04C1222.53 64.56 1220.93 64.08 1219.23 63.6C1217.57 63.12 1215.97 62.48 1214.43 61.68C1212.93 60.8267 1211.71 59.68 1210.75 58.24C1209.79 56.8 1209.31 54.9333 1209.31 52.64C1209.31 50.1867 1209.87 48.08 1210.99 46.32C1212.16 44.56 1213.79 43.2 1215.87 42.24C1218 41.28 1220.53 40.8 1223.47 40.8C1226.56 40.8 1229.28 41.36 1231.63 42.48C1234.03 43.5467 1236.03 45.1733 1237.63 47.36L1232.03 52.96C1230.91 51.5733 1229.63 50.5333 1228.19 49.84C1226.75 49.1467 1225.09 48.8 1223.23 48.8C1221.47 48.8 1220.11 49.0667 1219.15 49.6C1218.19 50.1333 1217.71 50.9067 1217.71 51.92C1217.71 52.9867 1218.19 53.8133 1219.15 54.4C1220.11 54.9867 1221.33 55.4933 1222.83 55.92C1224.37 56.3467 1225.97 56.8267 1227.63 57.36C1229.33 57.84 1230.93 58.5333 1232.43 59.44C1233.97 60.2933 1235.23 61.4667 1236.19 62.96C1237.15 64.4 1237.63 66.2933 1237.63 68.64C1237.63 72.3733 1236.32 75.3333 1233.71 77.52C1231.09 79.7067 1227.55 80.8 1223.07 80.8ZM1244.96 80V41.6H1253.76V80H1244.96ZM1249.36 34.56C1247.87 34.56 1246.61 34.0533 1245.6 33.04C1244.64 32.0267 1244.16 30.7733 1244.16 29.28C1244.16 27.7867 1244.64 26.5333 1245.6 25.52C1246.61 24.5067 1247.87 24 1249.36 24C1250.91 24 1252.16 24.5067 1253.12 25.52C1254.08 26.5333 1254.56 27.7867 1254.56 29.28C1254.56 30.7733 1254.08 32.0267 1253.12 33.04C1252.16 34.0533 1250.91 34.56 1249.36 34.56ZM1281.31 80.8C1277.52 80.8 1274.08 79.92 1270.99 78.16C1267.95 76.4 1265.55 74 1263.79 70.96C1262.03 67.92 1261.15 64.5333 1261.15 60.8C1261.15 57.0133 1262.03 53.6267 1263.79 50.64C1265.55 47.6 1267.95 45.2 1270.99 43.44C1274.08 41.68 1277.52 40.8 1281.31 40.8C1284.3 40.8 1287.07 41.3867 1289.63 42.56C1292.24 43.68 1294.46 45.3067 1296.27 47.44L1290.51 53.28C1289.39 51.9467 1288.03 50.96 1286.43 50.32C1284.88 49.6267 1283.18 49.28 1281.31 49.28C1279.12 49.28 1277.18 49.7867 1275.47 50.8C1273.82 51.76 1272.51 53.0933 1271.55 54.8C1270.64 56.5067 1270.19 58.5067 1270.19 60.8C1270.19 63.04 1270.64 65.04 1271.55 66.8C1272.51 68.5067 1273.82 69.8667 1275.47 70.88C1277.18 71.84 1279.12 72.32 1281.31 72.32C1283.18 72.32 1284.88 72 1286.43 71.36C1288.03 70.6667 1289.39 69.6533 1290.51 68.32L1296.27 74.16C1294.46 76.2933 1292.24 77.9467 1289.63 79.12C1287.07 80.24 1284.3 80.8 1281.31 80.8ZM1317.91 80.8C1314.45 80.8 1311.3 79.92 1308.47 78.16C1305.7 76.4 1303.49 74.0267 1301.83 71.04C1300.23 68 1299.43 64.6133 1299.43 60.88C1299.43 57.0933 1300.23 53.7067 1301.83 50.72C1303.49 47.68 1305.7 45.28 1308.47 43.52C1311.3 41.7067 1314.45 40.8 1317.91 40.8C1320.85 40.8 1323.43 41.44 1325.67 42.72C1327.97 43.9467 1329.78 45.6533 1331.11 47.84C1332.45 50.0267 1333.11 52.5067 1333.11 55.28V66.32C1333.11 69.0933 1332.45 71.5733 1331.11 73.76C1329.83 75.9467 1328.05 77.68 1325.75 78.96C1323.46 80.1867 1320.85 80.8 1317.91 80.8ZM1319.35 72.48C1322.61 72.48 1325.22 71.3867 1327.19 69.2C1329.22 67.0133 1330.23 64.2133 1330.23 60.8C1330.23 58.5067 1329.78 56.48 1328.87 54.72C1327.97 52.96 1326.69 51.6 1325.03 50.64C1323.43 49.6267 1321.54 49.12 1319.35 49.12C1317.22 49.12 1315.33 49.6267 1313.67 50.64C1312.07 51.6 1310.79 52.96 1309.83 54.72C1308.93 56.48 1308.47 58.5067 1308.47 60.8C1308.47 63.0933 1308.93 65.12 1309.83 66.88C1310.79 68.64 1312.07 70.0267 1313.67 71.04C1315.33 72 1317.22 72.48 1319.35 72.48ZM1329.67 80V69.68L1331.19 60.32L1329.67 51.04V41.6H1338.47V80H1329.67ZM1384.82 80.8C1381.88 80.8 1379.27 80.1867 1376.98 78.96C1374.68 77.68 1372.87 75.9467 1371.54 73.76C1370.26 71.5733 1369.62 69.0933 1369.62 66.32V55.28C1369.62 52.5067 1370.28 50.0267 1371.62 47.84C1372.95 45.6533 1374.76 43.9467 1377.06 42.72C1379.35 41.44 1381.94 40.8 1384.82 40.8C1388.28 40.8 1391.4 41.7067 1394.18 43.52C1397 45.28 1399.22 47.68 1400.82 50.72C1402.47 53.7067 1403.3 57.0933 1403.3 60.88C1403.3 64.6133 1402.47 68 1400.82 71.04C1399.22 74.0267 1397 76.4 1394.18 78.16C1391.4 79.92 1388.28 80.8 1384.82 80.8ZM1364.26 96V41.6H1373.06V51.92L1371.54 61.28L1373.06 70.56V96H1364.26ZM1383.38 72.48C1385.51 72.48 1387.38 72 1388.98 71.04C1390.63 70.0267 1391.91 68.64 1392.82 66.88C1393.78 65.12 1394.26 63.0933 1394.26 60.8C1394.26 58.5067 1393.78 56.48 1392.82 54.72C1391.91 52.96 1390.63 51.6 1388.98 50.64C1387.38 49.6267 1385.51 49.12 1383.38 49.12C1381.24 49.12 1379.35 49.6267 1377.7 50.64C1376.04 51.6 1374.76 52.96 1373.86 54.72C1372.95 56.48 1372.5 58.5067 1372.5 60.8C1372.5 63.0933 1372.95 65.12 1373.86 66.88C1374.76 68.64 1376.04 70.0267 1377.7 71.04C1379.35 72 1381.24 72.48 1383.38 72.48ZM1428.26 80.8C1424.53 80.8 1421.14 79.92 1418.1 78.16C1415.06 76.3467 1412.63 73.92 1410.82 70.88C1409.06 67.84 1408.18 64.4533 1408.18 60.72C1408.18 56.9867 1409.06 53.6267 1410.82 50.64C1412.63 47.6533 1415.06 45.28 1418.1 43.52C1421.14 41.7067 1424.53 40.8 1428.26 40.8C1432.05 40.8 1435.46 41.68 1438.5 43.44C1441.54 45.2 1443.94 47.6 1445.7 50.64C1447.51 53.6267 1448.42 56.9867 1448.42 60.72C1448.42 64.4533 1447.51 67.84 1445.7 70.88C1443.94 73.92 1441.54 76.3467 1438.5 78.16C1435.46 79.92 1432.05 80.8 1428.26 80.8ZM1428.26 72.32C1430.45 72.32 1432.37 71.84 1434.02 70.88C1435.73 69.8667 1437.03 68.48 1437.94 66.72C1438.9 64.96 1439.38 62.96 1439.38 60.72C1439.38 58.48 1438.9 56.5067 1437.94 54.8C1436.98 53.0933 1435.67 51.76 1434.02 50.8C1432.37 49.7867 1430.45 49.28 1428.26 49.28C1426.13 49.28 1424.21 49.7867 1422.5 50.8C1420.85 51.76 1419.54 53.0933 1418.58 54.8C1417.67 56.5067 1417.22 58.48 1417.22 60.72C1417.22 62.96 1417.67 64.96 1418.58 66.72C1419.54 68.48 1420.85 69.8667 1422.5 70.88C1424.21 71.84 1426.13 72.32 1428.26 72.32ZM1455.74 80V41.6H1464.54V80H1455.74ZM1464.54 58.64L1461.5 57.12C1461.5 52.2667 1462.57 48.3467 1464.7 45.36C1466.89 42.32 1470.17 40.8 1474.54 40.8C1476.46 40.8 1478.19 41.1467 1479.74 41.84C1481.29 42.5333 1482.73 43.6533 1484.06 45.2L1478.3 51.12C1477.61 50.3733 1476.83 49.84 1475.98 49.52C1475.13 49.2 1474.14 49.04 1473.02 49.04C1470.57 49.04 1468.54 49.8133 1466.94 51.36C1465.34 52.9067 1464.54 55.3333 1464.54 58.64ZM1506.94 80V24H1516.14V80H1506.94ZM1513.26 80V71.6H1544.62V80H1513.26ZM1513.26 55.44V47.36H1541.9V55.44H1513.26ZM1513.26 32.4V24H1544.22V32.4H1513.26ZM1558.77 80V25.6H1567.57V80H1558.77ZM1549.57 49.6V41.6H1576.77V49.6H1549.57ZM1598.15 80.8C1594.68 80.8 1591.53 79.92 1588.71 78.16C1585.93 76.4 1583.72 74.0267 1582.07 71.04C1580.47 68 1579.67 64.6133 1579.67 60.88C1579.67 57.0933 1580.47 53.7067 1582.07 50.72C1583.72 47.68 1585.93 45.28 1588.71 43.52C1591.53 41.7067 1594.68 40.8 1598.15 40.8C1601.08 40.8 1603.67 41.44 1605.91 42.72C1608.2 43.9467 1610.01 45.6533 1611.35 47.84C1612.68 50.0267 1613.35 52.5067 1613.35 55.28V66.32C1613.35 69.0933 1612.68 71.5733 1611.35 73.76C1610.07 75.9467 1608.28 77.68 1605.99 78.96C1603.69 80.1867 1601.08 80.8 1598.15 80.8ZM1599.59 72.48C1602.84 72.48 1605.45 71.3867 1607.43 69.2C1609.45 67.0133 1610.47 64.2133 1610.47 60.8C1610.47 58.5067 1610.01 56.48 1609.11 54.72C1608.2 52.96 1606.92 51.6 1605.27 50.64C1603.67 49.6267 1601.77 49.12 1599.59 49.12C1597.45 49.12 1595.56 49.6267 1593.91 50.64C1592.31 51.6 1591.03 52.96 1590.07 54.72C1589.16 56.48 1588.71 58.5067 1588.71 60.8C1588.71 63.0933 1589.16 65.12 1590.07 66.88C1591.03 68.64 1592.31 70.0267 1593.91 71.04C1595.56 72 1597.45 72.48 1599.59 72.48ZM1609.91 80V69.68L1611.43 60.32L1609.91 51.04V41.6H1618.71V80H1609.91ZM1649.03 80.8C1646.1 80.8 1643.49 80.1867 1641.19 78.96C1638.9 77.68 1637.09 75.9467 1635.75 73.76C1634.47 71.5733 1633.83 69.0933 1633.83 66.32V55.28C1633.83 52.5067 1634.5 50.0267 1635.83 47.84C1637.17 45.6533 1638.98 43.9467 1641.27 42.72C1643.57 41.44 1646.15 40.8 1649.03 40.8C1652.5 40.8 1655.62 41.7067 1658.39 43.52C1661.22 45.28 1663.43 47.68 1665.03 50.72C1666.69 53.7067 1667.51 57.0933 1667.51 60.88C1667.51 64.6133 1666.69 68 1665.03 71.04C1663.43 74.0267 1661.22 76.4 1658.39 78.16C1655.62 79.92 1652.5 80.8 1649.03 80.8ZM1628.47 96V41.6H1637.27V51.92L1635.75 61.28L1637.27 70.56V96H1628.47ZM1647.59 72.48C1649.73 72.48 1651.59 72 1653.19 71.04C1654.85 70.0267 1656.13 68.64 1657.03 66.88C1657.99 65.12 1658.47 63.0933 1658.47 60.8C1658.47 58.5067 1657.99 56.48 1657.03 54.72C1656.13 52.96 1654.85 51.6 1653.19 50.64C1651.59 49.6267 1649.73 49.12 1647.59 49.12C1645.46 49.12 1643.57 49.6267 1641.91 50.64C1640.26 51.6 1638.98 52.96 1638.07 54.72C1637.17 56.48 1636.71 58.5067 1636.71 60.8C1636.71 63.0933 1637.17 65.12 1638.07 66.88C1638.98 68.64 1640.26 70.0267 1641.91 71.04C1643.57 72 1645.46 72.48 1647.59 72.48ZM1690.96 80.8C1687.49 80.8 1684.35 79.92 1681.52 78.16C1678.75 76.4 1676.53 74.0267 1674.88 71.04C1673.28 68 1672.48 64.6133 1672.48 60.88C1672.48 57.0933 1673.28 53.7067 1674.88 50.72C1676.53 47.68 1678.75 45.28 1681.52 43.52C1684.35 41.7067 1687.49 40.8 1690.96 40.8C1693.89 40.8 1696.48 41.44 1698.72 42.72C1701.01 43.9467 1702.83 45.6533 1704.16 47.84C1705.49 50.0267 1706.16 52.5067 1706.16 55.28V66.32C1706.16 69.0933 1705.49 71.5733 1704.16 73.76C1702.88 75.9467 1701.09 77.68 1698.8 78.96C1696.51 80.1867 1693.89 80.8 1690.96 80.8ZM1692.4 72.48C1695.65 72.48 1698.27 71.3867 1700.24 69.2C1702.27 67.0133 1703.28 64.2133 1703.28 60.8C1703.28 58.5067 1702.83 56.48 1701.92 54.72C1701.01 52.96 1699.73 51.6 1698.08 50.64C1696.48 49.6267 1694.59 49.12 1692.4 49.12C1690.27 49.12 1688.37 49.6267 1686.72 50.64C1685.12 51.6 1683.84 52.96 1682.88 54.72C1681.97 56.48 1681.52 58.5067 1681.52 60.8C1681.52 63.0933 1681.97 65.12 1682.88 66.88C1683.84 68.64 1685.12 70.0267 1686.72 71.04C1688.37 72 1690.27 72.48 1692.4 72.48ZM1702.72 80V69.68L1704.24 60.32L1702.72 51.04V41.6H1711.52V80H1702.72Z" fill="#9C1C2B"/>
</svg>
