<svg width="2271" height="131" viewBox="0 0 2271 131" fill="none" xmlns="http://www.w3.org/2000/svg">
<path d="M6.08 80V24H15.28V80H6.08ZM12.4 80V71.6H43.76V80H12.4ZM12.4 55.44V47.36H41.04V55.44H12.4ZM12.4 32.4V24H43.36V32.4H12.4ZM65.0275 80L47.5075 41.6H57.2675L70.6275 72.88H64.8675L78.3075 41.6H87.6675L70.1475 80H65.0275ZM109.121 80.8C105.387 80.8 102.001 79.92 98.9606 78.16C95.9206 76.3467 93.494 73.92 91.6806 70.88C89.9206 67.84 89.0406 64.4533 89.0406 60.72C89.0406 56.9867 89.9206 53.6267 91.6806 50.64C93.494 47.6533 95.9206 45.28 98.9606 43.52C102.001 41.7067 105.387 40.8 109.121 40.8C112.907 40.8 116.321 41.68 119.361 43.44C122.401 45.2 124.801 47.6 126.561 50.64C128.374 53.6267 129.281 56.9867 129.281 60.72C129.281 64.4533 128.374 67.84 126.561 70.88C124.801 73.92 122.401 76.3467 119.361 78.16C116.321 79.92 112.907 80.8 109.121 80.8ZM109.121 72.32C111.307 72.32 113.227 71.84 114.881 70.88C116.587 69.8667 117.894 68.48 118.801 66.72C119.761 64.96 120.241 62.96 120.241 60.72C120.241 58.48 119.761 56.5067 118.801 54.8C117.841 53.0933 116.534 51.76 114.881 50.8C113.227 49.7867 111.307 49.28 109.121 49.28C106.987 49.28 105.067 49.7867 103.361 50.8C101.707 51.76 100.401 53.0933 99.4406 54.8C98.534 56.5067 98.0806 58.48 98.0806 60.72C98.0806 62.96 98.534 64.96 99.4406 66.72C100.401 68.48 101.707 69.8667 103.361 70.88C105.067 71.84 106.987 72.32 109.121 72.32ZM136.599 80V22.4H145.399V80H136.599ZM170.953 80.8C167.699 80.8 164.793 80.08 162.233 78.64C159.726 77.2 157.753 75.2267 156.313 72.72C154.926 70.16 154.233 67.2267 154.233 63.92V41.6H163.033V63.52C163.033 65.3867 163.326 66.9867 163.913 68.32C164.553 69.6 165.459 70.5867 166.633 71.28C167.859 71.9733 169.299 72.32 170.953 72.32C173.513 72.32 175.459 71.5733 176.793 70.08C178.179 68.5333 178.873 66.3467 178.873 63.52V41.6H187.673V63.92C187.673 67.28 186.953 70.24 185.513 72.8C184.126 75.3067 182.179 77.28 179.673 78.72C177.166 80.1067 174.259 80.8 170.953 80.8ZM214.201 80.8C210.414 80.8 206.974 79.92 203.881 78.16C200.841 76.4 198.441 74 196.681 70.96C194.921 67.92 194.041 64.5333 194.041 60.8C194.041 57.0133 194.921 53.6267 196.681 50.64C198.441 47.6 200.841 45.2 203.881 43.44C206.974 41.68 210.414 40.8 214.201 40.8C217.187 40.8 219.961 41.3867 222.521 42.56C225.134 43.68 227.347 45.3067 229.161 47.44L223.401 53.28C222.281 51.9467 220.921 50.96 219.321 50.32C217.774 49.6267 216.067 49.28 214.201 49.28C212.014 49.28 210.067 49.7867 208.361 50.8C206.707 51.76 205.401 53.0933 204.441 54.8C203.534 56.5067 203.081 58.5067 203.081 60.8C203.081 63.04 203.534 65.04 204.441 66.8C205.401 68.5067 206.707 69.8667 208.361 70.88C210.067 71.84 212.014 72.32 214.201 72.32C216.067 72.32 217.774 72 219.321 71.36C220.921 70.6667 222.281 69.6533 223.401 68.32L229.161 74.16C227.347 76.2933 225.134 77.9467 222.521 79.12C219.961 80.24 217.187 80.8 214.201 80.8ZM211.721 96.8C209.747 96.8 208.014 96.56 206.521 96.08C205.027 95.6 203.587 94.9067 202.201 94L205.801 89.44C206.387 89.9733 207.107 90.4 207.961 90.72C208.814 91.0933 209.854 91.28 211.081 91.28C212.467 91.28 213.454 91.0933 214.041 90.72C214.681 90.3467 215.001 89.8933 215.001 89.36C215.001 88.7733 214.707 88.24 214.121 87.76C213.587 87.3333 212.707 87.12 211.481 87.12H207.321L209.961 78.88H216.361L214.441 84.64L211.241 82.24C214.547 82.1333 217.214 82.7733 219.241 84.16C221.267 85.6 222.281 87.3867 222.281 89.52C222.281 91.6 221.294 93.3333 219.321 94.72C217.401 96.1067 214.867 96.8 211.721 96.8ZM250.804 80.8C247.337 80.8 244.19 79.92 241.364 78.16C238.59 76.4 236.377 74.0267 234.724 71.04C233.124 68 232.324 64.6133 232.324 60.88C232.324 57.0933 233.124 53.7067 234.724 50.72C236.377 47.68 238.59 45.28 241.364 43.52C244.19 41.7067 247.337 40.8 250.804 40.8C253.737 40.8 256.324 41.44 258.564 42.72C260.857 43.9467 262.67 45.6533 264.004 47.84C265.337 50.0267 266.004 52.5067 266.004 55.28V66.32C266.004 69.0933 265.337 71.5733 264.004 73.76C262.724 75.9467 260.937 77.68 258.644 78.96C256.35 80.1867 253.737 80.8 250.804 80.8ZM252.244 72.48C255.497 72.48 258.11 71.3867 260.084 69.2C262.11 67.0133 263.124 64.2133 263.124 60.8C263.124 58.5067 262.67 56.48 261.764 54.72C260.857 52.96 259.577 51.6 257.924 50.64C256.324 49.6267 254.43 49.12 252.244 49.12C250.11 49.12 248.217 49.6267 246.564 50.64C244.964 51.6 243.684 52.96 242.724 54.72C241.817 56.48 241.364 58.5067 241.364 60.8C241.364 63.0933 241.817 65.12 242.724 66.88C243.684 68.64 244.964 70.0267 246.564 71.04C248.217 72 250.11 72.48 252.244 72.48ZM262.564 80V69.68L264.084 60.32L262.564 51.04V41.6H271.364V80H262.564ZM258.804 36.08C257.044 36.08 255.55 35.76 254.324 35.12C253.097 34.48 251.95 33.8667 250.884 33.28C249.87 32.64 248.724 32.32 247.444 32.32C246.11 32.32 245.044 32.56 244.244 33.04C243.444 33.52 242.67 34.24 241.924 35.2L237.204 30.48C238.75 28.72 240.297 27.3333 241.844 26.32C243.39 25.2533 245.204 24.72 247.284 24.72C249.044 24.72 250.537 25.04 251.764 25.68C252.99 26.2667 254.137 26.88 255.204 27.52C256.27 28.16 257.417 28.48 258.644 28.48C260.03 28.48 261.124 28.24 261.924 27.76C262.724 27.28 263.47 26.56 264.164 25.6L268.884 30.32C267.337 32.08 265.79 33.4933 264.244 34.56C262.697 35.5733 260.884 36.08 258.804 36.08ZM298.73 80.8C294.997 80.8 291.61 79.92 288.57 78.16C285.53 76.3467 283.103 73.92 281.29 70.88C279.53 67.84 278.65 64.4533 278.65 60.72C278.65 56.9867 279.53 53.6267 281.29 50.64C283.103 47.6533 285.53 45.28 288.57 43.52C291.61 41.7067 294.997 40.8 298.73 40.8C302.517 40.8 305.93 41.68 308.97 43.44C312.01 45.2 314.41 47.6 316.17 50.64C317.983 53.6267 318.89 56.9867 318.89 60.72C318.89 64.4533 317.983 67.84 316.17 70.88C314.41 73.92 312.01 76.3467 308.97 78.16C305.93 79.92 302.517 80.8 298.73 80.8ZM298.73 72.32C300.917 72.32 302.837 71.84 304.49 70.88C306.197 69.8667 307.503 68.48 308.41 66.72C309.37 64.96 309.85 62.96 309.85 60.72C309.85 58.48 309.37 56.5067 308.41 54.8C307.45 53.0933 306.143 51.76 304.49 50.8C302.837 49.7867 300.917 49.28 298.73 49.28C296.597 49.28 294.677 49.7867 292.97 50.8C291.317 51.76 290.01 53.0933 289.05 54.8C288.143 56.5067 287.69 58.48 287.69 60.72C287.69 62.96 288.143 64.96 289.05 66.72C290.01 68.48 291.317 69.8667 292.97 70.88C294.677 71.84 296.597 72.32 298.73 72.32ZM358.304 80.8C354.837 80.8 351.69 79.92 348.864 78.16C346.09 76.4 343.877 74.0267 342.224 71.04C340.624 68 339.824 64.6133 339.824 60.88C339.824 57.0933 340.624 53.7067 342.224 50.72C343.877 47.68 346.09 45.28 348.864 43.52C351.69 41.7067 354.837 40.8 358.304 40.8C361.237 40.8 363.824 41.44 366.064 42.72C368.357 43.9467 370.17 45.6533 371.504 47.84C372.837 50.0267 373.504 52.5067 373.504 55.28V66.32C373.504 69.0933 372.837 71.5733 371.504 73.76C370.224 75.9467 368.437 77.68 366.144 78.96C363.85 80.1867 361.237 80.8 358.304 80.8ZM359.744 72.48C361.93 72.48 363.824 72 365.424 71.04C367.077 70.0267 368.357 68.64 369.264 66.88C370.17 65.12 370.624 63.0933 370.624 60.8C370.624 58.5067 370.17 56.48 369.264 54.72C368.357 52.96 367.077 51.6 365.424 50.64C363.824 49.6267 361.93 49.12 359.744 49.12C357.61 49.12 355.717 49.6267 354.064 50.64C352.464 51.6 351.184 52.96 350.224 54.72C349.317 56.48 348.864 58.5067 348.864 60.8C348.864 63.0933 349.317 65.12 350.224 66.88C351.184 68.64 352.464 70.0267 354.064 71.04C355.717 72 357.61 72.48 359.744 72.48ZM378.864 80H370.064V69.68L371.584 60.32L370.064 51.04V22.4H378.864V80ZM406.23 80.8C402.497 80.8 399.11 79.92 396.07 78.16C393.03 76.3467 390.603 73.92 388.79 70.88C387.03 67.84 386.15 64.4533 386.15 60.72C386.15 56.9867 387.03 53.6267 388.79 50.64C390.603 47.6533 393.03 45.28 396.07 43.52C399.11 41.7067 402.497 40.8 406.23 40.8C410.017 40.8 413.43 41.68 416.47 43.44C419.51 45.2 421.91 47.6 423.67 50.64C425.483 53.6267 426.39 56.9867 426.39 60.72C426.39 64.4533 425.483 67.84 423.67 70.88C421.91 73.92 419.51 76.3467 416.47 78.16C413.43 79.92 410.017 80.8 406.23 80.8ZM406.23 72.32C408.417 72.32 410.337 71.84 411.99 70.88C413.697 69.8667 415.003 68.48 415.91 66.72C416.87 64.96 417.35 62.96 417.35 60.72C417.35 58.48 416.87 56.5067 415.91 54.8C414.95 53.0933 413.643 51.76 411.99 50.8C410.337 49.7867 408.417 49.28 406.23 49.28C404.097 49.28 402.177 49.7867 400.47 50.8C398.817 51.76 397.51 53.0933 396.55 54.8C395.643 56.5067 395.19 58.48 395.19 60.72C395.19 62.96 395.643 64.96 396.55 66.72C397.51 68.48 398.817 69.8667 400.47 70.88C402.177 71.84 404.097 72.32 406.23 72.32ZM450.924 80V24H457.324L460.124 34.56V80H450.924ZM489.724 80L456.204 36.24L457.324 24L490.844 67.76L489.724 80ZM489.724 80L486.924 70.16V24H496.124V80H489.724ZM522.828 80.8C519.574 80.8 516.668 80.08 514.108 78.64C511.601 77.2 509.628 75.2267 508.188 72.72C506.801 70.16 506.108 67.2267 506.108 63.92V41.6H514.908V63.52C514.908 65.3867 515.201 66.9867 515.788 68.32C516.428 69.6 517.334 70.5867 518.508 71.28C519.734 71.9733 521.174 72.32 522.828 72.32C525.388 72.32 527.334 71.5733 528.668 70.08C530.054 68.5333 530.748 66.3467 530.748 63.52V41.6H539.548V63.92C539.548 67.28 538.828 70.24 537.388 72.8C536.001 75.3067 534.054 77.28 531.548 78.72C529.041 80.1067 526.134 80.8 522.828 80.8ZM518.348 36.08L514.348 32.08L524.588 19.04L531.388 25.84L518.348 36.08ZM548.396 80V41.6H557.196V80H548.396ZM573.916 80V57.12C573.916 54.56 573.116 52.5867 571.516 51.2C569.916 49.76 567.942 49.04 565.596 49.04C563.996 49.04 562.556 49.36 561.276 50C560.049 50.64 559.062 51.5733 558.316 52.8C557.569 53.9733 557.196 55.4133 557.196 57.12L553.756 55.2C553.756 52.2667 554.396 49.7333 555.676 47.6C556.956 45.4667 558.689 43.8133 560.876 42.64C563.062 41.4133 565.516 40.8 568.236 40.8C570.956 40.8 573.409 41.3867 575.596 42.56C577.782 43.7333 579.516 45.3867 580.796 47.52C582.076 49.6533 582.716 52.2133 582.716 55.2V80H573.916ZM599.436 80V57.12C599.436 54.56 598.636 52.5867 597.036 51.2C595.436 49.76 593.462 49.04 591.116 49.04C589.569 49.04 588.156 49.36 586.876 50C585.596 50.64 584.582 51.5733 583.836 52.8C583.089 53.9733 582.716 55.4133 582.716 57.12L577.756 55.2C578.022 52.2667 578.876 49.7333 580.316 47.6C581.756 45.4667 583.596 43.8133 585.836 42.64C588.129 41.4133 590.636 40.8 593.356 40.8C596.129 40.8 598.636 41.3867 600.876 42.56C603.116 43.7333 604.902 45.3867 606.236 47.52C607.569 49.6533 608.236 52.2133 608.236 55.2V80H599.436ZM635.142 80.8C631.302 80.8 627.835 79.9467 624.742 78.24C621.702 76.48 619.275 74.08 617.462 71.04C615.702 68 614.822 64.5867 614.822 60.8C614.822 57.0133 615.702 53.6267 617.462 50.64C619.222 47.6 621.595 45.2 624.582 43.44C627.622 41.68 630.982 40.8 634.662 40.8C638.235 40.8 641.382 41.6267 644.102 43.28C646.875 44.9333 649.035 47.2 650.582 50.08C652.182 52.96 652.982 56.24 652.982 59.92C652.982 60.56 652.929 61.2267 652.822 61.92C652.769 62.56 652.662 63.28 652.502 64.08H620.982V56.88H647.942L644.662 59.76C644.555 57.4133 644.102 55.44 643.302 53.84C642.502 52.24 641.355 51.0133 639.862 50.16C638.422 49.3067 636.635 48.88 634.502 48.88C632.262 48.88 630.315 49.36 628.662 50.32C627.009 51.28 625.729 52.64 624.822 54.4C623.915 56.1067 623.462 58.16 623.462 60.56C623.462 62.96 623.942 65.0667 624.902 66.88C625.862 68.6933 627.222 70.1067 628.982 71.12C630.742 72.08 632.769 72.56 635.062 72.56C637.035 72.56 638.849 72.2133 640.502 71.52C642.209 70.8267 643.649 69.8133 644.822 68.48L650.422 74.16C648.555 76.3467 646.289 78 643.622 79.12C640.955 80.24 638.129 80.8 635.142 80.8ZM660.036 80V41.6H668.836V80H660.036ZM668.836 58.64L665.796 57.12C665.796 52.2667 666.863 48.3467 668.996 45.36C671.183 42.32 674.463 40.8 678.836 40.8C680.756 40.8 682.49 41.1467 684.036 41.84C685.583 42.5333 687.023 43.6533 688.356 45.2L682.596 51.12C681.903 50.3733 681.13 49.84 680.276 49.52C679.423 49.2 678.436 49.04 677.316 49.04C674.863 49.04 672.836 49.8133 671.236 51.36C669.636 52.9067 668.836 55.3333 668.836 58.64ZM709.043 80.8C705.309 80.8 701.923 79.92 698.883 78.16C695.843 76.3467 693.416 73.92 691.603 70.88C689.843 67.84 688.963 64.4533 688.963 60.72C688.963 56.9867 689.843 53.6267 691.603 50.64C693.416 47.6533 695.843 45.28 698.883 43.52C701.923 41.7067 705.309 40.8 709.043 40.8C712.829 40.8 716.243 41.68 719.283 43.44C722.323 45.2 724.723 47.6 726.483 50.64C728.296 53.6267 729.203 56.9867 729.203 60.72C729.203 64.4533 728.296 67.84 726.483 70.88C724.723 73.92 722.323 76.3467 719.283 78.16C716.243 79.92 712.829 80.8 709.043 80.8ZM709.043 72.32C711.229 72.32 713.149 71.84 714.803 70.88C716.509 69.8667 717.816 68.48 718.723 66.72C719.683 64.96 720.163 62.96 720.163 60.72C720.163 58.48 719.683 56.5067 718.723 54.8C717.763 53.0933 716.456 51.76 714.803 50.8C713.149 49.7867 711.229 49.28 709.043 49.28C706.909 49.28 704.989 49.7867 703.283 50.8C701.629 51.76 700.323 53.0933 699.363 54.8C698.456 56.5067 698.003 58.48 698.003 60.72C698.003 62.96 698.456 64.96 699.363 66.72C700.323 68.48 701.629 69.8667 703.283 70.88C704.989 71.84 706.909 72.32 709.043 72.32ZM768.616 80.8C765.15 80.8 762.003 79.92 759.176 78.16C756.403 76.4 754.19 74.0267 752.536 71.04C750.936 68 750.136 64.6133 750.136 60.88C750.136 57.0933 750.936 53.7067 752.536 50.72C754.19 47.68 756.403 45.28 759.176 43.52C762.003 41.7067 765.15 40.8 768.616 40.8C771.55 40.8 774.136 41.44 776.376 42.72C778.67 43.9467 780.483 45.6533 781.816 47.84C783.15 50.0267 783.816 52.5067 783.816 55.28V66.32C783.816 69.0933 783.15 71.5733 781.816 73.76C780.536 75.9467 778.75 77.68 776.456 78.96C774.163 80.1867 771.55 80.8 768.616 80.8ZM770.056 72.48C772.243 72.48 774.136 72 775.736 71.04C777.39 70.0267 778.67 68.64 779.576 66.88C780.483 65.12 780.936 63.0933 780.936 60.8C780.936 58.5067 780.483 56.48 779.576 54.72C778.67 52.96 777.39 51.6 775.736 50.64C774.136 49.6267 772.243 49.12 770.056 49.12C767.923 49.12 766.03 49.6267 764.376 50.64C762.776 51.6 761.496 52.96 760.536 54.72C759.63 56.48 759.176 58.5067 759.176 60.8C759.176 63.0933 759.63 65.12 760.536 66.88C761.496 68.64 762.776 70.0267 764.376 71.04C766.03 72 767.923 72.48 770.056 72.48ZM789.176 80H780.376V69.68L781.896 60.32L780.376 51.04V22.4H789.176V80ZM816.783 80.8C812.943 80.8 809.476 79.9467 806.383 78.24C803.343 76.48 800.916 74.08 799.103 71.04C797.343 68 796.463 64.5867 796.463 60.8C796.463 57.0133 797.343 53.6267 799.103 50.64C800.863 47.6 803.236 45.2 806.223 43.44C809.263 41.68 812.623 40.8 816.303 40.8C819.876 40.8 823.023 41.6267 825.743 43.28C828.516 44.9333 830.676 47.2 832.223 50.08C833.823 52.96 834.623 56.24 834.623 59.92C834.623 60.56 834.569 61.2267 834.462 61.92C834.409 62.56 834.303 63.28 834.143 64.08H802.623V56.88H829.583L826.303 59.76C826.196 57.4133 825.743 55.44 824.943 53.84C824.143 52.24 822.996 51.0133 821.503 50.16C820.063 49.3067 818.276 48.88 816.143 48.88C813.903 48.88 811.956 49.36 810.303 50.32C808.649 51.28 807.369 52.64 806.463 54.4C805.556 56.1067 805.103 58.16 805.103 60.56C805.103 62.96 805.583 65.0667 806.543 66.88C807.503 68.6933 808.863 70.1067 810.623 71.12C812.383 72.08 814.409 72.56 816.703 72.56C818.676 72.56 820.489 72.2133 822.143 71.52C823.849 70.8267 825.289 69.8133 826.463 68.48L832.063 74.16C830.196 76.3467 827.929 78 825.263 79.12C822.596 80.24 819.769 80.8 816.783 80.8ZM875.533 80.8C871.693 80.8 868.226 79.9467 865.133 78.24C862.093 76.48 859.666 74.08 857.853 71.04C856.093 68 855.213 64.5867 855.213 60.8C855.213 57.0133 856.093 53.6267 857.853 50.64C859.613 47.6 861.986 45.2 864.973 43.44C868.013 41.68 871.373 40.8 875.053 40.8C878.626 40.8 881.773 41.6267 884.493 43.28C887.266 44.9333 889.426 47.2 890.973 50.08C892.573 52.96 893.373 56.24 893.373 59.92C893.373 60.56 893.319 61.2267 893.212 61.92C893.159 62.56 893.053 63.28 892.893 64.08H861.373V56.88H888.333L885.053 59.76C884.946 57.4133 884.493 55.44 883.693 53.84C882.893 52.24 881.746 51.0133 880.253 50.16C878.813 49.3067 877.026 48.88 874.893 48.88C872.653 48.88 870.706 49.36 869.053 50.32C867.399 51.28 866.119 52.64 865.213 54.4C864.306 56.1067 863.853 58.16 863.853 60.56C863.853 62.96 864.333 65.0667 865.293 66.88C866.253 68.6933 867.613 70.1067 869.373 71.12C871.133 72.08 873.159 72.56 875.453 72.56C877.426 72.56 879.239 72.2133 880.893 71.52C882.599 70.8267 884.039 69.8133 885.213 68.48L890.813 74.16C888.946 76.3467 886.679 78 884.013 79.12C881.346 80.24 878.519 80.8 875.533 80.8ZM912.987 80.8C910.854 80.8 908.8 80.5333 906.827 80C904.854 79.4133 903.04 78.6133 901.387 77.6C899.734 76.5333 898.294 75.2533 897.067 73.76L902.667 68.16C904 69.7067 905.52 70.88 907.227 71.68C908.987 72.4267 910.96 72.8 913.147 72.8C915.12 72.8 916.614 72.5067 917.627 71.92C918.64 71.3333 919.147 70.48 919.147 69.36C919.147 68.1867 918.667 67.28 917.707 66.64C916.747 66 915.494 65.4667 913.947 65.04C912.454 64.56 910.854 64.08 909.147 63.6C907.494 63.12 905.894 62.48 904.347 61.68C902.854 60.8267 901.627 59.68 900.667 58.24C899.707 56.8 899.227 54.9333 899.227 52.64C899.227 50.1867 899.787 48.08 900.907 46.32C902.08 44.56 903.707 43.2 905.787 42.24C907.92 41.28 910.454 40.8 913.387 40.8C916.48 40.8 919.2 41.36 921.547 42.48C923.947 43.5467 925.947 45.1733 927.547 47.36L921.947 52.96C920.827 51.5733 919.547 50.5333 918.107 49.84C916.667 49.1467 915.014 48.8 913.147 48.8C911.387 48.8 910.027 49.0667 909.067 49.6C908.107 50.1333 907.627 50.9067 907.627 51.92C907.627 52.9867 908.107 53.8133 909.067 54.4C910.027 54.9867 911.254 55.4933 912.747 55.92C914.294 56.3467 915.894 56.8267 917.547 57.36C919.254 57.84 920.854 58.5333 922.347 59.44C923.894 60.2933 925.147 61.4667 926.107 62.96C927.067 64.4 927.547 66.2933 927.547 68.64C927.547 72.3733 926.24 75.3333 923.627 77.52C921.014 79.7067 917.467 80.8 912.987 80.8ZM940.642 80V25.6H949.442V80H940.642ZM931.442 49.6V41.6H958.642V49.6H931.442ZM980.023 80.8C976.556 80.8 973.409 79.92 970.583 78.16C967.809 76.4 965.596 74.0267 963.943 71.04C962.343 68 961.543 64.6133 961.543 60.88C961.543 57.0933 962.343 53.7067 963.943 50.72C965.596 47.68 967.809 45.28 970.583 43.52C973.409 41.7067 976.556 40.8 980.023 40.8C982.956 40.8 985.543 41.44 987.783 42.72C990.076 43.9467 991.889 45.6533 993.223 47.84C994.556 50.0267 995.223 52.5067 995.223 55.28V66.32C995.223 69.0933 994.556 71.5733 993.223 73.76C991.943 75.9467 990.156 77.68 987.863 78.96C985.569 80.1867 982.956 80.8 980.023 80.8ZM981.463 72.48C984.716 72.48 987.329 71.3867 989.303 69.2C991.329 67.0133 992.343 64.2133 992.343 60.8C992.343 58.5067 991.889 56.48 990.983 54.72C990.076 52.96 988.796 51.6 987.143 50.64C985.543 49.6267 983.649 49.12 981.463 49.12C979.329 49.12 977.436 49.6267 975.783 50.64C974.183 51.6 972.903 52.96 971.943 54.72C971.036 56.48 970.583 58.5067 970.583 60.8C970.583 63.0933 971.036 65.12 971.943 66.88C972.903 68.64 974.183 70.0267 975.783 71.04C977.436 72 979.329 72.48 981.463 72.48ZM991.783 80V69.68L993.303 60.32L991.783 51.04V41.6H1000.58V80H991.783ZM1030.91 80.8C1027.98 80.8 1025.36 80.1867 1023.07 78.96C1020.78 77.68 1018.96 75.9467 1017.63 73.76C1016.35 71.5733 1015.71 69.0933 1015.71 66.32V55.28C1015.71 52.5067 1016.38 50.0267 1017.71 47.84C1019.04 45.6533 1020.86 43.9467 1023.15 42.72C1025.44 41.44 1028.03 40.8 1030.91 40.8C1034.38 40.8 1037.5 41.7067 1040.27 43.52C1043.1 45.28 1045.31 47.68 1046.91 50.72C1048.56 53.7067 1049.39 57.0933 1049.39 60.88C1049.39 64.6133 1048.56 68 1046.91 71.04C1045.31 74.0267 1043.1 76.4 1040.27 78.16C1037.5 79.92 1034.38 80.8 1030.91 80.8ZM1010.35 80V22.4H1019.15V51.04L1017.63 60.32L1019.15 69.68V80H1010.35ZM1029.47 72.48C1031.6 72.48 1033.47 72 1035.07 71.04C1036.72 70.0267 1038 68.64 1038.91 66.88C1039.87 65.12 1040.35 63.0933 1040.35 60.8C1040.35 58.5067 1039.87 56.48 1038.91 54.72C1038 52.96 1036.72 51.6 1035.07 50.64C1033.47 49.6267 1031.6 49.12 1029.47 49.12C1027.34 49.12 1025.44 49.6267 1023.79 50.64C1022.14 51.6 1020.86 52.96 1019.95 54.72C1019.04 56.48 1018.59 58.5067 1018.59 60.8C1018.59 63.0933 1019.04 65.12 1019.95 66.88C1020.86 68.64 1022.14 70.0267 1023.79 71.04C1025.44 72 1027.34 72.48 1029.47 72.48ZM1074.6 80.8C1070.76 80.8 1067.29 79.9467 1064.2 78.24C1061.16 76.48 1058.73 74.08 1056.92 71.04C1055.16 68 1054.28 64.5867 1054.28 60.8C1054.28 57.0133 1055.16 53.6267 1056.92 50.64C1058.68 47.6 1061.05 45.2 1064.04 43.44C1067.08 41.68 1070.44 40.8 1074.12 40.8C1077.69 40.8 1080.84 41.6267 1083.56 43.28C1086.33 44.9333 1088.49 47.2 1090.04 50.08C1091.64 52.96 1092.44 56.24 1092.44 59.92C1092.44 60.56 1092.38 61.2267 1092.27 61.92C1092.22 62.56 1092.12 63.28 1091.96 64.08H1060.44V56.88H1087.4L1084.12 59.76C1084.01 57.4133 1083.56 55.44 1082.76 53.84C1081.96 52.24 1080.81 51.0133 1079.32 50.16C1077.88 49.3067 1076.09 48.88 1073.96 48.88C1071.72 48.88 1069.77 49.36 1068.12 50.32C1066.46 51.28 1065.18 52.64 1064.28 54.4C1063.37 56.1067 1062.92 58.16 1062.92 60.56C1062.92 62.96 1063.4 65.0667 1064.36 66.88C1065.32 68.6933 1066.68 70.1067 1068.44 71.12C1070.2 72.08 1072.22 72.56 1074.52 72.56C1076.49 72.56 1078.3 72.2133 1079.96 71.52C1081.66 70.8267 1083.1 69.8133 1084.28 68.48L1089.88 74.16C1088.01 76.3467 1085.74 78 1083.08 79.12C1080.41 80.24 1077.58 80.8 1074.6 80.8ZM1099.49 80V22.4H1108.29V80H1099.49ZM1135.92 80.8C1132.08 80.8 1128.62 79.9467 1125.52 78.24C1122.48 76.48 1120.06 74.08 1118.24 71.04C1116.48 68 1115.6 64.5867 1115.6 60.8C1115.6 57.0133 1116.48 53.6267 1118.24 50.64C1120 47.6 1122.38 45.2 1125.36 43.44C1128.4 41.68 1131.76 40.8 1135.44 40.8C1139.02 40.8 1142.16 41.6267 1144.88 43.28C1147.66 44.9333 1149.82 47.2 1151.36 50.08C1152.96 52.96 1153.76 56.24 1153.76 59.92C1153.76 60.56 1153.71 61.2267 1153.6 61.92C1153.55 62.56 1153.44 63.28 1153.28 64.08H1121.76V56.88H1148.72L1145.44 59.76C1145.34 57.4133 1144.88 55.44 1144.08 53.84C1143.28 52.24 1142.14 51.0133 1140.64 50.16C1139.2 49.3067 1137.42 48.88 1135.28 48.88C1133.04 48.88 1131.1 49.36 1129.44 50.32C1127.79 51.28 1126.51 52.64 1125.6 54.4C1124.7 56.1067 1124.24 58.16 1124.24 60.56C1124.24 62.96 1124.72 65.0667 1125.68 66.88C1126.64 68.6933 1128 70.1067 1129.76 71.12C1131.52 72.08 1133.55 72.56 1135.84 72.56C1137.82 72.56 1139.63 72.2133 1141.28 71.52C1142.99 70.8267 1144.43 69.8133 1145.6 68.48L1151.2 74.16C1149.34 76.3467 1147.07 78 1144.4 79.12C1141.74 80.24 1138.91 80.8 1135.92 80.8ZM1178.5 80.8C1174.71 80.8 1171.27 79.92 1168.18 78.16C1165.14 76.4 1162.74 74 1160.98 70.96C1159.22 67.92 1158.34 64.5333 1158.34 60.8C1158.34 57.0133 1159.22 53.6267 1160.98 50.64C1162.74 47.6 1165.14 45.2 1168.18 43.44C1171.27 41.68 1174.71 40.8 1178.5 40.8C1181.48 40.8 1184.26 41.3867 1186.82 42.56C1189.43 43.68 1191.64 45.3067 1193.46 47.44L1187.7 53.28C1186.58 51.9467 1185.22 50.96 1183.62 50.32C1182.07 49.6267 1180.36 49.28 1178.5 49.28C1176.31 49.28 1174.36 49.7867 1172.66 50.8C1171 51.76 1169.7 53.0933 1168.74 54.8C1167.83 56.5067 1167.38 58.5067 1167.38 60.8C1167.38 63.04 1167.83 65.04 1168.74 66.8C1169.7 68.5067 1171 69.8667 1172.66 70.88C1174.36 71.84 1176.31 72.32 1178.5 72.32C1180.36 72.32 1182.07 72 1183.62 71.36C1185.22 70.6667 1186.58 69.6533 1187.7 68.32L1193.46 74.16C1191.64 76.2933 1189.43 77.9467 1186.82 79.12C1184.26 80.24 1181.48 80.8 1178.5 80.8ZM1199.88 80V41.6H1208.68V80H1199.88ZM1204.28 34.56C1202.79 34.56 1201.54 34.0533 1200.52 33.04C1199.56 32.0267 1199.08 30.7733 1199.08 29.28C1199.08 27.7867 1199.56 26.5333 1200.52 25.52C1201.54 24.5067 1202.79 24 1204.28 24C1205.83 24 1207.08 24.5067 1208.04 25.52C1209 26.5333 1209.48 27.7867 1209.48 29.28C1209.48 30.7733 1209 32.0267 1208.04 33.04C1207.08 34.0533 1205.83 34.56 1204.28 34.56ZM1218.55 80V41.6H1227.35V80H1218.55ZM1244.07 80V57.12C1244.07 54.56 1243.27 52.5867 1241.67 51.2C1240.07 49.76 1238.1 49.04 1235.75 49.04C1234.15 49.04 1232.71 49.36 1231.43 50C1230.21 50.64 1229.22 51.5733 1228.47 52.8C1227.73 53.9733 1227.35 55.4133 1227.35 57.12L1223.91 55.2C1223.91 52.2667 1224.55 49.7333 1225.83 47.6C1227.11 45.4667 1228.85 43.8133 1231.03 42.64C1233.22 41.4133 1235.67 40.8 1238.39 40.8C1241.11 40.8 1243.57 41.3867 1245.75 42.56C1247.94 43.7333 1249.67 45.3867 1250.95 47.52C1252.23 49.6533 1252.87 52.2133 1252.87 55.2V80H1244.07ZM1269.59 80V57.12C1269.59 54.56 1268.79 52.5867 1267.19 51.2C1265.59 49.76 1263.62 49.04 1261.27 49.04C1259.73 49.04 1258.31 49.36 1257.03 50C1255.75 50.64 1254.74 51.5733 1253.99 52.8C1253.25 53.9733 1252.87 55.4133 1252.87 57.12L1247.91 55.2C1248.18 52.2667 1249.03 49.7333 1250.47 47.6C1251.91 45.4667 1253.75 43.8133 1255.99 42.64C1258.29 41.4133 1260.79 40.8 1263.51 40.8C1266.29 40.8 1268.79 41.3867 1271.03 42.56C1273.27 43.7333 1275.06 45.3867 1276.39 47.52C1277.73 49.6533 1278.39 52.2133 1278.39 55.2V80H1269.59ZM1305.3 80.8C1301.46 80.8 1297.99 79.9467 1294.9 78.24C1291.86 76.48 1289.43 74.08 1287.62 71.04C1285.86 68 1284.98 64.5867 1284.98 60.8C1284.98 57.0133 1285.86 53.6267 1287.62 50.64C1289.38 47.6 1291.75 45.2 1294.74 43.44C1297.78 41.68 1301.14 40.8 1304.82 40.8C1308.39 40.8 1311.54 41.6267 1314.26 43.28C1317.03 44.9333 1319.19 47.2 1320.74 50.08C1322.34 52.96 1323.14 56.24 1323.14 59.92C1323.14 60.56 1323.08 61.2267 1322.98 61.92C1322.92 62.56 1322.82 63.28 1322.66 64.08H1291.14V56.88H1318.1L1314.82 59.76C1314.71 57.4133 1314.26 55.44 1313.46 53.84C1312.66 52.24 1311.51 51.0133 1310.02 50.16C1308.58 49.3067 1306.79 48.88 1304.66 48.88C1302.42 48.88 1300.47 49.36 1298.82 50.32C1297.16 51.28 1295.88 52.64 1294.98 54.4C1294.07 56.1067 1293.62 58.16 1293.62 60.56C1293.62 62.96 1294.1 65.0667 1295.06 66.88C1296.02 68.6933 1297.38 70.1067 1299.14 71.12C1300.9 72.08 1302.92 72.56 1305.22 72.56C1307.19 72.56 1309 72.2133 1310.66 71.52C1312.36 70.8267 1313.8 69.8133 1314.98 68.48L1320.58 74.16C1318.71 76.3467 1316.44 78 1313.78 79.12C1311.11 80.24 1308.28 80.8 1305.3 80.8ZM1356.51 80V57.84C1356.51 55.28 1355.69 53.1733 1354.03 51.52C1352.43 49.8667 1350.35 49.04 1347.79 49.04C1346.09 49.04 1344.57 49.4133 1343.23 50.16C1341.9 50.9067 1340.86 51.9467 1340.11 53.28C1339.37 54.6133 1338.99 56.1333 1338.99 57.84L1335.55 55.92C1335.55 52.9867 1336.19 50.4 1337.47 48.16C1338.75 45.8667 1340.51 44.08 1342.75 42.8C1345.05 41.4667 1347.61 40.8 1350.43 40.8C1353.31 40.8 1355.87 41.5467 1358.11 43.04C1360.35 44.48 1362.11 46.3733 1363.39 48.72C1364.67 51.0133 1365.31 53.4133 1365.31 55.92V80H1356.51ZM1330.19 80V41.6H1338.99V80H1330.19ZM1379.63 80V25.6H1388.43V80H1379.63ZM1370.43 49.6V41.6H1397.63V49.6H1370.43ZM1420.53 80.8C1416.79 80.8 1413.41 79.92 1410.37 78.16C1407.33 76.3467 1404.9 73.92 1403.09 70.88C1401.33 67.84 1400.45 64.4533 1400.45 60.72C1400.45 56.9867 1401.33 53.6267 1403.09 50.64C1404.9 47.6533 1407.33 45.28 1410.37 43.52C1413.41 41.7067 1416.79 40.8 1420.53 40.8C1424.31 40.8 1427.73 41.68 1430.77 43.44C1433.81 45.2 1436.21 47.6 1437.97 50.64C1439.78 53.6267 1440.69 56.9867 1440.69 60.72C1440.69 64.4533 1439.78 67.84 1437.97 70.88C1436.21 73.92 1433.81 76.3467 1430.77 78.16C1427.73 79.92 1424.31 80.8 1420.53 80.8ZM1420.53 72.32C1422.71 72.32 1424.63 71.84 1426.29 70.88C1427.99 69.8667 1429.3 68.48 1430.21 66.72C1431.17 64.96 1431.65 62.96 1431.65 60.72C1431.65 58.48 1431.17 56.5067 1430.21 54.8C1429.25 53.0933 1427.94 51.76 1426.29 50.8C1424.63 49.7867 1422.71 49.28 1420.53 49.28C1418.39 49.28 1416.47 49.7867 1414.77 50.8C1413.11 51.76 1411.81 53.0933 1410.85 54.8C1409.94 56.5067 1409.49 58.48 1409.49 60.72C1409.49 62.96 1409.94 64.96 1410.85 66.72C1411.81 68.48 1413.11 69.8667 1414.77 70.88C1416.47 71.84 1418.39 72.32 1420.53 72.32ZM1460.57 80.8C1458.43 80.8 1456.38 80.5333 1454.41 80C1452.43 79.4133 1450.62 78.6133 1448.97 77.6C1447.31 76.5333 1445.87 75.2533 1444.65 73.76L1450.25 68.16C1451.58 69.7067 1453.1 70.88 1454.81 71.68C1456.57 72.4267 1458.54 72.8 1460.73 72.8C1462.7 72.8 1464.19 72.5067 1465.21 71.92C1466.22 71.3333 1466.73 70.48 1466.73 69.36C1466.73 68.1867 1466.25 67.28 1465.29 66.64C1464.33 66 1463.07 65.4667 1461.53 65.04C1460.03 64.56 1458.43 64.08 1456.73 63.6C1455.07 63.12 1453.47 62.48 1451.93 61.68C1450.43 60.8267 1449.21 59.68 1448.25 58.24C1447.29 56.8 1446.81 54.9333 1446.81 52.64C1446.81 50.1867 1447.37 48.08 1448.49 46.32C1449.66 44.56 1451.29 43.2 1453.37 42.24C1455.5 41.28 1458.03 40.8 1460.97 40.8C1464.06 40.8 1466.78 41.36 1469.13 42.48C1471.53 43.5467 1473.53 45.1733 1475.13 47.36L1469.53 52.96C1468.41 51.5733 1467.13 50.5333 1465.69 49.84C1464.25 49.1467 1462.59 48.8 1460.73 48.8C1458.97 48.8 1457.61 49.0667 1456.65 49.6C1455.69 50.1333 1455.21 50.9067 1455.21 51.92C1455.21 52.9867 1455.69 53.8133 1456.65 54.4C1457.61 54.9867 1458.83 55.4933 1460.33 55.92C1461.87 56.3467 1463.47 56.8267 1465.13 57.36C1466.83 57.84 1468.43 58.5333 1469.93 59.44C1471.47 60.2933 1472.73 61.4667 1473.69 62.96C1474.65 64.4 1475.13 66.2933 1475.13 68.64C1475.13 72.3733 1473.82 75.3333 1471.21 77.52C1468.59 79.7067 1465.05 80.8 1460.57 80.8ZM1514.48 80.8C1511.01 80.8 1507.86 79.92 1505.04 78.16C1502.26 76.4 1500.05 74.0267 1498.4 71.04C1496.8 68 1496 64.6133 1496 60.88C1496 57.0933 1496.8 53.7067 1498.4 50.72C1500.05 47.68 1502.26 45.28 1505.04 43.52C1507.86 41.7067 1511.01 40.8 1514.48 40.8C1517.41 40.8 1520 41.44 1522.24 42.72C1524.53 43.9467 1526.34 45.6533 1527.68 47.84C1529.01 50.0267 1529.68 52.5067 1529.68 55.28V66.32C1529.68 69.0933 1529.01 71.5733 1527.68 73.76C1526.4 75.9467 1524.61 77.68 1522.32 78.96C1520.02 80.1867 1517.41 80.8 1514.48 80.8ZM1515.92 72.48C1518.1 72.48 1520 72 1521.6 71.04C1523.25 70.0267 1524.53 68.64 1525.44 66.88C1526.34 65.12 1526.8 63.0933 1526.8 60.8C1526.8 58.5067 1526.34 56.48 1525.44 54.72C1524.53 52.96 1523.25 51.6 1521.6 50.64C1520 49.6267 1518.1 49.12 1515.92 49.12C1513.78 49.12 1511.89 49.6267 1510.24 50.64C1508.64 51.6 1507.36 52.96 1506.4 54.72C1505.49 56.48 1505.04 58.5067 1505.04 60.8C1505.04 63.0933 1505.49 65.12 1506.4 66.88C1507.36 68.64 1508.64 70.0267 1510.24 71.04C1511.89 72 1513.78 72.48 1515.92 72.48ZM1535.04 80H1526.24V69.68L1527.76 60.32L1526.24 51.04V22.4H1535.04V80ZM1562.64 80.8C1558.8 80.8 1555.34 79.9467 1552.24 78.24C1549.2 76.48 1546.78 74.08 1544.96 71.04C1543.2 68 1542.32 64.5867 1542.32 60.8C1542.32 57.0133 1543.2 53.6267 1544.96 50.64C1546.72 47.6 1549.1 45.2 1552.08 43.44C1555.12 41.68 1558.48 40.8 1562.16 40.8C1565.74 40.8 1568.88 41.6267 1571.6 43.28C1574.38 44.9333 1576.54 47.2 1578.08 50.08C1579.68 52.96 1580.48 56.24 1580.48 59.92C1580.48 60.56 1580.43 61.2267 1580.32 61.92C1580.27 62.56 1580.16 63.28 1580 64.08H1548.48V56.88H1575.44L1572.16 59.76C1572.06 57.4133 1571.6 55.44 1570.8 53.84C1570 52.24 1568.86 51.0133 1567.36 50.16C1565.92 49.3067 1564.14 48.88 1562 48.88C1559.76 48.88 1557.82 49.36 1556.16 50.32C1554.51 51.28 1553.23 52.64 1552.32 54.4C1551.42 56.1067 1550.96 58.16 1550.96 60.56C1550.96 62.96 1551.44 65.0667 1552.4 66.88C1553.36 68.6933 1554.72 70.1067 1556.48 71.12C1558.24 72.08 1560.27 72.56 1562.56 72.56C1564.54 72.56 1566.35 72.2133 1568 71.52C1569.71 70.8267 1571.15 69.8133 1572.32 68.48L1577.92 74.16C1576.06 76.3467 1573.79 78 1571.12 79.12C1568.46 80.24 1565.63 80.8 1562.64 80.8ZM1621.39 80.8C1617.55 80.8 1614.09 79.9467 1610.99 78.24C1607.95 76.48 1605.53 74.08 1603.71 71.04C1601.95 68 1601.07 64.5867 1601.07 60.8C1601.07 57.0133 1601.95 53.6267 1603.71 50.64C1605.47 47.6 1607.85 45.2 1610.83 43.44C1613.87 41.68 1617.23 40.8 1620.91 40.8C1624.49 40.8 1627.63 41.6267 1630.35 43.28C1633.13 44.9333 1635.29 47.2 1636.83 50.08C1638.43 52.96 1639.23 56.24 1639.23 59.92C1639.23 60.56 1639.18 61.2267 1639.07 61.92C1639.02 62.56 1638.91 63.28 1638.75 64.08H1607.23V56.88H1634.19L1630.91 59.76C1630.81 57.4133 1630.35 55.44 1629.55 53.84C1628.75 52.24 1627.61 51.0133 1626.11 50.16C1624.67 49.3067 1622.89 48.88 1620.75 48.88C1618.51 48.88 1616.57 49.36 1614.91 50.32C1613.26 51.28 1611.98 52.64 1611.07 54.4C1610.17 56.1067 1609.71 58.16 1609.71 60.56C1609.71 62.96 1610.19 65.0667 1611.15 66.88C1612.11 68.6933 1613.47 70.1067 1615.23 71.12C1616.99 72.08 1619.02 72.56 1621.31 72.56C1623.29 72.56 1625.1 72.2133 1626.75 71.52C1628.46 70.8267 1629.9 69.8133 1631.07 68.48L1636.67 74.16C1634.81 76.3467 1632.54 78 1629.87 79.12C1627.21 80.24 1624.38 80.8 1621.39 80.8ZM1672.61 80V57.84C1672.61 55.28 1671.78 53.1733 1670.13 51.52C1668.53 49.8667 1666.45 49.04 1663.89 49.04C1662.18 49.04 1660.66 49.4133 1659.33 50.16C1657.99 50.9067 1656.95 51.9467 1656.21 53.28C1655.46 54.6133 1655.09 56.1333 1655.09 57.84L1651.65 55.92C1651.65 52.9867 1652.29 50.4 1653.57 48.16C1654.85 45.8667 1656.61 44.08 1658.85 42.8C1661.14 41.4667 1663.7 40.8 1666.53 40.8C1669.41 40.8 1671.97 41.5467 1674.21 43.04C1676.45 44.48 1678.21 46.3733 1679.49 48.72C1680.77 51.0133 1681.41 53.4133 1681.41 55.92V80H1672.61ZM1646.29 80V41.6H1655.09V80H1646.29ZM1702.91 80.8C1700.78 80.8 1698.72 80.5333 1696.75 80C1694.78 79.4133 1692.96 78.6133 1691.31 77.6C1689.66 76.5333 1688.22 75.2533 1686.99 73.76L1692.59 68.16C1693.92 69.7067 1695.44 70.88 1697.15 71.68C1698.91 72.4267 1700.88 72.8 1703.07 72.8C1705.04 72.8 1706.54 72.5067 1707.55 71.92C1708.56 71.3333 1709.07 70.48 1709.07 69.36C1709.07 68.1867 1708.59 67.28 1707.63 66.64C1706.67 66 1705.42 65.4667 1703.87 65.04C1702.38 64.56 1700.78 64.08 1699.07 63.6C1697.42 63.12 1695.82 62.48 1694.27 61.68C1692.78 60.8267 1691.55 59.68 1690.59 58.24C1689.63 56.8 1689.15 54.9333 1689.15 52.64C1689.15 50.1867 1689.71 48.08 1690.83 46.32C1692 44.56 1693.63 43.2 1695.71 42.24C1697.84 41.28 1700.38 40.8 1703.31 40.8C1706.4 40.8 1709.12 41.36 1711.47 42.48C1713.87 43.5467 1715.87 45.1733 1717.47 47.36L1711.87 52.96C1710.75 51.5733 1709.47 50.5333 1708.03 49.84C1706.59 49.1467 1704.94 48.8 1703.07 48.8C1701.31 48.8 1699.95 49.0667 1698.99 49.6C1698.03 50.1333 1697.55 50.9067 1697.55 51.92C1697.55 52.9867 1698.03 53.8133 1698.99 54.4C1699.95 54.9867 1701.18 55.4933 1702.67 55.92C1704.22 56.3467 1705.82 56.8267 1707.47 57.36C1709.18 57.84 1710.78 58.5333 1712.27 59.44C1713.82 60.2933 1715.07 61.4667 1716.03 62.96C1716.99 64.4 1717.47 66.2933 1717.47 68.64C1717.47 72.3733 1716.16 75.3333 1713.55 77.52C1710.94 79.7067 1707.39 80.8 1702.91 80.8ZM1724.8 80V41.6H1733.6V80H1724.8ZM1729.2 34.56C1727.71 34.56 1726.46 34.0533 1725.44 33.04C1724.48 32.0267 1724 30.7733 1724 29.28C1724 27.7867 1724.48 26.5333 1725.44 25.52C1726.46 24.5067 1727.71 24 1729.2 24C1730.75 24 1732 24.5067 1732.96 25.52C1733.92 26.5333 1734.4 27.7867 1734.4 29.28C1734.4 30.7733 1733.92 32.0267 1732.96 33.04C1732 34.0533 1730.75 34.56 1729.2 34.56ZM1769.79 80V57.84C1769.79 55.28 1768.97 53.1733 1767.31 51.52C1765.71 49.8667 1763.63 49.04 1761.07 49.04C1759.37 49.04 1757.85 49.4133 1756.51 50.16C1755.18 50.9067 1754.14 51.9467 1753.39 53.28C1752.65 54.6133 1752.27 56.1333 1752.27 57.84L1748.83 55.92C1748.83 52.9867 1749.47 50.4 1750.75 48.16C1752.03 45.8667 1753.79 44.08 1756.03 42.8C1758.33 41.4667 1760.89 40.8 1763.71 40.8C1766.59 40.8 1769.15 41.5467 1771.39 43.04C1773.63 44.48 1775.39 46.3733 1776.67 48.72C1777.95 51.0133 1778.59 53.4133 1778.59 55.92V80H1769.79ZM1743.47 80V41.6H1752.27V80H1743.47ZM1805.14 80.8C1801.4 80.8 1798.02 79.92 1794.98 78.16C1791.94 76.3467 1789.51 73.92 1787.7 70.88C1785.94 67.84 1785.06 64.4533 1785.06 60.72C1785.06 56.9867 1785.94 53.6267 1787.7 50.64C1789.51 47.6533 1791.94 45.28 1794.98 43.52C1798.02 41.7067 1801.4 40.8 1805.14 40.8C1808.92 40.8 1812.34 41.68 1815.38 43.44C1818.42 45.2 1820.82 47.6 1822.58 50.64C1824.39 53.6267 1825.3 56.9867 1825.3 60.72C1825.3 64.4533 1824.39 67.84 1822.58 70.88C1820.82 73.92 1818.42 76.3467 1815.38 78.16C1812.34 79.92 1808.92 80.8 1805.14 80.8ZM1805.14 72.32C1807.32 72.32 1809.24 71.84 1810.9 70.88C1812.6 69.8667 1813.91 68.48 1814.82 66.72C1815.78 64.96 1816.26 62.96 1816.26 60.72C1816.26 58.48 1815.78 56.5067 1814.82 54.8C1813.86 53.0933 1812.55 51.76 1810.9 50.8C1809.24 49.7867 1807.32 49.28 1805.14 49.28C1803 49.28 1801.08 49.7867 1799.38 50.8C1797.72 51.76 1796.42 53.0933 1795.46 54.8C1794.55 56.5067 1794.1 58.48 1794.1 60.72C1794.1 62.96 1794.55 64.96 1795.46 66.72C1796.42 68.48 1797.72 69.8667 1799.38 70.88C1801.08 71.84 1803 72.32 1805.14 72.32ZM1869.19 80.8C1866.26 80.8 1863.64 80.1867 1861.35 78.96C1859.06 77.68 1857.24 75.9467 1855.91 73.76C1854.63 71.5733 1853.99 69.0933 1853.99 66.32V55.28C1853.99 52.5067 1854.66 50.0267 1855.99 47.84C1857.32 45.6533 1859.14 43.9467 1861.43 42.72C1863.72 41.44 1866.31 40.8 1869.19 40.8C1872.66 40.8 1875.78 41.7067 1878.55 43.52C1881.38 45.28 1883.59 47.68 1885.19 50.72C1886.84 53.7067 1887.67 57.0933 1887.67 60.88C1887.67 64.6133 1886.84 68 1885.19 71.04C1883.59 74.0267 1881.38 76.4 1878.55 78.16C1875.78 79.92 1872.66 80.8 1869.19 80.8ZM1848.63 96V41.6H1857.43V51.92L1855.91 61.28L1857.43 70.56V96H1848.63ZM1867.75 72.48C1869.88 72.48 1871.75 72 1873.35 71.04C1875 70.0267 1876.28 68.64 1877.19 66.88C1878.15 65.12 1878.63 63.0933 1878.63 60.8C1878.63 58.5067 1878.15 56.48 1877.19 54.72C1876.28 52.96 1875 51.6 1873.35 50.64C1871.75 49.6267 1869.88 49.12 1867.75 49.12C1865.62 49.12 1863.72 49.6267 1862.07 50.64C1860.42 51.6 1859.14 52.96 1858.23 54.72C1857.32 56.48 1856.87 58.5067 1856.87 60.8C1856.87 63.0933 1857.32 65.12 1858.23 66.88C1859.14 68.64 1860.42 70.0267 1862.07 71.04C1863.72 72 1865.62 72.48 1867.75 72.48ZM1912.64 80.8C1908.9 80.8 1905.52 79.92 1902.48 78.16C1899.44 76.3467 1897.01 73.92 1895.2 70.88C1893.44 67.84 1892.56 64.4533 1892.56 60.72C1892.56 56.9867 1893.44 53.6267 1895.2 50.64C1897.01 47.6533 1899.44 45.28 1902.48 43.52C1905.52 41.7067 1908.9 40.8 1912.64 40.8C1916.42 40.8 1919.84 41.68 1922.88 43.44C1925.92 45.2 1928.32 47.6 1930.08 50.64C1931.89 53.6267 1932.8 56.9867 1932.8 60.72C1932.8 64.4533 1931.89 67.84 1930.08 70.88C1928.32 73.92 1925.92 76.3467 1922.88 78.16C1919.84 79.92 1916.42 80.8 1912.64 80.8ZM1912.64 72.32C1914.82 72.32 1916.74 71.84 1918.4 70.88C1920.1 69.8667 1921.41 68.48 1922.32 66.72C1923.28 64.96 1923.76 62.96 1923.76 60.72C1923.76 58.48 1923.28 56.5067 1922.32 54.8C1921.36 53.0933 1920.05 51.76 1918.4 50.8C1916.74 49.7867 1914.82 49.28 1912.64 49.28C1910.5 49.28 1908.58 49.7867 1906.88 50.8C1905.22 51.76 1903.92 53.0933 1902.96 54.8C1902.05 56.5067 1901.6 58.48 1901.6 60.72C1901.6 62.96 1902.05 64.96 1902.96 66.72C1903.92 68.48 1905.22 69.8667 1906.88 70.88C1908.58 71.84 1910.5 72.32 1912.64 72.32ZM1940.11 80V41.6H1948.91V80H1940.11ZM1948.91 58.64L1945.87 57.12C1945.87 52.2667 1946.94 48.3467 1949.07 45.36C1951.26 42.32 1954.54 40.8 1958.91 40.8C1960.83 40.8 1962.57 41.1467 1964.11 41.84C1965.66 42.5333 1967.1 43.6533 1968.43 45.2L1962.67 51.12C1961.98 50.3733 1961.21 49.84 1960.35 49.52C1959.5 49.2 1958.51 49.04 1957.39 49.04C1954.94 49.04 1952.91 49.8133 1951.31 51.36C1949.71 52.9067 1948.91 55.3333 1948.91 58.64ZM1995.95 80V25.6H2004.75V80H1995.95ZM1986.75 49.6V41.6H2013.95V49.6H1986.75ZM2020.43 80V41.6H2029.23V80H2020.43ZM2024.83 34.56C2023.34 34.56 2022.08 34.0533 2021.07 33.04C2020.11 32.0267 2019.63 30.7733 2019.63 29.28C2019.63 27.7867 2020.11 26.5333 2021.07 25.52C2022.08 24.5067 2023.34 24 2024.83 24C2026.38 24 2027.63 24.5067 2028.59 25.52C2029.55 26.5333 2030.03 27.7867 2030.03 29.28C2030.03 30.7733 2029.55 32.0267 2028.59 33.04C2027.63 34.0533 2026.38 34.56 2024.83 34.56ZM2059.66 80.8C2056.73 80.8 2054.11 80.1867 2051.82 78.96C2049.53 77.68 2047.71 75.9467 2046.38 73.76C2045.1 71.5733 2044.46 69.0933 2044.46 66.32V55.28C2044.46 52.5067 2045.13 50.0267 2046.46 47.84C2047.79 45.6533 2049.61 43.9467 2051.9 42.72C2054.19 41.44 2056.78 40.8 2059.66 40.8C2063.13 40.8 2066.25 41.7067 2069.02 43.52C2071.85 45.28 2074.06 47.68 2075.66 50.72C2077.31 53.7067 2078.14 57.0933 2078.14 60.88C2078.14 64.6133 2077.31 68 2075.66 71.04C2074.06 74.0267 2071.85 76.4 2069.02 78.16C2066.25 79.92 2063.13 80.8 2059.66 80.8ZM2039.1 96V41.6H2047.9V51.92L2046.38 61.28L2047.9 70.56V96H2039.1ZM2058.22 72.48C2060.35 72.48 2062.22 72 2063.82 71.04C2065.47 70.0267 2066.75 68.64 2067.66 66.88C2068.62 65.12 2069.1 63.0933 2069.1 60.8C2069.1 58.5067 2068.62 56.48 2067.66 54.72C2066.75 52.96 2065.47 51.6 2063.82 50.64C2062.22 49.6267 2060.35 49.12 2058.22 49.12C2056.09 49.12 2054.19 49.6267 2052.54 50.64C2050.89 51.6 2049.61 52.96 2048.7 54.72C2047.79 56.48 2047.34 58.5067 2047.34 60.8C2047.34 63.0933 2047.79 65.12 2048.7 66.88C2049.61 68.64 2050.89 70.0267 2052.54 71.04C2054.19 72 2056.09 72.48 2058.22 72.48ZM2103.11 80.8C2099.37 80.8 2095.99 79.92 2092.95 78.16C2089.91 76.3467 2087.48 73.92 2085.67 70.88C2083.91 67.84 2083.03 64.4533 2083.03 60.72C2083.03 56.9867 2083.91 53.6267 2085.67 50.64C2087.48 47.6533 2089.91 45.28 2092.95 43.52C2095.99 41.7067 2099.37 40.8 2103.11 40.8C2106.89 40.8 2110.31 41.68 2113.35 43.44C2116.39 45.2 2118.79 47.6 2120.55 50.64C2122.36 53.6267 2123.27 56.9867 2123.27 60.72C2123.27 64.4533 2122.36 67.84 2120.55 70.88C2118.79 73.92 2116.39 76.3467 2113.35 78.16C2110.31 79.92 2106.89 80.8 2103.11 80.8ZM2103.11 72.32C2105.29 72.32 2107.21 71.84 2108.87 70.88C2110.57 69.8667 2111.88 68.48 2112.79 66.72C2113.75 64.96 2114.23 62.96 2114.23 60.72C2114.23 58.48 2113.75 56.5067 2112.79 54.8C2111.83 53.0933 2110.52 51.76 2108.87 50.8C2107.21 49.7867 2105.29 49.28 2103.11 49.28C2100.97 49.28 2099.05 49.7867 2097.35 50.8C2095.69 51.76 2094.39 53.0933 2093.43 54.8C2092.52 56.5067 2092.07 58.48 2092.07 60.72C2092.07 62.96 2092.52 64.96 2093.43 66.72C2094.39 68.48 2095.69 69.8667 2097.35 70.88C2099.05 71.84 2100.97 72.32 2103.11 72.32Z" fill="#9C1C2B"/>
</svg>
