<svg width="4134" height="131" viewBox="0 0 4134 131" fill="none" xmlns="http://www.w3.org/2000/svg">
<path d="M20.16 80V25.6H29.36V80H20.16ZM1.92 32.4V24H47.6V32.4H1.92ZM60.5694 80.8C57.1027 80.8 53.956 79.92 51.1294 78.16C48.356 76.4 46.1427 74.0267 44.4894 71.04C42.8894 68 42.0894 64.6133 42.0894 60.88C42.0894 57.0933 42.8894 53.7067 44.4894 50.72C46.1427 47.68 48.356 45.28 51.1294 43.52C53.956 41.7067 57.1027 40.8 60.5694 40.8C63.5027 40.8 66.0894 41.44 68.3294 42.72C70.6227 43.9467 72.436 45.6533 73.7694 47.84C75.1027 50.0267 75.7694 52.5067 75.7694 55.28V66.32C75.7694 69.0933 75.1027 71.5733 73.7694 73.76C72.4894 75.9467 70.7027 77.68 68.4094 78.96C66.116 80.1867 63.5027 80.8 60.5694 80.8ZM62.0094 72.48C65.2627 72.48 67.876 71.3867 69.8494 69.2C71.876 67.0133 72.8894 64.2133 72.8894 60.8C72.8894 58.5067 72.436 56.48 71.5294 54.72C70.6227 52.96 69.3427 51.6 67.6894 50.64C66.0894 49.6267 64.196 49.12 62.0094 49.12C59.876 49.12 57.9827 49.6267 56.3294 50.64C54.7294 51.6 53.4494 52.96 52.4894 54.72C51.5827 56.48 51.1294 58.5067 51.1294 60.8C51.1294 63.0933 51.5827 65.12 52.4894 66.88C53.4494 68.64 54.7294 70.0267 56.3294 71.04C57.9827 72 59.876 72.48 62.0094 72.48ZM72.3294 80V69.68L73.8494 60.32L72.3294 51.04V41.6H81.1294V80H72.3294ZM115.216 80L104.176 63.76L102.576 62.32L87.6956 41.6H98.3356L108.176 55.84L109.696 57.2L125.776 80H115.216ZM86.9756 80L102.496 58.48L107.616 64.8L97.2156 80H86.9756ZM110.496 62.16L105.296 55.92L114.896 41.6H125.056L110.496 62.16ZM146.585 80.8C143.118 80.8 139.972 79.92 137.145 78.16C134.372 76.4 132.158 74.0267 130.505 71.04C128.905 68 128.105 64.6133 128.105 60.88C128.105 57.0933 128.905 53.7067 130.505 50.72C132.158 47.68 134.372 45.28 137.145 43.52C139.972 41.7067 143.118 40.8 146.585 40.8C149.518 40.8 152.105 41.44 154.345 42.72C156.638 43.9467 158.452 45.6533 159.785 47.84C161.118 50.0267 161.785 52.5067 161.785 55.28V66.32C161.785 69.0933 161.118 71.5733 159.785 73.76C158.505 75.9467 156.718 77.68 154.425 78.96C152.132 80.1867 149.518 80.8 146.585 80.8ZM148.025 72.48C151.278 72.48 153.892 71.3867 155.865 69.2C157.892 67.0133 158.905 64.2133 158.905 60.8C158.905 58.5067 158.452 56.48 157.545 54.72C156.638 52.96 155.358 51.6 153.705 50.64C152.105 49.6267 150.212 49.12 148.025 49.12C145.892 49.12 143.998 49.6267 142.345 50.64C140.745 51.6 139.465 52.96 138.505 54.72C137.598 56.48 137.145 58.5067 137.145 60.8C137.145 63.0933 137.598 65.12 138.505 66.88C139.465 68.64 140.745 70.0267 142.345 71.04C143.998 72 145.892 72.48 148.025 72.48ZM158.345 80V69.68L159.865 60.32L158.345 51.04V41.6H167.145V80H158.345ZM209.007 80.8C205.54 80.8 202.394 79.92 199.567 78.16C196.794 76.4 194.58 74.0267 192.927 71.04C191.327 68 190.527 64.6133 190.527 60.88C190.527 57.0933 191.327 53.7067 192.927 50.72C194.58 47.68 196.794 45.28 199.567 43.52C202.394 41.7067 205.54 40.8 209.007 40.8C211.94 40.8 214.527 41.44 216.767 42.72C219.06 43.9467 220.874 45.6533 222.207 47.84C223.54 50.0267 224.207 52.5067 224.207 55.28V66.32C224.207 69.0933 223.54 71.5733 222.207 73.76C220.927 75.9467 219.14 77.68 216.847 78.96C214.554 80.1867 211.94 80.8 209.007 80.8ZM210.447 72.48C212.634 72.48 214.527 72 216.127 71.04C217.78 70.0267 219.06 68.64 219.967 66.88C220.874 65.12 221.327 63.0933 221.327 60.8C221.327 58.5067 220.874 56.48 219.967 54.72C219.06 52.96 217.78 51.6 216.127 50.64C214.527 49.6267 212.634 49.12 210.447 49.12C208.314 49.12 206.42 49.6267 204.767 50.64C203.167 51.6 201.887 52.96 200.927 54.72C200.02 56.48 199.567 58.5067 199.567 60.8C199.567 63.0933 200.02 65.12 200.927 66.88C201.887 68.64 203.167 70.0267 204.767 71.04C206.42 72 208.314 72.48 210.447 72.48ZM229.567 80H220.767V69.68L222.287 60.32L220.767 51.04V22.4H229.567V80ZM257.173 80.8C253.333 80.8 249.866 79.9467 246.773 78.24C243.733 76.48 241.306 74.08 239.493 71.04C237.733 68 236.853 64.5867 236.853 60.8C236.853 57.0133 237.733 53.6267 239.493 50.64C241.253 47.6 243.626 45.2 246.613 43.44C249.653 41.68 253.013 40.8 256.693 40.8C260.266 40.8 263.413 41.6267 266.133 43.28C268.906 44.9333 271.066 47.2 272.613 50.08C274.213 52.96 275.013 56.24 275.013 59.92C275.013 60.56 274.96 61.2267 274.853 61.92C274.8 62.56 274.693 63.28 274.533 64.08H243.013V56.88H269.973L266.693 59.76C266.586 57.4133 266.133 55.44 265.333 53.84C264.533 52.24 263.386 51.0133 261.893 50.16C260.453 49.3067 258.666 48.88 256.533 48.88C254.293 48.88 252.346 49.36 250.693 50.32C249.04 51.28 247.76 52.64 246.853 54.4C245.946 56.1067 245.493 58.16 245.493 60.56C245.493 62.96 245.973 65.0667 246.933 66.88C247.893 68.6933 249.253 70.1067 251.013 71.12C252.773 72.08 254.8 72.56 257.093 72.56C259.066 72.56 260.88 72.2133 262.533 71.52C264.24 70.8267 265.68 69.8133 266.853 68.48L272.453 74.16C270.586 76.3467 268.32 78 265.653 79.12C262.986 80.24 260.16 80.8 257.173 80.8ZM324.723 80.8C320.67 80.8 316.91 80.08 313.443 78.64C310.03 77.1467 307.043 75.0933 304.483 72.48C301.923 69.8133 299.95 66.7467 298.563 63.28C297.176 59.76 296.483 56 296.483 52C296.483 48 297.176 44.2667 298.563 40.8C299.95 37.28 301.923 34.2133 304.483 31.6C307.043 28.9867 310.03 26.9333 313.443 25.44C316.91 23.9467 320.67 23.2 324.723 23.2C329.256 23.2 333.176 23.9467 336.483 25.44C339.79 26.9333 342.723 28.96 345.283 31.52L339.043 37.76C337.39 35.9467 335.363 34.5333 332.963 33.52C330.616 32.5067 327.87 32 324.723 32C321.95 32 319.416 32.48 317.123 33.44C314.83 34.4 312.83 35.7867 311.123 37.6C309.47 39.36 308.19 41.4667 307.283 43.92C306.376 46.3733 305.923 49.0667 305.923 52C305.923 54.9333 306.376 57.6267 307.283 60.08C308.19 62.5333 309.47 64.6667 311.123 66.48C312.83 68.24 314.83 69.6 317.123 70.56C319.416 71.52 321.95 72 324.723 72C328.136 72 331.016 71.4933 333.363 70.48C335.763 69.4133 337.79 67.9733 339.443 66.16L345.683 72.4C343.123 75.0133 340.11 77.0667 336.643 78.56C333.176 80.0533 329.203 80.8 324.723 80.8ZM369.121 80.8C365.387 80.8 362.001 79.92 358.961 78.16C355.921 76.3467 353.494 73.92 351.681 70.88C349.921 67.84 349.041 64.4533 349.041 60.72C349.041 56.9867 349.921 53.6267 351.681 50.64C353.494 47.6533 355.921 45.28 358.961 43.52C362.001 41.7067 365.387 40.8 369.121 40.8C372.907 40.8 376.321 41.68 379.361 43.44C382.401 45.2 384.801 47.6 386.561 50.64C388.374 53.6267 389.281 56.9867 389.281 60.72C389.281 64.4533 388.374 67.84 386.561 70.88C384.801 73.92 382.401 76.3467 379.361 78.16C376.321 79.92 372.907 80.8 369.121 80.8ZM369.121 72.32C371.307 72.32 373.227 71.84 374.881 70.88C376.587 69.8667 377.894 68.48 378.801 66.72C379.761 64.96 380.241 62.96 380.241 60.72C380.241 58.48 379.761 56.5067 378.801 54.8C377.841 53.0933 376.534 51.76 374.881 50.8C373.227 49.7867 371.307 49.28 369.121 49.28C366.987 49.28 365.067 49.7867 363.361 50.8C361.707 51.76 360.401 53.0933 359.441 54.8C358.534 56.5067 358.081 58.48 358.081 60.72C358.081 62.96 358.534 64.96 359.441 66.72C360.401 68.48 361.707 69.8667 363.361 70.88C365.067 71.84 366.987 72.32 369.121 72.32ZM417.159 80.8C414.225 80.8 411.612 80.1867 409.319 78.96C407.025 77.68 405.212 75.9467 403.879 73.76C402.599 71.5733 401.959 69.0933 401.959 66.32V55.28C401.959 52.5067 402.625 50.0267 403.959 47.84C405.292 45.6533 407.105 43.9467 409.399 42.72C411.692 41.44 414.279 40.8 417.159 40.8C420.625 40.8 423.745 41.7067 426.519 43.52C429.345 45.28 431.559 47.68 433.159 50.72C434.812 53.7067 435.639 57.0933 435.639 60.88C435.639 64.6133 434.812 68 433.159 71.04C431.559 74.0267 429.345 76.4 426.519 78.16C423.745 79.92 420.625 80.8 417.159 80.8ZM396.599 80V22.4H405.399V51.04L403.879 60.32L405.399 69.68V80H396.599ZM415.719 72.48C417.852 72.48 419.719 72 421.319 71.04C422.972 70.0267 424.252 68.64 425.159 66.88C426.119 65.12 426.599 63.0933 426.599 60.8C426.599 58.5067 426.119 56.48 425.159 54.72C424.252 52.96 422.972 51.6 421.319 50.64C419.719 49.6267 417.852 49.12 415.719 49.12C413.585 49.12 411.692 49.6267 410.039 50.64C408.385 51.6 407.105 52.96 406.199 54.72C405.292 56.48 404.839 58.5067 404.839 60.8C404.839 63.0933 405.292 65.12 406.199 66.88C407.105 68.64 408.385 70.0267 410.039 71.04C411.692 72 413.585 72.48 415.719 72.48ZM460.845 80.8C457.005 80.8 453.538 79.9467 450.445 78.24C447.405 76.48 444.978 74.08 443.165 71.04C441.405 68 440.525 64.5867 440.525 60.8C440.525 57.0133 441.405 53.6267 443.165 50.64C444.925 47.6 447.298 45.2 450.285 43.44C453.325 41.68 456.685 40.8 460.365 40.8C463.938 40.8 467.085 41.6267 469.805 43.28C472.578 44.9333 474.738 47.2 476.285 50.08C477.885 52.96 478.685 56.24 478.685 59.92C478.685 60.56 478.632 61.2267 478.525 61.92C478.472 62.56 478.365 63.28 478.205 64.08H446.685V56.88H473.645L470.365 59.76C470.258 57.4133 469.805 55.44 469.005 53.84C468.205 52.24 467.058 51.0133 465.565 50.16C464.125 49.3067 462.338 48.88 460.205 48.88C457.965 48.88 456.018 49.36 454.365 50.32C452.712 51.28 451.432 52.64 450.525 54.4C449.618 56.1067 449.165 58.16 449.165 60.56C449.165 62.96 449.645 65.0667 450.605 66.88C451.565 68.6933 452.925 70.1067 454.685 71.12C456.445 72.08 458.472 72.56 460.765 72.56C462.738 72.56 464.552 72.2133 466.205 71.52C467.912 70.8267 469.352 69.8133 470.525 68.48L476.125 74.16C474.258 76.3467 471.992 78 469.325 79.12C466.658 80.24 463.832 80.8 460.845 80.8ZM485.739 80V41.6H494.539V80H485.739ZM494.539 58.64L491.499 57.12C491.499 52.2667 492.566 48.3467 494.699 45.36C496.886 42.32 500.166 40.8 504.539 40.8C506.459 40.8 508.193 41.1467 509.739 41.84C511.286 42.5333 512.726 43.6533 514.059 45.2L508.299 51.12C507.606 50.3733 506.833 49.84 505.979 49.52C505.126 49.2 504.139 49.04 503.019 49.04C500.566 49.04 498.539 49.8133 496.939 51.36C495.339 52.9067 494.539 55.3333 494.539 58.64ZM524.236 80V25.6H533.036V80H524.236ZM515.036 49.6V41.6H542.236V49.6H515.036ZM564.39 80.8C561.137 80.8 558.23 80.08 555.67 78.64C553.163 77.2 551.19 75.2267 549.75 72.72C548.363 70.16 547.67 67.2267 547.67 63.92V41.6H556.47V63.52C556.47 65.3867 556.763 66.9867 557.35 68.32C557.99 69.6 558.897 70.5867 560.07 71.28C561.297 71.9733 562.737 72.32 564.39 72.32C566.95 72.32 568.897 71.5733 570.23 70.08C571.617 68.5333 572.31 66.3467 572.31 63.52V41.6H581.11V63.92C581.11 67.28 580.39 70.24 578.95 72.8C577.563 75.3067 575.617 77.28 573.11 78.72C570.603 80.1067 567.697 80.8 564.39 80.8ZM589.958 80V41.6H598.758V80H589.958ZM598.758 58.64L595.718 57.12C595.718 52.2667 596.785 48.3467 598.918 45.36C601.105 42.32 604.385 40.8 608.758 40.8C610.678 40.8 612.411 41.1467 613.958 41.84C615.505 42.5333 616.945 43.6533 618.278 45.2L612.518 51.12C611.825 50.3733 611.051 49.84 610.198 49.52C609.345 49.2 608.358 49.04 607.238 49.04C604.785 49.04 602.758 49.8133 601.158 51.36C599.558 52.9067 598.758 55.3333 598.758 58.64ZM637.444 80.8C633.978 80.8 630.831 79.92 628.004 78.16C625.231 76.4 623.018 74.0267 621.364 71.04C619.764 68 618.964 64.6133 618.964 60.88C618.964 57.0933 619.764 53.7067 621.364 50.72C623.018 47.68 625.231 45.28 628.004 43.52C630.831 41.7067 633.978 40.8 637.444 40.8C640.378 40.8 642.964 41.44 645.204 42.72C647.498 43.9467 649.311 45.6533 650.644 47.84C651.978 50.0267 652.644 52.5067 652.644 55.28V66.32C652.644 69.0933 651.978 71.5733 650.644 73.76C649.364 75.9467 647.578 77.68 645.284 78.96C642.991 80.1867 640.378 80.8 637.444 80.8ZM638.884 72.48C642.138 72.48 644.751 71.3867 646.724 69.2C648.751 67.0133 649.764 64.2133 649.764 60.8C649.764 58.5067 649.311 56.48 648.404 54.72C647.498 52.96 646.218 51.6 644.564 50.64C642.964 49.6267 641.071 49.12 638.884 49.12C636.751 49.12 634.858 49.6267 633.204 50.64C631.604 51.6 630.324 52.96 629.364 54.72C628.458 56.48 628.004 58.5067 628.004 60.8C628.004 63.0933 628.458 65.12 629.364 66.88C630.324 68.64 631.604 70.0267 633.204 71.04C634.858 72 636.751 72.48 638.884 72.48ZM649.204 80V69.68L650.724 60.32L649.204 51.04V41.6H658.004V80H649.204ZM699.866 80.8C696.4 80.8 693.253 79.92 690.426 78.16C687.653 76.4 685.44 74.0267 683.786 71.04C682.186 68 681.386 64.6133 681.386 60.88C681.386 57.0933 682.186 53.7067 683.786 50.72C685.44 47.68 687.653 45.28 690.426 43.52C693.253 41.7067 696.4 40.8 699.866 40.8C702.8 40.8 705.386 41.44 707.626 42.72C709.92 43.9467 711.733 45.6533 713.066 47.84C714.4 50.0267 715.066 52.5067 715.066 55.28V66.32C715.066 69.0933 714.4 71.5733 713.066 73.76C711.786 75.9467 710 77.68 707.706 78.96C705.413 80.1867 702.8 80.8 699.866 80.8ZM701.306 72.48C703.493 72.48 705.386 72 706.986 71.04C708.64 70.0267 709.92 68.64 710.826 66.88C711.733 65.12 712.186 63.0933 712.186 60.8C712.186 58.5067 711.733 56.48 710.826 54.72C709.92 52.96 708.64 51.6 706.986 50.64C705.386 49.6267 703.493 49.12 701.306 49.12C699.173 49.12 697.28 49.6267 695.626 50.64C694.026 51.6 692.746 52.96 691.786 54.72C690.88 56.48 690.426 58.5067 690.426 60.8C690.426 63.0933 690.88 65.12 691.786 66.88C692.746 68.64 694.026 70.0267 695.626 71.04C697.28 72 699.173 72.48 701.306 72.48ZM720.426 80H711.626V69.68L713.146 60.32L711.626 51.04V22.4H720.426V80ZM746.273 80.8C742.806 80.8 739.659 79.92 736.833 78.16C734.059 76.4 731.846 74.0267 730.193 71.04C728.593 68 727.793 64.6133 727.793 60.88C727.793 57.0933 728.593 53.7067 730.193 50.72C731.846 47.68 734.059 45.28 736.833 43.52C739.659 41.7067 742.806 40.8 746.273 40.8C749.206 40.8 751.793 41.44 754.033 42.72C756.326 43.9467 758.139 45.6533 759.473 47.84C760.806 50.0267 761.473 52.5067 761.473 55.28V66.32C761.473 69.0933 760.806 71.5733 759.473 73.76C758.193 75.9467 756.406 77.68 754.113 78.96C751.819 80.1867 749.206 80.8 746.273 80.8ZM747.713 72.48C750.966 72.48 753.579 71.3867 755.553 69.2C757.579 67.0133 758.593 64.2133 758.593 60.8C758.593 58.5067 758.139 56.48 757.233 54.72C756.326 52.96 755.046 51.6 753.393 50.64C751.793 49.6267 749.899 49.12 747.713 49.12C745.579 49.12 743.686 49.6267 742.033 50.64C740.433 51.6 739.153 52.96 738.193 54.72C737.286 56.48 736.833 58.5067 736.833 60.8C736.833 63.0933 737.286 65.12 738.193 66.88C739.153 68.64 740.433 70.0267 742.033 71.04C743.686 72 745.579 72.48 747.713 72.48ZM758.033 80V69.68L759.553 60.32L758.033 51.04V41.6H766.833V80H758.033ZM793.814 80V24H803.014V80H793.814ZM800.134 80V71.6H831.494V80H800.134ZM800.134 55.44V47.36H828.774V55.44H800.134ZM800.134 32.4V24H831.094V32.4H800.134ZM855.257 80.8C851.79 80.8 848.644 79.92 845.817 78.16C843.044 76.4 840.83 74.0267 839.177 71.04C837.577 68 836.777 64.6133 836.777 60.88C836.777 57.0933 837.577 53.7067 839.177 50.72C840.83 47.68 843.044 45.28 845.817 43.52C848.644 41.7067 851.79 40.8 855.257 40.8C858.19 40.8 860.777 41.44 863.017 42.72C865.31 43.9467 867.124 45.6533 868.457 47.84C869.79 50.0267 870.457 52.5067 870.457 55.28V66.32C870.457 69.0933 869.79 71.5733 868.457 73.76C867.177 75.9467 865.39 77.68 863.097 78.96C860.804 80.1867 858.19 80.8 855.257 80.8ZM856.697 72.48C858.884 72.48 860.777 72 862.377 71.04C864.03 70.0267 865.31 68.64 866.217 66.88C867.124 65.12 867.577 63.0933 867.577 60.8C867.577 58.5067 867.124 56.48 866.217 54.72C865.31 52.96 864.03 51.6 862.377 50.64C860.777 49.6267 858.884 49.12 856.697 49.12C854.564 49.12 852.67 49.6267 851.017 50.64C849.417 51.6 848.137 52.96 847.177 54.72C846.27 56.48 845.817 58.5067 845.817 60.8C845.817 63.0933 846.27 65.12 847.177 66.88C848.137 68.64 849.417 70.0267 851.017 71.04C852.67 72 854.564 72.48 856.697 72.48ZM875.817 80H867.017V69.68L868.537 60.32L867.017 51.04V22.4H875.817V80ZM901.343 80.8C898.09 80.8 895.183 80.08 892.623 78.64C890.116 77.2 888.143 75.2267 886.703 72.72C885.316 70.16 884.623 67.2267 884.623 63.92V41.6H893.423V63.52C893.423 65.3867 893.716 66.9867 894.303 68.32C894.943 69.6 895.85 70.5867 897.023 71.28C898.25 71.9733 899.69 72.32 901.343 72.32C903.903 72.32 905.85 71.5733 907.183 70.08C908.57 68.5333 909.263 66.3467 909.263 63.52V41.6H918.063V63.92C918.063 67.28 917.343 70.24 915.903 72.8C914.516 75.3067 912.57 77.28 910.063 78.72C907.556 80.1067 904.65 80.8 901.343 80.8ZM944.591 80.8C940.805 80.8 937.365 79.92 934.271 78.16C931.231 76.4 928.831 74 927.071 70.96C925.311 67.92 924.431 64.5333 924.431 60.8C924.431 57.0133 925.311 53.6267 927.071 50.64C928.831 47.6 931.231 45.2 934.271 43.44C937.365 41.68 940.805 40.8 944.591 40.8C947.578 40.8 950.351 41.3867 952.911 42.56C955.525 43.68 957.738 45.3067 959.551 47.44L953.791 53.28C952.671 51.9467 951.311 50.96 949.711 50.32C948.165 49.6267 946.458 49.28 944.591 49.28C942.405 49.28 940.458 49.7867 938.751 50.8C937.098 51.76 935.791 53.0933 934.831 54.8C933.925 56.5067 933.471 58.5067 933.471 60.8C933.471 63.04 933.925 65.04 934.831 66.8C935.791 68.5067 937.098 69.8667 938.751 70.88C940.458 71.84 942.405 72.32 944.591 72.32C946.458 72.32 948.165 72 949.711 71.36C951.311 70.6667 952.671 69.6533 953.791 68.32L959.551 74.16C957.738 76.2933 955.525 77.9467 952.911 79.12C950.351 80.24 947.578 80.8 944.591 80.8ZM981.194 80.8C977.728 80.8 974.581 79.92 971.754 78.16C968.981 76.4 966.768 74.0267 965.114 71.04C963.514 68 962.714 64.6133 962.714 60.88C962.714 57.0933 963.514 53.7067 965.114 50.72C966.768 47.68 968.981 45.28 971.754 43.52C974.581 41.7067 977.728 40.8 981.194 40.8C984.128 40.8 986.714 41.44 988.954 42.72C991.248 43.9467 993.061 45.6533 994.394 47.84C995.728 50.0267 996.394 52.5067 996.394 55.28V66.32C996.394 69.0933 995.728 71.5733 994.394 73.76C993.114 75.9467 991.328 77.68 989.034 78.96C986.741 80.1867 984.128 80.8 981.194 80.8ZM982.634 72.48C985.888 72.48 988.501 71.3867 990.474 69.2C992.501 67.0133 993.514 64.2133 993.514 60.8C993.514 58.5067 993.061 56.48 992.154 54.72C991.248 52.96 989.968 51.6 988.314 50.64C986.714 49.6267 984.821 49.12 982.634 49.12C980.501 49.12 978.608 49.6267 976.954 50.64C975.354 51.6 974.074 52.96 973.114 54.72C972.208 56.48 971.754 58.5067 971.754 60.8C971.754 63.0933 972.208 65.12 973.114 66.88C974.074 68.64 975.354 70.0267 976.954 71.04C978.608 72 980.501 72.48 982.634 72.48ZM992.954 80V69.68L994.474 60.32L992.954 51.04V41.6H1001.75V80H992.954ZM1029.2 80.8C1025.41 80.8 1021.97 79.92 1018.88 78.16C1015.84 76.4 1013.44 74 1011.68 70.96C1009.92 67.92 1009.04 64.5333 1009.04 60.8C1009.04 57.0133 1009.92 53.6267 1011.68 50.64C1013.44 47.6 1015.84 45.2 1018.88 43.44C1021.97 41.68 1025.41 40.8 1029.2 40.8C1032.19 40.8 1034.96 41.3867 1037.52 42.56C1040.13 43.68 1042.35 45.3067 1044.16 47.44L1038.4 53.28C1037.28 51.9467 1035.92 50.96 1034.32 50.32C1032.77 49.6267 1031.07 49.28 1029.2 49.28C1027.01 49.28 1025.07 49.7867 1023.36 50.8C1021.71 51.76 1020.4 53.0933 1019.44 54.8C1018.53 56.5067 1018.08 58.5067 1018.08 60.8C1018.08 63.04 1018.53 65.04 1019.44 66.8C1020.4 68.5067 1021.71 69.8667 1023.36 70.88C1025.07 71.84 1027.01 72.32 1029.2 72.32C1031.07 72.32 1032.77 72 1034.32 71.36C1035.92 70.6667 1037.28 69.6533 1038.4 68.32L1044.16 74.16C1042.35 76.2933 1040.13 77.9467 1037.52 79.12C1034.96 80.24 1032.19 80.8 1029.2 80.8ZM1026.72 96.8C1024.75 96.8 1023.01 96.56 1021.52 96.08C1020.03 95.6 1018.59 94.9067 1017.2 94L1020.8 89.44C1021.39 89.9733 1022.11 90.4 1022.96 90.72C1023.81 91.0933 1024.85 91.28 1026.08 91.28C1027.47 91.28 1028.45 91.0933 1029.04 90.72C1029.68 90.3467 1030 89.8933 1030 89.36C1030 88.7733 1029.71 88.24 1029.12 87.76C1028.59 87.3333 1027.71 87.12 1026.48 87.12H1022.32L1024.96 78.88H1031.36L1029.44 84.64L1026.24 82.24C1029.55 82.1333 1032.21 82.7733 1034.24 84.16C1036.27 85.6 1037.28 87.3867 1037.28 89.52C1037.28 91.6 1036.29 93.3333 1034.32 94.72C1032.4 96.1067 1029.87 96.8 1026.72 96.8ZM1065.8 80.8C1062.34 80.8 1059.19 79.92 1056.36 78.16C1053.59 76.4 1051.38 74.0267 1049.72 71.04C1048.12 68 1047.32 64.6133 1047.32 60.88C1047.32 57.0933 1048.12 53.7067 1049.72 50.72C1051.38 47.68 1053.59 45.28 1056.36 43.52C1059.19 41.7067 1062.34 40.8 1065.8 40.8C1068.74 40.8 1071.32 41.44 1073.56 42.72C1075.86 43.9467 1077.67 45.6533 1079 47.84C1080.34 50.0267 1081 52.5067 1081 55.28V66.32C1081 69.0933 1080.34 71.5733 1079 73.76C1077.72 75.9467 1075.94 77.68 1073.64 78.96C1071.35 80.1867 1068.74 80.8 1065.8 80.8ZM1067.24 72.48C1070.5 72.48 1073.11 71.3867 1075.08 69.2C1077.11 67.0133 1078.12 64.2133 1078.12 60.8C1078.12 58.5067 1077.67 56.48 1076.76 54.72C1075.86 52.96 1074.58 51.6 1072.92 50.64C1071.32 49.6267 1069.43 49.12 1067.24 49.12C1065.11 49.12 1063.22 49.6267 1061.56 50.64C1059.96 51.6 1058.68 52.96 1057.72 54.72C1056.82 56.48 1056.36 58.5067 1056.36 60.8C1056.36 63.0933 1056.82 65.12 1057.72 66.88C1058.68 68.64 1059.96 70.0267 1061.56 71.04C1063.22 72 1065.11 72.48 1067.24 72.48ZM1077.56 80V69.68L1079.08 60.32L1077.56 51.04V41.6H1086.36V80H1077.56ZM1073.8 36.08C1072.04 36.08 1070.55 35.76 1069.32 35.12C1068.1 34.48 1066.95 33.8667 1065.88 33.28C1064.87 32.64 1063.72 32.32 1062.44 32.32C1061.11 32.32 1060.04 32.56 1059.24 33.04C1058.44 33.52 1057.67 34.24 1056.92 35.2L1052.2 30.48C1053.75 28.72 1055.3 27.3333 1056.84 26.32C1058.39 25.2533 1060.2 24.72 1062.28 24.72C1064.04 24.72 1065.54 25.04 1066.76 25.68C1067.99 26.2667 1069.14 26.88 1070.2 27.52C1071.27 28.16 1072.42 28.48 1073.64 28.48C1075.03 28.48 1076.12 28.24 1076.92 27.76C1077.72 27.28 1078.47 26.56 1079.16 25.6L1083.88 30.32C1082.34 32.08 1080.79 33.4933 1079.24 34.56C1077.7 35.5733 1075.88 36.08 1073.8 36.08ZM1113.73 80.8C1110 80.8 1106.61 79.92 1103.57 78.16C1100.53 76.3467 1098.1 73.92 1096.29 70.88C1094.53 67.84 1093.65 64.4533 1093.65 60.72C1093.65 56.9867 1094.53 53.6267 1096.29 50.64C1098.1 47.6533 1100.53 45.28 1103.57 43.52C1106.61 41.7067 1110 40.8 1113.73 40.8C1117.52 40.8 1120.93 41.68 1123.97 43.44C1127.01 45.2 1129.41 47.6 1131.17 50.64C1132.98 53.6267 1133.89 56.9867 1133.89 60.72C1133.89 64.4533 1132.98 67.84 1131.17 70.88C1129.41 73.92 1127.01 76.3467 1123.97 78.16C1120.93 79.92 1117.52 80.8 1113.73 80.8ZM1113.73 72.32C1115.92 72.32 1117.84 71.84 1119.49 70.88C1121.2 69.8667 1122.5 68.48 1123.41 66.72C1124.37 64.96 1124.85 62.96 1124.85 60.72C1124.85 58.48 1124.37 56.5067 1123.41 54.8C1122.45 53.0933 1121.14 51.76 1119.49 50.8C1117.84 49.7867 1115.92 49.28 1113.73 49.28C1111.6 49.28 1109.68 49.7867 1107.97 50.8C1106.32 51.76 1105.01 53.0933 1104.05 54.8C1103.14 56.5067 1102.69 58.48 1102.69 60.72C1102.69 62.96 1103.14 64.96 1104.05 66.72C1105.01 68.48 1106.32 69.8667 1107.97 70.88C1109.68 71.84 1111.6 72.32 1113.73 72.32ZM1164.74 80V72H1180.82C1183.65 72 1185.84 71.12 1187.38 69.36C1188.93 67.6 1189.7 65.5733 1189.7 63.28C1189.7 61.7333 1189.36 60.2933 1188.66 58.96C1187.97 57.6267 1186.96 56.56 1185.62 55.76C1184.29 54.96 1182.69 54.56 1180.82 54.56H1164.74V46.56H1179.46C1181.86 46.56 1183.78 45.9467 1185.22 44.72C1186.66 43.4933 1187.38 41.68 1187.38 39.28C1187.38 36.88 1186.66 35.0667 1185.22 33.84C1183.78 32.6133 1181.86 32 1179.46 32H1164.74V24H1179.7C1183.49 24 1186.64 24.6933 1189.14 26.08C1191.65 27.4667 1193.52 29.2533 1194.74 31.44C1195.97 33.6267 1196.58 35.9733 1196.58 38.48C1196.58 41.4133 1195.76 44 1194.1 46.24C1192.5 48.48 1190.13 50.2933 1186.98 51.68L1187.7 48.8C1191.22 50.24 1193.97 52.2667 1195.94 54.88C1197.92 57.4933 1198.9 60.56 1198.9 64.08C1198.9 66.96 1198.18 69.6 1196.74 72C1195.36 74.4 1193.28 76.3467 1190.5 77.84C1187.78 79.28 1184.42 80 1180.42 80H1164.74ZM1158.42 80V24H1167.62V80H1158.42ZM1223.07 80.8C1219.6 80.8 1216.46 79.92 1213.63 78.16C1210.86 76.4 1208.64 74.0267 1206.99 71.04C1205.39 68 1204.59 64.6133 1204.59 60.88C1204.59 57.0933 1205.39 53.7067 1206.99 50.72C1208.64 47.68 1210.86 45.28 1213.63 43.52C1216.46 41.7067 1219.6 40.8 1223.07 40.8C1226 40.8 1228.59 41.44 1230.83 42.72C1233.12 43.9467 1234.94 45.6533 1236.27 47.84C1237.6 50.0267 1238.27 52.5067 1238.27 55.28V66.32C1238.27 69.0933 1237.6 71.5733 1236.27 73.76C1234.99 75.9467 1233.2 77.68 1230.91 78.96C1228.62 80.1867 1226 80.8 1223.07 80.8ZM1224.51 72.48C1227.76 72.48 1230.38 71.3867 1232.35 69.2C1234.38 67.0133 1235.39 64.2133 1235.39 60.8C1235.39 58.5067 1234.94 56.48 1234.03 54.72C1233.12 52.96 1231.84 51.6 1230.19 50.64C1228.59 49.6267 1226.7 49.12 1224.51 49.12C1222.38 49.12 1220.48 49.6267 1218.83 50.64C1217.23 51.6 1215.95 52.96 1214.99 54.72C1214.08 56.48 1213.63 58.5067 1213.63 60.8C1213.63 63.0933 1214.08 65.12 1214.99 66.88C1215.95 68.64 1217.23 70.0267 1218.83 71.04C1220.48 72 1222.38 72.48 1224.51 72.48ZM1234.83 80V69.68L1236.35 60.32L1234.83 51.04V41.6H1243.63V80H1234.83ZM1220.75 36.08L1216.75 32.08L1226.99 19.04L1233.79 25.84L1220.75 36.08ZM1265.96 80.8C1263.82 80.8 1261.77 80.5333 1259.8 80C1257.82 79.4133 1256.01 78.6133 1254.36 77.6C1252.7 76.5333 1251.26 75.2533 1250.04 73.76L1255.64 68.16C1256.97 69.7067 1258.49 70.88 1260.2 71.68C1261.96 72.4267 1263.93 72.8 1266.12 72.8C1268.09 72.8 1269.58 72.5067 1270.6 71.92C1271.61 71.3333 1272.12 70.48 1272.12 69.36C1272.12 68.1867 1271.64 67.28 1270.68 66.64C1269.72 66 1268.46 65.4667 1266.92 65.04C1265.42 64.56 1263.82 64.08 1262.12 63.6C1260.46 63.12 1258.86 62.48 1257.32 61.68C1255.82 60.8267 1254.6 59.68 1253.64 58.24C1252.68 56.8 1252.2 54.9333 1252.2 52.64C1252.2 50.1867 1252.76 48.08 1253.88 46.32C1255.05 44.56 1256.68 43.2 1258.76 42.24C1260.89 41.28 1263.42 40.8 1266.36 40.8C1269.45 40.8 1272.17 41.36 1274.52 42.48C1276.92 43.5467 1278.92 45.1733 1280.52 47.36L1274.92 52.96C1273.8 51.5733 1272.52 50.5333 1271.08 49.84C1269.64 49.1467 1267.98 48.8 1266.12 48.8C1264.36 48.8 1263 49.0667 1262.04 49.6C1261.08 50.1333 1260.6 50.9067 1260.6 51.92C1260.6 52.9867 1261.08 53.8133 1262.04 54.4C1263 54.9867 1264.22 55.4933 1265.72 55.92C1267.26 56.3467 1268.86 56.8267 1270.52 57.36C1272.22 57.84 1273.82 58.5333 1275.32 59.44C1276.86 60.2933 1278.12 61.4667 1279.08 62.96C1280.04 64.4 1280.52 66.2933 1280.52 68.64C1280.52 72.3733 1279.21 75.3333 1276.6 77.52C1273.98 79.7067 1270.44 80.8 1265.96 80.8ZM1287.85 80V41.6H1296.65V80H1287.85ZM1292.25 34.56C1290.76 34.56 1289.5 34.0533 1288.49 33.04C1287.53 32.0267 1287.05 30.7733 1287.05 29.28C1287.05 27.7867 1287.53 26.5333 1288.49 25.52C1289.5 24.5067 1290.76 24 1292.25 24C1293.8 24 1295.05 24.5067 1296.01 25.52C1296.97 26.5333 1297.45 27.7867 1297.45 29.28C1297.45 30.7733 1296.97 32.0267 1296.01 33.04C1295.05 34.0533 1293.8 34.56 1292.25 34.56ZM1324.2 80.8C1320.41 80.8 1316.97 79.92 1313.88 78.16C1310.84 76.4 1308.44 74 1306.68 70.96C1304.92 67.92 1304.04 64.5333 1304.04 60.8C1304.04 57.0133 1304.92 53.6267 1306.68 50.64C1308.44 47.6 1310.84 45.2 1313.88 43.44C1316.97 41.68 1320.41 40.8 1324.2 40.8C1327.19 40.8 1329.96 41.3867 1332.52 42.56C1335.13 43.68 1337.35 45.3067 1339.16 47.44L1333.4 53.28C1332.28 51.9467 1330.92 50.96 1329.32 50.32C1327.77 49.6267 1326.07 49.28 1324.2 49.28C1322.01 49.28 1320.07 49.7867 1318.36 50.8C1316.71 51.76 1315.4 53.0933 1314.44 54.8C1313.53 56.5067 1313.08 58.5067 1313.08 60.8C1313.08 63.04 1313.53 65.04 1314.44 66.8C1315.4 68.5067 1316.71 69.8667 1318.36 70.88C1320.07 71.84 1322.01 72.32 1324.2 72.32C1326.07 72.32 1327.77 72 1329.32 71.36C1330.92 70.6667 1332.28 69.6533 1333.4 68.32L1339.16 74.16C1337.35 76.2933 1335.13 77.9467 1332.52 79.12C1329.96 80.24 1327.19 80.8 1324.2 80.8ZM1360.8 80.8C1357.34 80.8 1354.19 79.92 1351.36 78.16C1348.59 76.4 1346.38 74.0267 1344.72 71.04C1343.12 68 1342.32 64.6133 1342.32 60.88C1342.32 57.0933 1343.12 53.7067 1344.72 50.72C1346.38 47.68 1348.59 45.28 1351.36 43.52C1354.19 41.7067 1357.34 40.8 1360.8 40.8C1363.74 40.8 1366.32 41.44 1368.56 42.72C1370.86 43.9467 1372.67 45.6533 1374 47.84C1375.34 50.0267 1376 52.5067 1376 55.28V66.32C1376 69.0933 1375.34 71.5733 1374 73.76C1372.72 75.9467 1370.94 77.68 1368.64 78.96C1366.35 80.1867 1363.74 80.8 1360.8 80.8ZM1362.24 72.48C1365.5 72.48 1368.11 71.3867 1370.08 69.2C1372.11 67.0133 1373.12 64.2133 1373.12 60.8C1373.12 58.5067 1372.67 56.48 1371.76 54.72C1370.86 52.96 1369.58 51.6 1367.92 50.64C1366.32 49.6267 1364.43 49.12 1362.24 49.12C1360.11 49.12 1358.22 49.6267 1356.56 50.64C1354.96 51.6 1353.68 52.96 1352.72 54.72C1351.82 56.48 1351.36 58.5067 1351.36 60.8C1351.36 63.0933 1351.82 65.12 1352.72 66.88C1353.68 68.64 1354.96 70.0267 1356.56 71.04C1358.22 72 1360.11 72.48 1362.24 72.48ZM1372.56 80V69.68L1374.08 60.32L1372.56 51.04V41.6H1381.36V80H1372.56ZM1427.71 80.8C1424.77 80.8 1422.16 80.1867 1419.87 78.96C1417.57 77.68 1415.76 75.9467 1414.43 73.76C1413.15 71.5733 1412.51 69.0933 1412.51 66.32V55.28C1412.51 52.5067 1413.17 50.0267 1414.51 47.84C1415.84 45.6533 1417.65 43.9467 1419.95 42.72C1422.24 41.44 1424.83 40.8 1427.71 40.8C1431.17 40.8 1434.29 41.7067 1437.07 43.52C1439.89 45.28 1442.11 47.68 1443.71 50.72C1445.36 53.7067 1446.19 57.0933 1446.19 60.88C1446.19 64.6133 1445.36 68 1443.71 71.04C1442.11 74.0267 1439.89 76.4 1437.07 78.16C1434.29 79.92 1431.17 80.8 1427.71 80.8ZM1407.15 96V41.6H1415.95V51.92L1414.43 61.28L1415.95 70.56V96H1407.15ZM1426.27 72.48C1428.4 72.48 1430.27 72 1431.87 71.04C1433.52 70.0267 1434.8 68.64 1435.71 66.88C1436.67 65.12 1437.15 63.0933 1437.15 60.8C1437.15 58.5067 1436.67 56.48 1435.71 54.72C1434.8 52.96 1433.52 51.6 1431.87 50.64C1430.27 49.6267 1428.4 49.12 1426.27 49.12C1424.13 49.12 1422.24 49.6267 1420.59 50.64C1418.93 51.6 1417.65 52.96 1416.75 54.72C1415.84 56.48 1415.39 58.5067 1415.39 60.8C1415.39 63.0933 1415.84 65.12 1416.75 66.88C1417.65 68.64 1418.93 70.0267 1420.59 71.04C1422.24 72 1424.13 72.48 1426.27 72.48ZM1471.15 80.8C1467.42 80.8 1464.03 79.92 1460.99 78.16C1457.95 76.3467 1455.53 73.92 1453.71 70.88C1451.95 67.84 1451.07 64.4533 1451.07 60.72C1451.07 56.9867 1451.95 53.6267 1453.71 50.64C1455.53 47.6533 1457.95 45.28 1460.99 43.52C1464.03 41.7067 1467.42 40.8 1471.15 40.8C1474.94 40.8 1478.35 41.68 1481.39 43.44C1484.43 45.2 1486.83 47.6 1488.59 50.64C1490.41 53.6267 1491.31 56.9867 1491.31 60.72C1491.31 64.4533 1490.41 67.84 1488.59 70.88C1486.83 73.92 1484.43 76.3467 1481.39 78.16C1478.35 79.92 1474.94 80.8 1471.15 80.8ZM1471.15 72.32C1473.34 72.32 1475.26 71.84 1476.91 70.88C1478.62 69.8667 1479.93 68.48 1480.83 66.72C1481.79 64.96 1482.27 62.96 1482.27 60.72C1482.27 58.48 1481.79 56.5067 1480.83 54.8C1479.87 53.0933 1478.57 51.76 1476.91 50.8C1475.26 49.7867 1473.34 49.28 1471.15 49.28C1469.02 49.28 1467.1 49.7867 1465.39 50.8C1463.74 51.76 1462.43 53.0933 1461.47 54.8C1460.57 56.5067 1460.11 58.48 1460.11 60.72C1460.11 62.96 1460.57 64.96 1461.47 66.72C1462.43 68.48 1463.74 69.8667 1465.39 70.88C1467.1 71.84 1469.02 72.32 1471.15 72.32ZM1498.63 80V41.6H1507.43V80H1498.63ZM1507.43 58.64L1504.39 57.12C1504.39 52.2667 1505.46 48.3467 1507.59 45.36C1509.78 42.32 1513.06 40.8 1517.43 40.8C1519.35 40.8 1521.08 41.1467 1522.63 41.84C1524.18 42.5333 1525.62 43.6533 1526.95 45.2L1521.19 51.12C1520.5 50.3733 1519.72 49.84 1518.87 49.52C1518.02 49.2 1517.03 49.04 1515.91 49.04C1513.46 49.04 1511.43 49.8133 1509.83 51.36C1508.23 52.9067 1507.43 55.3333 1507.43 58.64ZM1549.83 80V24H1559.03V80H1549.83ZM1556.15 80V71.6H1587.51V80H1556.15ZM1556.15 55.44V47.36H1584.79V55.44H1556.15ZM1556.15 32.4V24H1587.11V32.4H1556.15ZM1601.66 80V25.6H1610.46V80H1601.66ZM1592.46 49.6V41.6H1619.66V49.6H1592.46ZM1641.04 80.8C1637.57 80.8 1634.42 79.92 1631.6 78.16C1628.82 76.4 1626.61 74.0267 1624.96 71.04C1623.36 68 1622.56 64.6133 1622.56 60.88C1622.56 57.0933 1623.36 53.7067 1624.96 50.72C1626.61 47.68 1628.82 45.28 1631.6 43.52C1634.42 41.7067 1637.57 40.8 1641.04 40.8C1643.97 40.8 1646.56 41.44 1648.8 42.72C1651.09 43.9467 1652.9 45.6533 1654.24 47.84C1655.57 50.0267 1656.24 52.5067 1656.24 55.28V66.32C1656.24 69.0933 1655.57 71.5733 1654.24 73.76C1652.96 75.9467 1651.17 77.68 1648.88 78.96C1646.58 80.1867 1643.97 80.8 1641.04 80.8ZM1642.48 72.48C1645.73 72.48 1648.34 71.3867 1650.32 69.2C1652.34 67.0133 1653.36 64.2133 1653.36 60.8C1653.36 58.5067 1652.9 56.48 1652 54.72C1651.09 52.96 1649.81 51.6 1648.16 50.64C1646.56 49.6267 1644.66 49.12 1642.48 49.12C1640.34 49.12 1638.45 49.6267 1636.8 50.64C1635.2 51.6 1633.92 52.96 1632.96 54.72C1632.05 56.48 1631.6 58.5067 1631.6 60.8C1631.6 63.0933 1632.05 65.12 1632.96 66.88C1633.92 68.64 1635.2 70.0267 1636.8 71.04C1638.45 72 1640.34 72.48 1642.48 72.48ZM1652.8 80V69.68L1654.32 60.32L1652.8 51.04V41.6H1661.6V80H1652.8ZM1691.92 80.8C1688.99 80.8 1686.38 80.1867 1684.08 78.96C1681.79 77.68 1679.98 75.9467 1678.64 73.76C1677.36 71.5733 1676.72 69.0933 1676.72 66.32V55.28C1676.72 52.5067 1677.39 50.0267 1678.72 47.84C1680.06 45.6533 1681.87 43.9467 1684.16 42.72C1686.46 41.44 1689.04 40.8 1691.92 40.8C1695.39 40.8 1698.51 41.7067 1701.28 43.52C1704.11 45.28 1706.32 47.68 1707.92 50.72C1709.58 53.7067 1710.4 57.0933 1710.4 60.88C1710.4 64.6133 1709.58 68 1707.92 71.04C1706.32 74.0267 1704.11 76.4 1701.28 78.16C1698.51 79.92 1695.39 80.8 1691.92 80.8ZM1671.36 96V41.6H1680.16V51.92L1678.64 61.28L1680.16 70.56V96H1671.36ZM1690.48 72.48C1692.62 72.48 1694.48 72 1696.08 71.04C1697.74 70.0267 1699.02 68.64 1699.92 66.88C1700.88 65.12 1701.36 63.0933 1701.36 60.8C1701.36 58.5067 1700.88 56.48 1699.92 54.72C1699.02 52.96 1697.74 51.6 1696.08 50.64C1694.48 49.6267 1692.62 49.12 1690.48 49.12C1688.35 49.12 1686.46 49.6267 1684.8 50.64C1683.15 51.6 1681.87 52.96 1680.96 54.72C1680.06 56.48 1679.6 58.5067 1679.6 60.8C1679.6 63.0933 1680.06 65.12 1680.96 66.88C1681.87 68.64 1683.15 70.0267 1684.8 71.04C1686.46 72 1688.35 72.48 1690.48 72.48ZM1733.85 80.8C1730.38 80.8 1727.24 79.92 1724.41 78.16C1721.64 76.4 1719.42 74.0267 1717.77 71.04C1716.17 68 1715.37 64.6133 1715.37 60.88C1715.37 57.0933 1716.17 53.7067 1717.77 50.72C1719.42 47.68 1721.64 45.28 1724.41 43.52C1727.24 41.7067 1730.38 40.8 1733.85 40.8C1736.78 40.8 1739.37 41.44 1741.61 42.72C1743.9 43.9467 1745.72 45.6533 1747.05 47.84C1748.38 50.0267 1749.05 52.5067 1749.05 55.28V66.32C1749.05 69.0933 1748.38 71.5733 1747.05 73.76C1745.77 75.9467 1743.98 77.68 1741.69 78.96C1739.4 80.1867 1736.78 80.8 1733.85 80.8ZM1735.29 72.48C1738.54 72.48 1741.16 71.3867 1743.13 69.2C1745.16 67.0133 1746.17 64.2133 1746.17 60.8C1746.17 58.5067 1745.72 56.48 1744.81 54.72C1743.9 52.96 1742.62 51.6 1740.97 50.64C1739.37 49.6267 1737.48 49.12 1735.29 49.12C1733.16 49.12 1731.26 49.6267 1729.61 50.64C1728.01 51.6 1726.73 52.96 1725.77 54.72C1724.86 56.48 1724.41 58.5067 1724.41 60.8C1724.41 63.0933 1724.86 65.12 1725.77 66.88C1726.73 68.64 1728.01 70.0267 1729.61 71.04C1731.26 72 1733.16 72.48 1735.29 72.48ZM1745.61 80V69.68L1747.13 60.32L1745.61 51.04V41.6H1754.41V80H1745.61ZM1796.27 80.8C1792.81 80.8 1789.66 79.92 1786.83 78.16C1784.06 76.4 1781.85 74.0267 1780.19 71.04C1778.59 68 1777.79 64.6133 1777.79 60.88C1777.79 57.0933 1778.59 53.7067 1780.19 50.72C1781.85 47.68 1784.06 45.28 1786.83 43.52C1789.66 41.7067 1792.81 40.8 1796.27 40.8C1799.21 40.8 1801.79 41.44 1804.03 42.72C1806.33 43.9467 1808.14 45.6533 1809.47 47.84C1810.81 50.0267 1811.47 52.5067 1811.47 55.28V66.32C1811.47 69.0933 1810.81 71.5733 1809.47 73.76C1808.19 75.9467 1806.41 77.68 1804.11 78.96C1801.82 80.1867 1799.21 80.8 1796.27 80.8ZM1797.71 72.48C1799.9 72.48 1801.79 72 1803.39 71.04C1805.05 70.0267 1806.33 68.64 1807.23 66.88C1808.14 65.12 1808.59 63.0933 1808.59 60.8C1808.59 58.5067 1808.14 56.48 1807.23 54.72C1806.33 52.96 1805.05 51.6 1803.39 50.64C1801.79 49.6267 1799.9 49.12 1797.71 49.12C1795.58 49.12 1793.69 49.6267 1792.03 50.64C1790.43 51.6 1789.15 52.96 1788.19 54.72C1787.29 56.48 1786.83 58.5067 1786.83 60.8C1786.83 63.0933 1787.29 65.12 1788.19 66.88C1789.15 68.64 1790.43 70.0267 1792.03 71.04C1793.69 72 1795.58 72.48 1797.71 72.48ZM1816.83 80H1808.03V69.68L1809.55 60.32L1808.03 51.04V22.4H1816.83V80ZM1844.44 80.8C1840.6 80.8 1837.13 79.9467 1834.04 78.24C1831 76.48 1828.57 74.08 1826.76 71.04C1825 68 1824.12 64.5867 1824.12 60.8C1824.12 57.0133 1825 53.6267 1826.76 50.64C1828.52 47.6 1830.89 45.2 1833.88 43.44C1836.92 41.68 1840.28 40.8 1843.96 40.8C1847.53 40.8 1850.68 41.6267 1853.4 43.28C1856.17 44.9333 1858.33 47.2 1859.88 50.08C1861.48 52.96 1862.28 56.24 1862.28 59.92C1862.28 60.56 1862.23 61.2267 1862.12 61.92C1862.07 62.56 1861.96 63.28 1861.8 64.08H1830.28V56.88H1857.24L1853.96 59.76C1853.85 57.4133 1853.4 55.44 1852.6 53.84C1851.8 52.24 1850.65 51.0133 1849.16 50.16C1847.72 49.3067 1845.93 48.88 1843.8 48.88C1841.56 48.88 1839.61 49.36 1837.96 50.32C1836.31 51.28 1835.03 52.64 1834.12 54.4C1833.21 56.1067 1832.76 58.16 1832.76 60.56C1832.76 62.96 1833.24 65.0667 1834.2 66.88C1835.16 68.6933 1836.52 70.1067 1838.28 71.12C1840.04 72.08 1842.07 72.56 1844.36 72.56C1846.33 72.56 1848.15 72.2133 1849.8 71.52C1851.51 70.8267 1852.95 69.8133 1854.12 68.48L1859.72 74.16C1857.85 76.3467 1855.59 78 1852.92 79.12C1850.25 80.24 1847.43 80.8 1844.44 80.8ZM1886.55 80V24H1895.75V80H1886.55ZM1892.87 80V71.6H1924.23V80H1892.87ZM1892.87 55.44V47.36H1921.51V55.44H1892.87ZM1892.87 32.4V24H1923.83V32.4H1892.87ZM1958.86 80V57.84C1958.86 55.28 1958.03 53.1733 1956.38 51.52C1954.78 49.8667 1952.7 49.04 1950.14 49.04C1948.43 49.04 1946.91 49.4133 1945.58 50.16C1944.24 50.9067 1943.2 51.9467 1942.46 53.28C1941.71 54.6133 1941.34 56.1333 1941.34 57.84L1937.9 55.92C1937.9 52.9867 1938.54 50.4 1939.82 48.16C1941.1 45.8667 1942.86 44.08 1945.1 42.8C1947.39 41.4667 1949.95 40.8 1952.78 40.8C1955.66 40.8 1958.22 41.5467 1960.46 43.04C1962.7 44.48 1964.46 46.3733 1965.74 48.72C1967.02 51.0133 1967.66 53.4133 1967.66 55.92V80H1958.86ZM1932.54 80V41.6H1941.34V80H1932.54ZM1989.16 80.8C1987.03 80.8 1984.97 80.5333 1983 80C1981.03 79.4133 1979.21 78.6133 1977.56 77.6C1975.91 76.5333 1974.47 75.2533 1973.24 73.76L1978.84 68.16C1980.17 69.7067 1981.69 70.88 1983.4 71.68C1985.16 72.4267 1987.13 72.8 1989.32 72.8C1991.29 72.8 1992.79 72.5067 1993.8 71.92C1994.81 71.3333 1995.32 70.48 1995.32 69.36C1995.32 68.1867 1994.84 67.28 1993.88 66.64C1992.92 66 1991.67 65.4667 1990.12 65.04C1988.63 64.56 1987.03 64.08 1985.32 63.6C1983.67 63.12 1982.07 62.48 1980.52 61.68C1979.03 60.8267 1977.8 59.68 1976.84 58.24C1975.88 56.8 1975.4 54.9333 1975.4 52.64C1975.4 50.1867 1975.96 48.08 1977.08 46.32C1978.25 44.56 1979.88 43.2 1981.96 42.24C1984.09 41.28 1986.63 40.8 1989.56 40.8C1992.65 40.8 1995.37 41.36 1997.72 42.48C2000.12 43.5467 2002.12 45.1733 2003.72 47.36L1998.12 52.96C1997 51.5733 1995.72 50.5333 1994.28 49.84C1992.84 49.1467 1991.19 48.8 1989.32 48.8C1987.56 48.8 1986.2 49.0667 1985.24 49.6C1984.28 50.1333 1983.8 50.9067 1983.8 51.92C1983.8 52.9867 1984.28 53.8133 1985.24 54.4C1986.2 54.9867 1987.43 55.4933 1988.92 55.92C1990.47 56.3467 1992.07 56.8267 1993.72 57.36C1995.43 57.84 1997.03 58.5333 1998.52 59.44C2000.07 60.2933 2001.32 61.4667 2002.28 62.96C2003.24 64.4 2003.72 66.2933 2003.72 68.64C2003.72 72.3733 2002.41 75.3333 1999.8 77.52C1997.19 79.7067 1993.64 80.8 1989.16 80.8ZM2011.05 80V41.6H2019.85V80H2011.05ZM2015.45 34.56C2013.96 34.56 2012.71 34.0533 2011.69 33.04C2010.73 32.0267 2010.25 30.7733 2010.25 29.28C2010.25 27.7867 2010.73 26.5333 2011.69 25.52C2012.71 24.5067 2013.96 24 2015.45 24C2017 24 2018.25 24.5067 2019.21 25.52C2020.17 26.5333 2020.65 27.7867 2020.65 29.28C2020.65 30.7733 2020.17 32.0267 2019.21 33.04C2018.25 34.0533 2017 34.56 2015.45 34.56ZM2056.04 80V57.84C2056.04 55.28 2055.22 53.1733 2053.56 51.52C2051.96 49.8667 2049.88 49.04 2047.32 49.04C2045.62 49.04 2044.1 49.4133 2042.76 50.16C2041.43 50.9067 2040.39 51.9467 2039.64 53.28C2038.9 54.6133 2038.52 56.1333 2038.52 57.84L2035.08 55.92C2035.08 52.9867 2035.72 50.4 2037 48.16C2038.28 45.8667 2040.04 44.08 2042.28 42.8C2044.58 41.4667 2047.14 40.8 2049.96 40.8C2052.84 40.8 2055.4 41.5467 2057.64 43.04C2059.88 44.48 2061.64 46.3733 2062.92 48.72C2064.2 51.0133 2064.84 53.4133 2064.84 55.92V80H2056.04ZM2029.72 80V41.6H2038.52V80H2029.72ZM2091.39 80.8C2087.65 80.8 2084.27 79.92 2081.23 78.16C2078.19 76.3467 2075.76 73.92 2073.95 70.88C2072.19 67.84 2071.31 64.4533 2071.31 60.72C2071.31 56.9867 2072.19 53.6267 2073.95 50.64C2075.76 47.6533 2078.19 45.28 2081.23 43.52C2084.27 41.7067 2087.65 40.8 2091.39 40.8C2095.17 40.8 2098.59 41.68 2101.63 43.44C2104.67 45.2 2107.07 47.6 2108.83 50.64C2110.64 53.6267 2111.55 56.9867 2111.55 60.72C2111.55 64.4533 2110.64 67.84 2108.83 70.88C2107.07 73.92 2104.67 76.3467 2101.63 78.16C2098.59 79.92 2095.17 80.8 2091.39 80.8ZM2091.39 72.32C2093.57 72.32 2095.49 71.84 2097.15 70.88C2098.85 69.8667 2100.16 68.48 2101.07 66.72C2102.03 64.96 2102.51 62.96 2102.51 60.72C2102.51 58.48 2102.03 56.5067 2101.07 54.8C2100.11 53.0933 2098.8 51.76 2097.15 50.8C2095.49 49.7867 2093.57 49.28 2091.39 49.28C2089.25 49.28 2087.33 49.7867 2085.63 50.8C2083.97 51.76 2082.67 53.0933 2081.71 54.8C2080.8 56.5067 2080.35 58.48 2080.35 60.72C2080.35 62.96 2080.8 64.96 2081.71 66.72C2082.67 68.48 2083.97 69.8667 2085.63 70.88C2087.33 71.84 2089.25 72.32 2091.39 72.32Z" fill="#9C1C2B"/>
</svg>
