<svg width="2271" height="131" viewBox="0 0 2271 131" fill="none" xmlns="http://www.w3.org/2000/svg">
<path d="M6.08 80V24H15.28V80H6.08ZM12.4 80V71.6H43.76V80H12.4ZM12.4 55.44V47.36H41.04V55.44H12.4ZM12.4 32.4V24H43.36V32.4H12.4ZM65.0275 80L47.5075 41.6H57.2675L70.6275 72.88H64.8675L78.3075 41.6H87.6675L70.1475 80H65.0275ZM109.121 80.8C105.387 80.8 102.001 79.92 98.9606 78.16C95.9206 76.3467 93.494 73.92 91.6806 70.88C89.9206 67.84 89.0406 64.4533 89.0406 60.72C89.0406 56.9867 89.9206 53.6267 91.6806 50.64C93.494 47.6533 95.9206 45.28 98.9606 43.52C102.001 41.7067 105.387 40.8 109.121 40.8C112.907 40.8 116.321 41.68 119.361 43.44C122.401 45.2 124.801 47.6 126.561 50.64C128.374 53.6267 129.281 56.9867 129.281 60.72C129.281 64.4533 128.374 67.84 126.561 70.88C124.801 73.92 122.401 76.3467 119.361 78.16C116.321 79.92 112.907 80.8 109.121 80.8ZM109.121 72.32C111.307 72.32 113.227 71.84 114.881 70.88C116.587 69.8667 117.894 68.48 118.801 66.72C119.761 64.96 120.241 62.96 120.241 60.72C120.241 58.48 119.761 56.5067 118.801 54.8C117.841 53.0933 116.534 51.76 114.881 50.8C113.227 49.7867 111.307 49.28 109.121 49.28C106.987 49.28 105.067 49.7867 103.361 50.8C101.707 51.76 100.401 53.0933 99.4406 54.8C98.534 56.5067 98.0806 58.48 98.0806 60.72C98.0806 62.96 98.534 64.96 99.4406 66.72C100.401 68.48 101.707 69.8667 103.361 70.88C105.067 71.84 106.987 72.32 109.121 72.32ZM136.599 80V22.4H145.399V80H136.599ZM170.953 80.8C167.699 80.8 164.793 80.08 162.233 78.64C159.726 77.2 157.753 75.2267 156.313 72.72C154.926 70.16 154.233 67.2267 154.233 63.92V41.6H163.033V63.52C163.033 65.3867 163.326 66.9867 163.913 68.32C164.553 69.6 165.459 70.5867 166.633 71.28C167.859 71.9733 169.299 72.32 170.953 72.32C173.513 72.32 175.459 71.5733 176.793 70.08C178.179 68.5333 178.873 66.3467 178.873 63.52V41.6H187.673V63.92C187.673 67.28 186.953 70.24 185.513 72.8C184.126 75.3067 182.179 77.28 179.673 78.72C177.166 80.1067 174.259 80.8 170.953 80.8ZM214.201 80.8C210.414 80.8 206.974 79.92 203.881 78.16C200.841 76.4 198.441 74 196.681 70.96C194.921 67.92 194.041 64.5333 194.041 60.8C194.041 57.0133 194.921 53.6267 196.681 50.64C198.441 47.6 200.841 45.2 203.881 43.44C206.974 41.68 210.414 40.8 214.201 40.8C217.187 40.8 219.961 41.3867 222.521 42.56C225.134 43.68 227.347 45.3067 229.161 47.44L223.401 53.28C222.281 51.9467 220.921 50.96 219.321 50.32C217.774 49.6267 216.067 49.28 214.201 49.28C212.014 49.28 210.067 49.7867 208.361 50.8C206.707 51.76 205.401 53.0933 204.441 54.8C203.534 56.5067 203.081 58.5067 203.081 60.8C203.081 63.04 203.534 65.04 204.441 66.8C205.401 68.5067 206.707 69.8667 208.361 70.88C210.067 71.84 212.014 72.32 214.201 72.32C216.067 72.32 217.774 72 219.321 71.36C220.921 70.6667 222.281 69.6533 223.401 68.32L229.161 74.16C227.347 76.2933 225.134 77.9467 222.521 79.12C219.961 80.24 217.187 80.8 214.201 80.8ZM211.721 96.8C209.747 96.8 208.014 96.56 206.521 96.08C205.027 95.6 203.587 94.9067 202.201 94L205.801 89.44C206.387 89.9733 207.107 90.4 207.961 90.72C208.814 91.0933 209.854 91.28 211.081 91.28C212.467 91.28 213.454 91.0933 214.041 90.72C214.681 90.3467 215.001 89.8933 215.001 89.36C215.001 88.7733 214.707 88.24 214.121 87.76C213.587 87.3333 212.707 87.12 211.481 87.12H207.321L209.961 78.88H216.361L214.441 84.64L211.241 82.24C214.547 82.1333 217.214 82.7733 219.241 84.16C221.267 85.6 222.281 87.3867 222.281 89.52C222.281 91.6 221.294 93.3333 219.321 94.72C217.401 96.1067 214.867 96.8 211.721 96.8ZM250.804 80.8C247.337 80.8 244.19 79.92 241.364 78.16C238.59 76.4 236.377 74.0267 234.724 71.04C233.124 68 232.324 64.6133 232.324 60.88C232.324 57.0933 233.124 53.7067 234.724 50.72C236.377 47.68 238.59 45.28 241.364 43.52C244.19 41.7067 247.337 40.8 250.804 40.8C253.737 40.8 256.324 41.44 258.564 42.72C260.857 43.9467 262.67 45.6533 264.004 47.84C265.337 50.0267 266.004 52.5067 266.004 55.28V66.32C266.004 69.0933 265.337 71.5733 264.004 73.76C262.724 75.9467 260.937 77.68 258.644 78.96C256.35 80.1867 253.737 80.8 250.804 80.8ZM252.244 72.48C255.497 72.48 258.11 71.3867 260.084 69.2C262.11 67.0133 263.124 64.2133 263.124 60.8C263.124 58.5067 262.67 56.48 261.764 54.72C260.857 52.96 259.577 51.6 257.924 50.64C256.324 49.6267 254.43 49.12 252.244 49.12C250.11 49.12 248.217 49.6267 246.564 50.64C244.964 51.6 243.684 52.96 242.724 54.72C241.817 56.48 241.364 58.5067 241.364 60.8C241.364 63.0933 241.817 65.12 242.724 66.88C243.684 68.64 244.964 70.0267 246.564 71.04C248.217 72 250.11 72.48 252.244 72.48ZM262.564 80V69.68L264.084 60.32L262.564 51.04V41.6H271.364V80H262.564ZM258.804 36.08C257.044 36.08 255.55 35.76 254.324 35.12C253.097 34.48 251.95 33.8667 250.884 33.28C249.87 32.64 248.724 32.32 247.444 32.32C246.11 32.32 245.044 32.56 244.244 33.04C243.444 33.52 242.67 34.24 241.924 35.2L237.204 30.48C238.75 28.72 240.297 27.3333 241.844 26.32C243.39 25.2533 245.204 24.72 247.284 24.72C249.044 24.72 250.537 25.04 251.764 25.68C252.99 26.2667 254.137 26.88 255.204 27.52C256.27 28.16 257.417 28.48 258.644 28.48C260.03 28.48 261.124 28.24 261.924 27.76C262.724 27.28 263.47 26.56 264.164 25.6L268.884 30.32C267.337 32.08 265.79 33.4933 264.244 34.56C262.697 35.5733 260.884 36.08 258.804 36.08ZM298.73 80.8C294.997 80.8 291.61 79.92 288.57 78.16C285.53 76.3467 283.103 73.92 281.29 70.88C279.53 67.84 278.65 64.4533 278.65 60.72C278.65 56.9867 279.53 53.6267 281.29 50.64C283.103 47.6533 285.53 45.28 288.57 43.52C291.61 41.7067 294.997 40.8 298.73 40.8C302.517 40.8 305.93 41.68 308.97 43.44C312.01 45.2 314.41 47.6 316.17 50.64C317.983 53.6267 318.89 56.9867 318.89 60.72C318.89 64.4533 317.983 67.84 316.17 70.88C314.41 73.92 312.01 76.3467 308.97 78.16C305.93 79.92 302.517 80.8 298.73 80.8ZM298.73 72.32C300.917 72.32 302.837 71.84 304.49 70.88C306.197 69.8667 307.503 68.48 308.41 66.72C309.37 64.96 309.85 62.96 309.85 60.72C309.85 58.48 309.37 56.5067 308.41 54.8C307.45 53.0933 306.143 51.76 304.49 50.8C302.837 49.7867 300.917 49.28 298.73 49.28C296.597 49.28 294.677 49.7867 292.97 50.8C291.317 51.76 290.01 53.0933 289.05 54.8C288.143 56.5067 287.69 58.48 287.69 60.72C287.69 62.96 288.143 64.96 289.05 66.72C290.01 68.48 291.317 69.8667 292.97 70.88C294.677 71.84 296.597 72.32 298.73 72.32ZM358.304 80.8C354.837 80.8 351.69 79.92 348.864 78.16C346.09 76.4 343.877 74.0267 342.224 71.04C340.624 68 339.824 64.6133 339.824 60.88C339.824 57.0933 340.624 53.7067 342.224 50.72C343.877 47.68 346.09 45.28 348.864 43.52C351.69 41.7067 354.837 40.8 358.304 40.8C361.237 40.8 363.824 41.44 366.064 42.72C368.357 43.9467 370.17 45.6533 371.504 47.84C372.837 50.0267 373.504 52.5067 373.504 55.28V66.32C373.504 69.0933 372.837 71.5733 371.504 73.76C370.224 75.9467 368.437 77.68 366.144 78.96C363.85 80.1867 361.237 80.8 358.304 80.8ZM359.744 72.48C361.93 72.48 363.824 72 365.424 71.04C367.077 70.0267 368.357 68.64 369.264 66.88C370.17 65.12 370.624 63.0933 370.624 60.8C370.624 58.5067 370.17 56.48 369.264 54.72C368.357 52.96 367.077 51.6 365.424 50.64C363.824 49.6267 361.93 49.12 359.744 49.12C357.61 49.12 355.717 49.6267 354.064 50.64C352.464 51.6 351.184 52.96 350.224 54.72C349.317 56.48 348.864 58.5067 348.864 60.8C348.864 63.0933 349.317 65.12 350.224 66.88C351.184 68.64 352.464 70.0267 354.064 71.04C355.717 72 357.61 72.48 359.744 72.48ZM378.864 80H370.064V69.68L371.584 60.32L370.064 51.04V22.4H378.864V80ZM404.71 80.8C401.243 80.8 398.097 79.92 395.27 78.16C392.497 76.4 390.283 74.0267 388.63 71.04C387.03 68 386.23 64.6133 386.23 60.88C386.23 57.0933 387.03 53.7067 388.63 50.72C390.283 47.68 392.497 45.28 395.27 43.52C398.097 41.7067 401.243 40.8 404.71 40.8C407.643 40.8 410.23 41.44 412.47 42.72C414.763 43.9467 416.577 45.6533 417.91 47.84C419.243 50.0267 419.91 52.5067 419.91 55.28V66.32C419.91 69.0933 419.243 71.5733 417.91 73.76C416.63 75.9467 414.843 77.68 412.55 78.96C410.257 80.1867 407.643 80.8 404.71 80.8ZM406.15 72.48C409.403 72.48 412.017 71.3867 413.99 69.2C416.017 67.0133 417.03 64.2133 417.03 60.8C417.03 58.5067 416.577 56.48 415.67 54.72C414.763 52.96 413.483 51.6 411.83 50.64C410.23 49.6267 408.337 49.12 406.15 49.12C404.017 49.12 402.123 49.6267 400.47 50.64C398.87 51.6 397.59 52.96 396.63 54.72C395.723 56.48 395.27 58.5067 395.27 60.8C395.27 63.0933 395.723 65.12 396.63 66.88C397.59 68.64 398.87 70.0267 400.47 71.04C402.123 72 404.017 72.48 406.15 72.48ZM416.47 80V69.68L417.99 60.32L416.47 51.04V41.6H425.27V80H416.47ZM465.082 80V25.6H474.282V80H465.082ZM446.842 32.4V24H492.522V32.4H446.842ZM505.491 80.8C502.025 80.8 498.878 79.92 496.051 78.16C493.278 76.4 491.065 74.0267 489.411 71.04C487.811 68 487.011 64.6133 487.011 60.88C487.011 57.0933 487.811 53.7067 489.411 50.72C491.065 47.68 493.278 45.28 496.051 43.52C498.878 41.7067 502.025 40.8 505.491 40.8C508.425 40.8 511.011 41.44 513.251 42.72C515.545 43.9467 517.358 45.6533 518.691 47.84C520.025 50.0267 520.691 52.5067 520.691 55.28V66.32C520.691 69.0933 520.025 71.5733 518.691 73.76C517.411 75.9467 515.625 77.68 513.331 78.96C511.038 80.1867 508.425 80.8 505.491 80.8ZM506.931 72.48C510.185 72.48 512.798 71.3867 514.771 69.2C516.798 67.0133 517.811 64.2133 517.811 60.8C517.811 58.5067 517.358 56.48 516.451 54.72C515.545 52.96 514.265 51.6 512.611 50.64C511.011 49.6267 509.118 49.12 506.931 49.12C504.798 49.12 502.905 49.6267 501.251 50.64C499.651 51.6 498.371 52.96 497.411 54.72C496.505 56.48 496.051 58.5067 496.051 60.8C496.051 63.0933 496.505 65.12 497.411 66.88C498.371 68.64 499.651 70.0267 501.251 71.04C502.905 72 504.798 72.48 506.931 72.48ZM517.251 80V69.68L518.771 60.32L517.251 51.04V41.6H526.051V80H517.251ZM560.138 80L549.098 63.76L547.498 62.32L532.618 41.6H543.258L553.098 55.84L554.618 57.2L570.698 80H560.138ZM531.898 80L547.418 58.48L552.538 64.8L542.138 80H531.898ZM555.418 62.16L550.218 55.92L559.818 41.6H569.978L555.418 62.16ZM591.507 80.8C588.04 80.8 584.894 79.92 582.067 78.16C579.294 76.4 577.08 74.0267 575.427 71.04C573.827 68 573.027 64.6133 573.027 60.88C573.027 57.0933 573.827 53.7067 575.427 50.72C577.08 47.68 579.294 45.28 582.067 43.52C584.894 41.7067 588.04 40.8 591.507 40.8C594.44 40.8 597.027 41.44 599.267 42.72C601.56 43.9467 603.374 45.6533 604.707 47.84C606.04 50.0267 606.707 52.5067 606.707 55.28V66.32C606.707 69.0933 606.04 71.5733 604.707 73.76C603.427 75.9467 601.64 77.68 599.347 78.96C597.054 80.1867 594.44 80.8 591.507 80.8ZM592.947 72.48C596.2 72.48 598.814 71.3867 600.787 69.2C602.814 67.0133 603.827 64.2133 603.827 60.8C603.827 58.5067 603.374 56.48 602.467 54.72C601.56 52.96 600.28 51.6 598.627 50.64C597.027 49.6267 595.134 49.12 592.947 49.12C590.814 49.12 588.92 49.6267 587.267 50.64C585.667 51.6 584.387 52.96 583.427 54.72C582.52 56.48 582.067 58.5067 582.067 60.8C582.067 63.0933 582.52 65.12 583.427 66.88C584.387 68.64 585.667 70.0267 587.267 71.04C588.92 72 590.814 72.48 592.947 72.48ZM603.267 80V69.68L604.787 60.32L603.267 51.04V41.6H612.067V80H603.267ZM653.929 80.8C650.462 80.8 647.315 79.92 644.489 78.16C641.715 76.4 639.502 74.0267 637.849 71.04C636.249 68 635.449 64.6133 635.449 60.88C635.449 57.0933 636.249 53.7067 637.849 50.72C639.502 47.68 641.715 45.28 644.489 43.52C647.315 41.7067 650.462 40.8 653.929 40.8C656.862 40.8 659.449 41.44 661.689 42.72C663.982 43.9467 665.795 45.6533 667.129 47.84C668.462 50.0267 669.129 52.5067 669.129 55.28V66.32C669.129 69.0933 668.462 71.5733 667.129 73.76C665.849 75.9467 664.062 77.68 661.769 78.96C659.475 80.1867 656.862 80.8 653.929 80.8ZM655.369 72.48C657.555 72.48 659.449 72 661.049 71.04C662.702 70.0267 663.982 68.64 664.889 66.88C665.795 65.12 666.249 63.0933 666.249 60.8C666.249 58.5067 665.795 56.48 664.889 54.72C663.982 52.96 662.702 51.6 661.049 50.64C659.449 49.6267 657.555 49.12 655.369 49.12C653.235 49.12 651.342 49.6267 649.689 50.64C648.089 51.6 646.809 52.96 645.849 54.72C644.942 56.48 644.489 58.5067 644.489 60.8C644.489 63.0933 644.942 65.12 645.849 66.88C646.809 68.64 648.089 70.0267 649.689 71.04C651.342 72 653.235 72.48 655.369 72.48ZM674.489 80H665.689V69.68L667.209 60.32L665.689 51.04V22.4H674.489V80ZM702.095 80.8C698.255 80.8 694.788 79.9467 691.695 78.24C688.655 76.48 686.228 74.08 684.415 71.04C682.655 68 681.775 64.5867 681.775 60.8C681.775 57.0133 682.655 53.6267 684.415 50.64C686.175 47.6 688.548 45.2 691.535 43.44C694.575 41.68 697.935 40.8 701.615 40.8C705.188 40.8 708.335 41.6267 711.055 43.28C713.828 44.9333 715.988 47.2 717.535 50.08C719.135 52.96 719.935 56.24 719.935 59.92C719.935 60.56 719.882 61.2267 719.775 61.92C719.722 62.56 719.615 63.28 719.455 64.08H687.935V56.88H714.895L711.615 59.76C711.508 57.4133 711.055 55.44 710.255 53.84C709.455 52.24 708.308 51.0133 706.815 50.16C705.375 49.3067 703.588 48.88 701.455 48.88C699.215 48.88 697.268 49.36 695.615 50.32C693.962 51.28 692.682 52.64 691.775 54.4C690.868 56.1067 690.415 58.16 690.415 60.56C690.415 62.96 690.895 65.0667 691.855 66.88C692.815 68.6933 694.175 70.1067 695.935 71.12C697.695 72.08 699.722 72.56 702.015 72.56C703.988 72.56 705.802 72.2133 707.455 71.52C709.162 70.8267 710.602 69.8133 711.775 68.48L717.375 74.16C715.508 76.3467 713.242 78 710.575 79.12C707.908 80.24 705.082 80.8 702.095 80.8ZM750.525 56.24V48.64H764.685C767.512 48.64 769.698 47.92 771.245 46.48C772.845 44.9867 773.645 42.9333 773.645 40.32C773.645 37.9733 772.872 36 771.325 34.4C769.778 32.8 767.592 32 764.765 32H750.525V24H765.165C768.685 24 771.778 24.72 774.445 26.16C777.112 27.5467 779.165 29.4667 780.605 31.92C782.098 34.32 782.845 37.0667 782.845 40.16C782.845 43.4133 782.098 46.24 780.605 48.64C779.165 51.04 777.112 52.9067 774.445 54.24C771.778 55.5733 768.685 56.24 765.165 56.24H750.525ZM744.205 80V24H753.405V80H744.205ZM774.925 80L755.325 55.68L763.885 52.56L786.525 80H774.925ZM808.814 80.8C804.974 80.8 801.507 79.9467 798.414 78.24C795.374 76.48 792.947 74.08 791.134 71.04C789.374 68 788.494 64.5867 788.494 60.8C788.494 57.0133 789.374 53.6267 791.134 50.64C792.894 47.6 795.267 45.2 798.254 43.44C801.294 41.68 804.654 40.8 808.334 40.8C811.907 40.8 815.054 41.6267 817.774 43.28C820.547 44.9333 822.707 47.2 824.254 50.08C825.854 52.96 826.654 56.24 826.654 59.92C826.654 60.56 826.6 61.2267 826.494 61.92C826.44 62.56 826.334 63.28 826.174 64.08H794.654V56.88H821.614L818.334 59.76C818.227 57.4133 817.774 55.44 816.974 53.84C816.174 52.24 815.027 51.0133 813.534 50.16C812.094 49.3067 810.307 48.88 808.174 48.88C805.934 48.88 803.987 49.36 802.334 50.32C800.68 51.28 799.4 52.64 798.494 54.4C797.587 56.1067 797.134 58.16 797.134 60.56C797.134 62.96 797.614 65.0667 798.574 66.88C799.534 68.6933 800.894 70.1067 802.654 71.12C804.414 72.08 806.44 72.56 808.734 72.56C810.707 72.56 812.52 72.2133 814.174 71.52C815.88 70.8267 817.32 69.8133 818.494 68.48L824.094 74.16C822.227 76.3467 819.96 78 817.294 79.12C814.627 80.24 811.8 80.8 808.814 80.8ZM854.268 80.8C851.335 80.8 848.721 80.1867 846.428 78.96C844.135 77.68 842.321 75.9467 840.988 73.76C839.708 71.5733 839.068 69.0933 839.068 66.32V55.28C839.068 52.5067 839.735 50.0267 841.068 47.84C842.401 45.6533 844.215 43.9467 846.508 42.72C848.801 41.44 851.388 40.8 854.268 40.8C857.735 40.8 860.855 41.7067 863.628 43.52C866.455 45.28 868.668 47.68 870.268 50.72C871.921 53.7067 872.748 57.0933 872.748 60.88C872.748 64.6133 871.921 68 870.268 71.04C868.668 74.0267 866.455 76.4 863.628 78.16C860.855 79.92 857.735 80.8 854.268 80.8ZM833.708 96V41.6H842.508V51.92L840.988 61.28L842.508 70.56V96H833.708ZM852.828 72.48C854.961 72.48 856.828 72 858.428 71.04C860.081 70.0267 861.361 68.64 862.268 66.88C863.228 65.12 863.708 63.0933 863.708 60.8C863.708 58.5067 863.228 56.48 862.268 54.72C861.361 52.96 860.081 51.6 858.428 50.64C856.828 49.6267 854.961 49.12 852.828 49.12C850.695 49.12 848.801 49.6267 847.148 50.64C845.495 51.6 844.215 52.96 843.308 54.72C842.401 56.48 841.948 58.5067 841.948 60.8C841.948 63.0933 842.401 65.12 843.308 66.88C844.215 68.64 845.495 70.0267 847.148 71.04C848.801 72 850.695 72.48 852.828 72.48ZM880.114 80V41.6H888.914V80H880.114ZM888.914 58.64L885.874 57.12C885.874 52.2667 886.941 48.3467 889.074 45.36C891.261 42.32 894.541 40.8 898.914 40.8C900.834 40.8 902.568 41.1467 904.114 41.84C905.661 42.5333 907.101 43.6533 908.434 45.2L902.674 51.12C901.981 50.3733 901.208 49.84 900.354 49.52C899.501 49.2 898.514 49.04 897.394 49.04C894.941 49.04 892.914 49.8133 891.314 51.36C889.714 52.9067 888.914 55.3333 888.914 58.64ZM929.121 80.8C925.387 80.8 922.001 79.92 918.961 78.16C915.921 76.3467 913.494 73.92 911.681 70.88C909.921 67.84 909.041 64.4533 909.041 60.72C909.041 56.9867 909.921 53.6267 911.681 50.64C913.494 47.6533 915.921 45.28 918.961 43.52C922.001 41.7067 925.387 40.8 929.121 40.8C932.907 40.8 936.321 41.68 939.361 43.44C942.401 45.2 944.801 47.6 946.561 50.64C948.374 53.6267 949.281 56.9867 949.281 60.72C949.281 64.4533 948.374 67.84 946.561 70.88C944.801 73.92 942.401 76.3467 939.361 78.16C936.321 79.92 932.907 80.8 929.121 80.8ZM929.121 72.32C931.307 72.32 933.227 71.84 934.881 70.88C936.587 69.8667 937.894 68.48 938.801 66.72C939.761 64.96 940.241 62.96 940.241 60.72C940.241 58.48 939.761 56.5067 938.801 54.8C937.841 53.0933 936.534 51.76 934.881 50.8C933.227 49.7867 931.307 49.28 929.121 49.28C926.987 49.28 925.067 49.7867 923.361 50.8C921.707 51.76 920.401 53.0933 919.441 54.8C918.534 56.5067 918.081 58.48 918.081 60.72C918.081 62.96 918.534 64.96 919.441 66.72C920.401 68.48 921.707 69.8667 923.361 70.88C925.067 71.84 926.987 72.32 929.121 72.32ZM968.231 80L950.711 41.6H960.471L973.831 72.88H968.071L981.511 41.6H990.871L973.351 80H968.231ZM1010.8 80.8C1007.34 80.8 1004.19 79.92 1001.36 78.16C998.59 76.4 996.377 74.0267 994.724 71.04C993.124 68 992.324 64.6133 992.324 60.88C992.324 57.0933 993.124 53.7067 994.724 50.72C996.377 47.68 998.59 45.28 1001.36 43.52C1004.19 41.7067 1007.34 40.8 1010.8 40.8C1013.74 40.8 1016.32 41.44 1018.56 42.72C1020.86 43.9467 1022.67 45.6533 1024 47.84C1025.34 50.0267 1026 52.5067 1026 55.28V66.32C1026 69.0933 1025.34 71.5733 1024 73.76C1022.72 75.9467 1020.94 77.68 1018.64 78.96C1016.35 80.1867 1013.74 80.8 1010.8 80.8ZM1012.24 72.48C1015.5 72.48 1018.11 71.3867 1020.08 69.2C1022.11 67.0133 1023.12 64.2133 1023.12 60.8C1023.12 58.5067 1022.67 56.48 1021.76 54.72C1020.86 52.96 1019.58 51.6 1017.92 50.64C1016.32 49.6267 1014.43 49.12 1012.24 49.12C1010.11 49.12 1008.22 49.6267 1006.56 50.64C1004.96 51.6 1003.68 52.96 1002.72 54.72C1001.82 56.48 1001.36 58.5067 1001.36 60.8C1001.36 63.0933 1001.82 65.12 1002.72 66.88C1003.68 68.64 1004.96 70.0267 1006.56 71.04C1008.22 72 1010.11 72.48 1012.24 72.48ZM1022.56 80V69.68L1024.08 60.32L1022.56 51.04V41.6H1031.36V80H1022.56ZM1058.81 80.8C1055.02 80.8 1051.58 79.92 1048.49 78.16C1045.45 76.4 1043.05 74 1041.29 70.96C1039.53 67.92 1038.65 64.5333 1038.65 60.8C1038.65 57.0133 1039.53 53.6267 1041.29 50.64C1043.05 47.6 1045.45 45.2 1048.49 43.44C1051.58 41.68 1055.02 40.8 1058.81 40.8C1061.8 40.8 1064.57 41.3867 1067.13 42.56C1069.74 43.68 1071.96 45.3067 1073.77 47.44L1068.01 53.28C1066.89 51.9467 1065.53 50.96 1063.93 50.32C1062.38 49.6267 1060.68 49.28 1058.81 49.28C1056.62 49.28 1054.68 49.7867 1052.97 50.8C1051.32 51.76 1050.01 53.0933 1049.05 54.8C1048.14 56.5067 1047.69 58.5067 1047.69 60.8C1047.69 63.04 1048.14 65.04 1049.05 66.8C1050.01 68.5067 1051.32 69.8667 1052.97 70.88C1054.68 71.84 1056.62 72.32 1058.81 72.32C1060.68 72.32 1062.38 72 1063.93 71.36C1065.53 70.6667 1066.89 69.6533 1068.01 68.32L1073.77 74.16C1071.96 76.2933 1069.74 77.9467 1067.13 79.12C1064.57 80.24 1061.8 80.8 1058.81 80.8ZM1056.33 96.8C1054.36 96.8 1052.62 96.56 1051.13 96.08C1049.64 95.6 1048.2 94.9067 1046.81 94L1050.41 89.44C1051 89.9733 1051.72 90.4 1052.57 90.72C1053.42 91.0933 1054.46 91.28 1055.69 91.28C1057.08 91.28 1058.06 91.0933 1058.65 90.72C1059.29 90.3467 1059.61 89.8933 1059.61 89.36C1059.61 88.7733 1059.32 88.24 1058.73 87.76C1058.2 87.3333 1057.32 87.12 1056.09 87.12H1051.93L1054.57 78.88H1060.97L1059.05 84.64L1055.85 82.24C1059.16 82.1333 1061.82 82.7733 1063.85 84.16C1065.88 85.6 1066.89 87.3867 1066.89 89.52C1066.89 91.6 1065.9 93.3333 1063.93 94.72C1062.01 96.1067 1059.48 96.8 1056.33 96.8ZM1095.41 80.8C1091.95 80.8 1088.8 79.92 1085.97 78.16C1083.2 76.4 1080.99 74.0267 1079.33 71.04C1077.73 68 1076.93 64.6133 1076.93 60.88C1076.93 57.0933 1077.73 53.7067 1079.33 50.72C1080.99 47.68 1083.2 45.28 1085.97 43.52C1088.8 41.7067 1091.95 40.8 1095.41 40.8C1098.35 40.8 1100.93 41.44 1103.17 42.72C1105.47 43.9467 1107.28 45.6533 1108.61 47.84C1109.95 50.0267 1110.61 52.5067 1110.61 55.28V66.32C1110.61 69.0933 1109.95 71.5733 1108.61 73.76C1107.33 75.9467 1105.55 77.68 1103.25 78.96C1100.96 80.1867 1098.35 80.8 1095.41 80.8ZM1096.85 72.48C1100.11 72.48 1102.72 71.3867 1104.69 69.2C1106.72 67.0133 1107.73 64.2133 1107.73 60.8C1107.73 58.5067 1107.28 56.48 1106.37 54.72C1105.47 52.96 1104.19 51.6 1102.53 50.64C1100.93 49.6267 1099.04 49.12 1096.85 49.12C1094.72 49.12 1092.83 49.6267 1091.17 50.64C1089.57 51.6 1088.29 52.96 1087.33 54.72C1086.43 56.48 1085.97 58.5067 1085.97 60.8C1085.97 63.0933 1086.43 65.12 1087.33 66.88C1088.29 68.64 1089.57 70.0267 1091.17 71.04C1092.83 72 1094.72 72.48 1096.85 72.48ZM1107.17 80V69.68L1108.69 60.32L1107.17 51.04V41.6H1115.97V80H1107.17ZM1103.41 36.08C1101.65 36.08 1100.16 35.76 1098.93 35.12C1097.71 34.48 1096.56 33.8667 1095.49 33.28C1094.48 32.64 1093.33 32.32 1092.05 32.32C1090.72 32.32 1089.65 32.56 1088.85 33.04C1088.05 33.52 1087.28 34.24 1086.53 35.2L1081.81 30.48C1083.36 28.72 1084.91 27.3333 1086.45 26.32C1088 25.2533 1089.81 24.72 1091.89 24.72C1093.65 24.72 1095.15 25.04 1096.37 25.68C1097.6 26.2667 1098.75 26.88 1099.81 27.52C1100.88 28.16 1102.03 28.48 1103.25 28.48C1104.64 28.48 1105.73 28.24 1106.53 27.76C1107.33 27.28 1108.08 26.56 1108.77 25.6L1113.49 30.32C1111.95 32.08 1110.4 33.4933 1108.85 34.56C1107.31 35.5733 1105.49 36.08 1103.41 36.08ZM1143.34 80.8C1139.61 80.8 1136.22 79.92 1133.18 78.16C1130.14 76.3467 1127.71 73.92 1125.9 70.88C1124.14 67.84 1123.26 64.4533 1123.26 60.72C1123.26 56.9867 1124.14 53.6267 1125.9 50.64C1127.71 47.6533 1130.14 45.28 1133.18 43.52C1136.22 41.7067 1139.61 40.8 1143.34 40.8C1147.13 40.8 1150.54 41.68 1153.58 43.44C1156.62 45.2 1159.02 47.6 1160.78 50.64C1162.59 53.6267 1163.5 56.9867 1163.5 60.72C1163.5 64.4533 1162.59 67.84 1160.78 70.88C1159.02 73.92 1156.62 76.3467 1153.58 78.16C1150.54 79.92 1147.13 80.8 1143.34 80.8ZM1143.34 72.32C1145.53 72.32 1147.45 71.84 1149.1 70.88C1150.81 69.8667 1152.11 68.48 1153.02 66.72C1153.98 64.96 1154.46 62.96 1154.46 60.72C1154.46 58.48 1153.98 56.5067 1153.02 54.8C1152.06 53.0933 1150.75 51.76 1149.1 50.8C1147.45 49.7867 1145.53 49.28 1143.34 49.28C1141.21 49.28 1139.29 49.7867 1137.58 50.8C1135.93 51.76 1134.62 53.0933 1133.66 54.8C1132.75 56.5067 1132.3 58.48 1132.3 60.72C1132.3 62.96 1132.75 64.96 1133.66 66.72C1134.62 68.48 1135.93 69.8667 1137.58 70.88C1139.29 71.84 1141.21 72.32 1143.34 72.32ZM1213.15 80V57.84C1213.15 55.28 1212.33 53.1733 1210.67 51.52C1209.07 49.8667 1206.99 49.04 1204.43 49.04C1202.73 49.04 1201.21 49.4133 1199.87 50.16C1198.54 50.9067 1197.5 51.9467 1196.75 53.28C1196.01 54.6133 1195.63 56.1333 1195.63 57.84L1192.19 55.92C1192.19 52.9867 1192.83 50.4 1194.11 48.16C1195.39 45.8667 1197.15 44.08 1199.39 42.8C1201.69 41.4667 1204.25 40.8 1207.07 40.8C1209.95 40.8 1212.51 41.5467 1214.75 43.04C1216.99 44.48 1218.75 46.3733 1220.03 48.72C1221.31 51.0133 1221.95 53.4133 1221.95 55.92V80H1213.15ZM1186.83 80V41.6H1195.63V80H1186.83ZM1248.5 80.8C1244.76 80.8 1241.38 79.92 1238.34 78.16C1235.3 76.3467 1232.87 73.92 1231.06 70.88C1229.3 67.84 1228.42 64.4533 1228.42 60.72C1228.42 56.9867 1229.3 53.6267 1231.06 50.64C1232.87 47.6533 1235.3 45.28 1238.34 43.52C1241.38 41.7067 1244.76 40.8 1248.5 40.8C1252.28 40.8 1255.7 41.68 1258.74 43.44C1261.78 45.2 1264.18 47.6 1265.94 50.64C1267.75 53.6267 1268.66 56.9867 1268.66 60.72C1268.66 64.4533 1267.75 67.84 1265.94 70.88C1264.18 73.92 1261.78 76.3467 1258.74 78.16C1255.7 79.92 1252.28 80.8 1248.5 80.8ZM1248.5 72.32C1250.68 72.32 1252.6 71.84 1254.26 70.88C1255.96 69.8667 1257.27 68.48 1258.18 66.72C1259.14 64.96 1259.62 62.96 1259.62 60.72C1259.62 58.48 1259.14 56.5067 1258.18 54.8C1257.22 53.0933 1255.91 51.76 1254.26 50.8C1252.6 49.7867 1250.68 49.28 1248.5 49.28C1246.36 49.28 1244.44 49.7867 1242.74 50.8C1241.08 51.76 1239.78 53.0933 1238.82 54.8C1237.91 56.5067 1237.46 58.48 1237.46 60.72C1237.46 62.96 1237.91 64.96 1238.82 66.72C1239.78 68.48 1241.08 69.8667 1242.74 70.88C1244.44 71.84 1246.36 72.32 1248.5 72.32ZM1293.19 80V24H1302.39V80H1293.19ZM1299.51 80V71.6H1330.87V80H1299.51ZM1299.51 55.44V47.36H1328.15V55.44H1299.51ZM1299.51 32.4V24H1330.47V32.4H1299.51ZM1365.5 80V57.84C1365.5 55.28 1364.67 53.1733 1363.02 51.52C1361.42 49.8667 1359.34 49.04 1356.78 49.04C1355.07 49.04 1353.55 49.4133 1352.22 50.16C1350.88 50.9067 1349.84 51.9467 1349.1 53.28C1348.35 54.6133 1347.98 56.1333 1347.98 57.84L1344.54 55.92C1344.54 52.9867 1345.18 50.4 1346.46 48.16C1347.74 45.8667 1349.5 44.08 1351.74 42.8C1354.03 41.4667 1356.59 40.8 1359.42 40.8C1362.3 40.8 1364.86 41.5467 1367.1 43.04C1369.34 44.48 1371.1 46.3733 1372.38 48.72C1373.66 51.0133 1374.3 53.4133 1374.3 55.92V80H1365.5ZM1339.18 80V41.6H1347.98V80H1339.18ZM1395.8 80.8C1393.67 80.8 1391.61 80.5333 1389.64 80C1387.67 79.4133 1385.85 78.6133 1384.2 77.6C1382.55 76.5333 1381.11 75.2533 1379.88 73.76L1385.48 68.16C1386.81 69.7067 1388.33 70.88 1390.04 71.68C1391.8 72.4267 1393.77 72.8 1395.96 72.8C1397.93 72.8 1399.43 72.5067 1400.44 71.92C1401.45 71.3333 1401.96 70.48 1401.96 69.36C1401.96 68.1867 1401.48 67.28 1400.52 66.64C1399.56 66 1398.31 65.4667 1396.76 65.04C1395.27 64.56 1393.67 64.08 1391.96 63.6C1390.31 63.12 1388.71 62.48 1387.16 61.68C1385.67 60.8267 1384.44 59.68 1383.48 58.24C1382.52 56.8 1382.04 54.9333 1382.04 52.64C1382.04 50.1867 1382.6 48.08 1383.72 46.32C1384.89 44.56 1386.52 43.2 1388.6 42.24C1390.73 41.28 1393.27 40.8 1396.2 40.8C1399.29 40.8 1402.01 41.36 1404.36 42.48C1406.76 43.5467 1408.76 45.1733 1410.36 47.36L1404.76 52.96C1403.64 51.5733 1402.36 50.5333 1400.92 49.84C1399.48 49.1467 1397.83 48.8 1395.96 48.8C1394.2 48.8 1392.84 49.0667 1391.88 49.6C1390.92 50.1333 1390.44 50.9067 1390.44 51.92C1390.44 52.9867 1390.92 53.8133 1391.88 54.4C1392.84 54.9867 1394.07 55.4933 1395.56 55.92C1397.11 56.3467 1398.71 56.8267 1400.36 57.36C1402.07 57.84 1403.67 58.5333 1405.16 59.44C1406.71 60.2933 1407.96 61.4667 1408.92 62.96C1409.88 64.4 1410.36 66.2933 1410.36 68.64C1410.36 72.3733 1409.05 75.3333 1406.44 77.52C1403.83 79.7067 1400.28 80.8 1395.8 80.8ZM1417.69 80V41.6H1426.49V80H1417.69ZM1422.09 34.56C1420.6 34.56 1419.35 34.0533 1418.33 33.04C1417.37 32.0267 1416.89 30.7733 1416.89 29.28C1416.89 27.7867 1417.37 26.5333 1418.33 25.52C1419.35 24.5067 1420.6 24 1422.09 24C1423.64 24 1424.89 24.5067 1425.85 25.52C1426.81 26.5333 1427.29 27.7867 1427.29 29.28C1427.29 30.7733 1426.81 32.0267 1425.85 33.04C1424.89 34.0533 1423.64 34.56 1422.09 34.56ZM1462.68 80V57.84C1462.68 55.28 1461.86 53.1733 1460.2 51.52C1458.6 49.8667 1456.52 49.04 1453.96 49.04C1452.26 49.04 1450.74 49.4133 1449.4 50.16C1448.07 50.9067 1447.03 51.9467 1446.28 53.28C1445.54 54.6133 1445.16 56.1333 1445.16 57.84L1441.72 55.92C1441.72 52.9867 1442.36 50.4 1443.64 48.16C1444.92 45.8667 1446.68 44.08 1448.92 42.8C1451.22 41.4667 1453.78 40.8 1456.6 40.8C1459.48 40.8 1462.04 41.5467 1464.28 43.04C1466.52 44.48 1468.28 46.3733 1469.56 48.72C1470.84 51.0133 1471.48 53.4133 1471.48 55.92V80H1462.68ZM1436.36 80V41.6H1445.16V80H1436.36ZM1498.03 80.8C1494.29 80.8 1490.91 79.92 1487.87 78.16C1484.83 76.3467 1482.4 73.92 1480.59 70.88C1478.83 67.84 1477.95 64.4533 1477.95 60.72C1477.95 56.9867 1478.83 53.6267 1480.59 50.64C1482.4 47.6533 1484.83 45.28 1487.87 43.52C1490.91 41.7067 1494.29 40.8 1498.03 40.8C1501.81 40.8 1505.23 41.68 1508.27 43.44C1511.31 45.2 1513.71 47.6 1515.47 50.64C1517.28 53.6267 1518.19 56.9867 1518.19 60.72C1518.19 64.4533 1517.28 67.84 1515.47 70.88C1513.71 73.92 1511.31 76.3467 1508.27 78.16C1505.23 79.92 1501.81 80.8 1498.03 80.8ZM1498.03 72.32C1500.21 72.32 1502.13 71.84 1503.79 70.88C1505.49 69.8667 1506.8 68.48 1507.71 66.72C1508.67 64.96 1509.15 62.96 1509.15 60.72C1509.15 58.48 1508.67 56.5067 1507.71 54.8C1506.75 53.0933 1505.44 51.76 1503.79 50.8C1502.13 49.7867 1500.21 49.28 1498.03 49.28C1495.89 49.28 1493.97 49.7867 1492.27 50.8C1490.61 51.76 1489.31 53.0933 1488.35 54.8C1487.44 56.5067 1486.99 58.48 1486.99 60.72C1486.99 62.96 1487.44 64.96 1488.35 66.72C1489.31 68.48 1490.61 69.8667 1492.27 70.88C1493.97 71.84 1495.89 72.32 1498.03 72.32ZM1549.04 80V72H1565.12C1567.95 72 1570.13 71.12 1571.68 69.36C1573.23 67.6 1574 65.5733 1574 63.28C1574 61.7333 1573.65 60.2933 1572.96 58.96C1572.27 57.6267 1571.25 56.56 1569.92 55.76C1568.59 54.96 1566.99 54.56 1565.12 54.56H1549.04V46.56H1563.76C1566.16 46.56 1568.08 45.9467 1569.52 44.72C1570.96 43.4933 1571.68 41.68 1571.68 39.28C1571.68 36.88 1570.96 35.0667 1569.52 33.84C1568.08 32.6133 1566.16 32 1563.76 32H1549.04V24H1564C1567.79 24 1570.93 24.6933 1573.44 26.08C1575.95 27.4667 1577.81 29.2533 1579.04 31.44C1580.27 33.6267 1580.88 35.9733 1580.88 38.48C1580.88 41.4133 1580.05 44 1578.4 46.24C1576.8 48.48 1574.43 50.2933 1571.28 51.68L1572 48.8C1575.52 50.24 1578.27 52.2667 1580.24 54.88C1582.21 57.4933 1583.2 60.56 1583.2 64.08C1583.2 66.96 1582.48 69.6 1581.04 72C1579.65 74.4 1577.57 76.3467 1574.8 77.84C1572.08 79.28 1568.72 80 1564.72 80H1549.04ZM1542.72 80V24H1551.92V80H1542.72ZM1607.37 80.8C1603.9 80.8 1600.75 79.92 1597.93 78.16C1595.15 76.4 1592.94 74.0267 1591.29 71.04C1589.69 68 1588.89 64.6133 1588.89 60.88C1588.89 57.0933 1589.69 53.7067 1591.29 50.72C1592.94 47.68 1595.15 45.28 1597.93 43.52C1600.75 41.7067 1603.9 40.8 1607.37 40.8C1610.3 40.8 1612.89 41.44 1615.13 42.72C1617.42 43.9467 1619.23 45.6533 1620.57 47.84C1621.9 50.0267 1622.57 52.5067 1622.57 55.28V66.32C1622.57 69.0933 1621.9 71.5733 1620.57 73.76C1619.29 75.9467 1617.5 77.68 1615.21 78.96C1612.91 80.1867 1610.3 80.8 1607.37 80.8ZM1608.81 72.48C1612.06 72.48 1614.67 71.3867 1616.65 69.2C1618.67 67.0133 1619.69 64.2133 1619.69 60.8C1619.69 58.5067 1619.23 56.48 1618.33 54.72C1617.42 52.96 1616.14 51.6 1614.49 50.64C1612.89 49.6267 1610.99 49.12 1608.81 49.12C1606.67 49.12 1604.78 49.6267 1603.13 50.64C1601.53 51.6 1600.25 52.96 1599.29 54.72C1598.38 56.48 1597.93 58.5067 1597.93 60.8C1597.93 63.0933 1598.38 65.12 1599.29 66.88C1600.25 68.64 1601.53 70.0267 1603.13 71.04C1604.78 72 1606.67 72.48 1608.81 72.48ZM1619.13 80V69.68L1620.65 60.32L1619.13 51.04V41.6H1627.93V80H1619.13ZM1605.05 36.08L1601.05 32.08L1611.29 19.04L1618.09 25.84L1605.05 36.08ZM1650.25 80.8C1648.12 80.8 1646.07 80.5333 1644.09 80C1642.12 79.4133 1640.31 78.6133 1638.65 77.6C1637 76.5333 1635.56 75.2533 1634.33 73.76L1639.93 68.16C1641.27 69.7067 1642.79 70.88 1644.49 71.68C1646.25 72.4267 1648.23 72.8 1650.41 72.8C1652.39 72.8 1653.88 72.5067 1654.89 71.92C1655.91 71.3333 1656.41 70.48 1656.41 69.36C1656.41 68.1867 1655.93 67.28 1654.97 66.64C1654.01 66 1652.76 65.4667 1651.21 65.04C1649.72 64.56 1648.12 64.08 1646.41 63.6C1644.76 63.12 1643.16 62.48 1641.61 61.68C1640.12 60.8267 1638.89 59.68 1637.93 58.24C1636.97 56.8 1636.49 54.9333 1636.49 52.64C1636.49 50.1867 1637.05 48.08 1638.17 46.32C1639.35 44.56 1640.97 43.2 1643.05 42.24C1645.19 41.28 1647.72 40.8 1650.65 40.8C1653.75 40.8 1656.47 41.36 1658.81 42.48C1661.21 43.5467 1663.21 45.1733 1664.81 47.36L1659.21 52.96C1658.09 51.5733 1656.81 50.5333 1655.37 49.84C1653.93 49.1467 1652.28 48.8 1650.41 48.8C1648.65 48.8 1647.29 49.0667 1646.33 49.6C1645.37 50.1333 1644.89 50.9067 1644.89 51.92C1644.89 52.9867 1645.37 53.8133 1646.33 54.4C1647.29 54.9867 1648.52 55.4933 1650.01 55.92C1651.56 56.3467 1653.16 56.8267 1654.81 57.36C1656.52 57.84 1658.12 58.5333 1659.61 59.44C1661.16 60.2933 1662.41 61.4667 1663.37 62.96C1664.33 64.4 1664.81 66.2933 1664.81 68.64C1664.81 72.3733 1663.51 75.3333 1660.89 77.52C1658.28 79.7067 1654.73 80.8 1650.25 80.8ZM1672.15 80V41.6H1680.95V80H1672.15ZM1676.55 34.56C1675.05 34.56 1673.8 34.0533 1672.79 33.04C1671.83 32.0267 1671.35 30.7733 1671.35 29.28C1671.35 27.7867 1671.83 26.5333 1672.79 25.52C1673.8 24.5067 1675.05 24 1676.55 24C1678.09 24 1679.35 24.5067 1680.31 25.52C1681.27 26.5333 1681.75 27.7867 1681.75 29.28C1681.75 30.7733 1681.27 32.0267 1680.31 33.04C1679.35 34.0533 1678.09 34.56 1676.55 34.56ZM1708.5 80.8C1704.71 80.8 1701.27 79.92 1698.18 78.16C1695.14 76.4 1692.74 74 1690.98 70.96C1689.22 67.92 1688.34 64.5333 1688.34 60.8C1688.34 57.0133 1689.22 53.6267 1690.98 50.64C1692.74 47.6 1695.14 45.2 1698.18 43.44C1701.27 41.68 1704.71 40.8 1708.5 40.8C1711.48 40.8 1714.26 41.3867 1716.82 42.56C1719.43 43.68 1721.64 45.3067 1723.46 47.44L1717.7 53.28C1716.58 51.9467 1715.22 50.96 1713.62 50.32C1712.07 49.6267 1710.36 49.28 1708.5 49.28C1706.31 49.28 1704.36 49.7867 1702.66 50.8C1701 51.76 1699.7 53.0933 1698.74 54.8C1697.83 56.5067 1697.38 58.5067 1697.38 60.8C1697.38 63.04 1697.83 65.04 1698.74 66.8C1699.7 68.5067 1701 69.8667 1702.66 70.88C1704.36 71.84 1706.31 72.32 1708.5 72.32C1710.36 72.32 1712.07 72 1713.62 71.36C1715.22 70.6667 1716.58 69.6533 1717.7 68.32L1723.46 74.16C1721.64 76.2933 1719.43 77.9467 1716.82 79.12C1714.26 80.24 1711.48 80.8 1708.5 80.8ZM1746.62 80.8C1742.89 80.8 1739.5 79.92 1736.46 78.16C1733.42 76.3467 1730.99 73.92 1729.18 70.88C1727.42 67.84 1726.54 64.4533 1726.54 60.72C1726.54 56.9867 1727.42 53.6267 1729.18 50.64C1730.99 47.6533 1733.42 45.28 1736.46 43.52C1739.5 41.7067 1742.89 40.8 1746.62 40.8C1750.41 40.8 1753.82 41.68 1756.86 43.44C1759.9 45.2 1762.3 47.6 1764.06 50.64C1765.87 53.6267 1766.78 56.9867 1766.78 60.72C1766.78 64.4533 1765.87 67.84 1764.06 70.88C1762.3 73.92 1759.9 76.3467 1756.86 78.16C1753.82 79.92 1750.41 80.8 1746.62 80.8ZM1746.62 72.32C1748.81 72.32 1750.73 71.84 1752.38 70.88C1754.09 69.8667 1755.39 68.48 1756.3 66.72C1757.26 64.96 1757.74 62.96 1757.74 60.72C1757.74 58.48 1757.26 56.5067 1756.3 54.8C1755.34 53.0933 1754.03 51.76 1752.38 50.8C1750.73 49.7867 1748.81 49.28 1746.62 49.28C1744.49 49.28 1742.57 49.7867 1740.86 50.8C1739.21 51.76 1737.9 53.0933 1736.94 54.8C1736.03 56.5067 1735.58 58.48 1735.58 60.72C1735.58 62.96 1736.03 64.96 1736.94 66.72C1737.9 68.48 1739.21 69.8667 1740.86 70.88C1742.57 71.84 1744.49 72.32 1746.62 72.32Z" fill="#9C1C2B"/>
</svg>
