<svg width="2271" height="131" viewBox="0 0 2271 131" fill="none" xmlns="http://www.w3.org/2000/svg">
<path d="M6.08 80V24H15.28V80H6.08ZM12.4 80V71.6H43.76V80H12.4ZM12.4 55.44V47.36H41.04V55.44H12.4ZM12.4 32.4V24H43.36V32.4H12.4ZM65.0275 80L47.5075 41.6H57.2675L70.6275 72.88H64.8675L78.3075 41.6H87.6675L70.1475 80H65.0275ZM109.121 80.8C105.387 80.8 102.001 79.92 98.9606 78.16C95.9206 76.3467 93.494 73.92 91.6806 70.88C89.9206 67.84 89.0406 64.4533 89.0406 60.72C89.0406 56.9867 89.9206 53.6267 91.6806 50.64C93.494 47.6533 95.9206 45.28 98.9606 43.52C102.001 41.7067 105.387 40.8 109.121 40.8C112.907 40.8 116.321 41.68 119.361 43.44C122.401 45.2 124.801 47.6 126.561 50.64C128.374 53.6267 129.281 56.9867 129.281 60.72C129.281 64.4533 128.374 67.84 126.561 70.88C124.801 73.92 122.401 76.3467 119.361 78.16C116.321 79.92 112.907 80.8 109.121 80.8ZM109.121 72.32C111.307 72.32 113.227 71.84 114.881 70.88C116.587 69.8667 117.894 68.48 118.801 66.72C119.761 64.96 120.241 62.96 120.241 60.72C120.241 58.48 119.761 56.5067 118.801 54.8C117.841 53.0933 116.534 51.76 114.881 50.8C113.227 49.7867 111.307 49.28 109.121 49.28C106.987 49.28 105.067 49.7867 103.361 50.8C101.707 51.76 100.401 53.0933 99.4406 54.8C98.534 56.5067 98.0806 58.48 98.0806 60.72C98.0806 62.96 98.534 64.96 99.4406 66.72C100.401 68.48 101.707 69.8667 103.361 70.88C105.067 71.84 106.987 72.32 109.121 72.32ZM136.599 80V22.4H145.399V80H136.599ZM170.953 80.8C167.699 80.8 164.793 80.08 162.233 78.64C159.726 77.2 157.753 75.2267 156.313 72.72C154.926 70.16 154.233 67.2267 154.233 63.92V41.6H163.033V63.52C163.033 65.3867 163.326 66.9867 163.913 68.32C164.553 69.6 165.459 70.5867 166.633 71.28C167.859 71.9733 169.299 72.32 170.953 72.32C173.513 72.32 175.459 71.5733 176.793 70.08C178.179 68.5333 178.873 66.3467 178.873 63.52V41.6H187.673V63.92C187.673 67.28 186.953 70.24 185.513 72.8C184.126 75.3067 182.179 77.28 179.673 78.72C177.166 80.1067 174.259 80.8 170.953 80.8ZM214.201 80.8C210.414 80.8 206.974 79.92 203.881 78.16C200.841 76.4 198.441 74 196.681 70.96C194.921 67.92 194.041 64.5333 194.041 60.8C194.041 57.0133 194.921 53.6267 196.681 50.64C198.441 47.6 200.841 45.2 203.881 43.44C206.974 41.68 210.414 40.8 214.201 40.8C217.187 40.8 219.961 41.3867 222.521 42.56C225.134 43.68 227.347 45.3067 229.161 47.44L223.401 53.28C222.281 51.9467 220.921 50.96 219.321 50.32C217.774 49.6267 216.067 49.28 214.201 49.28C212.014 49.28 210.067 49.7867 208.361 50.8C206.707 51.76 205.401 53.0933 204.441 54.8C203.534 56.5067 203.081 58.5067 203.081 60.8C203.081 63.04 203.534 65.04 204.441 66.8C205.401 68.5067 206.707 69.8667 208.361 70.88C210.067 71.84 212.014 72.32 214.201 72.32C216.067 72.32 217.774 72 219.321 71.36C220.921 70.6667 222.281 69.6533 223.401 68.32L229.161 74.16C227.347 76.2933 225.134 77.9467 222.521 79.12C219.961 80.24 217.187 80.8 214.201 80.8ZM211.721 96.8C209.747 96.8 208.014 96.56 206.521 96.08C205.027 95.6 203.587 94.9067 202.201 94L205.801 89.44C206.387 89.9733 207.107 90.4 207.961 90.72C208.814 91.0933 209.854 91.28 211.081 91.28C212.467 91.28 213.454 91.0933 214.041 90.72C214.681 90.3467 215.001 89.8933 215.001 89.36C215.001 88.7733 214.707 88.24 214.121 87.76C213.587 87.3333 212.707 87.12 211.481 87.12H207.321L209.961 78.88H216.361L214.441 84.64L211.241 82.24C214.547 82.1333 217.214 82.7733 219.241 84.16C221.267 85.6 222.281 87.3867 222.281 89.52C222.281 91.6 221.294 93.3333 219.321 94.72C217.401 96.1067 214.867 96.8 211.721 96.8ZM250.804 80.8C247.337 80.8 244.19 79.92 241.364 78.16C238.59 76.4 236.377 74.0267 234.724 71.04C233.124 68 232.324 64.6133 232.324 60.88C232.324 57.0933 233.124 53.7067 234.724 50.72C236.377 47.68 238.59 45.28 241.364 43.52C244.19 41.7067 247.337 40.8 250.804 40.8C253.737 40.8 256.324 41.44 258.564 42.72C260.857 43.9467 262.67 45.6533 264.004 47.84C265.337 50.0267 266.004 52.5067 266.004 55.28V66.32C266.004 69.0933 265.337 71.5733 264.004 73.76C262.724 75.9467 260.937 77.68 258.644 78.96C256.35 80.1867 253.737 80.8 250.804 80.8ZM252.244 72.48C255.497 72.48 258.11 71.3867 260.084 69.2C262.11 67.0133 263.124 64.2133 263.124 60.8C263.124 58.5067 262.67 56.48 261.764 54.72C260.857 52.96 259.577 51.6 257.924 50.64C256.324 49.6267 254.43 49.12 252.244 49.12C250.11 49.12 248.217 49.6267 246.564 50.64C244.964 51.6 243.684 52.96 242.724 54.72C241.817 56.48 241.364 58.5067 241.364 60.8C241.364 63.0933 241.817 65.12 242.724 66.88C243.684 68.64 244.964 70.0267 246.564 71.04C248.217 72 250.11 72.48 252.244 72.48ZM262.564 80V69.68L264.084 60.32L262.564 51.04V41.6H271.364V80H262.564ZM258.804 36.08C257.044 36.08 255.55 35.76 254.324 35.12C253.097 34.48 251.95 33.8667 250.884 33.28C249.87 32.64 248.724 32.32 247.444 32.32C246.11 32.32 245.044 32.56 244.244 33.04C243.444 33.52 242.67 34.24 241.924 35.2L237.204 30.48C238.75 28.72 240.297 27.3333 241.844 26.32C243.39 25.2533 245.204 24.72 247.284 24.72C249.044 24.72 250.537 25.04 251.764 25.68C252.99 26.2667 254.137 26.88 255.204 27.52C256.27 28.16 257.417 28.48 258.644 28.48C260.03 28.48 261.124 28.24 261.924 27.76C262.724 27.28 263.47 26.56 264.164 25.6L268.884 30.32C267.337 32.08 265.79 33.4933 264.244 34.56C262.697 35.5733 260.884 36.08 258.804 36.08ZM298.73 80.8C294.997 80.8 291.61 79.92 288.57 78.16C285.53 76.3467 283.103 73.92 281.29 70.88C279.53 67.84 278.65 64.4533 278.65 60.72C278.65 56.9867 279.53 53.6267 281.29 50.64C283.103 47.6533 285.53 45.28 288.57 43.52C291.61 41.7067 294.997 40.8 298.73 40.8C302.517 40.8 305.93 41.68 308.97 43.44C312.01 45.2 314.41 47.6 316.17 50.64C317.983 53.6267 318.89 56.9867 318.89 60.72C318.89 64.4533 317.983 67.84 316.17 70.88C314.41 73.92 312.01 76.3467 308.97 78.16C305.93 79.92 302.517 80.8 298.73 80.8ZM298.73 72.32C300.917 72.32 302.837 71.84 304.49 70.88C306.197 69.8667 307.503 68.48 308.41 66.72C309.37 64.96 309.85 62.96 309.85 60.72C309.85 58.48 309.37 56.5067 308.41 54.8C307.45 53.0933 306.143 51.76 304.49 50.8C302.837 49.7867 300.917 49.28 298.73 49.28C296.597 49.28 294.677 49.7867 292.97 50.8C291.317 51.76 290.01 53.0933 289.05 54.8C288.143 56.5067 287.69 58.48 287.69 60.72C287.69 62.96 288.143 64.96 289.05 66.72C290.01 68.48 291.317 69.8667 292.97 70.88C294.677 71.84 296.597 72.32 298.73 72.32ZM358.304 80.8C354.837 80.8 351.69 79.92 348.864 78.16C346.09 76.4 343.877 74.0267 342.224 71.04C340.624 68 339.824 64.6133 339.824 60.88C339.824 57.0933 340.624 53.7067 342.224 50.72C343.877 47.68 346.09 45.28 348.864 43.52C351.69 41.7067 354.837 40.8 358.304 40.8C361.237 40.8 363.824 41.44 366.064 42.72C368.357 43.9467 370.17 45.6533 371.504 47.84C372.837 50.0267 373.504 52.5067 373.504 55.28V66.32C373.504 69.0933 372.837 71.5733 371.504 73.76C370.224 75.9467 368.437 77.68 366.144 78.96C363.85 80.1867 361.237 80.8 358.304 80.8ZM359.744 72.48C361.93 72.48 363.824 72 365.424 71.04C367.077 70.0267 368.357 68.64 369.264 66.88C370.17 65.12 370.624 63.0933 370.624 60.8C370.624 58.5067 370.17 56.48 369.264 54.72C368.357 52.96 367.077 51.6 365.424 50.64C363.824 49.6267 361.93 49.12 359.744 49.12C357.61 49.12 355.717 49.6267 354.064 50.64C352.464 51.6 351.184 52.96 350.224 54.72C349.317 56.48 348.864 58.5067 348.864 60.8C348.864 63.0933 349.317 65.12 350.224 66.88C351.184 68.64 352.464 70.0267 354.064 71.04C355.717 72 357.61 72.48 359.744 72.48ZM378.864 80H370.064V69.68L371.584 60.32L370.064 51.04V22.4H378.864V80ZM404.71 80.8C401.243 80.8 398.097 79.92 395.27 78.16C392.497 76.4 390.283 74.0267 388.63 71.04C387.03 68 386.23 64.6133 386.23 60.88C386.23 57.0933 387.03 53.7067 388.63 50.72C390.283 47.68 392.497 45.28 395.27 43.52C398.097 41.7067 401.243 40.8 404.71 40.8C407.643 40.8 410.23 41.44 412.47 42.72C414.763 43.9467 416.577 45.6533 417.91 47.84C419.243 50.0267 419.91 52.5067 419.91 55.28V66.32C419.91 69.0933 419.243 71.5733 417.91 73.76C416.63 75.9467 414.843 77.68 412.55 78.96C410.257 80.1867 407.643 80.8 404.71 80.8ZM406.15 72.48C409.403 72.48 412.017 71.3867 413.99 69.2C416.017 67.0133 417.03 64.2133 417.03 60.8C417.03 58.5067 416.577 56.48 415.67 54.72C414.763 52.96 413.483 51.6 411.83 50.64C410.23 49.6267 408.337 49.12 406.15 49.12C404.017 49.12 402.123 49.6267 400.47 50.64C398.87 51.6 397.59 52.96 396.63 54.72C395.723 56.48 395.27 58.5067 395.27 60.8C395.27 63.0933 395.723 65.12 396.63 66.88C397.59 68.64 398.87 70.0267 400.47 71.04C402.123 72 404.017 72.48 406.15 72.48ZM416.47 80V69.68L417.99 60.32L416.47 51.04V41.6H425.27V80H416.47ZM465.082 80V25.6H474.282V80H465.082ZM446.842 32.4V24H492.522V32.4H446.842ZM505.491 80.8C502.025 80.8 498.878 79.92 496.051 78.16C493.278 76.4 491.065 74.0267 489.411 71.04C487.811 68 487.011 64.6133 487.011 60.88C487.011 57.0933 487.811 53.7067 489.411 50.72C491.065 47.68 493.278 45.28 496.051 43.52C498.878 41.7067 502.025 40.8 505.491 40.8C508.425 40.8 511.011 41.44 513.251 42.72C515.545 43.9467 517.358 45.6533 518.691 47.84C520.025 50.0267 520.691 52.5067 520.691 55.28V66.32C520.691 69.0933 520.025 71.5733 518.691 73.76C517.411 75.9467 515.625 77.68 513.331 78.96C511.038 80.1867 508.425 80.8 505.491 80.8ZM506.931 72.48C510.185 72.48 512.798 71.3867 514.771 69.2C516.798 67.0133 517.811 64.2133 517.811 60.8C517.811 58.5067 517.358 56.48 516.451 54.72C515.545 52.96 514.265 51.6 512.611 50.64C511.011 49.6267 509.118 49.12 506.931 49.12C504.798 49.12 502.905 49.6267 501.251 50.64C499.651 51.6 498.371 52.96 497.411 54.72C496.505 56.48 496.051 58.5067 496.051 60.8C496.051 63.0933 496.505 65.12 497.411 66.88C498.371 68.64 499.651 70.0267 501.251 71.04C502.905 72 504.798 72.48 506.931 72.48ZM517.251 80V69.68L518.771 60.32L517.251 51.04V41.6H526.051V80H517.251ZM560.138 80L549.098 63.76L547.498 62.32L532.618 41.6H543.258L553.098 55.84L554.618 57.2L570.698 80H560.138ZM531.898 80L547.418 58.48L552.538 64.8L542.138 80H531.898ZM555.418 62.16L550.218 55.92L559.818 41.6H569.978L555.418 62.16ZM591.507 80.8C588.04 80.8 584.894 79.92 582.067 78.16C579.294 76.4 577.08 74.0267 575.427 71.04C573.827 68 573.027 64.6133 573.027 60.88C573.027 57.0933 573.827 53.7067 575.427 50.72C577.08 47.68 579.294 45.28 582.067 43.52C584.894 41.7067 588.04 40.8 591.507 40.8C594.44 40.8 597.027 41.44 599.267 42.72C601.56 43.9467 603.374 45.6533 604.707 47.84C606.04 50.0267 606.707 52.5067 606.707 55.28V66.32C606.707 69.0933 606.04 71.5733 604.707 73.76C603.427 75.9467 601.64 77.68 599.347 78.96C597.054 80.1867 594.44 80.8 591.507 80.8ZM592.947 72.48C596.2 72.48 598.814 71.3867 600.787 69.2C602.814 67.0133 603.827 64.2133 603.827 60.8C603.827 58.5067 603.374 56.48 602.467 54.72C601.56 52.96 600.28 51.6 598.627 50.64C597.027 49.6267 595.134 49.12 592.947 49.12C590.814 49.12 588.92 49.6267 587.267 50.64C585.667 51.6 584.387 52.96 583.427 54.72C582.52 56.48 582.067 58.5067 582.067 60.8C582.067 63.0933 582.52 65.12 583.427 66.88C584.387 68.64 585.667 70.0267 587.267 71.04C588.92 72 590.814 72.48 592.947 72.48ZM603.267 80V69.68L604.787 60.32L603.267 51.04V41.6H612.067V80H603.267ZM653.929 80.8C650.462 80.8 647.315 79.92 644.489 78.16C641.715 76.4 639.502 74.0267 637.849 71.04C636.249 68 635.449 64.6133 635.449 60.88C635.449 57.0933 636.249 53.7067 637.849 50.72C639.502 47.68 641.715 45.28 644.489 43.52C647.315 41.7067 650.462 40.8 653.929 40.8C656.862 40.8 659.449 41.44 661.689 42.72C663.982 43.9467 665.795 45.6533 667.129 47.84C668.462 50.0267 669.129 52.5067 669.129 55.28V66.32C669.129 69.0933 668.462 71.5733 667.129 73.76C665.849 75.9467 664.062 77.68 661.769 78.96C659.475 80.1867 656.862 80.8 653.929 80.8ZM655.369 72.48C657.555 72.48 659.449 72 661.049 71.04C662.702 70.0267 663.982 68.64 664.889 66.88C665.795 65.12 666.249 63.0933 666.249 60.8C666.249 58.5067 665.795 56.48 664.889 54.72C663.982 52.96 662.702 51.6 661.049 50.64C659.449 49.6267 657.555 49.12 655.369 49.12C653.235 49.12 651.342 49.6267 649.689 50.64C648.089 51.6 646.809 52.96 645.849 54.72C644.942 56.48 644.489 58.5067 644.489 60.8C644.489 63.0933 644.942 65.12 645.849 66.88C646.809 68.64 648.089 70.0267 649.689 71.04C651.342 72 653.235 72.48 655.369 72.48ZM674.489 80H665.689V69.68L667.209 60.32L665.689 51.04V22.4H674.489V80ZM702.095 80.8C698.255 80.8 694.788 79.9467 691.695 78.24C688.655 76.48 686.228 74.08 684.415 71.04C682.655 68 681.775 64.5867 681.775 60.8C681.775 57.0133 682.655 53.6267 684.415 50.64C686.175 47.6 688.548 45.2 691.535 43.44C694.575 41.68 697.935 40.8 701.615 40.8C705.188 40.8 708.335 41.6267 711.055 43.28C713.828 44.9333 715.988 47.2 717.535 50.08C719.135 52.96 719.935 56.24 719.935 59.92C719.935 60.56 719.882 61.2267 719.775 61.92C719.722 62.56 719.615 63.28 719.455 64.08H687.935V56.88H714.895L711.615 59.76C711.508 57.4133 711.055 55.44 710.255 53.84C709.455 52.24 708.308 51.0133 706.815 50.16C705.375 49.3067 703.588 48.88 701.455 48.88C699.215 48.88 697.268 49.36 695.615 50.32C693.962 51.28 692.682 52.64 691.775 54.4C690.868 56.1067 690.415 58.16 690.415 60.56C690.415 62.96 690.895 65.0667 691.855 66.88C692.815 68.6933 694.175 70.1067 695.935 71.12C697.695 72.08 699.722 72.56 702.015 72.56C703.988 72.56 705.802 72.2133 707.455 71.52C709.162 70.8267 710.602 69.8133 711.775 68.48L717.375 74.16C715.508 76.3467 713.242 78 710.575 79.12C707.908 80.24 705.082 80.8 702.095 80.8ZM750.525 80V71.6H765.245C769.085 71.6 772.445 70.7733 775.325 69.12C778.258 67.4667 780.525 65.1733 782.125 62.24C783.778 59.2533 784.605 55.8133 784.605 51.92C784.605 48.08 783.778 44.6933 782.125 41.76C780.472 38.8267 778.178 36.5333 775.245 34.88C772.365 33.2267 769.032 32.4 765.245 32.4H750.525V24H765.485C769.538 24 773.298 24.72 776.765 26.16C780.232 27.5467 783.245 29.52 785.805 32.08C788.418 34.5867 790.445 37.5467 791.885 40.96C793.325 44.32 794.045 48 794.045 52C794.045 55.9467 793.325 59.6267 791.885 63.04C790.445 66.4533 788.445 69.44 785.885 72C783.325 74.5067 780.312 76.48 776.845 77.92C773.378 79.3067 769.645 80 765.645 80H750.525ZM744.205 80V24H753.405V80H744.205ZM802.304 80V41.6H811.104V80H802.304ZM806.704 34.56C805.21 34.56 803.957 34.0533 802.944 33.04C801.984 32.0267 801.504 30.7733 801.504 29.28C801.504 27.7867 801.984 26.5333 802.944 25.52C803.957 24.5067 805.21 24 806.704 24C808.25 24 809.504 24.5067 810.464 25.52C811.424 26.5333 811.904 27.7867 811.904 29.28C811.904 30.7733 811.424 32.0267 810.464 33.04C809.504 34.0533 808.25 34.56 806.704 34.56ZM833.534 80.8C831.4 80.8 829.347 80.5333 827.374 80C825.4 79.4133 823.587 78.6133 821.934 77.6C820.28 76.5333 818.84 75.2533 817.614 73.76L823.214 68.16C824.547 69.7067 826.067 70.88 827.774 71.68C829.534 72.4267 831.507 72.8 833.694 72.8C835.667 72.8 837.16 72.5067 838.174 71.92C839.187 71.3333 839.694 70.48 839.694 69.36C839.694 68.1867 839.214 67.28 838.254 66.64C837.294 66 836.04 65.4667 834.494 65.04C833 64.56 831.4 64.08 829.694 63.6C828.04 63.12 826.44 62.48 824.894 61.68C823.4 60.8267 822.174 59.68 821.214 58.24C820.254 56.8 819.774 54.9333 819.774 52.64C819.774 50.1867 820.334 48.08 821.454 46.32C822.627 44.56 824.254 43.2 826.334 42.24C828.467 41.28 831 40.8 833.934 40.8C837.027 40.8 839.747 41.36 842.094 42.48C844.494 43.5467 846.494 45.1733 848.094 47.36L842.494 52.96C841.374 51.5733 840.094 50.5333 838.654 49.84C837.214 49.1467 835.56 48.8 833.694 48.8C831.934 48.8 830.574 49.0667 829.614 49.6C828.654 50.1333 828.174 50.9067 828.174 51.92C828.174 52.9867 828.654 53.8133 829.614 54.4C830.574 54.9867 831.8 55.4933 833.294 55.92C834.84 56.3467 836.44 56.8267 838.094 57.36C839.8 57.84 841.4 58.5333 842.894 59.44C844.44 60.2933 845.694 61.4667 846.654 62.96C847.614 64.4 848.094 66.2933 848.094 68.64C848.094 72.3733 846.787 75.3333 844.174 77.52C841.56 79.7067 838.014 80.8 833.534 80.8ZM861.189 80V25.6H869.989V80H861.189ZM851.989 49.6V41.6H879.189V49.6H851.989ZM902.089 80.8C898.356 80.8 894.969 79.92 891.929 78.16C888.889 76.3467 886.463 73.92 884.649 70.88C882.889 67.84 882.009 64.4533 882.009 60.72C882.009 56.9867 882.889 53.6267 884.649 50.64C886.463 47.6533 888.889 45.28 891.929 43.52C894.969 41.7067 898.356 40.8 902.089 40.8C905.876 40.8 909.289 41.68 912.329 43.44C915.369 45.2 917.769 47.6 919.529 50.64C921.343 53.6267 922.249 56.9867 922.249 60.72C922.249 64.4533 921.343 67.84 919.529 70.88C917.769 73.92 915.369 76.3467 912.329 78.16C909.289 79.92 905.876 80.8 902.089 80.8ZM902.089 72.32C904.276 72.32 906.196 71.84 907.849 70.88C909.556 69.8667 910.863 68.48 911.769 66.72C912.729 64.96 913.209 62.96 913.209 60.72C913.209 58.48 912.729 56.5067 911.769 54.8C910.809 53.0933 909.503 51.76 907.849 50.8C906.196 49.7867 904.276 49.28 902.089 49.28C899.956 49.28 898.036 49.7867 896.329 50.8C894.676 51.76 893.369 53.0933 892.409 54.8C891.503 56.5067 891.049 58.48 891.049 60.72C891.049 62.96 891.503 64.96 892.409 66.72C893.369 68.48 894.676 69.8667 896.329 70.88C898.036 71.84 899.956 72.32 902.089 72.32ZM929.568 80V41.6H938.368V80H929.568ZM938.368 58.64L935.328 57.12C935.328 52.2667 936.394 48.3467 938.528 45.36C940.714 42.32 943.994 40.8 948.368 40.8C950.288 40.8 952.021 41.1467 953.568 41.84C955.114 42.5333 956.554 43.6533 957.888 45.2L952.128 51.12C951.434 50.3733 950.661 49.84 949.808 49.52C948.954 49.2 947.968 49.04 946.848 49.04C944.394 49.04 942.368 49.8133 940.768 51.36C939.168 52.9067 938.368 55.3333 938.368 58.64ZM978.654 80.8C974.867 80.8 971.427 79.92 968.334 78.16C965.294 76.4 962.894 74 961.134 70.96C959.374 67.92 958.494 64.5333 958.494 60.8C958.494 57.0133 959.374 53.6267 961.134 50.64C962.894 47.6 965.294 45.2 968.334 43.44C971.427 41.68 974.867 40.8 978.654 40.8C981.64 40.8 984.414 41.3867 986.974 42.56C989.587 43.68 991.8 45.3067 993.614 47.44L987.854 53.28C986.734 51.9467 985.374 50.96 983.774 50.32C982.227 49.6267 980.52 49.28 978.654 49.28C976.467 49.28 974.52 49.7867 972.814 50.8C971.16 51.76 969.854 53.0933 968.894 54.8C967.987 56.5067 967.534 58.5067 967.534 60.8C967.534 63.04 967.987 65.04 968.894 66.8C969.854 68.5067 971.16 69.8667 972.814 70.88C974.52 71.84 976.467 72.32 978.654 72.32C980.52 72.32 982.227 72 983.774 71.36C985.374 70.6667 986.734 69.6533 987.854 68.32L993.614 74.16C991.8 76.2933 989.587 77.9467 986.974 79.12C984.414 80.24 981.64 80.8 978.654 80.8ZM976.174 96.8C974.2 96.8 972.467 96.56 970.974 96.08C969.48 95.6 968.04 94.9067 966.654 94L970.254 89.44C970.84 89.9733 971.56 90.4 972.414 90.72C973.267 91.0933 974.307 91.28 975.534 91.28C976.92 91.28 977.907 91.0933 978.494 90.72C979.134 90.3467 979.454 89.8933 979.454 89.36C979.454 88.7733 979.16 88.24 978.574 87.76C978.04 87.3333 977.16 87.12 975.934 87.12H971.774L974.414 78.88H980.814L978.894 84.64L975.694 82.24C979 82.1333 981.667 82.7733 983.694 84.16C985.72 85.6 986.734 87.3867 986.734 89.52C986.734 91.6 985.747 93.3333 983.774 94.72C981.854 96.1067 979.32 96.8 976.174 96.8ZM1015.26 80.8C1011.79 80.8 1008.64 79.92 1005.82 78.16C1003.04 76.4 1000.83 74.0267 999.177 71.04C997.577 68 996.777 64.6133 996.777 60.88C996.777 57.0933 997.577 53.7067 999.177 50.72C1000.83 47.68 1003.04 45.28 1005.82 43.52C1008.64 41.7067 1011.79 40.8 1015.26 40.8C1018.19 40.8 1020.78 41.44 1023.02 42.72C1025.31 43.9467 1027.12 45.6533 1028.46 47.84C1029.79 50.0267 1030.46 52.5067 1030.46 55.28V66.32C1030.46 69.0933 1029.79 71.5733 1028.46 73.76C1027.18 75.9467 1025.39 77.68 1023.1 78.96C1020.8 80.1867 1018.19 80.8 1015.26 80.8ZM1016.7 72.48C1019.95 72.48 1022.56 71.3867 1024.54 69.2C1026.56 67.0133 1027.58 64.2133 1027.58 60.8C1027.58 58.5067 1027.12 56.48 1026.22 54.72C1025.31 52.96 1024.03 51.6 1022.38 50.64C1020.78 49.6267 1018.88 49.12 1016.7 49.12C1014.56 49.12 1012.67 49.6267 1011.02 50.64C1009.42 51.6 1008.14 52.96 1007.18 54.72C1006.27 56.48 1005.82 58.5067 1005.82 60.8C1005.82 63.0933 1006.27 65.12 1007.18 66.88C1008.14 68.64 1009.42 70.0267 1011.02 71.04C1012.67 72 1014.56 72.48 1016.7 72.48ZM1027.02 80V69.68L1028.54 60.32L1027.02 51.04V41.6H1035.82V80H1027.02ZM1023.26 36.08C1021.5 36.08 1020 35.76 1018.78 35.12C1017.55 34.48 1016.4 33.8667 1015.34 33.28C1014.32 32.64 1013.18 32.32 1011.9 32.32C1010.56 32.32 1009.5 32.56 1008.7 33.04C1007.9 33.52 1007.12 34.24 1006.38 35.2L1001.66 30.48C1003.2 28.72 1004.75 27.3333 1006.3 26.32C1007.84 25.2533 1009.66 24.72 1011.74 24.72C1013.5 24.72 1014.99 25.04 1016.22 25.68C1017.44 26.2667 1018.59 26.88 1019.66 27.52C1020.72 28.16 1021.87 28.48 1023.1 28.48C1024.48 28.48 1025.58 28.24 1026.38 27.76C1027.18 27.28 1027.92 26.56 1028.62 25.6L1033.34 30.32C1031.79 32.08 1030.24 33.4933 1028.7 34.56C1027.15 35.5733 1025.34 36.08 1023.26 36.08ZM1063.18 80.8C1059.45 80.8 1056.06 79.92 1053.02 78.16C1049.98 76.3467 1047.56 73.92 1045.74 70.88C1043.98 67.84 1043.1 64.4533 1043.1 60.72C1043.1 56.9867 1043.98 53.6267 1045.74 50.64C1047.56 47.6533 1049.98 45.28 1053.02 43.52C1056.06 41.7067 1059.45 40.8 1063.18 40.8C1066.97 40.8 1070.38 41.68 1073.42 43.44C1076.46 45.2 1078.86 47.6 1080.62 50.64C1082.44 53.6267 1083.34 56.9867 1083.34 60.72C1083.34 64.4533 1082.44 67.84 1080.62 70.88C1078.86 73.92 1076.46 76.3467 1073.42 78.16C1070.38 79.92 1066.97 80.8 1063.18 80.8ZM1063.18 72.32C1065.37 72.32 1067.29 71.84 1068.94 70.88C1070.65 69.8667 1071.96 68.48 1072.86 66.72C1073.82 64.96 1074.3 62.96 1074.3 60.72C1074.3 58.48 1073.82 56.5067 1072.86 54.8C1071.9 53.0933 1070.6 51.76 1068.94 50.8C1067.29 49.7867 1065.37 49.28 1063.18 49.28C1061.05 49.28 1059.13 49.7867 1057.42 50.8C1055.77 51.76 1054.46 53.0933 1053.5 54.8C1052.6 56.5067 1052.14 58.48 1052.14 60.72C1052.14 62.96 1052.6 64.96 1053.5 66.72C1054.46 68.48 1055.77 69.8667 1057.42 70.88C1059.13 71.84 1061.05 72.32 1063.18 72.32ZM1106.76 80V41.6H1115.56V80H1106.76ZM1111.16 34.56C1109.66 34.56 1108.41 34.0533 1107.4 33.04C1106.44 32.0267 1105.96 30.7733 1105.96 29.28C1105.96 27.7867 1106.44 26.5333 1107.4 25.52C1108.41 24.5067 1109.66 24 1111.16 24C1112.7 24 1113.96 24.5067 1114.92 25.52C1115.88 26.5333 1116.36 27.7867 1116.36 29.28C1116.36 30.7733 1115.88 32.0267 1114.92 33.04C1113.96 34.0533 1112.7 34.56 1111.16 34.56ZM1141.51 80.8C1138.04 80.8 1134.89 79.92 1132.07 78.16C1129.29 76.4 1127.08 74.0267 1125.43 71.04C1123.83 68 1123.03 64.6133 1123.03 60.88C1123.03 57.0933 1123.83 53.7067 1125.43 50.72C1127.08 47.68 1129.29 45.28 1132.07 43.52C1134.89 41.7067 1138.04 40.8 1141.51 40.8C1144.44 40.8 1147.03 41.44 1149.27 42.72C1151.56 43.9467 1153.37 45.6533 1154.71 47.84C1156.04 50.0267 1156.71 52.5067 1156.71 55.28V66.32C1156.71 69.0933 1156.04 71.5733 1154.71 73.76C1153.43 75.9467 1151.64 77.68 1149.35 78.96C1147.05 80.1867 1144.44 80.8 1141.51 80.8ZM1142.95 72.48C1145.13 72.48 1147.03 72 1148.63 71.04C1150.28 70.0267 1151.56 68.64 1152.47 66.88C1153.37 65.12 1153.83 63.0933 1153.83 60.8C1153.83 58.5067 1153.37 56.48 1152.47 54.72C1151.56 52.96 1150.28 51.6 1148.63 50.64C1147.03 49.6267 1145.13 49.12 1142.95 49.12C1140.81 49.12 1138.92 49.6267 1137.27 50.64C1135.67 51.6 1134.39 52.96 1133.43 54.72C1132.52 56.48 1132.07 58.5067 1132.07 60.8C1132.07 63.0933 1132.52 65.12 1133.43 66.88C1134.39 68.64 1135.67 70.0267 1137.27 71.04C1138.92 72 1140.81 72.48 1142.95 72.48ZM1162.07 80H1153.27V69.68L1154.79 60.32L1153.27 51.04V22.4H1162.07V80ZM1187.91 80.8C1184.45 80.8 1181.3 79.92 1178.47 78.16C1175.7 76.4 1173.49 74.0267 1171.83 71.04C1170.23 68 1169.43 64.6133 1169.43 60.88C1169.43 57.0933 1170.23 53.7067 1171.83 50.72C1173.49 47.68 1175.7 45.28 1178.47 43.52C1181.3 41.7067 1184.45 40.8 1187.91 40.8C1190.85 40.8 1193.43 41.44 1195.67 42.72C1197.97 43.9467 1199.78 45.6533 1201.11 47.84C1202.45 50.0267 1203.11 52.5067 1203.11 55.28V66.32C1203.11 69.0933 1202.45 71.5733 1201.11 73.76C1199.83 75.9467 1198.05 77.68 1195.75 78.96C1193.46 80.1867 1190.85 80.8 1187.91 80.8ZM1189.35 72.48C1192.61 72.48 1195.22 71.3867 1197.19 69.2C1199.22 67.0133 1200.23 64.2133 1200.23 60.8C1200.23 58.5067 1199.78 56.48 1198.87 54.72C1197.97 52.96 1196.69 51.6 1195.03 50.64C1193.43 49.6267 1191.54 49.12 1189.35 49.12C1187.22 49.12 1185.33 49.6267 1183.67 50.64C1182.07 51.6 1180.79 52.96 1179.83 54.72C1178.93 56.48 1178.47 58.5067 1178.47 60.8C1178.47 63.0933 1178.93 65.12 1179.83 66.88C1180.79 68.64 1182.07 70.0267 1183.67 71.04C1185.33 72 1187.22 72.48 1189.35 72.48ZM1199.67 80V69.68L1201.19 60.32L1199.67 51.04V41.6H1208.47V80H1199.67ZM1234.32 80.8C1230.85 80.8 1227.71 79.92 1224.88 78.16C1222.11 76.4 1219.89 74.0267 1218.24 71.04C1216.64 68 1215.84 64.6133 1215.84 60.88C1215.84 57.0933 1216.64 53.7067 1218.24 50.72C1219.89 47.68 1222.11 45.28 1224.88 43.52C1227.71 41.7067 1230.85 40.8 1234.32 40.8C1237.25 40.8 1239.84 41.44 1242.08 42.72C1244.37 43.9467 1246.19 45.6533 1247.52 47.84C1248.85 50.0267 1249.52 52.5067 1249.52 55.28V66.32C1249.52 69.0933 1248.85 71.5733 1247.52 73.76C1246.24 75.9467 1244.45 77.68 1242.16 78.96C1239.87 80.1867 1237.25 80.8 1234.32 80.8ZM1235.76 72.48C1237.95 72.48 1239.84 72 1241.44 71.04C1243.09 70.0267 1244.37 68.64 1245.28 66.88C1246.19 65.12 1246.64 63.0933 1246.64 60.8C1246.64 58.5067 1246.19 56.48 1245.28 54.72C1244.37 52.96 1243.09 51.6 1241.44 50.64C1239.84 49.6267 1237.95 49.12 1235.76 49.12C1233.63 49.12 1231.73 49.6267 1230.08 50.64C1228.48 51.6 1227.2 52.96 1226.24 54.72C1225.33 56.48 1224.88 58.5067 1224.88 60.8C1224.88 63.0933 1225.33 65.12 1226.24 66.88C1227.2 68.64 1228.48 70.0267 1230.08 71.04C1231.73 72 1233.63 72.48 1235.76 72.48ZM1254.88 80H1246.08V69.68L1247.6 60.32L1246.08 51.04V22.4H1254.88V80ZM1282.49 80.8C1278.65 80.8 1275.18 79.9467 1272.09 78.24C1269.05 76.48 1266.62 74.08 1264.81 71.04C1263.05 68 1262.17 64.5867 1262.17 60.8C1262.17 57.0133 1263.05 53.6267 1264.81 50.64C1266.57 47.6 1268.94 45.2 1271.93 43.44C1274.97 41.68 1278.33 40.8 1282.01 40.8C1285.58 40.8 1288.73 41.6267 1291.45 43.28C1294.22 44.9333 1296.38 47.2 1297.93 50.08C1299.53 52.96 1300.33 56.24 1300.33 59.92C1300.33 60.56 1300.27 61.2267 1300.17 61.92C1300.11 62.56 1300.01 63.28 1299.85 64.08H1268.33V56.88H1295.29L1292.01 59.76C1291.9 57.4133 1291.45 55.44 1290.65 53.84C1289.85 52.24 1288.7 51.0133 1287.21 50.16C1285.77 49.3067 1283.98 48.88 1281.85 48.88C1279.61 48.88 1277.66 49.36 1276.01 50.32C1274.35 51.28 1273.07 52.64 1272.17 54.4C1271.26 56.1067 1270.81 58.16 1270.81 60.56C1270.81 62.96 1271.29 65.0667 1272.25 66.88C1273.21 68.6933 1274.57 70.1067 1276.33 71.12C1278.09 72.08 1280.11 72.56 1282.41 72.56C1284.38 72.56 1286.19 72.2133 1287.85 71.52C1289.55 70.8267 1290.99 69.8133 1292.17 68.48L1297.77 74.16C1295.9 76.3467 1293.63 78 1290.97 79.12C1288.3 80.24 1285.47 80.8 1282.49 80.8ZM1308.79 63.76V55.44H1335.91V63.76H1308.79ZM1358.22 80.8C1356.09 80.8 1354.03 80.5333 1352.06 80C1350.09 79.4133 1348.27 78.6133 1346.62 77.6C1344.97 76.5333 1343.53 75.2533 1342.3 73.76L1347.9 68.16C1349.23 69.7067 1350.75 70.88 1352.46 71.68C1354.22 72.4267 1356.19 72.8 1358.38 72.8C1360.35 72.8 1361.85 72.5067 1362.86 71.92C1363.87 71.3333 1364.38 70.48 1364.38 69.36C1364.38 68.1867 1363.9 67.28 1362.94 66.64C1361.98 66 1360.73 65.4667 1359.18 65.04C1357.69 64.56 1356.09 64.08 1354.38 63.6C1352.73 63.12 1351.13 62.48 1349.58 61.68C1348.09 60.8267 1346.86 59.68 1345.9 58.24C1344.94 56.8 1344.46 54.9333 1344.46 52.64C1344.46 50.1867 1345.02 48.08 1346.14 46.32C1347.31 44.56 1348.94 43.2 1351.02 42.24C1353.15 41.28 1355.69 40.8 1358.62 40.8C1361.71 40.8 1364.43 41.36 1366.78 42.48C1369.18 43.5467 1371.18 45.1733 1372.78 47.36L1367.18 52.96C1366.06 51.5733 1364.78 50.5333 1363.34 49.84C1361.9 49.1467 1360.25 48.8 1358.38 48.8C1356.62 48.8 1355.26 49.0667 1354.3 49.6C1353.34 50.1333 1352.86 50.9067 1352.86 51.92C1352.86 52.9867 1353.34 53.8133 1354.3 54.4C1355.26 54.9867 1356.49 55.4933 1357.98 55.92C1359.53 56.3467 1361.13 56.8267 1362.78 57.36C1364.49 57.84 1366.09 58.5333 1367.58 59.44C1369.13 60.2933 1370.38 61.4667 1371.34 62.96C1372.3 64.4 1372.78 66.2933 1372.78 68.64C1372.78 72.3733 1371.47 75.3333 1368.86 77.52C1366.25 79.7067 1362.7 80.8 1358.22 80.8ZM1397.88 80.8C1394.04 80.8 1390.57 79.9467 1387.48 78.24C1384.44 76.48 1382.01 74.08 1380.2 71.04C1378.44 68 1377.56 64.5867 1377.56 60.8C1377.56 57.0133 1378.44 53.6267 1380.2 50.64C1381.96 47.6 1384.33 45.2 1387.32 43.44C1390.36 41.68 1393.72 40.8 1397.4 40.8C1400.97 40.8 1404.12 41.6267 1406.84 43.28C1409.61 44.9333 1411.77 47.2 1413.32 50.08C1414.92 52.96 1415.72 56.24 1415.72 59.92C1415.72 60.56 1415.66 61.2267 1415.56 61.92C1415.5 62.56 1415.4 63.28 1415.24 64.08H1383.72V56.88H1410.68L1407.4 59.76C1407.29 57.4133 1406.84 55.44 1406.04 53.84C1405.24 52.24 1404.09 51.0133 1402.6 50.16C1401.16 49.3067 1399.37 48.88 1397.24 48.88C1395 48.88 1393.05 49.36 1391.4 50.32C1389.74 51.28 1388.46 52.64 1387.56 54.4C1386.65 56.1067 1386.2 58.16 1386.2 60.56C1386.2 62.96 1386.68 65.0667 1387.64 66.88C1388.6 68.6933 1389.96 70.1067 1391.72 71.12C1393.48 72.08 1395.5 72.56 1397.8 72.56C1399.77 72.56 1401.58 72.2133 1403.24 71.52C1404.94 70.8267 1406.38 69.8133 1407.56 68.48L1413.16 74.16C1411.29 76.3467 1409.02 78 1406.36 79.12C1403.69 80.24 1400.86 80.8 1397.88 80.8ZM1392.76 36.08L1388.76 32.08L1399 19.04L1405.8 25.84L1392.76 36.08ZM1422.77 80V41.6H1431.57V80H1422.77ZM1431.57 58.64L1428.53 57.12C1428.53 52.2667 1429.6 48.3467 1431.73 45.36C1433.92 42.32 1437.2 40.8 1441.57 40.8C1443.49 40.8 1445.22 41.1467 1446.77 41.84C1448.32 42.5333 1449.76 43.6533 1451.09 45.2L1445.33 51.12C1444.64 50.3733 1443.86 49.84 1443.01 49.52C1442.16 49.2 1441.17 49.04 1440.05 49.04C1437.6 49.04 1435.57 49.8133 1433.97 51.36C1432.37 52.9067 1431.57 55.3333 1431.57 58.64ZM1455.43 80V41.6H1464.23V80H1455.43ZM1459.83 34.56C1458.34 34.56 1457.08 34.0533 1456.07 33.04C1455.11 32.0267 1454.63 30.7733 1454.63 29.28C1454.63 27.7867 1455.11 26.5333 1456.07 25.52C1457.08 24.5067 1458.34 24 1459.83 24C1461.38 24 1462.63 24.5067 1463.59 25.52C1464.55 26.5333 1465.03 27.7867 1465.03 29.28C1465.03 30.7733 1464.55 32.0267 1463.59 33.04C1462.63 34.0533 1461.38 34.56 1459.83 34.56ZM1491.94 80.8C1488.1 80.8 1484.63 79.9467 1481.54 78.24C1478.5 76.48 1476.07 74.08 1474.26 71.04C1472.5 68 1471.62 64.5867 1471.62 60.8C1471.62 57.0133 1472.5 53.6267 1474.26 50.64C1476.02 47.6 1478.39 45.2 1481.38 43.44C1484.42 41.68 1487.78 40.8 1491.46 40.8C1495.03 40.8 1498.18 41.6267 1500.9 43.28C1503.67 44.9333 1505.83 47.2 1507.38 50.08C1508.98 52.96 1509.78 56.24 1509.78 59.92C1509.78 60.56 1509.73 61.2267 1509.62 61.92C1509.57 62.56 1509.46 63.28 1509.3 64.08H1477.78V56.88H1504.74L1501.46 59.76C1501.35 57.4133 1500.9 55.44 1500.1 53.84C1499.3 52.24 1498.15 51.0133 1496.66 50.16C1495.22 49.3067 1493.43 48.88 1491.3 48.88C1489.06 48.88 1487.11 49.36 1485.46 50.32C1483.81 51.28 1482.53 52.64 1481.62 54.4C1480.71 56.1067 1480.26 58.16 1480.26 60.56C1480.26 62.96 1480.74 65.0667 1481.7 66.88C1482.66 68.6933 1484.02 70.1067 1485.78 71.12C1487.54 72.08 1489.57 72.56 1491.86 72.56C1493.83 72.56 1495.65 72.2133 1497.3 71.52C1499.01 70.8267 1500.45 69.8133 1501.62 68.48L1507.22 74.16C1505.35 76.3467 1503.09 78 1500.42 79.12C1497.75 80.24 1494.93 80.8 1491.94 80.8ZM1559.17 80V57.84C1559.17 55.28 1558.34 53.1733 1556.69 51.52C1555.09 49.8667 1553.01 49.04 1550.45 49.04C1548.74 49.04 1547.22 49.4133 1545.89 50.16C1544.56 50.9067 1543.52 51.9467 1542.77 53.28C1542.02 54.6133 1541.65 56.1333 1541.65 57.84L1538.21 55.92C1538.21 52.9867 1538.85 50.4 1540.13 48.16C1541.41 45.8667 1543.17 44.08 1545.41 42.8C1547.7 41.4667 1550.26 40.8 1553.09 40.8C1555.97 40.8 1558.53 41.5467 1560.77 43.04C1563.01 44.48 1564.77 46.3733 1566.05 48.72C1567.33 51.0133 1567.97 53.4133 1567.97 55.92V80H1559.17ZM1532.85 80V41.6H1541.65V80H1532.85ZM1594.51 80.8C1590.78 80.8 1587.39 79.92 1584.35 78.16C1581.31 76.3467 1578.88 73.92 1577.07 70.88C1575.31 67.84 1574.43 64.4533 1574.43 60.72C1574.43 56.9867 1575.31 53.6267 1577.07 50.64C1578.88 47.6533 1581.31 45.28 1584.35 43.52C1587.39 41.7067 1590.78 40.8 1594.51 40.8C1598.3 40.8 1601.71 41.68 1604.75 43.44C1607.79 45.2 1610.19 47.6 1611.95 50.64C1613.76 53.6267 1614.67 56.9867 1614.67 60.72C1614.67 64.4533 1613.76 67.84 1611.95 70.88C1610.19 73.92 1607.79 76.3467 1604.75 78.16C1601.71 79.92 1598.3 80.8 1594.51 80.8ZM1594.51 72.32C1596.7 72.32 1598.62 71.84 1600.27 70.88C1601.98 69.8667 1603.28 68.48 1604.19 66.72C1605.15 64.96 1605.63 62.96 1605.63 60.72C1605.63 58.48 1605.15 56.5067 1604.19 54.8C1603.23 53.0933 1601.92 51.76 1600.27 50.8C1598.62 49.7867 1596.7 49.28 1594.51 49.28C1592.38 49.28 1590.46 49.7867 1588.75 50.8C1587.1 51.76 1585.79 53.0933 1584.83 54.8C1583.92 56.5067 1583.47 58.48 1583.47 60.72C1583.47 62.96 1583.92 64.96 1584.83 66.72C1585.79 68.48 1587.1 69.8667 1588.75 70.88C1590.46 71.84 1592.38 72.32 1594.51 72.32ZM1639.21 80V24H1648.41V80H1639.21ZM1645.53 80V71.6H1676.89V80H1645.53ZM1645.53 55.44V47.36H1674.17V55.44H1645.53ZM1645.53 32.4V24H1676.49V32.4H1645.53ZM1711.51 80V57.84C1711.51 55.28 1710.69 53.1733 1709.03 51.52C1707.43 49.8667 1705.35 49.04 1702.79 49.04C1701.09 49.04 1699.57 49.4133 1698.23 50.16C1696.9 50.9067 1695.86 51.9467 1695.11 53.28C1694.37 54.6133 1693.99 56.1333 1693.99 57.84L1690.55 55.92C1690.55 52.9867 1691.19 50.4 1692.47 48.16C1693.75 45.8667 1695.51 44.08 1697.75 42.8C1700.05 41.4667 1702.61 40.8 1705.43 40.8C1708.31 40.8 1710.87 41.5467 1713.11 43.04C1715.35 44.48 1717.11 46.3733 1718.39 48.72C1719.67 51.0133 1720.31 53.4133 1720.31 55.92V80H1711.51ZM1685.19 80V41.6H1693.99V80H1685.19ZM1741.82 80.8C1739.68 80.8 1737.63 80.5333 1735.66 80C1733.68 79.4133 1731.87 78.6133 1730.22 77.6C1728.56 76.5333 1727.12 75.2533 1725.9 73.76L1731.5 68.16C1732.83 69.7067 1734.35 70.88 1736.06 71.68C1737.82 72.4267 1739.79 72.8 1741.98 72.8C1743.95 72.8 1745.44 72.5067 1746.46 71.92C1747.47 71.3333 1747.98 70.48 1747.98 69.36C1747.98 68.1867 1747.5 67.28 1746.54 66.64C1745.58 66 1744.32 65.4667 1742.78 65.04C1741.28 64.56 1739.68 64.08 1737.98 63.6C1736.32 63.12 1734.72 62.48 1733.18 61.68C1731.68 60.8267 1730.46 59.68 1729.5 58.24C1728.54 56.8 1728.06 54.9333 1728.06 52.64C1728.06 50.1867 1728.62 48.08 1729.74 46.32C1730.91 44.56 1732.54 43.2 1734.62 42.24C1736.75 41.28 1739.28 40.8 1742.22 40.8C1745.31 40.8 1748.03 41.36 1750.38 42.48C1752.78 43.5467 1754.78 45.1733 1756.38 47.36L1750.78 52.96C1749.66 51.5733 1748.38 50.5333 1746.94 49.84C1745.5 49.1467 1743.84 48.8 1741.98 48.8C1740.22 48.8 1738.86 49.0667 1737.9 49.6C1736.94 50.1333 1736.46 50.9067 1736.46 51.92C1736.46 52.9867 1736.94 53.8133 1737.9 54.4C1738.86 54.9867 1740.08 55.4933 1741.58 55.92C1743.12 56.3467 1744.72 56.8267 1746.38 57.36C1748.08 57.84 1749.68 58.5333 1751.18 59.44C1752.72 60.2933 1753.98 61.4667 1754.94 62.96C1755.9 64.4 1756.38 66.2933 1756.38 68.64C1756.38 72.3733 1755.07 75.3333 1752.46 77.52C1749.84 79.7067 1746.3 80.8 1741.82 80.8ZM1763.71 80V41.6H1772.51V80H1763.71ZM1768.11 34.56C1766.62 34.56 1765.36 34.0533 1764.35 33.04C1763.39 32.0267 1762.91 30.7733 1762.91 29.28C1762.91 27.7867 1763.39 26.5333 1764.35 25.52C1765.36 24.5067 1766.62 24 1768.11 24C1769.66 24 1770.91 24.5067 1771.87 25.52C1772.83 26.5333 1773.31 27.7867 1773.31 29.28C1773.31 30.7733 1772.83 32.0267 1771.87 33.04C1770.91 34.0533 1769.66 34.56 1768.11 34.56ZM1808.7 80V57.84C1808.7 55.28 1807.87 53.1733 1806.22 51.52C1804.62 49.8667 1802.54 49.04 1799.98 49.04C1798.27 49.04 1796.75 49.4133 1795.42 50.16C1794.09 50.9067 1793.05 51.9467 1792.3 53.28C1791.55 54.6133 1791.18 56.1333 1791.18 57.84L1787.74 55.92C1787.74 52.9867 1788.38 50.4 1789.66 48.16C1790.94 45.8667 1792.7 44.08 1794.94 42.8C1797.23 41.4667 1799.79 40.8 1802.62 40.8C1805.5 40.8 1808.06 41.5467 1810.3 43.04C1812.54 44.48 1814.3 46.3733 1815.58 48.72C1816.86 51.0133 1817.5 53.4133 1817.5 55.92V80H1808.7ZM1782.38 80V41.6H1791.18V80H1782.38ZM1844.04 80.8C1840.31 80.8 1836.92 79.92 1833.88 78.16C1830.84 76.3467 1828.42 73.92 1826.6 70.88C1824.84 67.84 1823.96 64.4533 1823.96 60.72C1823.96 56.9867 1824.84 53.6267 1826.6 50.64C1828.42 47.6533 1830.84 45.28 1833.88 43.52C1836.92 41.7067 1840.31 40.8 1844.04 40.8C1847.83 40.8 1851.24 41.68 1854.28 43.44C1857.32 45.2 1859.72 47.6 1861.48 50.64C1863.3 53.6267 1864.2 56.9867 1864.2 60.72C1864.2 64.4533 1863.3 67.84 1861.48 70.88C1859.72 73.92 1857.32 76.3467 1854.28 78.16C1851.24 79.92 1847.83 80.8 1844.04 80.8ZM1844.04 72.32C1846.23 72.32 1848.15 71.84 1849.8 70.88C1851.51 69.8667 1852.82 68.48 1853.72 66.72C1854.68 64.96 1855.16 62.96 1855.16 60.72C1855.16 58.48 1854.68 56.5067 1853.72 54.8C1852.76 53.0933 1851.46 51.76 1849.8 50.8C1848.15 49.7867 1846.23 49.28 1844.04 49.28C1841.91 49.28 1839.99 49.7867 1838.28 50.8C1836.63 51.76 1835.32 53.0933 1834.36 54.8C1833.46 56.5067 1833 58.48 1833 60.72C1833 62.96 1833.46 64.96 1834.36 66.72C1835.32 68.48 1836.63 69.8667 1838.28 70.88C1839.99 71.84 1841.91 72.32 1844.04 72.32ZM1895.06 80V72H1911.14C1913.96 72 1916.15 71.12 1917.7 69.36C1919.24 67.6 1920.02 65.5733 1920.02 63.28C1920.02 61.7333 1919.67 60.2933 1918.98 58.96C1918.28 57.6267 1917.27 56.56 1915.94 55.76C1914.6 54.96 1913 54.56 1911.14 54.56H1895.06V46.56H1909.78C1912.18 46.56 1914.1 45.9467 1915.54 44.72C1916.98 43.4933 1917.7 41.68 1917.7 39.28C1917.7 36.88 1916.98 35.0667 1915.54 33.84C1914.1 32.6133 1912.18 32 1909.78 32H1895.06V24H1910.02C1913.8 24 1916.95 24.6933 1919.46 26.08C1921.96 27.4667 1923.83 29.2533 1925.06 31.44C1926.28 33.6267 1926.9 35.9733 1926.9 38.48C1926.9 41.4133 1926.07 44 1924.42 46.24C1922.82 48.48 1920.44 50.2933 1917.3 51.68L1918.02 48.8C1921.54 50.24 1924.28 52.2667 1926.26 54.88C1928.23 57.4933 1929.22 60.56 1929.22 64.08C1929.22 66.96 1928.5 69.6 1927.06 72C1925.67 74.4 1923.59 76.3467 1920.82 77.84C1918.1 79.28 1914.74 80 1910.74 80H1895.06ZM1888.74 80V24H1897.94V80H1888.74ZM1953.38 80.8C1949.92 80.8 1946.77 79.92 1943.94 78.16C1941.17 76.4 1938.96 74.0267 1937.3 71.04C1935.7 68 1934.9 64.6133 1934.9 60.88C1934.9 57.0933 1935.7 53.7067 1937.3 50.72C1938.96 47.68 1941.17 45.28 1943.94 43.52C1946.77 41.7067 1949.92 40.8 1953.38 40.8C1956.32 40.8 1958.9 41.44 1961.14 42.72C1963.44 43.9467 1965.25 45.6533 1966.58 47.84C1967.92 50.0267 1968.58 52.5067 1968.58 55.28V66.32C1968.58 69.0933 1967.92 71.5733 1966.58 73.76C1965.3 75.9467 1963.52 77.68 1961.22 78.96C1958.93 80.1867 1956.32 80.8 1953.38 80.8ZM1954.82 72.48C1958.08 72.48 1960.69 71.3867 1962.66 69.2C1964.69 67.0133 1965.7 64.2133 1965.7 60.8C1965.7 58.5067 1965.25 56.48 1964.34 54.72C1963.44 52.96 1962.16 51.6 1960.5 50.64C1958.9 49.6267 1957.01 49.12 1954.82 49.12C1952.69 49.12 1950.8 49.6267 1949.14 50.64C1947.54 51.6 1946.26 52.96 1945.3 54.72C1944.4 56.48 1943.94 58.5067 1943.94 60.8C1943.94 63.0933 1944.4 65.12 1945.3 66.88C1946.26 68.64 1947.54 70.0267 1949.14 71.04C1950.8 72 1952.69 72.48 1954.82 72.48ZM1965.14 80V69.68L1966.66 60.32L1965.14 51.04V41.6H1973.94V80H1965.14ZM1951.06 36.08L1947.06 32.08L1957.3 19.04L1964.1 25.84L1951.06 36.08ZM1996.27 80.8C1994.13 80.8 1992.08 80.5333 1990.11 80C1988.13 79.4133 1986.32 78.6133 1984.67 77.6C1983.01 76.5333 1981.57 75.2533 1980.35 73.76L1985.95 68.16C1987.28 69.7067 1988.8 70.88 1990.51 71.68C1992.27 72.4267 1994.24 72.8 1996.43 72.8C1998.4 72.8 1999.89 72.5067 2000.91 71.92C2001.92 71.3333 2002.43 70.48 2002.43 69.36C2002.43 68.1867 2001.95 67.28 2000.99 66.64C2000.03 66 1998.77 65.4667 1997.23 65.04C1995.73 64.56 1994.13 64.08 1992.43 63.6C1990.77 63.12 1989.17 62.48 1987.63 61.68C1986.13 60.8267 1984.91 59.68 1983.95 58.24C1982.99 56.8 1982.51 54.9333 1982.51 52.64C1982.51 50.1867 1983.07 48.08 1984.19 46.32C1985.36 44.56 1986.99 43.2 1989.07 42.24C1991.2 41.28 1993.73 40.8 1996.67 40.8C1999.76 40.8 2002.48 41.36 2004.83 42.48C2007.23 43.5467 2009.23 45.1733 2010.83 47.36L2005.23 52.96C2004.11 51.5733 2002.83 50.5333 2001.39 49.84C1999.95 49.1467 1998.29 48.8 1996.43 48.8C1994.67 48.8 1993.31 49.0667 1992.35 49.6C1991.39 50.1333 1990.91 50.9067 1990.91 51.92C1990.91 52.9867 1991.39 53.8133 1992.35 54.4C1993.31 54.9867 1994.53 55.4933 1996.03 55.92C1997.57 56.3467 1999.17 56.8267 2000.83 57.36C2002.53 57.84 2004.13 58.5333 2005.63 59.44C2007.17 60.2933 2008.43 61.4667 2009.39 62.96C2010.35 64.4 2010.83 66.2933 2010.83 68.64C2010.83 72.3733 2009.52 75.3333 2006.91 77.52C2004.29 79.7067 2000.75 80.8 1996.27 80.8ZM2018.16 80V41.6H2026.96V80H2018.16ZM2022.56 34.56C2021.07 34.56 2019.82 34.0533 2018.8 33.04C2017.84 32.0267 2017.36 30.7733 2017.36 29.28C2017.36 27.7867 2017.84 26.5333 2018.8 25.52C2019.82 24.5067 2021.07 24 2022.56 24C2024.11 24 2025.36 24.5067 2026.32 25.52C2027.28 26.5333 2027.76 27.7867 2027.76 29.28C2027.76 30.7733 2027.28 32.0267 2026.32 33.04C2025.36 34.0533 2024.11 34.56 2022.56 34.56ZM2054.51 80.8C2050.73 80.8 2047.29 79.92 2044.19 78.16C2041.15 76.4 2038.75 74 2036.99 70.96C2035.23 67.92 2034.35 64.5333 2034.35 60.8C2034.35 57.0133 2035.23 53.6267 2036.99 50.64C2038.75 47.6 2041.15 45.2 2044.19 43.44C2047.29 41.68 2050.73 40.8 2054.51 40.8C2057.5 40.8 2060.27 41.3867 2062.83 42.56C2065.45 43.68 2067.66 45.3067 2069.47 47.44L2063.71 53.28C2062.59 51.9467 2061.23 50.96 2059.63 50.32C2058.09 49.6267 2056.38 49.28 2054.51 49.28C2052.33 49.28 2050.38 49.7867 2048.67 50.8C2047.02 51.76 2045.71 53.0933 2044.75 54.8C2043.85 56.5067 2043.39 58.5067 2043.39 60.8C2043.39 63.04 2043.85 65.04 2044.75 66.8C2045.71 68.5067 2047.02 69.8667 2048.67 70.88C2050.38 71.84 2052.33 72.32 2054.51 72.32C2056.38 72.32 2058.09 72 2059.63 71.36C2061.23 70.6667 2062.59 69.6533 2063.71 68.32L2069.47 74.16C2067.66 76.2933 2065.45 77.9467 2062.83 79.12C2060.27 80.24 2057.5 80.8 2054.51 80.8ZM2092.64 80.8C2088.9 80.8 2085.52 79.92 2082.48 78.16C2079.44 76.3467 2077.01 73.92 2075.2 70.88C2073.44 67.84 2072.56 64.4533 2072.56 60.72C2072.56 56.9867 2073.44 53.6267 2075.2 50.64C2077.01 47.6533 2079.44 45.28 2082.48 43.52C2085.52 41.7067 2088.9 40.8 2092.64 40.8C2096.42 40.8 2099.84 41.68 2102.88 43.44C2105.92 45.2 2108.32 47.6 2110.08 50.64C2111.89 53.6267 2112.8 56.9867 2112.8 60.72C2112.8 64.4533 2111.89 67.84 2110.08 70.88C2108.32 73.92 2105.92 76.3467 2102.88 78.16C2099.84 79.92 2096.42 80.8 2092.64 80.8ZM2092.64 72.32C2094.82 72.32 2096.74 71.84 2098.4 70.88C2100.1 69.8667 2101.41 68.48 2102.32 66.72C2103.28 64.96 2103.76 62.96 2103.76 60.72C2103.76 58.48 2103.28 56.5067 2102.32 54.8C2101.36 53.0933 2100.05 51.76 2098.4 50.8C2096.74 49.7867 2094.82 49.28 2092.64 49.28C2090.5 49.28 2088.58 49.7867 2086.88 50.8C2085.22 51.76 2083.92 53.0933 2082.96 54.8C2082.05 56.5067 2081.6 58.48 2081.6 60.72C2081.6 62.96 2082.05 64.96 2082.96 66.72C2083.92 68.48 2085.22 69.8667 2086.88 70.88C2088.58 71.84 2090.5 72.32 2092.64 72.32Z" fill="#9C1C2B"/>
</svg>
