<svg width="2271" height="131" viewBox="0 0 2271 131" fill="none" xmlns="http://www.w3.org/2000/svg">
<path d="M12.4 58.88V50.88H26.4C28.32 50.88 30 50.5067 31.44 49.76C32.9333 48.96 34.1067 47.8667 34.96 46.48C35.8133 45.04 36.24 43.36 36.24 41.44C36.24 39.52 35.8133 37.8667 34.96 36.48C34.1067 35.04 32.9333 33.9467 31.44 33.2C30 32.4 28.32 32 26.4 32H12.4V24H26.88C30.4 24 33.5467 24.72 36.32 26.16C39.1467 27.6 41.36 29.6267 42.96 32.24C44.6133 34.8533 45.44 37.92 45.44 41.44C45.44 44.96 44.6133 48.0267 42.96 50.64C41.36 53.2533 39.1467 55.28 36.32 56.72C33.5467 58.16 30.4 58.88 26.88 58.88H12.4ZM6.08 80V24H15.28V80H6.08ZM68.8081 80.8C65.0748 80.8 61.6881 79.92 58.6481 78.16C55.6081 76.3467 53.1815 73.92 51.3681 70.88C49.6081 67.84 48.7281 64.4533 48.7281 60.72C48.7281 56.9867 49.6081 53.6267 51.3681 50.64C53.1815 47.6533 55.6081 45.28 58.6481 43.52C61.6881 41.7067 65.0748 40.8 68.8081 40.8C72.5948 40.8 76.0081 41.68 79.0481 43.44C82.0881 45.2 84.4881 47.6 86.2481 50.64C88.0615 53.6267 88.9681 56.9867 88.9681 60.72C88.9681 64.4533 88.0615 67.84 86.2481 70.88C84.4881 73.92 82.0881 76.3467 79.0481 78.16C76.0081 79.92 72.5948 80.8 68.8081 80.8ZM68.8081 72.32C70.9948 72.32 72.9148 71.84 74.5681 70.88C76.2748 69.8667 77.5815 68.48 78.4881 66.72C79.4481 64.96 79.9281 62.96 79.9281 60.72C79.9281 58.48 79.4481 56.5067 78.4881 54.8C77.5281 53.0933 76.2215 51.76 74.5681 50.8C72.9148 49.7867 70.9948 49.28 68.8081 49.28C66.6748 49.28 64.7548 49.7867 63.0481 50.8C61.3948 51.76 60.0881 53.0933 59.1281 54.8C58.2215 56.5067 57.7681 58.48 57.7681 60.72C57.7681 62.96 58.2215 64.96 59.1281 66.72C60.0881 68.48 61.3948 69.8667 63.0481 70.88C64.7548 71.84 66.6748 72.32 68.8081 72.32ZM96.2863 80V41.6H105.086V80H96.2863ZM105.086 58.64L102.046 57.12C102.046 52.2667 103.113 48.3467 105.246 45.36C107.433 42.32 110.713 40.8 115.086 40.8C117.006 40.8 118.74 41.1467 120.286 41.84C121.833 42.5333 123.273 43.6533 124.606 45.2L118.846 51.12C118.153 50.3733 117.38 49.84 116.526 49.52C115.673 49.2 114.686 49.04 113.566 49.04C111.113 49.04 109.086 49.8133 107.486 51.36C105.886 52.9067 105.086 55.3333 105.086 58.64ZM145.373 80.8C141.586 80.8 138.146 79.92 135.053 78.16C132.013 76.4 129.613 74 127.853 70.96C126.093 67.92 125.213 64.5333 125.213 60.8C125.213 57.0133 126.093 53.6267 127.853 50.64C129.613 47.6 132.013 45.2 135.053 43.44C138.146 41.68 141.586 40.8 145.373 40.8C148.359 40.8 151.133 41.3867 153.693 42.56C156.306 43.68 158.519 45.3067 160.333 47.44L154.573 53.28C153.453 51.9467 152.093 50.96 150.493 50.32C148.946 49.6267 147.239 49.28 145.373 49.28C143.186 49.28 141.239 49.7867 139.533 50.8C137.879 51.76 136.573 53.0933 135.613 54.8C134.706 56.5067 134.253 58.5067 134.253 60.8C134.253 63.04 134.706 65.04 135.613 66.8C136.573 68.5067 137.879 69.8667 139.533 70.88C141.239 71.84 143.186 72.32 145.373 72.32C147.239 72.32 148.946 72 150.493 71.36C152.093 70.6667 153.453 69.6533 154.573 68.32L160.333 74.16C158.519 76.2933 156.306 77.9467 153.693 79.12C151.133 80.24 148.359 80.8 145.373 80.8ZM183.736 80.8C179.896 80.8 176.429 79.9467 173.336 78.24C170.296 76.48 167.869 74.08 166.056 71.04C164.296 68 163.416 64.5867 163.416 60.8C163.416 57.0133 164.296 53.6267 166.056 50.64C167.816 47.6 170.189 45.2 173.176 43.44C176.216 41.68 179.576 40.8 183.256 40.8C186.829 40.8 189.976 41.6267 192.696 43.28C195.469 44.9333 197.629 47.2 199.176 50.08C200.776 52.96 201.576 56.24 201.576 59.92C201.576 60.56 201.522 61.2267 201.416 61.92C201.362 62.56 201.256 63.28 201.096 64.08H169.576V56.88H196.536L193.256 59.76C193.149 57.4133 192.696 55.44 191.896 53.84C191.096 52.24 189.949 51.0133 188.456 50.16C187.016 49.3067 185.229 48.88 183.096 48.88C180.856 48.88 178.909 49.36 177.256 50.32C175.602 51.28 174.322 52.64 173.416 54.4C172.509 56.1067 172.056 58.16 172.056 60.56C172.056 62.96 172.536 65.0667 173.496 66.88C174.456 68.6933 175.816 70.1067 177.576 71.12C179.336 72.08 181.362 72.56 183.656 72.56C185.629 72.56 187.442 72.2133 189.096 71.52C190.802 70.8267 192.242 69.8133 193.416 68.48L199.016 74.16C197.149 76.3467 194.882 78 192.216 79.12C189.549 80.24 186.722 80.8 183.736 80.8ZM234.95 80V57.84C234.95 55.28 234.123 53.1733 232.47 51.52C230.87 49.8667 228.79 49.04 226.23 49.04C224.523 49.04 223.003 49.4133 221.67 50.16C220.337 50.9067 219.297 51.9467 218.55 53.28C217.803 54.6133 217.43 56.1333 217.43 57.84L213.99 55.92C213.99 52.9867 214.63 50.4 215.91 48.16C217.19 45.8667 218.95 44.08 221.19 42.8C223.483 41.4667 226.043 40.8 228.87 40.8C231.75 40.8 234.31 41.5467 236.55 43.04C238.79 44.48 240.55 46.3733 241.83 48.72C243.11 51.0133 243.75 53.4133 243.75 55.92V80H234.95ZM208.63 80V41.6H217.43V80H208.63ZM258.064 80V25.6H266.864V80H258.064ZM248.864 49.6V41.6H276.064V49.6H248.864ZM297.444 80.8C293.978 80.8 290.831 79.92 288.004 78.16C285.231 76.4 283.018 74.0267 281.364 71.04C279.764 68 278.964 64.6133 278.964 60.88C278.964 57.0933 279.764 53.7067 281.364 50.72C283.018 47.68 285.231 45.28 288.004 43.52C290.831 41.7067 293.978 40.8 297.444 40.8C300.378 40.8 302.964 41.44 305.204 42.72C307.498 43.9467 309.311 45.6533 310.644 47.84C311.978 50.0267 312.644 52.5067 312.644 55.28V66.32C312.644 69.0933 311.978 71.5733 310.644 73.76C309.364 75.9467 307.578 77.68 305.284 78.96C302.991 80.1867 300.378 80.8 297.444 80.8ZM298.884 72.48C302.138 72.48 304.751 71.3867 306.724 69.2C308.751 67.0133 309.764 64.2133 309.764 60.8C309.764 58.5067 309.311 56.48 308.404 54.72C307.498 52.96 306.218 51.6 304.564 50.64C302.964 49.6267 301.071 49.12 298.884 49.12C296.751 49.12 294.858 49.6267 293.204 50.64C291.604 51.6 290.324 52.96 289.364 54.72C288.458 56.48 288.004 58.5067 288.004 60.8C288.004 63.0933 288.458 65.12 289.364 66.88C290.324 68.64 291.604 70.0267 293.204 71.04C294.858 72 296.751 72.48 298.884 72.48ZM309.204 80V69.68L310.724 60.32L309.204 51.04V41.6H318.004V80H309.204ZM343.771 96.8C339.717 96.8 336.171 96.0533 333.131 94.56C330.091 93.12 327.637 91.0667 325.771 88.4L331.531 82.64C333.077 84.56 334.837 86 336.811 86.96C338.784 87.92 341.157 88.4 343.931 88.4C347.397 88.4 350.144 87.4933 352.171 85.68C354.197 83.92 355.211 81.4933 355.211 78.4V68.96L356.731 60.48L355.211 51.92V41.6H364.011V78.4C364.011 82.08 363.157 85.28 361.451 88C359.744 90.7733 357.371 92.9333 354.331 94.48C351.291 96.0267 347.771 96.8 343.771 96.8ZM343.371 79.2C339.957 79.2 336.864 78.3733 334.091 76.72C331.371 75.0133 329.211 72.6933 327.611 69.76C326.064 66.8267 325.291 63.5467 325.291 59.92C325.291 56.2933 326.064 53.04 327.611 50.16C329.211 47.28 331.371 45.0133 334.091 43.36C336.864 41.6533 339.957 40.8 343.371 40.8C346.411 40.8 349.077 41.4133 351.371 42.64C353.664 43.8667 355.451 45.5733 356.731 47.76C358.011 49.8933 358.651 52.4 358.651 55.28V64.72C358.651 67.5467 357.984 70.0533 356.651 72.24C355.371 74.4267 353.584 76.1333 351.291 77.36C348.997 78.5867 346.357 79.2 343.371 79.2ZM345.131 70.88C347.264 70.88 349.131 70.4267 350.731 69.52C352.331 68.6133 353.557 67.36 354.411 65.76C355.317 64.1067 355.771 62.1867 355.771 60C355.771 57.8133 355.317 55.92 354.411 54.32C353.557 52.6667 352.331 51.3867 350.731 50.48C349.131 49.5733 347.264 49.12 345.131 49.12C342.997 49.12 341.104 49.5733 339.451 50.48C337.851 51.3867 336.597 52.6667 335.691 54.32C334.784 55.92 334.331 57.8133 334.331 60C334.331 62.1333 334.784 64.0267 335.691 65.68C336.597 67.3333 337.851 68.6133 339.451 69.52C341.104 70.4267 342.997 70.88 345.131 70.88ZM391.626 80.8C387.786 80.8 384.32 79.9467 381.226 78.24C378.186 76.48 375.76 74.08 373.946 71.04C372.186 68 371.306 64.5867 371.306 60.8C371.306 57.0133 372.186 53.6267 373.946 50.64C375.706 47.6 378.08 45.2 381.066 43.44C384.106 41.68 387.466 40.8 391.146 40.8C394.72 40.8 397.866 41.6267 400.586 43.28C403.36 44.9333 405.52 47.2 407.066 50.08C408.666 52.96 409.466 56.24 409.466 59.92C409.466 60.56 409.413 61.2267 409.306 61.92C409.253 62.56 409.146 63.28 408.986 64.08H377.466V56.88H404.426L401.146 59.76C401.04 57.4133 400.586 55.44 399.786 53.84C398.986 52.24 397.84 51.0133 396.346 50.16C394.906 49.3067 393.12 48.88 390.986 48.88C388.746 48.88 386.8 49.36 385.146 50.32C383.493 51.28 382.213 52.64 381.306 54.4C380.4 56.1067 379.946 58.16 379.946 60.56C379.946 62.96 380.426 65.0667 381.386 66.88C382.346 68.6933 383.706 70.1067 385.466 71.12C387.226 72.08 389.253 72.56 391.546 72.56C393.52 72.56 395.333 72.2133 396.986 71.52C398.693 70.8267 400.133 69.8133 401.306 68.48L406.906 74.16C405.04 76.3467 402.773 78 400.106 79.12C397.44 80.24 394.613 80.8 391.626 80.8ZM416.521 80V41.6H425.321V80H416.521ZM442.041 80V57.12C442.041 54.56 441.241 52.5867 439.641 51.2C438.041 49.76 436.067 49.04 433.721 49.04C432.121 49.04 430.681 49.36 429.401 50C428.174 50.64 427.187 51.5733 426.441 52.8C425.694 53.9733 425.321 55.4133 425.321 57.12L421.881 55.2C421.881 52.2667 422.521 49.7333 423.801 47.6C425.081 45.4667 426.814 43.8133 429.001 42.64C431.187 41.4133 433.641 40.8 436.361 40.8C439.081 40.8 441.534 41.3867 443.721 42.56C445.907 43.7333 447.641 45.3867 448.921 47.52C450.201 49.6533 450.841 52.2133 450.841 55.2V80H442.041ZM467.561 80V57.12C467.561 54.56 466.761 52.5867 465.161 51.2C463.561 49.76 461.587 49.04 459.241 49.04C457.694 49.04 456.281 49.36 455.001 50C453.721 50.64 452.707 51.5733 451.961 52.8C451.214 53.9733 450.841 55.4133 450.841 57.12L445.881 55.2C446.147 52.2667 447.001 49.7333 448.441 47.6C449.881 45.4667 451.721 43.8133 453.961 42.64C456.254 41.4133 458.761 40.8 461.481 40.8C464.254 40.8 466.761 41.3867 469.001 42.56C471.241 43.7333 473.027 45.3867 474.361 47.52C475.694 49.6533 476.361 52.2133 476.361 55.2V80H467.561ZM517.523 80.8C514.056 80.8 510.909 79.92 508.083 78.16C505.309 76.4 503.096 74.0267 501.443 71.04C499.843 68 499.043 64.6133 499.043 60.88C499.043 57.0933 499.843 53.7067 501.443 50.72C503.096 47.68 505.309 45.28 508.083 43.52C510.909 41.7067 514.056 40.8 517.523 40.8C520.456 40.8 523.043 41.44 525.283 42.72C527.576 43.9467 529.389 45.6533 530.723 47.84C532.056 50.0267 532.723 52.5067 532.723 55.28V66.32C532.723 69.0933 532.056 71.5733 530.723 73.76C529.443 75.9467 527.656 77.68 525.363 78.96C523.069 80.1867 520.456 80.8 517.523 80.8ZM518.963 72.48C521.149 72.48 523.043 72 524.643 71.04C526.296 70.0267 527.576 68.64 528.483 66.88C529.389 65.12 529.843 63.0933 529.843 60.8C529.843 58.5067 529.389 56.48 528.483 54.72C527.576 52.96 526.296 51.6 524.643 50.64C523.043 49.6267 521.149 49.12 518.963 49.12C516.829 49.12 514.936 49.6267 513.283 50.64C511.683 51.6 510.403 52.96 509.443 54.72C508.536 56.48 508.083 58.5067 508.083 60.8C508.083 63.0933 508.536 65.12 509.443 66.88C510.403 68.64 511.683 70.0267 513.283 71.04C514.936 72 516.829 72.48 518.963 72.48ZM538.083 80H529.283V69.68L530.803 60.32L529.283 51.04V22.4H538.083V80ZM565.689 80.8C561.849 80.8 558.382 79.9467 555.289 78.24C552.249 76.48 549.822 74.08 548.009 71.04C546.249 68 545.369 64.5867 545.369 60.8C545.369 57.0133 546.249 53.6267 548.009 50.64C549.769 47.6 552.142 45.2 555.129 43.44C558.169 41.68 561.529 40.8 565.209 40.8C568.782 40.8 571.929 41.6267 574.649 43.28C577.422 44.9333 579.582 47.2 581.129 50.08C582.729 52.96 583.529 56.24 583.529 59.92C583.529 60.56 583.475 61.2267 583.369 61.92C583.315 62.56 583.209 63.28 583.049 64.08H551.529V56.88H578.489L575.209 59.76C575.102 57.4133 574.649 55.44 573.849 53.84C573.049 52.24 571.902 51.0133 570.409 50.16C568.969 49.3067 567.182 48.88 565.049 48.88C562.809 48.88 560.862 49.36 559.209 50.32C557.555 51.28 556.275 52.64 555.369 54.4C554.462 56.1067 554.009 58.16 554.009 60.56C554.009 62.96 554.489 65.0667 555.449 66.88C556.409 68.6933 557.769 70.1067 559.529 71.12C561.289 72.08 563.315 72.56 565.609 72.56C567.582 72.56 569.395 72.2133 571.049 71.52C572.755 70.8267 574.195 69.8133 575.369 68.48L580.969 74.16C579.102 76.3467 576.835 78 574.169 79.12C571.502 80.24 568.675 80.8 565.689 80.8ZM601.373 80L624.413 24H630.813L653.693 80H643.773L625.853 34.64H629.213L611.133 80H601.373ZM612.733 69.2V61.2H642.413V69.2H612.733ZM660.505 80V22.4H669.305V80H660.505ZM694.859 80.8C691.605 80.8 688.699 80.08 686.139 78.64C683.632 77.2 681.659 75.2267 680.219 72.72C678.832 70.16 678.139 67.2267 678.139 63.92V41.6H686.939V63.52C686.939 65.3867 687.232 66.9867 687.819 68.32C688.459 69.6 689.365 70.5867 690.539 71.28C691.765 71.9733 693.205 72.32 694.859 72.32C697.419 72.32 699.365 71.5733 700.699 70.08C702.085 68.5333 702.779 66.3467 702.779 63.52V41.6H711.579V63.92C711.579 67.28 710.859 70.24 709.419 72.8C708.032 75.3067 706.085 77.28 703.579 78.72C701.072 80.1067 698.165 80.8 694.859 80.8ZM746.747 80V57.84C746.747 55.28 745.92 53.1733 744.267 51.52C742.667 49.8667 740.587 49.04 738.027 49.04C736.32 49.04 734.8 49.4133 733.467 50.16C732.134 50.9067 731.094 51.9467 730.347 53.28C729.6 54.6133 729.227 56.1333 729.227 57.84L725.787 55.92C725.787 52.9867 726.427 50.4 727.707 48.16C728.987 45.8667 730.747 44.08 732.987 42.8C735.28 41.4667 737.84 40.8 740.667 40.8C743.547 40.8 746.107 41.5467 748.347 43.04C750.587 44.48 752.347 46.3733 753.627 48.72C754.907 51.0133 755.547 53.4133 755.547 55.92V80H746.747ZM720.427 80V41.6H729.227V80H720.427ZM782.089 80.8C778.356 80.8 774.969 79.92 771.929 78.16C768.889 76.3467 766.463 73.92 764.649 70.88C762.889 67.84 762.009 64.4533 762.009 60.72C762.009 56.9867 762.889 53.6267 764.649 50.64C766.463 47.6533 768.889 45.28 771.929 43.52C774.969 41.7067 778.356 40.8 782.089 40.8C785.876 40.8 789.289 41.68 792.329 43.44C795.369 45.2 797.769 47.6 799.529 50.64C801.343 53.6267 802.249 56.9867 802.249 60.72C802.249 64.4533 801.343 67.84 799.529 70.88C797.769 73.92 795.369 76.3467 792.329 78.16C789.289 79.92 785.876 80.8 782.089 80.8ZM782.089 72.32C784.276 72.32 786.196 71.84 787.849 70.88C789.556 69.8667 790.863 68.48 791.769 66.72C792.729 64.96 793.209 62.96 793.209 60.72C793.209 58.48 792.729 56.5067 791.769 54.8C790.809 53.0933 789.503 51.76 787.849 50.8C786.196 49.7867 784.276 49.28 782.089 49.28C779.956 49.28 778.036 49.7867 776.329 50.8C774.676 51.76 773.369 53.0933 772.409 54.8C771.503 56.5067 771.049 58.48 771.049 60.72C771.049 62.96 771.503 64.96 772.409 66.72C773.369 68.48 774.676 69.8667 776.329 70.88C778.036 71.84 779.956 72.32 782.089 72.32ZM822.128 80.8C819.994 80.8 817.941 80.5333 815.968 80C813.994 79.4133 812.181 78.6133 810.528 77.6C808.874 76.5333 807.434 75.2533 806.208 73.76L811.808 68.16C813.141 69.7067 814.661 70.88 816.368 71.68C818.128 72.4267 820.101 72.8 822.288 72.8C824.261 72.8 825.754 72.5067 826.768 71.92C827.781 71.3333 828.288 70.48 828.288 69.36C828.288 68.1867 827.808 67.28 826.848 66.64C825.888 66 824.634 65.4667 823.088 65.04C821.594 64.56 819.994 64.08 818.288 63.6C816.634 63.12 815.034 62.48 813.488 61.68C811.994 60.8267 810.768 59.68 809.808 58.24C808.848 56.8 808.368 54.9333 808.368 52.64C808.368 50.1867 808.928 48.08 810.048 46.32C811.221 44.56 812.848 43.2 814.928 42.24C817.061 41.28 819.594 40.8 822.528 40.8C825.621 40.8 828.341 41.36 830.688 42.48C833.088 43.5467 835.088 45.1733 836.688 47.36L831.088 52.96C829.968 51.5733 828.688 50.5333 827.248 49.84C825.808 49.1467 824.154 48.8 822.288 48.8C820.528 48.8 819.168 49.0667 818.208 49.6C817.248 50.1333 816.768 50.9067 816.768 51.92C816.768 52.9867 817.248 53.8133 818.208 54.4C819.168 54.9867 820.394 55.4933 821.888 55.92C823.434 56.3467 825.034 56.8267 826.688 57.36C828.394 57.84 829.994 58.5333 831.488 59.44C833.034 60.2933 834.288 61.4667 835.248 62.96C836.208 64.4 836.688 66.2933 836.688 68.64C836.688 72.3733 835.381 75.3333 832.768 77.52C830.154 79.7067 826.608 80.8 822.128 80.8ZM880.518 80.8C877.585 80.8 874.971 80.1867 872.678 78.96C870.385 77.68 868.571 75.9467 867.238 73.76C865.958 71.5733 865.318 69.0933 865.318 66.32V55.28C865.318 52.5067 865.985 50.0267 867.318 47.84C868.651 45.6533 870.465 43.9467 872.758 42.72C875.051 41.44 877.638 40.8 880.518 40.8C883.985 40.8 887.105 41.7067 889.878 43.52C892.705 45.28 894.918 47.68 896.518 50.72C898.171 53.7067 898.998 57.0933 898.998 60.88C898.998 64.6133 898.171 68 896.518 71.04C894.918 74.0267 892.705 76.4 889.878 78.16C887.105 79.92 883.985 80.8 880.518 80.8ZM859.958 96V41.6H868.758V51.92L867.238 61.28L868.758 70.56V96H859.958ZM879.078 72.48C881.211 72.48 883.078 72 884.678 71.04C886.331 70.0267 887.611 68.64 888.518 66.88C889.478 65.12 889.958 63.0933 889.958 60.8C889.958 58.5067 889.478 56.48 888.518 54.72C887.611 52.96 886.331 51.6 884.678 50.64C883.078 49.6267 881.211 49.12 879.078 49.12C876.945 49.12 875.051 49.6267 873.398 50.64C871.745 51.6 870.465 52.96 869.558 54.72C868.651 56.48 868.198 58.5067 868.198 60.8C868.198 63.0933 868.651 65.12 869.558 66.88C870.465 68.64 871.745 70.0267 873.398 71.04C875.051 72 876.945 72.48 879.078 72.48ZM923.964 80.8C920.231 80.8 916.844 79.92 913.804 78.16C910.764 76.3467 908.338 73.92 906.524 70.88C904.764 67.84 903.884 64.4533 903.884 60.72C903.884 56.9867 904.764 53.6267 906.524 50.64C908.338 47.6533 910.764 45.28 913.804 43.52C916.844 41.7067 920.231 40.8 923.964 40.8C927.751 40.8 931.164 41.68 934.204 43.44C937.244 45.2 939.644 47.6 941.404 50.64C943.218 53.6267 944.124 56.9867 944.124 60.72C944.124 64.4533 943.218 67.84 941.404 70.88C939.644 73.92 937.244 76.3467 934.204 78.16C931.164 79.92 927.751 80.8 923.964 80.8ZM923.964 72.32C926.151 72.32 928.071 71.84 929.724 70.88C931.431 69.8667 932.738 68.48 933.644 66.72C934.604 64.96 935.084 62.96 935.084 60.72C935.084 58.48 934.604 56.5067 933.644 54.8C932.684 53.0933 931.378 51.76 929.724 50.8C928.071 49.7867 926.151 49.28 923.964 49.28C921.831 49.28 919.911 49.7867 918.204 50.8C916.551 51.76 915.244 53.0933 914.284 54.8C913.378 56.5067 912.924 58.48 912.924 60.72C912.924 62.96 913.378 64.96 914.284 66.72C915.244 68.48 916.551 69.8667 918.204 70.88C919.911 71.84 921.831 72.32 923.964 72.32ZM951.443 80V41.6H960.243V80H951.443ZM960.243 58.64L957.203 57.12C957.203 52.2667 958.269 48.3467 960.403 45.36C962.589 42.32 965.869 40.8 970.243 40.8C972.163 40.8 973.896 41.1467 975.443 41.84C976.989 42.5333 978.429 43.6533 979.763 45.2L974.003 51.12C973.309 50.3733 972.536 49.84 971.683 49.52C970.829 49.2 969.843 49.04 968.723 49.04C966.269 49.04 964.243 49.8133 962.643 51.36C961.043 52.9067 960.243 55.3333 960.243 58.64ZM1028.08 80.8C1024.03 80.8 1020.27 80.08 1016.8 78.64C1013.39 77.1467 1010.4 75.0933 1007.84 72.48C1005.28 69.8133 1003.31 66.7467 1001.92 63.28C1000.54 59.76 999.843 56 999.843 52C999.843 48 1000.54 44.2667 1001.92 40.8C1003.31 37.28 1005.28 34.2133 1007.84 31.6C1010.4 28.9867 1013.39 26.9333 1016.8 25.44C1020.27 23.9467 1024.03 23.2 1028.08 23.2C1032.62 23.2 1036.54 23.9467 1039.84 25.44C1043.15 26.9333 1046.08 28.96 1048.64 31.52L1042.4 37.76C1040.75 35.9467 1038.72 34.5333 1036.32 33.52C1033.98 32.5067 1031.23 32 1028.08 32C1025.31 32 1022.78 32.48 1020.48 33.44C1018.19 34.4 1016.19 35.7867 1014.48 37.6C1012.83 39.36 1011.55 41.4667 1010.64 43.92C1009.74 46.3733 1009.28 49.0667 1009.28 52C1009.28 54.9333 1009.74 57.6267 1010.64 60.08C1011.55 62.5333 1012.83 64.6667 1014.48 66.48C1016.19 68.24 1018.19 69.6 1020.48 70.56C1022.78 71.52 1025.31 72 1028.08 72C1031.5 72 1034.38 71.4933 1036.72 70.48C1039.12 69.4133 1041.15 67.9733 1042.8 66.16L1049.04 72.4C1046.48 75.0133 1043.47 77.0667 1040 78.56C1036.54 80.0533 1032.56 80.8 1028.08 80.8ZM1072.48 80.8C1068.75 80.8 1065.36 79.92 1062.32 78.16C1059.28 76.3467 1056.85 73.92 1055.04 70.88C1053.28 67.84 1052.4 64.4533 1052.4 60.72C1052.4 56.9867 1053.28 53.6267 1055.04 50.64C1056.85 47.6533 1059.28 45.28 1062.32 43.52C1065.36 41.7067 1068.75 40.8 1072.48 40.8C1076.27 40.8 1079.68 41.68 1082.72 43.44C1085.76 45.2 1088.16 47.6 1089.92 50.64C1091.73 53.6267 1092.64 56.9867 1092.64 60.72C1092.64 64.4533 1091.73 67.84 1089.92 70.88C1088.16 73.92 1085.76 76.3467 1082.72 78.16C1079.68 79.92 1076.27 80.8 1072.48 80.8ZM1072.48 72.32C1074.67 72.32 1076.59 71.84 1078.24 70.88C1079.95 69.8667 1081.25 68.48 1082.16 66.72C1083.12 64.96 1083.6 62.96 1083.6 60.72C1083.6 58.48 1083.12 56.5067 1082.16 54.8C1081.2 53.0933 1079.89 51.76 1078.24 50.8C1076.59 49.7867 1074.67 49.28 1072.48 49.28C1070.35 49.28 1068.43 49.7867 1066.72 50.8C1065.07 51.76 1063.76 53.0933 1062.8 54.8C1061.89 56.5067 1061.44 58.48 1061.44 60.72C1061.44 62.96 1061.89 64.96 1062.8 66.72C1063.76 68.48 1065.07 69.8667 1066.72 70.88C1068.43 71.84 1070.35 72.32 1072.48 72.32ZM1099.96 80V41.6H1108.76V80H1099.96ZM1108.76 58.64L1105.72 57.12C1105.72 52.2667 1106.78 48.3467 1108.92 45.36C1111.1 42.32 1114.38 40.8 1118.76 40.8C1120.68 40.8 1122.41 41.1467 1123.96 41.84C1125.5 42.5333 1126.94 43.6533 1128.28 45.2L1122.52 51.12C1121.82 50.3733 1121.05 49.84 1120.2 49.52C1119.34 49.2 1118.36 49.04 1117.24 49.04C1114.78 49.04 1112.76 49.8133 1111.16 51.36C1109.56 52.9067 1108.76 55.3333 1108.76 58.64ZM1124.63 83.2L1147.03 20.8H1155.27L1132.87 83.2H1124.63ZM1169.67 56.24V48.64H1183.83C1186.65 48.64 1188.84 47.92 1190.39 46.48C1191.99 44.9867 1192.79 42.9333 1192.79 40.32C1192.79 37.9733 1192.01 36 1190.47 34.4C1188.92 32.8 1186.73 32 1183.91 32H1169.67V24H1184.31C1187.83 24 1190.92 24.72 1193.59 26.16C1196.25 27.5467 1198.31 29.4667 1199.75 31.92C1201.24 34.32 1201.99 37.0667 1201.99 40.16C1201.99 43.4133 1201.24 46.24 1199.75 48.64C1198.31 51.04 1196.25 52.9067 1193.59 54.24C1190.92 55.5733 1187.83 56.24 1184.31 56.24H1169.67ZM1163.35 80V24H1172.55V80H1163.35ZM1194.07 80L1174.47 55.68L1183.03 52.56L1205.67 80H1194.07ZM1226.19 80.8C1222.73 80.8 1219.58 79.92 1216.75 78.16C1213.98 76.4 1211.77 74.0267 1210.11 71.04C1208.51 68 1207.71 64.6133 1207.71 60.88C1207.71 57.0933 1208.51 53.7067 1210.11 50.72C1211.77 47.68 1213.98 45.28 1216.75 43.52C1219.58 41.7067 1222.73 40.8 1226.19 40.8C1229.13 40.8 1231.71 41.44 1233.95 42.72C1236.25 43.9467 1238.06 45.6533 1239.39 47.84C1240.73 50.0267 1241.39 52.5067 1241.39 55.28V66.32C1241.39 69.0933 1240.73 71.5733 1239.39 73.76C1238.11 75.9467 1236.33 77.68 1234.03 78.96C1231.74 80.1867 1229.13 80.8 1226.19 80.8ZM1227.63 72.48C1230.89 72.48 1233.5 71.3867 1235.47 69.2C1237.5 67.0133 1238.51 64.2133 1238.51 60.8C1238.51 58.5067 1238.06 56.48 1237.15 54.72C1236.25 52.96 1234.97 51.6 1233.31 50.64C1231.71 49.6267 1229.82 49.12 1227.63 49.12C1225.5 49.12 1223.61 49.6267 1221.95 50.64C1220.35 51.6 1219.07 52.96 1218.11 54.72C1217.21 56.48 1216.75 58.5067 1216.75 60.8C1216.75 63.0933 1217.21 65.12 1218.11 66.88C1219.07 68.64 1220.35 70.0267 1221.95 71.04C1223.61 72 1225.5 72.48 1227.63 72.48ZM1237.95 80V69.68L1239.47 60.32L1237.95 51.04V41.6H1246.75V80H1237.95ZM1274.2 80.8C1270.41 80.8 1266.97 79.92 1263.88 78.16C1260.84 76.4 1258.44 74 1256.68 70.96C1254.92 67.92 1254.04 64.5333 1254.04 60.8C1254.04 57.0133 1254.92 53.6267 1256.68 50.64C1258.44 47.6 1260.84 45.2 1263.88 43.44C1266.97 41.68 1270.41 40.8 1274.2 40.8C1277.19 40.8 1279.96 41.3867 1282.52 42.56C1285.13 43.68 1287.35 45.3067 1289.16 47.44L1283.4 53.28C1282.28 51.9467 1280.92 50.96 1279.32 50.32C1277.77 49.6267 1276.07 49.28 1274.2 49.28C1272.01 49.28 1270.07 49.7867 1268.36 50.8C1266.71 51.76 1265.4 53.0933 1264.44 54.8C1263.53 56.5067 1263.08 58.5067 1263.08 60.8C1263.08 63.04 1263.53 65.04 1264.44 66.8C1265.4 68.5067 1266.71 69.8667 1268.36 70.88C1270.07 71.84 1272.01 72.32 1274.2 72.32C1276.07 72.32 1277.77 72 1279.32 71.36C1280.92 70.6667 1282.28 69.6533 1283.4 68.32L1289.16 74.16C1287.35 76.2933 1285.13 77.9467 1282.52 79.12C1279.96 80.24 1277.19 80.8 1274.2 80.8ZM1271.72 96.8C1269.75 96.8 1268.01 96.56 1266.52 96.08C1265.03 95.6 1263.59 94.9067 1262.2 94L1265.8 89.44C1266.39 89.9733 1267.11 90.4 1267.96 90.72C1268.81 91.0933 1269.85 91.28 1271.08 91.28C1272.47 91.28 1273.45 91.0933 1274.04 90.72C1274.68 90.3467 1275 89.8933 1275 89.36C1275 88.7733 1274.71 88.24 1274.12 87.76C1273.59 87.3333 1272.71 87.12 1271.48 87.12H1267.32L1269.96 78.88H1276.36L1274.44 84.64L1271.24 82.24C1274.55 82.1333 1277.21 82.7733 1279.24 84.16C1281.27 85.6 1282.28 87.3867 1282.28 89.52C1282.28 91.6 1281.29 93.3333 1279.32 94.72C1277.4 96.1067 1274.87 96.8 1271.72 96.8ZM1310.8 80.8C1307.34 80.8 1304.19 79.92 1301.36 78.16C1298.59 76.4 1296.38 74.0267 1294.72 71.04C1293.12 68 1292.32 64.6133 1292.32 60.88C1292.32 57.0933 1293.12 53.7067 1294.72 50.72C1296.38 47.68 1298.59 45.28 1301.36 43.52C1304.19 41.7067 1307.34 40.8 1310.8 40.8C1313.74 40.8 1316.32 41.44 1318.56 42.72C1320.86 43.9467 1322.67 45.6533 1324 47.84C1325.34 50.0267 1326 52.5067 1326 55.28V66.32C1326 69.0933 1325.34 71.5733 1324 73.76C1322.72 75.9467 1320.94 77.68 1318.64 78.96C1316.35 80.1867 1313.74 80.8 1310.8 80.8ZM1312.24 72.48C1315.5 72.48 1318.11 71.3867 1320.08 69.2C1322.11 67.0133 1323.12 64.2133 1323.12 60.8C1323.12 58.5067 1322.67 56.48 1321.76 54.72C1320.86 52.96 1319.58 51.6 1317.92 50.64C1316.32 49.6267 1314.43 49.12 1312.24 49.12C1310.11 49.12 1308.22 49.6267 1306.56 50.64C1304.96 51.6 1303.68 52.96 1302.72 54.72C1301.82 56.48 1301.36 58.5067 1301.36 60.8C1301.36 63.0933 1301.82 65.12 1302.72 66.88C1303.68 68.64 1304.96 70.0267 1306.56 71.04C1308.22 72 1310.11 72.48 1312.24 72.48ZM1322.56 80V69.68L1324.08 60.32L1322.56 51.04V41.6H1331.36V80H1322.56ZM1383.47 80V57.84C1383.47 55.28 1382.64 53.1733 1380.99 51.52C1379.39 49.8667 1377.31 49.04 1374.75 49.04C1373.04 49.04 1371.52 49.4133 1370.19 50.16C1368.85 50.9067 1367.81 51.9467 1367.07 53.28C1366.32 54.6133 1365.95 56.1333 1365.95 57.84L1362.51 55.92C1362.51 52.9867 1363.15 50.4 1364.43 48.16C1365.71 45.8667 1367.47 44.08 1369.71 42.8C1372 41.4667 1374.56 40.8 1377.39 40.8C1380.27 40.8 1382.83 41.5467 1385.07 43.04C1387.31 44.48 1389.07 46.3733 1390.35 48.72C1391.63 51.0133 1392.27 53.4133 1392.27 55.92V80H1383.47ZM1357.15 80V41.6H1365.95V80H1357.15ZM1418.81 80.8C1415.07 80.8 1411.69 79.92 1408.65 78.16C1405.61 76.3467 1403.18 73.92 1401.37 70.88C1399.61 67.84 1398.73 64.4533 1398.73 60.72C1398.73 56.9867 1399.61 53.6267 1401.37 50.64C1403.18 47.6533 1405.61 45.28 1408.65 43.52C1411.69 41.7067 1415.07 40.8 1418.81 40.8C1422.59 40.8 1426.01 41.68 1429.05 43.44C1432.09 45.2 1434.49 47.6 1436.25 50.64C1438.06 53.6267 1438.97 56.9867 1438.97 60.72C1438.97 64.4533 1438.06 67.84 1436.25 70.88C1434.49 73.92 1432.09 76.3467 1429.05 78.16C1426.01 79.92 1422.59 80.8 1418.81 80.8ZM1418.81 72.32C1420.99 72.32 1422.91 71.84 1424.57 70.88C1426.27 69.8667 1427.58 68.48 1428.49 66.72C1429.45 64.96 1429.93 62.96 1429.93 60.72C1429.93 58.48 1429.45 56.5067 1428.49 54.8C1427.53 53.0933 1426.22 51.76 1424.57 50.8C1422.91 49.7867 1420.99 49.28 1418.81 49.28C1416.67 49.28 1414.75 49.7867 1413.05 50.8C1411.39 51.76 1410.09 53.0933 1409.13 54.8C1408.22 56.5067 1407.77 58.48 1407.77 60.72C1407.77 62.96 1408.22 64.96 1409.13 66.72C1410.09 68.48 1411.39 69.8667 1413.05 70.88C1414.75 71.84 1416.67 72.32 1418.81 72.32ZM1463.5 80V24H1472.7V80H1463.5ZM1469.82 80V71.6H1501.18V80H1469.82ZM1469.82 55.44V47.36H1498.46V55.44H1469.82ZM1469.82 32.4V24H1500.78V32.4H1469.82ZM1535.81 80V57.84C1535.81 55.28 1534.98 53.1733 1533.33 51.52C1531.73 49.8667 1529.65 49.04 1527.09 49.04C1525.38 49.04 1523.86 49.4133 1522.53 50.16C1521.2 50.9067 1520.16 51.9467 1519.41 53.28C1518.66 54.6133 1518.29 56.1333 1518.29 57.84L1514.85 55.92C1514.85 52.9867 1515.49 50.4 1516.77 48.16C1518.05 45.8667 1519.81 44.08 1522.05 42.8C1524.34 41.4667 1526.9 40.8 1529.73 40.8C1532.61 40.8 1535.17 41.5467 1537.41 43.04C1539.65 44.48 1541.41 46.3733 1542.69 48.72C1543.97 51.0133 1544.61 53.4133 1544.61 55.92V80H1535.81ZM1509.49 80V41.6H1518.29V80H1509.49ZM1566.11 80.8C1563.98 80.8 1561.93 80.5333 1559.95 80C1557.98 79.4133 1556.17 78.6133 1554.51 77.6C1552.86 76.5333 1551.42 75.2533 1550.19 73.76L1555.79 68.16C1557.13 69.7067 1558.65 70.88 1560.35 71.68C1562.11 72.4267 1564.09 72.8 1566.27 72.8C1568.25 72.8 1569.74 72.5067 1570.75 71.92C1571.77 71.3333 1572.27 70.48 1572.27 69.36C1572.27 68.1867 1571.79 67.28 1570.83 66.64C1569.87 66 1568.62 65.4667 1567.07 65.04C1565.58 64.56 1563.98 64.08 1562.27 63.6C1560.62 63.12 1559.02 62.48 1557.47 61.68C1555.98 60.8267 1554.75 59.68 1553.79 58.24C1552.83 56.8 1552.35 54.9333 1552.35 52.64C1552.35 50.1867 1552.91 48.08 1554.03 46.32C1555.21 44.56 1556.83 43.2 1558.91 42.24C1561.05 41.28 1563.58 40.8 1566.51 40.8C1569.61 40.8 1572.33 41.36 1574.67 42.48C1577.07 43.5467 1579.07 45.1733 1580.67 47.36L1575.07 52.96C1573.95 51.5733 1572.67 50.5333 1571.23 49.84C1569.79 49.1467 1568.14 48.8 1566.27 48.8C1564.51 48.8 1563.15 49.0667 1562.19 49.6C1561.23 50.1333 1560.75 50.9067 1560.75 51.92C1560.75 52.9867 1561.23 53.8133 1562.19 54.4C1563.15 54.9867 1564.38 55.4933 1565.87 55.92C1567.42 56.3467 1569.02 56.8267 1570.67 57.36C1572.38 57.84 1573.98 58.5333 1575.47 59.44C1577.02 60.2933 1578.27 61.4667 1579.23 62.96C1580.19 64.4 1580.67 66.2933 1580.67 68.64C1580.67 72.3733 1579.37 75.3333 1576.75 77.52C1574.14 79.7067 1570.59 80.8 1566.11 80.8ZM1588.01 80V41.6H1596.81V80H1588.01ZM1592.41 34.56C1590.91 34.56 1589.66 34.0533 1588.65 33.04C1587.69 32.0267 1587.21 30.7733 1587.21 29.28C1587.21 27.7867 1587.69 26.5333 1588.65 25.52C1589.66 24.5067 1590.91 24 1592.41 24C1593.95 24 1595.21 24.5067 1596.17 25.52C1597.13 26.5333 1597.61 27.7867 1597.61 29.28C1597.61 30.7733 1597.13 32.0267 1596.17 33.04C1595.21 34.0533 1593.95 34.56 1592.41 34.56ZM1633 80V57.84C1633 55.28 1632.17 53.1733 1630.52 51.52C1628.92 49.8667 1626.84 49.04 1624.28 49.04C1622.57 49.04 1621.05 49.4133 1619.72 50.16C1618.38 50.9067 1617.34 51.9467 1616.6 53.28C1615.85 54.6133 1615.48 56.1333 1615.48 57.84L1612.04 55.92C1612.04 52.9867 1612.68 50.4 1613.96 48.16C1615.24 45.8667 1617 44.08 1619.24 42.8C1621.53 41.4667 1624.09 40.8 1626.92 40.8C1629.8 40.8 1632.36 41.5467 1634.6 43.04C1636.84 44.48 1638.6 46.3733 1639.88 48.72C1641.16 51.0133 1641.8 53.4133 1641.8 55.92V80H1633ZM1606.68 80V41.6H1615.48V80H1606.68ZM1668.34 80.8C1664.61 80.8 1661.22 79.92 1658.18 78.16C1655.14 76.3467 1652.71 73.92 1650.9 70.88C1649.14 67.84 1648.26 64.4533 1648.26 60.72C1648.26 56.9867 1649.14 53.6267 1650.9 50.64C1652.71 47.6533 1655.14 45.28 1658.18 43.52C1661.22 41.7067 1664.61 40.8 1668.34 40.8C1672.13 40.8 1675.54 41.68 1678.58 43.44C1681.62 45.2 1684.02 47.6 1685.78 50.64C1687.59 53.6267 1688.5 56.9867 1688.5 60.72C1688.5 64.4533 1687.59 67.84 1685.78 70.88C1684.02 73.92 1681.62 76.3467 1678.58 78.16C1675.54 79.92 1672.13 80.8 1668.34 80.8ZM1668.34 72.32C1670.53 72.32 1672.45 71.84 1674.1 70.88C1675.81 69.8667 1677.11 68.48 1678.02 66.72C1678.98 64.96 1679.46 62.96 1679.46 60.72C1679.46 58.48 1678.98 56.5067 1678.02 54.8C1677.06 53.0933 1675.75 51.76 1674.1 50.8C1672.45 49.7867 1670.53 49.28 1668.34 49.28C1666.21 49.28 1664.29 49.7867 1662.58 50.8C1660.93 51.76 1659.62 53.0933 1658.66 54.8C1657.75 56.5067 1657.3 58.48 1657.3 60.72C1657.3 62.96 1657.75 64.96 1658.66 66.72C1659.62 68.48 1660.93 69.8667 1662.58 70.88C1664.29 71.84 1666.21 72.32 1668.34 72.32ZM1719.35 80V72H1735.43C1738.26 72 1740.45 71.12 1741.99 69.36C1743.54 67.6 1744.31 65.5733 1744.31 63.28C1744.31 61.7333 1743.97 60.2933 1743.27 58.96C1742.58 57.6267 1741.57 56.56 1740.23 55.76C1738.9 54.96 1737.3 54.56 1735.43 54.56H1719.35V46.56H1734.07C1736.47 46.56 1738.39 45.9467 1739.83 44.72C1741.27 43.4933 1741.99 41.68 1741.99 39.28C1741.99 36.88 1741.27 35.0667 1739.83 33.84C1738.39 32.6133 1736.47 32 1734.07 32H1719.35V24H1734.31C1738.1 24 1741.25 24.6933 1743.75 26.08C1746.26 27.4667 1748.13 29.2533 1749.35 31.44C1750.58 33.6267 1751.19 35.9733 1751.19 38.48C1751.19 41.4133 1750.37 44 1748.71 46.24C1747.11 48.48 1744.74 50.2933 1741.59 51.68L1742.31 48.8C1745.83 50.24 1748.58 52.2667 1750.55 54.88C1752.53 57.4933 1753.51 60.56 1753.51 64.08C1753.51 66.96 1752.79 69.6 1751.35 72C1749.97 74.4 1747.89 76.3467 1745.11 77.84C1742.39 79.28 1739.03 80 1735.03 80H1719.35ZM1713.03 80V24H1722.23V80H1713.03ZM1777.68 80.8C1774.21 80.8 1771.07 79.92 1768.24 78.16C1765.47 76.4 1763.25 74.0267 1761.6 71.04C1760 68 1759.2 64.6133 1759.2 60.88C1759.2 57.0933 1760 53.7067 1761.6 50.72C1763.25 47.68 1765.47 45.28 1768.24 43.52C1771.07 41.7067 1774.21 40.8 1777.68 40.8C1780.61 40.8 1783.2 41.44 1785.44 42.72C1787.73 43.9467 1789.55 45.6533 1790.88 47.84C1792.21 50.0267 1792.88 52.5067 1792.88 55.28V66.32C1792.88 69.0933 1792.21 71.5733 1790.88 73.76C1789.6 75.9467 1787.81 77.68 1785.52 78.96C1783.23 80.1867 1780.61 80.8 1777.68 80.8ZM1779.12 72.48C1782.37 72.48 1784.99 71.3867 1786.96 69.2C1788.99 67.0133 1790 64.2133 1790 60.8C1790 58.5067 1789.55 56.48 1788.64 54.72C1787.73 52.96 1786.45 51.6 1784.8 50.64C1783.2 49.6267 1781.31 49.12 1779.12 49.12C1776.99 49.12 1775.09 49.6267 1773.44 50.64C1771.84 51.6 1770.56 52.96 1769.6 54.72C1768.69 56.48 1768.24 58.5067 1768.24 60.8C1768.24 63.0933 1768.69 65.12 1769.6 66.88C1770.56 68.64 1771.84 70.0267 1773.44 71.04C1775.09 72 1776.99 72.48 1779.12 72.48ZM1789.44 80V69.68L1790.96 60.32L1789.44 51.04V41.6H1798.24V80H1789.44ZM1775.36 36.08L1771.36 32.08L1781.6 19.04L1788.4 25.84L1775.36 36.08ZM1820.57 80.8C1818.43 80.8 1816.38 80.5333 1814.41 80C1812.43 79.4133 1810.62 78.6133 1808.97 77.6C1807.31 76.5333 1805.87 75.2533 1804.65 73.76L1810.25 68.16C1811.58 69.7067 1813.1 70.88 1814.81 71.68C1816.57 72.4267 1818.54 72.8 1820.73 72.8C1822.7 72.8 1824.19 72.5067 1825.21 71.92C1826.22 71.3333 1826.73 70.48 1826.73 69.36C1826.73 68.1867 1826.25 67.28 1825.29 66.64C1824.33 66 1823.07 65.4667 1821.53 65.04C1820.03 64.56 1818.43 64.08 1816.73 63.6C1815.07 63.12 1813.47 62.48 1811.93 61.68C1810.43 60.8267 1809.21 59.68 1808.25 58.24C1807.29 56.8 1806.81 54.9333 1806.81 52.64C1806.81 50.1867 1807.37 48.08 1808.49 46.32C1809.66 44.56 1811.29 43.2 1813.37 42.24C1815.5 41.28 1818.03 40.8 1820.97 40.8C1824.06 40.8 1826.78 41.36 1829.13 42.48C1831.53 43.5467 1833.53 45.1733 1835.13 47.36L1829.53 52.96C1828.41 51.5733 1827.13 50.5333 1825.69 49.84C1824.25 49.1467 1822.59 48.8 1820.73 48.8C1818.97 48.8 1817.61 49.0667 1816.65 49.6C1815.69 50.1333 1815.21 50.9067 1815.21 51.92C1815.21 52.9867 1815.69 53.8133 1816.65 54.4C1817.61 54.9867 1818.83 55.4933 1820.33 55.92C1821.87 56.3467 1823.47 56.8267 1825.13 57.36C1826.83 57.84 1828.43 58.5333 1829.93 59.44C1831.47 60.2933 1832.73 61.4667 1833.69 62.96C1834.65 64.4 1835.13 66.2933 1835.13 68.64C1835.13 72.3733 1833.82 75.3333 1831.21 77.52C1828.59 79.7067 1825.05 80.8 1820.57 80.8ZM1842.46 80V41.6H1851.26V80H1842.46ZM1846.86 34.56C1845.37 34.56 1844.11 34.0533 1843.1 33.04C1842.14 32.0267 1841.66 30.7733 1841.66 29.28C1841.66 27.7867 1842.14 26.5333 1843.1 25.52C1844.11 24.5067 1845.37 24 1846.86 24C1848.41 24 1849.66 24.5067 1850.62 25.52C1851.58 26.5333 1852.06 27.7867 1852.06 29.28C1852.06 30.7733 1851.58 32.0267 1850.62 33.04C1849.66 34.0533 1848.41 34.56 1846.86 34.56ZM1878.81 80.8C1875.02 80.8 1871.58 79.92 1868.49 78.16C1865.45 76.4 1863.05 74 1861.29 70.96C1859.53 67.92 1858.65 64.5333 1858.65 60.8C1858.65 57.0133 1859.53 53.6267 1861.29 50.64C1863.05 47.6 1865.45 45.2 1868.49 43.44C1871.58 41.68 1875.02 40.8 1878.81 40.8C1881.8 40.8 1884.57 41.3867 1887.13 42.56C1889.74 43.68 1891.96 45.3067 1893.77 47.44L1888.01 53.28C1886.89 51.9467 1885.53 50.96 1883.93 50.32C1882.38 49.6267 1880.68 49.28 1878.81 49.28C1876.62 49.28 1874.68 49.7867 1872.97 50.8C1871.32 51.76 1870.01 53.0933 1869.05 54.8C1868.14 56.5067 1867.69 58.5067 1867.69 60.8C1867.69 63.04 1868.14 65.04 1869.05 66.8C1870.01 68.5067 1871.32 69.8667 1872.97 70.88C1874.68 71.84 1876.62 72.32 1878.81 72.32C1880.68 72.32 1882.38 72 1883.93 71.36C1885.53 70.6667 1886.89 69.6533 1888.01 68.32L1893.77 74.16C1891.96 76.2933 1889.74 77.9467 1887.13 79.12C1884.57 80.24 1881.8 80.8 1878.81 80.8ZM1916.93 80.8C1913.2 80.8 1909.81 79.92 1906.77 78.16C1903.73 76.3467 1901.31 73.92 1899.49 70.88C1897.73 67.84 1896.85 64.4533 1896.85 60.72C1896.85 56.9867 1897.73 53.6267 1899.49 50.64C1901.31 47.6533 1903.73 45.28 1906.77 43.52C1909.81 41.7067 1913.2 40.8 1916.93 40.8C1920.72 40.8 1924.13 41.68 1927.17 43.44C1930.21 45.2 1932.61 47.6 1934.37 50.64C1936.19 53.6267 1937.09 56.9867 1937.09 60.72C1937.09 64.4533 1936.19 67.84 1934.37 70.88C1932.61 73.92 1930.21 76.3467 1927.17 78.16C1924.13 79.92 1920.72 80.8 1916.93 80.8ZM1916.93 72.32C1919.12 72.32 1921.04 71.84 1922.69 70.88C1924.4 69.8667 1925.71 68.48 1926.61 66.72C1927.57 64.96 1928.05 62.96 1928.05 60.72C1928.05 58.48 1927.57 56.5067 1926.61 54.8C1925.65 53.0933 1924.35 51.76 1922.69 50.8C1921.04 49.7867 1919.12 49.28 1916.93 49.28C1914.8 49.28 1912.88 49.7867 1911.17 50.8C1909.52 51.76 1908.21 53.0933 1907.25 54.8C1906.35 56.5067 1905.89 58.48 1905.89 60.72C1905.89 62.96 1906.35 64.96 1907.25 66.72C1908.21 68.48 1909.52 69.8667 1911.17 70.88C1912.88 71.84 1914.8 72.32 1916.93 72.32Z" fill="#9C1C2B"/>
</svg>
