<svg width="723" height="803" viewBox="0 0 723 803" fill="none" xmlns="http://www.w3.org/2000/svg">
<g clip-path="url(#clip0_17151_16)">
<path d="M0 80C0 57.9086 17.9086 40 40 40H682.16C704.251 40 722.16 57.9086 722.16 80V722.16C722.16 744.251 704.251 762.16 682.16 762.16H40C17.9086 762.16 0 744.251 0 722.16V80Z" fill="#FD9D24"/>
<path d="M149.8 472.05H244.54C244.989 472.051 245.428 471.922 245.805 471.677C246.181 471.433 246.478 471.084 246.659 470.674C246.841 470.263 246.899 469.809 246.826 469.366C246.753 468.923 246.553 468.511 246.25 468.18L246.12 468.04L199 407.05L198.54 406.55C198.322 406.31 198.057 406.119 197.76 405.988C197.464 405.857 197.144 405.79 196.82 405.79C196.258 405.803 195.72 406.016 195.3 406.39L195.01 406.72L194.57 407.21L148.57 467.56L147.86 468.42C147.624 468.771 147.488 469.18 147.467 469.602C147.445 470.025 147.539 470.445 147.739 470.818C147.938 471.191 148.235 471.503 148.598 471.72C148.962 471.937 149.377 472.051 149.8 472.05ZM244.25 480.66H149.33C149.024 480.66 148.721 480.72 148.438 480.837C148.156 480.954 147.899 481.126 147.682 481.342C147.466 481.559 147.294 481.816 147.177 482.098C147.06 482.381 147 482.684 147 482.99V557.27C146.999 557.577 147.058 557.881 147.174 558.165C147.291 558.449 147.462 558.707 147.679 558.924C147.895 559.141 148.153 559.314 148.436 559.432C148.719 559.549 149.023 559.61 149.33 559.61H179.88V512.87C179.879 512.565 179.938 512.262 180.054 511.979C180.17 511.696 180.34 511.44 180.556 511.223C180.772 511.007 181.028 510.835 181.31 510.718C181.592 510.6 181.894 510.54 182.2 510.54H210.56C211.178 510.54 211.771 510.785 212.208 511.222C212.645 511.659 212.89 512.252 212.89 512.87V559.61H244.25C244.869 559.607 245.461 559.36 245.898 558.921C246.335 558.483 246.58 557.889 246.58 557.27V482.99C246.58 482.684 246.52 482.381 246.403 482.098C246.286 481.816 246.114 481.559 245.898 481.342C245.681 481.126 245.424 480.954 245.142 480.837C244.859 480.72 244.556 480.66 244.25 480.66ZM572.33 461.22H478.33C478.032 461.213 477.736 461.266 477.458 461.375C477.181 461.484 476.928 461.647 476.714 461.854C476.5 462.062 476.329 462.309 476.212 462.583C476.094 462.857 476.033 463.152 476.03 463.45V558.32C476.041 558.92 476.288 559.492 476.72 559.91C477.151 560.328 477.73 560.558 478.33 560.55H572.33C572.628 560.555 572.923 560.502 573.2 560.392C573.477 560.283 573.73 560.12 573.943 559.913C574.157 559.706 574.328 559.458 574.446 559.185C574.563 558.912 574.626 558.618 574.63 558.32V463.45C574.627 463.152 574.566 462.857 574.448 462.583C574.331 462.309 574.16 462.062 573.946 461.854C573.732 461.647 573.479 461.484 573.202 461.375C572.924 461.266 572.628 461.213 572.33 461.22ZM520.92 523.15C520.919 523.448 520.858 523.744 520.742 524.019C520.626 524.294 520.457 524.543 520.244 524.752C520.031 524.961 519.779 525.126 519.502 525.238C519.225 525.349 518.928 525.404 518.63 525.4H490.56C490.261 525.404 489.963 525.349 489.685 525.238C489.407 525.127 489.153 524.962 488.939 524.754C488.724 524.545 488.553 524.295 488.435 524.02C488.317 523.745 488.254 523.449 488.25 523.15V506.1C488.254 505.801 488.317 505.506 488.435 505.231C488.554 504.957 488.725 504.708 488.94 504.5C489.154 504.292 489.408 504.128 489.686 504.018C489.964 503.909 490.261 503.855 490.56 503.86H518.63C518.928 503.855 519.224 503.909 519.501 504.019C519.778 504.129 520.03 504.293 520.243 504.501C520.456 504.71 520.626 504.958 520.742 505.233C520.858 505.507 520.919 505.802 520.92 506.1V523.15ZM520.92 491.63C520.912 492.23 520.667 492.803 520.237 493.223C519.808 493.643 519.23 493.875 518.63 493.87H490.56C489.957 493.878 489.375 493.647 488.942 493.227C488.51 492.807 488.261 492.233 488.25 491.63V474.56C488.261 473.957 488.51 473.383 488.942 472.963C489.375 472.543 489.957 472.312 490.56 472.32H518.63C518.928 472.316 519.223 472.371 519.499 472.481C519.776 472.592 520.028 472.756 520.24 472.964C520.453 473.172 520.623 473.42 520.739 473.694C520.856 473.968 520.917 474.262 520.92 474.56V491.63ZM563.82 523.15C563.819 523.449 563.758 523.745 563.641 524.021C563.525 524.297 563.354 524.547 563.14 524.756C562.926 524.965 562.673 525.13 562.395 525.241C562.117 525.351 561.819 525.405 561.52 525.4H533.46C533.161 525.405 532.863 525.351 532.585 525.241C532.307 525.13 532.054 524.965 531.84 524.756C531.626 524.547 531.455 524.297 531.339 524.021C531.222 523.745 531.161 523.449 531.16 523.15V506.1C531.163 505.802 531.224 505.506 531.342 505.232C531.459 504.957 531.629 504.709 531.843 504.501C532.057 504.292 532.31 504.129 532.587 504.019C532.865 503.909 533.162 503.855 533.46 503.86H561.52C561.818 503.855 562.115 503.909 562.393 504.019C562.67 504.129 562.923 504.292 563.137 504.501C563.351 504.709 563.521 504.957 563.638 505.232C563.756 505.506 563.817 505.802 563.82 506.1V523.15ZM563.82 491.63C563.816 491.928 563.754 492.223 563.636 492.496C563.518 492.77 563.348 493.018 563.134 493.226C562.92 493.434 562.668 493.598 562.391 493.709C562.114 493.819 561.818 493.874 561.52 493.87H533.46C533.162 493.874 532.866 493.819 532.589 493.709C532.312 493.598 532.06 493.434 531.846 493.226C531.632 493.018 531.462 492.77 531.344 492.496C531.227 492.223 531.164 491.928 531.16 491.63V474.56C531.163 474.262 531.224 473.966 531.342 473.692C531.459 473.417 531.629 473.169 531.843 472.961C532.057 472.752 532.31 472.588 532.587 472.479C532.865 472.369 533.162 472.315 533.46 472.32H561.52C561.818 472.315 562.115 472.369 562.393 472.479C562.67 472.588 562.923 472.752 563.137 472.961C563.351 473.169 563.521 473.417 563.638 473.692C563.756 473.966 563.817 474.262 563.82 474.56V491.63ZM353.93 241.05H262C261.705 241.05 261.413 241.108 261.14 241.221C260.868 241.335 260.621 241.501 260.413 241.71C260.204 241.919 260.04 242.167 259.928 242.44C259.816 242.713 259.759 243.005 259.76 243.3V557.48C259.76 558.075 259.996 558.646 260.415 559.067C260.835 559.489 261.405 559.727 262 559.73H353.95C354.547 559.727 355.119 559.49 355.542 559.069C355.965 558.648 356.205 558.077 356.21 557.48V243.25C356.207 242.652 355.968 242.08 355.545 241.658C355.121 241.237 354.548 241 353.95 241M299.25 523.93C299.25 524.249 299.124 524.555 298.899 524.782C298.674 525.009 298.369 525.137 298.05 525.14H277C276.681 525.137 276.376 525.009 276.151 524.782C275.926 524.555 275.8 524.249 275.8 523.93V500.47C275.8 500.152 275.926 499.847 276.151 499.621C276.376 499.396 276.682 499.27 277 499.27H298C298.318 499.27 298.623 499.396 298.849 499.621C299.074 499.847 299.2 500.152 299.2 500.47L299.25 523.93ZM299.25 470.05C299.251 470.208 299.221 470.365 299.161 470.511C299.102 470.657 299.013 470.79 298.901 470.902C298.79 471.013 298.657 471.102 298.511 471.161C298.365 471.221 298.208 471.251 298.05 471.25H277C276.842 471.251 276.685 471.221 276.539 471.161C276.393 471.102 276.26 471.013 276.148 470.902C276.037 470.79 275.948 470.657 275.889 470.511C275.829 470.365 275.799 470.208 275.8 470.05V446.59C275.799 446.432 275.829 446.275 275.889 446.129C275.948 445.983 276.037 445.85 276.148 445.738C276.26 445.627 276.393 445.538 276.539 445.479C276.685 445.419 276.842 445.389 277 445.39H298C298.158 445.389 298.315 445.419 298.461 445.479C298.607 445.538 298.74 445.627 298.851 445.738C298.963 445.85 299.052 445.983 299.111 446.129C299.171 446.275 299.201 446.432 299.2 446.59L299.25 470.05ZM299.25 416.18C299.25 416.498 299.124 416.803 298.899 417.029C298.673 417.254 298.368 417.38 298.05 417.38H277C276.682 417.38 276.376 417.254 276.151 417.029C275.926 416.803 275.8 416.498 275.8 416.18V392.71C275.8 392.391 275.926 392.085 276.151 391.858C276.376 391.631 276.681 391.503 277 391.5H298C298.319 391.503 298.624 391.631 298.849 391.858C299.074 392.085 299.2 392.391 299.2 392.71L299.25 416.18ZM299.25 362.29C299.25 362.609 299.124 362.915 298.899 363.142C298.674 363.369 298.369 363.497 298.05 363.5H277C276.681 363.497 276.376 363.369 276.151 363.142C275.926 362.915 275.8 362.609 275.8 362.29V338.82C275.8 338.663 275.831 338.507 275.892 338.362C275.952 338.217 276.04 338.086 276.152 337.975C276.264 337.864 276.396 337.777 276.542 337.718C276.687 337.658 276.843 337.629 277 337.63H298C298.157 337.629 298.313 337.658 298.458 337.718C298.604 337.777 298.736 337.864 298.848 337.975C298.959 338.086 299.048 338.217 299.108 338.362C299.169 338.507 299.2 338.663 299.2 338.82L299.25 362.29ZM299.25 308.42C299.25 308.738 299.124 309.043 298.899 309.269C298.673 309.494 298.368 309.62 298.05 309.62H277C276.682 309.62 276.376 309.494 276.151 309.269C275.926 309.043 275.8 308.738 275.8 308.42V284.95C275.8 284.632 275.926 284.327 276.151 284.101C276.376 283.876 276.682 283.75 277 283.75H298C298.318 283.75 298.623 283.876 298.849 284.101C299.074 284.327 299.2 284.632 299.2 284.95L299.25 308.42ZM340.54 523.93C340.54 524.09 340.508 524.248 340.447 524.395C340.386 524.543 340.295 524.677 340.182 524.789C340.069 524.902 339.934 524.991 339.786 525.051C339.638 525.111 339.48 525.141 339.32 525.14H318.32C317.999 525.14 317.691 525.013 317.464 524.786C317.237 524.559 317.11 524.251 317.11 523.93V500.47C317.11 500.312 317.141 500.155 317.202 500.008C317.263 499.862 317.352 499.73 317.465 499.618C317.577 499.506 317.711 499.418 317.858 499.358C318.004 499.299 318.162 499.269 318.32 499.27H339.32C339.479 499.267 339.637 499.296 339.785 499.356C339.933 499.415 340.068 499.503 340.181 499.614C340.295 499.726 340.385 499.859 340.447 500.006C340.508 500.153 340.54 500.311 340.54 500.47V523.93ZM340.54 470.05C340.54 470.209 340.508 470.367 340.447 470.514C340.385 470.661 340.295 470.794 340.181 470.906C340.068 471.017 339.933 471.105 339.785 471.164C339.637 471.224 339.479 471.253 339.32 471.25H318.32C318.161 471.253 318.003 471.224 317.856 471.164C317.709 471.105 317.575 471.017 317.462 470.905C317.349 470.793 317.26 470.66 317.2 470.513C317.139 470.366 317.109 470.209 317.11 470.05V446.59C317.109 446.431 317.139 446.274 317.2 446.127C317.26 445.98 317.349 445.847 317.462 445.735C317.575 445.623 317.709 445.535 317.856 445.476C318.003 445.416 318.161 445.387 318.32 445.39H339.32C339.479 445.387 339.637 445.416 339.785 445.476C339.933 445.535 340.068 445.623 340.181 445.734C340.295 445.846 340.385 445.979 340.447 446.126C340.508 446.273 340.54 446.431 340.54 446.59V470.05ZM340.54 416.18C340.539 416.339 340.506 416.496 340.444 416.642C340.382 416.789 340.292 416.921 340.179 417.033C340.065 417.144 339.931 417.232 339.784 417.292C339.636 417.351 339.479 417.381 339.32 417.38H318.32C318.001 417.38 317.695 417.254 317.468 417.029C317.241 416.804 317.113 416.499 317.11 416.18V392.71C317.11 392.389 317.237 392.081 317.464 391.854C317.691 391.627 317.999 391.5 318.32 391.5H339.32C339.48 391.499 339.638 391.529 339.786 391.589C339.934 391.649 340.069 391.738 340.182 391.851C340.295 391.963 340.386 392.097 340.447 392.245C340.508 392.392 340.54 392.55 340.54 392.71V416.18ZM340.54 362.29C340.54 362.45 340.508 362.608 340.447 362.755C340.386 362.903 340.295 363.037 340.182 363.149C340.069 363.262 339.934 363.351 339.786 363.411C339.638 363.471 339.48 363.501 339.32 363.5H318.32C317.999 363.5 317.691 363.373 317.464 363.146C317.237 362.919 317.11 362.611 317.11 362.29V338.82C317.111 338.662 317.144 338.507 317.205 338.362C317.267 338.216 317.356 338.085 317.469 337.974C317.581 337.864 317.714 337.777 317.86 337.717C318.006 337.658 318.162 337.629 318.32 337.63H339.32C339.478 337.627 339.636 337.656 339.783 337.715C339.93 337.773 340.065 337.86 340.178 337.971C340.291 338.081 340.382 338.213 340.444 338.359C340.506 338.505 340.539 338.662 340.54 338.82V362.29ZM340.54 308.42C340.539 308.579 340.506 308.736 340.444 308.882C340.382 309.029 340.292 309.161 340.179 309.273C340.065 309.384 339.931 309.472 339.784 309.532C339.636 309.591 339.479 309.621 339.32 309.62H318.32C318.001 309.62 317.695 309.494 317.468 309.269C317.241 309.044 317.113 308.739 317.11 308.42V284.95C317.11 284.792 317.141 284.635 317.202 284.488C317.263 284.342 317.352 284.209 317.465 284.098C317.577 283.986 317.711 283.898 317.858 283.838C318.004 283.779 318.162 283.749 318.32 283.75H339.32C339.479 283.747 339.637 283.776 339.785 283.836C339.933 283.895 340.068 283.983 340.181 284.094C340.295 284.206 340.385 284.339 340.447 284.486C340.508 284.633 340.54 284.791 340.54 284.95V308.42ZM574.53 451.67C574.531 451.919 574.483 452.165 574.389 452.395C574.294 452.625 574.155 452.834 573.979 453.009C573.804 453.185 573.595 453.324 573.365 453.419C573.135 453.513 572.889 453.561 572.64 453.56H478.07C477.569 453.56 477.088 453.361 476.734 453.006C476.379 452.652 476.18 452.171 476.18 451.67V432.76C476.18 432.259 476.379 431.778 476.734 431.424C477.088 431.069 477.569 430.87 478.07 430.87H572.64C573.141 430.87 573.622 431.069 573.976 431.424C574.331 431.778 574.53 432.259 574.53 432.76V451.67ZM465 300.34C464.905 299.972 464.721 299.633 464.466 299.351C464.211 299.069 463.891 298.854 463.534 298.723C463.177 298.593 462.793 298.55 462.417 298.6C462.04 298.65 461.681 298.791 461.37 299.01L461.2 299.13L460.43 300.13L370.05 414.74L369.63 415.3C369.149 415.774 368.87 416.415 368.85 417.09V557.95C368.85 558.245 368.908 558.537 369.021 558.81C369.135 559.082 369.301 559.329 369.51 559.538C369.719 559.746 369.967 559.91 370.24 560.022C370.513 560.134 370.805 560.191 371.1 560.19H463C463.295 560.191 463.587 560.134 463.86 560.022C464.133 559.91 464.381 559.746 464.59 559.538C464.799 559.329 464.965 559.082 465.079 558.81C465.192 558.537 465.25 558.245 465.25 557.95V301.28C465.237 300.952 465.151 300.631 465 300.34ZM426.95 362.59L427.6 361.78C433.78 353.84 444.2 341.02 449.28 334.78L449.95 333.98C450.261 333.601 450.673 333.317 451.139 333.164C451.605 333.011 452.105 332.993 452.581 333.114C453.056 333.235 453.487 333.489 453.824 333.846C454.16 334.203 454.388 334.648 454.48 335.13V364.13C454.475 364.8 454.213 365.443 453.748 365.925C453.283 366.407 452.65 366.692 451.98 366.72H428.93C428.457 366.703 427.998 366.557 427.602 366.299C427.206 366.04 426.888 365.679 426.682 365.253C426.477 364.827 426.391 364.353 426.435 363.882C426.478 363.411 426.65 362.961 426.93 362.58L426.95 362.59ZM412.65 523.13C412.651 523.425 412.594 523.717 412.482 523.99C412.37 524.263 412.206 524.511 411.997 524.72C411.789 524.93 411.542 525.095 411.27 525.209C410.997 525.322 410.705 525.38 410.41 525.38H383C382.403 525.38 381.831 525.143 381.409 524.721C380.987 524.299 380.75 523.727 380.75 523.13V505.98C380.75 505.685 380.808 505.393 380.921 505.121C381.035 504.848 381.201 504.601 381.41 504.393C381.619 504.184 381.867 504.02 382.14 503.908C382.413 503.796 382.705 503.739 383 503.74H410.4C410.994 503.74 411.564 503.976 411.984 504.396C412.404 504.816 412.64 505.386 412.64 505.98L412.65 523.13ZM412.65 491.44C412.651 491.735 412.594 492.027 412.482 492.3C412.37 492.573 412.206 492.821 411.997 493.03C411.789 493.239 411.542 493.405 411.27 493.519C410.997 493.632 410.705 493.69 410.41 493.69H383C382.403 493.69 381.831 493.453 381.409 493.031C380.987 492.609 380.75 492.037 380.75 491.44V474.29C380.75 473.995 380.808 473.703 380.921 473.43C381.035 473.158 381.201 472.911 381.41 472.703C381.619 472.494 381.867 472.33 382.14 472.218C382.413 472.106 382.705 472.049 383 472.05H410.4C410.695 472.049 410.988 472.106 411.261 472.219C411.534 472.331 411.782 472.497 411.99 472.707C412.199 472.916 412.364 473.165 412.475 473.438C412.587 473.712 412.643 474.005 412.64 474.3L412.65 491.44ZM412.65 459.75C412.65 460.344 412.414 460.914 411.994 461.334C411.574 461.754 411.004 461.99 410.41 461.99H383C382.405 461.99 381.834 461.754 381.413 461.335C380.991 460.915 380.753 460.345 380.75 459.75V442.59C380.75 441.993 380.987 441.421 381.409 440.999C381.831 440.577 382.403 440.34 383 440.34H410.4C410.695 440.34 410.987 440.398 411.26 440.511C411.532 440.625 411.779 440.791 411.987 441C412.196 441.209 412.36 441.457 412.472 441.73C412.584 442.003 412.641 442.295 412.64 442.59L412.65 459.75ZM412.73 390.29V428.05C412.727 428.646 412.489 429.217 412.068 429.638C411.647 430.059 411.076 430.297 410.48 430.3H383.08C382.783 430.301 382.489 430.244 382.214 430.132C381.94 430.019 381.69 429.854 381.479 429.645C381.268 429.436 381.101 429.188 380.986 428.914C380.871 428.64 380.811 428.347 380.81 428.05V423.29C380.819 423.001 380.88 422.717 380.99 422.45C381.025 422.359 381.069 422.272 381.12 422.19C381.181 422.09 381.248 421.993 381.32 421.9C381.39 421.79 381.49 421.65 381.58 421.53C385.08 416.53 400.89 397.04 407.53 388.9L408.19 388.1C408.429 387.797 408.733 387.55 409.078 387.377C409.424 387.204 409.804 387.109 410.19 387.1C410.788 387.106 411.365 387.32 411.823 387.705C412.281 388.09 412.591 388.622 412.7 389.21L412.73 390.29ZM454.54 523.13C454.541 523.425 454.484 523.717 454.372 523.99C454.26 524.263 454.096 524.511 453.887 524.72C453.679 524.93 453.432 525.095 453.16 525.209C452.887 525.322 452.595 525.38 452.3 525.38H424.9C424.604 525.381 424.31 525.324 424.036 525.212C423.762 525.099 423.513 524.934 423.303 524.725C423.093 524.516 422.926 524.267 422.812 523.993C422.699 523.72 422.64 523.426 422.64 523.13V505.98C422.641 505.685 422.701 505.392 422.815 505.12C422.929 504.847 423.096 504.6 423.306 504.392C423.516 504.184 423.765 504.019 424.038 503.907C424.312 503.796 424.605 503.739 424.9 503.74H452.3C452.894 503.74 453.464 503.976 453.884 504.396C454.304 504.816 454.54 505.386 454.54 505.98V523.13ZM454.54 491.44C454.541 491.735 454.484 492.027 454.372 492.3C454.26 492.573 454.096 492.821 453.887 493.03C453.679 493.239 453.432 493.405 453.16 493.519C452.887 493.632 452.595 493.69 452.3 493.69H424.9C424.604 493.691 424.31 493.634 424.036 493.522C423.762 493.409 423.513 493.244 423.303 493.035C423.093 492.826 422.926 492.577 422.812 492.303C422.699 492.03 422.64 491.736 422.64 491.44V474.29C422.639 473.993 422.696 473.699 422.81 473.425C422.923 473.151 423.089 472.902 423.3 472.692C423.51 472.483 423.76 472.318 424.034 472.206C424.309 472.094 424.603 472.037 424.9 472.04H452.3C452.595 472.04 452.887 472.098 453.16 472.211C453.432 472.325 453.679 472.491 453.887 472.7C454.096 472.909 454.26 473.157 454.372 473.43C454.484 473.703 454.541 473.995 454.54 474.29V491.44ZM454.54 459.75C454.537 460.343 454.301 460.911 453.881 461.331C453.461 461.751 452.893 461.987 452.3 461.99H424.9C424.605 461.991 424.312 461.934 424.038 461.823C423.765 461.711 423.516 461.546 423.306 461.338C423.096 461.13 422.929 460.883 422.815 460.61C422.701 460.338 422.641 460.045 422.64 459.75V442.59C422.64 442.294 422.699 442 422.812 441.727C422.926 441.453 423.093 441.204 423.303 440.995C423.513 440.786 423.762 440.621 424.036 440.508C424.31 440.396 424.604 440.339 424.9 440.34H452.3C452.595 440.34 452.887 440.398 453.16 440.511C453.432 440.625 453.679 440.791 453.887 441C454.096 441.209 454.26 441.457 454.372 441.73C454.484 442.003 454.541 442.295 454.54 442.59V459.75ZM454.54 428.05C454.54 428.644 454.304 429.214 453.884 429.634C453.464 430.054 452.894 430.29 452.3 430.29H424.9C424.605 430.291 424.312 430.234 424.038 430.123C423.765 430.011 423.516 429.846 423.306 429.638C423.096 429.43 422.929 429.183 422.815 428.91C422.701 428.638 422.641 428.345 422.64 428.05V410.89C422.641 410.594 422.701 410.302 422.815 410.03C422.929 409.757 423.096 409.51 423.306 409.302C423.516 409.094 423.765 408.929 424.038 408.817C424.312 408.706 424.605 408.649 424.9 408.65H452.3C452.894 408.65 453.464 408.886 453.884 409.306C454.304 409.726 454.54 410.296 454.54 410.89V428.05ZM454.54 396.35C454.54 396.944 454.304 397.514 453.884 397.934C453.464 398.354 452.894 398.59 452.3 398.59H424.9C424.605 398.591 424.312 398.534 424.038 398.423C423.765 398.311 423.516 398.146 423.306 397.938C423.096 397.73 422.929 397.483 422.815 397.21C422.701 396.938 422.641 396.645 422.64 396.35V379.19C422.64 378.894 422.699 378.6 422.812 378.327C422.926 378.053 423.093 377.805 423.303 377.595C423.513 377.386 423.762 377.221 424.036 377.108C424.31 376.996 424.604 376.939 424.9 376.94H452.3C452.595 376.94 452.887 376.998 453.16 377.111C453.432 377.225 453.679 377.391 453.887 377.6C454.096 377.809 454.26 378.057 454.372 378.33C454.484 378.603 454.541 378.895 454.54 379.19V396.35Z" fill="white"/>
</g>
<defs>
<clipPath id="clip0_17151_16">
<rect width="722.16" height="802.16" fill="white"/>
</clipPath>
</defs>
</svg>
