<svg width="2271" height="131" viewBox="0 0 2271 131" fill="none" xmlns="http://www.w3.org/2000/svg">
<path d="M6.08 80V24H15.28V80H6.08ZM12.4 80V71.6H43.76V80H12.4ZM12.4 55.44V47.36H41.04V55.44H12.4ZM12.4 32.4V24H43.36V32.4H12.4ZM65.0275 80L47.5075 41.6H57.2675L70.6275 72.88H64.8675L78.3075 41.6H87.6675L70.1475 80H65.0275ZM109.121 80.8C105.387 80.8 102.001 79.92 98.9606 78.16C95.9206 76.3467 93.494 73.92 91.6806 70.88C89.9206 67.84 89.0406 64.4533 89.0406 60.72C89.0406 56.9867 89.9206 53.6267 91.6806 50.64C93.494 47.6533 95.9206 45.28 98.9606 43.52C102.001 41.7067 105.387 40.8 109.121 40.8C112.907 40.8 116.321 41.68 119.361 43.44C122.401 45.2 124.801 47.6 126.561 50.64C128.374 53.6267 129.281 56.9867 129.281 60.72C129.281 64.4533 128.374 67.84 126.561 70.88C124.801 73.92 122.401 76.3467 119.361 78.16C116.321 79.92 112.907 80.8 109.121 80.8ZM109.121 72.32C111.307 72.32 113.227 71.84 114.881 70.88C116.587 69.8667 117.894 68.48 118.801 66.72C119.761 64.96 120.241 62.96 120.241 60.72C120.241 58.48 119.761 56.5067 118.801 54.8C117.841 53.0933 116.534 51.76 114.881 50.8C113.227 49.7867 111.307 49.28 109.121 49.28C106.987 49.28 105.067 49.7867 103.361 50.8C101.707 51.76 100.401 53.0933 99.4406 54.8C98.534 56.5067 98.0806 58.48 98.0806 60.72C98.0806 62.96 98.534 64.96 99.4406 66.72C100.401 68.48 101.707 69.8667 103.361 70.88C105.067 71.84 106.987 72.32 109.121 72.32ZM136.599 80V22.4H145.399V80H136.599ZM170.953 80.8C167.699 80.8 164.793 80.08 162.233 78.64C159.726 77.2 157.753 75.2267 156.313 72.72C154.926 70.16 154.233 67.2267 154.233 63.92V41.6H163.033V63.52C163.033 65.3867 163.326 66.9867 163.913 68.32C164.553 69.6 165.459 70.5867 166.633 71.28C167.859 71.9733 169.299 72.32 170.953 72.32C173.513 72.32 175.459 71.5733 176.793 70.08C178.179 68.5333 178.873 66.3467 178.873 63.52V41.6H187.673V63.92C187.673 67.28 186.953 70.24 185.513 72.8C184.126 75.3067 182.179 77.28 179.673 78.72C177.166 80.1067 174.259 80.8 170.953 80.8ZM214.201 80.8C210.414 80.8 206.974 79.92 203.881 78.16C200.841 76.4 198.441 74 196.681 70.96C194.921 67.92 194.041 64.5333 194.041 60.8C194.041 57.0133 194.921 53.6267 196.681 50.64C198.441 47.6 200.841 45.2 203.881 43.44C206.974 41.68 210.414 40.8 214.201 40.8C217.187 40.8 219.961 41.3867 222.521 42.56C225.134 43.68 227.347 45.3067 229.161 47.44L223.401 53.28C222.281 51.9467 220.921 50.96 219.321 50.32C217.774 49.6267 216.067 49.28 214.201 49.28C212.014 49.28 210.067 49.7867 208.361 50.8C206.707 51.76 205.401 53.0933 204.441 54.8C203.534 56.5067 203.081 58.5067 203.081 60.8C203.081 63.04 203.534 65.04 204.441 66.8C205.401 68.5067 206.707 69.8667 208.361 70.88C210.067 71.84 212.014 72.32 214.201 72.32C216.067 72.32 217.774 72 219.321 71.36C220.921 70.6667 222.281 69.6533 223.401 68.32L229.161 74.16C227.347 76.2933 225.134 77.9467 222.521 79.12C219.961 80.24 217.187 80.8 214.201 80.8ZM211.721 96.8C209.747 96.8 208.014 96.56 206.521 96.08C205.027 95.6 203.587 94.9067 202.201 94L205.801 89.44C206.387 89.9733 207.107 90.4 207.961 90.72C208.814 91.0933 209.854 91.28 211.081 91.28C212.467 91.28 213.454 91.0933 214.041 90.72C214.681 90.3467 215.001 89.8933 215.001 89.36C215.001 88.7733 214.707 88.24 214.121 87.76C213.587 87.3333 212.707 87.12 211.481 87.12H207.321L209.961 78.88H216.361L214.441 84.64L211.241 82.24C214.547 82.1333 217.214 82.7733 219.241 84.16C221.267 85.6 222.281 87.3867 222.281 89.52C222.281 91.6 221.294 93.3333 219.321 94.72C217.401 96.1067 214.867 96.8 211.721 96.8ZM250.804 80.8C247.337 80.8 244.19 79.92 241.364 78.16C238.59 76.4 236.377 74.0267 234.724 71.04C233.124 68 232.324 64.6133 232.324 60.88C232.324 57.0933 233.124 53.7067 234.724 50.72C236.377 47.68 238.59 45.28 241.364 43.52C244.19 41.7067 247.337 40.8 250.804 40.8C253.737 40.8 256.324 41.44 258.564 42.72C260.857 43.9467 262.67 45.6533 264.004 47.84C265.337 50.0267 266.004 52.5067 266.004 55.28V66.32C266.004 69.0933 265.337 71.5733 264.004 73.76C262.724 75.9467 260.937 77.68 258.644 78.96C256.35 80.1867 253.737 80.8 250.804 80.8ZM252.244 72.48C255.497 72.48 258.11 71.3867 260.084 69.2C262.11 67.0133 263.124 64.2133 263.124 60.8C263.124 58.5067 262.67 56.48 261.764 54.72C260.857 52.96 259.577 51.6 257.924 50.64C256.324 49.6267 254.43 49.12 252.244 49.12C250.11 49.12 248.217 49.6267 246.564 50.64C244.964 51.6 243.684 52.96 242.724 54.72C241.817 56.48 241.364 58.5067 241.364 60.8C241.364 63.0933 241.817 65.12 242.724 66.88C243.684 68.64 244.964 70.0267 246.564 71.04C248.217 72 250.11 72.48 252.244 72.48ZM262.564 80V69.68L264.084 60.32L262.564 51.04V41.6H271.364V80H262.564ZM258.804 36.08C257.044 36.08 255.55 35.76 254.324 35.12C253.097 34.48 251.95 33.8667 250.884 33.28C249.87 32.64 248.724 32.32 247.444 32.32C246.11 32.32 245.044 32.56 244.244 33.04C243.444 33.52 242.67 34.24 241.924 35.2L237.204 30.48C238.75 28.72 240.297 27.3333 241.844 26.32C243.39 25.2533 245.204 24.72 247.284 24.72C249.044 24.72 250.537 25.04 251.764 25.68C252.99 26.2667 254.137 26.88 255.204 27.52C256.27 28.16 257.417 28.48 258.644 28.48C260.03 28.48 261.124 28.24 261.924 27.76C262.724 27.28 263.47 26.56 264.164 25.6L268.884 30.32C267.337 32.08 265.79 33.4933 264.244 34.56C262.697 35.5733 260.884 36.08 258.804 36.08ZM298.73 80.8C294.997 80.8 291.61 79.92 288.57 78.16C285.53 76.3467 283.103 73.92 281.29 70.88C279.53 67.84 278.65 64.4533 278.65 60.72C278.65 56.9867 279.53 53.6267 281.29 50.64C283.103 47.6533 285.53 45.28 288.57 43.52C291.61 41.7067 294.997 40.8 298.73 40.8C302.517 40.8 305.93 41.68 308.97 43.44C312.01 45.2 314.41 47.6 316.17 50.64C317.983 53.6267 318.89 56.9867 318.89 60.72C318.89 64.4533 317.983 67.84 316.17 70.88C314.41 73.92 312.01 76.3467 308.97 78.16C305.93 79.92 302.517 80.8 298.73 80.8ZM298.73 72.32C300.917 72.32 302.837 71.84 304.49 70.88C306.197 69.8667 307.503 68.48 308.41 66.72C309.37 64.96 309.85 62.96 309.85 60.72C309.85 58.48 309.37 56.5067 308.41 54.8C307.45 53.0933 306.143 51.76 304.49 50.8C302.837 49.7867 300.917 49.28 298.73 49.28C296.597 49.28 294.677 49.7867 292.97 50.8C291.317 51.76 290.01 53.0933 289.05 54.8C288.143 56.5067 287.69 58.48 287.69 60.72C287.69 62.96 288.143 64.96 289.05 66.72C290.01 68.48 291.317 69.8667 292.97 70.88C294.677 71.84 296.597 72.32 298.73 72.32ZM358.304 80.8C354.837 80.8 351.69 79.92 348.864 78.16C346.09 76.4 343.877 74.0267 342.224 71.04C340.624 68 339.824 64.6133 339.824 60.88C339.824 57.0933 340.624 53.7067 342.224 50.72C343.877 47.68 346.09 45.28 348.864 43.52C351.69 41.7067 354.837 40.8 358.304 40.8C361.237 40.8 363.824 41.44 366.064 42.72C368.357 43.9467 370.17 45.6533 371.504 47.84C372.837 50.0267 373.504 52.5067 373.504 55.28V66.32C373.504 69.0933 372.837 71.5733 371.504 73.76C370.224 75.9467 368.437 77.68 366.144 78.96C363.85 80.1867 361.237 80.8 358.304 80.8ZM359.744 72.48C361.93 72.48 363.824 72 365.424 71.04C367.077 70.0267 368.357 68.64 369.264 66.88C370.17 65.12 370.624 63.0933 370.624 60.8C370.624 58.5067 370.17 56.48 369.264 54.72C368.357 52.96 367.077 51.6 365.424 50.64C363.824 49.6267 361.93 49.12 359.744 49.12C357.61 49.12 355.717 49.6267 354.064 50.64C352.464 51.6 351.184 52.96 350.224 54.72C349.317 56.48 348.864 58.5067 348.864 60.8C348.864 63.0933 349.317 65.12 350.224 66.88C351.184 68.64 352.464 70.0267 354.064 71.04C355.717 72 357.61 72.48 359.744 72.48ZM378.864 80H370.064V69.68L371.584 60.32L370.064 51.04V22.4H378.864V80ZM404.71 80.8C401.243 80.8 398.097 79.92 395.27 78.16C392.497 76.4 390.283 74.0267 388.63 71.04C387.03 68 386.23 64.6133 386.23 60.88C386.23 57.0933 387.03 53.7067 388.63 50.72C390.283 47.68 392.497 45.28 395.27 43.52C398.097 41.7067 401.243 40.8 404.71 40.8C407.643 40.8 410.23 41.44 412.47 42.72C414.763 43.9467 416.577 45.6533 417.91 47.84C419.243 50.0267 419.91 52.5067 419.91 55.28V66.32C419.91 69.0933 419.243 71.5733 417.91 73.76C416.63 75.9467 414.843 77.68 412.55 78.96C410.257 80.1867 407.643 80.8 404.71 80.8ZM406.15 72.48C409.403 72.48 412.017 71.3867 413.99 69.2C416.017 67.0133 417.03 64.2133 417.03 60.8C417.03 58.5067 416.577 56.48 415.67 54.72C414.763 52.96 413.483 51.6 411.83 50.64C410.23 49.6267 408.337 49.12 406.15 49.12C404.017 49.12 402.123 49.6267 400.47 50.64C398.87 51.6 397.59 52.96 396.63 54.72C395.723 56.48 395.27 58.5067 395.27 60.8C395.27 63.0933 395.723 65.12 396.63 66.88C397.59 68.64 398.87 70.0267 400.47 71.04C402.123 72 404.017 72.48 406.15 72.48ZM416.47 80V69.68L417.99 60.32L416.47 51.04V41.6H425.27V80H416.47ZM445.826 80L468.866 24H475.266L498.146 80H488.226L470.306 34.64H473.666L455.586 80H445.826ZM457.186 69.2V61.2H486.866V69.2H457.186ZM467.426 18.48L463.426 14.48L473.666 1.44L480.466 8.24L467.426 18.48ZM504.958 80V41.6H513.758V80H504.958ZM513.758 58.64L510.718 57.12C510.718 52.2667 511.785 48.3467 513.918 45.36C516.105 42.32 519.385 40.8 523.758 40.8C525.678 40.8 527.411 41.1467 528.958 41.84C530.505 42.5333 531.945 43.6533 533.278 45.2L527.518 51.12C526.825 50.3733 526.051 49.84 525.198 49.52C524.345 49.2 523.358 49.04 522.238 49.04C519.785 49.04 517.758 49.8133 516.158 51.36C514.558 52.9067 513.758 55.3333 513.758 58.64ZM554.204 80.8C550.364 80.8 546.898 79.9467 543.804 78.24C540.764 76.48 538.338 74.08 536.524 71.04C534.764 68 533.884 64.5867 533.884 60.8C533.884 57.0133 534.764 53.6267 536.524 50.64C538.284 47.6 540.658 45.2 543.644 43.44C546.684 41.68 550.044 40.8 553.724 40.8C557.298 40.8 560.444 41.6267 563.164 43.28C565.938 44.9333 568.098 47.2 569.644 50.08C571.244 52.96 572.044 56.24 572.044 59.92C572.044 60.56 571.991 61.2267 571.884 61.92C571.831 62.56 571.724 63.28 571.564 64.08H540.044V56.88H567.004L563.724 59.76C563.618 57.4133 563.164 55.44 562.364 53.84C561.564 52.24 560.418 51.0133 558.924 50.16C557.484 49.3067 555.698 48.88 553.564 48.88C551.324 48.88 549.378 49.36 547.724 50.32C546.071 51.28 544.791 52.64 543.884 54.4C542.978 56.1067 542.524 58.16 542.524 60.56C542.524 62.96 543.004 65.0667 543.964 66.88C544.924 68.6933 546.284 70.1067 548.044 71.12C549.804 72.08 551.831 72.56 554.124 72.56C556.098 72.56 557.911 72.2133 559.564 71.52C561.271 70.8267 562.711 69.8133 563.884 68.48L569.484 74.16C567.618 76.3467 565.351 78 562.684 79.12C560.018 80.24 557.191 80.8 554.204 80.8ZM595.179 80.8C591.712 80.8 588.565 79.92 585.739 78.16C582.965 76.4 580.752 74.0267 579.099 71.04C577.499 68 576.699 64.6133 576.699 60.88C576.699 57.0933 577.499 53.7067 579.099 50.72C580.752 47.68 582.965 45.28 585.739 43.52C588.565 41.7067 591.712 40.8 595.179 40.8C598.112 40.8 600.699 41.44 602.939 42.72C605.232 43.9467 607.045 45.6533 608.379 47.84C609.712 50.0267 610.379 52.5067 610.379 55.28V66.32C610.379 69.0933 609.712 71.5733 608.379 73.76C607.099 75.9467 605.312 77.68 603.019 78.96C600.725 80.1867 598.112 80.8 595.179 80.8ZM596.619 72.48C599.872 72.48 602.485 71.3867 604.459 69.2C606.485 67.0133 607.499 64.2133 607.499 60.8C607.499 58.5067 607.045 56.48 606.139 54.72C605.232 52.96 603.952 51.6 602.299 50.64C600.699 49.6267 598.805 49.12 596.619 49.12C594.485 49.12 592.592 49.6267 590.939 50.64C589.339 51.6 588.059 52.96 587.099 54.72C586.192 56.48 585.739 58.5067 585.739 60.8C585.739 63.0933 586.192 65.12 587.099 66.88C588.059 68.64 589.339 70.0267 590.939 71.04C592.592 72 594.485 72.48 596.619 72.48ZM606.939 80V69.68L608.459 60.32L606.939 51.04V41.6H615.739V80H606.939ZM653.601 89.52C650.774 87.0133 648.321 83.9467 646.241 80.32C644.214 76.6933 642.641 72.72 641.521 68.4C640.401 64.08 639.841 59.6 639.841 54.96C639.841 50.32 640.401 45.84 641.521 41.52C642.641 37.2 644.214 33.2267 646.241 29.6C648.321 25.9733 650.774 22.9067 653.601 20.4L658.641 24.88C655.121 28.1333 652.374 32.3467 650.401 37.52C648.481 42.64 647.521 48.4533 647.521 54.96C647.521 61.4133 648.481 67.2267 650.401 72.4C652.374 77.5733 655.121 81.7867 658.641 85.04L653.601 89.52ZM700.467 80L674.547 50.8L699.907 24H711.667L683.667 53.12V48.08L712.467 80H700.467ZM666.627 80V24H675.827V80H666.627ZM719.177 80V41.6H727.977V80H719.177ZM744.697 80V57.12C744.697 54.56 743.897 52.5867 742.297 51.2C740.697 49.76 738.724 49.04 736.377 49.04C734.777 49.04 733.337 49.36 732.057 50C730.83 50.64 729.844 51.5733 729.097 52.8C728.35 53.9733 727.977 55.4133 727.977 57.12L724.537 55.2C724.537 52.2667 725.177 49.7333 726.457 47.6C727.737 45.4667 729.47 43.8133 731.657 42.64C733.844 41.4133 736.297 40.8 739.017 40.8C741.737 40.8 744.19 41.3867 746.377 42.56C748.564 43.7333 750.297 45.3867 751.577 47.52C752.857 49.6533 753.497 52.2133 753.497 55.2V80H744.697ZM770.217 80V57.12C770.217 54.56 769.417 52.5867 767.817 51.2C766.217 49.76 764.244 49.04 761.897 49.04C760.35 49.04 758.937 49.36 757.657 50C756.377 50.64 755.364 51.5733 754.617 52.8C753.87 53.9733 753.497 55.4133 753.497 57.12L748.537 55.2C748.804 52.2667 749.657 49.7333 751.097 47.6C752.537 45.4667 754.377 43.8133 756.617 42.64C758.91 41.4133 761.417 40.8 764.137 40.8C766.91 40.8 769.417 41.3867 771.657 42.56C773.897 43.7333 775.684 45.3867 777.017 47.52C778.35 49.6533 779.017 52.2133 779.017 55.2V80H770.217ZM785.763 48.16L797.123 36.8C797.87 36.0533 798.35 35.4133 798.563 34.88C798.83 34.3467 798.963 33.8133 798.963 33.28C798.963 32.3733 798.67 31.6533 798.083 31.12C797.496 30.5333 796.696 30.24 795.683 30.24C794.776 30.24 793.923 30.5333 793.123 31.12C792.376 31.6533 791.55 32.56 790.643 33.84L785.443 29.2C786.67 27.2267 788.216 25.7867 790.083 24.88C792.003 23.9733 794.083 23.52 796.323 23.52C799.576 23.52 802.136 24.3733 804.003 26.08C805.87 27.7333 806.803 30.0267 806.803 32.96C806.803 34.6133 806.456 36.1333 805.763 37.52C805.123 38.8533 804.03 40.24 802.483 41.68L795.283 48.48L785.763 48.16ZM785.763 52.48V48.16L792.403 45.92H807.363V52.48H785.763ZM817.351 89.52L812.311 85.04C815.831 81.7867 818.551 77.5733 820.471 72.4C822.444 67.2267 823.431 61.4133 823.431 54.96C823.431 48.4533 822.444 42.64 820.471 37.52C818.551 32.3467 815.831 28.1333 812.311 24.88L817.351 20.4C820.177 22.9067 822.604 25.9733 824.631 29.6C826.711 33.2267 828.311 37.2 829.431 41.52C830.551 45.84 831.111 50.32 831.111 54.96C831.111 59.6 830.551 64.08 829.431 68.4C828.311 72.72 826.711 76.6933 824.631 80.32C822.604 83.9467 820.177 87.0133 817.351 89.52ZM871.273 80.8C867.806 80.8 864.659 79.92 861.833 78.16C859.059 76.4 856.846 74.0267 855.193 71.04C853.593 68 852.793 64.6133 852.793 60.88C852.793 57.0933 853.593 53.7067 855.193 50.72C856.846 47.68 859.059 45.28 861.833 43.52C864.659 41.7067 867.806 40.8 871.273 40.8C874.206 40.8 876.793 41.44 879.033 42.72C881.326 43.9467 883.139 45.6533 884.473 47.84C885.806 50.0267 886.473 52.5067 886.473 55.28V66.32C886.473 69.0933 885.806 71.5733 884.473 73.76C883.193 75.9467 881.406 77.68 879.113 78.96C876.819 80.1867 874.206 80.8 871.273 80.8ZM872.713 72.48C874.899 72.48 876.793 72 878.393 71.04C880.046 70.0267 881.326 68.64 882.233 66.88C883.139 65.12 883.593 63.0933 883.593 60.8C883.593 58.5067 883.139 56.48 882.233 54.72C881.326 52.96 880.046 51.6 878.393 50.64C876.793 49.6267 874.899 49.12 872.713 49.12C870.579 49.12 868.686 49.6267 867.033 50.64C865.433 51.6 864.153 52.96 863.193 54.72C862.286 56.48 861.833 58.5067 861.833 60.8C861.833 63.0933 862.286 65.12 863.193 66.88C864.153 68.64 865.433 70.0267 867.033 71.04C868.686 72 870.579 72.48 872.713 72.48ZM891.833 80H883.033V69.68L884.553 60.32L883.033 51.04V22.4H891.833V80ZM919.439 80.8C915.599 80.8 912.132 79.9467 909.039 78.24C905.999 76.48 903.572 74.08 901.759 71.04C899.999 68 899.119 64.5867 899.119 60.8C899.119 57.0133 899.999 53.6267 901.759 50.64C903.519 47.6 905.892 45.2 908.879 43.44C911.919 41.68 915.279 40.8 918.959 40.8C922.532 40.8 925.679 41.6267 928.399 43.28C931.172 44.9333 933.332 47.2 934.879 50.08C936.479 52.96 937.279 56.24 937.279 59.92C937.279 60.56 937.225 61.2267 937.119 61.92C937.065 62.56 936.959 63.28 936.799 64.08H905.279V56.88H932.239L928.959 59.76C928.852 57.4133 928.399 55.44 927.599 53.84C926.799 52.24 925.652 51.0133 924.159 50.16C922.719 49.3067 920.932 48.88 918.799 48.88C916.559 48.88 914.612 49.36 912.959 50.32C911.305 51.28 910.025 52.64 909.119 54.4C908.212 56.1067 907.759 58.16 907.759 60.56C907.759 62.96 908.239 65.0667 909.199 66.88C910.159 68.6933 911.519 70.1067 913.279 71.12C915.039 72.08 917.065 72.56 919.359 72.56C921.332 72.56 923.145 72.2133 924.799 71.52C926.505 70.8267 927.945 69.8133 929.119 68.48L934.719 74.16C932.852 76.3467 930.585 78 927.919 79.12C925.252 80.24 922.425 80.8 919.439 80.8ZM976.429 80.8C972.962 80.8 969.815 79.92 966.989 78.16C964.215 76.4 962.002 74.0267 960.349 71.04C958.749 68 957.949 64.6133 957.949 60.88C957.949 57.0933 958.749 53.7067 960.349 50.72C962.002 47.68 964.215 45.28 966.989 43.52C969.815 41.7067 972.962 40.8 976.429 40.8C979.362 40.8 981.949 41.44 984.189 42.72C986.482 43.9467 988.295 45.6533 989.629 47.84C990.962 50.0267 991.629 52.5067 991.629 55.28V66.32C991.629 69.0933 990.962 71.5733 989.629 73.76C988.349 75.9467 986.562 77.68 984.269 78.96C981.975 80.1867 979.362 80.8 976.429 80.8ZM977.869 72.48C981.122 72.48 983.735 71.3867 985.709 69.2C987.735 67.0133 988.749 64.2133 988.749 60.8C988.749 58.5067 988.295 56.48 987.389 54.72C986.482 52.96 985.202 51.6 983.549 50.64C981.949 49.6267 980.055 49.12 977.869 49.12C975.735 49.12 973.842 49.6267 972.189 50.64C970.589 51.6 969.309 52.96 968.349 54.72C967.442 56.48 966.989 58.5067 966.989 60.8C966.989 63.0933 967.442 65.12 968.349 66.88C969.309 68.64 970.589 70.0267 972.189 71.04C973.842 72 975.735 72.48 977.869 72.48ZM988.189 80V69.68L989.709 60.32L988.189 51.04V41.6H996.989V80H988.189ZM974.109 36.08L970.109 32.08L980.349 19.04L987.149 25.84L974.109 36.08ZM1006.76 80V41.6H1015.56V80H1006.76ZM1015.56 58.64L1012.52 57.12C1012.52 52.2667 1013.58 48.3467 1015.72 45.36C1017.9 42.32 1021.18 40.8 1025.56 40.8C1027.48 40.8 1029.21 41.1467 1030.76 41.84C1032.3 42.5333 1033.74 43.6533 1035.08 45.2L1029.32 51.12C1028.62 50.3733 1027.85 49.84 1027 49.52C1026.14 49.2 1025.16 49.04 1024.04 49.04C1021.58 49.04 1019.56 49.8133 1017.96 51.36C1016.36 52.9067 1015.56 55.3333 1015.56 58.64ZM1056 80.8C1052.16 80.8 1048.69 79.9467 1045.6 78.24C1042.56 76.48 1040.13 74.08 1038.32 71.04C1036.56 68 1035.68 64.5867 1035.68 60.8C1035.68 57.0133 1036.56 53.6267 1038.32 50.64C1040.08 47.6 1042.45 45.2 1045.44 43.44C1048.48 41.68 1051.84 40.8 1055.52 40.8C1059.09 40.8 1062.24 41.6267 1064.96 43.28C1067.73 44.9333 1069.89 47.2 1071.44 50.08C1073.04 52.96 1073.84 56.24 1073.84 59.92C1073.84 60.56 1073.79 61.2267 1073.68 61.92C1073.63 62.56 1073.52 63.28 1073.36 64.08H1041.84V56.88H1068.8L1065.52 59.76C1065.41 57.4133 1064.96 55.44 1064.16 53.84C1063.36 52.24 1062.21 51.0133 1060.72 50.16C1059.28 49.3067 1057.49 48.88 1055.36 48.88C1053.12 48.88 1051.17 49.36 1049.52 50.32C1047.87 51.28 1046.59 52.64 1045.68 54.4C1044.77 56.1067 1044.32 58.16 1044.32 60.56C1044.32 62.96 1044.8 65.0667 1045.76 66.88C1046.72 68.6933 1048.08 70.1067 1049.84 71.12C1051.6 72.08 1053.63 72.56 1055.92 72.56C1057.89 72.56 1059.71 72.2133 1061.36 71.52C1063.07 70.8267 1064.51 69.8133 1065.68 68.48L1071.28 74.16C1069.41 76.3467 1067.15 78 1064.48 79.12C1061.81 80.24 1058.99 80.8 1056 80.8ZM1096.98 80.8C1093.51 80.8 1090.36 79.92 1087.54 78.16C1084.76 76.4 1082.55 74.0267 1080.9 71.04C1079.3 68 1078.5 64.6133 1078.5 60.88C1078.5 57.0933 1079.3 53.7067 1080.9 50.72C1082.55 47.68 1084.76 45.28 1087.54 43.52C1090.36 41.7067 1093.51 40.8 1096.98 40.8C1099.91 40.8 1102.5 41.44 1104.74 42.72C1107.03 43.9467 1108.84 45.6533 1110.18 47.84C1111.51 50.0267 1112.18 52.5067 1112.18 55.28V66.32C1112.18 69.0933 1111.51 71.5733 1110.18 73.76C1108.9 75.9467 1107.11 77.68 1104.82 78.96C1102.52 80.1867 1099.91 80.8 1096.98 80.8ZM1098.42 72.48C1101.67 72.48 1104.28 71.3867 1106.26 69.2C1108.28 67.0133 1109.3 64.2133 1109.3 60.8C1109.3 58.5067 1108.84 56.48 1107.94 54.72C1107.03 52.96 1105.75 51.6 1104.1 50.64C1102.5 49.6267 1100.6 49.12 1098.42 49.12C1096.28 49.12 1094.39 49.6267 1092.74 50.64C1091.14 51.6 1089.86 52.96 1088.9 54.72C1087.99 56.48 1087.54 58.5067 1087.54 60.8C1087.54 63.0933 1087.99 65.12 1088.9 66.88C1089.86 68.64 1091.14 70.0267 1092.74 71.04C1094.39 72 1096.28 72.48 1098.42 72.48ZM1108.74 80V69.68L1110.26 60.32L1108.74 51.04V41.6H1117.54V80H1108.74ZM1156.28 80L1138.76 41.6H1148.52L1161.88 72.88H1156.12L1169.56 41.6H1178.92L1161.4 80H1156.28ZM1200.61 80.8C1196.77 80.8 1193.3 79.9467 1190.21 78.24C1187.17 76.48 1184.74 74.08 1182.93 71.04C1181.17 68 1180.29 64.5867 1180.29 60.8C1180.29 57.0133 1181.17 53.6267 1182.93 50.64C1184.69 47.6 1187.06 45.2 1190.05 43.44C1193.09 41.68 1196.45 40.8 1200.13 40.8C1203.7 40.8 1206.85 41.6267 1209.57 43.28C1212.34 44.9333 1214.5 47.2 1216.05 50.08C1217.65 52.96 1218.45 56.24 1218.45 59.92C1218.45 60.56 1218.4 61.2267 1218.29 61.92C1218.24 62.56 1218.13 63.28 1217.97 64.08H1186.45V56.88H1213.41L1210.13 59.76C1210.02 57.4133 1209.57 55.44 1208.77 53.84C1207.97 52.24 1206.82 51.0133 1205.33 50.16C1203.89 49.3067 1202.1 48.88 1199.97 48.88C1197.73 48.88 1195.78 49.36 1194.13 50.32C1192.48 51.28 1191.2 52.64 1190.29 54.4C1189.38 56.1067 1188.93 58.16 1188.93 60.56C1188.93 62.96 1189.41 65.0667 1190.37 66.88C1191.33 68.6933 1192.69 70.1067 1194.45 71.12C1196.21 72.08 1198.24 72.56 1200.53 72.56C1202.5 72.56 1204.32 72.2133 1205.97 71.52C1207.68 70.8267 1209.12 69.8133 1210.29 68.48L1215.89 74.16C1214.02 76.3467 1211.76 78 1209.09 79.12C1206.42 80.24 1203.6 80.8 1200.61 80.8ZM1241.51 96.8C1237.45 96.8 1233.91 96.0533 1230.87 94.56C1227.83 93.12 1225.37 91.0667 1223.51 88.4L1229.27 82.64C1230.81 84.56 1232.57 86 1234.55 86.96C1236.52 87.92 1238.89 88.4 1241.67 88.4C1245.13 88.4 1247.88 87.4933 1249.91 85.68C1251.93 83.92 1252.95 81.4933 1252.95 78.4V68.96L1254.47 60.48L1252.95 51.92V41.6H1261.74V78.4C1261.74 82.08 1260.89 85.28 1259.19 88C1257.48 90.7733 1255.11 92.9333 1252.07 94.48C1249.03 96.0267 1245.51 96.8 1241.51 96.8ZM1241.11 79.2C1237.69 79.2 1234.6 78.3733 1231.83 76.72C1229.11 75.0133 1226.95 72.6933 1225.35 69.76C1223.8 66.8267 1223.03 63.5467 1223.03 59.92C1223.03 56.2933 1223.8 53.04 1225.35 50.16C1226.95 47.28 1229.11 45.0133 1231.83 43.36C1234.6 41.6533 1237.69 40.8 1241.11 40.8C1244.15 40.8 1246.81 41.4133 1249.11 42.64C1251.4 43.8667 1253.19 45.5733 1254.47 47.76C1255.75 49.8933 1256.39 52.4 1256.39 55.28V64.72C1256.39 67.5467 1255.72 70.0533 1254.39 72.24C1253.11 74.4267 1251.32 76.1333 1249.03 77.36C1246.73 78.5867 1244.09 79.2 1241.11 79.2ZM1242.87 70.88C1245 70.88 1246.87 70.4267 1248.47 69.52C1250.07 68.6133 1251.29 67.36 1252.15 65.76C1253.05 64.1067 1253.51 62.1867 1253.51 60C1253.51 57.8133 1253.05 55.92 1252.15 54.32C1251.29 52.6667 1250.07 51.3867 1248.47 50.48C1246.87 49.5733 1245 49.12 1242.87 49.12C1240.73 49.12 1238.84 49.5733 1237.19 50.48C1235.59 51.3867 1234.33 52.6667 1233.43 54.32C1232.52 55.92 1232.07 57.8133 1232.07 60C1232.07 62.1333 1232.52 64.0267 1233.43 65.68C1234.33 67.3333 1235.59 68.6133 1237.19 69.52C1238.84 70.4267 1240.73 70.88 1242.87 70.88ZM1289.36 80.8C1285.52 80.8 1282.05 79.9467 1278.96 78.24C1275.92 76.48 1273.49 74.08 1271.68 71.04C1269.92 68 1269.04 64.5867 1269.04 60.8C1269.04 57.0133 1269.92 53.6267 1271.68 50.64C1273.44 47.6 1275.81 45.2 1278.8 43.44C1281.84 41.68 1285.2 40.8 1288.88 40.8C1292.45 40.8 1295.6 41.6267 1298.32 43.28C1301.09 44.9333 1303.25 47.2 1304.8 50.08C1306.4 52.96 1307.2 56.24 1307.2 59.92C1307.2 60.56 1307.15 61.2267 1307.04 61.92C1306.99 62.56 1306.88 63.28 1306.72 64.08H1275.2V56.88H1302.16L1298.88 59.76C1298.77 57.4133 1298.32 55.44 1297.52 53.84C1296.72 52.24 1295.57 51.0133 1294.08 50.16C1292.64 49.3067 1290.85 48.88 1288.72 48.88C1286.48 48.88 1284.53 49.36 1282.88 50.32C1281.23 51.28 1279.95 52.64 1279.04 54.4C1278.13 56.1067 1277.68 58.16 1277.68 60.56C1277.68 62.96 1278.16 65.0667 1279.12 66.88C1280.08 68.6933 1281.44 70.1067 1283.2 71.12C1284.96 72.08 1286.99 72.56 1289.28 72.56C1291.25 72.56 1293.07 72.2133 1294.72 71.52C1296.43 70.8267 1297.87 69.8133 1299.04 68.48L1304.64 74.16C1302.77 76.3467 1300.51 78 1297.84 79.12C1295.17 80.24 1292.35 80.8 1289.36 80.8ZM1319.08 80V25.6H1327.88V80H1319.08ZM1309.88 49.6V41.6H1337.08V49.6H1309.88ZM1358.46 80.8C1354.99 80.8 1351.85 79.92 1349.02 78.16C1346.25 76.4 1344.03 74.0267 1342.38 71.04C1340.78 68 1339.98 64.6133 1339.98 60.88C1339.98 57.0933 1340.78 53.7067 1342.38 50.72C1344.03 47.68 1346.25 45.28 1349.02 43.52C1351.85 41.7067 1354.99 40.8 1358.46 40.8C1361.39 40.8 1363.98 41.44 1366.22 42.72C1368.51 43.9467 1370.33 45.6533 1371.66 47.84C1372.99 50.0267 1373.66 52.5067 1373.66 55.28V66.32C1373.66 69.0933 1372.99 71.5733 1371.66 73.76C1370.38 75.9467 1368.59 77.68 1366.3 78.96C1364.01 80.1867 1361.39 80.8 1358.46 80.8ZM1359.9 72.48C1363.15 72.48 1365.77 71.3867 1367.74 69.2C1369.77 67.0133 1370.78 64.2133 1370.78 60.8C1370.78 58.5067 1370.33 56.48 1369.42 54.72C1368.51 52.96 1367.23 51.6 1365.58 50.64C1363.98 49.6267 1362.09 49.12 1359.9 49.12C1357.77 49.12 1355.87 49.6267 1354.22 50.64C1352.62 51.6 1351.34 52.96 1350.38 54.72C1349.47 56.48 1349.02 58.5067 1349.02 60.8C1349.02 63.0933 1349.47 65.12 1350.38 66.88C1351.34 68.64 1352.62 70.0267 1354.22 71.04C1355.87 72 1357.77 72.48 1359.9 72.48ZM1370.22 80V69.68L1371.74 60.32L1370.22 51.04V41.6H1379.02V80H1370.22ZM1404.87 80.8C1401.4 80.8 1398.25 79.92 1395.43 78.16C1392.65 76.4 1390.44 74.0267 1388.79 71.04C1387.19 68 1386.39 64.6133 1386.39 60.88C1386.39 57.0933 1387.19 53.7067 1388.79 50.72C1390.44 47.68 1392.65 45.28 1395.43 43.52C1398.25 41.7067 1401.4 40.8 1404.87 40.8C1407.8 40.8 1410.39 41.44 1412.63 42.72C1414.92 43.9467 1416.73 45.6533 1418.07 47.84C1419.4 50.0267 1420.07 52.5067 1420.07 55.28V66.32C1420.07 69.0933 1419.4 71.5733 1418.07 73.76C1416.79 75.9467 1415 77.68 1412.71 78.96C1410.41 80.1867 1407.8 80.8 1404.87 80.8ZM1406.31 72.48C1408.49 72.48 1410.39 72 1411.99 71.04C1413.64 70.0267 1414.92 68.64 1415.83 66.88C1416.73 65.12 1417.19 63.0933 1417.19 60.8C1417.19 58.5067 1416.73 56.48 1415.83 54.72C1414.92 52.96 1413.64 51.6 1411.99 50.64C1410.39 49.6267 1408.49 49.12 1406.31 49.12C1404.17 49.12 1402.28 49.6267 1400.63 50.64C1399.03 51.6 1397.75 52.96 1396.79 54.72C1395.88 56.48 1395.43 58.5067 1395.43 60.8C1395.43 63.0933 1395.88 65.12 1396.79 66.88C1397.75 68.64 1399.03 70.0267 1400.63 71.04C1402.28 72 1404.17 72.48 1406.31 72.48ZM1425.43 80H1416.63V69.68L1418.15 60.32L1416.63 51.04V22.4H1425.43V80ZM1451.27 80.8C1447.81 80.8 1444.66 79.92 1441.83 78.16C1439.06 76.4 1436.85 74.0267 1435.19 71.04C1433.59 68 1432.79 64.6133 1432.79 60.88C1432.79 57.0933 1433.59 53.7067 1435.19 50.72C1436.85 47.68 1439.06 45.28 1441.83 43.52C1444.66 41.7067 1447.81 40.8 1451.27 40.8C1454.21 40.8 1456.79 41.44 1459.03 42.72C1461.33 43.9467 1463.14 45.6533 1464.47 47.84C1465.81 50.0267 1466.47 52.5067 1466.47 55.28V66.32C1466.47 69.0933 1465.81 71.5733 1464.47 73.76C1463.19 75.9467 1461.41 77.68 1459.11 78.96C1456.82 80.1867 1454.21 80.8 1451.27 80.8ZM1452.71 72.48C1455.97 72.48 1458.58 71.3867 1460.55 69.2C1462.58 67.0133 1463.59 64.2133 1463.59 60.8C1463.59 58.5067 1463.14 56.48 1462.23 54.72C1461.33 52.96 1460.05 51.6 1458.39 50.64C1456.79 49.6267 1454.9 49.12 1452.71 49.12C1450.58 49.12 1448.69 49.6267 1447.03 50.64C1445.43 51.6 1444.15 52.96 1443.19 54.72C1442.29 56.48 1441.83 58.5067 1441.83 60.8C1441.83 63.0933 1442.29 65.12 1443.19 66.88C1444.15 68.64 1445.43 70.0267 1447.03 71.04C1448.69 72 1450.58 72.48 1452.71 72.48ZM1463.03 80V69.68L1464.55 60.32L1463.03 51.04V41.6H1471.83V80H1463.03ZM1523.93 80V57.84C1523.93 55.28 1523.11 53.1733 1521.45 51.52C1519.85 49.8667 1517.77 49.04 1515.21 49.04C1513.51 49.04 1511.99 49.4133 1510.65 50.16C1509.32 50.9067 1508.28 51.9467 1507.53 53.28C1506.79 54.6133 1506.41 56.1333 1506.41 57.84L1502.97 55.92C1502.97 52.9867 1503.61 50.4 1504.89 48.16C1506.17 45.8667 1507.93 44.08 1510.17 42.8C1512.47 41.4667 1515.03 40.8 1517.85 40.8C1520.73 40.8 1523.29 41.5467 1525.53 43.04C1527.77 44.48 1529.53 46.3733 1530.81 48.72C1532.09 51.0133 1532.73 53.4133 1532.73 55.92V80H1523.93ZM1497.61 80V41.6H1506.41V80H1497.61ZM1559.28 80.8C1555.54 80.8 1552.16 79.92 1549.12 78.16C1546.08 76.3467 1543.65 73.92 1541.84 70.88C1540.08 67.84 1539.2 64.4533 1539.2 60.72C1539.2 56.9867 1540.08 53.6267 1541.84 50.64C1543.65 47.6533 1546.08 45.28 1549.12 43.52C1552.16 41.7067 1555.54 40.8 1559.28 40.8C1563.06 40.8 1566.48 41.68 1569.52 43.44C1572.56 45.2 1574.96 47.6 1576.72 50.64C1578.53 53.6267 1579.44 56.9867 1579.44 60.72C1579.44 64.4533 1578.53 67.84 1576.72 70.88C1574.96 73.92 1572.56 76.3467 1569.52 78.16C1566.48 79.92 1563.06 80.8 1559.28 80.8ZM1559.28 72.32C1561.46 72.32 1563.38 71.84 1565.04 70.88C1566.74 69.8667 1568.05 68.48 1568.96 66.72C1569.92 64.96 1570.4 62.96 1570.4 60.72C1570.4 58.48 1569.92 56.5067 1568.96 54.8C1568 53.0933 1566.69 51.76 1565.04 50.8C1563.38 49.7867 1561.46 49.28 1559.28 49.28C1557.14 49.28 1555.22 49.7867 1553.52 50.8C1551.86 51.76 1550.56 53.0933 1549.6 54.8C1548.69 56.5067 1548.24 58.48 1548.24 60.72C1548.24 62.96 1548.69 64.96 1549.6 66.72C1550.56 68.48 1551.86 69.8667 1553.52 70.88C1555.22 71.84 1557.14 72.32 1559.28 72.32ZM1623.33 80.8C1620.4 80.8 1617.78 80.1867 1615.49 78.96C1613.2 77.68 1611.38 75.9467 1610.05 73.76C1608.77 71.5733 1608.13 69.0933 1608.13 66.32V55.28C1608.13 52.5067 1608.8 50.0267 1610.13 47.84C1611.46 45.6533 1613.28 43.9467 1615.57 42.72C1617.86 41.44 1620.45 40.8 1623.33 40.8C1626.8 40.8 1629.92 41.7067 1632.69 43.52C1635.52 45.28 1637.73 47.68 1639.33 50.72C1640.98 53.7067 1641.81 57.0933 1641.81 60.88C1641.81 64.6133 1640.98 68 1639.33 71.04C1637.73 74.0267 1635.52 76.4 1632.69 78.16C1629.92 79.92 1626.8 80.8 1623.33 80.8ZM1602.77 96V41.6H1611.57V51.92L1610.05 61.28L1611.57 70.56V96H1602.77ZM1621.89 72.48C1624.02 72.48 1625.89 72 1627.49 71.04C1629.14 70.0267 1630.42 68.64 1631.33 66.88C1632.29 65.12 1632.77 63.0933 1632.77 60.8C1632.77 58.5067 1632.29 56.48 1631.33 54.72C1630.42 52.96 1629.14 51.6 1627.49 50.64C1625.89 49.6267 1624.02 49.12 1621.89 49.12C1619.76 49.12 1617.86 49.6267 1616.21 50.64C1614.56 51.6 1613.28 52.96 1612.37 54.72C1611.46 56.48 1611.01 58.5067 1611.01 60.8C1611.01 63.0933 1611.46 65.12 1612.37 66.88C1613.28 68.64 1614.56 70.0267 1616.21 71.04C1617.86 72 1619.76 72.48 1621.89 72.48ZM1667.02 80.8C1663.18 80.8 1659.71 79.9467 1656.62 78.24C1653.58 76.48 1651.15 74.08 1649.34 71.04C1647.58 68 1646.7 64.5867 1646.7 60.8C1646.7 57.0133 1647.58 53.6267 1649.34 50.64C1651.1 47.6 1653.47 45.2 1656.46 43.44C1659.5 41.68 1662.86 40.8 1666.54 40.8C1670.11 40.8 1673.26 41.6267 1675.98 43.28C1678.75 44.9333 1680.91 47.2 1682.46 50.08C1684.06 52.96 1684.86 56.24 1684.86 59.92C1684.86 60.56 1684.8 61.2267 1684.7 61.92C1684.64 62.56 1684.54 63.28 1684.38 64.08H1652.86V56.88H1679.82L1676.54 59.76C1676.43 57.4133 1675.98 55.44 1675.18 53.84C1674.38 52.24 1673.23 51.0133 1671.74 50.16C1670.3 49.3067 1668.51 48.88 1666.38 48.88C1664.14 48.88 1662.19 49.36 1660.54 50.32C1658.88 51.28 1657.6 52.64 1656.7 54.4C1655.79 56.1067 1655.34 58.16 1655.34 60.56C1655.34 62.96 1655.82 65.0667 1656.78 66.88C1657.74 68.6933 1659.1 70.1067 1660.86 71.12C1662.62 72.08 1664.64 72.56 1666.94 72.56C1668.91 72.56 1670.72 72.2133 1672.38 71.52C1674.08 70.8267 1675.52 69.8133 1676.7 68.48L1682.3 74.16C1680.43 76.3467 1678.16 78 1675.5 79.12C1672.83 80.24 1670 80.8 1667.02 80.8ZM1691.91 80V41.6H1700.71V80H1691.91ZM1700.71 58.64L1697.67 57.12C1697.67 52.2667 1698.74 48.3467 1700.87 45.36C1703.06 42.32 1706.34 40.8 1710.71 40.8C1712.63 40.8 1714.36 41.1467 1715.91 41.84C1717.46 42.5333 1718.9 43.6533 1720.23 45.2L1714.47 51.12C1713.78 50.3733 1713 49.84 1712.15 49.52C1711.3 49.2 1710.31 49.04 1709.19 49.04C1706.74 49.04 1704.71 49.8133 1703.11 51.36C1701.51 52.9067 1700.71 55.3333 1700.71 58.64ZM1725.9 80V41.6H1734.7V80H1725.9ZM1725.74 36.08L1721.74 32.08L1731.98 19.04L1738.78 25.84L1725.74 36.08ZM1744.49 80V41.6H1753.29V80H1744.49ZM1770.01 80V57.12C1770.01 54.56 1769.21 52.5867 1767.61 51.2C1766.01 49.76 1764.04 49.04 1761.69 49.04C1760.09 49.04 1758.65 49.36 1757.37 50C1756.14 50.64 1755.16 51.5733 1754.41 52.8C1753.66 53.9733 1753.29 55.4133 1753.29 57.12L1749.85 55.2C1749.85 52.2667 1750.49 49.7333 1751.77 47.6C1753.05 45.4667 1754.78 43.8133 1756.97 42.64C1759.16 41.4133 1761.61 40.8 1764.33 40.8C1767.05 40.8 1769.5 41.3867 1771.69 42.56C1773.88 43.7333 1775.61 45.3867 1776.89 47.52C1778.17 49.6533 1778.81 52.2133 1778.81 55.2V80H1770.01ZM1795.53 80V57.12C1795.53 54.56 1794.73 52.5867 1793.13 51.2C1791.53 49.76 1789.56 49.04 1787.21 49.04C1785.66 49.04 1784.25 49.36 1782.97 50C1781.69 50.64 1780.68 51.5733 1779.93 52.8C1779.18 53.9733 1778.81 55.4133 1778.81 57.12L1773.85 55.2C1774.12 52.2667 1774.97 49.7333 1776.41 47.6C1777.85 45.4667 1779.69 43.8133 1781.93 42.64C1784.22 41.4133 1786.73 40.8 1789.45 40.8C1792.22 40.8 1794.73 41.3867 1796.97 42.56C1799.21 43.7333 1801 45.3867 1802.33 47.52C1803.66 49.6533 1804.33 52.2133 1804.33 55.2V80H1795.53ZM1831.24 80.8C1827.4 80.8 1823.93 79.9467 1820.84 78.24C1817.8 76.48 1815.37 74.08 1813.56 71.04C1811.8 68 1810.92 64.5867 1810.92 60.8C1810.92 57.0133 1811.8 53.6267 1813.56 50.64C1815.32 47.6 1817.69 45.2 1820.68 43.44C1823.72 41.68 1827.08 40.8 1830.76 40.8C1834.33 40.8 1837.48 41.6267 1840.2 43.28C1842.97 44.9333 1845.13 47.2 1846.68 50.08C1848.28 52.96 1849.08 56.24 1849.08 59.92C1849.08 60.56 1849.02 61.2267 1848.92 61.92C1848.86 62.56 1848.76 63.28 1848.6 64.08H1817.08V56.88H1844.04L1840.76 59.76C1840.65 57.4133 1840.2 55.44 1839.4 53.84C1838.6 52.24 1837.45 51.0133 1835.96 50.16C1834.52 49.3067 1832.73 48.88 1830.6 48.88C1828.36 48.88 1826.41 49.36 1824.76 50.32C1823.1 51.28 1821.82 52.64 1820.92 54.4C1820.01 56.1067 1819.56 58.16 1819.56 60.56C1819.56 62.96 1820.04 65.0667 1821 66.88C1821.96 68.6933 1823.32 70.1067 1825.08 71.12C1826.84 72.08 1828.86 72.56 1831.16 72.56C1833.13 72.56 1834.94 72.2133 1836.6 71.52C1838.3 70.8267 1839.74 69.8133 1840.92 68.48L1846.52 74.16C1844.65 76.3467 1842.38 78 1839.72 79.12C1837.05 80.24 1834.22 80.8 1831.24 80.8ZM1860.95 80V25.6H1869.75V80H1860.95ZM1851.75 49.6V41.6H1878.95V49.6H1851.75ZM1885.35 80V41.6H1894.15V80H1885.35ZM1894.15 58.64L1891.11 57.12C1891.11 52.2667 1892.18 48.3467 1894.31 45.36C1896.5 42.32 1899.78 40.8 1904.15 40.8C1906.07 40.8 1907.8 41.1467 1909.35 41.84C1910.9 42.5333 1912.34 43.6533 1913.67 45.2L1907.91 51.12C1907.22 50.3733 1906.44 49.84 1905.59 49.52C1904.74 49.2 1903.75 49.04 1902.63 49.04C1900.18 49.04 1898.15 49.8133 1896.55 51.36C1894.95 52.9067 1894.15 55.3333 1894.15 58.64ZM1934.36 80.8C1930.62 80.8 1927.24 79.92 1924.2 78.16C1921.16 76.3467 1918.73 73.92 1916.92 70.88C1915.16 67.84 1914.28 64.4533 1914.28 60.72C1914.28 56.9867 1915.16 53.6267 1916.92 50.64C1918.73 47.6533 1921.16 45.28 1924.2 43.52C1927.24 41.7067 1930.62 40.8 1934.36 40.8C1938.14 40.8 1941.56 41.68 1944.6 43.44C1947.64 45.2 1950.04 47.6 1951.8 50.64C1953.61 53.6267 1954.52 56.9867 1954.52 60.72C1954.52 64.4533 1953.61 67.84 1951.8 70.88C1950.04 73.92 1947.64 76.3467 1944.6 78.16C1941.56 79.92 1938.14 80.8 1934.36 80.8ZM1934.36 72.32C1936.54 72.32 1938.46 71.84 1940.12 70.88C1941.82 69.8667 1943.13 68.48 1944.04 66.72C1945 64.96 1945.48 62.96 1945.48 60.72C1945.48 58.48 1945 56.5067 1944.04 54.8C1943.08 53.0933 1941.77 51.76 1940.12 50.8C1938.46 49.7867 1936.54 49.28 1934.36 49.28C1932.22 49.28 1930.3 49.7867 1928.6 50.8C1926.94 51.76 1925.64 53.0933 1924.68 54.8C1923.77 56.5067 1923.32 58.48 1923.32 60.72C1923.32 62.96 1923.77 64.96 1924.68 66.72C1925.64 68.48 1926.94 69.8667 1928.6 70.88C1930.3 71.84 1932.22 72.32 1934.36 72.32ZM1993.61 80.8C1990.36 80.8 1987.45 80.08 1984.89 78.64C1982.38 77.2 1980.41 75.2267 1978.97 72.72C1977.58 70.16 1976.89 67.2267 1976.89 63.92V41.6H1985.69V63.52C1985.69 65.3867 1985.98 66.9867 1986.57 68.32C1987.21 69.6 1988.12 70.5867 1989.29 71.28C1990.52 71.9733 1991.96 72.32 1993.61 72.32C1996.17 72.32 1998.12 71.5733 1999.45 70.08C2000.84 68.5333 2001.53 66.3467 2001.53 63.52V41.6H2010.33V63.92C2010.33 67.28 2009.61 70.24 2008.17 72.8C2006.78 75.3067 2004.84 77.28 2002.33 78.72C1999.82 80.1067 1996.92 80.8 1993.61 80.8ZM2019.18 80V41.6H2027.98V80H2019.18ZM2027.98 58.64L2024.94 57.12C2024.94 52.2667 2026 48.3467 2028.14 45.36C2030.32 42.32 2033.6 40.8 2037.98 40.8C2039.9 40.8 2041.63 41.1467 2043.18 41.84C2044.72 42.5333 2046.16 43.6533 2047.5 45.2L2041.74 51.12C2041.04 50.3733 2040.27 49.84 2039.42 49.52C2038.56 49.2 2037.58 49.04 2036.46 49.04C2034 49.04 2031.98 49.8133 2030.38 51.36C2028.78 52.9067 2027.98 55.3333 2027.98 58.64ZM2071.46 80.8C2068.52 80.8 2065.91 80.1867 2063.62 78.96C2061.32 77.68 2059.51 75.9467 2058.18 73.76C2056.9 71.5733 2056.26 69.0933 2056.26 66.32V55.28C2056.26 52.5067 2056.92 50.0267 2058.26 47.84C2059.59 45.6533 2061.4 43.9467 2063.7 42.72C2065.99 41.44 2068.58 40.8 2071.46 40.8C2074.92 40.8 2078.04 41.7067 2080.82 43.52C2083.64 45.28 2085.86 47.68 2087.46 50.72C2089.11 53.7067 2089.94 57.0933 2089.94 60.88C2089.94 64.6133 2089.11 68 2087.46 71.04C2085.86 74.0267 2083.64 76.4 2080.82 78.16C2078.04 79.92 2074.92 80.8 2071.46 80.8ZM2050.9 80V22.4H2059.7V51.04L2058.18 60.32L2059.7 69.68V80H2050.9ZM2070.02 72.48C2072.15 72.48 2074.02 72 2075.62 71.04C2077.27 70.0267 2078.55 68.64 2079.46 66.88C2080.42 65.12 2080.9 63.0933 2080.9 60.8C2080.9 58.5067 2080.42 56.48 2079.46 54.72C2078.55 52.96 2077.27 51.6 2075.62 50.64C2074.02 49.6267 2072.15 49.12 2070.02 49.12C2067.88 49.12 2065.99 49.6267 2064.34 50.64C2062.68 51.6 2061.4 52.96 2060.5 54.72C2059.59 56.48 2059.14 58.5067 2059.14 60.8C2059.14 63.0933 2059.59 65.12 2060.5 66.88C2061.4 68.64 2062.68 70.0267 2064.34 71.04C2065.99 72 2067.88 72.48 2070.02 72.48ZM2113.38 80.8C2109.92 80.8 2106.77 79.92 2103.94 78.16C2101.17 76.4 2098.96 74.0267 2097.3 71.04C2095.7 68 2094.9 64.6133 2094.9 60.88C2094.9 57.0933 2095.7 53.7067 2097.3 50.72C2098.96 47.68 2101.17 45.28 2103.94 43.52C2106.77 41.7067 2109.92 40.8 2113.38 40.8C2116.32 40.8 2118.9 41.44 2121.14 42.72C2123.44 43.9467 2125.25 45.6533 2126.58 47.84C2127.92 50.0267 2128.58 52.5067 2128.58 55.28V66.32C2128.58 69.0933 2127.92 71.5733 2126.58 73.76C2125.3 75.9467 2123.52 77.68 2121.22 78.96C2118.93 80.1867 2116.32 80.8 2113.38 80.8ZM2114.82 72.48C2118.08 72.48 2120.69 71.3867 2122.66 69.2C2124.69 67.0133 2125.7 64.2133 2125.7 60.8C2125.7 58.5067 2125.25 56.48 2124.34 54.72C2123.44 52.96 2122.16 51.6 2120.5 50.64C2118.9 49.6267 2117.01 49.12 2114.82 49.12C2112.69 49.12 2110.8 49.6267 2109.14 50.64C2107.54 51.6 2106.26 52.96 2105.3 54.72C2104.4 56.48 2103.94 58.5067 2103.94 60.8C2103.94 63.0933 2104.4 65.12 2105.3 66.88C2106.26 68.64 2107.54 70.0267 2109.14 71.04C2110.8 72 2112.69 72.48 2114.82 72.48ZM2125.14 80V69.68L2126.66 60.32L2125.14 51.04V41.6H2133.94V80H2125.14ZM2170.03 80V57.84C2170.03 55.28 2169.2 53.1733 2167.55 51.52C2165.95 49.8667 2163.87 49.04 2161.31 49.04C2159.6 49.04 2158.08 49.4133 2156.75 50.16C2155.41 50.9067 2154.37 51.9467 2153.63 53.28C2152.88 54.6133 2152.51 56.1333 2152.51 57.84L2149.07 55.92C2149.07 52.9867 2149.71 50.4 2150.99 48.16C2152.27 45.8667 2154.03 44.08 2156.27 42.8C2158.56 41.4667 2161.12 40.8 2163.95 40.8C2166.83 40.8 2169.39 41.5467 2171.63 43.04C2173.87 44.48 2175.63 46.3733 2176.91 48.72C2178.19 51.0133 2178.83 53.4133 2178.83 55.92V80H2170.03ZM2143.71 80V41.6H2152.51V80H2143.71ZM2205.37 80.8C2201.64 80.8 2198.25 79.92 2195.21 78.16C2192.17 76.3467 2189.74 73.92 2187.93 70.88C2186.17 67.84 2185.29 64.4533 2185.29 60.72C2185.29 56.9867 2186.17 53.6267 2187.93 50.64C2189.74 47.6533 2192.17 45.28 2195.21 43.52C2198.25 41.7067 2201.64 40.8 2205.37 40.8C2209.16 40.8 2212.57 41.68 2215.61 43.44C2218.65 45.2 2221.05 47.6 2222.81 50.64C2224.62 53.6267 2225.53 56.9867 2225.53 60.72C2225.53 64.4533 2224.62 67.84 2222.81 70.88C2221.05 73.92 2218.65 76.3467 2215.61 78.16C2212.57 79.92 2209.16 80.8 2205.37 80.8ZM2205.37 72.32C2207.56 72.32 2209.48 71.84 2211.13 70.88C2212.84 69.8667 2214.14 68.48 2215.05 66.72C2216.01 64.96 2216.49 62.96 2216.49 60.72C2216.49 58.48 2216.01 56.5067 2215.05 54.8C2214.09 53.0933 2212.78 51.76 2211.13 50.8C2209.48 49.7867 2207.56 49.28 2205.37 49.28C2203.24 49.28 2201.32 49.7867 2199.61 50.8C2197.96 51.76 2196.65 53.0933 2195.69 54.8C2194.78 56.5067 2194.33 58.48 2194.33 60.72C2194.33 62.96 2194.78 64.96 2195.69 66.72C2196.65 68.48 2197.96 69.8667 2199.61 70.88C2201.32 71.84 2203.24 72.32 2205.37 72.32Z" fill="#318D0C"/>
</svg>
