<svg width="2271" height="131" viewBox="0 0 2271 131" fill="none" xmlns="http://www.w3.org/2000/svg">
<path d="M12.4 58.88V50.88H26.4C28.32 50.88 30 50.5067 31.44 49.76C32.9333 48.96 34.1067 47.8667 34.96 46.48C35.8133 45.04 36.24 43.36 36.24 41.44C36.24 39.52 35.8133 37.8667 34.96 36.48C34.1067 35.04 32.9333 33.9467 31.44 33.2C30 32.4 28.32 32 26.4 32H12.4V24H26.88C30.4 24 33.5467 24.72 36.32 26.16C39.1467 27.6 41.36 29.6267 42.96 32.24C44.6133 34.8533 45.44 37.92 45.44 41.44C45.44 44.96 44.6133 48.0267 42.96 50.64C41.36 53.2533 39.1467 55.28 36.32 56.72C33.5467 58.16 30.4 58.88 26.88 58.88H12.4ZM6.08 80V24H15.28V80H6.08ZM68.8081 80.8C65.0748 80.8 61.6881 79.92 58.6481 78.16C55.6081 76.3467 53.1815 73.92 51.3681 70.88C49.6081 67.84 48.7281 64.4533 48.7281 60.72C48.7281 56.9867 49.6081 53.6267 51.3681 50.64C53.1815 47.6533 55.6081 45.28 58.6481 43.52C61.6881 41.7067 65.0748 40.8 68.8081 40.8C72.5948 40.8 76.0081 41.68 79.0481 43.44C82.0881 45.2 84.4881 47.6 86.2481 50.64C88.0615 53.6267 88.9681 56.9867 88.9681 60.72C88.9681 64.4533 88.0615 67.84 86.2481 70.88C84.4881 73.92 82.0881 76.3467 79.0481 78.16C76.0081 79.92 72.5948 80.8 68.8081 80.8ZM68.8081 72.32C70.9948 72.32 72.9148 71.84 74.5681 70.88C76.2748 69.8667 77.5815 68.48 78.4881 66.72C79.4481 64.96 79.9281 62.96 79.9281 60.72C79.9281 58.48 79.4481 56.5067 78.4881 54.8C77.5281 53.0933 76.2215 51.76 74.5681 50.8C72.9148 49.7867 70.9948 49.28 68.8081 49.28C66.6748 49.28 64.7548 49.7867 63.0481 50.8C61.3948 51.76 60.0881 53.0933 59.1281 54.8C58.2215 56.5067 57.7681 58.48 57.7681 60.72C57.7681 62.96 58.2215 64.96 59.1281 66.72C60.0881 68.48 61.3948 69.8667 63.0481 70.88C64.7548 71.84 66.6748 72.32 68.8081 72.32ZM96.2863 80V41.6H105.086V80H96.2863ZM105.086 58.64L102.046 57.12C102.046 52.2667 103.113 48.3467 105.246 45.36C107.433 42.32 110.713 40.8 115.086 40.8C117.006 40.8 118.74 41.1467 120.286 41.84C121.833 42.5333 123.273 43.6533 124.606 45.2L118.846 51.12C118.153 50.3733 117.38 49.84 116.526 49.52C115.673 49.2 114.686 49.04 113.566 49.04C111.113 49.04 109.086 49.8133 107.486 51.36C105.886 52.9067 105.086 55.3333 105.086 58.64ZM145.373 80.8C141.586 80.8 138.146 79.92 135.053 78.16C132.013 76.4 129.613 74 127.853 70.96C126.093 67.92 125.213 64.5333 125.213 60.8C125.213 57.0133 126.093 53.6267 127.853 50.64C129.613 47.6 132.013 45.2 135.053 43.44C138.146 41.68 141.586 40.8 145.373 40.8C148.359 40.8 151.133 41.3867 153.693 42.56C156.306 43.68 158.519 45.3067 160.333 47.44L154.573 53.28C153.453 51.9467 152.093 50.96 150.493 50.32C148.946 49.6267 147.239 49.28 145.373 49.28C143.186 49.28 141.239 49.7867 139.533 50.8C137.879 51.76 136.573 53.0933 135.613 54.8C134.706 56.5067 134.253 58.5067 134.253 60.8C134.253 63.04 134.706 65.04 135.613 66.8C136.573 68.5067 137.879 69.8667 139.533 70.88C141.239 71.84 143.186 72.32 145.373 72.32C147.239 72.32 148.946 72 150.493 71.36C152.093 70.6667 153.453 69.6533 154.573 68.32L160.333 74.16C158.519 76.2933 156.306 77.9467 153.693 79.12C151.133 80.24 148.359 80.8 145.373 80.8ZM183.736 80.8C179.896 80.8 176.429 79.9467 173.336 78.24C170.296 76.48 167.869 74.08 166.056 71.04C164.296 68 163.416 64.5867 163.416 60.8C163.416 57.0133 164.296 53.6267 166.056 50.64C167.816 47.6 170.189 45.2 173.176 43.44C176.216 41.68 179.576 40.8 183.256 40.8C186.829 40.8 189.976 41.6267 192.696 43.28C195.469 44.9333 197.629 47.2 199.176 50.08C200.776 52.96 201.576 56.24 201.576 59.92C201.576 60.56 201.522 61.2267 201.416 61.92C201.362 62.56 201.256 63.28 201.096 64.08H169.576V56.88H196.536L193.256 59.76C193.149 57.4133 192.696 55.44 191.896 53.84C191.096 52.24 189.949 51.0133 188.456 50.16C187.016 49.3067 185.229 48.88 183.096 48.88C180.856 48.88 178.909 49.36 177.256 50.32C175.602 51.28 174.322 52.64 173.416 54.4C172.509 56.1067 172.056 58.16 172.056 60.56C172.056 62.96 172.536 65.0667 173.496 66.88C174.456 68.6933 175.816 70.1067 177.576 71.12C179.336 72.08 181.362 72.56 183.656 72.56C185.629 72.56 187.442 72.2133 189.096 71.52C190.802 70.8267 192.242 69.8133 193.416 68.48L199.016 74.16C197.149 76.3467 194.882 78 192.216 79.12C189.549 80.24 186.722 80.8 183.736 80.8ZM234.95 80V57.84C234.95 55.28 234.123 53.1733 232.47 51.52C230.87 49.8667 228.79 49.04 226.23 49.04C224.523 49.04 223.003 49.4133 221.67 50.16C220.337 50.9067 219.297 51.9467 218.55 53.28C217.803 54.6133 217.43 56.1333 217.43 57.84L213.99 55.92C213.99 52.9867 214.63 50.4 215.91 48.16C217.19 45.8667 218.95 44.08 221.19 42.8C223.483 41.4667 226.043 40.8 228.87 40.8C231.75 40.8 234.31 41.5467 236.55 43.04C238.79 44.48 240.55 46.3733 241.83 48.72C243.11 51.0133 243.75 53.4133 243.75 55.92V80H234.95ZM208.63 80V41.6H217.43V80H208.63ZM258.064 80V25.6H266.864V80H258.064ZM248.864 49.6V41.6H276.064V49.6H248.864ZM297.444 80.8C293.978 80.8 290.831 79.92 288.004 78.16C285.231 76.4 283.018 74.0267 281.364 71.04C279.764 68 278.964 64.6133 278.964 60.88C278.964 57.0933 279.764 53.7067 281.364 50.72C283.018 47.68 285.231 45.28 288.004 43.52C290.831 41.7067 293.978 40.8 297.444 40.8C300.378 40.8 302.964 41.44 305.204 42.72C307.498 43.9467 309.311 45.6533 310.644 47.84C311.978 50.0267 312.644 52.5067 312.644 55.28V66.32C312.644 69.0933 311.978 71.5733 310.644 73.76C309.364 75.9467 307.578 77.68 305.284 78.96C302.991 80.1867 300.378 80.8 297.444 80.8ZM298.884 72.48C302.138 72.48 304.751 71.3867 306.724 69.2C308.751 67.0133 309.764 64.2133 309.764 60.8C309.764 58.5067 309.311 56.48 308.404 54.72C307.498 52.96 306.218 51.6 304.564 50.64C302.964 49.6267 301.071 49.12 298.884 49.12C296.751 49.12 294.858 49.6267 293.204 50.64C291.604 51.6 290.324 52.96 289.364 54.72C288.458 56.48 288.004 58.5067 288.004 60.8C288.004 63.0933 288.458 65.12 289.364 66.88C290.324 68.64 291.604 70.0267 293.204 71.04C294.858 72 296.751 72.48 298.884 72.48ZM309.204 80V69.68L310.724 60.32L309.204 51.04V41.6H318.004V80H309.204ZM343.771 96.8C339.717 96.8 336.171 96.0533 333.131 94.56C330.091 93.12 327.637 91.0667 325.771 88.4L331.531 82.64C333.077 84.56 334.837 86 336.811 86.96C338.784 87.92 341.157 88.4 343.931 88.4C347.397 88.4 350.144 87.4933 352.171 85.68C354.197 83.92 355.211 81.4933 355.211 78.4V68.96L356.731 60.48L355.211 51.92V41.6H364.011V78.4C364.011 82.08 363.157 85.28 361.451 88C359.744 90.7733 357.371 92.9333 354.331 94.48C351.291 96.0267 347.771 96.8 343.771 96.8ZM343.371 79.2C339.957 79.2 336.864 78.3733 334.091 76.72C331.371 75.0133 329.211 72.6933 327.611 69.76C326.064 66.8267 325.291 63.5467 325.291 59.92C325.291 56.2933 326.064 53.04 327.611 50.16C329.211 47.28 331.371 45.0133 334.091 43.36C336.864 41.6533 339.957 40.8 343.371 40.8C346.411 40.8 349.077 41.4133 351.371 42.64C353.664 43.8667 355.451 45.5733 356.731 47.76C358.011 49.8933 358.651 52.4 358.651 55.28V64.72C358.651 67.5467 357.984 70.0533 356.651 72.24C355.371 74.4267 353.584 76.1333 351.291 77.36C348.997 78.5867 346.357 79.2 343.371 79.2ZM345.131 70.88C347.264 70.88 349.131 70.4267 350.731 69.52C352.331 68.6133 353.557 67.36 354.411 65.76C355.317 64.1067 355.771 62.1867 355.771 60C355.771 57.8133 355.317 55.92 354.411 54.32C353.557 52.6667 352.331 51.3867 350.731 50.48C349.131 49.5733 347.264 49.12 345.131 49.12C342.997 49.12 341.104 49.5733 339.451 50.48C337.851 51.3867 336.597 52.6667 335.691 54.32C334.784 55.92 334.331 57.8133 334.331 60C334.331 62.1333 334.784 64.0267 335.691 65.68C336.597 67.3333 337.851 68.6133 339.451 69.52C341.104 70.4267 342.997 70.88 345.131 70.88ZM391.626 80.8C387.786 80.8 384.32 79.9467 381.226 78.24C378.186 76.48 375.76 74.08 373.946 71.04C372.186 68 371.306 64.5867 371.306 60.8C371.306 57.0133 372.186 53.6267 373.946 50.64C375.706 47.6 378.08 45.2 381.066 43.44C384.106 41.68 387.466 40.8 391.146 40.8C394.72 40.8 397.866 41.6267 400.586 43.28C403.36 44.9333 405.52 47.2 407.066 50.08C408.666 52.96 409.466 56.24 409.466 59.92C409.466 60.56 409.413 61.2267 409.306 61.92C409.253 62.56 409.146 63.28 408.986 64.08H377.466V56.88H404.426L401.146 59.76C401.04 57.4133 400.586 55.44 399.786 53.84C398.986 52.24 397.84 51.0133 396.346 50.16C394.906 49.3067 393.12 48.88 390.986 48.88C388.746 48.88 386.8 49.36 385.146 50.32C383.493 51.28 382.213 52.64 381.306 54.4C380.4 56.1067 379.946 58.16 379.946 60.56C379.946 62.96 380.426 65.0667 381.386 66.88C382.346 68.6933 383.706 70.1067 385.466 71.12C387.226 72.08 389.253 72.56 391.546 72.56C393.52 72.56 395.333 72.2133 396.986 71.52C398.693 70.8267 400.133 69.8133 401.306 68.48L406.906 74.16C405.04 76.3467 402.773 78 400.106 79.12C397.44 80.24 394.613 80.8 391.626 80.8ZM416.521 80V41.6H425.321V80H416.521ZM442.041 80V57.12C442.041 54.56 441.241 52.5867 439.641 51.2C438.041 49.76 436.067 49.04 433.721 49.04C432.121 49.04 430.681 49.36 429.401 50C428.174 50.64 427.187 51.5733 426.441 52.8C425.694 53.9733 425.321 55.4133 425.321 57.12L421.881 55.2C421.881 52.2667 422.521 49.7333 423.801 47.6C425.081 45.4667 426.814 43.8133 429.001 42.64C431.187 41.4133 433.641 40.8 436.361 40.8C439.081 40.8 441.534 41.3867 443.721 42.56C445.907 43.7333 447.641 45.3867 448.921 47.52C450.201 49.6533 450.841 52.2133 450.841 55.2V80H442.041ZM467.561 80V57.12C467.561 54.56 466.761 52.5867 465.161 51.2C463.561 49.76 461.587 49.04 459.241 49.04C457.694 49.04 456.281 49.36 455.001 50C453.721 50.64 452.707 51.5733 451.961 52.8C451.214 53.9733 450.841 55.4133 450.841 57.12L445.881 55.2C446.147 52.2667 447.001 49.7333 448.441 47.6C449.881 45.4667 451.721 43.8133 453.961 42.64C456.254 41.4133 458.761 40.8 461.481 40.8C464.254 40.8 466.761 41.3867 469.001 42.56C471.241 43.7333 473.027 45.3867 474.361 47.52C475.694 49.6533 476.361 52.2133 476.361 55.2V80H467.561ZM517.523 80.8C514.056 80.8 510.909 79.92 508.083 78.16C505.309 76.4 503.096 74.0267 501.443 71.04C499.843 68 499.043 64.6133 499.043 60.88C499.043 57.0933 499.843 53.7067 501.443 50.72C503.096 47.68 505.309 45.28 508.083 43.52C510.909 41.7067 514.056 40.8 517.523 40.8C520.456 40.8 523.043 41.44 525.283 42.72C527.576 43.9467 529.389 45.6533 530.723 47.84C532.056 50.0267 532.723 52.5067 532.723 55.28V66.32C532.723 69.0933 532.056 71.5733 530.723 73.76C529.443 75.9467 527.656 77.68 525.363 78.96C523.069 80.1867 520.456 80.8 517.523 80.8ZM518.963 72.48C521.149 72.48 523.043 72 524.643 71.04C526.296 70.0267 527.576 68.64 528.483 66.88C529.389 65.12 529.843 63.0933 529.843 60.8C529.843 58.5067 529.389 56.48 528.483 54.72C527.576 52.96 526.296 51.6 524.643 50.64C523.043 49.6267 521.149 49.12 518.963 49.12C516.829 49.12 514.936 49.6267 513.283 50.64C511.683 51.6 510.403 52.96 509.443 54.72C508.536 56.48 508.083 58.5067 508.083 60.8C508.083 63.0933 508.536 65.12 509.443 66.88C510.403 68.64 511.683 70.0267 513.283 71.04C514.936 72 516.829 72.48 518.963 72.48ZM538.083 80H529.283V69.68L530.803 60.32L529.283 51.04V22.4H538.083V80ZM563.929 80.8C560.462 80.8 557.315 79.92 554.489 78.16C551.715 76.4 549.502 74.0267 547.849 71.04C546.249 68 545.449 64.6133 545.449 60.88C545.449 57.0933 546.249 53.7067 547.849 50.72C549.502 47.68 551.715 45.28 554.489 43.52C557.315 41.7067 560.462 40.8 563.929 40.8C566.862 40.8 569.449 41.44 571.689 42.72C573.982 43.9467 575.795 45.6533 577.129 47.84C578.462 50.0267 579.129 52.5067 579.129 55.28V66.32C579.129 69.0933 578.462 71.5733 577.129 73.76C575.849 75.9467 574.062 77.68 571.769 78.96C569.475 80.1867 566.862 80.8 563.929 80.8ZM565.369 72.48C568.622 72.48 571.235 71.3867 573.209 69.2C575.235 67.0133 576.249 64.2133 576.249 60.8C576.249 58.5067 575.795 56.48 574.889 54.72C573.982 52.96 572.702 51.6 571.049 50.64C569.449 49.6267 567.555 49.12 565.369 49.12C563.235 49.12 561.342 49.6267 559.689 50.64C558.089 51.6 556.809 52.96 555.849 54.72C554.942 56.48 554.489 58.5067 554.489 60.8C554.489 63.0933 554.942 65.12 555.849 66.88C556.809 68.64 558.089 70.0267 559.689 71.04C561.342 72 563.235 72.48 565.369 72.48ZM575.689 80V69.68L577.209 60.32L575.689 51.04V41.6H584.489V80H575.689ZM627.951 80.8C624.164 80.8 620.724 79.92 617.631 78.16C614.591 76.4 612.191 74 610.431 70.96C608.671 67.92 607.791 64.5333 607.791 60.8C607.791 57.0133 608.671 53.6267 610.431 50.64C612.191 47.6 614.591 45.2 617.631 43.44C620.724 41.68 624.164 40.8 627.951 40.8C630.937 40.8 633.711 41.3867 636.271 42.56C638.884 43.68 641.097 45.3067 642.911 47.44L637.151 53.28C636.031 51.9467 634.671 50.96 633.071 50.32C631.524 49.6267 629.817 49.28 627.951 49.28C625.764 49.28 623.817 49.7867 622.111 50.8C620.457 51.76 619.151 53.0933 618.191 54.8C617.284 56.5067 616.831 58.5067 616.831 60.8C616.831 63.04 617.284 65.04 618.191 66.8C619.151 68.5067 620.457 69.8667 622.111 70.88C623.817 71.84 625.764 72.32 627.951 72.32C629.817 72.32 631.524 72 633.071 71.36C634.671 70.6667 636.031 69.6533 637.151 68.32L642.911 74.16C641.097 76.2933 638.884 77.9467 636.271 79.12C633.711 80.24 630.937 80.8 627.951 80.8ZM666.074 80.8C662.34 80.8 658.954 79.92 655.914 78.16C652.874 76.3467 650.447 73.92 648.634 70.88C646.874 67.84 645.994 64.4533 645.994 60.72C645.994 56.9867 646.874 53.6267 648.634 50.64C650.447 47.6533 652.874 45.28 655.914 43.52C658.954 41.7067 662.34 40.8 666.074 40.8C669.86 40.8 673.274 41.68 676.314 43.44C679.354 45.2 681.754 47.6 683.514 50.64C685.327 53.6267 686.234 56.9867 686.234 60.72C686.234 64.4533 685.327 67.84 683.514 70.88C681.754 73.92 679.354 76.3467 676.314 78.16C673.274 79.92 669.86 80.8 666.074 80.8ZM666.074 72.32C668.26 72.32 670.18 71.84 671.834 70.88C673.54 69.8667 674.847 68.48 675.754 66.72C676.714 64.96 677.194 62.96 677.194 60.72C677.194 58.48 676.714 56.5067 675.754 54.8C674.794 53.0933 673.487 51.76 671.834 50.8C670.18 49.7867 668.26 49.28 666.074 49.28C663.94 49.28 662.02 49.7867 660.314 50.8C658.66 51.76 657.354 53.0933 656.394 54.8C655.487 56.5067 655.034 58.48 655.034 60.72C655.034 62.96 655.487 64.96 656.394 66.72C657.354 68.48 658.66 69.8667 660.314 70.88C662.02 71.84 663.94 72.32 666.074 72.32ZM714.112 80.8C711.179 80.8 708.565 80.1867 706.272 78.96C703.979 77.68 702.165 75.9467 700.832 73.76C699.552 71.5733 698.912 69.0933 698.912 66.32V55.28C698.912 52.5067 699.579 50.0267 700.912 47.84C702.245 45.6533 704.059 43.9467 706.352 42.72C708.645 41.44 711.232 40.8 714.112 40.8C717.579 40.8 720.699 41.7067 723.472 43.52C726.299 45.28 728.512 47.68 730.112 50.72C731.765 53.7067 732.592 57.0933 732.592 60.88C732.592 64.6133 731.765 68 730.112 71.04C728.512 74.0267 726.299 76.4 723.472 78.16C720.699 79.92 717.579 80.8 714.112 80.8ZM693.552 80V22.4H702.352V51.04L700.832 60.32L702.352 69.68V80H693.552ZM712.672 72.48C714.805 72.48 716.672 72 718.272 71.04C719.925 70.0267 721.205 68.64 722.112 66.88C723.072 65.12 723.552 63.0933 723.552 60.8C723.552 58.5067 723.072 56.48 722.112 54.72C721.205 52.96 719.925 51.6 718.272 50.64C716.672 49.6267 714.805 49.12 712.672 49.12C710.539 49.12 708.645 49.6267 706.992 50.64C705.339 51.6 704.059 52.96 703.152 54.72C702.245 56.48 701.792 58.5067 701.792 60.8C701.792 63.0933 702.245 65.12 703.152 66.88C704.059 68.64 705.339 70.0267 706.992 71.04C708.645 72 710.539 72.48 712.672 72.48ZM757.798 80.8C753.958 80.8 750.491 79.9467 747.398 78.24C744.358 76.48 741.931 74.08 740.118 71.04C738.358 68 737.478 64.5867 737.478 60.8C737.478 57.0133 738.358 53.6267 740.118 50.64C741.878 47.6 744.251 45.2 747.238 43.44C750.278 41.68 753.638 40.8 757.318 40.8C760.891 40.8 764.038 41.6267 766.758 43.28C769.531 44.9333 771.691 47.2 773.238 50.08C774.838 52.96 775.638 56.24 775.638 59.92C775.638 60.56 775.585 61.2267 775.478 61.92C775.425 62.56 775.318 63.28 775.158 64.08H743.638V56.88H770.598L767.318 59.76C767.211 57.4133 766.758 55.44 765.958 53.84C765.158 52.24 764.011 51.0133 762.518 50.16C761.078 49.3067 759.291 48.88 757.158 48.88C754.918 48.88 752.971 49.36 751.318 50.32C749.665 51.28 748.385 52.64 747.478 54.4C746.571 56.1067 746.118 58.16 746.118 60.56C746.118 62.96 746.598 65.0667 747.558 66.88C748.518 68.6933 749.878 70.1067 751.638 71.12C753.398 72.08 755.425 72.56 757.718 72.56C759.691 72.56 761.505 72.2133 763.158 71.52C764.865 70.8267 766.305 69.8133 767.478 68.48L773.078 74.16C771.211 76.3467 768.945 78 766.278 79.12C763.611 80.24 760.785 80.8 757.798 80.8ZM782.693 80V41.6H791.493V80H782.693ZM791.493 58.64L788.453 57.12C788.453 52.2667 789.519 48.3467 791.653 45.36C793.839 42.32 797.119 40.8 801.493 40.8C803.413 40.8 805.146 41.1467 806.693 41.84C808.239 42.5333 809.679 43.6533 811.013 45.2L805.253 51.12C804.559 50.3733 803.786 49.84 802.933 49.52C802.079 49.2 801.093 49.04 799.973 49.04C797.519 49.04 795.493 49.8133 793.893 51.36C792.293 52.9067 791.493 55.3333 791.493 58.64ZM821.189 80V25.6H829.989V80H821.189ZM811.989 49.6V41.6H839.189V49.6H811.989ZM861.343 80.8C858.09 80.8 855.183 80.08 852.623 78.64C850.116 77.2 848.143 75.2267 846.703 72.72C845.316 70.16 844.623 67.2267 844.623 63.92V41.6H853.423V63.52C853.423 65.3867 853.716 66.9867 854.303 68.32C854.943 69.6 855.85 70.5867 857.023 71.28C858.25 71.9733 859.69 72.32 861.343 72.32C863.903 72.32 865.85 71.5733 867.183 70.08C868.57 68.5333 869.263 66.3467 869.263 63.52V41.6H878.063V63.92C878.063 67.28 877.343 70.24 875.903 72.8C874.516 75.3067 872.57 77.28 870.063 78.72C867.556 80.1067 864.65 80.8 861.343 80.8ZM886.911 80V41.6H895.711V80H886.911ZM895.711 58.64L892.671 57.12C892.671 52.2667 893.738 48.3467 895.871 45.36C898.058 42.32 901.338 40.8 905.711 40.8C907.631 40.8 909.365 41.1467 910.911 41.84C912.458 42.5333 913.898 43.6533 915.231 45.2L909.471 51.12C908.778 50.3733 908.005 49.84 907.151 49.52C906.298 49.2 905.311 49.04 904.191 49.04C901.738 49.04 899.711 49.8133 898.111 51.36C896.511 52.9067 895.711 55.3333 895.711 58.64ZM934.398 80.8C930.931 80.8 927.784 79.92 924.958 78.16C922.184 76.4 919.971 74.0267 918.318 71.04C916.718 68 915.918 64.6133 915.918 60.88C915.918 57.0933 916.718 53.7067 918.318 50.72C919.971 47.68 922.184 45.28 924.958 43.52C927.784 41.7067 930.931 40.8 934.398 40.8C937.331 40.8 939.918 41.44 942.158 42.72C944.451 43.9467 946.264 45.6533 947.598 47.84C948.931 50.0267 949.598 52.5067 949.598 55.28V66.32C949.598 69.0933 948.931 71.5733 947.598 73.76C946.318 75.9467 944.531 77.68 942.238 78.96C939.944 80.1867 937.331 80.8 934.398 80.8ZM935.838 72.48C939.091 72.48 941.704 71.3867 943.678 69.2C945.704 67.0133 946.718 64.2133 946.718 60.8C946.718 58.5067 946.264 56.48 945.358 54.72C944.451 52.96 943.171 51.6 941.518 50.64C939.918 49.6267 938.024 49.12 935.838 49.12C933.704 49.12 931.811 49.6267 930.158 50.64C928.558 51.6 927.278 52.96 926.318 54.72C925.411 56.48 924.958 58.5067 924.958 60.8C924.958 63.0933 925.411 65.12 926.318 66.88C927.278 68.64 928.558 70.0267 930.158 71.04C931.811 72 933.704 72.48 935.838 72.48ZM946.158 80V69.68L947.678 60.32L946.158 51.04V41.6H954.958V80H946.158ZM993.699 80L976.179 41.6H985.939L999.299 72.88H993.539L1006.98 41.6H1016.34L998.819 80H993.699ZM1038.03 80.8C1034.19 80.8 1030.73 79.9467 1027.63 78.24C1024.59 76.48 1022.17 74.08 1020.35 71.04C1018.59 68 1017.71 64.5867 1017.71 60.8C1017.71 57.0133 1018.59 53.6267 1020.35 50.64C1022.11 47.6 1024.49 45.2 1027.47 43.44C1030.51 41.68 1033.87 40.8 1037.55 40.8C1041.13 40.8 1044.27 41.6267 1046.99 43.28C1049.77 44.9333 1051.93 47.2 1053.47 50.08C1055.07 52.96 1055.87 56.24 1055.87 59.92C1055.87 60.56 1055.82 61.2267 1055.71 61.92C1055.66 62.56 1055.55 63.28 1055.39 64.08H1023.87V56.88H1050.83L1047.55 59.76C1047.45 57.4133 1046.99 55.44 1046.19 53.84C1045.39 52.24 1044.25 51.0133 1042.75 50.16C1041.31 49.3067 1039.53 48.88 1037.39 48.88C1035.15 48.88 1033.21 49.36 1031.55 50.32C1029.9 51.28 1028.62 52.64 1027.71 54.4C1026.81 56.1067 1026.35 58.16 1026.35 60.56C1026.35 62.96 1026.83 65.0667 1027.79 66.88C1028.75 68.6933 1030.11 70.1067 1031.87 71.12C1033.63 72.08 1035.66 72.56 1037.95 72.56C1039.93 72.56 1041.74 72.2133 1043.39 71.52C1045.1 70.8267 1046.54 69.8133 1047.71 68.48L1053.31 74.16C1051.45 76.3467 1049.18 78 1046.51 79.12C1043.85 80.24 1041.02 80.8 1038.03 80.8ZM1078.93 96.8C1074.87 96.8 1071.33 96.0533 1068.29 94.56C1065.25 93.12 1062.79 91.0667 1060.93 88.4L1066.69 82.64C1068.23 84.56 1069.99 86 1071.97 86.96C1073.94 87.92 1076.31 88.4 1079.09 88.4C1082.55 88.4 1085.3 87.4933 1087.33 85.68C1089.35 83.92 1090.37 81.4933 1090.37 78.4V68.96L1091.89 60.48L1090.37 51.92V41.6H1099.17V78.4C1099.17 82.08 1098.31 85.28 1096.61 88C1094.9 90.7733 1092.53 92.9333 1089.49 94.48C1086.45 96.0267 1082.93 96.8 1078.93 96.8ZM1078.53 79.2C1075.11 79.2 1072.02 78.3733 1069.25 76.72C1066.53 75.0133 1064.37 72.6933 1062.77 69.76C1061.22 66.8267 1060.45 63.5467 1060.45 59.92C1060.45 56.2933 1061.22 53.04 1062.77 50.16C1064.37 47.28 1066.53 45.0133 1069.25 43.36C1072.02 41.6533 1075.11 40.8 1078.53 40.8C1081.57 40.8 1084.23 41.4133 1086.53 42.64C1088.82 43.8667 1090.61 45.5733 1091.89 47.76C1093.17 49.8933 1093.81 52.4 1093.81 55.28V64.72C1093.81 67.5467 1093.14 70.0533 1091.81 72.24C1090.53 74.4267 1088.74 76.1333 1086.45 77.36C1084.15 78.5867 1081.51 79.2 1078.53 79.2ZM1080.29 70.88C1082.42 70.88 1084.29 70.4267 1085.89 69.52C1087.49 68.6133 1088.71 67.36 1089.57 65.76C1090.47 64.1067 1090.93 62.1867 1090.93 60C1090.93 57.8133 1090.47 55.92 1089.57 54.32C1088.71 52.6667 1087.49 51.3867 1085.89 50.48C1084.29 49.5733 1082.42 49.12 1080.29 49.12C1078.15 49.12 1076.26 49.5733 1074.61 50.48C1073.01 51.3867 1071.75 52.6667 1070.85 54.32C1069.94 55.92 1069.49 57.8133 1069.49 60C1069.49 62.1333 1069.94 64.0267 1070.85 65.68C1071.75 67.3333 1073.01 68.6133 1074.61 69.52C1076.26 70.4267 1078.15 70.88 1080.29 70.88ZM1126.78 80.8C1122.94 80.8 1119.48 79.9467 1116.38 78.24C1113.34 76.48 1110.92 74.08 1109.1 71.04C1107.34 68 1106.46 64.5867 1106.46 60.8C1106.46 57.0133 1107.34 53.6267 1109.1 50.64C1110.86 47.6 1113.24 45.2 1116.22 43.44C1119.26 41.68 1122.62 40.8 1126.3 40.8C1129.88 40.8 1133.02 41.6267 1135.74 43.28C1138.52 44.9333 1140.68 47.2 1142.22 50.08C1143.82 52.96 1144.62 56.24 1144.62 59.92C1144.62 60.56 1144.57 61.2267 1144.46 61.92C1144.41 62.56 1144.3 63.28 1144.14 64.08H1112.62V56.88H1139.58L1136.3 59.76C1136.2 57.4133 1135.74 55.44 1134.94 53.84C1134.14 52.24 1133 51.0133 1131.5 50.16C1130.06 49.3067 1128.28 48.88 1126.14 48.88C1123.9 48.88 1121.96 49.36 1120.3 50.32C1118.65 51.28 1117.37 52.64 1116.46 54.4C1115.56 56.1067 1115.1 58.16 1115.1 60.56C1115.1 62.96 1115.58 65.0667 1116.54 66.88C1117.5 68.6933 1118.86 70.1067 1120.62 71.12C1122.38 72.08 1124.41 72.56 1126.7 72.56C1128.68 72.56 1130.49 72.2133 1132.14 71.52C1133.85 70.8267 1135.29 69.8133 1136.46 68.48L1142.06 74.16C1140.2 76.3467 1137.93 78 1135.26 79.12C1132.6 80.24 1129.77 80.8 1126.78 80.8ZM1156.5 80V25.6H1165.3V80H1156.5ZM1147.3 49.6V41.6H1174.5V49.6H1147.3ZM1195.88 80.8C1192.42 80.8 1189.27 79.92 1186.44 78.16C1183.67 76.4 1181.46 74.0267 1179.8 71.04C1178.2 68 1177.4 64.6133 1177.4 60.88C1177.4 57.0933 1178.2 53.7067 1179.8 50.72C1181.46 47.68 1183.67 45.28 1186.44 43.52C1189.27 41.7067 1192.42 40.8 1195.88 40.8C1198.82 40.8 1201.4 41.44 1203.64 42.72C1205.94 43.9467 1207.75 45.6533 1209.08 47.84C1210.42 50.0267 1211.08 52.5067 1211.08 55.28V66.32C1211.08 69.0933 1210.42 71.5733 1209.08 73.76C1207.8 75.9467 1206.02 77.68 1203.72 78.96C1201.43 80.1867 1198.82 80.8 1195.88 80.8ZM1197.32 72.48C1200.58 72.48 1203.19 71.3867 1205.16 69.2C1207.19 67.0133 1208.2 64.2133 1208.2 60.8C1208.2 58.5067 1207.75 56.48 1206.84 54.72C1205.94 52.96 1204.66 51.6 1203 50.64C1201.4 49.6267 1199.51 49.12 1197.32 49.12C1195.19 49.12 1193.3 49.6267 1191.64 50.64C1190.04 51.6 1188.76 52.96 1187.8 54.72C1186.9 56.48 1186.44 58.5067 1186.44 60.8C1186.44 63.0933 1186.9 65.12 1187.8 66.88C1188.76 68.64 1190.04 70.0267 1191.64 71.04C1193.3 72 1195.19 72.48 1197.32 72.48ZM1207.64 80V69.68L1209.16 60.32L1207.64 51.04V41.6H1216.44V80H1207.64ZM1226.21 80V22.4H1235.01V80H1226.21ZM1287.14 80V57.84C1287.14 55.28 1286.31 53.1733 1284.66 51.52C1283.06 49.8667 1280.98 49.04 1278.42 49.04C1276.71 49.04 1275.19 49.4133 1273.86 50.16C1272.52 50.9067 1271.48 51.9467 1270.74 53.28C1269.99 54.6133 1269.62 56.1333 1269.62 57.84L1266.18 55.92C1266.18 52.9867 1266.82 50.4 1268.1 48.16C1269.38 45.8667 1271.14 44.08 1273.38 42.8C1275.67 41.4667 1278.23 40.8 1281.06 40.8C1283.94 40.8 1286.5 41.5467 1288.74 43.04C1290.98 44.48 1292.74 46.3733 1294.02 48.72C1295.3 51.0133 1295.94 53.4133 1295.94 55.92V80H1287.14ZM1260.82 80V41.6H1269.62V80H1260.82ZM1322.48 80.8C1318.75 80.8 1315.36 79.92 1312.32 78.16C1309.28 76.3467 1306.85 73.92 1305.04 70.88C1303.28 67.84 1302.4 64.4533 1302.4 60.72C1302.4 56.9867 1303.28 53.6267 1305.04 50.64C1306.85 47.6533 1309.28 45.28 1312.32 43.52C1315.36 41.7067 1318.75 40.8 1322.48 40.8C1326.27 40.8 1329.68 41.68 1332.72 43.44C1335.76 45.2 1338.16 47.6 1339.92 50.64C1341.73 53.6267 1342.64 56.9867 1342.64 60.72C1342.64 64.4533 1341.73 67.84 1339.92 70.88C1338.16 73.92 1335.76 76.3467 1332.72 78.16C1329.68 79.92 1326.27 80.8 1322.48 80.8ZM1322.48 72.32C1324.67 72.32 1326.59 71.84 1328.24 70.88C1329.95 69.8667 1331.25 68.48 1332.16 66.72C1333.12 64.96 1333.6 62.96 1333.6 60.72C1333.6 58.48 1333.12 56.5067 1332.16 54.8C1331.2 53.0933 1329.89 51.76 1328.24 50.8C1326.59 49.7867 1324.67 49.28 1322.48 49.28C1320.35 49.28 1318.43 49.7867 1316.72 50.8C1315.07 51.76 1313.76 53.0933 1312.8 54.8C1311.89 56.5067 1311.44 58.48 1311.44 60.72C1311.44 62.96 1311.89 64.96 1312.8 66.72C1313.76 68.48 1315.07 69.8667 1316.72 70.88C1318.43 71.84 1320.35 72.32 1322.48 72.32ZM1365.97 80V41.6H1374.77V80H1365.97ZM1391.49 80V57.12C1391.49 54.56 1390.69 52.5867 1389.09 51.2C1387.49 49.76 1385.52 49.04 1383.17 49.04C1381.57 49.04 1380.13 49.36 1378.85 50C1377.63 50.64 1376.64 51.5733 1375.89 52.8C1375.15 53.9733 1374.77 55.4133 1374.77 57.12L1371.33 55.2C1371.33 52.2667 1371.97 49.7333 1373.25 47.6C1374.53 45.4667 1376.27 43.8133 1378.45 42.64C1380.64 41.4133 1383.09 40.8 1385.81 40.8C1388.53 40.8 1390.99 41.3867 1393.17 42.56C1395.36 43.7333 1397.09 45.3867 1398.37 47.52C1399.65 49.6533 1400.29 52.2133 1400.29 55.2V80H1391.49ZM1417.01 80V57.12C1417.01 54.56 1416.21 52.5867 1414.61 51.2C1413.01 49.76 1411.04 49.04 1408.69 49.04C1407.15 49.04 1405.73 49.36 1404.45 50C1403.17 50.64 1402.16 51.5733 1401.41 52.8C1400.67 53.9733 1400.29 55.4133 1400.29 57.12L1395.33 55.2C1395.6 52.2667 1396.45 49.7333 1397.89 47.6C1399.33 45.4667 1401.17 43.8133 1403.41 42.64C1405.71 41.4133 1408.21 40.8 1410.93 40.8C1413.71 40.8 1416.21 41.3867 1418.45 42.56C1420.69 43.7333 1422.48 45.3867 1423.81 47.52C1425.15 49.6533 1425.81 52.2133 1425.81 55.2V80H1417.01ZM1450.64 80.8C1447.39 80.8 1444.48 80.08 1441.92 78.64C1439.41 77.2 1437.44 75.2267 1436 72.72C1434.61 70.16 1433.92 67.2267 1433.92 63.92V41.6H1442.72V63.52C1442.72 65.3867 1443.01 66.9867 1443.6 68.32C1444.24 69.6 1445.15 70.5867 1446.32 71.28C1447.55 71.9733 1448.99 72.32 1450.64 72.32C1453.2 72.32 1455.15 71.5733 1456.48 70.08C1457.87 68.5333 1458.56 66.3467 1458.56 63.52V41.6H1467.36V63.92C1467.36 67.28 1466.64 70.24 1465.2 72.8C1463.81 75.3067 1461.87 77.28 1459.36 78.72C1456.85 80.1067 1453.95 80.8 1450.64 80.8ZM1502.53 80V57.84C1502.53 55.28 1501.7 53.1733 1500.05 51.52C1498.45 49.8667 1496.37 49.04 1493.81 49.04C1492.1 49.04 1490.58 49.4133 1489.25 50.16C1487.91 50.9067 1486.87 51.9467 1486.13 53.28C1485.38 54.6133 1485.01 56.1333 1485.01 57.84L1481.57 55.92C1481.57 52.9867 1482.21 50.4 1483.49 48.16C1484.77 45.8667 1486.53 44.08 1488.77 42.8C1491.06 41.4667 1493.62 40.8 1496.45 40.8C1499.33 40.8 1501.89 41.5467 1504.13 43.04C1506.37 44.48 1508.13 46.3733 1509.41 48.72C1510.69 51.0133 1511.33 53.4133 1511.33 55.92V80H1502.53ZM1476.21 80V41.6H1485.01V80H1476.21ZM1520.35 80V41.6H1529.15V80H1520.35ZM1524.75 34.56C1523.26 34.56 1522 34.0533 1520.99 33.04C1520.03 32.0267 1519.55 30.7733 1519.55 29.28C1519.55 27.7867 1520.03 26.5333 1520.99 25.52C1522 24.5067 1523.26 24 1524.75 24C1526.3 24 1527.55 24.5067 1528.51 25.52C1529.47 26.5333 1529.95 27.7867 1529.95 29.28C1529.95 30.7733 1529.47 32.0267 1528.51 33.04C1527.55 34.0533 1526.3 34.56 1524.75 34.56ZM1556.7 80.8C1552.91 80.8 1549.47 79.92 1546.38 78.16C1543.34 76.4 1540.94 74 1539.18 70.96C1537.42 67.92 1536.54 64.5333 1536.54 60.8C1536.54 57.0133 1537.42 53.6267 1539.18 50.64C1540.94 47.6 1543.34 45.2 1546.38 43.44C1549.47 41.68 1552.91 40.8 1556.7 40.8C1559.69 40.8 1562.46 41.3867 1565.02 42.56C1567.63 43.68 1569.85 45.3067 1571.66 47.44L1565.9 53.28C1564.78 51.9467 1563.42 50.96 1561.82 50.32C1560.27 49.6267 1558.57 49.28 1556.7 49.28C1554.51 49.28 1552.57 49.7867 1550.86 50.8C1549.21 51.76 1547.9 53.0933 1546.94 54.8C1546.03 56.5067 1545.58 58.5067 1545.58 60.8C1545.58 63.04 1546.03 65.04 1546.94 66.8C1547.9 68.5067 1549.21 69.8667 1550.86 70.88C1552.57 71.84 1554.51 72.32 1556.7 72.32C1558.57 72.32 1560.27 72 1561.82 71.36C1563.42 70.6667 1564.78 69.6533 1565.9 68.32L1571.66 74.16C1569.85 76.2933 1567.63 77.9467 1565.02 79.12C1562.46 80.24 1559.69 80.8 1556.7 80.8ZM1578.01 80V41.6H1586.81V80H1578.01ZM1577.85 36.08L1573.85 32.08L1584.09 19.04L1590.89 25.84L1577.85 36.08ZM1617.16 80.8C1614.23 80.8 1611.61 80.1867 1609.32 78.96C1607.03 77.68 1605.21 75.9467 1603.88 73.76C1602.6 71.5733 1601.96 69.0933 1601.96 66.32V55.28C1601.96 52.5067 1602.63 50.0267 1603.96 47.84C1605.29 45.6533 1607.11 43.9467 1609.4 42.72C1611.69 41.44 1614.28 40.8 1617.16 40.8C1620.63 40.8 1623.75 41.7067 1626.52 43.52C1629.35 45.28 1631.56 47.68 1633.16 50.72C1634.81 53.7067 1635.64 57.0933 1635.64 60.88C1635.64 64.6133 1634.81 68 1633.16 71.04C1631.56 74.0267 1629.35 76.4 1626.52 78.16C1623.75 79.92 1620.63 80.8 1617.16 80.8ZM1596.6 96V41.6H1605.4V51.92L1603.88 61.28L1605.4 70.56V96H1596.6ZM1615.72 72.48C1617.85 72.48 1619.72 72 1621.32 71.04C1622.97 70.0267 1624.25 68.64 1625.16 66.88C1626.12 65.12 1626.6 63.0933 1626.6 60.8C1626.6 58.5067 1626.12 56.48 1625.16 54.72C1624.25 52.96 1622.97 51.6 1621.32 50.64C1619.72 49.6267 1617.85 49.12 1615.72 49.12C1613.59 49.12 1611.69 49.6267 1610.04 50.64C1608.39 51.6 1607.11 52.96 1606.2 54.72C1605.29 56.48 1604.84 58.5067 1604.84 60.8C1604.84 63.0933 1605.29 65.12 1606.2 66.88C1607.11 68.64 1608.39 70.0267 1610.04 71.04C1611.69 72 1613.59 72.48 1615.72 72.48ZM1643.09 80V41.6H1651.89V80H1643.09ZM1647.49 34.56C1645.99 34.56 1644.74 34.0533 1643.73 33.04C1642.77 32.0267 1642.29 30.7733 1642.29 29.28C1642.29 27.7867 1642.77 26.5333 1643.73 25.52C1644.74 24.5067 1645.99 24 1647.49 24C1649.03 24 1650.29 24.5067 1651.25 25.52C1652.21 26.5333 1652.69 27.7867 1652.69 29.28C1652.69 30.7733 1652.21 32.0267 1651.25 33.04C1650.29 34.0533 1649.03 34.56 1647.49 34.56ZM1679.36 80.8C1675.62 80.8 1672.24 79.92 1669.2 78.16C1666.16 76.3467 1663.73 73.92 1661.92 70.88C1660.16 67.84 1659.28 64.4533 1659.28 60.72C1659.28 56.9867 1660.16 53.6267 1661.92 50.64C1663.73 47.6533 1666.16 45.28 1669.2 43.52C1672.24 41.7067 1675.62 40.8 1679.36 40.8C1683.14 40.8 1686.56 41.68 1689.6 43.44C1692.64 45.2 1695.04 47.6 1696.8 50.64C1698.61 53.6267 1699.52 56.9867 1699.52 60.72C1699.52 64.4533 1698.61 67.84 1696.8 70.88C1695.04 73.92 1692.64 76.3467 1689.6 78.16C1686.56 79.92 1683.14 80.8 1679.36 80.8ZM1679.36 72.32C1681.54 72.32 1683.46 71.84 1685.12 70.88C1686.82 69.8667 1688.13 68.48 1689.04 66.72C1690 64.96 1690.48 62.96 1690.48 60.72C1690.48 58.48 1690 56.5067 1689.04 54.8C1688.08 53.0933 1686.77 51.76 1685.12 50.8C1683.46 49.7867 1681.54 49.28 1679.36 49.28C1677.22 49.28 1675.3 49.7867 1673.6 50.8C1671.94 51.76 1670.64 53.0933 1669.68 54.8C1668.77 56.5067 1668.32 58.48 1668.32 60.72C1668.32 62.96 1668.77 64.96 1669.68 66.72C1670.64 68.48 1671.94 69.8667 1673.6 70.88C1675.3 71.84 1677.22 72.32 1679.36 72.32Z" fill="#318D0C"/>
</svg>
