<svg width="4892" height="1260" viewBox="0 0 4892 1260" fill="none" xmlns="http://www.w3.org/2000/svg">
<g clip-path="url(#clip0_17205_104)">
<path d="M-6.74219 -2.30371H4891.43V1260H-6.74219V-2.30371Z" fill="#56C02B"/>
<path d="M346.196 508.461C346.771 508.465 347.321 508.696 347.727 509.104C348.133 509.512 348.36 510.064 348.36 510.639V582.562C348.364 582.847 348.31 583.131 348.203 583.396C348.096 583.661 347.937 583.902 347.735 584.105C347.534 584.308 347.294 584.468 347.029 584.577C346.765 584.686 346.481 584.742 346.196 584.74H317.089C316.801 584.743 316.516 584.69 316.249 584.582C315.983 584.474 315.74 584.313 315.536 584.111C315.332 583.908 315.17 583.666 315.061 583.4C314.951 583.134 314.895 582.849 314.897 582.562V510.639C314.901 510.061 315.133 509.507 315.544 509.098C315.955 508.69 316.51 508.461 317.089 508.461H346.196ZM665.795 615.63H186.192C185.604 615.64 185.045 615.882 184.635 616.303C184.224 616.723 183.996 617.288 184 617.876V647.186C184.002 647.473 184.06 647.755 184.171 648.019C184.282 648.283 184.444 648.522 184.648 648.723C184.851 648.924 185.092 649.083 185.357 649.191C185.622 649.298 185.906 649.353 186.192 649.351H665.795C666.372 649.351 666.927 649.124 667.34 648.72C667.752 648.315 667.989 647.764 668 647.186V617.876C667.997 617.288 667.764 616.725 667.353 616.306C666.941 615.886 666.382 615.644 665.795 615.63ZM665.795 673.883H186.192C185.906 673.881 185.622 673.936 185.357 674.044C185.092 674.152 184.851 674.311 184.648 674.512C184.444 674.713 184.282 674.952 184.171 675.215C184.06 675.479 184.002 675.762 184 676.048V705.454C184.011 706.029 184.246 706.578 184.655 706.982C185.065 707.387 185.616 707.615 186.192 707.618H665.795C666.371 707.615 666.924 707.387 667.336 706.983C667.748 706.579 667.986 706.031 668 705.454V676.048C667.989 675.47 667.752 674.92 667.34 674.515C666.927 674.11 666.372 673.883 665.795 673.883ZM574.541 428.847C568.537 424.164 552.554 413.219 533.046 413.219C519.105 413.219 506.131 418.664 494.532 429.555C494.123 429.942 493.798 430.408 493.578 430.926C493.358 431.444 493.247 432.001 493.253 432.564V435.246C493.225 435.859 493.332 436.471 493.567 437.038C493.803 437.605 494.16 438.114 494.614 438.527C495.078 438.91 495.624 439.179 496.21 439.314C496.796 439.449 497.406 439.445 497.99 439.303C498.301 439.263 498.607 439.19 498.902 439.085C499.804 438.76 500.622 438.239 501.298 437.56C503.803 435.872 510.678 433.558 520.507 433.558C530.663 433.558 550.621 436.281 569.926 454.278L570.361 454.673C570.907 455.226 571.558 455.665 572.276 455.962C572.994 456.259 573.764 456.408 574.541 456.402C575.3 456.408 576.052 456.262 576.754 455.972C577.455 455.682 578.092 455.254 578.625 454.714L579.006 454.305C598.406 436.281 618.337 433.558 628.493 433.558C638.39 433.558 645.238 435.872 647.756 437.56C648.529 438.301 649.46 438.855 650.479 439.18C651.393 439.436 652.354 439.469 653.283 439.276C654.154 439.041 654.922 438.526 655.469 437.809C656.015 437.093 656.31 436.215 656.306 435.314V433C656.299 432.444 656.181 431.895 655.959 431.385C655.737 430.875 655.415 430.415 655.012 430.032C643.304 418.868 630.194 413.232 616.036 413.232C596.704 413.232 580.79 424.001 574.636 428.888M544.767 237.695C544.259 237.943 543.81 238.298 543.451 238.735C543.091 239.172 542.83 239.681 542.684 240.227L542.194 241.82C542.011 242.429 541.972 243.072 542.081 243.698C542.189 244.324 542.443 244.917 542.821 245.428C543.167 245.897 543.613 246.284 544.126 246.562C544.638 246.839 545.206 247.001 545.788 247.034C545.986 247.074 546.19 247.074 546.387 247.034C547.198 247.018 547.994 246.818 548.715 246.449C549.664 246.217 550.639 246.108 551.615 246.122C553.766 246.122 573.098 246.776 585.881 268.503L586.045 268.816C586.359 269.413 586.794 269.939 587.321 270.361C587.848 270.782 588.456 271.091 589.108 271.267C589.609 271.409 590.126 271.486 590.646 271.498C591.487 271.504 592.315 271.298 593.056 270.899L593.369 270.75C600.007 267.344 607.35 265.539 614.811 265.481C626.927 265.481 634.837 270.423 636.688 272.492C637.083 273.196 637.626 273.804 638.281 274.276C638.784 274.563 639.307 274.814 639.847 275.024C640.08 275.076 640.316 275.113 640.554 275.133C640.699 275.147 640.845 275.147 640.99 275.133C641.873 275.125 642.731 274.836 643.439 274.307C644.146 273.778 644.667 273.038 644.924 272.193L645.319 270.831C645.442 270.458 645.502 270.067 645.496 269.674C645.506 268.946 645.313 268.229 644.938 267.605C635.626 251.432 622.108 248.055 612.401 248.055C606.503 248.134 600.664 249.23 595.139 251.295C590.741 245.387 579.646 233.175 562.792 233.175C556.523 233.255 550.361 234.813 544.808 237.722M443.426 311.482L443.576 313.633C443.602 314.288 443.79 314.927 444.123 315.492C444.455 316.057 444.922 316.532 445.481 316.873C445.957 317.172 446.488 317.37 447.044 317.455C447.599 317.539 448.165 317.508 448.708 317.363C448.939 317.363 449.212 317.214 449.416 317.146C450.222 316.811 450.933 316.283 451.485 315.607C453.527 314.137 460.089 311.455 469.782 311.455C479.094 311.455 493.266 313.946 507.697 325.804L508.037 326.144C509.07 327.024 510.383 327.507 511.74 327.506H512.094C513.535 327.416 514.884 326.766 515.851 325.695L516.178 325.341C532.161 308.446 549.382 305.914 558.218 305.914C564.521 305.914 568.986 307.276 570.729 308.201C571.448 308.82 572.301 309.263 573.22 309.495C573.795 309.631 574.388 309.672 574.976 309.617C575.318 309.561 575.655 309.479 575.984 309.372C576.819 309.078 577.536 308.521 578.027 307.785C578.518 307.048 578.757 306.172 578.707 305.288L578.598 303.409C578.56 302.862 578.413 302.329 578.166 301.84C577.918 301.351 577.574 300.917 577.155 300.564C567.625 292.532 557.306 288.489 546.469 288.489C529.601 288.489 516.151 298.454 510.569 303.341C505.464 299.87 493.089 292.722 478.577 292.722C465.807 292.722 454.371 298.018 444.542 308.446C444.162 308.857 443.868 309.34 443.676 309.866C443.485 310.392 443.399 310.95 443.426 311.51M200.731 349.982C200.731 336.2 206.204 322.982 215.945 313.233C225.686 303.484 238.9 298.002 252.682 297.991C253.812 297.991 254.901 298.086 256.017 298.154C256.778 287.821 259.812 277.784 264.904 268.761C269.996 259.737 277.018 251.95 285.47 245.957C293.922 239.964 303.593 235.913 313.793 234.093C323.993 232.273 334.469 232.73 344.471 235.431C354.474 238.131 363.756 243.009 371.654 249.715C379.552 256.421 385.871 264.789 390.158 274.222C394.444 283.654 396.594 293.917 396.452 304.277C396.311 314.637 393.881 324.838 389.338 334.149C408.243 338.343 424.935 349.369 436.211 365.112C447.488 380.856 452.555 400.208 450.441 419.457C448.327 438.706 439.18 456.498 424.756 469.418C410.332 482.339 391.645 489.479 372.28 489.47C369.108 489.47 267.358 488.857 267.358 488.857C256.491 488.866 245.86 485.691 236.778 479.725C227.696 473.759 220.561 465.263 216.254 455.287C211.947 445.31 210.658 434.29 212.544 423.589C214.431 412.888 219.411 402.974 226.87 395.071C218.925 390.527 212.322 383.963 207.732 376.045C203.142 368.127 200.726 359.135 200.731 349.982Z" fill="white"/>
<path d="M867.295 473.994V236.276H885.262L987.881 404.544H975.097L1077.72 236.276H1095.68V473.994H1070.12V280.502L1075.99 281.884L990.3 422.512H972.333L886.644 281.884L892.518 280.502V473.994H867.295ZM1214.87 477.449C1198.51 477.449 1183.89 473.764 1170.99 466.393C1158.09 459.022 1147.84 448.886 1140.23 435.987C1132.86 423.087 1129.18 408.575 1129.18 392.451C1129.18 376.557 1132.86 362.276 1140.23 349.607C1147.61 336.707 1157.63 326.572 1170.29 319.201C1182.96 311.83 1197.13 308.144 1212.79 308.144C1227.54 308.144 1240.55 311.484 1251.84 318.164C1263.36 324.844 1272.34 334.173 1278.79 346.151C1285.47 357.899 1288.81 371.49 1288.81 386.923C1288.81 388.766 1288.69 390.954 1288.46 393.488C1288.23 395.791 1287.77 398.555 1287.08 401.78H1146.45V381.049H1273.95L1265.31 388.65C1265.54 376.672 1263.47 366.422 1259.09 357.899C1254.95 349.146 1248.84 342.466 1240.78 337.859C1232.95 333.022 1223.39 330.603 1212.1 330.603C1200.36 330.603 1190.1 333.137 1181.35 338.204C1172.6 343.272 1165.69 350.413 1160.62 359.627C1155.78 368.61 1153.36 379.321 1153.36 391.76C1153.36 404.199 1155.9 415.14 1160.97 424.585C1166.26 434.029 1173.52 441.4 1182.73 446.698C1192.18 451.996 1203 454.645 1215.21 454.645C1225.12 454.645 1234.22 452.917 1242.51 449.462C1250.8 445.777 1257.83 440.363 1263.59 433.223L1279.13 449.117C1271.53 458.1 1262.09 465.126 1250.8 470.193C1239.74 475.031 1227.77 477.449 1214.87 477.449ZM1315.44 473.994V311.599H1339.98V473.994H1315.44ZM1327.54 276.356C1322.93 276.356 1319.01 274.744 1315.79 271.519C1312.56 268.064 1310.95 264.033 1310.95 259.426C1310.95 254.588 1312.56 250.557 1315.79 247.332C1319.01 244.107 1322.93 242.495 1327.54 242.495C1332.6 242.495 1336.64 244.107 1339.63 247.332C1342.85 250.557 1344.47 254.588 1344.47 259.426C1344.47 264.033 1342.85 268.064 1339.63 271.519C1336.64 274.744 1332.6 276.356 1327.54 276.356ZM1452.23 477.449C1436.57 477.449 1422.29 473.649 1409.39 466.047C1396.72 458.446 1386.58 448.195 1378.98 435.296C1371.61 422.396 1367.92 408 1367.92 392.106C1367.92 376.442 1371.61 362.276 1378.98 349.607C1386.58 336.937 1396.72 326.917 1409.39 319.546C1422.29 311.945 1436.57 308.144 1452.23 308.144C1468.13 308.144 1482.41 311.83 1495.08 319.201C1507.75 326.572 1517.77 336.707 1525.14 349.607C1532.74 362.276 1536.54 376.442 1536.54 392.106C1536.54 408.23 1532.74 422.742 1525.14 435.641C1517.77 448.31 1507.75 458.446 1495.08 466.047C1482.41 473.649 1468.13 477.449 1452.23 477.449ZM1452.23 453.954C1463.75 453.954 1473.88 451.305 1482.64 446.007C1491.62 440.709 1498.65 433.338 1503.71 423.894C1509.01 414.449 1511.66 403.853 1511.66 392.106C1511.66 380.358 1509.01 369.992 1503.71 361.009C1498.65 351.795 1491.62 344.539 1482.64 339.241C1473.88 333.943 1463.75 331.294 1452.23 331.294C1440.94 331.294 1430.81 333.943 1421.83 339.241C1412.84 344.539 1405.82 351.795 1400.75 361.009C1395.68 369.992 1393.15 380.358 1393.15 392.106C1393.15 404.084 1395.68 414.795 1400.75 424.239C1405.82 433.453 1412.84 440.709 1421.83 446.007C1430.81 451.305 1440.94 453.954 1452.23 453.954ZM1606.98 473.994L1704.42 236.276H1723.43L1819.83 473.994H1792.53L1708.57 263.917H1718.59L1633.94 473.994H1606.98ZM1651.56 412.146V389.687H1775.94V412.146H1651.56ZM1846.92 473.994V311.599H1871.11V473.994H1846.92ZM1958.53 473.994V374.484C1958.53 361.124 1954.5 350.528 1946.43 342.696C1938.37 334.634 1928.24 330.603 1916.03 330.603C1907.74 330.603 1900.14 332.446 1893.22 336.131C1886.54 339.586 1881.13 344.539 1876.99 350.989C1873.07 357.438 1871.11 365.155 1871.11 374.139L1860.05 369.647C1860.05 357.208 1862.82 346.382 1868.35 337.168C1873.88 327.954 1881.25 320.813 1890.46 315.745C1899.9 310.678 1910.5 308.144 1922.25 308.144C1933.77 308.144 1944.02 310.678 1953 315.745C1962.21 320.813 1969.47 327.954 1974.77 337.168C1980.3 346.382 1983.06 357.323 1983.06 369.992V473.994H1958.53ZM2070.48 473.994V374.484C2070.48 361.124 2066.45 350.528 2058.38 342.696C2050.32 334.634 2040.07 330.603 2027.63 330.603C2019.57 330.603 2012.08 332.446 2005.17 336.131C1998.49 339.586 1993.08 344.539 1988.93 350.989C1985.02 357.438 1983.06 365.155 1983.06 374.139L1968.55 369.647C1969.24 357.208 1972.46 346.382 1978.22 337.168C1984.21 327.954 1991.93 320.813 2001.37 315.745C2011.05 310.678 2021.64 308.144 2033.16 308.144C2044.68 308.144 2055.04 310.678 2064.26 315.745C2073.7 320.813 2081.07 327.954 2086.37 337.168C2091.9 346.382 2094.66 357.323 2094.66 369.992V473.994H2070.48ZM2213.74 477.449C2201.3 477.449 2190.13 474.916 2180.23 469.848C2170.32 464.78 2162.14 457.87 2155.69 449.117C2149.47 440.133 2145.67 429.767 2144.29 418.02V367.228C2145.67 355.25 2149.59 344.884 2156.04 336.131C2162.49 327.148 2170.67 320.237 2180.57 315.4C2190.71 310.563 2201.76 308.144 2213.74 308.144C2228.71 308.144 2242.19 311.945 2254.17 319.546C2266.15 326.917 2275.59 337.053 2282.5 349.952C2289.64 362.621 2293.21 377.018 2293.21 393.142C2293.21 409.036 2289.76 423.318 2282.85 435.987C2275.94 448.656 2266.38 458.791 2254.17 466.393C2242.19 473.764 2228.71 477.449 2213.74 477.449ZM2129.78 473.994V229.365H2153.97V351.334L2149.13 390.378L2153.97 430.458V473.994H2129.78ZM2209.6 454.299C2221.11 454.299 2231.25 451.766 2240 446.698C2248.75 441.4 2255.55 434.144 2260.39 424.93C2265.45 415.486 2267.99 404.775 2267.99 392.797C2267.99 380.588 2265.45 369.877 2260.39 360.663C2255.55 351.449 2248.75 344.193 2240 338.895C2231.25 333.597 2221.23 330.948 2209.94 330.948C2198.65 330.948 2188.63 333.597 2179.88 338.895C2171.36 344.193 2164.68 351.449 2159.84 360.663C2155 369.877 2152.58 380.588 2152.58 392.797C2152.58 404.775 2155 415.486 2159.84 424.93C2164.68 434.144 2171.36 441.4 2179.88 446.698C2188.4 451.766 2198.31 454.299 2209.6 454.299ZM2321.53 473.994V311.599H2346.06V473.994H2321.53ZM2333.62 276.356C2329.02 276.356 2325.1 274.744 2321.88 271.519C2318.65 268.064 2317.04 264.033 2317.04 259.426C2317.04 254.588 2318.65 250.557 2321.88 247.332C2325.1 244.107 2329.02 242.495 2333.62 242.495C2338.69 242.495 2342.72 244.107 2345.72 247.332C2348.94 250.557 2350.55 254.588 2350.55 259.426C2350.55 264.033 2348.94 268.064 2345.72 271.519C2342.72 274.744 2338.69 276.356 2333.62 276.356ZM2459.7 477.449C2443.35 477.449 2428.72 473.764 2415.82 466.393C2402.92 459.022 2392.67 448.886 2385.07 435.987C2377.7 423.087 2374.01 408.575 2374.01 392.451C2374.01 376.557 2377.7 362.276 2385.07 349.607C2392.44 336.707 2402.46 326.572 2415.13 319.201C2427.8 311.83 2441.96 308.144 2457.63 308.144C2472.37 308.144 2485.38 311.484 2496.67 318.164C2508.19 324.844 2517.17 334.173 2523.62 346.151C2530.3 357.899 2533.64 371.49 2533.64 386.923C2533.64 388.766 2533.53 390.954 2533.3 393.488C2533.07 395.791 2532.61 398.555 2531.91 401.78H2391.29V381.049H2518.79L2510.15 388.65C2510.38 376.672 2508.3 366.422 2503.93 357.899C2499.78 349.146 2493.68 342.466 2485.62 337.859C2477.78 333.022 2468.22 330.603 2456.94 330.603C2445.19 330.603 2434.94 333.137 2426.19 338.204C2417.43 343.272 2410.52 350.413 2405.45 359.627C2400.62 368.61 2398.2 379.321 2398.2 391.76C2398.2 404.199 2400.73 415.14 2405.8 424.585C2411.1 434.029 2418.35 441.4 2427.57 446.698C2437.01 451.996 2447.84 454.645 2460.05 454.645C2469.95 454.645 2479.05 452.917 2487.34 449.462C2495.64 445.777 2502.66 440.363 2508.42 433.223L2523.97 449.117C2516.37 458.1 2506.92 465.126 2495.64 470.193C2484.58 475.031 2472.6 477.449 2459.7 477.449ZM2678.45 473.994V378.63C2678.45 364.349 2674.18 352.831 2665.66 344.078C2657.37 335.095 2646.31 330.603 2632.49 330.603C2623.05 330.603 2614.75 332.676 2607.61 336.822C2600.47 340.969 2594.83 346.612 2590.68 353.753C2586.54 360.894 2584.46 369.071 2584.46 378.285L2573.41 372.065C2573.41 359.857 2576.29 348.916 2582.05 339.241C2587.8 329.566 2595.52 321.965 2605.2 316.437C2615.1 310.908 2626.39 308.144 2639.06 308.144C2651.49 308.144 2662.55 311.139 2672.23 317.128C2681.9 323.117 2689.39 331.179 2694.69 341.314C2700.21 351.449 2702.98 362.506 2702.98 374.484V473.994H2678.45ZM2560.28 473.994V311.599H2584.46V473.994H2560.28ZM2761.05 473.994V243.186H2785.24V473.994H2761.05ZM2719.94 333.367V311.599H2826.01V333.367H2719.94ZM2918.2 477.449C2901.85 477.449 2887.22 473.764 2874.32 466.393C2861.42 459.022 2851.17 448.886 2843.57 435.987C2836.2 423.087 2832.52 408.575 2832.52 392.451C2832.52 376.557 2836.2 362.276 2843.57 349.607C2850.94 336.707 2860.96 326.572 2873.63 319.201C2886.3 311.83 2900.47 308.144 2916.13 308.144C2930.87 308.144 2943.89 311.484 2955.18 318.164C2966.69 324.844 2975.68 334.173 2982.13 346.151C2988.81 357.899 2992.15 371.49 2992.15 386.923C2992.15 388.766 2992.03 390.954 2991.8 393.488C2991.57 395.791 2991.11 398.555 2990.42 401.78H2849.79V381.049H2977.29L2968.65 388.65C2968.88 376.672 2966.81 366.422 2962.43 357.899C2958.29 349.146 2952.18 342.466 2944.12 337.859C2936.29 333.022 2926.73 330.603 2915.44 330.603C2903.69 330.603 2893.44 333.137 2884.69 338.204C2875.94 343.272 2869.03 350.413 2863.96 359.627C2859.12 368.61 2856.7 379.321 2856.7 391.76C2856.7 404.199 2859.24 415.14 2864.3 424.585C2869.6 434.029 2876.86 441.4 2886.07 446.698C2895.52 451.996 2906.34 454.645 2918.55 454.645C2928.46 454.645 2937.55 452.917 2945.85 449.462C2954.14 445.777 2961.16 440.363 2966.92 433.223L2982.47 449.117C2974.87 458.1 2965.43 465.126 2954.14 470.193C2943.08 475.031 2931.1 477.449 2918.2 477.449Z" fill="white"/>
<path d="M856.431 696.627V616.005H869.676V696.627H856.431ZM924.453 696.627V664.724C924.453 661.038 923.263 658.005 920.882 655.625C918.579 653.245 915.584 652.055 911.899 652.055C909.442 652.055 907.253 652.592 905.334 653.667C903.414 654.742 901.917 656.239 900.842 658.159C899.767 660.079 899.23 662.267 899.23 664.724L894.277 661.96C894.277 657.737 895.199 654.013 897.041 650.788C898.884 647.486 901.418 644.914 904.643 643.071C907.944 641.152 911.63 640.192 915.699 640.192C919.846 640.192 923.531 641.267 926.756 643.417C929.981 645.49 932.515 648.216 934.358 651.594C936.2 654.896 937.122 658.351 937.122 661.96V696.627H924.453ZM886.561 696.627V641.344H899.23V696.627H886.561ZM974.298 697.779C969.307 697.779 964.777 696.512 960.707 693.978C956.715 691.444 953.528 688.027 951.148 683.728C948.844 679.351 947.693 674.475 947.693 669.1C947.693 663.649 948.844 658.773 951.148 654.473C953.528 650.097 956.715 646.642 960.707 644.108C964.777 641.497 969.307 640.192 974.298 640.192C978.521 640.192 982.245 641.113 985.47 642.956C988.771 644.722 991.382 647.179 993.301 650.327C995.221 653.475 996.181 657.046 996.181 661.038V676.932C996.181 680.925 995.221 684.495 993.301 687.643C991.459 690.791 988.886 693.287 985.585 695.13C982.283 696.896 978.521 697.779 974.298 697.779ZM976.371 685.801C979.519 685.801 982.245 685.11 984.548 683.728C986.928 682.269 988.771 680.272 990.076 677.738C991.382 675.205 992.034 672.287 992.034 668.985C992.034 665.684 991.382 662.766 990.076 660.232C988.771 657.698 986.928 655.74 984.548 654.358C982.245 652.899 979.519 652.17 976.371 652.17C973.3 652.17 970.574 652.899 968.193 654.358C965.89 655.74 964.047 657.698 962.665 660.232C961.36 662.766 960.707 665.684 960.707 668.985C960.707 672.287 961.36 675.205 962.665 677.738C964.047 680.272 965.89 682.269 968.193 683.728C970.574 685.11 973.3 685.801 976.371 685.801ZM1003.9 696.627H991.228V681.77L993.417 668.294L991.228 654.934V613.702H1003.9V696.627ZM1019.22 696.627V641.344H1031.89V696.627H1019.22ZM1025.56 631.208C1023.41 631.208 1021.6 630.479 1020.15 629.02C1018.76 627.561 1018.07 625.757 1018.07 623.607C1018.07 621.457 1018.76 619.653 1020.15 618.194C1021.6 616.735 1023.41 616.005 1025.56 616.005C1027.79 616.005 1029.59 616.735 1030.97 618.194C1032.35 619.653 1033.05 621.457 1033.05 623.607C1033.05 625.757 1032.35 627.561 1030.97 629.02C1029.59 630.479 1027.79 631.208 1025.56 631.208ZM1072.71 697.779C1067.26 697.779 1062.3 696.512 1057.85 693.978C1053.47 691.444 1050.02 687.989 1047.49 683.612C1044.95 679.236 1043.68 674.36 1043.68 668.985C1043.68 663.534 1044.95 658.658 1047.49 654.358C1050.02 649.982 1053.47 646.526 1057.85 643.993C1062.3 641.459 1067.26 640.192 1072.71 640.192C1077.01 640.192 1081 641.036 1084.69 642.726C1088.45 644.338 1091.64 646.68 1094.25 649.751L1085.95 658.159C1084.34 656.239 1082.38 654.819 1080.08 653.898C1077.85 652.899 1075.4 652.4 1072.71 652.4C1069.56 652.4 1066.76 653.13 1064.3 654.589C1061.92 655.971 1060.04 657.89 1058.66 660.347C1057.35 662.804 1056.7 665.684 1056.7 668.985C1056.7 672.21 1057.35 675.089 1058.66 677.623C1060.04 680.08 1061.92 682.038 1064.3 683.497C1066.76 684.879 1069.56 685.57 1072.71 685.57C1075.4 685.57 1077.85 685.11 1080.08 684.188C1082.38 683.19 1084.34 681.731 1085.95 679.812L1094.25 688.219C1091.64 691.291 1088.45 693.671 1084.69 695.36C1081 696.972 1077.01 697.779 1072.71 697.779ZM1126.56 697.779C1121.57 697.779 1117.04 696.512 1112.97 693.978C1108.97 691.444 1105.79 688.027 1103.41 683.728C1101.1 679.351 1099.95 674.475 1099.95 669.1C1099.95 663.649 1101.1 658.773 1103.41 654.473C1105.79 650.097 1108.97 646.642 1112.97 644.108C1117.04 641.497 1121.57 640.192 1126.56 640.192C1130.78 640.192 1134.5 641.113 1137.73 642.956C1141.03 644.722 1143.64 647.179 1145.56 650.327C1147.48 653.475 1148.44 657.046 1148.44 661.038V676.932C1148.44 680.925 1147.48 684.495 1145.56 687.643C1143.72 690.791 1141.15 693.287 1137.84 695.13C1134.54 696.896 1130.78 697.779 1126.56 697.779ZM1128.63 685.801C1133.31 685.801 1137.08 684.227 1139.92 681.079C1142.83 677.93 1144.29 673.899 1144.29 668.985C1144.29 665.684 1143.64 662.766 1142.34 660.232C1141.03 657.698 1139.19 655.74 1136.81 654.358C1134.5 652.899 1131.78 652.17 1128.63 652.17C1125.56 652.17 1122.83 652.899 1120.45 654.358C1118.15 655.74 1116.31 657.698 1114.92 660.232C1113.62 662.766 1112.97 665.684 1112.97 668.985C1112.97 672.287 1113.62 675.205 1114.92 677.738C1116.31 680.272 1118.15 682.269 1120.45 683.728C1122.83 685.11 1125.56 685.801 1128.63 685.801ZM1143.49 696.627V681.77L1145.68 668.294L1143.49 654.934V641.344H1156.16V696.627H1143.49ZM1194.52 697.779C1189.53 697.779 1185 696.512 1180.93 693.978C1176.93 691.444 1173.75 688.027 1171.37 683.728C1169.06 679.351 1167.91 674.475 1167.91 669.1C1167.91 663.649 1169.06 658.773 1171.37 654.473C1173.75 650.097 1176.93 646.642 1180.93 644.108C1185 641.497 1189.53 640.192 1194.52 640.192C1198.74 640.192 1202.46 641.113 1205.69 642.956C1208.99 644.722 1211.6 647.179 1213.52 650.327C1215.44 653.475 1216.4 657.046 1216.4 661.038V676.932C1216.4 680.925 1215.44 684.495 1213.52 687.643C1211.68 690.791 1209.11 693.287 1205.8 695.13C1202.5 696.896 1198.74 697.779 1194.52 697.779ZM1196.59 685.801C1199.74 685.801 1202.46 685.11 1204.77 683.728C1207.15 682.269 1208.99 680.272 1210.3 677.738C1211.6 675.205 1212.25 672.287 1212.25 668.985C1212.25 665.684 1211.6 662.766 1210.3 660.232C1208.99 657.698 1207.15 655.74 1204.77 654.358C1202.46 652.899 1199.74 652.17 1196.59 652.17C1193.52 652.17 1190.79 652.899 1188.41 654.358C1186.11 655.74 1184.27 657.698 1182.89 660.232C1181.58 662.766 1180.93 665.684 1180.93 668.985C1180.93 672.287 1181.58 675.205 1182.89 677.738C1184.27 680.272 1186.11 682.269 1188.41 683.728C1190.79 685.11 1193.52 685.801 1196.59 685.801ZM1224.12 696.627H1211.45V681.77L1213.64 668.294L1211.45 654.934V613.702H1224.12V696.627ZM1264.67 697.779C1259.29 697.779 1254.42 696.512 1250.04 693.978C1245.66 691.367 1242.17 687.874 1239.56 683.497C1237.03 679.121 1235.76 674.245 1235.76 668.87C1235.76 663.495 1237.03 658.658 1239.56 654.358C1242.17 650.058 1245.66 646.642 1250.04 644.108C1254.42 641.497 1259.29 640.192 1264.67 640.192C1270.12 640.192 1275.03 641.459 1279.41 643.993C1283.79 646.526 1287.24 649.982 1289.78 654.358C1292.39 658.658 1293.69 663.495 1293.69 668.87C1293.69 674.245 1292.39 679.121 1289.78 683.497C1287.24 687.874 1283.79 691.367 1279.41 693.978C1275.03 696.512 1270.12 697.779 1264.67 697.779ZM1264.67 685.57C1267.82 685.57 1270.58 684.879 1272.96 683.497C1275.42 682.038 1277.3 680.042 1278.6 677.508C1279.99 674.974 1280.68 672.095 1280.68 668.87C1280.68 665.645 1279.99 662.804 1278.6 660.347C1277.22 657.89 1275.34 655.971 1272.96 654.589C1270.58 653.13 1267.82 652.4 1264.67 652.4C1261.6 652.4 1258.83 653.13 1256.38 654.589C1253.99 655.971 1252.11 657.89 1250.73 660.347C1249.43 662.804 1248.77 665.645 1248.77 668.87C1248.77 672.095 1249.43 674.974 1250.73 677.508C1252.11 680.042 1253.99 682.038 1256.38 683.497C1258.83 684.879 1261.6 685.57 1264.67 685.57ZM1305.38 696.627V641.344H1318.05V696.627H1305.38ZM1318.05 665.876L1313.67 663.687C1313.67 656.7 1315.21 651.057 1318.28 646.757C1321.43 642.38 1326.15 640.192 1332.44 640.192C1335.21 640.192 1337.7 640.691 1339.93 641.689C1342.16 642.687 1344.23 644.3 1346.15 646.526L1337.86 655.049C1336.86 653.974 1335.75 653.206 1334.52 652.746C1333.29 652.285 1331.87 652.055 1330.26 652.055C1326.72 652.055 1323.81 653.168 1321.5 655.395C1319.2 657.621 1318.05 661.115 1318.05 665.876ZM1377.43 697.779C1371.9 697.779 1366.91 696.55 1362.46 694.093C1358.08 691.559 1354.59 688.104 1351.98 683.728C1349.44 679.351 1348.17 674.437 1348.17 668.985C1348.17 663.534 1349.44 658.658 1351.98 654.358C1354.51 649.982 1357.93 646.526 1362.23 643.993C1366.6 641.459 1371.44 640.192 1376.74 640.192C1381.88 640.192 1386.41 641.382 1390.33 643.762C1394.32 646.142 1397.43 649.406 1399.66 653.552C1401.96 657.698 1403.11 662.42 1403.11 667.718C1403.11 668.64 1403.04 669.6 1402.88 670.598C1402.81 671.519 1402.65 672.556 1402.42 673.707H1357.04V663.342H1395.86L1391.13 667.488C1390.98 664.11 1390.33 661.269 1389.18 658.965C1388.02 656.662 1386.37 654.896 1384.22 653.667C1382.15 652.439 1379.58 651.824 1376.51 651.824C1373.28 651.824 1370.48 652.515 1368.1 653.898C1365.72 655.28 1363.88 657.238 1362.57 659.771C1361.27 662.228 1360.61 665.185 1360.61 668.64C1360.61 672.095 1361.3 675.128 1362.69 677.738C1364.07 680.349 1366.03 682.384 1368.56 683.843C1371.09 685.225 1374.01 685.916 1377.31 685.916C1380.15 685.916 1382.77 685.417 1385.15 684.419C1387.6 683.42 1389.68 681.962 1391.36 680.042L1399.43 688.219C1396.74 691.367 1393.48 693.748 1389.64 695.36C1385.8 696.972 1381.73 697.779 1377.43 697.779ZM1432.5 697.779C1429.43 697.779 1426.48 697.395 1423.63 696.627C1420.79 695.782 1418.18 694.631 1415.8 693.172C1413.42 691.636 1411.35 689.793 1409.58 687.643L1417.65 679.581C1419.56 681.808 1421.75 683.497 1424.21 684.649C1426.74 685.724 1429.58 686.261 1432.73 686.261C1435.57 686.261 1437.72 685.839 1439.18 684.994C1440.64 684.15 1441.37 682.921 1441.37 681.309C1441.37 679.62 1440.68 678.314 1439.3 677.393C1437.92 676.472 1436.11 675.704 1433.88 675.089C1431.73 674.398 1429.43 673.707 1426.97 673.016C1424.59 672.325 1422.29 671.404 1420.06 670.252C1417.91 669.024 1416.15 667.373 1414.77 665.3C1413.38 663.227 1412.69 660.539 1412.69 657.238C1412.69 653.706 1413.5 650.673 1415.11 648.139C1416.8 645.605 1419.14 643.647 1422.14 642.265C1425.21 640.883 1428.86 640.192 1433.08 640.192C1437.53 640.192 1441.45 640.998 1444.83 642.61C1448.28 644.146 1451.16 646.488 1453.46 649.636L1445.4 657.698C1443.79 655.702 1441.95 654.205 1439.87 653.206C1437.8 652.208 1435.42 651.709 1432.73 651.709C1430.2 651.709 1428.24 652.093 1426.86 652.861C1425.48 653.629 1424.79 654.742 1424.79 656.201C1424.79 657.737 1425.48 658.927 1426.86 659.771C1428.24 660.616 1430.01 661.345 1432.16 661.96C1434.38 662.574 1436.69 663.265 1439.07 664.033C1441.52 664.724 1443.83 665.722 1445.98 667.027C1448.2 668.256 1450.01 669.945 1451.39 672.095C1452.77 674.168 1453.46 676.894 1453.46 680.272C1453.46 685.647 1451.58 689.908 1447.82 693.057C1444.06 696.205 1438.95 697.779 1432.5 697.779ZM1512.42 697.779C1507.43 697.779 1502.9 696.512 1498.83 693.978C1494.84 691.444 1491.65 688.027 1489.27 683.728C1486.97 679.351 1485.81 674.475 1485.81 669.1C1485.81 663.649 1486.97 658.773 1489.27 654.473C1491.65 650.097 1494.84 646.642 1498.83 644.108C1502.9 641.497 1507.43 640.192 1512.42 640.192C1516.64 640.192 1520.37 641.113 1523.59 642.956C1526.89 644.722 1529.5 647.179 1531.42 650.327C1533.34 653.475 1534.3 657.046 1534.3 661.038V676.932C1534.3 680.925 1533.34 684.495 1531.42 687.643C1529.58 690.791 1527.01 693.287 1523.71 695.13C1520.41 696.896 1516.64 697.779 1512.42 697.779ZM1514.49 685.801C1517.64 685.801 1520.37 685.11 1522.67 683.728C1525.05 682.269 1526.89 680.272 1528.2 677.738C1529.5 675.205 1530.16 672.287 1530.16 668.985C1530.16 665.684 1529.5 662.766 1528.2 660.232C1526.89 657.698 1525.05 655.74 1522.67 654.358C1520.37 652.899 1517.64 652.17 1514.49 652.17C1511.42 652.17 1508.7 652.899 1506.32 654.358C1504.01 655.74 1502.17 657.698 1500.79 660.232C1499.48 662.766 1498.83 665.684 1498.83 668.985C1498.83 672.287 1499.48 675.205 1500.79 677.738C1502.17 680.272 1504.01 682.269 1506.32 683.728C1508.7 685.11 1511.42 685.801 1514.49 685.801ZM1542.02 696.627H1529.35V681.77L1531.54 668.294L1529.35 654.934V613.702H1542.02V696.627ZM1582.92 697.779C1577.39 697.779 1572.4 696.55 1567.94 694.093C1563.57 691.559 1560.07 688.104 1557.46 683.728C1554.93 679.351 1553.66 674.437 1553.66 668.985C1553.66 663.534 1554.93 658.658 1557.46 654.358C1560 649.982 1563.41 646.526 1567.71 643.993C1572.09 641.459 1576.93 640.192 1582.22 640.192C1587.37 640.192 1591.9 641.382 1595.81 643.762C1599.81 646.142 1602.92 649.406 1605.14 653.552C1607.45 657.698 1608.6 662.42 1608.6 667.718C1608.6 668.64 1608.52 669.6 1608.37 670.598C1608.29 671.519 1608.14 672.556 1607.91 673.707H1562.53V663.342H1601.34L1596.62 667.488C1596.47 664.11 1595.81 661.269 1594.66 658.965C1593.51 656.662 1591.86 654.896 1589.71 653.667C1587.64 652.439 1585.06 651.824 1581.99 651.824C1578.77 651.824 1575.97 652.515 1573.59 653.898C1571.21 655.28 1569.36 657.238 1568.06 659.771C1566.75 662.228 1566.1 665.185 1566.1 668.64C1566.1 672.095 1566.79 675.128 1568.17 677.738C1569.55 680.349 1571.51 682.384 1574.05 683.843C1576.58 685.225 1579.5 685.916 1582.8 685.916C1585.64 685.916 1588.25 685.417 1590.63 684.419C1593.09 683.42 1595.16 681.962 1596.85 680.042L1604.91 688.219C1602.23 691.367 1598.96 693.748 1595.12 695.36C1591.28 696.972 1587.21 697.779 1582.92 697.779ZM1645.84 696.627V616.005H1655.06L1688.57 671.174H1682.58L1716.1 616.005H1725.31V696.627H1712.07V639.27L1715.06 640.077L1690.18 680.963H1680.97L1656.09 640.077L1659.09 639.27V696.627H1645.84ZM1767.9 697.779C1762.38 697.779 1757.38 696.55 1752.93 694.093C1748.55 691.559 1745.06 688.104 1742.45 683.728C1739.92 679.351 1738.65 674.437 1738.65 668.985C1738.65 663.534 1739.92 658.658 1742.45 654.358C1744.98 649.982 1748.4 646.526 1752.7 643.993C1757.08 641.459 1761.91 640.192 1767.21 640.192C1772.36 640.192 1776.89 641.382 1780.8 643.762C1784.8 646.142 1787.91 649.406 1790.13 653.552C1792.44 657.698 1793.59 662.42 1793.59 667.718C1793.59 668.64 1793.51 669.6 1793.36 670.598C1793.28 671.519 1793.13 672.556 1792.9 673.707H1747.52V663.342H1786.33L1781.61 667.488C1781.46 664.11 1780.8 661.269 1779.65 658.965C1778.5 656.662 1776.85 654.896 1774.7 653.667C1772.63 652.439 1770.05 651.824 1766.98 651.824C1763.76 651.824 1760.95 652.515 1758.57 653.898C1756.19 655.28 1754.35 657.238 1753.05 659.771C1751.74 662.228 1751.09 665.185 1751.09 668.64C1751.09 672.095 1751.78 675.128 1753.16 677.738C1754.54 680.349 1756.5 682.384 1759.04 683.843C1761.57 685.225 1764.49 685.916 1767.79 685.916C1770.63 685.916 1773.24 685.417 1775.62 684.419C1778.08 683.42 1780.15 681.962 1781.84 680.042L1789.9 688.219C1787.21 691.367 1783.95 693.748 1780.11 695.36C1776.27 696.972 1772.2 697.779 1767.9 697.779ZM1805.01 696.627V641.344H1817.68V696.627H1805.01ZM1811.34 631.208C1809.19 631.208 1807.39 630.479 1805.93 629.02C1804.55 627.561 1803.86 625.757 1803.86 623.607C1803.86 621.457 1804.55 619.653 1805.93 618.194C1807.39 616.735 1809.19 616.005 1811.34 616.005C1813.57 616.005 1815.38 616.735 1816.76 618.194C1818.14 619.653 1818.83 621.457 1818.83 623.607C1818.83 625.757 1818.14 627.561 1816.76 629.02C1815.38 630.479 1813.57 631.208 1811.34 631.208ZM1858.38 697.779C1853 697.779 1848.13 696.512 1843.75 693.978C1839.38 691.367 1835.88 687.874 1833.27 683.497C1830.74 679.121 1829.47 674.245 1829.47 668.87C1829.47 663.495 1830.74 658.658 1833.27 654.358C1835.88 650.058 1839.38 646.642 1843.75 644.108C1848.13 641.497 1853 640.192 1858.38 640.192C1863.83 640.192 1868.74 641.459 1873.12 643.993C1877.5 646.526 1880.95 649.982 1883.49 654.358C1886.1 658.658 1887.4 663.495 1887.4 668.87C1887.4 674.245 1886.1 679.121 1883.49 683.497C1880.95 687.874 1877.5 691.367 1873.12 693.978C1868.74 696.512 1863.83 697.779 1858.38 697.779ZM1858.38 685.57C1861.53 685.57 1864.29 684.879 1866.67 683.497C1869.13 682.038 1871.01 680.042 1872.31 677.508C1873.7 674.974 1874.39 672.095 1874.39 668.87C1874.39 665.645 1873.7 662.804 1872.31 660.347C1870.93 657.89 1869.05 655.971 1866.67 654.589C1864.29 653.13 1861.53 652.4 1858.38 652.4C1855.31 652.4 1852.54 653.13 1850.09 654.589C1847.71 655.971 1845.83 657.89 1844.44 660.347C1843.14 662.804 1842.48 665.645 1842.48 668.87C1842.48 672.095 1843.14 674.974 1844.44 677.508C1845.83 680.042 1847.71 682.038 1850.09 683.497C1852.54 684.879 1855.31 685.57 1858.38 685.57ZM1915.78 696.627L1948.95 616.005H1958.16L1991.1 696.627H1976.82L1951.02 631.323H1955.86L1929.83 696.627H1915.78ZM1932.13 681.079V669.561H1974.86V681.079H1932.13ZM2002.06 696.627V641.344H2014.73V696.627H2002.06ZM2038.8 696.627V663.687C2038.8 660.002 2037.65 657.161 2035.34 655.164C2033.04 653.091 2030.2 652.055 2026.82 652.055C2024.52 652.055 2022.44 652.515 2020.6 653.437C2018.84 654.358 2017.41 655.702 2016.34 657.468C2015.26 659.157 2014.73 661.23 2014.73 663.687L2009.77 660.923C2009.77 656.7 2010.7 653.053 2012.54 649.982C2014.38 646.91 2016.88 644.53 2020.03 642.841C2023.17 641.075 2026.71 640.192 2030.62 640.192C2034.54 640.192 2038.07 641.036 2041.22 642.726C2044.37 644.415 2046.86 646.795 2048.7 649.866C2050.55 652.938 2051.47 656.623 2051.47 660.923V696.627H2038.8ZM2075.54 696.627V663.687C2075.54 660.002 2074.39 657.161 2072.08 655.164C2069.78 653.091 2066.94 652.055 2063.56 652.055C2061.33 652.055 2059.3 652.515 2057.46 653.437C2055.61 654.358 2054.15 655.702 2053.08 657.468C2052.01 659.157 2051.47 661.23 2051.47 663.687L2044.33 660.923C2044.71 656.7 2045.94 653.053 2048.01 649.982C2050.09 646.91 2052.73 644.53 2055.96 642.841C2059.26 641.075 2062.87 640.192 2066.79 640.192C2070.78 640.192 2074.39 641.036 2077.61 642.726C2080.84 644.415 2083.41 646.795 2085.33 649.866C2087.25 652.938 2088.21 656.623 2088.21 660.923V696.627H2075.54ZM2132.01 697.779C2127.79 697.779 2124.03 696.896 2120.72 695.13C2117.42 693.287 2114.81 690.791 2112.89 687.643C2111.05 684.495 2110.13 680.925 2110.13 676.932V661.038C2110.13 657.046 2111.09 653.475 2113.01 650.327C2114.93 647.179 2117.54 644.722 2120.84 642.956C2124.14 641.113 2127.87 640.192 2132.01 640.192C2137 640.192 2141.49 641.497 2145.49 644.108C2149.56 646.642 2152.74 650.097 2155.05 654.473C2157.43 658.773 2158.62 663.649 2158.62 669.1C2158.62 674.475 2157.43 679.351 2155.05 683.728C2152.74 688.027 2149.56 691.444 2145.49 693.978C2141.49 696.512 2137 697.779 2132.01 697.779ZM2102.41 696.627V613.702H2115.08V654.934L2112.89 668.294L2115.08 681.77V696.627H2102.41ZM2129.94 685.801C2133.01 685.801 2135.7 685.11 2138 683.728C2140.38 682.269 2142.22 680.272 2143.53 677.738C2144.91 675.205 2145.6 672.287 2145.6 668.985C2145.6 665.684 2144.91 662.766 2143.53 660.232C2142.22 657.698 2140.38 655.74 2138 654.358C2135.7 652.899 2133.01 652.17 2129.94 652.17C2126.87 652.17 2124.14 652.899 2121.76 654.358C2119.38 655.74 2117.54 657.698 2116.23 660.232C2114.93 662.766 2114.28 665.684 2114.28 668.985C2114.28 672.287 2114.93 675.205 2116.23 677.738C2117.54 680.272 2119.38 682.269 2121.76 683.728C2124.14 685.11 2126.87 685.801 2129.94 685.801ZM2170.49 696.627V641.344H2183.16V696.627H2170.49ZM2176.82 631.208C2174.67 631.208 2172.87 630.479 2171.41 629.02C2170.03 627.561 2169.34 625.757 2169.34 623.607C2169.34 621.457 2170.03 619.653 2171.41 618.194C2172.87 616.735 2174.67 616.005 2176.82 616.005C2179.05 616.005 2180.85 616.735 2182.24 618.194C2183.62 619.653 2184.31 621.457 2184.31 623.607C2184.31 625.757 2183.62 627.561 2182.24 629.02C2180.85 630.479 2179.05 631.208 2176.82 631.208ZM2224.2 697.779C2218.67 697.779 2213.68 696.55 2209.23 694.093C2204.85 691.559 2201.36 688.104 2198.75 683.728C2196.22 679.351 2194.95 674.437 2194.95 668.985C2194.95 663.534 2196.22 658.658 2198.75 654.358C2201.28 649.982 2204.7 646.526 2209 643.993C2213.38 641.459 2218.21 640.192 2223.51 640.192C2228.66 640.192 2233.19 641.382 2237.1 643.762C2241.09 646.142 2244.2 649.406 2246.43 653.552C2248.73 657.698 2249.89 662.42 2249.89 667.718C2249.89 668.64 2249.81 669.6 2249.66 670.598C2249.58 671.519 2249.43 672.556 2249.2 673.707H2203.82V663.342H2242.63L2237.91 667.488C2237.75 664.11 2237.1 661.269 2235.95 658.965C2234.8 656.662 2233.15 654.896 2231 653.667C2228.92 652.439 2226.35 651.824 2223.28 651.824C2220.06 651.824 2217.25 652.515 2214.87 653.898C2212.49 655.28 2210.65 657.238 2209.35 659.771C2208.04 662.228 2207.39 665.185 2207.39 668.64C2207.39 672.095 2208.08 675.128 2209.46 677.738C2210.84 680.349 2212.8 682.384 2215.33 683.843C2217.87 685.225 2220.79 685.916 2224.09 685.916C2226.93 685.916 2229.54 685.417 2231.92 684.419C2234.38 683.42 2236.45 681.962 2238.14 680.042L2246.2 688.219C2243.51 691.367 2240.25 693.748 2236.41 695.36C2232.57 696.972 2228.5 697.779 2224.2 697.779ZM2299.09 696.627V664.724C2299.09 661.038 2297.9 658.005 2295.52 655.625C2293.21 653.245 2290.22 652.055 2286.53 652.055C2284.08 652.055 2281.89 652.592 2279.97 653.667C2278.05 654.742 2276.55 656.239 2275.48 658.159C2274.4 660.079 2273.86 662.267 2273.86 664.724L2268.91 661.96C2268.91 657.737 2269.83 654.013 2271.68 650.788C2273.52 647.486 2276.05 644.914 2279.28 643.071C2282.58 641.152 2286.26 640.192 2290.33 640.192C2294.48 640.192 2298.17 641.267 2301.39 643.417C2304.61 645.49 2307.15 648.216 2308.99 651.594C2310.83 654.896 2311.76 658.351 2311.76 661.96V696.627H2299.09ZM2261.19 696.627V641.344H2273.86V696.627H2261.19ZM2333.51 696.627V618.309H2346.18V696.627H2333.51ZM2320.27 652.861V641.344H2359.43V652.861H2320.27ZM2393.9 697.779C2388.37 697.779 2383.38 696.55 2378.92 694.093C2374.55 691.559 2371.05 688.104 2368.44 683.728C2365.91 679.351 2364.64 674.437 2364.64 668.985C2364.64 663.534 2365.91 658.658 2368.44 654.358C2370.98 649.982 2374.39 646.526 2378.69 643.993C2383.07 641.459 2387.91 640.192 2393.2 640.192C2398.35 640.192 2402.88 641.382 2406.79 643.762C2410.79 646.142 2413.9 649.406 2416.12 653.552C2418.43 657.698 2419.58 662.42 2419.58 667.718C2419.58 668.64 2419.5 669.6 2419.35 670.598C2419.27 671.519 2419.12 672.556 2418.89 673.707H2373.51V663.342H2412.32L2407.6 667.488C2407.45 664.11 2406.79 661.269 2405.64 658.965C2404.49 656.662 2402.84 654.896 2400.69 653.667C2398.62 652.439 2396.05 651.824 2392.97 651.824C2389.75 651.824 2386.95 652.515 2384.57 653.898C2382.19 655.28 2380.34 657.238 2379.04 659.771C2377.73 662.228 2377.08 665.185 2377.08 668.64C2377.08 672.095 2377.77 675.128 2379.15 677.738C2380.53 680.349 2382.49 682.384 2385.03 683.843C2387.56 685.225 2390.48 685.916 2393.78 685.916C2396.62 685.916 2399.23 685.417 2401.61 684.419C2404.07 683.42 2406.14 681.962 2407.83 680.042L2415.89 688.219C2413.21 691.367 2409.94 693.748 2406.1 695.36C2402.26 696.972 2398.19 697.779 2393.9 697.779ZM2478.25 697.779C2473.25 697.779 2468.72 696.512 2464.65 693.978C2460.66 691.444 2457.48 688.027 2455.1 683.728C2452.79 679.351 2451.64 674.475 2451.64 669.1C2451.64 663.649 2452.79 658.773 2455.1 654.473C2457.48 650.097 2460.66 646.642 2464.65 644.108C2468.72 641.497 2473.25 640.192 2478.25 640.192C2482.47 640.192 2486.19 641.113 2489.42 642.956C2492.72 644.722 2495.33 647.179 2497.25 650.327C2499.17 653.475 2500.13 657.046 2500.13 661.038V676.932C2500.13 680.925 2499.17 684.495 2497.25 687.643C2495.41 690.791 2492.83 693.287 2489.53 695.13C2486.23 696.896 2482.47 697.779 2478.25 697.779ZM2480.32 685.801C2483.47 685.801 2486.19 685.11 2488.5 683.728C2490.88 682.269 2492.72 680.272 2494.02 677.738C2495.33 675.205 2495.98 672.287 2495.98 668.985C2495.98 665.684 2495.33 662.766 2494.02 660.232C2492.72 657.698 2490.88 655.74 2488.5 654.358C2486.19 652.899 2483.47 652.17 2480.32 652.17C2477.25 652.17 2474.52 652.899 2472.14 654.358C2469.84 655.74 2467.99 657.698 2466.61 660.232C2465.31 662.766 2464.65 665.684 2464.65 668.985C2464.65 672.287 2465.31 675.205 2466.61 677.738C2467.99 680.272 2469.84 682.269 2472.14 683.728C2474.52 685.11 2477.25 685.801 2480.32 685.801ZM2507.85 696.627H2495.18V681.77L2497.36 668.294L2495.18 654.934V613.702H2507.85V696.627ZM2548.4 697.779C2543.02 697.779 2538.14 696.512 2533.77 693.978C2529.39 691.367 2525.9 687.874 2523.29 683.497C2520.75 679.121 2519.49 674.245 2519.49 668.87C2519.49 663.495 2520.75 658.658 2523.29 654.358C2525.9 650.058 2529.39 646.642 2533.77 644.108C2538.14 641.497 2543.02 640.192 2548.4 640.192C2553.85 640.192 2558.76 641.459 2563.14 643.993C2567.51 646.526 2570.97 649.982 2573.5 654.358C2576.11 658.658 2577.42 663.495 2577.42 668.87C2577.42 674.245 2576.11 679.121 2573.5 683.497C2570.97 687.874 2567.51 691.367 2563.14 693.978C2558.76 696.512 2553.85 697.779 2548.4 697.779ZM2548.4 685.57C2551.54 685.57 2554.31 684.879 2556.69 683.497C2559.14 682.038 2561.03 680.042 2562.33 677.508C2563.71 674.974 2564.4 672.095 2564.4 668.87C2564.4 665.645 2563.71 662.804 2562.33 660.347C2560.95 657.89 2559.07 655.971 2556.69 654.589C2554.31 653.13 2551.54 652.4 2548.4 652.4C2545.32 652.4 2542.56 653.13 2540.1 654.589C2537.72 655.971 2535.84 657.89 2534.46 660.347C2533.15 662.804 2532.5 665.645 2532.5 668.87C2532.5 672.095 2533.15 674.974 2534.46 677.508C2535.84 680.042 2537.72 682.038 2540.1 683.497C2542.56 684.879 2545.32 685.57 2548.4 685.57ZM2615.04 696.627V616.005H2624.26L2657.77 671.174H2651.78L2685.3 616.005H2694.51V696.627H2681.27V639.27L2684.26 640.077L2659.38 680.963H2650.17L2625.29 640.077L2628.29 639.27V696.627H2615.04ZM2734.11 697.779C2729.43 697.779 2725.24 696.742 2721.56 694.669C2717.95 692.596 2715.11 689.755 2713.03 686.146C2711.04 682.461 2710.04 678.238 2710.04 673.477V641.344H2722.71V672.901C2722.71 675.589 2723.13 677.892 2723.97 679.812C2724.9 681.654 2726.2 683.075 2727.89 684.073C2729.66 685.071 2731.73 685.57 2734.11 685.57C2737.79 685.57 2740.6 684.495 2742.52 682.345C2744.51 680.119 2745.51 676.971 2745.51 672.901V641.344H2758.18V673.477C2758.18 678.314 2757.14 682.576 2755.07 686.261C2753.07 689.87 2750.27 692.711 2746.66 694.784C2743.05 696.781 2738.87 697.779 2734.11 697.779ZM2809.96 696.627V664.724C2809.96 661.038 2808.77 658.005 2806.39 655.625C2804.09 653.245 2801.09 652.055 2797.41 652.055C2794.95 652.055 2792.76 652.592 2790.84 653.667C2788.92 654.742 2787.43 656.239 2786.35 658.159C2785.28 660.079 2784.74 662.267 2784.74 664.724L2779.79 661.96C2779.79 657.737 2780.71 654.013 2782.55 650.788C2784.39 647.486 2786.93 644.914 2790.15 643.071C2793.45 641.152 2797.14 640.192 2801.21 640.192C2805.36 640.192 2809.04 641.267 2812.27 643.417C2815.49 645.49 2818.02 648.216 2819.87 651.594C2821.71 654.896 2822.63 658.351 2822.63 661.96V696.627H2809.96ZM2772.07 696.627V641.344H2784.74V696.627H2772.07ZM2836.77 696.627V641.344H2849.44V696.627H2836.77ZM2843.11 631.208C2840.96 631.208 2839.15 630.479 2837.69 629.02C2836.31 627.561 2835.62 625.757 2835.62 623.607C2835.62 621.457 2836.31 619.653 2837.69 618.194C2839.15 616.735 2840.96 616.005 2843.11 616.005C2845.33 616.005 2847.14 616.735 2848.52 618.194C2849.9 619.653 2850.59 621.457 2850.59 623.607C2850.59 625.757 2849.9 627.561 2848.52 629.02C2847.14 630.479 2845.33 631.208 2843.11 631.208ZM2890.26 697.779C2884.81 697.779 2879.85 696.512 2875.4 693.978C2871.02 691.444 2867.57 687.989 2865.03 683.612C2862.5 679.236 2861.23 674.36 2861.23 668.985C2861.23 663.534 2862.5 658.658 2865.03 654.358C2867.57 649.982 2871.02 646.526 2875.4 643.993C2879.85 641.459 2884.81 640.192 2890.26 640.192C2894.56 640.192 2898.55 641.036 2902.23 642.726C2906 644.338 2909.18 646.68 2911.79 649.751L2903.5 658.159C2901.89 656.239 2899.93 654.819 2897.63 653.898C2895.4 652.899 2892.94 652.4 2890.26 652.4C2887.11 652.4 2884.31 653.13 2881.85 654.589C2879.47 655.971 2877.59 657.89 2876.21 660.347C2874.9 662.804 2874.25 665.684 2874.25 668.985C2874.25 672.21 2874.9 675.089 2876.21 677.623C2877.59 680.08 2879.47 682.038 2881.85 683.497C2884.31 684.879 2887.11 685.57 2890.26 685.57C2892.94 685.57 2895.4 685.11 2897.63 684.188C2899.93 683.19 2901.89 681.731 2903.5 679.812L2911.79 688.219C2909.18 691.291 2906 693.671 2902.23 695.36C2898.55 696.972 2894.56 697.779 2890.26 697.779ZM2922.08 696.627V641.344H2934.75V696.627H2922.08ZM2921.85 633.397L2916.09 627.638L2930.83 608.865L2940.62 618.654L2921.85 633.397ZM2979.6 697.779C2975.38 697.779 2971.61 696.896 2968.31 695.13C2965.01 693.287 2962.4 690.791 2960.48 687.643C2958.64 684.495 2957.72 680.925 2957.72 676.932V661.038C2957.72 657.046 2958.68 653.475 2960.6 650.327C2962.52 647.179 2965.13 644.722 2968.43 642.956C2971.73 641.113 2975.45 640.192 2979.6 640.192C2984.59 640.192 2989.08 641.497 2993.08 644.108C2997.14 646.642 3000.33 650.097 3002.63 654.473C3005.02 658.773 3006.21 663.649 3006.21 669.1C3006.21 674.475 3005.02 679.351 3002.63 683.728C3000.33 688.027 2997.14 691.444 2993.08 693.978C2989.08 696.512 2984.59 697.779 2979.6 697.779ZM2950 719.662V641.344H2962.67V656.201L2960.48 669.676L2962.67 683.036V719.662H2950ZM2977.53 685.801C2980.6 685.801 2983.29 685.11 2985.59 683.728C2987.97 682.269 2989.81 680.272 2991.12 677.738C2992.5 675.205 2993.19 672.287 2993.19 668.985C2993.19 665.684 2992.5 662.766 2991.12 660.232C2989.81 657.698 2987.97 655.74 2985.59 654.358C2983.29 652.899 2980.6 652.17 2977.53 652.17C2974.46 652.17 2971.73 652.899 2969.35 654.358C2966.97 655.74 2965.13 657.698 2963.82 660.232C2962.52 662.766 2961.86 665.684 2961.86 668.985C2961.86 672.287 2962.52 675.205 2963.82 677.738C2965.13 680.272 2966.97 682.269 2969.35 683.728C2971.73 685.11 2974.46 685.801 2977.53 685.801ZM3018.08 696.627V641.344H3030.75V696.627H3018.08ZM3024.41 631.208C3022.26 631.208 3020.46 630.479 3019 629.02C3017.62 627.561 3016.93 625.757 3016.93 623.607C3016.93 621.457 3017.62 619.653 3019 618.194C3020.46 616.735 3022.26 616.005 3024.41 616.005C3026.64 616.005 3028.44 616.735 3029.82 618.194C3031.21 619.653 3031.9 621.457 3031.9 623.607C3031.9 625.757 3031.21 627.561 3029.82 629.02C3028.44 630.479 3026.64 631.208 3024.41 631.208ZM3071.45 697.779C3066.07 697.779 3061.2 696.512 3056.82 693.978C3052.44 691.367 3048.95 687.874 3046.34 683.497C3043.8 679.121 3042.54 674.245 3042.54 668.87C3042.54 663.495 3043.8 658.658 3046.34 654.358C3048.95 650.058 3052.44 646.642 3056.82 644.108C3061.2 641.497 3066.07 640.192 3071.45 640.192C3076.9 640.192 3081.81 641.459 3086.19 643.993C3090.56 646.526 3094.02 649.982 3096.55 654.358C3099.16 658.658 3100.47 663.495 3100.47 668.87C3100.47 674.245 3099.16 679.121 3096.55 683.497C3094.02 687.874 3090.56 691.367 3086.19 693.978C3081.81 696.512 3076.9 697.779 3071.45 697.779ZM3071.45 685.57C3074.59 685.57 3077.36 684.879 3079.74 683.497C3082.2 682.038 3084.08 680.042 3085.38 677.508C3086.76 674.974 3087.45 672.095 3087.45 668.87C3087.45 665.645 3086.76 662.804 3085.38 660.347C3084 657.89 3082.12 655.971 3079.74 654.589C3077.36 653.13 3074.59 652.4 3071.45 652.4C3068.37 652.4 3065.61 653.13 3063.15 654.589C3060.77 655.971 3058.89 657.89 3057.51 660.347C3056.2 662.804 3055.55 665.645 3055.55 668.87C3055.55 672.095 3056.2 674.974 3057.51 677.508C3058.89 680.042 3060.77 682.038 3063.15 683.497C3065.61 684.879 3068.37 685.57 3071.45 685.57ZM3159.52 697.779C3154.52 697.779 3149.99 696.512 3145.93 693.978C3141.93 691.444 3138.75 688.027 3136.37 683.728C3134.06 679.351 3132.91 674.475 3132.91 669.1C3132.91 663.649 3134.06 658.773 3136.37 654.473C3138.75 650.097 3141.93 646.642 3145.93 644.108C3149.99 641.497 3154.52 640.192 3159.52 640.192C3163.74 640.192 3167.46 641.113 3170.69 642.956C3173.99 644.722 3176.6 647.179 3178.52 650.327C3180.44 653.475 3181.4 657.046 3181.4 661.038V676.932C3181.4 680.925 3180.44 684.495 3178.52 687.643C3176.68 690.791 3174.1 693.287 3170.8 695.13C3167.5 696.896 3163.74 697.779 3159.52 697.779ZM3161.59 685.801C3164.74 685.801 3167.46 685.11 3169.77 683.728C3172.15 682.269 3173.99 680.272 3175.29 677.738C3176.6 675.205 3177.25 672.287 3177.25 668.985C3177.25 665.684 3176.6 662.766 3175.29 660.232C3173.99 657.698 3172.15 655.74 3169.77 654.358C3167.46 652.899 3164.74 652.17 3161.59 652.17C3158.52 652.17 3155.79 652.899 3153.41 654.358C3151.11 655.74 3149.27 657.698 3147.88 660.232C3146.58 662.766 3145.93 665.684 3145.93 668.985C3145.93 672.287 3146.58 675.205 3147.88 677.738C3149.27 680.272 3151.11 682.269 3153.41 683.728C3155.79 685.11 3158.52 685.801 3161.59 685.801ZM3189.12 696.627H3176.45V681.77L3178.63 668.294L3176.45 654.934V613.702H3189.12V696.627ZM3230.01 697.779C3224.48 697.779 3219.49 696.55 3215.04 694.093C3210.66 691.559 3207.17 688.104 3204.56 683.728C3202.02 679.351 3200.76 674.437 3200.76 668.985C3200.76 663.534 3202.02 658.658 3204.56 654.358C3207.09 649.982 3210.51 646.526 3214.81 643.993C3219.18 641.459 3224.02 640.192 3229.32 640.192C3234.46 640.192 3238.99 641.382 3242.91 643.762C3246.9 646.142 3250.01 649.406 3252.24 653.552C3254.54 657.698 3255.69 662.42 3255.69 667.718C3255.69 668.64 3255.62 669.6 3255.46 670.598C3255.39 671.519 3255.23 672.556 3255 673.707H3209.63V663.342H3248.44L3243.72 667.488C3243.56 664.11 3242.91 661.269 3241.76 658.965C3240.61 656.662 3238.96 654.896 3236.81 653.667C3234.73 652.439 3232.16 651.824 3229.09 651.824C3225.86 651.824 3223.06 652.515 3220.68 653.898C3218.3 655.28 3216.46 657.238 3215.15 659.771C3213.85 662.228 3213.2 665.185 3213.2 668.64C3213.2 672.095 3213.89 675.128 3215.27 677.738C3216.65 680.349 3218.61 682.384 3221.14 683.843C3223.68 685.225 3226.59 685.916 3229.9 685.916C3232.74 685.916 3235.35 685.417 3237.73 684.419C3240.18 683.42 3242.26 681.962 3243.95 680.042L3252.01 688.219C3249.32 691.367 3246.06 693.748 3242.22 695.36C3238.38 696.972 3234.31 697.779 3230.01 697.779ZM3329.56 697.779C3323.73 697.779 3318.32 696.742 3313.32 694.669C3308.41 692.519 3304.11 689.563 3300.43 685.801C3296.74 681.962 3293.9 677.547 3291.9 672.556C3289.91 667.488 3288.91 662.075 3288.91 656.316C3288.91 650.557 3289.91 645.183 3291.9 640.192C3293.9 635.124 3296.74 630.709 3300.43 626.947C3304.11 623.185 3308.41 620.228 3313.32 618.079C3318.32 615.929 3323.73 614.854 3329.56 614.854C3336.09 614.854 3341.73 615.929 3346.49 618.079C3351.26 620.228 3355.48 623.146 3359.16 626.832L3350.18 635.815C3347.8 633.205 3344.88 631.17 3341.43 629.711C3338.05 628.252 3334.09 627.523 3329.56 627.523C3325.57 627.523 3321.92 628.214 3318.62 629.596C3315.32 630.978 3312.44 632.974 3309.98 635.585C3307.6 638.119 3305.76 641.152 3304.46 644.684C3303.15 648.216 3302.5 652.093 3302.5 656.316C3302.5 660.539 3303.15 664.417 3304.46 667.949C3305.76 671.481 3307.6 674.552 3309.98 677.163C3312.44 679.696 3315.32 681.654 3318.62 683.036C3321.92 684.419 3325.57 685.11 3329.56 685.11C3334.48 685.11 3338.62 684.38 3342 682.921C3345.46 681.386 3348.38 679.313 3350.76 676.702L3359.74 685.685C3356.05 689.448 3351.72 692.404 3346.73 694.554C3341.73 696.704 3336.01 697.779 3329.56 697.779ZM3392.45 697.779C3387.45 697.779 3382.92 696.512 3378.86 693.978C3374.86 691.444 3371.68 688.027 3369.3 683.728C3366.99 679.351 3365.84 674.475 3365.84 669.1C3365.84 663.649 3366.99 658.773 3369.3 654.473C3371.68 650.097 3374.86 646.642 3378.86 644.108C3382.92 641.497 3387.45 640.192 3392.45 640.192C3396.67 640.192 3400.39 641.113 3403.62 642.956C3406.92 644.722 3409.53 647.179 3411.45 650.327C3413.37 653.475 3414.33 657.046 3414.33 661.038V676.932C3414.33 680.925 3413.37 684.495 3411.45 687.643C3409.61 690.791 3407.03 693.287 3403.73 695.13C3400.43 696.896 3396.67 697.779 3392.45 697.779ZM3394.52 685.801C3399.2 685.801 3402.96 684.227 3405.81 681.079C3408.72 677.93 3410.18 673.899 3410.18 668.985C3410.18 665.684 3409.53 662.766 3408.22 660.232C3406.92 657.698 3405.08 655.74 3402.7 654.358C3400.39 652.899 3397.67 652.17 3394.52 652.17C3391.45 652.17 3388.72 652.899 3386.34 654.358C3384.04 655.74 3382.2 657.698 3380.81 660.232C3379.51 662.766 3378.86 665.684 3378.86 668.985C3378.86 672.287 3379.51 675.205 3380.81 677.738C3382.2 680.272 3384.04 682.269 3386.34 683.728C3388.72 685.11 3391.45 685.801 3394.52 685.801ZM3409.38 696.627V681.77L3411.56 668.294L3409.38 654.934V641.344H3422.05V696.627H3409.38ZM3475.15 696.627V664.724C3475.15 661.038 3473.96 658.005 3471.58 655.625C3469.28 653.245 3466.28 652.055 3462.6 652.055C3460.14 652.055 3457.95 652.592 3456.03 653.667C3454.11 654.742 3452.61 656.239 3451.54 658.159C3450.46 660.079 3449.93 662.267 3449.93 664.724L3444.97 661.96C3444.97 657.737 3445.9 654.013 3447.74 650.788C3449.58 647.486 3452.11 644.914 3455.34 643.071C3458.64 641.152 3462.33 640.192 3466.4 640.192C3470.54 640.192 3474.23 641.267 3477.45 643.417C3480.68 645.49 3483.21 648.216 3485.05 651.594C3486.9 654.896 3487.82 658.351 3487.82 661.96V696.627H3475.15ZM3437.26 696.627V641.344H3449.93V696.627H3437.26ZM3524.99 697.779C3520 697.779 3515.47 696.512 3511.4 693.978C3507.41 691.444 3504.22 688.027 3501.84 683.728C3499.54 679.351 3498.39 674.475 3498.39 669.1C3498.39 663.649 3499.54 658.773 3501.84 654.473C3504.22 650.097 3507.41 646.642 3511.4 644.108C3515.47 641.497 3520 640.192 3524.99 640.192C3529.22 640.192 3532.94 641.113 3536.17 642.956C3539.47 644.722 3542.08 647.179 3544 650.327C3545.92 653.475 3546.88 657.046 3546.88 661.038V676.932C3546.88 680.925 3545.92 684.495 3544 687.643C3542.15 690.791 3539.58 693.287 3536.28 695.13C3532.98 696.896 3529.22 697.779 3524.99 697.779ZM3527.07 685.801C3531.75 685.801 3535.51 684.227 3538.35 681.079C3541.27 677.93 3542.73 673.899 3542.73 668.985C3542.73 665.684 3542.08 662.766 3540.77 660.232C3539.47 657.698 3537.62 655.74 3535.24 654.358C3532.94 652.899 3530.22 652.17 3527.07 652.17C3524 652.17 3521.27 652.899 3518.89 654.358C3516.59 655.74 3514.74 657.698 3513.36 660.232C3512.06 662.766 3511.4 665.684 3511.4 668.985C3511.4 672.287 3512.06 675.205 3513.36 677.738C3514.74 680.272 3516.59 682.269 3518.89 683.728C3521.27 685.11 3524 685.801 3527.07 685.801ZM3541.92 696.627V681.77L3544.11 668.294L3541.92 654.934V641.344H3554.59V696.627H3541.92ZM3592.96 697.779C3587.96 697.779 3583.43 696.512 3579.37 693.978C3575.37 691.444 3572.19 688.027 3569.81 683.728C3567.5 679.351 3566.35 674.475 3566.35 669.1C3566.35 663.649 3567.5 658.773 3569.81 654.473C3572.19 650.097 3575.37 646.642 3579.37 644.108C3583.43 641.497 3587.96 640.192 3592.96 640.192C3597.18 640.192 3600.9 641.113 3604.13 642.956C3607.43 644.722 3610.04 647.179 3611.96 650.327C3613.88 653.475 3614.84 657.046 3614.84 661.038V676.932C3614.84 680.925 3613.88 684.495 3611.96 687.643C3610.12 690.791 3607.54 693.287 3604.24 695.13C3600.94 696.896 3597.18 697.779 3592.96 697.779ZM3595.03 685.801C3599.71 685.801 3603.47 684.227 3606.32 681.079C3609.23 677.93 3610.69 673.899 3610.69 668.985C3610.69 665.684 3610.04 662.766 3608.73 660.232C3607.43 657.698 3605.59 655.74 3603.21 654.358C3600.9 652.899 3598.18 652.17 3595.03 652.17C3591.96 652.17 3589.23 652.899 3586.85 654.358C3584.55 655.74 3582.71 657.698 3581.32 660.232C3580.02 662.766 3579.37 665.684 3579.37 668.985C3579.37 672.287 3580.02 675.205 3581.32 677.738C3582.71 680.272 3584.55 682.269 3586.85 683.728C3589.23 685.11 3591.96 685.801 3595.03 685.801ZM3609.89 696.627V681.77L3612.07 668.294L3609.89 654.934V641.344H3622.56V696.627H3609.89ZM3604.47 633.397C3601.94 633.397 3599.79 632.936 3598.02 632.015C3596.26 631.093 3594.61 630.21 3593.07 629.366C3591.61 628.444 3589.96 627.983 3588.12 627.983C3586.2 627.983 3584.66 628.329 3583.51 629.02C3582.36 629.711 3581.25 630.748 3580.17 632.13L3573.38 625.334C3575.6 622.801 3577.83 620.804 3580.06 619.345C3582.28 617.81 3584.89 617.042 3587.89 617.042C3590.42 617.042 3592.57 617.503 3594.34 618.424C3596.1 619.269 3597.75 620.152 3599.29 621.073C3600.83 621.994 3602.48 622.455 3604.24 622.455C3606.24 622.455 3607.81 622.11 3608.96 621.419C3610.12 620.727 3611.19 619.691 3612.19 618.309L3618.99 625.104C3616.76 627.638 3614.53 629.673 3612.3 631.208C3610.08 632.667 3607.47 633.397 3604.47 633.397ZM3685.13 697.779C3680.14 697.779 3675.61 696.512 3671.54 693.978C3667.54 691.444 3664.36 688.027 3661.98 683.728C3659.67 679.351 3658.52 674.475 3658.52 669.1C3658.52 663.649 3659.67 658.773 3661.98 654.473C3664.36 650.097 3667.54 646.642 3671.54 644.108C3675.61 641.497 3680.14 640.192 3685.13 640.192C3689.35 640.192 3693.07 641.113 3696.3 642.956C3699.6 644.722 3702.21 647.179 3704.13 650.327C3706.05 653.475 3707.01 657.046 3707.01 661.038V676.932C3707.01 680.925 3706.05 684.495 3704.13 687.643C3702.29 690.791 3699.71 693.287 3696.41 695.13C3693.11 696.896 3689.35 697.779 3685.13 697.779ZM3687.2 685.801C3690.35 685.801 3693.07 685.11 3695.38 683.728C3697.76 682.269 3699.6 680.272 3700.9 677.738C3702.21 675.205 3702.86 672.287 3702.86 668.985C3702.86 665.684 3702.21 662.766 3700.9 660.232C3699.6 657.698 3697.76 655.74 3695.38 654.358C3693.07 652.899 3690.35 652.17 3687.2 652.17C3684.13 652.17 3681.4 652.899 3679.02 654.358C3676.72 655.74 3674.88 657.698 3673.49 660.232C3672.19 662.766 3671.54 665.684 3671.54 668.985C3671.54 672.287 3672.19 675.205 3673.49 677.738C3674.88 680.272 3676.72 682.269 3679.02 683.728C3681.4 685.11 3684.13 685.801 3687.2 685.801ZM3714.73 696.627H3702.06V681.77L3704.25 668.294L3702.06 654.934V613.702H3714.73V696.627ZM3755.28 697.779C3749.9 697.779 3745.03 696.512 3740.65 693.978C3736.27 691.367 3732.78 687.874 3730.17 683.497C3727.63 679.121 3726.37 674.245 3726.37 668.87C3726.37 663.495 3727.63 658.658 3730.17 654.358C3732.78 650.058 3736.27 646.642 3740.65 644.108C3745.03 641.497 3749.9 640.192 3755.28 640.192C3760.73 640.192 3765.64 641.459 3770.02 643.993C3774.39 646.526 3777.85 649.982 3780.38 654.358C3782.99 658.658 3784.3 663.495 3784.3 668.87C3784.3 674.245 3782.99 679.121 3780.38 683.497C3777.85 687.874 3774.39 691.367 3770.02 693.978C3765.64 696.512 3760.73 697.779 3755.28 697.779ZM3755.28 685.57C3758.42 685.57 3761.19 684.879 3763.57 683.497C3766.03 682.038 3767.91 680.042 3769.21 677.508C3770.59 674.974 3771.29 672.095 3771.29 668.87C3771.29 665.645 3770.59 662.804 3769.21 660.347C3767.83 657.89 3765.95 655.971 3763.57 654.589C3761.19 653.13 3758.42 652.4 3755.28 652.4C3752.2 652.4 3749.44 653.13 3746.98 654.589C3744.6 655.971 3742.72 657.89 3741.34 660.347C3740.03 662.804 3739.38 665.645 3739.38 668.87C3739.38 672.095 3740.03 674.974 3741.34 677.508C3742.72 680.042 3744.6 682.038 3746.98 683.497C3749.44 684.879 3752.2 685.57 3755.28 685.57ZM3814.07 697.779C3811 697.779 3808.04 697.395 3805.2 696.627C3802.36 695.782 3799.75 694.631 3797.37 693.172C3794.99 691.636 3792.92 689.793 3791.15 687.643L3799.21 679.581C3801.13 681.808 3803.32 683.497 3805.78 684.649C3808.31 685.724 3811.15 686.261 3814.3 686.261C3817.14 686.261 3819.29 685.839 3820.75 684.994C3822.21 684.15 3822.94 682.921 3822.94 681.309C3822.94 679.62 3822.25 678.314 3820.86 677.393C3819.48 676.472 3817.68 675.704 3815.45 675.089C3813.3 674.398 3811 673.707 3808.54 673.016C3806.16 672.325 3803.86 671.404 3801.63 670.252C3799.48 669.024 3797.71 667.373 3796.33 665.3C3794.95 663.227 3794.26 660.539 3794.26 657.238C3794.26 653.706 3795.07 650.673 3796.68 648.139C3798.37 645.605 3800.71 643.647 3803.7 642.265C3806.77 640.883 3810.42 640.192 3814.65 640.192C3819.1 640.192 3823.01 640.998 3826.39 642.61C3829.85 644.146 3832.73 646.488 3835.03 649.636L3826.97 657.698C3825.36 655.702 3823.51 654.205 3821.44 653.206C3819.37 652.208 3816.99 651.709 3814.3 651.709C3811.77 651.709 3809.81 652.093 3808.43 652.861C3807.04 653.629 3806.35 654.742 3806.35 656.201C3806.35 657.737 3807.04 658.927 3808.43 659.771C3809.81 660.616 3811.57 661.345 3813.72 661.96C3815.95 662.574 3818.25 663.265 3820.63 664.033C3823.09 664.724 3825.39 665.722 3827.54 667.027C3829.77 668.256 3831.58 669.945 3832.96 672.095C3834.34 674.168 3835.03 676.894 3835.03 680.272C3835.03 685.647 3833.15 689.908 3829.39 693.057C3825.63 696.205 3820.52 697.779 3814.07 697.779ZM3909.19 697.779C3903.35 697.779 3897.94 696.742 3892.95 694.669C3888.04 692.519 3883.74 689.563 3880.05 685.801C3876.36 681.962 3873.52 677.547 3871.53 672.556C3869.53 667.488 3868.53 662.075 3868.53 656.316C3868.53 650.557 3869.53 645.183 3871.53 640.192C3873.52 635.124 3876.36 630.709 3880.05 626.947C3883.74 623.185 3888.04 620.228 3892.95 618.079C3897.94 615.929 3903.35 614.854 3909.19 614.854C3915.72 614.854 3921.36 615.929 3926.12 618.079C3930.88 620.228 3935.1 623.146 3938.79 626.832L3929.81 635.815C3927.43 633.205 3924.51 631.17 3921.05 629.711C3917.67 628.252 3913.72 627.523 3909.19 627.523C3905.2 627.523 3901.55 628.214 3898.25 629.596C3894.95 630.978 3892.07 632.974 3889.61 635.585C3887.23 638.119 3885.39 641.152 3884.08 644.684C3882.78 648.216 3882.12 652.093 3882.12 656.316C3882.12 660.539 3882.78 664.417 3884.08 667.949C3885.39 671.481 3887.23 674.552 3889.61 677.163C3892.07 679.696 3894.95 681.654 3898.25 683.036C3901.55 684.419 3905.2 685.11 3909.19 685.11C3914.1 685.11 3918.25 684.38 3921.63 682.921C3925.08 681.386 3928 679.313 3930.38 676.702L3939.36 685.685C3935.68 689.448 3931.34 692.404 3926.35 694.554C3921.36 696.704 3915.64 697.779 3909.19 697.779ZM3972.07 697.779C3967.08 697.779 3962.55 696.512 3958.48 693.978C3954.49 691.444 3951.3 688.027 3948.92 683.728C3946.62 679.351 3945.47 674.475 3945.47 669.1C3945.47 663.649 3946.62 658.773 3948.92 654.473C3951.3 650.097 3954.49 646.642 3958.48 644.108C3962.55 641.497 3967.08 640.192 3972.07 640.192C3976.29 640.192 3980.02 641.113 3983.24 642.956C3986.54 644.722 3989.15 647.179 3991.07 650.327C3992.99 653.475 3993.95 657.046 3993.95 661.038V676.932C3993.95 680.925 3992.99 684.495 3991.07 687.643C3989.23 690.791 3986.66 693.287 3983.36 695.13C3980.06 696.896 3976.29 697.779 3972.07 697.779ZM3974.14 685.801C3978.83 685.801 3982.59 684.227 3985.43 681.079C3988.35 677.93 3989.81 673.899 3989.81 668.985C3989.81 665.684 3989.15 662.766 3987.85 660.232C3986.54 657.698 3984.7 655.74 3982.32 654.358C3980.02 652.899 3977.29 652.17 3974.14 652.17C3971.07 652.17 3968.35 652.899 3965.97 654.358C3963.66 655.74 3961.82 657.698 3960.44 660.232C3959.13 662.766 3958.48 665.684 3958.48 668.985C3958.48 672.287 3959.13 675.205 3960.44 677.738C3961.82 680.272 3963.66 682.269 3965.97 683.728C3968.35 685.11 3971.07 685.801 3974.14 685.801ZM3989 696.627V681.77L3991.19 668.294L3989 654.934V641.344H4001.67V696.627H3989ZM4016.88 696.627V641.344H4029.55V696.627H4016.88ZM4029.55 665.876L4025.17 663.687C4025.17 656.7 4026.71 651.057 4029.78 646.757C4032.93 642.38 4037.65 640.192 4043.95 640.192C4046.71 640.192 4049.21 640.691 4051.43 641.689C4053.66 642.687 4055.73 644.3 4057.65 646.526L4049.36 655.049C4048.36 653.974 4047.25 653.206 4046.02 652.746C4044.79 652.285 4043.37 652.055 4041.76 652.055C4038.23 652.055 4035.31 653.168 4033.01 655.395C4030.7 657.621 4029.55 661.115 4029.55 665.876ZM4086.4 697.779C4081.41 697.779 4076.88 696.512 4072.81 693.978C4068.82 691.444 4065.63 688.027 4063.25 683.728C4060.95 679.351 4059.79 674.475 4059.79 669.1C4059.79 663.649 4060.95 658.773 4063.25 654.473C4065.63 650.097 4068.82 646.642 4072.81 644.108C4076.88 641.497 4081.41 640.192 4086.4 640.192C4090.62 640.192 4094.35 641.113 4097.57 642.956C4100.87 644.722 4103.48 647.179 4105.4 650.327C4107.32 653.475 4108.28 657.046 4108.28 661.038V676.932C4108.28 680.925 4107.32 684.495 4105.4 687.643C4103.56 690.791 4100.99 693.287 4097.69 695.13C4094.38 696.896 4090.62 697.779 4086.4 697.779ZM4088.47 685.801C4093.16 685.801 4096.92 684.227 4099.76 681.079C4102.68 677.93 4104.14 673.899 4104.14 668.985C4104.14 665.684 4103.48 662.766 4102.18 660.232C4100.87 657.698 4099.03 655.74 4096.65 654.358C4094.35 652.899 4091.62 652.17 4088.47 652.17C4085.4 652.17 4082.67 652.899 4080.29 654.358C4077.99 655.74 4076.15 657.698 4074.77 660.232C4073.46 662.766 4072.81 665.684 4072.81 668.985C4072.81 672.287 4073.46 675.205 4074.77 677.738C4076.15 680.272 4077.99 682.269 4080.29 683.728C4082.67 685.11 4085.4 685.801 4088.47 685.801ZM4103.33 696.627V681.77L4105.52 668.294L4103.33 654.934V641.344H4116V696.627H4103.33ZM4125.68 720.813C4121.77 720.813 4118.58 720.199 4116.12 718.971C4113.59 717.742 4111.28 715.938 4109.21 713.557L4117.39 705.38C4118.31 706.609 4119.35 707.492 4120.5 708.029C4121.65 708.643 4123.07 708.951 4124.76 708.951C4126.83 708.951 4128.6 708.298 4130.06 706.993C4131.59 705.764 4132.36 703.921 4132.36 701.464V641.344H4145.03V701.349C4145.03 705.572 4144.11 709.104 4142.27 711.945C4140.5 714.863 4138.16 717.051 4135.24 718.51C4132.32 720.046 4129.14 720.813 4125.68 720.813ZM4138.93 631.208C4136.78 631.208 4134.97 630.479 4133.51 629.02C4132.13 627.561 4131.44 625.757 4131.44 623.607C4131.44 621.457 4132.13 619.653 4133.51 618.194C4134.97 616.735 4136.78 616.005 4138.93 616.005C4141.15 616.005 4142.96 616.735 4144.34 618.194C4145.72 619.653 4146.41 621.457 4146.41 623.607C4146.41 625.757 4145.72 627.561 4144.34 629.02C4142.96 630.479 4141.15 631.208 4138.93 631.208ZM4183.41 697.779C4178.41 697.779 4173.88 696.512 4169.81 693.978C4165.82 691.444 4162.64 688.027 4160.26 683.728C4157.95 679.351 4156.8 674.475 4156.8 669.1C4156.8 663.649 4157.95 658.773 4160.26 654.473C4162.64 650.097 4165.82 646.642 4169.81 644.108C4173.88 641.497 4178.41 640.192 4183.41 640.192C4187.63 640.192 4191.35 641.113 4194.58 642.956C4197.88 644.722 4200.49 647.179 4202.41 650.327C4204.33 653.475 4205.29 657.046 4205.29 661.038V676.932C4205.29 680.925 4204.33 684.495 4202.41 687.643C4200.57 690.791 4197.99 693.287 4194.69 695.13C4191.39 696.896 4187.63 697.779 4183.41 697.779ZM4185.48 685.801C4190.16 685.801 4193.92 684.227 4196.77 681.079C4199.68 677.93 4201.14 673.899 4201.14 668.985C4201.14 665.684 4200.49 662.766 4199.18 660.232C4197.88 657.698 4196.04 655.74 4193.66 654.358C4191.35 652.899 4188.63 652.17 4185.48 652.17C4182.41 652.17 4179.68 652.899 4177.3 654.358C4175 655.74 4173.15 657.698 4171.77 660.232C4170.47 662.766 4169.81 665.684 4169.81 668.985C4169.81 672.287 4170.47 675.205 4171.77 677.738C4173.15 680.272 4175 682.269 4177.3 683.728C4179.68 685.11 4182.41 685.801 4185.48 685.801ZM4200.34 696.627V681.77L4202.52 668.294L4200.34 654.934V641.344H4213V696.627H4200.34ZM4180.07 633.397L4174.31 627.638L4189.05 608.865L4198.84 618.654L4180.07 633.397ZM4246.3 697.779C4243.23 697.779 4240.27 697.395 4237.43 696.627C4234.59 695.782 4231.98 694.631 4229.6 693.172C4227.22 691.636 4225.15 689.793 4223.38 687.643L4231.44 679.581C4233.36 681.808 4235.55 683.497 4238.01 684.649C4240.54 685.724 4243.38 686.261 4246.53 686.261C4249.37 686.261 4251.52 685.839 4252.98 684.994C4254.44 684.15 4255.17 682.921 4255.17 681.309C4255.17 679.62 4254.48 678.314 4253.09 677.393C4251.71 676.472 4249.91 675.704 4247.68 675.089C4245.53 674.398 4243.23 673.707 4240.77 673.016C4238.39 672.325 4236.09 671.404 4233.86 670.252C4231.71 669.024 4229.94 667.373 4228.56 665.3C4227.18 663.227 4226.49 660.539 4226.49 657.238C4226.49 653.706 4227.3 650.673 4228.91 648.139C4230.6 645.605 4232.94 643.647 4235.93 642.265C4239 640.883 4242.65 640.192 4246.87 640.192C4251.33 640.192 4255.24 640.998 4258.62 642.61C4262.08 644.146 4264.96 646.488 4267.26 649.636L4259.2 657.698C4257.59 655.702 4255.74 654.205 4253.67 653.206C4251.6 652.208 4249.22 651.709 4246.53 651.709C4244 651.709 4242.04 652.093 4240.66 652.861C4239.27 653.629 4238.58 654.742 4238.58 656.201C4238.58 657.737 4239.27 658.927 4240.66 659.771C4242.04 660.616 4243.8 661.345 4245.95 661.96C4248.18 662.574 4250.48 663.265 4252.86 664.033C4255.32 664.724 4257.62 665.722 4259.77 667.027C4262 668.256 4263.81 669.945 4265.19 672.095C4266.57 674.168 4267.26 676.894 4267.26 680.272C4267.26 685.647 4265.38 689.908 4261.62 693.057C4257.85 696.205 4252.75 697.779 4246.3 697.779Z" fill="white"/>
<path d="M865.318 991.39V943.79H873.368V991.39H865.318ZM849.358 949.74V942.39H889.328V949.74H849.358ZM904.316 992.09C900.956 992.09 897.923 991.343 895.216 989.85C892.556 988.31 890.433 986.21 888.846 983.55C887.306 980.89 886.536 977.903 886.536 974.59C886.536 971.276 887.306 968.313 888.846 965.7C890.386 963.04 892.463 960.94 895.076 959.4C897.736 957.86 900.676 957.09 903.896 957.09C907.023 957.09 909.776 957.813 912.156 959.26C914.583 960.706 916.473 962.69 917.826 965.21C919.226 967.73 919.926 970.6 919.926 973.82C919.926 974.38 919.879 974.963 919.786 975.57C919.739 976.13 919.646 976.76 919.506 977.46H891.926V971.16H915.516L912.646 973.68C912.553 971.626 912.156 969.9 911.456 968.5C910.756 967.1 909.753 966.026 908.446 965.28C907.186 964.533 905.623 964.16 903.756 964.16C901.796 964.16 900.093 964.58 898.646 965.42C897.199 966.26 896.079 967.45 895.286 968.99C894.493 970.483 894.096 972.28 894.096 974.38C894.096 976.48 894.516 978.323 895.356 979.91C896.196 981.496 897.386 982.733 898.926 983.62C900.466 984.46 902.239 984.88 904.246 984.88C905.973 984.88 907.559 984.576 909.006 983.97C910.499 983.363 911.759 982.476 912.786 981.31L917.686 986.28C916.053 988.193 914.069 989.64 911.736 990.62C909.403 991.6 906.929 992.09 904.316 992.09ZM928.199 991.39V957.79H935.899V991.39H928.199ZM950.529 991.39V971.37C950.529 969.13 949.829 967.403 948.429 966.19C947.029 964.93 945.302 964.3 943.249 964.3C941.849 964.3 940.589 964.58 939.469 965.14C938.395 965.7 937.532 966.516 936.879 967.59C936.225 968.616 935.899 969.876 935.899 971.37L932.889 969.69C932.889 967.123 933.449 964.906 934.569 963.04C935.689 961.173 937.205 959.726 939.119 958.7C941.032 957.626 943.179 957.09 945.559 957.09C947.939 957.09 950.085 957.603 951.999 958.63C953.912 959.656 955.429 961.103 956.549 962.97C957.669 964.836 958.229 967.076 958.229 969.69V991.39H950.529ZM972.859 991.39V971.37C972.859 969.13 972.159 967.403 970.759 966.19C969.359 964.93 967.632 964.3 965.579 964.3C964.225 964.3 962.989 964.58 961.869 965.14C960.749 965.7 959.862 966.516 959.209 967.59C958.555 968.616 958.229 969.876 958.229 971.37L953.889 969.69C954.122 967.123 954.869 964.906 956.129 963.04C957.389 961.173 958.999 959.726 960.959 958.7C962.965 957.626 965.159 957.09 967.539 957.09C969.965 957.09 972.159 957.603 974.119 958.63C976.079 959.656 977.642 961.103 978.809 962.97C979.975 964.836 980.559 967.076 980.559 969.69V991.39H972.859ZM1004.66 992.09C1001.63 992.09 998.875 991.32 996.401 989.78C993.975 988.24 992.038 986.163 990.591 983.55C989.191 980.89 988.491 977.926 988.491 974.66C988.491 971.346 989.191 968.383 990.591 965.77C992.038 963.11 993.975 961.01 996.401 959.47C998.875 957.883 1001.63 957.09 1004.66 957.09C1007.23 957.09 1009.49 957.65 1011.45 958.77C1013.46 959.843 1015.04 961.336 1016.21 963.25C1017.38 965.163 1017.96 967.333 1017.96 969.76V979.42C1017.96 981.846 1017.38 984.016 1016.21 985.93C1015.09 987.843 1013.53 989.36 1011.52 990.48C1009.51 991.553 1007.23 992.09 1004.66 992.09ZM1005.92 984.81C1008.77 984.81 1011.05 983.853 1012.78 981.94C1014.55 980.026 1015.44 977.576 1015.44 974.59C1015.44 972.583 1015.04 970.81 1014.25 969.27C1013.46 967.73 1012.34 966.54 1010.89 965.7C1009.49 964.813 1007.83 964.37 1005.92 964.37C1004.05 964.37 1002.4 964.813 1000.95 965.7C999.551 966.54 998.431 967.73 997.591 969.27C996.798 970.81 996.401 972.583 996.401 974.59C996.401 976.596 996.798 978.37 997.591 979.91C998.431 981.45 999.551 982.663 1000.95 983.55C1002.4 984.39 1004.05 984.81 1005.92 984.81ZM1014.95 991.39V982.36L1016.28 974.17L1014.95 966.05V957.79H1022.65V991.39H1014.95ZM1044.29 992.09C1042.42 992.09 1040.62 991.856 1038.9 991.39C1037.17 990.876 1035.58 990.176 1034.14 989.29C1032.69 988.356 1031.43 987.236 1030.36 985.93L1035.26 981.03C1036.42 982.383 1037.75 983.41 1039.25 984.11C1040.79 984.763 1042.51 985.09 1044.43 985.09C1046.15 985.09 1047.46 984.833 1048.35 984.32C1049.23 983.806 1049.68 983.06 1049.68 982.08C1049.68 981.053 1049.26 980.26 1048.42 979.7C1047.58 979.14 1046.48 978.673 1045.13 978.3C1043.82 977.88 1042.42 977.46 1040.93 977.04C1039.48 976.62 1038.08 976.06 1036.73 975.36C1035.42 974.613 1034.35 973.61 1033.51 972.35C1032.67 971.09 1032.25 969.456 1032.25 967.45C1032.25 965.303 1032.74 963.46 1033.72 961.92C1034.74 960.38 1036.17 959.19 1037.99 958.35C1039.85 957.51 1042.07 957.09 1044.64 957.09C1047.34 957.09 1049.72 957.58 1051.78 958.56C1053.88 959.493 1055.63 960.916 1057.03 962.83L1052.13 967.73C1051.15 966.516 1050.03 965.606 1048.77 965C1047.51 964.393 1046.06 964.09 1044.43 964.09C1042.89 964.09 1041.7 964.323 1040.86 964.79C1040.02 965.256 1039.6 965.933 1039.6 966.82C1039.6 967.753 1040.02 968.476 1040.86 968.99C1041.7 969.503 1042.77 969.946 1044.08 970.32C1045.43 970.693 1046.83 971.113 1048.28 971.58C1049.77 972 1051.17 972.606 1052.48 973.4C1053.83 974.146 1054.93 975.173 1055.77 976.48C1056.61 977.74 1057.03 979.396 1057.03 981.45C1057.03 984.716 1055.88 987.306 1053.6 989.22C1051.31 991.133 1048.21 992.09 1044.29 992.09ZM1070.66 992.09C1069.16 992.09 1067.93 991.6 1066.95 990.62C1066.01 989.593 1065.55 988.356 1065.55 986.91C1065.55 985.416 1066.01 984.18 1066.95 983.2C1067.93 982.22 1069.16 981.73 1070.66 981.73C1072.15 981.73 1073.36 982.22 1074.3 983.2C1075.28 984.18 1075.77 985.416 1075.77 986.91C1075.77 988.356 1075.28 989.593 1074.3 990.62C1073.36 991.6 1072.15 992.09 1070.66 992.09ZM1070.66 970.46C1069.16 970.46 1067.93 969.97 1066.95 968.99C1066.01 967.963 1065.55 966.726 1065.55 965.28C1065.55 963.786 1066.01 962.55 1066.95 961.57C1067.93 960.59 1069.16 960.1 1070.66 960.1C1072.15 960.1 1073.36 960.59 1074.3 961.57C1075.28 962.55 1075.77 963.786 1075.77 965.28C1075.77 966.726 1075.28 967.963 1074.3 968.99C1073.36 969.97 1072.15 970.46 1070.66 970.46ZM1117.39 992.09C1113.52 992.09 1110.23 991.39 1107.52 989.99C1104.82 988.59 1102.39 986.536 1100.24 983.83L1105.7 978.37C1107.06 980.33 1108.67 981.87 1110.53 982.99C1112.4 984.063 1114.78 984.6 1117.67 984.6C1120.38 984.6 1122.53 984.04 1124.11 982.92C1125.75 981.8 1126.56 980.26 1126.56 978.3C1126.56 976.666 1126.14 975.336 1125.3 974.31C1124.46 973.283 1123.34 972.443 1121.94 971.79C1120.59 971.09 1119.07 970.483 1117.39 969.97C1115.76 969.41 1114.1 968.803 1112.42 968.15C1110.79 967.45 1109.27 966.586 1107.87 965.56C1106.52 964.533 1105.42 963.203 1104.58 961.57C1103.74 959.936 1103.32 957.86 1103.32 955.34C1103.32 952.446 1104.02 949.996 1105.42 947.99C1106.87 945.936 1108.81 944.373 1111.23 943.3C1113.66 942.226 1116.37 941.69 1119.35 941.69C1122.57 941.69 1125.44 942.32 1127.96 943.58C1130.53 944.84 1132.61 946.45 1134.19 948.41L1128.73 953.87C1127.33 952.283 1125.86 951.116 1124.32 950.37C1122.83 949.576 1121.1 949.18 1119.14 949.18C1116.72 949.18 1114.8 949.67 1113.4 950.65C1112.05 951.63 1111.37 953.006 1111.37 954.78C1111.37 956.273 1111.79 957.486 1112.63 958.42C1113.47 959.306 1114.57 960.076 1115.92 960.73C1117.32 961.336 1118.84 961.92 1120.47 962.48C1122.15 963.04 1123.81 963.67 1125.44 964.37C1127.12 965.07 1128.64 965.98 1129.99 967.1C1131.39 968.173 1132.51 969.573 1133.35 971.3C1134.19 973.026 1134.61 975.196 1134.61 977.81C1134.61 982.196 1133.05 985.673 1129.92 988.24C1126.84 990.806 1122.67 992.09 1117.39 992.09ZM1143.76 991.39V957.79H1151.46V991.39H1143.76ZM1147.61 951.63C1146.3 951.63 1145.21 951.186 1144.32 950.3C1143.48 949.413 1143.06 948.316 1143.06 947.01C1143.06 945.703 1143.48 944.606 1144.32 943.72C1145.21 942.833 1146.3 942.39 1147.61 942.39C1148.96 942.39 1150.06 942.833 1150.9 943.72C1151.74 944.606 1152.16 945.703 1152.16 947.01C1152.16 948.316 1151.74 949.413 1150.9 950.3C1150.06 951.186 1148.96 951.63 1147.61 951.63ZM1167.31 991.39V943.79H1175.01V991.39H1167.31ZM1159.26 964.79V957.79H1183.06V964.79H1159.26ZM1204.54 992.09C1201.69 992.09 1199.15 991.46 1196.91 990.2C1194.72 988.94 1192.99 987.213 1191.73 985.02C1190.52 982.78 1189.91 980.213 1189.91 977.32V957.79H1197.61V976.97C1197.61 978.603 1197.87 980.003 1198.38 981.17C1198.94 982.29 1199.73 983.153 1200.76 983.76C1201.83 984.366 1203.09 984.67 1204.54 984.67C1206.78 984.67 1208.48 984.016 1209.65 982.71C1210.86 981.356 1211.47 979.443 1211.47 976.97V957.79H1219.17V977.32C1219.17 980.26 1218.54 982.85 1217.28 985.09C1216.07 987.283 1214.36 989.01 1212.17 990.27C1209.98 991.483 1207.43 992.09 1204.54 992.09ZM1243.08 992.09C1240.05 992.09 1237.3 991.32 1234.82 989.78C1232.4 988.24 1230.46 986.163 1229.01 983.55C1227.61 980.89 1226.91 977.926 1226.91 974.66C1226.91 971.346 1227.61 968.383 1229.01 965.77C1230.46 963.11 1232.4 961.01 1234.82 959.47C1237.3 957.883 1240.05 957.09 1243.08 957.09C1245.65 957.09 1247.91 957.65 1249.87 958.77C1251.88 959.843 1253.47 961.336 1254.63 963.25C1255.8 965.163 1256.38 967.333 1256.38 969.76V979.42C1256.38 981.846 1255.8 984.016 1254.63 985.93C1253.51 987.843 1251.95 989.36 1249.94 990.48C1247.94 991.553 1245.65 992.09 1243.08 992.09ZM1244.34 984.81C1247.19 984.81 1249.48 983.853 1251.2 981.94C1252.98 980.026 1253.86 977.576 1253.86 974.59C1253.86 972.583 1253.47 970.81 1252.67 969.27C1251.88 967.73 1250.76 966.54 1249.31 965.7C1247.91 964.813 1246.26 964.37 1244.34 964.37C1242.48 964.37 1240.82 964.813 1239.37 965.7C1237.97 966.54 1236.85 967.73 1236.01 969.27C1235.22 970.81 1234.82 972.583 1234.82 974.59C1234.82 976.596 1235.22 978.37 1236.01 979.91C1236.85 981.45 1237.97 982.663 1239.37 983.55C1240.82 984.39 1242.48 984.81 1244.34 984.81ZM1253.37 991.39V982.36L1254.7 974.17L1253.37 966.05V957.79H1261.07V991.39H1253.37ZM1287.19 992.09C1283.87 992.09 1280.86 991.32 1278.16 989.78C1275.5 988.24 1273.4 986.14 1271.86 983.48C1270.32 980.82 1269.55 977.856 1269.55 974.59C1269.55 971.276 1270.32 968.313 1271.86 965.7C1273.4 963.04 1275.5 960.94 1278.16 959.4C1280.86 957.86 1283.87 957.09 1287.19 957.09C1289.8 957.09 1292.23 957.603 1294.47 958.63C1296.75 959.61 1298.69 961.033 1300.28 962.9L1295.24 968.01C1294.26 966.843 1293.07 965.98 1291.67 965.42C1290.31 964.813 1288.82 964.51 1287.19 964.51C1285.27 964.51 1283.57 964.953 1282.08 965.84C1280.63 966.68 1279.49 967.846 1278.65 969.34C1277.85 970.833 1277.46 972.583 1277.46 974.59C1277.46 976.55 1277.85 978.3 1278.65 979.84C1279.49 981.333 1280.63 982.523 1282.08 983.41C1283.57 984.25 1285.27 984.67 1287.19 984.67C1288.82 984.67 1290.31 984.39 1291.67 983.83C1293.07 983.223 1294.26 982.336 1295.24 981.17L1300.28 986.28C1298.69 988.146 1296.75 989.593 1294.47 990.62C1292.23 991.6 1289.8 992.09 1287.19 992.09ZM1285.02 1006.09C1283.29 1006.09 1281.77 1005.88 1280.47 1005.46C1279.16 1005.04 1277.9 1004.43 1276.69 1003.64L1279.84 999.65C1280.35 1000.12 1280.98 1000.49 1281.73 1000.77C1282.47 1001.1 1283.38 1001.26 1284.46 1001.26C1285.67 1001.26 1286.53 1001.1 1287.05 1000.77C1287.61 1000.44 1287.89 1000.05 1287.89 999.58C1287.89 999.066 1287.63 998.6 1287.12 998.18C1286.65 997.806 1285.88 997.62 1284.81 997.62H1281.17L1283.48 990.41H1289.08L1287.4 995.45L1284.6 993.35C1287.49 993.256 1289.82 993.816 1291.6 995.03C1293.37 996.29 1294.26 997.853 1294.26 999.72C1294.26 1001.54 1293.39 1003.06 1291.67 1004.27C1289.99 1005.48 1287.77 1006.09 1285.02 1006.09ZM1321.32 992.09C1318.28 992.09 1315.53 991.32 1313.06 989.78C1310.63 988.24 1308.69 986.163 1307.25 983.55C1305.85 980.89 1305.15 977.926 1305.15 974.66C1305.15 971.346 1305.85 968.383 1307.25 965.77C1308.69 963.11 1310.63 961.01 1313.06 959.47C1315.53 957.883 1318.28 957.09 1321.32 957.09C1323.88 957.09 1326.15 957.65 1328.11 958.77C1330.11 959.843 1331.7 961.336 1332.87 963.25C1334.03 965.163 1334.62 967.333 1334.62 969.76V979.42C1334.62 981.846 1334.03 984.016 1332.87 985.93C1331.75 987.843 1330.18 989.36 1328.18 990.48C1326.17 991.553 1323.88 992.09 1321.32 992.09ZM1322.58 984.81C1325.42 984.81 1327.71 983.853 1329.44 981.94C1331.21 980.026 1332.1 977.576 1332.1 974.59C1332.1 972.583 1331.7 970.81 1330.91 969.27C1330.11 967.73 1328.99 966.54 1327.55 965.7C1326.15 964.813 1324.49 964.37 1322.58 964.37C1320.71 964.37 1319.05 964.813 1317.61 965.7C1316.21 966.54 1315.09 967.73 1314.25 969.27C1313.45 970.81 1313.06 972.583 1313.06 974.59C1313.06 976.596 1313.45 978.37 1314.25 979.91C1315.09 981.45 1316.21 982.663 1317.61 983.55C1319.05 984.39 1320.71 984.81 1322.58 984.81ZM1331.61 991.39V982.36L1332.94 974.17L1331.61 966.05V957.79H1339.31V991.39H1331.61ZM1328.32 952.96C1326.78 952.96 1325.47 952.68 1324.4 952.12C1323.32 951.56 1322.32 951.023 1321.39 950.51C1320.5 949.95 1319.5 949.67 1318.38 949.67C1317.21 949.67 1316.28 949.88 1315.58 950.3C1314.88 950.72 1314.2 951.35 1313.55 952.19L1309.42 948.06C1310.77 946.52 1312.12 945.306 1313.48 944.42C1314.83 943.486 1316.42 943.02 1318.24 943.02C1319.78 943.02 1321.08 943.3 1322.16 943.86C1323.23 944.373 1324.23 944.91 1325.17 945.47C1326.1 946.03 1327.1 946.31 1328.18 946.31C1329.39 946.31 1330.35 946.1 1331.05 945.68C1331.75 945.26 1332.4 944.63 1333.01 943.79L1337.14 947.92C1335.78 949.46 1334.43 950.696 1333.08 951.63C1331.72 952.516 1330.14 952.96 1328.32 952.96ZM1365.35 992.09C1362.08 992.09 1359.12 991.32 1356.46 989.78C1353.8 988.193 1351.68 986.07 1350.09 983.41C1348.55 980.75 1347.78 977.786 1347.78 974.52C1347.78 971.253 1348.55 968.313 1350.09 965.7C1351.68 963.086 1353.8 961.01 1356.46 959.47C1359.12 957.883 1362.08 957.09 1365.35 957.09C1368.66 957.09 1371.65 957.86 1374.31 959.4C1376.97 960.94 1379.07 963.04 1380.61 965.7C1382.2 968.313 1382.99 971.253 1382.99 974.52C1382.99 977.786 1382.2 980.75 1380.61 983.41C1379.07 986.07 1376.97 988.193 1374.31 989.78C1371.65 991.32 1368.66 992.09 1365.35 992.09ZM1365.35 984.67C1367.26 984.67 1368.94 984.25 1370.39 983.41C1371.88 982.523 1373.03 981.31 1373.82 979.77C1374.66 978.23 1375.08 976.48 1375.08 974.52C1375.08 972.56 1374.66 970.833 1373.82 969.34C1372.98 967.846 1371.84 966.68 1370.39 965.84C1368.94 964.953 1367.26 964.51 1365.35 964.51C1363.48 964.51 1361.8 964.953 1360.31 965.84C1358.86 966.68 1357.72 967.846 1356.88 969.34C1356.09 970.833 1355.69 972.56 1355.69 974.52C1355.69 976.48 1356.09 978.23 1356.88 979.77C1357.72 981.31 1358.86 982.523 1360.31 983.41C1361.8 984.25 1363.48 984.67 1365.35 984.67ZM1421.68 992.09C1418.64 992.09 1415.89 991.32 1413.42 989.78C1410.99 988.24 1409.05 986.163 1407.61 983.55C1406.21 980.89 1405.51 977.926 1405.51 974.66C1405.51 971.346 1406.21 968.383 1407.61 965.77C1409.05 963.11 1410.99 961.01 1413.42 959.47C1415.89 957.883 1418.64 957.09 1421.68 957.09C1424.24 957.09 1426.51 957.65 1428.47 958.77C1430.47 959.843 1432.06 961.336 1433.23 963.25C1434.39 965.163 1434.98 967.333 1434.98 969.76V979.42C1434.98 981.846 1434.39 984.016 1433.23 985.93C1432.11 987.843 1430.54 989.36 1428.54 990.48C1426.53 991.553 1424.24 992.09 1421.68 992.09ZM1422.94 984.81C1424.85 984.81 1426.51 984.39 1427.91 983.55C1429.35 982.663 1430.47 981.45 1431.27 979.91C1432.06 978.37 1432.46 976.596 1432.46 974.59C1432.46 972.583 1432.06 970.81 1431.27 969.27C1430.47 967.73 1429.35 966.54 1427.91 965.7C1426.51 964.813 1424.85 964.37 1422.94 964.37C1421.07 964.37 1419.41 964.813 1417.97 965.7C1416.57 966.54 1415.45 967.73 1414.61 969.27C1413.81 970.81 1413.42 972.583 1413.42 974.59C1413.42 976.596 1413.81 978.37 1414.61 979.91C1415.45 981.45 1416.57 982.663 1417.97 983.55C1419.41 984.39 1421.07 984.81 1422.94 984.81ZM1439.67 991.39H1431.97V982.36L1433.3 974.17L1431.97 966.05V940.99H1439.67V991.39ZM1464.38 992.09C1461.35 992.09 1458.6 991.32 1456.12 989.78C1453.7 988.24 1451.76 986.163 1450.31 983.55C1448.91 980.89 1448.21 977.926 1448.21 974.66C1448.21 971.346 1448.91 968.383 1450.31 965.77C1451.76 963.11 1453.7 961.01 1456.12 959.47C1458.6 957.883 1461.35 957.09 1464.38 957.09C1466.95 957.09 1469.21 957.65 1471.17 958.77C1473.18 959.843 1474.77 961.336 1475.93 963.25C1477.1 965.163 1477.68 967.333 1477.68 969.76V979.42C1477.68 981.846 1477.1 984.016 1475.93 985.93C1474.81 987.843 1473.25 989.36 1471.24 990.48C1469.24 991.553 1466.95 992.09 1464.38 992.09ZM1465.64 984.81C1468.49 984.81 1470.78 983.853 1472.5 981.94C1474.28 980.026 1475.16 977.576 1475.16 974.59C1475.16 972.583 1474.77 970.81 1473.97 969.27C1473.18 967.73 1472.06 966.54 1470.61 965.7C1469.21 964.813 1467.56 964.37 1465.64 964.37C1463.78 964.37 1462.12 964.813 1460.67 965.7C1459.27 966.54 1458.15 967.73 1457.31 969.27C1456.52 970.81 1456.12 972.583 1456.12 974.59C1456.12 976.596 1456.52 978.37 1457.31 979.91C1458.15 981.45 1459.27 982.663 1460.67 983.55C1462.12 984.39 1463.78 984.81 1465.64 984.81ZM1474.67 991.39V982.36L1476 974.17L1474.67 966.05V957.79H1482.37V991.39H1474.67ZM1504.01 992.09C1502.14 992.09 1500.35 991.856 1498.62 991.39C1496.89 990.876 1495.31 990.176 1493.86 989.29C1492.41 988.356 1491.15 987.236 1490.08 985.93L1494.98 981.03C1496.15 982.383 1497.48 983.41 1498.97 984.11C1500.51 984.763 1502.24 985.09 1504.15 985.09C1505.88 985.09 1507.18 984.833 1508.07 984.32C1508.96 983.806 1509.4 983.06 1509.4 982.08C1509.4 981.053 1508.98 980.26 1508.14 979.7C1507.3 979.14 1506.2 978.673 1504.85 978.3C1503.54 977.88 1502.14 977.46 1500.65 977.04C1499.2 976.62 1497.8 976.06 1496.45 975.36C1495.14 974.613 1494.07 973.61 1493.23 972.35C1492.39 971.09 1491.97 969.456 1491.97 967.45C1491.97 965.303 1492.46 963.46 1493.44 961.92C1494.47 960.38 1495.89 959.19 1497.71 958.35C1499.58 957.51 1501.79 957.09 1504.36 957.09C1507.07 957.09 1509.45 957.58 1511.5 958.56C1513.6 959.493 1515.35 960.916 1516.75 962.83L1511.85 967.73C1510.87 966.516 1509.75 965.606 1508.49 965C1507.23 964.393 1505.78 964.09 1504.15 964.09C1502.61 964.09 1501.42 964.323 1500.58 964.79C1499.74 965.256 1499.32 965.933 1499.32 966.82C1499.32 967.753 1499.74 968.476 1500.58 968.99C1501.42 969.503 1502.49 969.946 1503.8 970.32C1505.15 970.693 1506.55 971.113 1508 971.58C1509.49 972 1510.89 972.606 1512.2 973.4C1513.55 974.146 1514.65 975.173 1515.49 976.48C1516.33 977.74 1516.75 979.396 1516.75 981.45C1516.75 984.716 1515.61 987.306 1513.32 989.22C1511.03 991.133 1507.93 992.09 1504.01 992.09ZM1536.74 991.39L1556.9 942.39H1562.5L1582.52 991.39H1573.84L1558.16 951.7H1561.1L1545.28 991.39H1536.74ZM1546.68 981.94V974.94H1572.65V981.94H1546.68ZM1555.64 937.56L1552.14 934.06L1561.1 922.65L1567.05 928.6L1555.64 937.56ZM1590.58 991.39V957.79H1598.28V991.39H1590.58ZM1598.28 972.7L1595.62 971.37C1595.62 967.123 1596.55 963.693 1598.42 961.08C1600.33 958.42 1603.2 957.09 1607.03 957.09C1608.71 957.09 1610.23 957.393 1611.58 958C1612.93 958.606 1614.19 959.586 1615.36 960.94L1610.32 966.12C1609.71 965.466 1609.04 965 1608.29 964.72C1607.54 964.44 1606.68 964.3 1605.7 964.3C1603.55 964.3 1601.78 964.976 1600.38 966.33C1598.98 967.683 1598.28 969.806 1598.28 972.7ZM1635.77 992.09C1632.41 992.09 1629.38 991.343 1626.67 989.85C1624.01 988.31 1621.89 986.21 1620.3 983.55C1618.76 980.89 1617.99 977.903 1617.99 974.59C1617.99 971.276 1618.76 968.313 1620.3 965.7C1621.84 963.04 1623.92 960.94 1626.53 959.4C1629.19 957.86 1632.13 957.09 1635.35 957.09C1638.48 957.09 1641.23 957.813 1643.61 959.26C1646.04 960.706 1647.93 962.69 1649.28 965.21C1650.68 967.73 1651.38 970.6 1651.38 973.82C1651.38 974.38 1651.33 974.963 1651.24 975.57C1651.19 976.13 1651.1 976.76 1650.96 977.46H1623.38V971.16H1646.97L1644.1 973.68C1644.01 971.626 1643.61 969.9 1642.91 968.5C1642.21 967.1 1641.21 966.026 1639.9 965.28C1638.64 964.533 1637.08 964.16 1635.21 964.16C1633.25 964.16 1631.55 964.58 1630.1 965.42C1628.65 966.26 1627.53 967.45 1626.74 968.99C1625.95 970.483 1625.55 972.28 1625.55 974.38C1625.55 976.48 1625.97 978.323 1626.81 979.91C1627.65 981.496 1628.84 982.733 1630.38 983.62C1631.92 984.46 1633.69 984.88 1635.7 984.88C1637.43 984.88 1639.01 984.576 1640.46 983.97C1641.95 983.363 1643.21 982.476 1644.24 981.31L1649.14 986.28C1647.51 988.193 1645.52 989.64 1643.19 990.62C1640.86 991.6 1638.38 992.09 1635.77 992.09ZM1673.72 992.09C1670.69 992.09 1667.94 991.32 1665.46 989.78C1663.04 988.24 1661.1 986.163 1659.65 983.55C1658.25 980.89 1657.55 977.926 1657.55 974.66C1657.55 971.346 1658.25 968.383 1659.65 965.77C1661.1 963.11 1663.04 961.01 1665.46 959.47C1667.94 957.883 1670.69 957.09 1673.72 957.09C1676.29 957.09 1678.55 957.65 1680.51 958.77C1682.52 959.843 1684.11 961.336 1685.27 963.25C1686.44 965.163 1687.02 967.333 1687.02 969.76V979.42C1687.02 981.846 1686.44 984.016 1685.27 985.93C1684.15 987.843 1682.59 989.36 1680.58 990.48C1678.58 991.553 1676.29 992.09 1673.72 992.09ZM1674.98 984.81C1677.83 984.81 1680.12 983.853 1681.84 981.94C1683.62 980.026 1684.5 977.576 1684.5 974.59C1684.5 972.583 1684.11 970.81 1683.31 969.27C1682.52 967.73 1681.4 966.54 1679.95 965.7C1678.55 964.813 1676.9 964.37 1674.98 964.37C1673.12 964.37 1671.46 964.813 1670.01 965.7C1668.61 966.54 1667.49 967.73 1666.65 969.27C1665.86 970.81 1665.46 972.583 1665.46 974.59C1665.46 976.596 1665.86 978.37 1666.65 979.91C1667.49 981.45 1668.61 982.663 1670.01 983.55C1671.46 984.39 1673.12 984.81 1674.98 984.81ZM1684.01 991.39V982.36L1685.34 974.17L1684.01 966.05V957.79H1691.71V991.39H1684.01ZM1713.35 992.09C1711.48 992.09 1709.68 991.856 1707.96 991.39C1706.23 990.876 1704.64 990.176 1703.2 989.29C1701.75 988.356 1700.49 987.236 1699.42 985.93L1704.32 981.03C1705.48 982.383 1706.81 983.41 1708.31 984.11C1709.85 984.763 1711.57 985.09 1713.49 985.09C1715.21 985.09 1716.52 984.833 1717.41 984.32C1718.29 983.806 1718.74 983.06 1718.74 982.08C1718.74 981.053 1718.32 980.26 1717.48 979.7C1716.64 979.14 1715.54 978.673 1714.19 978.3C1712.88 977.88 1711.48 977.46 1709.99 977.04C1708.54 976.62 1707.14 976.06 1705.79 975.36C1704.48 974.613 1703.41 973.61 1702.57 972.35C1701.73 971.09 1701.31 969.456 1701.31 967.45C1701.31 965.303 1701.8 963.46 1702.78 961.92C1703.8 960.38 1705.23 959.19 1707.05 958.35C1708.91 957.51 1711.13 957.09 1713.7 957.09C1716.4 957.09 1718.78 957.58 1720.84 958.56C1722.94 959.493 1724.69 960.916 1726.09 962.83L1721.19 967.73C1720.21 966.516 1719.09 965.606 1717.83 965C1716.57 964.393 1715.12 964.09 1713.49 964.09C1711.95 964.09 1710.76 964.323 1709.92 964.79C1709.08 965.256 1708.66 965.933 1708.66 966.82C1708.66 967.753 1709.08 968.476 1709.92 968.99C1710.76 969.503 1711.83 969.946 1713.14 970.32C1714.49 970.693 1715.89 971.113 1717.34 971.58C1718.83 972 1720.23 972.606 1721.54 973.4C1722.89 974.146 1723.99 975.173 1724.83 976.48C1725.67 977.74 1726.09 979.396 1726.09 981.45C1726.09 984.716 1724.94 987.306 1722.66 989.22C1720.37 991.133 1717.27 992.09 1713.35 992.09ZM1767.87 991.39L1748.06 942.39H1756.81L1772.28 982.08H1769.2L1784.81 942.39H1793.42L1773.47 991.39H1767.87ZM1810.33 992.09C1806.97 992.09 1803.94 991.343 1801.23 989.85C1798.57 988.31 1796.45 986.21 1794.86 983.55C1793.32 980.89 1792.55 977.903 1792.55 974.59C1792.55 971.276 1793.32 968.313 1794.86 965.7C1796.4 963.04 1798.48 960.94 1801.09 959.4C1803.75 957.86 1806.69 957.09 1809.91 957.09C1813.04 957.09 1815.79 957.813 1818.17 959.26C1820.6 960.706 1822.49 962.69 1823.84 965.21C1825.24 967.73 1825.94 970.6 1825.94 973.82C1825.94 974.38 1825.9 974.963 1825.8 975.57C1825.76 976.13 1825.66 976.76 1825.52 977.46H1797.94V971.16H1821.53L1818.66 973.68C1818.57 971.626 1818.17 969.9 1817.47 968.5C1816.77 967.1 1815.77 966.026 1814.46 965.28C1813.2 964.533 1811.64 964.16 1809.77 964.16C1807.81 964.16 1806.11 964.58 1804.66 965.42C1803.22 966.26 1802.1 967.45 1801.3 968.99C1800.51 970.483 1800.11 972.28 1800.11 974.38C1800.11 976.48 1800.53 978.323 1801.37 979.91C1802.21 981.496 1803.4 982.733 1804.94 983.62C1806.48 984.46 1808.26 984.88 1810.26 984.88C1811.99 984.88 1813.58 984.576 1815.02 983.97C1816.52 983.363 1817.78 982.476 1818.8 981.31L1823.7 986.28C1822.07 988.193 1820.09 989.64 1817.75 990.62C1815.42 991.6 1812.95 992.09 1810.33 992.09ZM1834.21 991.39V957.79H1841.91V991.39H1834.21ZM1841.91 972.7L1839.25 971.37C1839.25 967.123 1840.19 963.693 1842.05 961.08C1843.97 958.42 1846.84 957.09 1850.66 957.09C1852.34 957.09 1853.86 957.393 1855.21 958C1856.57 958.606 1857.83 959.586 1858.99 960.94L1853.95 966.12C1853.35 965.466 1852.67 965 1851.92 964.72C1851.18 964.44 1850.31 964.3 1849.33 964.3C1847.19 964.3 1845.41 964.976 1844.01 966.33C1842.61 967.683 1841.91 969.806 1841.91 972.7ZM1877.87 992.09C1874.83 992.09 1872.08 991.32 1869.61 989.78C1867.18 988.24 1865.24 986.163 1863.8 983.55C1862.4 980.89 1861.7 977.926 1861.7 974.66C1861.7 971.346 1862.4 968.383 1863.8 965.77C1865.24 963.11 1867.18 961.01 1869.61 959.47C1872.08 957.883 1874.83 957.09 1877.87 957.09C1880.43 957.09 1882.7 957.65 1884.66 958.77C1886.66 959.843 1888.25 961.336 1889.42 963.25C1890.58 965.163 1891.17 967.333 1891.17 969.76V979.42C1891.17 981.846 1890.58 984.016 1889.42 985.93C1888.3 987.843 1886.73 989.36 1884.73 990.48C1882.72 991.553 1880.43 992.09 1877.87 992.09ZM1879.13 984.81C1881.04 984.81 1882.7 984.39 1884.1 983.55C1885.54 982.663 1886.66 981.45 1887.46 979.91C1888.25 978.37 1888.65 976.596 1888.65 974.59C1888.65 972.583 1888.25 970.81 1887.46 969.27C1886.66 967.73 1885.54 966.54 1884.1 965.7C1882.7 964.813 1881.04 964.37 1879.13 964.37C1877.26 964.37 1875.6 964.813 1874.16 965.7C1872.76 966.54 1871.64 967.73 1870.8 969.27C1870 970.81 1869.61 972.583 1869.61 974.59C1869.61 976.596 1870 978.37 1870.8 979.91C1871.64 981.45 1872.76 982.663 1874.16 983.55C1875.6 984.39 1877.26 984.81 1879.13 984.81ZM1895.86 991.39H1888.16V982.36L1889.49 974.17L1888.16 966.05V940.99H1895.86V991.39ZM1922.11 992.09C1918.75 992.09 1915.72 991.343 1913.01 989.85C1910.35 988.31 1908.23 986.21 1906.64 983.55C1905.1 980.89 1904.33 977.903 1904.33 974.59C1904.33 971.276 1905.1 968.313 1906.64 965.7C1908.18 963.04 1910.26 960.94 1912.87 959.4C1915.53 957.86 1918.47 957.09 1921.69 957.09C1924.82 957.09 1927.57 957.813 1929.95 959.26C1932.38 960.706 1934.27 962.69 1935.62 965.21C1937.02 967.73 1937.72 970.6 1937.72 973.82C1937.72 974.38 1937.67 974.963 1937.58 975.57C1937.53 976.13 1937.44 976.76 1937.3 977.46H1909.72V971.16H1933.31L1930.44 973.68C1930.35 971.626 1929.95 969.9 1929.25 968.5C1928.55 967.1 1927.55 966.026 1926.24 965.28C1924.98 964.533 1923.42 964.16 1921.55 964.16C1919.59 964.16 1917.89 964.58 1916.44 965.42C1914.99 966.26 1913.87 967.45 1913.08 968.99C1912.29 970.483 1911.89 972.28 1911.89 974.38C1911.89 976.48 1912.31 978.323 1913.15 979.91C1913.99 981.496 1915.18 982.733 1916.72 983.62C1918.26 984.46 1920.03 984.88 1922.04 984.88C1923.77 984.88 1925.35 984.576 1926.8 983.97C1928.29 983.363 1929.55 982.476 1930.58 981.31L1935.48 986.28C1933.85 988.193 1931.86 989.64 1929.53 990.62C1927.2 991.6 1924.72 992.09 1922.11 992.09ZM1956.98 992.09C1955.12 992.09 1953.32 991.856 1951.59 991.39C1949.87 990.876 1948.28 990.176 1946.83 989.29C1945.39 988.356 1944.13 987.236 1943.05 985.93L1947.95 981.03C1949.12 982.383 1950.45 983.41 1951.94 984.11C1953.48 984.763 1955.21 985.09 1957.12 985.09C1958.85 985.09 1960.16 984.833 1961.04 984.32C1961.93 983.806 1962.37 983.06 1962.37 982.08C1962.37 981.053 1961.95 980.26 1961.11 979.7C1960.27 979.14 1959.18 978.673 1957.82 978.3C1956.52 977.88 1955.12 977.46 1953.62 977.04C1952.18 976.62 1950.78 976.06 1949.42 975.36C1948.12 974.613 1947.04 973.61 1946.2 972.35C1945.36 971.09 1944.94 969.456 1944.94 967.45C1944.94 965.303 1945.43 963.46 1946.41 961.92C1947.44 960.38 1948.86 959.19 1950.68 958.35C1952.55 957.51 1954.77 957.09 1957.33 957.09C1960.04 957.09 1962.42 957.58 1964.47 958.56C1966.57 959.493 1968.32 960.916 1969.72 962.83L1964.82 967.73C1963.84 966.516 1962.72 965.606 1961.46 965C1960.2 964.393 1958.76 964.09 1957.12 964.09C1955.58 964.09 1954.39 964.323 1953.55 964.79C1952.71 965.256 1952.29 965.933 1952.29 966.82C1952.29 967.753 1952.71 968.476 1953.55 968.99C1954.39 969.503 1955.47 969.946 1956.77 970.32C1958.13 970.693 1959.53 971.113 1960.97 971.58C1962.47 972 1963.87 972.606 1965.17 973.4C1966.53 974.146 1967.62 975.173 1968.46 976.48C1969.3 977.74 1969.72 979.396 1969.72 981.45C1969.72 984.716 1968.58 987.306 1966.29 989.22C1964.01 991.133 1960.9 992.09 1956.98 992.09ZM2009.89 992.09C2006.53 992.09 2003.5 991.343 2000.79 989.85C1998.13 988.31 1996.01 986.21 1994.42 983.55C1992.88 980.89 1992.11 977.903 1992.11 974.59C1992.11 971.276 1992.88 968.313 1994.42 965.7C1995.96 963.04 1998.04 960.94 2000.65 959.4C2003.31 957.86 2006.25 957.09 2009.47 957.09C2012.6 957.09 2015.35 957.813 2017.73 959.26C2020.16 960.706 2022.05 962.69 2023.4 965.21C2024.8 967.73 2025.5 970.6 2025.5 973.82C2025.5 974.38 2025.46 974.963 2025.36 975.57C2025.32 976.13 2025.22 976.76 2025.08 977.46H1997.5V971.16H2021.09L2018.22 973.68C2018.13 971.626 2017.73 969.9 2017.03 968.5C2016.33 967.1 2015.33 966.026 2014.02 965.28C2012.76 964.533 2011.2 964.16 2009.33 964.16C2007.37 964.16 2005.67 964.58 2004.22 965.42C2002.78 966.26 2001.66 967.45 2000.86 968.99C2000.07 970.483 1999.67 972.28 1999.67 974.38C1999.67 976.48 2000.09 978.323 2000.93 979.91C2001.77 981.496 2002.96 982.733 2004.5 983.62C2006.04 984.46 2007.82 984.88 2009.82 984.88C2011.55 984.88 2013.14 984.576 2014.58 983.97C2016.08 983.363 2017.34 982.476 2018.36 981.31L2023.26 986.28C2021.63 988.193 2019.65 989.64 2017.31 990.62C2014.98 991.6 2012.51 992.09 2009.89 992.09ZM2045.32 991.39L2065.48 942.39H2071.08L2091.1 991.39H2082.42L2066.74 951.7H2069.68L2053.86 991.39H2045.32ZM2055.26 981.94V974.94H2081.23V981.94H2055.26ZM2096.64 987.19L2115.4 961.99H2124.43L2105.67 987.19H2096.64ZM2096.64 991.39V987.19L2103.64 984.39H2124.01V991.39H2096.64ZM2097.9 964.79V957.79H2124.43V961.99L2117.43 964.79H2097.9ZM2146.63 992.09C2143.78 992.09 2141.24 991.46 2139 990.2C2136.81 988.94 2135.08 987.213 2133.82 985.02C2132.61 982.78 2132 980.213 2132 977.32V957.79H2139.7V976.97C2139.7 978.603 2139.96 980.003 2140.47 981.17C2141.03 982.29 2141.82 983.153 2142.85 983.76C2143.92 984.366 2145.18 984.67 2146.63 984.67C2148.87 984.67 2150.57 984.016 2151.74 982.71C2152.95 981.356 2153.56 979.443 2153.56 976.97V957.79H2161.26V977.32C2161.26 980.26 2160.63 982.85 2159.37 985.09C2158.16 987.283 2156.45 989.01 2154.26 990.27C2152.07 991.483 2149.52 992.09 2146.63 992.09ZM2171.17 991.39V957.79H2178.87V991.39H2171.17ZM2175.02 951.63C2173.72 951.63 2172.62 951.186 2171.73 950.3C2170.89 949.413 2170.47 948.316 2170.47 947.01C2170.47 945.703 2170.89 944.606 2171.73 943.72C2172.62 942.833 2173.72 942.39 2175.02 942.39C2176.38 942.39 2177.47 942.833 2178.31 943.72C2179.15 944.606 2179.57 945.703 2179.57 947.01C2179.57 948.316 2179.15 949.413 2178.31 950.3C2177.47 951.186 2176.38 951.63 2175.02 951.63ZM2200.6 992.09C2198.73 992.09 2196.94 991.856 2195.21 991.39C2193.48 990.876 2191.9 990.176 2190.45 989.29C2189 988.356 2187.74 987.236 2186.67 985.93L2191.57 981.03C2192.74 982.383 2194.07 983.41 2195.56 984.11C2197.1 984.763 2198.83 985.09 2200.74 985.09C2202.47 985.09 2203.77 984.833 2204.66 984.32C2205.55 983.806 2205.99 983.06 2205.99 982.08C2205.99 981.053 2205.57 980.26 2204.73 979.7C2203.89 979.14 2202.79 978.673 2201.44 978.3C2200.13 977.88 2198.73 977.46 2197.24 977.04C2195.79 976.62 2194.39 976.06 2193.04 975.36C2191.73 974.613 2190.66 973.61 2189.82 972.35C2188.98 971.09 2188.56 969.456 2188.56 967.45C2188.56 965.303 2189.05 963.46 2190.03 961.92C2191.06 960.38 2192.48 959.19 2194.3 958.35C2196.17 957.51 2198.38 957.09 2200.95 957.09C2203.66 957.09 2206.04 957.58 2208.09 958.56C2210.19 959.493 2211.94 960.916 2213.34 962.83L2208.44 967.73C2207.46 966.516 2206.34 965.606 2205.08 965C2203.82 964.393 2202.37 964.09 2200.74 964.09C2199.2 964.09 2198.01 964.323 2197.17 964.79C2196.33 965.256 2195.91 965.933 2195.91 966.82C2195.91 967.753 2196.33 968.476 2197.17 968.99C2198.01 969.503 2199.08 969.946 2200.39 970.32C2201.74 970.693 2203.14 971.113 2204.59 971.58C2206.08 972 2207.48 972.606 2208.79 973.4C2210.14 974.146 2211.24 975.173 2212.08 976.48C2212.92 977.74 2213.34 979.396 2213.34 981.45C2213.34 984.716 2212.2 987.306 2209.91 989.22C2207.62 991.133 2204.52 992.09 2200.6 992.09Z" fill="white"/>
</g>
<defs>
<clipPath id="clip0_17205_104">
<rect width="4891.43" height="1260" rx="46.0695" fill="white"/>
</clipPath>
</defs>
</svg>
