<svg width="2271" height="131" viewBox="0 0 2271 131" fill="none" xmlns="http://www.w3.org/2000/svg">
<path d="M12.4 58.88V50.88H26.4C28.32 50.88 30 50.5067 31.44 49.76C32.9333 48.96 34.1067 47.8667 34.96 46.48C35.8133 45.04 36.24 43.36 36.24 41.44C36.24 39.52 35.8133 37.8667 34.96 36.48C34.1067 35.04 32.9333 33.9467 31.44 33.2C30 32.4 28.32 32 26.4 32H12.4V24H26.88C30.4 24 33.5467 24.72 36.32 26.16C39.1467 27.6 41.36 29.6267 42.96 32.24C44.6133 34.8533 45.44 37.92 45.44 41.44C45.44 44.96 44.6133 48.0267 42.96 50.64C41.36 53.2533 39.1467 55.28 36.32 56.72C33.5467 58.16 30.4 58.88 26.88 58.88H12.4ZM6.08 80V24H15.28V80H6.08ZM68.8081 80.8C65.0748 80.8 61.6881 79.92 58.6481 78.16C55.6081 76.3467 53.1815 73.92 51.3681 70.88C49.6081 67.84 48.7281 64.4533 48.7281 60.72C48.7281 56.9867 49.6081 53.6267 51.3681 50.64C53.1815 47.6533 55.6081 45.28 58.6481 43.52C61.6881 41.7067 65.0748 40.8 68.8081 40.8C72.5948 40.8 76.0081 41.68 79.0481 43.44C82.0881 45.2 84.4881 47.6 86.2481 50.64C88.0615 53.6267 88.9681 56.9867 88.9681 60.72C88.9681 64.4533 88.0615 67.84 86.2481 70.88C84.4881 73.92 82.0881 76.3467 79.0481 78.16C76.0081 79.92 72.5948 80.8 68.8081 80.8ZM68.8081 72.32C70.9948 72.32 72.9148 71.84 74.5681 70.88C76.2748 69.8667 77.5815 68.48 78.4881 66.72C79.4481 64.96 79.9281 62.96 79.9281 60.72C79.9281 58.48 79.4481 56.5067 78.4881 54.8C77.5281 53.0933 76.2215 51.76 74.5681 50.8C72.9148 49.7867 70.9948 49.28 68.8081 49.28C66.6748 49.28 64.7548 49.7867 63.0481 50.8C61.3948 51.76 60.0881 53.0933 59.1281 54.8C58.2215 56.5067 57.7681 58.48 57.7681 60.72C57.7681 62.96 58.2215 64.96 59.1281 66.72C60.0881 68.48 61.3948 69.8667 63.0481 70.88C64.7548 71.84 66.6748 72.32 68.8081 72.32ZM96.2863 80V41.6H105.086V80H96.2863ZM105.086 58.64L102.046 57.12C102.046 52.2667 103.113 48.3467 105.246 45.36C107.433 42.32 110.713 40.8 115.086 40.8C117.006 40.8 118.74 41.1467 120.286 41.84C121.833 42.5333 123.273 43.6533 124.606 45.2L118.846 51.12C118.153 50.3733 117.38 49.84 116.526 49.52C115.673 49.2 114.686 49.04 113.566 49.04C111.113 49.04 109.086 49.8133 107.486 51.36C105.886 52.9067 105.086 55.3333 105.086 58.64ZM145.373 80.8C141.586 80.8 138.146 79.92 135.053 78.16C132.013 76.4 129.613 74 127.853 70.96C126.093 67.92 125.213 64.5333 125.213 60.8C125.213 57.0133 126.093 53.6267 127.853 50.64C129.613 47.6 132.013 45.2 135.053 43.44C138.146 41.68 141.586 40.8 145.373 40.8C148.359 40.8 151.133 41.3867 153.693 42.56C156.306 43.68 158.519 45.3067 160.333 47.44L154.573 53.28C153.453 51.9467 152.093 50.96 150.493 50.32C148.946 49.6267 147.239 49.28 145.373 49.28C143.186 49.28 141.239 49.7867 139.533 50.8C137.879 51.76 136.573 53.0933 135.613 54.8C134.706 56.5067 134.253 58.5067 134.253 60.8C134.253 63.04 134.706 65.04 135.613 66.8C136.573 68.5067 137.879 69.8667 139.533 70.88C141.239 71.84 143.186 72.32 145.373 72.32C147.239 72.32 148.946 72 150.493 71.36C152.093 70.6667 153.453 69.6533 154.573 68.32L160.333 74.16C158.519 76.2933 156.306 77.9467 153.693 79.12C151.133 80.24 148.359 80.8 145.373 80.8ZM183.736 80.8C179.896 80.8 176.429 79.9467 173.336 78.24C170.296 76.48 167.869 74.08 166.056 71.04C164.296 68 163.416 64.5867 163.416 60.8C163.416 57.0133 164.296 53.6267 166.056 50.64C167.816 47.6 170.189 45.2 173.176 43.44C176.216 41.68 179.576 40.8 183.256 40.8C186.829 40.8 189.976 41.6267 192.696 43.28C195.469 44.9333 197.629 47.2 199.176 50.08C200.776 52.96 201.576 56.24 201.576 59.92C201.576 60.56 201.522 61.2267 201.416 61.92C201.362 62.56 201.256 63.28 201.096 64.08H169.576V56.88H196.536L193.256 59.76C193.149 57.4133 192.696 55.44 191.896 53.84C191.096 52.24 189.949 51.0133 188.456 50.16C187.016 49.3067 185.229 48.88 183.096 48.88C180.856 48.88 178.909 49.36 177.256 50.32C175.602 51.28 174.322 52.64 173.416 54.4C172.509 56.1067 172.056 58.16 172.056 60.56C172.056 62.96 172.536 65.0667 173.496 66.88C174.456 68.6933 175.816 70.1067 177.576 71.12C179.336 72.08 181.362 72.56 183.656 72.56C185.629 72.56 187.442 72.2133 189.096 71.52C190.802 70.8267 192.242 69.8133 193.416 68.48L199.016 74.16C197.149 76.3467 194.882 78 192.216 79.12C189.549 80.24 186.722 80.8 183.736 80.8ZM234.95 80V57.84C234.95 55.28 234.123 53.1733 232.47 51.52C230.87 49.8667 228.79 49.04 226.23 49.04C224.523 49.04 223.003 49.4133 221.67 50.16C220.337 50.9067 219.297 51.9467 218.55 53.28C217.803 54.6133 217.43 56.1333 217.43 57.84L213.99 55.92C213.99 52.9867 214.63 50.4 215.91 48.16C217.19 45.8667 218.95 44.08 221.19 42.8C223.483 41.4667 226.043 40.8 228.87 40.8C231.75 40.8 234.31 41.5467 236.55 43.04C238.79 44.48 240.55 46.3733 241.83 48.72C243.11 51.0133 243.75 53.4133 243.75 55.92V80H234.95ZM208.63 80V41.6H217.43V80H208.63ZM258.064 80V25.6H266.864V80H258.064ZM248.864 49.6V41.6H276.064V49.6H248.864ZM297.444 80.8C293.978 80.8 290.831 79.92 288.004 78.16C285.231 76.4 283.018 74.0267 281.364 71.04C279.764 68 278.964 64.6133 278.964 60.88C278.964 57.0933 279.764 53.7067 281.364 50.72C283.018 47.68 285.231 45.28 288.004 43.52C290.831 41.7067 293.978 40.8 297.444 40.8C300.378 40.8 302.964 41.44 305.204 42.72C307.498 43.9467 309.311 45.6533 310.644 47.84C311.978 50.0267 312.644 52.5067 312.644 55.28V66.32C312.644 69.0933 311.978 71.5733 310.644 73.76C309.364 75.9467 307.578 77.68 305.284 78.96C302.991 80.1867 300.378 80.8 297.444 80.8ZM298.884 72.48C302.138 72.48 304.751 71.3867 306.724 69.2C308.751 67.0133 309.764 64.2133 309.764 60.8C309.764 58.5067 309.311 56.48 308.404 54.72C307.498 52.96 306.218 51.6 304.564 50.64C302.964 49.6267 301.071 49.12 298.884 49.12C296.751 49.12 294.858 49.6267 293.204 50.64C291.604 51.6 290.324 52.96 289.364 54.72C288.458 56.48 288.004 58.5067 288.004 60.8C288.004 63.0933 288.458 65.12 289.364 66.88C290.324 68.64 291.604 70.0267 293.204 71.04C294.858 72 296.751 72.48 298.884 72.48ZM309.204 80V69.68L310.724 60.32L309.204 51.04V41.6H318.004V80H309.204ZM343.771 96.8C339.717 96.8 336.171 96.0533 333.131 94.56C330.091 93.12 327.637 91.0667 325.771 88.4L331.531 82.64C333.077 84.56 334.837 86 336.811 86.96C338.784 87.92 341.157 88.4 343.931 88.4C347.397 88.4 350.144 87.4933 352.171 85.68C354.197 83.92 355.211 81.4933 355.211 78.4V68.96L356.731 60.48L355.211 51.92V41.6H364.011V78.4C364.011 82.08 363.157 85.28 361.451 88C359.744 90.7733 357.371 92.9333 354.331 94.48C351.291 96.0267 347.771 96.8 343.771 96.8ZM343.371 79.2C339.957 79.2 336.864 78.3733 334.091 76.72C331.371 75.0133 329.211 72.6933 327.611 69.76C326.064 66.8267 325.291 63.5467 325.291 59.92C325.291 56.2933 326.064 53.04 327.611 50.16C329.211 47.28 331.371 45.0133 334.091 43.36C336.864 41.6533 339.957 40.8 343.371 40.8C346.411 40.8 349.077 41.4133 351.371 42.64C353.664 43.8667 355.451 45.5733 356.731 47.76C358.011 49.8933 358.651 52.4 358.651 55.28V64.72C358.651 67.5467 357.984 70.0533 356.651 72.24C355.371 74.4267 353.584 76.1333 351.291 77.36C348.997 78.5867 346.357 79.2 343.371 79.2ZM345.131 70.88C347.264 70.88 349.131 70.4267 350.731 69.52C352.331 68.6133 353.557 67.36 354.411 65.76C355.317 64.1067 355.771 62.1867 355.771 60C355.771 57.8133 355.317 55.92 354.411 54.32C353.557 52.6667 352.331 51.3867 350.731 50.48C349.131 49.5733 347.264 49.12 345.131 49.12C342.997 49.12 341.104 49.5733 339.451 50.48C337.851 51.3867 336.597 52.6667 335.691 54.32C334.784 55.92 334.331 57.8133 334.331 60C334.331 62.1333 334.784 64.0267 335.691 65.68C336.597 67.3333 337.851 68.6133 339.451 69.52C341.104 70.4267 342.997 70.88 345.131 70.88ZM391.626 80.8C387.786 80.8 384.32 79.9467 381.226 78.24C378.186 76.48 375.76 74.08 373.946 71.04C372.186 68 371.306 64.5867 371.306 60.8C371.306 57.0133 372.186 53.6267 373.946 50.64C375.706 47.6 378.08 45.2 381.066 43.44C384.106 41.68 387.466 40.8 391.146 40.8C394.72 40.8 397.866 41.6267 400.586 43.28C403.36 44.9333 405.52 47.2 407.066 50.08C408.666 52.96 409.466 56.24 409.466 59.92C409.466 60.56 409.413 61.2267 409.306 61.92C409.253 62.56 409.146 63.28 408.986 64.08H377.466V56.88H404.426L401.146 59.76C401.04 57.4133 400.586 55.44 399.786 53.84C398.986 52.24 397.84 51.0133 396.346 50.16C394.906 49.3067 393.12 48.88 390.986 48.88C388.746 48.88 386.8 49.36 385.146 50.32C383.493 51.28 382.213 52.64 381.306 54.4C380.4 56.1067 379.946 58.16 379.946 60.56C379.946 62.96 380.426 65.0667 381.386 66.88C382.346 68.6933 383.706 70.1067 385.466 71.12C387.226 72.08 389.253 72.56 391.546 72.56C393.52 72.56 395.333 72.2133 396.986 71.52C398.693 70.8267 400.133 69.8133 401.306 68.48L406.906 74.16C405.04 76.3467 402.773 78 400.106 79.12C397.44 80.24 394.613 80.8 391.626 80.8ZM416.521 80V41.6H425.321V80H416.521ZM442.041 80V57.12C442.041 54.56 441.241 52.5867 439.641 51.2C438.041 49.76 436.067 49.04 433.721 49.04C432.121 49.04 430.681 49.36 429.401 50C428.174 50.64 427.187 51.5733 426.441 52.8C425.694 53.9733 425.321 55.4133 425.321 57.12L421.881 55.2C421.881 52.2667 422.521 49.7333 423.801 47.6C425.081 45.4667 426.814 43.8133 429.001 42.64C431.187 41.4133 433.641 40.8 436.361 40.8C439.081 40.8 441.534 41.3867 443.721 42.56C445.907 43.7333 447.641 45.3867 448.921 47.52C450.201 49.6533 450.841 52.2133 450.841 55.2V80H442.041ZM467.561 80V57.12C467.561 54.56 466.761 52.5867 465.161 51.2C463.561 49.76 461.587 49.04 459.241 49.04C457.694 49.04 456.281 49.36 455.001 50C453.721 50.64 452.707 51.5733 451.961 52.8C451.214 53.9733 450.841 55.4133 450.841 57.12L445.881 55.2C446.147 52.2667 447.001 49.7333 448.441 47.6C449.881 45.4667 451.721 43.8133 453.961 42.64C456.254 41.4133 458.761 40.8 461.481 40.8C464.254 40.8 466.761 41.3867 469.001 42.56C471.241 43.7333 473.027 45.3867 474.361 47.52C475.694 49.6533 476.361 52.2133 476.361 55.2V80H467.561ZM517.523 80.8C514.056 80.8 510.909 79.92 508.083 78.16C505.309 76.4 503.096 74.0267 501.443 71.04C499.843 68 499.043 64.6133 499.043 60.88C499.043 57.0933 499.843 53.7067 501.443 50.72C503.096 47.68 505.309 45.28 508.083 43.52C510.909 41.7067 514.056 40.8 517.523 40.8C520.456 40.8 523.043 41.44 525.283 42.72C527.576 43.9467 529.389 45.6533 530.723 47.84C532.056 50.0267 532.723 52.5067 532.723 55.28V66.32C532.723 69.0933 532.056 71.5733 530.723 73.76C529.443 75.9467 527.656 77.68 525.363 78.96C523.069 80.1867 520.456 80.8 517.523 80.8ZM518.963 72.48C521.149 72.48 523.043 72 524.643 71.04C526.296 70.0267 527.576 68.64 528.483 66.88C529.389 65.12 529.843 63.0933 529.843 60.8C529.843 58.5067 529.389 56.48 528.483 54.72C527.576 52.96 526.296 51.6 524.643 50.64C523.043 49.6267 521.149 49.12 518.963 49.12C516.829 49.12 514.936 49.6267 513.283 50.64C511.683 51.6 510.403 52.96 509.443 54.72C508.536 56.48 508.083 58.5067 508.083 60.8C508.083 63.0933 508.536 65.12 509.443 66.88C510.403 68.64 511.683 70.0267 513.283 71.04C514.936 72 516.829 72.48 518.963 72.48ZM538.083 80H529.283V69.68L530.803 60.32L529.283 51.04V22.4H538.083V80ZM565.689 80.8C561.849 80.8 558.382 79.9467 555.289 78.24C552.249 76.48 549.822 74.08 548.009 71.04C546.249 68 545.369 64.5867 545.369 60.8C545.369 57.0133 546.249 53.6267 548.009 50.64C549.769 47.6 552.142 45.2 555.129 43.44C558.169 41.68 561.529 40.8 565.209 40.8C568.782 40.8 571.929 41.6267 574.649 43.28C577.422 44.9333 579.582 47.2 581.129 50.08C582.729 52.96 583.529 56.24 583.529 59.92C583.529 60.56 583.475 61.2267 583.369 61.92C583.315 62.56 583.209 63.28 583.049 64.08H551.529V56.88H578.489L575.209 59.76C575.102 57.4133 574.649 55.44 573.849 53.84C573.049 52.24 571.902 51.0133 570.409 50.16C568.969 49.3067 567.182 48.88 565.049 48.88C562.809 48.88 560.862 49.36 559.209 50.32C557.555 51.28 556.275 52.64 555.369 54.4C554.462 56.1067 554.009 58.16 554.009 60.56C554.009 62.96 554.489 65.0667 555.449 66.88C556.409 68.6933 557.769 70.1067 559.529 71.12C561.289 72.08 563.315 72.56 565.609 72.56C567.582 72.56 569.395 72.2133 571.049 71.52C572.755 70.8267 574.195 69.8133 575.369 68.48L580.969 74.16C579.102 76.3467 576.835 78 574.169 79.12C571.502 80.24 568.675 80.8 565.689 80.8ZM622.679 80.8C619.212 80.8 616.065 79.92 613.239 78.16C610.465 76.4 608.252 74.0267 606.599 71.04C604.999 68 604.199 64.6133 604.199 60.88C604.199 57.0933 604.999 53.7067 606.599 50.72C608.252 47.68 610.465 45.28 613.239 43.52C616.065 41.7067 619.212 40.8 622.679 40.8C625.612 40.8 628.199 41.44 630.439 42.72C632.732 43.9467 634.545 45.6533 635.879 47.84C637.212 50.0267 637.879 52.5067 637.879 55.28V66.32C637.879 69.0933 637.212 71.5733 635.879 73.76C634.599 75.9467 632.812 77.68 630.519 78.96C628.225 80.1867 625.612 80.8 622.679 80.8ZM624.119 72.48C627.372 72.48 629.985 71.3867 631.959 69.2C633.985 67.0133 634.999 64.2133 634.999 60.8C634.999 58.5067 634.545 56.48 633.639 54.72C632.732 52.96 631.452 51.6 629.799 50.64C628.199 49.6267 626.305 49.12 624.119 49.12C621.985 49.12 620.092 49.6267 618.439 50.64C616.839 51.6 615.559 52.96 614.599 54.72C613.692 56.48 613.239 58.5067 613.239 60.8C613.239 63.0933 613.692 65.12 614.599 66.88C615.559 68.64 616.839 70.0267 618.439 71.04C620.092 72 621.985 72.48 624.119 72.48ZM634.439 80V69.68L635.959 60.32L634.439 51.04V41.6H643.239V80H634.439ZM620.359 36.08L616.359 32.08L626.599 19.04L633.399 25.84L620.359 36.08ZM653.005 80V41.6H661.805V80H653.005ZM661.805 58.64L658.765 57.12C658.765 52.2667 659.832 48.3467 661.965 45.36C664.152 42.32 667.432 40.8 671.805 40.8C673.725 40.8 675.458 41.1467 677.005 41.84C678.552 42.5333 679.992 43.6533 681.325 45.2L675.565 51.12C674.872 50.3733 674.098 49.84 673.245 49.52C672.392 49.2 671.405 49.04 670.285 49.04C667.832 49.04 665.805 49.8133 664.205 51.36C662.605 52.9067 661.805 55.3333 661.805 58.64ZM702.251 80.8C698.411 80.8 694.945 79.9467 691.851 78.24C688.811 76.48 686.385 74.08 684.571 71.04C682.811 68 681.931 64.5867 681.931 60.8C681.931 57.0133 682.811 53.6267 684.571 50.64C686.331 47.6 688.705 45.2 691.691 43.44C694.731 41.68 698.091 40.8 701.771 40.8C705.345 40.8 708.491 41.6267 711.211 43.28C713.985 44.9333 716.145 47.2 717.691 50.08C719.291 52.96 720.091 56.24 720.091 59.92C720.091 60.56 720.038 61.2267 719.931 61.92C719.878 62.56 719.771 63.28 719.611 64.08H688.091V56.88H715.051L711.771 59.76C711.665 57.4133 711.211 55.44 710.411 53.84C709.611 52.24 708.465 51.0133 706.971 50.16C705.531 49.3067 703.745 48.88 701.611 48.88C699.371 48.88 697.425 49.36 695.771 50.32C694.118 51.28 692.838 52.64 691.931 54.4C691.025 56.1067 690.571 58.16 690.571 60.56C690.571 62.96 691.051 65.0667 692.011 66.88C692.971 68.6933 694.331 70.1067 696.091 71.12C697.851 72.08 699.878 72.56 702.171 72.56C704.145 72.56 705.958 72.2133 707.611 71.52C709.318 70.8267 710.758 69.8133 711.931 68.48L717.531 74.16C715.665 76.3467 713.398 78 710.731 79.12C708.065 80.24 705.238 80.8 702.251 80.8ZM743.226 80.8C739.759 80.8 736.612 79.92 733.786 78.16C731.012 76.4 728.799 74.0267 727.146 71.04C725.546 68 724.746 64.6133 724.746 60.88C724.746 57.0933 725.546 53.7067 727.146 50.72C728.799 47.68 731.012 45.28 733.786 43.52C736.612 41.7067 739.759 40.8 743.226 40.8C746.159 40.8 748.746 41.44 750.986 42.72C753.279 43.9467 755.092 45.6533 756.426 47.84C757.759 50.0267 758.426 52.5067 758.426 55.28V66.32C758.426 69.0933 757.759 71.5733 756.426 73.76C755.146 75.9467 753.359 77.68 751.066 78.96C748.772 80.1867 746.159 80.8 743.226 80.8ZM744.666 72.48C747.919 72.48 750.532 71.3867 752.506 69.2C754.532 67.0133 755.546 64.2133 755.546 60.8C755.546 58.5067 755.092 56.48 754.186 54.72C753.279 52.96 751.999 51.6 750.346 50.64C748.746 49.6267 746.852 49.12 744.666 49.12C742.532 49.12 740.639 49.6267 738.986 50.64C737.386 51.6 736.106 52.96 735.146 54.72C734.239 56.48 733.786 58.5067 733.786 60.8C733.786 63.0933 734.239 65.12 735.146 66.88C736.106 68.64 737.386 70.0267 738.986 71.04C740.639 72 742.532 72.48 744.666 72.48ZM754.986 80V69.68L756.506 60.32L754.986 51.04V41.6H763.786V80H754.986ZM802.528 80L785.008 41.6H794.768L808.128 72.88H802.368L815.808 41.6H825.168L807.648 80H802.528ZM846.861 80.8C843.021 80.8 839.554 79.9467 836.461 78.24C833.421 76.48 830.994 74.08 829.181 71.04C827.421 68 826.541 64.5867 826.541 60.8C826.541 57.0133 827.421 53.6267 829.181 50.64C830.941 47.6 833.314 45.2 836.301 43.44C839.341 41.68 842.701 40.8 846.381 40.8C849.954 40.8 853.101 41.6267 855.821 43.28C858.594 44.9333 860.754 47.2 862.301 50.08C863.901 52.96 864.701 56.24 864.701 59.92C864.701 60.56 864.647 61.2267 864.541 61.92C864.487 62.56 864.381 63.28 864.221 64.08H832.701V56.88H859.661L856.381 59.76C856.274 57.4133 855.821 55.44 855.021 53.84C854.221 52.24 853.074 51.0133 851.581 50.16C850.141 49.3067 848.354 48.88 846.221 48.88C843.981 48.88 842.034 49.36 840.381 50.32C838.727 51.28 837.447 52.64 836.541 54.4C835.634 56.1067 835.181 58.16 835.181 60.56C835.181 62.96 835.661 65.0667 836.621 66.88C837.581 68.6933 838.941 70.1067 840.701 71.12C842.461 72.08 844.487 72.56 846.781 72.56C848.754 72.56 850.567 72.2133 852.221 71.52C853.927 70.8267 855.367 69.8133 856.541 68.48L862.141 74.16C860.274 76.3467 858.007 78 855.341 79.12C852.674 80.24 849.847 80.8 846.861 80.8ZM887.755 96.8C883.702 96.8 880.155 96.0533 877.115 94.56C874.075 93.12 871.622 91.0667 869.755 88.4L875.515 82.64C877.062 84.56 878.822 86 880.795 86.96C882.768 87.92 885.142 88.4 887.915 88.4C891.382 88.4 894.128 87.4933 896.155 85.68C898.182 83.92 899.195 81.4933 899.195 78.4V68.96L900.715 60.48L899.195 51.92V41.6H907.995V78.4C907.995 82.08 907.142 85.28 905.435 88C903.728 90.7733 901.355 92.9333 898.315 94.48C895.275 96.0267 891.755 96.8 887.755 96.8ZM887.355 79.2C883.942 79.2 880.848 78.3733 878.075 76.72C875.355 75.0133 873.195 72.6933 871.595 69.76C870.048 66.8267 869.275 63.5467 869.275 59.92C869.275 56.2933 870.048 53.04 871.595 50.16C873.195 47.28 875.355 45.0133 878.075 43.36C880.848 41.6533 883.942 40.8 887.355 40.8C890.395 40.8 893.062 41.4133 895.355 42.64C897.648 43.8667 899.435 45.5733 900.715 47.76C901.995 49.8933 902.635 52.4 902.635 55.28V64.72C902.635 67.5467 901.968 70.0533 900.635 72.24C899.355 74.4267 897.568 76.1333 895.275 77.36C892.982 78.5867 890.342 79.2 887.355 79.2ZM889.115 70.88C891.248 70.88 893.115 70.4267 894.715 69.52C896.315 68.6133 897.542 67.36 898.395 65.76C899.302 64.1067 899.755 62.1867 899.755 60C899.755 57.8133 899.302 55.92 898.395 54.32C897.542 52.6667 896.315 51.3867 894.715 50.48C893.115 49.5733 891.248 49.12 889.115 49.12C886.982 49.12 885.088 49.5733 883.435 50.48C881.835 51.3867 880.582 52.6667 879.675 54.32C878.768 55.92 878.315 57.8133 878.315 60C878.315 62.1333 878.768 64.0267 879.675 65.68C880.582 67.3333 881.835 68.6133 883.435 69.52C885.088 70.4267 886.982 70.88 889.115 70.88ZM935.611 80.8C931.771 80.8 928.304 79.9467 925.211 78.24C922.171 76.48 919.744 74.08 917.931 71.04C916.171 68 915.291 64.5867 915.291 60.8C915.291 57.0133 916.171 53.6267 917.931 50.64C919.691 47.6 922.064 45.2 925.051 43.44C928.091 41.68 931.451 40.8 935.131 40.8C938.704 40.8 941.851 41.6267 944.571 43.28C947.344 44.9333 949.504 47.2 951.051 50.08C952.651 52.96 953.451 56.24 953.451 59.92C953.451 60.56 953.397 61.2267 953.291 61.92C953.237 62.56 953.131 63.28 952.971 64.08H921.451V56.88H948.411L945.131 59.76C945.024 57.4133 944.571 55.44 943.771 53.84C942.971 52.24 941.824 51.0133 940.331 50.16C938.891 49.3067 937.104 48.88 934.971 48.88C932.731 48.88 930.784 49.36 929.131 50.32C927.477 51.28 926.197 52.64 925.291 54.4C924.384 56.1067 923.931 58.16 923.931 60.56C923.931 62.96 924.411 65.0667 925.371 66.88C926.331 68.6933 927.691 70.1067 929.451 71.12C931.211 72.08 933.237 72.56 935.531 72.56C937.504 72.56 939.317 72.2133 940.971 71.52C942.677 70.8267 944.117 69.8133 945.291 68.48L950.891 74.16C949.024 76.3467 946.757 78 944.091 79.12C941.424 80.24 938.597 80.8 935.611 80.8ZM965.329 80V25.6H974.129V80H965.329ZM956.129 49.6V41.6H983.329V49.6H956.129ZM1004.71 80.8C1001.24 80.8 998.097 79.92 995.27 78.16C992.497 76.4 990.283 74.0267 988.63 71.04C987.03 68 986.23 64.6133 986.23 60.88C986.23 57.0933 987.03 53.7067 988.63 50.72C990.283 47.68 992.497 45.28 995.27 43.52C998.097 41.7067 1001.24 40.8 1004.71 40.8C1007.64 40.8 1010.23 41.44 1012.47 42.72C1014.76 43.9467 1016.58 45.6533 1017.91 47.84C1019.24 50.0267 1019.91 52.5067 1019.91 55.28V66.32C1019.91 69.0933 1019.24 71.5733 1017.91 73.76C1016.63 75.9467 1014.84 77.68 1012.55 78.96C1010.26 80.1867 1007.64 80.8 1004.71 80.8ZM1006.15 72.48C1009.4 72.48 1012.02 71.3867 1013.99 69.2C1016.02 67.0133 1017.03 64.2133 1017.03 60.8C1017.03 58.5067 1016.58 56.48 1015.67 54.72C1014.76 52.96 1013.48 51.6 1011.83 50.64C1010.23 49.6267 1008.34 49.12 1006.15 49.12C1004.02 49.12 1002.12 49.6267 1000.47 50.64C998.87 51.6 997.59 52.96 996.63 54.72C995.723 56.48 995.27 58.5067 995.27 60.8C995.27 63.0933 995.723 65.12 996.63 66.88C997.59 68.64 998.87 70.0267 1000.47 71.04C1002.12 72 1004.02 72.48 1006.15 72.48ZM1016.47 80V69.68L1017.99 60.32L1016.47 51.04V41.6H1025.27V80H1016.47ZM1051.12 80.8C1047.65 80.8 1044.5 79.92 1041.68 78.16C1038.9 76.4 1036.69 74.0267 1035.04 71.04C1033.44 68 1032.64 64.6133 1032.64 60.88C1032.64 57.0933 1033.44 53.7067 1035.04 50.72C1036.69 47.68 1038.9 45.28 1041.68 43.52C1044.5 41.7067 1047.65 40.8 1051.12 40.8C1054.05 40.8 1056.64 41.44 1058.88 42.72C1061.17 43.9467 1062.98 45.6533 1064.32 47.84C1065.65 50.0267 1066.32 52.5067 1066.32 55.28V66.32C1066.32 69.0933 1065.65 71.5733 1064.32 73.76C1063.04 75.9467 1061.25 77.68 1058.96 78.96C1056.66 80.1867 1054.05 80.8 1051.12 80.8ZM1052.56 72.48C1054.74 72.48 1056.64 72 1058.24 71.04C1059.89 70.0267 1061.17 68.64 1062.08 66.88C1062.98 65.12 1063.44 63.0933 1063.44 60.8C1063.44 58.5067 1062.98 56.48 1062.08 54.72C1061.17 52.96 1059.89 51.6 1058.24 50.64C1056.64 49.6267 1054.74 49.12 1052.56 49.12C1050.42 49.12 1048.53 49.6267 1046.88 50.64C1045.28 51.6 1044 52.96 1043.04 54.72C1042.13 56.48 1041.68 58.5067 1041.68 60.8C1041.68 63.0933 1042.13 65.12 1043.04 66.88C1044 68.64 1045.28 70.0267 1046.88 71.04C1048.53 72 1050.42 72.48 1052.56 72.48ZM1071.68 80H1062.88V69.68L1064.4 60.32L1062.88 51.04V22.4H1071.68V80ZM1097.52 80.8C1094.06 80.8 1090.91 79.92 1088.08 78.16C1085.31 76.4 1083.1 74.0267 1081.44 71.04C1079.84 68 1079.04 64.6133 1079.04 60.88C1079.04 57.0933 1079.84 53.7067 1081.44 50.72C1083.1 47.68 1085.31 45.28 1088.08 43.52C1090.91 41.7067 1094.06 40.8 1097.52 40.8C1100.46 40.8 1103.04 41.44 1105.28 42.72C1107.58 43.9467 1109.39 45.6533 1110.72 47.84C1112.06 50.0267 1112.72 52.5067 1112.72 55.28V66.32C1112.72 69.0933 1112.06 71.5733 1110.72 73.76C1109.44 75.9467 1107.66 77.68 1105.36 78.96C1103.07 80.1867 1100.46 80.8 1097.52 80.8ZM1098.96 72.48C1102.22 72.48 1104.83 71.3867 1106.8 69.2C1108.83 67.0133 1109.84 64.2133 1109.84 60.8C1109.84 58.5067 1109.39 56.48 1108.48 54.72C1107.58 52.96 1106.3 51.6 1104.64 50.64C1103.04 49.6267 1101.15 49.12 1098.96 49.12C1096.83 49.12 1094.94 49.6267 1093.28 50.64C1091.68 51.6 1090.4 52.96 1089.44 54.72C1088.54 56.48 1088.08 58.5067 1088.08 60.8C1088.08 63.0933 1088.54 65.12 1089.44 66.88C1090.4 68.64 1091.68 70.0267 1093.28 71.04C1094.94 72 1096.83 72.48 1098.96 72.48ZM1109.28 80V69.68L1110.8 60.32L1109.28 51.04V41.6H1118.08V80H1109.28ZM1170.18 80V57.84C1170.18 55.28 1169.36 53.1733 1167.7 51.52C1166.1 49.8667 1164.02 49.04 1161.46 49.04C1159.76 49.04 1158.24 49.4133 1156.9 50.16C1155.57 50.9067 1154.53 51.9467 1153.78 53.28C1153.04 54.6133 1152.66 56.1333 1152.66 57.84L1149.22 55.92C1149.22 52.9867 1149.86 50.4 1151.14 48.16C1152.42 45.8667 1154.18 44.08 1156.42 42.8C1158.72 41.4667 1161.28 40.8 1164.1 40.8C1166.98 40.8 1169.54 41.5467 1171.78 43.04C1174.02 44.48 1175.78 46.3733 1177.06 48.72C1178.34 51.0133 1178.98 53.4133 1178.98 55.92V80H1170.18ZM1143.86 80V41.6H1152.66V80H1143.86ZM1205.53 80.8C1201.79 80.8 1198.41 79.92 1195.37 78.16C1192.33 76.3467 1189.9 73.92 1188.09 70.88C1186.33 67.84 1185.45 64.4533 1185.45 60.72C1185.45 56.9867 1186.33 53.6267 1188.09 50.64C1189.9 47.6533 1192.33 45.28 1195.37 43.52C1198.41 41.7067 1201.79 40.8 1205.53 40.8C1209.31 40.8 1212.73 41.68 1215.77 43.44C1218.81 45.2 1221.21 47.6 1222.97 50.64C1224.78 53.6267 1225.69 56.9867 1225.69 60.72C1225.69 64.4533 1224.78 67.84 1222.97 70.88C1221.21 73.92 1218.81 76.3467 1215.77 78.16C1212.73 79.92 1209.31 80.8 1205.53 80.8ZM1205.53 72.32C1207.71 72.32 1209.63 71.84 1211.29 70.88C1212.99 69.8667 1214.3 68.48 1215.21 66.72C1216.17 64.96 1216.65 62.96 1216.65 60.72C1216.65 58.48 1216.17 56.5067 1215.21 54.8C1214.25 53.0933 1212.94 51.76 1211.29 50.8C1209.63 49.7867 1207.71 49.28 1205.53 49.28C1203.39 49.28 1201.47 49.7867 1199.77 50.8C1198.11 51.76 1196.81 53.0933 1195.85 54.8C1194.94 56.5067 1194.49 58.48 1194.49 60.72C1194.49 62.96 1194.94 64.96 1195.85 66.72C1196.81 68.48 1198.11 69.8667 1199.77 70.88C1201.47 71.84 1203.39 72.32 1205.53 72.32ZM1269.58 80.8C1266.65 80.8 1264.03 80.1867 1261.74 78.96C1259.45 77.68 1257.63 75.9467 1256.3 73.76C1255.02 71.5733 1254.38 69.0933 1254.38 66.32V55.28C1254.38 52.5067 1255.05 50.0267 1256.38 47.84C1257.71 45.6533 1259.53 43.9467 1261.82 42.72C1264.11 41.44 1266.7 40.8 1269.58 40.8C1273.05 40.8 1276.17 41.7067 1278.94 43.52C1281.77 45.28 1283.98 47.68 1285.58 50.72C1287.23 53.7067 1288.06 57.0933 1288.06 60.88C1288.06 64.6133 1287.23 68 1285.58 71.04C1283.98 74.0267 1281.77 76.4 1278.94 78.16C1276.17 79.92 1273.05 80.8 1269.58 80.8ZM1249.02 96V41.6H1257.82V51.92L1256.3 61.28L1257.82 70.56V96H1249.02ZM1268.14 72.48C1270.27 72.48 1272.14 72 1273.74 71.04C1275.39 70.0267 1276.67 68.64 1277.58 66.88C1278.54 65.12 1279.02 63.0933 1279.02 60.8C1279.02 58.5067 1278.54 56.48 1277.58 54.72C1276.67 52.96 1275.39 51.6 1273.74 50.64C1272.14 49.6267 1270.27 49.12 1268.14 49.12C1266.01 49.12 1264.11 49.6267 1262.46 50.64C1260.81 51.6 1259.53 52.96 1258.62 54.72C1257.71 56.48 1257.26 58.5067 1257.26 60.8C1257.26 63.0933 1257.71 65.12 1258.62 66.88C1259.53 68.64 1260.81 70.0267 1262.46 71.04C1264.11 72 1266.01 72.48 1268.14 72.48ZM1313.27 80.8C1309.43 80.8 1305.96 79.9467 1302.87 78.24C1299.83 76.48 1297.4 74.08 1295.59 71.04C1293.83 68 1292.95 64.5867 1292.95 60.8C1292.95 57.0133 1293.83 53.6267 1295.59 50.64C1297.35 47.6 1299.72 45.2 1302.71 43.44C1305.75 41.68 1309.11 40.8 1312.79 40.8C1316.36 40.8 1319.51 41.6267 1322.23 43.28C1325 44.9333 1327.16 47.2 1328.71 50.08C1330.31 52.96 1331.11 56.24 1331.11 59.92C1331.11 60.56 1331.05 61.2267 1330.95 61.92C1330.89 62.56 1330.79 63.28 1330.63 64.08H1299.11V56.88H1326.07L1322.79 59.76C1322.68 57.4133 1322.23 55.44 1321.43 53.84C1320.63 52.24 1319.48 51.0133 1317.99 50.16C1316.55 49.3067 1314.76 48.88 1312.63 48.88C1310.39 48.88 1308.44 49.36 1306.79 50.32C1305.13 51.28 1303.85 52.64 1302.95 54.4C1302.04 56.1067 1301.59 58.16 1301.59 60.56C1301.59 62.96 1302.07 65.0667 1303.03 66.88C1303.99 68.6933 1305.35 70.1067 1307.11 71.12C1308.87 72.08 1310.89 72.56 1313.19 72.56C1315.16 72.56 1316.97 72.2133 1318.63 71.52C1320.33 70.8267 1321.77 69.8133 1322.95 68.48L1328.55 74.16C1326.68 76.3467 1324.41 78 1321.75 79.12C1319.08 80.24 1316.25 80.8 1313.27 80.8ZM1338.16 80V41.6H1346.96V80H1338.16ZM1346.96 58.64L1343.92 57.12C1343.92 52.2667 1344.99 48.3467 1347.12 45.36C1349.31 42.32 1352.59 40.8 1356.96 40.8C1358.88 40.8 1360.61 41.1467 1362.16 41.84C1363.71 42.5333 1365.15 43.6533 1366.48 45.2L1360.72 51.12C1360.03 50.3733 1359.25 49.84 1358.4 49.52C1357.55 49.2 1356.56 49.04 1355.44 49.04C1352.99 49.04 1350.96 49.8133 1349.36 51.36C1347.76 52.9067 1346.96 55.3333 1346.96 58.64ZM1372.15 80V41.6H1380.95V80H1372.15ZM1371.99 36.08L1367.99 32.08L1378.23 19.04L1385.03 25.84L1371.99 36.08ZM1390.74 80V41.6H1399.54V80H1390.74ZM1416.26 80V57.12C1416.26 54.56 1415.46 52.5867 1413.86 51.2C1412.26 49.76 1410.29 49.04 1407.94 49.04C1406.34 49.04 1404.9 49.36 1403.62 50C1402.39 50.64 1401.41 51.5733 1400.66 52.8C1399.91 53.9733 1399.54 55.4133 1399.54 57.12L1396.1 55.2C1396.1 52.2667 1396.74 49.7333 1398.02 47.6C1399.3 45.4667 1401.03 43.8133 1403.22 42.64C1405.41 41.4133 1407.86 40.8 1410.58 40.8C1413.3 40.8 1415.75 41.3867 1417.94 42.56C1420.13 43.7333 1421.86 45.3867 1423.14 47.52C1424.42 49.6533 1425.06 52.2133 1425.06 55.2V80H1416.26ZM1441.78 80V57.12C1441.78 54.56 1440.98 52.5867 1439.38 51.2C1437.78 49.76 1435.81 49.04 1433.46 49.04C1431.91 49.04 1430.5 49.36 1429.22 50C1427.94 50.64 1426.93 51.5733 1426.18 52.8C1425.43 53.9733 1425.06 55.4133 1425.06 57.12L1420.1 55.2C1420.37 52.2667 1421.22 49.7333 1422.66 47.6C1424.1 45.4667 1425.94 43.8133 1428.18 42.64C1430.47 41.4133 1432.98 40.8 1435.7 40.8C1438.47 40.8 1440.98 41.3867 1443.22 42.56C1445.46 43.7333 1447.25 45.3867 1448.58 47.52C1449.91 49.6533 1450.58 52.2133 1450.58 55.2V80H1441.78ZM1477.49 80.8C1473.65 80.8 1470.18 79.9467 1467.09 78.24C1464.05 76.48 1461.62 74.08 1459.81 71.04C1458.05 68 1457.17 64.5867 1457.17 60.8C1457.17 57.0133 1458.05 53.6267 1459.81 50.64C1461.57 47.6 1463.94 45.2 1466.93 43.44C1469.97 41.68 1473.33 40.8 1477.01 40.8C1480.58 40.8 1483.73 41.6267 1486.45 43.28C1489.22 44.9333 1491.38 47.2 1492.93 50.08C1494.53 52.96 1495.33 56.24 1495.33 59.92C1495.33 60.56 1495.27 61.2267 1495.17 61.92C1495.11 62.56 1495.01 63.28 1494.85 64.08H1463.33V56.88H1490.29L1487.01 59.76C1486.9 57.4133 1486.45 55.44 1485.65 53.84C1484.85 52.24 1483.7 51.0133 1482.21 50.16C1480.77 49.3067 1478.98 48.88 1476.85 48.88C1474.61 48.88 1472.66 49.36 1471.01 50.32C1469.35 51.28 1468.07 52.64 1467.17 54.4C1466.26 56.1067 1465.81 58.16 1465.81 60.56C1465.81 62.96 1466.29 65.0667 1467.25 66.88C1468.21 68.6933 1469.57 70.1067 1471.33 71.12C1473.09 72.08 1475.11 72.56 1477.41 72.56C1479.38 72.56 1481.19 72.2133 1482.85 71.52C1484.55 70.8267 1485.99 69.8133 1487.17 68.48L1492.77 74.16C1490.9 76.3467 1488.63 78 1485.97 79.12C1483.3 80.24 1480.47 80.8 1477.49 80.8ZM1507.2 80V25.6H1516V80H1507.2ZM1498 49.6V41.6H1525.2V49.6H1498ZM1531.6 80V41.6H1540.4V80H1531.6ZM1540.4 58.64L1537.36 57.12C1537.36 52.2667 1538.43 48.3467 1540.56 45.36C1542.75 42.32 1546.03 40.8 1550.4 40.8C1552.32 40.8 1554.05 41.1467 1555.6 41.84C1557.15 42.5333 1558.59 43.6533 1559.92 45.2L1554.16 51.12C1553.47 50.3733 1552.69 49.84 1551.84 49.52C1550.99 49.2 1550 49.04 1548.88 49.04C1546.43 49.04 1544.4 49.8133 1542.8 51.36C1541.2 52.9067 1540.4 55.3333 1540.4 58.64ZM1580.61 80.8C1576.87 80.8 1573.49 79.92 1570.45 78.16C1567.41 76.3467 1564.98 73.92 1563.17 70.88C1561.41 67.84 1560.53 64.4533 1560.53 60.72C1560.53 56.9867 1561.41 53.6267 1563.17 50.64C1564.98 47.6533 1567.41 45.28 1570.45 43.52C1573.49 41.7067 1576.87 40.8 1580.61 40.8C1584.39 40.8 1587.81 41.68 1590.85 43.44C1593.89 45.2 1596.29 47.6 1598.05 50.64C1599.86 53.6267 1600.77 56.9867 1600.77 60.72C1600.77 64.4533 1599.86 67.84 1598.05 70.88C1596.29 73.92 1593.89 76.3467 1590.85 78.16C1587.81 79.92 1584.39 80.8 1580.61 80.8ZM1580.61 72.32C1582.79 72.32 1584.71 71.84 1586.37 70.88C1588.07 69.8667 1589.38 68.48 1590.29 66.72C1591.25 64.96 1591.73 62.96 1591.73 60.72C1591.73 58.48 1591.25 56.5067 1590.29 54.8C1589.33 53.0933 1588.02 51.76 1586.37 50.8C1584.71 49.7867 1582.79 49.28 1580.61 49.28C1578.47 49.28 1576.55 49.7867 1574.85 50.8C1573.19 51.76 1571.89 53.0933 1570.93 54.8C1570.02 56.5067 1569.57 58.48 1569.57 60.72C1569.57 62.96 1570.02 64.96 1570.93 66.72C1571.89 68.48 1573.19 69.8667 1574.85 70.88C1576.55 71.84 1578.47 72.32 1580.61 72.32ZM1639.86 80.8C1636.61 80.8 1633.7 80.08 1631.14 78.64C1628.63 77.2 1626.66 75.2267 1625.22 72.72C1623.83 70.16 1623.14 67.2267 1623.14 63.92V41.6H1631.94V63.52C1631.94 65.3867 1632.23 66.9867 1632.82 68.32C1633.46 69.6 1634.37 70.5867 1635.54 71.28C1636.77 71.9733 1638.21 72.32 1639.86 72.32C1642.42 72.32 1644.37 71.5733 1645.7 70.08C1647.09 68.5333 1647.78 66.3467 1647.78 63.52V41.6H1656.58V63.92C1656.58 67.28 1655.86 70.24 1654.42 72.8C1653.03 75.3067 1651.09 77.28 1648.58 78.72C1646.07 80.1067 1643.17 80.8 1639.86 80.8ZM1665.43 80V41.6H1674.23V80H1665.43ZM1674.23 58.64L1671.19 57.12C1671.19 52.2667 1672.25 48.3467 1674.39 45.36C1676.57 42.32 1679.85 40.8 1684.23 40.8C1686.15 40.8 1687.88 41.1467 1689.43 41.84C1690.97 42.5333 1692.41 43.6533 1693.75 45.2L1687.99 51.12C1687.29 50.3733 1686.52 49.84 1685.67 49.52C1684.81 49.2 1683.83 49.04 1682.71 49.04C1680.25 49.04 1678.23 49.8133 1676.63 51.36C1675.03 52.9067 1674.23 55.3333 1674.23 58.64ZM1717.71 80.8C1714.77 80.8 1712.16 80.1867 1709.87 78.96C1707.57 77.68 1705.76 75.9467 1704.43 73.76C1703.15 71.5733 1702.51 69.0933 1702.51 66.32V55.28C1702.51 52.5067 1703.17 50.0267 1704.51 47.84C1705.84 45.6533 1707.65 43.9467 1709.95 42.72C1712.24 41.44 1714.83 40.8 1717.71 40.8C1721.17 40.8 1724.29 41.7067 1727.07 43.52C1729.89 45.28 1732.11 47.68 1733.71 50.72C1735.36 53.7067 1736.19 57.0933 1736.19 60.88C1736.19 64.6133 1735.36 68 1733.71 71.04C1732.11 74.0267 1729.89 76.4 1727.07 78.16C1724.29 79.92 1721.17 80.8 1717.71 80.8ZM1697.15 80V22.4H1705.95V51.04L1704.43 60.32L1705.95 69.68V80H1697.15ZM1716.27 72.48C1718.4 72.48 1720.27 72 1721.87 71.04C1723.52 70.0267 1724.8 68.64 1725.71 66.88C1726.67 65.12 1727.15 63.0933 1727.15 60.8C1727.15 58.5067 1726.67 56.48 1725.71 54.72C1724.8 52.96 1723.52 51.6 1721.87 50.64C1720.27 49.6267 1718.4 49.12 1716.27 49.12C1714.13 49.12 1712.24 49.6267 1710.59 50.64C1708.93 51.6 1707.65 52.96 1706.75 54.72C1705.84 56.48 1705.39 58.5067 1705.39 60.8C1705.39 63.0933 1705.84 65.12 1706.75 66.88C1707.65 68.64 1708.93 70.0267 1710.59 71.04C1712.24 72 1714.13 72.48 1716.27 72.48ZM1759.63 80.8C1756.17 80.8 1753.02 79.92 1750.19 78.16C1747.42 76.4 1745.21 74.0267 1743.55 71.04C1741.95 68 1741.15 64.6133 1741.15 60.88C1741.15 57.0933 1741.95 53.7067 1743.55 50.72C1745.21 47.68 1747.42 45.28 1750.19 43.52C1753.02 41.7067 1756.17 40.8 1759.63 40.8C1762.57 40.8 1765.15 41.44 1767.39 42.72C1769.69 43.9467 1771.5 45.6533 1772.83 47.84C1774.17 50.0267 1774.83 52.5067 1774.83 55.28V66.32C1774.83 69.0933 1774.17 71.5733 1772.83 73.76C1771.55 75.9467 1769.77 77.68 1767.47 78.96C1765.18 80.1867 1762.57 80.8 1759.63 80.8ZM1761.07 72.48C1764.33 72.48 1766.94 71.3867 1768.91 69.2C1770.94 67.0133 1771.95 64.2133 1771.95 60.8C1771.95 58.5067 1771.5 56.48 1770.59 54.72C1769.69 52.96 1768.41 51.6 1766.75 50.64C1765.15 49.6267 1763.26 49.12 1761.07 49.12C1758.94 49.12 1757.05 49.6267 1755.39 50.64C1753.79 51.6 1752.51 52.96 1751.55 54.72C1750.65 56.48 1750.19 58.5067 1750.19 60.8C1750.19 63.0933 1750.65 65.12 1751.55 66.88C1752.51 68.64 1753.79 70.0267 1755.39 71.04C1757.05 72 1758.94 72.48 1761.07 72.48ZM1771.39 80V69.68L1772.91 60.32L1771.39 51.04V41.6H1780.19V80H1771.39ZM1816.28 80V57.84C1816.28 55.28 1815.45 53.1733 1813.8 51.52C1812.2 49.8667 1810.12 49.04 1807.56 49.04C1805.85 49.04 1804.33 49.4133 1803 50.16C1801.66 50.9067 1800.62 51.9467 1799.88 53.28C1799.13 54.6133 1798.76 56.1333 1798.76 57.84L1795.32 55.92C1795.32 52.9867 1795.96 50.4 1797.24 48.16C1798.52 45.8667 1800.28 44.08 1802.52 42.8C1804.81 41.4667 1807.37 40.8 1810.2 40.8C1813.08 40.8 1815.64 41.5467 1817.88 43.04C1820.12 44.48 1821.88 46.3733 1823.16 48.72C1824.44 51.0133 1825.08 53.4133 1825.08 55.92V80H1816.28ZM1789.96 80V41.6H1798.76V80H1789.96ZM1851.62 80.8C1847.89 80.8 1844.5 79.92 1841.46 78.16C1838.42 76.3467 1835.99 73.92 1834.18 70.88C1832.42 67.84 1831.54 64.4533 1831.54 60.72C1831.54 56.9867 1832.42 53.6267 1834.18 50.64C1835.99 47.6533 1838.42 45.28 1841.46 43.52C1844.5 41.7067 1847.89 40.8 1851.62 40.8C1855.41 40.8 1858.82 41.68 1861.86 43.44C1864.9 45.2 1867.3 47.6 1869.06 50.64C1870.87 53.6267 1871.78 56.9867 1871.78 60.72C1871.78 64.4533 1870.87 67.84 1869.06 70.88C1867.3 73.92 1864.9 76.3467 1861.86 78.16C1858.82 79.92 1855.41 80.8 1851.62 80.8ZM1851.62 72.32C1853.81 72.32 1855.73 71.84 1857.38 70.88C1859.09 69.8667 1860.39 68.48 1861.3 66.72C1862.26 64.96 1862.74 62.96 1862.74 60.72C1862.74 58.48 1862.26 56.5067 1861.3 54.8C1860.34 53.0933 1859.03 51.76 1857.38 50.8C1855.73 49.7867 1853.81 49.28 1851.62 49.28C1849.49 49.28 1847.57 49.7867 1845.86 50.8C1844.21 51.76 1842.9 53.0933 1841.94 54.8C1841.03 56.5067 1840.58 58.48 1840.58 60.72C1840.58 62.96 1841.03 64.96 1841.94 66.72C1842.9 68.48 1844.21 69.8667 1845.86 70.88C1847.57 71.84 1849.49 72.32 1851.62 72.32Z" fill="#318D0C"/>
</svg>
