<svg width="2271" height="131" viewBox="0 0 2271 131" fill="none" xmlns="http://www.w3.org/2000/svg">
<path d="M6.08 80V24H15.28V80H6.08ZM12.4 80V71.6H43.76V80H12.4ZM12.4 55.44V47.36H41.04V55.44H12.4ZM12.4 32.4V24H43.36V32.4H12.4ZM65.0275 80L47.5075 41.6H57.2675L70.6275 72.88H64.8675L78.3075 41.6H87.6675L70.1475 80H65.0275ZM109.121 80.8C105.387 80.8 102.001 79.92 98.9606 78.16C95.9206 76.3467 93.494 73.92 91.6806 70.88C89.9206 67.84 89.0406 64.4533 89.0406 60.72C89.0406 56.9867 89.9206 53.6267 91.6806 50.64C93.494 47.6533 95.9206 45.28 98.9606 43.52C102.001 41.7067 105.387 40.8 109.121 40.8C112.907 40.8 116.321 41.68 119.361 43.44C122.401 45.2 124.801 47.6 126.561 50.64C128.374 53.6267 129.281 56.9867 129.281 60.72C129.281 64.4533 128.374 67.84 126.561 70.88C124.801 73.92 122.401 76.3467 119.361 78.16C116.321 79.92 112.907 80.8 109.121 80.8ZM109.121 72.32C111.307 72.32 113.227 71.84 114.881 70.88C116.587 69.8667 117.894 68.48 118.801 66.72C119.761 64.96 120.241 62.96 120.241 60.72C120.241 58.48 119.761 56.5067 118.801 54.8C117.841 53.0933 116.534 51.76 114.881 50.8C113.227 49.7867 111.307 49.28 109.121 49.28C106.987 49.28 105.067 49.7867 103.361 50.8C101.707 51.76 100.401 53.0933 99.4406 54.8C98.534 56.5067 98.0806 58.48 98.0806 60.72C98.0806 62.96 98.534 64.96 99.4406 66.72C100.401 68.48 101.707 69.8667 103.361 70.88C105.067 71.84 106.987 72.32 109.121 72.32ZM136.599 80V22.4H145.399V80H136.599ZM170.953 80.8C167.699 80.8 164.793 80.08 162.233 78.64C159.726 77.2 157.753 75.2267 156.313 72.72C154.926 70.16 154.233 67.2267 154.233 63.92V41.6H163.033V63.52C163.033 65.3867 163.326 66.9867 163.913 68.32C164.553 69.6 165.459 70.5867 166.633 71.28C167.859 71.9733 169.299 72.32 170.953 72.32C173.513 72.32 175.459 71.5733 176.793 70.08C178.179 68.5333 178.873 66.3467 178.873 63.52V41.6H187.673V63.92C187.673 67.28 186.953 70.24 185.513 72.8C184.126 75.3067 182.179 77.28 179.673 78.72C177.166 80.1067 174.259 80.8 170.953 80.8ZM214.201 80.8C210.414 80.8 206.974 79.92 203.881 78.16C200.841 76.4 198.441 74 196.681 70.96C194.921 67.92 194.041 64.5333 194.041 60.8C194.041 57.0133 194.921 53.6267 196.681 50.64C198.441 47.6 200.841 45.2 203.881 43.44C206.974 41.68 210.414 40.8 214.201 40.8C217.187 40.8 219.961 41.3867 222.521 42.56C225.134 43.68 227.347 45.3067 229.161 47.44L223.401 53.28C222.281 51.9467 220.921 50.96 219.321 50.32C217.774 49.6267 216.067 49.28 214.201 49.28C212.014 49.28 210.067 49.7867 208.361 50.8C206.707 51.76 205.401 53.0933 204.441 54.8C203.534 56.5067 203.081 58.5067 203.081 60.8C203.081 63.04 203.534 65.04 204.441 66.8C205.401 68.5067 206.707 69.8667 208.361 70.88C210.067 71.84 212.014 72.32 214.201 72.32C216.067 72.32 217.774 72 219.321 71.36C220.921 70.6667 222.281 69.6533 223.401 68.32L229.161 74.16C227.347 76.2933 225.134 77.9467 222.521 79.12C219.961 80.24 217.187 80.8 214.201 80.8ZM211.721 96.8C209.747 96.8 208.014 96.56 206.521 96.08C205.027 95.6 203.587 94.9067 202.201 94L205.801 89.44C206.387 89.9733 207.107 90.4 207.961 90.72C208.814 91.0933 209.854 91.28 211.081 91.28C212.467 91.28 213.454 91.0933 214.041 90.72C214.681 90.3467 215.001 89.8933 215.001 89.36C215.001 88.7733 214.707 88.24 214.121 87.76C213.587 87.3333 212.707 87.12 211.481 87.12H207.321L209.961 78.88H216.361L214.441 84.64L211.241 82.24C214.547 82.1333 217.214 82.7733 219.241 84.16C221.267 85.6 222.281 87.3867 222.281 89.52C222.281 91.6 221.294 93.3333 219.321 94.72C217.401 96.1067 214.867 96.8 211.721 96.8ZM250.804 80.8C247.337 80.8 244.19 79.92 241.364 78.16C238.59 76.4 236.377 74.0267 234.724 71.04C233.124 68 232.324 64.6133 232.324 60.88C232.324 57.0933 233.124 53.7067 234.724 50.72C236.377 47.68 238.59 45.28 241.364 43.52C244.19 41.7067 247.337 40.8 250.804 40.8C253.737 40.8 256.324 41.44 258.564 42.72C260.857 43.9467 262.67 45.6533 264.004 47.84C265.337 50.0267 266.004 52.5067 266.004 55.28V66.32C266.004 69.0933 265.337 71.5733 264.004 73.76C262.724 75.9467 260.937 77.68 258.644 78.96C256.35 80.1867 253.737 80.8 250.804 80.8ZM252.244 72.48C255.497 72.48 258.11 71.3867 260.084 69.2C262.11 67.0133 263.124 64.2133 263.124 60.8C263.124 58.5067 262.67 56.48 261.764 54.72C260.857 52.96 259.577 51.6 257.924 50.64C256.324 49.6267 254.43 49.12 252.244 49.12C250.11 49.12 248.217 49.6267 246.564 50.64C244.964 51.6 243.684 52.96 242.724 54.72C241.817 56.48 241.364 58.5067 241.364 60.8C241.364 63.0933 241.817 65.12 242.724 66.88C243.684 68.64 244.964 70.0267 246.564 71.04C248.217 72 250.11 72.48 252.244 72.48ZM262.564 80V69.68L264.084 60.32L262.564 51.04V41.6H271.364V80H262.564ZM258.804 36.08C257.044 36.08 255.55 35.76 254.324 35.12C253.097 34.48 251.95 33.8667 250.884 33.28C249.87 32.64 248.724 32.32 247.444 32.32C246.11 32.32 245.044 32.56 244.244 33.04C243.444 33.52 242.67 34.24 241.924 35.2L237.204 30.48C238.75 28.72 240.297 27.3333 241.844 26.32C243.39 25.2533 245.204 24.72 247.284 24.72C249.044 24.72 250.537 25.04 251.764 25.68C252.99 26.2667 254.137 26.88 255.204 27.52C256.27 28.16 257.417 28.48 258.644 28.48C260.03 28.48 261.124 28.24 261.924 27.76C262.724 27.28 263.47 26.56 264.164 25.6L268.884 30.32C267.337 32.08 265.79 33.4933 264.244 34.56C262.697 35.5733 260.884 36.08 258.804 36.08ZM298.73 80.8C294.997 80.8 291.61 79.92 288.57 78.16C285.53 76.3467 283.103 73.92 281.29 70.88C279.53 67.84 278.65 64.4533 278.65 60.72C278.65 56.9867 279.53 53.6267 281.29 50.64C283.103 47.6533 285.53 45.28 288.57 43.52C291.61 41.7067 294.997 40.8 298.73 40.8C302.517 40.8 305.93 41.68 308.97 43.44C312.01 45.2 314.41 47.6 316.17 50.64C317.983 53.6267 318.89 56.9867 318.89 60.72C318.89 64.4533 317.983 67.84 316.17 70.88C314.41 73.92 312.01 76.3467 308.97 78.16C305.93 79.92 302.517 80.8 298.73 80.8ZM298.73 72.32C300.917 72.32 302.837 71.84 304.49 70.88C306.197 69.8667 307.503 68.48 308.41 66.72C309.37 64.96 309.85 62.96 309.85 60.72C309.85 58.48 309.37 56.5067 308.41 54.8C307.45 53.0933 306.143 51.76 304.49 50.8C302.837 49.7867 300.917 49.28 298.73 49.28C296.597 49.28 294.677 49.7867 292.97 50.8C291.317 51.76 290.01 53.0933 289.05 54.8C288.143 56.5067 287.69 58.48 287.69 60.72C287.69 62.96 288.143 64.96 289.05 66.72C290.01 68.48 291.317 69.8667 292.97 70.88C294.677 71.84 296.597 72.32 298.73 72.32ZM358.304 80.8C354.837 80.8 351.69 79.92 348.864 78.16C346.09 76.4 343.877 74.0267 342.224 71.04C340.624 68 339.824 64.6133 339.824 60.88C339.824 57.0933 340.624 53.7067 342.224 50.72C343.877 47.68 346.09 45.28 348.864 43.52C351.69 41.7067 354.837 40.8 358.304 40.8C361.237 40.8 363.824 41.44 366.064 42.72C368.357 43.9467 370.17 45.6533 371.504 47.84C372.837 50.0267 373.504 52.5067 373.504 55.28V66.32C373.504 69.0933 372.837 71.5733 371.504 73.76C370.224 75.9467 368.437 77.68 366.144 78.96C363.85 80.1867 361.237 80.8 358.304 80.8ZM359.744 72.48C361.93 72.48 363.824 72 365.424 71.04C367.077 70.0267 368.357 68.64 369.264 66.88C370.17 65.12 370.624 63.0933 370.624 60.8C370.624 58.5067 370.17 56.48 369.264 54.72C368.357 52.96 367.077 51.6 365.424 50.64C363.824 49.6267 361.93 49.12 359.744 49.12C357.61 49.12 355.717 49.6267 354.064 50.64C352.464 51.6 351.184 52.96 350.224 54.72C349.317 56.48 348.864 58.5067 348.864 60.8C348.864 63.0933 349.317 65.12 350.224 66.88C351.184 68.64 352.464 70.0267 354.064 71.04C355.717 72 357.61 72.48 359.744 72.48ZM378.864 80H370.064V69.68L371.584 60.32L370.064 51.04V22.4H378.864V80ZM404.71 80.8C401.243 80.8 398.097 79.92 395.27 78.16C392.497 76.4 390.283 74.0267 388.63 71.04C387.03 68 386.23 64.6133 386.23 60.88C386.23 57.0933 387.03 53.7067 388.63 50.72C390.283 47.68 392.497 45.28 395.27 43.52C398.097 41.7067 401.243 40.8 404.71 40.8C407.643 40.8 410.23 41.44 412.47 42.72C414.763 43.9467 416.577 45.6533 417.91 47.84C419.243 50.0267 419.91 52.5067 419.91 55.28V66.32C419.91 69.0933 419.243 71.5733 417.91 73.76C416.63 75.9467 414.843 77.68 412.55 78.96C410.257 80.1867 407.643 80.8 404.71 80.8ZM406.15 72.48C409.403 72.48 412.017 71.3867 413.99 69.2C416.017 67.0133 417.03 64.2133 417.03 60.8C417.03 58.5067 416.577 56.48 415.67 54.72C414.763 52.96 413.483 51.6 411.83 50.64C410.23 49.6267 408.337 49.12 406.15 49.12C404.017 49.12 402.123 49.6267 400.47 50.64C398.87 51.6 397.59 52.96 396.63 54.72C395.723 56.48 395.27 58.5067 395.27 60.8C395.27 63.0933 395.723 65.12 396.63 66.88C397.59 68.64 398.87 70.0267 400.47 71.04C402.123 72 404.017 72.48 406.15 72.48ZM416.47 80V69.68L417.99 60.32L416.47 51.04V41.6H425.27V80H416.47ZM445.826 80L468.866 24H475.266L498.146 80H488.226L470.306 34.64H473.666L455.586 80H445.826ZM457.186 69.2V61.2H486.866V69.2H457.186ZM467.426 18.48L463.426 14.48L473.666 1.44L480.466 8.24L467.426 18.48ZM504.958 80V41.6H513.758V80H504.958ZM513.758 58.64L510.718 57.12C510.718 52.2667 511.785 48.3467 513.918 45.36C516.105 42.32 519.385 40.8 523.758 40.8C525.678 40.8 527.411 41.1467 528.958 41.84C530.505 42.5333 531.945 43.6533 533.278 45.2L527.518 51.12C526.825 50.3733 526.051 49.84 525.198 49.52C524.345 49.2 523.358 49.04 522.238 49.04C519.785 49.04 517.758 49.8133 516.158 51.36C514.558 52.9067 513.758 55.3333 513.758 58.64ZM554.204 80.8C550.364 80.8 546.898 79.9467 543.804 78.24C540.764 76.48 538.338 74.08 536.524 71.04C534.764 68 533.884 64.5867 533.884 60.8C533.884 57.0133 534.764 53.6267 536.524 50.64C538.284 47.6 540.658 45.2 543.644 43.44C546.684 41.68 550.044 40.8 553.724 40.8C557.298 40.8 560.444 41.6267 563.164 43.28C565.938 44.9333 568.098 47.2 569.644 50.08C571.244 52.96 572.044 56.24 572.044 59.92C572.044 60.56 571.991 61.2267 571.884 61.92C571.831 62.56 571.724 63.28 571.564 64.08H540.044V56.88H567.004L563.724 59.76C563.618 57.4133 563.164 55.44 562.364 53.84C561.564 52.24 560.418 51.0133 558.924 50.16C557.484 49.3067 555.698 48.88 553.564 48.88C551.324 48.88 549.378 49.36 547.724 50.32C546.071 51.28 544.791 52.64 543.884 54.4C542.978 56.1067 542.524 58.16 542.524 60.56C542.524 62.96 543.004 65.0667 543.964 66.88C544.924 68.6933 546.284 70.1067 548.044 71.12C549.804 72.08 551.831 72.56 554.124 72.56C556.098 72.56 557.911 72.2133 559.564 71.52C561.271 70.8267 562.711 69.8133 563.884 68.48L569.484 74.16C567.618 76.3467 565.351 78 562.684 79.12C560.018 80.24 557.191 80.8 554.204 80.8ZM595.179 80.8C591.712 80.8 588.565 79.92 585.739 78.16C582.965 76.4 580.752 74.0267 579.099 71.04C577.499 68 576.699 64.6133 576.699 60.88C576.699 57.0933 577.499 53.7067 579.099 50.72C580.752 47.68 582.965 45.28 585.739 43.52C588.565 41.7067 591.712 40.8 595.179 40.8C598.112 40.8 600.699 41.44 602.939 42.72C605.232 43.9467 607.045 45.6533 608.379 47.84C609.712 50.0267 610.379 52.5067 610.379 55.28V66.32C610.379 69.0933 609.712 71.5733 608.379 73.76C607.099 75.9467 605.312 77.68 603.019 78.96C600.725 80.1867 598.112 80.8 595.179 80.8ZM596.619 72.48C599.872 72.48 602.485 71.3867 604.459 69.2C606.485 67.0133 607.499 64.2133 607.499 60.8C607.499 58.5067 607.045 56.48 606.139 54.72C605.232 52.96 603.952 51.6 602.299 50.64C600.699 49.6267 598.805 49.12 596.619 49.12C594.485 49.12 592.592 49.6267 590.939 50.64C589.339 51.6 588.059 52.96 587.099 54.72C586.192 56.48 585.739 58.5067 585.739 60.8C585.739 63.0933 586.192 65.12 587.099 66.88C588.059 68.64 589.339 70.0267 590.939 71.04C592.592 72 594.485 72.48 596.619 72.48ZM606.939 80V69.68L608.459 60.32L606.939 51.04V41.6H615.739V80H606.939ZM653.601 89.52C650.774 87.0133 648.321 83.9467 646.241 80.32C644.214 76.6933 642.641 72.72 641.521 68.4C640.401 64.08 639.841 59.6 639.841 54.96C639.841 50.32 640.401 45.84 641.521 41.52C642.641 37.2 644.214 33.2267 646.241 29.6C648.321 25.9733 650.774 22.9067 653.601 20.4L658.641 24.88C655.121 28.1333 652.374 32.3467 650.401 37.52C648.481 42.64 647.521 48.4533 647.521 54.96C647.521 61.4133 648.481 67.2267 650.401 72.4C652.374 77.5733 655.121 81.7867 658.641 85.04L653.601 89.52ZM700.467 80L674.547 50.8L699.907 24H711.667L683.667 53.12V48.08L712.467 80H700.467ZM666.627 80V24H675.827V80H666.627ZM719.177 80V41.6H727.977V80H719.177ZM744.697 80V57.12C744.697 54.56 743.897 52.5867 742.297 51.2C740.697 49.76 738.724 49.04 736.377 49.04C734.777 49.04 733.337 49.36 732.057 50C730.83 50.64 729.844 51.5733 729.097 52.8C728.35 53.9733 727.977 55.4133 727.977 57.12L724.537 55.2C724.537 52.2667 725.177 49.7333 726.457 47.6C727.737 45.4667 729.47 43.8133 731.657 42.64C733.844 41.4133 736.297 40.8 739.017 40.8C741.737 40.8 744.19 41.3867 746.377 42.56C748.564 43.7333 750.297 45.3867 751.577 47.52C752.857 49.6533 753.497 52.2133 753.497 55.2V80H744.697ZM770.217 80V57.12C770.217 54.56 769.417 52.5867 767.817 51.2C766.217 49.76 764.244 49.04 761.897 49.04C760.35 49.04 758.937 49.36 757.657 50C756.377 50.64 755.364 51.5733 754.617 52.8C753.87 53.9733 753.497 55.4133 753.497 57.12L748.537 55.2C748.804 52.2667 749.657 49.7333 751.097 47.6C752.537 45.4667 754.377 43.8133 756.617 42.64C758.91 41.4133 761.417 40.8 764.137 40.8C766.91 40.8 769.417 41.3867 771.657 42.56C773.897 43.7333 775.684 45.3867 777.017 47.52C778.35 49.6533 779.017 52.2133 779.017 55.2V80H770.217ZM785.763 48.16L797.123 36.8C797.87 36.0533 798.35 35.4133 798.563 34.88C798.83 34.3467 798.963 33.8133 798.963 33.28C798.963 32.3733 798.67 31.6533 798.083 31.12C797.496 30.5333 796.696 30.24 795.683 30.24C794.776 30.24 793.923 30.5333 793.123 31.12C792.376 31.6533 791.55 32.56 790.643 33.84L785.443 29.2C786.67 27.2267 788.216 25.7867 790.083 24.88C792.003 23.9733 794.083 23.52 796.323 23.52C799.576 23.52 802.136 24.3733 804.003 26.08C805.87 27.7333 806.803 30.0267 806.803 32.96C806.803 34.6133 806.456 36.1333 805.763 37.52C805.123 38.8533 804.03 40.24 802.483 41.68L795.283 48.48L785.763 48.16ZM785.763 52.48V48.16L792.403 45.92H807.363V52.48H785.763ZM817.351 89.52L812.311 85.04C815.831 81.7867 818.551 77.5733 820.471 72.4C822.444 67.2267 823.431 61.4133 823.431 54.96C823.431 48.4533 822.444 42.64 820.471 37.52C818.551 32.3467 815.831 28.1333 812.311 24.88L817.351 20.4C820.177 22.9067 822.604 25.9733 824.631 29.6C826.711 33.2267 828.311 37.2 829.431 41.52C830.551 45.84 831.111 50.32 831.111 54.96C831.111 59.6 830.551 64.08 829.431 68.4C828.311 72.72 826.711 76.6933 824.631 80.32C822.604 83.9467 820.177 87.0133 817.351 89.52ZM871.273 80.8C867.806 80.8 864.659 79.92 861.833 78.16C859.059 76.4 856.846 74.0267 855.193 71.04C853.593 68 852.793 64.6133 852.793 60.88C852.793 57.0933 853.593 53.7067 855.193 50.72C856.846 47.68 859.059 45.28 861.833 43.52C864.659 41.7067 867.806 40.8 871.273 40.8C874.206 40.8 876.793 41.44 879.033 42.72C881.326 43.9467 883.139 45.6533 884.473 47.84C885.806 50.0267 886.473 52.5067 886.473 55.28V66.32C886.473 69.0933 885.806 71.5733 884.473 73.76C883.193 75.9467 881.406 77.68 879.113 78.96C876.819 80.1867 874.206 80.8 871.273 80.8ZM872.713 72.48C874.899 72.48 876.793 72 878.393 71.04C880.046 70.0267 881.326 68.64 882.233 66.88C883.139 65.12 883.593 63.0933 883.593 60.8C883.593 58.5067 883.139 56.48 882.233 54.72C881.326 52.96 880.046 51.6 878.393 50.64C876.793 49.6267 874.899 49.12 872.713 49.12C870.579 49.12 868.686 49.6267 867.033 50.64C865.433 51.6 864.153 52.96 863.193 54.72C862.286 56.48 861.833 58.5067 861.833 60.8C861.833 63.0933 862.286 65.12 863.193 66.88C864.153 68.64 865.433 70.0267 867.033 71.04C868.686 72 870.579 72.48 872.713 72.48ZM891.833 80H883.033V69.68L884.553 60.32L883.033 51.04V22.4H891.833V80ZM917.679 80.8C914.212 80.8 911.065 79.92 908.239 78.16C905.465 76.4 903.252 74.0267 901.599 71.04C899.999 68 899.199 64.6133 899.199 60.88C899.199 57.0933 899.999 53.7067 901.599 50.72C903.252 47.68 905.465 45.28 908.239 43.52C911.065 41.7067 914.212 40.8 917.679 40.8C920.612 40.8 923.199 41.44 925.439 42.72C927.732 43.9467 929.545 45.6533 930.879 47.84C932.212 50.0267 932.879 52.5067 932.879 55.28V66.32C932.879 69.0933 932.212 71.5733 930.879 73.76C929.599 75.9467 927.812 77.68 925.519 78.96C923.225 80.1867 920.612 80.8 917.679 80.8ZM919.119 72.48C922.372 72.48 924.985 71.3867 926.959 69.2C928.985 67.0133 929.999 64.2133 929.999 60.8C929.999 58.5067 929.545 56.48 928.639 54.72C927.732 52.96 926.452 51.6 924.799 50.64C923.199 49.6267 921.305 49.12 919.119 49.12C916.985 49.12 915.092 49.6267 913.439 50.64C911.839 51.6 910.559 52.96 909.599 54.72C908.692 56.48 908.239 58.5067 908.239 60.8C908.239 63.0933 908.692 65.12 909.599 66.88C910.559 68.64 911.839 70.0267 913.439 71.04C915.092 72 916.985 72.48 919.119 72.48ZM929.439 80V69.68L930.959 60.32L929.439 51.04V41.6H938.239V80H929.439ZM981.701 80.8C977.914 80.8 974.474 79.92 971.381 78.16C968.341 76.4 965.941 74 964.181 70.96C962.421 67.92 961.541 64.5333 961.541 60.8C961.541 57.0133 962.421 53.6267 964.181 50.64C965.941 47.6 968.341 45.2 971.381 43.44C974.474 41.68 977.914 40.8 981.701 40.8C984.687 40.8 987.461 41.3867 990.021 42.56C992.634 43.68 994.847 45.3067 996.661 47.44L990.901 53.28C989.781 51.9467 988.421 50.96 986.821 50.32C985.274 49.6267 983.567 49.28 981.701 49.28C979.514 49.28 977.567 49.7867 975.861 50.8C974.207 51.76 972.901 53.0933 971.941 54.8C971.034 56.5067 970.581 58.5067 970.581 60.8C970.581 63.04 971.034 65.04 971.941 66.8C972.901 68.5067 974.207 69.8667 975.861 70.88C977.567 71.84 979.514 72.32 981.701 72.32C983.567 72.32 985.274 72 986.821 71.36C988.421 70.6667 989.781 69.6533 990.901 68.32L996.661 74.16C994.847 76.2933 992.634 77.9467 990.021 79.12C987.461 80.24 984.687 80.8 981.701 80.8ZM1019.82 80.8C1016.09 80.8 1012.7 79.92 1009.66 78.16C1006.62 76.3467 1004.2 73.92 1002.38 70.88C1000.62 67.84 999.744 64.4533 999.744 60.72C999.744 56.9867 1000.62 53.6267 1002.38 50.64C1004.2 47.6533 1006.62 45.28 1009.66 43.52C1012.7 41.7067 1016.09 40.8 1019.82 40.8C1023.61 40.8 1027.02 41.68 1030.06 43.44C1033.1 45.2 1035.5 47.6 1037.26 50.64C1039.08 53.6267 1039.98 56.9867 1039.98 60.72C1039.98 64.4533 1039.08 67.84 1037.26 70.88C1035.5 73.92 1033.1 76.3467 1030.06 78.16C1027.02 79.92 1023.61 80.8 1019.82 80.8ZM1019.82 72.32C1022.01 72.32 1023.93 71.84 1025.58 70.88C1027.29 69.8667 1028.6 68.48 1029.5 66.72C1030.46 64.96 1030.94 62.96 1030.94 60.72C1030.94 58.48 1030.46 56.5067 1029.5 54.8C1028.54 53.0933 1027.24 51.76 1025.58 50.8C1023.93 49.7867 1022.01 49.28 1019.82 49.28C1017.69 49.28 1015.77 49.7867 1014.06 50.8C1012.41 51.76 1011.1 53.0933 1010.14 54.8C1009.24 56.5067 1008.78 58.48 1008.78 60.72C1008.78 62.96 1009.24 64.96 1010.14 66.72C1011.1 68.48 1012.41 69.8667 1014.06 70.88C1015.77 71.84 1017.69 72.32 1019.82 72.32ZM1067.86 80.8C1064.93 80.8 1062.32 80.1867 1060.02 78.96C1057.73 77.68 1055.92 75.9467 1054.58 73.76C1053.3 71.5733 1052.66 69.0933 1052.66 66.32V55.28C1052.66 52.5067 1053.33 50.0267 1054.66 47.84C1056 45.6533 1057.81 43.9467 1060.1 42.72C1062.4 41.44 1064.98 40.8 1067.86 40.8C1071.33 40.8 1074.45 41.7067 1077.22 43.52C1080.05 45.28 1082.26 47.68 1083.86 50.72C1085.52 53.7067 1086.34 57.0933 1086.34 60.88C1086.34 64.6133 1085.52 68 1083.86 71.04C1082.26 74.0267 1080.05 76.4 1077.22 78.16C1074.45 79.92 1071.33 80.8 1067.86 80.8ZM1047.3 80V22.4H1056.1V51.04L1054.58 60.32L1056.1 69.68V80H1047.3ZM1066.42 72.48C1068.56 72.48 1070.42 72 1072.02 71.04C1073.68 70.0267 1074.96 68.64 1075.86 66.88C1076.82 65.12 1077.3 63.0933 1077.3 60.8C1077.3 58.5067 1076.82 56.48 1075.86 54.72C1074.96 52.96 1073.68 51.6 1072.02 50.64C1070.42 49.6267 1068.56 49.12 1066.42 49.12C1064.29 49.12 1062.4 49.6267 1060.74 50.64C1059.09 51.6 1057.81 52.96 1056.9 54.72C1056 56.48 1055.54 58.5067 1055.54 60.8C1055.54 63.0933 1056 65.12 1056.9 66.88C1057.81 68.64 1059.09 70.0267 1060.74 71.04C1062.4 72 1064.29 72.48 1066.42 72.48ZM1111.55 80.8C1107.71 80.8 1104.24 79.9467 1101.15 78.24C1098.11 76.48 1095.68 74.08 1093.87 71.04C1092.11 68 1091.23 64.5867 1091.23 60.8C1091.23 57.0133 1092.11 53.6267 1093.87 50.64C1095.63 47.6 1098 45.2 1100.99 43.44C1104.03 41.68 1107.39 40.8 1111.07 40.8C1114.64 40.8 1117.79 41.6267 1120.51 43.28C1123.28 44.9333 1125.44 47.2 1126.99 50.08C1128.59 52.96 1129.39 56.24 1129.39 59.92C1129.39 60.56 1129.33 61.2267 1129.23 61.92C1129.17 62.56 1129.07 63.28 1128.91 64.08H1097.39V56.88H1124.35L1121.07 59.76C1120.96 57.4133 1120.51 55.44 1119.71 53.84C1118.91 52.24 1117.76 51.0133 1116.27 50.16C1114.83 49.3067 1113.04 48.88 1110.91 48.88C1108.67 48.88 1106.72 49.36 1105.07 50.32C1103.41 51.28 1102.13 52.64 1101.23 54.4C1100.32 56.1067 1099.87 58.16 1099.87 60.56C1099.87 62.96 1100.35 65.0667 1101.31 66.88C1102.27 68.6933 1103.63 70.1067 1105.39 71.12C1107.15 72.08 1109.17 72.56 1111.47 72.56C1113.44 72.56 1115.25 72.2133 1116.91 71.52C1118.61 70.8267 1120.05 69.8133 1121.23 68.48L1126.83 74.16C1124.96 76.3467 1122.69 78 1120.03 79.12C1117.36 80.24 1114.53 80.8 1111.55 80.8ZM1136.44 80V41.6H1145.24V80H1136.44ZM1145.24 58.64L1142.2 57.12C1142.2 52.2667 1143.27 48.3467 1145.4 45.36C1147.59 42.32 1150.87 40.8 1155.24 40.8C1157.16 40.8 1158.9 41.1467 1160.44 41.84C1161.99 42.5333 1163.43 43.6533 1164.76 45.2L1159 51.12C1158.31 50.3733 1157.54 49.84 1156.68 49.52C1155.83 49.2 1154.84 49.04 1153.72 49.04C1151.27 49.04 1149.24 49.8133 1147.64 51.36C1146.04 52.9067 1145.24 55.3333 1145.24 58.64ZM1174.94 80V25.6H1183.74V80H1174.94ZM1165.74 49.6V41.6H1192.94V49.6H1165.74ZM1215.09 80.8C1211.84 80.8 1208.93 80.08 1206.37 78.64C1203.87 77.2 1201.89 75.2267 1200.45 72.72C1199.07 70.16 1198.37 67.2267 1198.37 63.92V41.6H1207.17V63.52C1207.17 65.3867 1207.47 66.9867 1208.05 68.32C1208.69 69.6 1209.6 70.5867 1210.77 71.28C1212 71.9733 1213.44 72.32 1215.09 72.32C1217.65 72.32 1219.6 71.5733 1220.93 70.08C1222.32 68.5333 1223.01 66.3467 1223.01 63.52V41.6H1231.81V63.92C1231.81 67.28 1231.09 70.24 1229.65 72.8C1228.27 75.3067 1226.32 77.28 1223.81 78.72C1221.31 80.1067 1218.4 80.8 1215.09 80.8ZM1240.66 80V41.6H1249.46V80H1240.66ZM1249.46 58.64L1246.42 57.12C1246.42 52.2667 1247.49 48.3467 1249.62 45.36C1251.81 42.32 1255.09 40.8 1259.46 40.8C1261.38 40.8 1263.11 41.1467 1264.66 41.84C1266.21 42.5333 1267.65 43.6533 1268.98 45.2L1263.22 51.12C1262.53 50.3733 1261.75 49.84 1260.9 49.52C1260.05 49.2 1259.06 49.04 1257.94 49.04C1255.49 49.04 1253.46 49.8133 1251.86 51.36C1250.26 52.9067 1249.46 55.3333 1249.46 58.64ZM1288.15 80.8C1284.68 80.8 1281.53 79.92 1278.71 78.16C1275.93 76.4 1273.72 74.0267 1272.07 71.04C1270.47 68 1269.67 64.6133 1269.67 60.88C1269.67 57.0933 1270.47 53.7067 1272.07 50.72C1273.72 47.68 1275.93 45.28 1278.71 43.52C1281.53 41.7067 1284.68 40.8 1288.15 40.8C1291.08 40.8 1293.67 41.44 1295.91 42.72C1298.2 43.9467 1300.01 45.6533 1301.35 47.84C1302.68 50.0267 1303.35 52.5067 1303.35 55.28V66.32C1303.35 69.0933 1302.68 71.5733 1301.35 73.76C1300.07 75.9467 1298.28 77.68 1295.99 78.96C1293.69 80.1867 1291.08 80.8 1288.15 80.8ZM1289.59 72.48C1292.84 72.48 1295.45 71.3867 1297.43 69.2C1299.45 67.0133 1300.47 64.2133 1300.47 60.8C1300.47 58.5067 1300.01 56.48 1299.11 54.72C1298.2 52.96 1296.92 51.6 1295.27 50.64C1293.67 49.6267 1291.77 49.12 1289.59 49.12C1287.45 49.12 1285.56 49.6267 1283.91 50.64C1282.31 51.6 1281.03 52.96 1280.07 54.72C1279.16 56.48 1278.71 58.5067 1278.71 60.8C1278.71 63.0933 1279.16 65.12 1280.07 66.88C1281.03 68.64 1282.31 70.0267 1283.91 71.04C1285.56 72 1287.45 72.48 1289.59 72.48ZM1299.91 80V69.68L1301.43 60.32L1299.91 51.04V41.6H1308.71V80H1299.91ZM1347.45 80L1329.93 41.6H1339.69L1353.05 72.88H1347.29L1360.73 41.6H1370.09L1352.57 80H1347.45ZM1391.78 80.8C1387.94 80.8 1384.48 79.9467 1381.38 78.24C1378.34 76.48 1375.92 74.08 1374.1 71.04C1372.34 68 1371.46 64.5867 1371.46 60.8C1371.46 57.0133 1372.34 53.6267 1374.1 50.64C1375.86 47.6 1378.24 45.2 1381.22 43.44C1384.26 41.68 1387.62 40.8 1391.3 40.8C1394.88 40.8 1398.02 41.6267 1400.74 43.28C1403.52 44.9333 1405.68 47.2 1407.22 50.08C1408.82 52.96 1409.62 56.24 1409.62 59.92C1409.62 60.56 1409.57 61.2267 1409.46 61.92C1409.41 62.56 1409.3 63.28 1409.14 64.08H1377.62V56.88H1404.58L1401.3 59.76C1401.2 57.4133 1400.74 55.44 1399.94 53.84C1399.14 52.24 1398 51.0133 1396.5 50.16C1395.06 49.3067 1393.28 48.88 1391.14 48.88C1388.9 48.88 1386.96 49.36 1385.3 50.32C1383.65 51.28 1382.37 52.64 1381.46 54.4C1380.56 56.1067 1380.1 58.16 1380.1 60.56C1380.1 62.96 1380.58 65.0667 1381.54 66.88C1382.5 68.6933 1383.86 70.1067 1385.62 71.12C1387.38 72.08 1389.41 72.56 1391.7 72.56C1393.68 72.56 1395.49 72.2133 1397.14 71.52C1398.85 70.8267 1400.29 69.8133 1401.46 68.48L1407.06 74.16C1405.2 76.3467 1402.93 78 1400.26 79.12C1397.6 80.24 1394.77 80.8 1391.78 80.8ZM1432.68 96.8C1428.62 96.8 1425.08 96.0533 1422.04 94.56C1419 93.12 1416.54 91.0667 1414.68 88.4L1420.44 82.64C1421.98 84.56 1423.74 86 1425.72 86.96C1427.69 87.92 1430.06 88.4 1432.84 88.4C1436.3 88.4 1439.05 87.4933 1441.08 85.68C1443.1 83.92 1444.12 81.4933 1444.12 78.4V68.96L1445.64 60.48L1444.12 51.92V41.6H1452.92V78.4C1452.92 82.08 1452.06 85.28 1450.36 88C1448.65 90.7733 1446.28 92.9333 1443.24 94.48C1440.2 96.0267 1436.68 96.8 1432.68 96.8ZM1432.28 79.2C1428.86 79.2 1425.77 78.3733 1423 76.72C1420.28 75.0133 1418.12 72.6933 1416.52 69.76C1414.97 66.8267 1414.2 63.5467 1414.2 59.92C1414.2 56.2933 1414.97 53.04 1416.52 50.16C1418.12 47.28 1420.28 45.0133 1423 43.36C1425.77 41.6533 1428.86 40.8 1432.28 40.8C1435.32 40.8 1437.98 41.4133 1440.28 42.64C1442.57 43.8667 1444.36 45.5733 1445.64 47.76C1446.92 49.8933 1447.56 52.4 1447.56 55.28V64.72C1447.56 67.5467 1446.89 70.0533 1445.56 72.24C1444.28 74.4267 1442.49 76.1333 1440.2 77.36C1437.9 78.5867 1435.26 79.2 1432.28 79.2ZM1434.04 70.88C1436.17 70.88 1438.04 70.4267 1439.64 69.52C1441.24 68.6133 1442.46 67.36 1443.32 65.76C1444.22 64.1067 1444.68 62.1867 1444.68 60C1444.68 57.8133 1444.22 55.92 1443.32 54.32C1442.46 52.6667 1441.24 51.3867 1439.64 50.48C1438.04 49.5733 1436.17 49.12 1434.04 49.12C1431.9 49.12 1430.01 49.5733 1428.36 50.48C1426.76 51.3867 1425.5 52.6667 1424.6 54.32C1423.69 55.92 1423.24 57.8133 1423.24 60C1423.24 62.1333 1423.69 64.0267 1424.6 65.68C1425.5 67.3333 1426.76 68.6133 1428.36 69.52C1430.01 70.4267 1431.9 70.88 1434.04 70.88ZM1480.53 80.8C1476.69 80.8 1473.23 79.9467 1470.13 78.24C1467.09 76.48 1464.67 74.08 1462.85 71.04C1461.09 68 1460.21 64.5867 1460.21 60.8C1460.21 57.0133 1461.09 53.6267 1462.85 50.64C1464.61 47.6 1466.99 45.2 1469.97 43.44C1473.01 41.68 1476.37 40.8 1480.05 40.8C1483.63 40.8 1486.77 41.6267 1489.49 43.28C1492.27 44.9333 1494.43 47.2 1495.97 50.08C1497.57 52.96 1498.37 56.24 1498.37 59.92C1498.37 60.56 1498.32 61.2267 1498.21 61.92C1498.16 62.56 1498.05 63.28 1497.89 64.08H1466.37V56.88H1493.33L1490.05 59.76C1489.95 57.4133 1489.49 55.44 1488.69 53.84C1487.89 52.24 1486.75 51.0133 1485.25 50.16C1483.81 49.3067 1482.03 48.88 1479.89 48.88C1477.65 48.88 1475.71 49.36 1474.05 50.32C1472.4 51.28 1471.12 52.64 1470.21 54.4C1469.31 56.1067 1468.85 58.16 1468.85 60.56C1468.85 62.96 1469.33 65.0667 1470.29 66.88C1471.25 68.6933 1472.61 70.1067 1474.37 71.12C1476.13 72.08 1478.16 72.56 1480.45 72.56C1482.43 72.56 1484.24 72.2133 1485.89 71.52C1487.6 70.8267 1489.04 69.8133 1490.21 68.48L1495.81 74.16C1493.95 76.3467 1491.68 78 1489.01 79.12C1486.35 80.24 1483.52 80.8 1480.53 80.8ZM1510.25 80V25.6H1519.05V80H1510.25ZM1501.05 49.6V41.6H1528.25V49.6H1501.05ZM1549.63 80.8C1546.17 80.8 1543.02 79.92 1540.19 78.16C1537.42 76.4 1535.21 74.0267 1533.55 71.04C1531.95 68 1531.15 64.6133 1531.15 60.88C1531.15 57.0933 1531.95 53.7067 1533.55 50.72C1535.21 47.68 1537.42 45.28 1540.19 43.52C1543.02 41.7067 1546.17 40.8 1549.63 40.8C1552.57 40.8 1555.15 41.44 1557.39 42.72C1559.69 43.9467 1561.5 45.6533 1562.83 47.84C1564.17 50.0267 1564.83 52.5067 1564.83 55.28V66.32C1564.83 69.0933 1564.17 71.5733 1562.83 73.76C1561.55 75.9467 1559.77 77.68 1557.47 78.96C1555.18 80.1867 1552.57 80.8 1549.63 80.8ZM1551.07 72.48C1554.33 72.48 1556.94 71.3867 1558.91 69.2C1560.94 67.0133 1561.95 64.2133 1561.95 60.8C1561.95 58.5067 1561.5 56.48 1560.59 54.72C1559.69 52.96 1558.41 51.6 1556.75 50.64C1555.15 49.6267 1553.26 49.12 1551.07 49.12C1548.94 49.12 1547.05 49.6267 1545.39 50.64C1543.79 51.6 1542.51 52.96 1541.55 54.72C1540.65 56.48 1540.19 58.5067 1540.19 60.8C1540.19 63.0933 1540.65 65.12 1541.55 66.88C1542.51 68.64 1543.79 70.0267 1545.39 71.04C1547.05 72 1548.94 72.48 1551.07 72.48ZM1561.39 80V69.68L1562.91 60.32L1561.39 51.04V41.6H1570.19V80H1561.39ZM1579.96 80V22.4H1588.76V80H1579.96ZM1640.89 80V57.84C1640.89 55.28 1640.06 53.1733 1638.41 51.52C1636.81 49.8667 1634.73 49.04 1632.17 49.04C1630.46 49.04 1628.94 49.4133 1627.61 50.16C1626.27 50.9067 1625.23 51.9467 1624.49 53.28C1623.74 54.6133 1623.37 56.1333 1623.37 57.84L1619.93 55.92C1619.93 52.9867 1620.57 50.4 1621.85 48.16C1623.13 45.8667 1624.89 44.08 1627.13 42.8C1629.42 41.4667 1631.98 40.8 1634.81 40.8C1637.69 40.8 1640.25 41.5467 1642.49 43.04C1644.73 44.48 1646.49 46.3733 1647.77 48.72C1649.05 51.0133 1649.69 53.4133 1649.69 55.92V80H1640.89ZM1614.57 80V41.6H1623.37V80H1614.57ZM1676.23 80.8C1672.5 80.8 1669.11 79.92 1666.07 78.16C1663.03 76.3467 1660.6 73.92 1658.79 70.88C1657.03 67.84 1656.15 64.4533 1656.15 60.72C1656.15 56.9867 1657.03 53.6267 1658.79 50.64C1660.6 47.6533 1663.03 45.28 1666.07 43.52C1669.11 41.7067 1672.5 40.8 1676.23 40.8C1680.02 40.8 1683.43 41.68 1686.47 43.44C1689.51 45.2 1691.91 47.6 1693.67 50.64C1695.48 53.6267 1696.39 56.9867 1696.39 60.72C1696.39 64.4533 1695.48 67.84 1693.67 70.88C1691.91 73.92 1689.51 76.3467 1686.47 78.16C1683.43 79.92 1680.02 80.8 1676.23 80.8ZM1676.23 72.32C1678.42 72.32 1680.34 71.84 1681.99 70.88C1683.7 69.8667 1685 68.48 1685.91 66.72C1686.87 64.96 1687.35 62.96 1687.35 60.72C1687.35 58.48 1686.87 56.5067 1685.91 54.8C1684.95 53.0933 1683.64 51.76 1681.99 50.8C1680.34 49.7867 1678.42 49.28 1676.23 49.28C1674.1 49.28 1672.18 49.7867 1670.47 50.8C1668.82 51.76 1667.51 53.0933 1666.55 54.8C1665.64 56.5067 1665.19 58.48 1665.19 60.72C1665.19 62.96 1665.64 64.96 1666.55 66.72C1667.51 68.48 1668.82 69.8667 1670.47 70.88C1672.18 71.84 1674.1 72.32 1676.23 72.32ZM1719.72 80V41.6H1728.52V80H1719.72ZM1745.24 80V57.12C1745.24 54.56 1744.44 52.5867 1742.84 51.2C1741.24 49.76 1739.27 49.04 1736.92 49.04C1735.32 49.04 1733.88 49.36 1732.6 50C1731.38 50.64 1730.39 51.5733 1729.64 52.8C1728.9 53.9733 1728.52 55.4133 1728.52 57.12L1725.08 55.2C1725.08 52.2667 1725.72 49.7333 1727 47.6C1728.28 45.4667 1730.02 43.8133 1732.2 42.64C1734.39 41.4133 1736.84 40.8 1739.56 40.8C1742.28 40.8 1744.74 41.3867 1746.92 42.56C1749.11 43.7333 1750.84 45.3867 1752.12 47.52C1753.4 49.6533 1754.04 52.2133 1754.04 55.2V80H1745.24ZM1770.76 80V57.12C1770.76 54.56 1769.96 52.5867 1768.36 51.2C1766.76 49.76 1764.79 49.04 1762.44 49.04C1760.9 49.04 1759.48 49.36 1758.2 50C1756.92 50.64 1755.91 51.5733 1755.16 52.8C1754.42 53.9733 1754.04 55.4133 1754.04 57.12L1749.08 55.2C1749.35 52.2667 1750.2 49.7333 1751.64 47.6C1753.08 45.4667 1754.92 43.8133 1757.16 42.64C1759.46 41.4133 1761.96 40.8 1764.68 40.8C1767.46 40.8 1769.96 41.3867 1772.2 42.56C1774.44 43.7333 1776.23 45.3867 1777.56 47.52C1778.9 49.6533 1779.56 52.2133 1779.56 55.2V80H1770.76ZM1804.39 80.8C1801.14 80.8 1798.23 80.08 1795.67 78.64C1793.16 77.2 1791.19 75.2267 1789.75 72.72C1788.36 70.16 1787.67 67.2267 1787.67 63.92V41.6H1796.47V63.52C1796.47 65.3867 1796.76 66.9867 1797.35 68.32C1797.99 69.6 1798.9 70.5867 1800.07 71.28C1801.3 71.9733 1802.74 72.32 1804.39 72.32C1806.95 72.32 1808.9 71.5733 1810.23 70.08C1811.62 68.5333 1812.31 66.3467 1812.31 63.52V41.6H1821.11V63.92C1821.11 67.28 1820.39 70.24 1818.95 72.8C1817.56 75.3067 1815.62 77.28 1813.11 78.72C1810.6 80.1067 1807.7 80.8 1804.39 80.8ZM1856.28 80V57.84C1856.28 55.28 1855.45 53.1733 1853.8 51.52C1852.2 49.8667 1850.12 49.04 1847.56 49.04C1845.85 49.04 1844.33 49.4133 1843 50.16C1841.66 50.9067 1840.62 51.9467 1839.88 53.28C1839.13 54.6133 1838.76 56.1333 1838.76 57.84L1835.32 55.92C1835.32 52.9867 1835.96 50.4 1837.24 48.16C1838.52 45.8667 1840.28 44.08 1842.52 42.8C1844.81 41.4667 1847.37 40.8 1850.2 40.8C1853.08 40.8 1855.64 41.5467 1857.88 43.04C1860.12 44.48 1861.88 46.3733 1863.16 48.72C1864.44 51.0133 1865.08 53.4133 1865.08 55.92V80H1856.28ZM1829.96 80V41.6H1838.76V80H1829.96ZM1874.1 80V41.6H1882.9V80H1874.1ZM1878.5 34.56C1877.01 34.56 1875.75 34.0533 1874.74 33.04C1873.78 32.0267 1873.3 30.7733 1873.3 29.28C1873.3 27.7867 1873.78 26.5333 1874.74 25.52C1875.75 24.5067 1877.01 24 1878.5 24C1880.05 24 1881.3 24.5067 1882.26 25.52C1883.22 26.5333 1883.7 27.7867 1883.7 29.28C1883.7 30.7733 1883.22 32.0267 1882.26 33.04C1881.3 34.0533 1880.05 34.56 1878.5 34.56ZM1910.45 80.8C1906.66 80.8 1903.22 79.92 1900.13 78.16C1897.09 76.4 1894.69 74 1892.93 70.96C1891.17 67.92 1890.29 64.5333 1890.29 60.8C1890.29 57.0133 1891.17 53.6267 1892.93 50.64C1894.69 47.6 1897.09 45.2 1900.13 43.44C1903.22 41.68 1906.66 40.8 1910.45 40.8C1913.44 40.8 1916.21 41.3867 1918.77 42.56C1921.38 43.68 1923.6 45.3067 1925.41 47.44L1919.65 53.28C1918.53 51.9467 1917.17 50.96 1915.57 50.32C1914.02 49.6267 1912.32 49.28 1910.45 49.28C1908.26 49.28 1906.32 49.7867 1904.61 50.8C1902.96 51.76 1901.65 53.0933 1900.69 54.8C1899.78 56.5067 1899.33 58.5067 1899.33 60.8C1899.33 63.04 1899.78 65.04 1900.69 66.8C1901.65 68.5067 1902.96 69.8667 1904.61 70.88C1906.32 71.84 1908.26 72.32 1910.45 72.32C1912.32 72.32 1914.02 72 1915.57 71.36C1917.17 70.6667 1918.53 69.6533 1919.65 68.32L1925.41 74.16C1923.6 76.2933 1921.38 77.9467 1918.77 79.12C1916.21 80.24 1913.44 80.8 1910.45 80.8ZM1931.76 80V41.6H1940.56V80H1931.76ZM1931.6 36.08L1927.6 32.08L1937.84 19.04L1944.64 25.84L1931.6 36.08ZM1970.91 80.8C1967.98 80.8 1965.36 80.1867 1963.07 78.96C1960.78 77.68 1958.96 75.9467 1957.63 73.76C1956.35 71.5733 1955.71 69.0933 1955.71 66.32V55.28C1955.71 52.5067 1956.38 50.0267 1957.71 47.84C1959.04 45.6533 1960.86 43.9467 1963.15 42.72C1965.44 41.44 1968.03 40.8 1970.91 40.8C1974.38 40.8 1977.5 41.7067 1980.27 43.52C1983.1 45.28 1985.31 47.68 1986.91 50.72C1988.56 53.7067 1989.39 57.0933 1989.39 60.88C1989.39 64.6133 1988.56 68 1986.91 71.04C1985.31 74.0267 1983.1 76.4 1980.27 78.16C1977.5 79.92 1974.38 80.8 1970.91 80.8ZM1950.35 96V41.6H1959.15V51.92L1957.63 61.28L1959.15 70.56V96H1950.35ZM1969.47 72.48C1971.6 72.48 1973.47 72 1975.07 71.04C1976.72 70.0267 1978 68.64 1978.91 66.88C1979.87 65.12 1980.35 63.0933 1980.35 60.8C1980.35 58.5067 1979.87 56.48 1978.91 54.72C1978 52.96 1976.72 51.6 1975.07 50.64C1973.47 49.6267 1971.6 49.12 1969.47 49.12C1967.34 49.12 1965.44 49.6267 1963.79 50.64C1962.14 51.6 1960.86 52.96 1959.95 54.72C1959.04 56.48 1958.59 58.5067 1958.59 60.8C1958.59 63.0933 1959.04 65.12 1959.95 66.88C1960.86 68.64 1962.14 70.0267 1963.79 71.04C1965.44 72 1967.34 72.48 1969.47 72.48ZM1996.84 80V41.6H2005.64V80H1996.84ZM2001.24 34.56C1999.74 34.56 1998.49 34.0533 1997.48 33.04C1996.52 32.0267 1996.04 30.7733 1996.04 29.28C1996.04 27.7867 1996.52 26.5333 1997.48 25.52C1998.49 24.5067 1999.74 24 2001.24 24C2002.78 24 2004.04 24.5067 2005 25.52C2005.96 26.5333 2006.44 27.7867 2006.44 29.28C2006.44 30.7733 2005.96 32.0267 2005 33.04C2004.04 34.0533 2002.78 34.56 2001.24 34.56ZM2033.11 80.8C2029.37 80.8 2025.99 79.92 2022.95 78.16C2019.91 76.3467 2017.48 73.92 2015.67 70.88C2013.91 67.84 2013.03 64.4533 2013.03 60.72C2013.03 56.9867 2013.91 53.6267 2015.67 50.64C2017.48 47.6533 2019.91 45.28 2022.95 43.52C2025.99 41.7067 2029.37 40.8 2033.11 40.8C2036.89 40.8 2040.31 41.68 2043.35 43.44C2046.39 45.2 2048.79 47.6 2050.55 50.64C2052.36 53.6267 2053.27 56.9867 2053.27 60.72C2053.27 64.4533 2052.36 67.84 2050.55 70.88C2048.79 73.92 2046.39 76.3467 2043.35 78.16C2040.31 79.92 2036.89 80.8 2033.11 80.8ZM2033.11 72.32C2035.29 72.32 2037.21 71.84 2038.87 70.88C2040.57 69.8667 2041.88 68.48 2042.79 66.72C2043.75 64.96 2044.23 62.96 2044.23 60.72C2044.23 58.48 2043.75 56.5067 2042.79 54.8C2041.83 53.0933 2040.52 51.76 2038.87 50.8C2037.21 49.7867 2035.29 49.28 2033.11 49.28C2030.97 49.28 2029.05 49.7867 2027.35 50.8C2025.69 51.76 2024.39 53.0933 2023.43 54.8C2022.52 56.5067 2022.07 58.48 2022.07 60.72C2022.07 62.96 2022.52 64.96 2023.43 66.72C2024.39 68.48 2025.69 69.8667 2027.35 70.88C2029.05 71.84 2030.97 72.32 2033.11 72.32Z" fill="#318D0C"/>
</svg>
