<svg width="4134" height="131" viewBox="0 0 4134 131" fill="none" xmlns="http://www.w3.org/2000/svg">
<path d="M6.08 80V24H15.28V80H6.08ZM12.4 80V71.6H43.76V80H12.4ZM12.4 55.44V47.36H41.04V55.44H12.4ZM12.4 32.4V24H43.36V32.4H12.4ZM65.0275 80L47.5075 41.6H57.2675L70.6275 72.88H64.8675L78.3075 41.6H87.6675L70.1475 80H65.0275ZM109.121 80.8C105.387 80.8 102.001 79.92 98.9606 78.16C95.9206 76.3467 93.494 73.92 91.6806 70.88C89.9206 67.84 89.0406 64.4533 89.0406 60.72C89.0406 56.9867 89.9206 53.6267 91.6806 50.64C93.494 47.6533 95.9206 45.28 98.9606 43.52C102.001 41.7067 105.387 40.8 109.121 40.8C112.907 40.8 116.321 41.68 119.361 43.44C122.401 45.2 124.801 47.6 126.561 50.64C128.374 53.6267 129.281 56.9867 129.281 60.72C129.281 64.4533 128.374 67.84 126.561 70.88C124.801 73.92 122.401 76.3467 119.361 78.16C116.321 79.92 112.907 80.8 109.121 80.8ZM109.121 72.32C111.307 72.32 113.227 71.84 114.881 70.88C116.587 69.8667 117.894 68.48 118.801 66.72C119.761 64.96 120.241 62.96 120.241 60.72C120.241 58.48 119.761 56.5067 118.801 54.8C117.841 53.0933 116.534 51.76 114.881 50.8C113.227 49.7867 111.307 49.28 109.121 49.28C106.987 49.28 105.067 49.7867 103.361 50.8C101.707 51.76 100.401 53.0933 99.4406 54.8C98.534 56.5067 98.0806 58.48 98.0806 60.72C98.0806 62.96 98.534 64.96 99.4406 66.72C100.401 68.48 101.707 69.8667 103.361 70.88C105.067 71.84 106.987 72.32 109.121 72.32ZM136.599 80V22.4H145.399V80H136.599ZM170.953 80.8C167.699 80.8 164.793 80.08 162.233 78.64C159.726 77.2 157.753 75.2267 156.313 72.72C154.926 70.16 154.233 67.2267 154.233 63.92V41.6H163.033V63.52C163.033 65.3867 163.326 66.9867 163.913 68.32C164.553 69.6 165.459 70.5867 166.633 71.28C167.859 71.9733 169.299 72.32 170.953 72.32C173.513 72.32 175.459 71.5733 176.793 70.08C178.179 68.5333 178.873 66.3467 178.873 63.52V41.6H187.673V63.92C187.673 67.28 186.953 70.24 185.513 72.8C184.126 75.3067 182.179 77.28 179.673 78.72C177.166 80.1067 174.259 80.8 170.953 80.8ZM214.201 80.8C210.414 80.8 206.974 79.92 203.881 78.16C200.841 76.4 198.441 74 196.681 70.96C194.921 67.92 194.041 64.5333 194.041 60.8C194.041 57.0133 194.921 53.6267 196.681 50.64C198.441 47.6 200.841 45.2 203.881 43.44C206.974 41.68 210.414 40.8 214.201 40.8C217.187 40.8 219.961 41.3867 222.521 42.56C225.134 43.68 227.347 45.3067 229.161 47.44L223.401 53.28C222.281 51.9467 220.921 50.96 219.321 50.32C217.774 49.6267 216.067 49.28 214.201 49.28C212.014 49.28 210.067 49.7867 208.361 50.8C206.707 51.76 205.401 53.0933 204.441 54.8C203.534 56.5067 203.081 58.5067 203.081 60.8C203.081 63.04 203.534 65.04 204.441 66.8C205.401 68.5067 206.707 69.8667 208.361 70.88C210.067 71.84 212.014 72.32 214.201 72.32C216.067 72.32 217.774 72 219.321 71.36C220.921 70.6667 222.281 69.6533 223.401 68.32L229.161 74.16C227.347 76.2933 225.134 77.9467 222.521 79.12C219.961 80.24 217.187 80.8 214.201 80.8ZM211.721 96.8C209.747 96.8 208.014 96.56 206.521 96.08C205.027 95.6 203.587 94.9067 202.201 94L205.801 89.44C206.387 89.9733 207.107 90.4 207.961 90.72C208.814 91.0933 209.854 91.28 211.081 91.28C212.467 91.28 213.454 91.0933 214.041 90.72C214.681 90.3467 215.001 89.8933 215.001 89.36C215.001 88.7733 214.707 88.24 214.121 87.76C213.587 87.3333 212.707 87.12 211.481 87.12H207.321L209.961 78.88H216.361L214.441 84.64L211.241 82.24C214.547 82.1333 217.214 82.7733 219.241 84.16C221.267 85.6 222.281 87.3867 222.281 89.52C222.281 91.6 221.294 93.3333 219.321 94.72C217.401 96.1067 214.867 96.8 211.721 96.8ZM250.804 80.8C247.337 80.8 244.19 79.92 241.364 78.16C238.59 76.4 236.377 74.0267 234.724 71.04C233.124 68 232.324 64.6133 232.324 60.88C232.324 57.0933 233.124 53.7067 234.724 50.72C236.377 47.68 238.59 45.28 241.364 43.52C244.19 41.7067 247.337 40.8 250.804 40.8C253.737 40.8 256.324 41.44 258.564 42.72C260.857 43.9467 262.67 45.6533 264.004 47.84C265.337 50.0267 266.004 52.5067 266.004 55.28V66.32C266.004 69.0933 265.337 71.5733 264.004 73.76C262.724 75.9467 260.937 77.68 258.644 78.96C256.35 80.1867 253.737 80.8 250.804 80.8ZM252.244 72.48C255.497 72.48 258.11 71.3867 260.084 69.2C262.11 67.0133 263.124 64.2133 263.124 60.8C263.124 58.5067 262.67 56.48 261.764 54.72C260.857 52.96 259.577 51.6 257.924 50.64C256.324 49.6267 254.43 49.12 252.244 49.12C250.11 49.12 248.217 49.6267 246.564 50.64C244.964 51.6 243.684 52.96 242.724 54.72C241.817 56.48 241.364 58.5067 241.364 60.8C241.364 63.0933 241.817 65.12 242.724 66.88C243.684 68.64 244.964 70.0267 246.564 71.04C248.217 72 250.11 72.48 252.244 72.48ZM262.564 80V69.68L264.084 60.32L262.564 51.04V41.6H271.364V80H262.564ZM258.804 36.08C257.044 36.08 255.55 35.76 254.324 35.12C253.097 34.48 251.95 33.8667 250.884 33.28C249.87 32.64 248.724 32.32 247.444 32.32C246.11 32.32 245.044 32.56 244.244 33.04C243.444 33.52 242.67 34.24 241.924 35.2L237.204 30.48C238.75 28.72 240.297 27.3333 241.844 26.32C243.39 25.2533 245.204 24.72 247.284 24.72C249.044 24.72 250.537 25.04 251.764 25.68C252.99 26.2667 254.137 26.88 255.204 27.52C256.27 28.16 257.417 28.48 258.644 28.48C260.03 28.48 261.124 28.24 261.924 27.76C262.724 27.28 263.47 26.56 264.164 25.6L268.884 30.32C267.337 32.08 265.79 33.4933 264.244 34.56C262.697 35.5733 260.884 36.08 258.804 36.08ZM298.73 80.8C294.997 80.8 291.61 79.92 288.57 78.16C285.53 76.3467 283.103 73.92 281.29 70.88C279.53 67.84 278.65 64.4533 278.65 60.72C278.65 56.9867 279.53 53.6267 281.29 50.64C283.103 47.6533 285.53 45.28 288.57 43.52C291.61 41.7067 294.997 40.8 298.73 40.8C302.517 40.8 305.93 41.68 308.97 43.44C312.01 45.2 314.41 47.6 316.17 50.64C317.983 53.6267 318.89 56.9867 318.89 60.72C318.89 64.4533 317.983 67.84 316.17 70.88C314.41 73.92 312.01 76.3467 308.97 78.16C305.93 79.92 302.517 80.8 298.73 80.8ZM298.73 72.32C300.917 72.32 302.837 71.84 304.49 70.88C306.197 69.8667 307.503 68.48 308.41 66.72C309.37 64.96 309.85 62.96 309.85 60.72C309.85 58.48 309.37 56.5067 308.41 54.8C307.45 53.0933 306.143 51.76 304.49 50.8C302.837 49.7867 300.917 49.28 298.73 49.28C296.597 49.28 294.677 49.7867 292.97 50.8C291.317 51.76 290.01 53.0933 289.05 54.8C288.143 56.5067 287.69 58.48 287.69 60.72C287.69 62.96 288.143 64.96 289.05 66.72C290.01 68.48 291.317 69.8667 292.97 70.88C294.677 71.84 296.597 72.32 298.73 72.32ZM358.304 80.8C354.837 80.8 351.69 79.92 348.864 78.16C346.09 76.4 343.877 74.0267 342.224 71.04C340.624 68 339.824 64.6133 339.824 60.88C339.824 57.0933 340.624 53.7067 342.224 50.72C343.877 47.68 346.09 45.28 348.864 43.52C351.69 41.7067 354.837 40.8 358.304 40.8C361.237 40.8 363.824 41.44 366.064 42.72C368.357 43.9467 370.17 45.6533 371.504 47.84C372.837 50.0267 373.504 52.5067 373.504 55.28V66.32C373.504 69.0933 372.837 71.5733 371.504 73.76C370.224 75.9467 368.437 77.68 366.144 78.96C363.85 80.1867 361.237 80.8 358.304 80.8ZM359.744 72.48C361.93 72.48 363.824 72 365.424 71.04C367.077 70.0267 368.357 68.64 369.264 66.88C370.17 65.12 370.624 63.0933 370.624 60.8C370.624 58.5067 370.17 56.48 369.264 54.72C368.357 52.96 367.077 51.6 365.424 50.64C363.824 49.6267 361.93 49.12 359.744 49.12C357.61 49.12 355.717 49.6267 354.064 50.64C352.464 51.6 351.184 52.96 350.224 54.72C349.317 56.48 348.864 58.5067 348.864 60.8C348.864 63.0933 349.317 65.12 350.224 66.88C351.184 68.64 352.464 70.0267 354.064 71.04C355.717 72 357.61 72.48 359.744 72.48ZM378.864 80H370.064V69.68L371.584 60.32L370.064 51.04V22.4H378.864V80ZM406.23 80.8C402.497 80.8 399.11 79.92 396.07 78.16C393.03 76.3467 390.603 73.92 388.79 70.88C387.03 67.84 386.15 64.4533 386.15 60.72C386.15 56.9867 387.03 53.6267 388.79 50.64C390.603 47.6533 393.03 45.28 396.07 43.52C399.11 41.7067 402.497 40.8 406.23 40.8C410.017 40.8 413.43 41.68 416.47 43.44C419.51 45.2 421.91 47.6 423.67 50.64C425.483 53.6267 426.39 56.9867 426.39 60.72C426.39 64.4533 425.483 67.84 423.67 70.88C421.91 73.92 419.51 76.3467 416.47 78.16C413.43 79.92 410.017 80.8 406.23 80.8ZM406.23 72.32C408.417 72.32 410.337 71.84 411.99 70.88C413.697 69.8667 415.003 68.48 415.91 66.72C416.87 64.96 417.35 62.96 417.35 60.72C417.35 58.48 416.87 56.5067 415.91 54.8C414.95 53.0933 413.643 51.76 411.99 50.8C410.337 49.7867 408.417 49.28 406.23 49.28C404.097 49.28 402.177 49.7867 400.47 50.8C398.817 51.76 397.51 53.0933 396.55 54.8C395.643 56.5067 395.19 58.48 395.19 60.72C395.19 62.96 395.643 64.96 396.55 66.72C397.51 68.48 398.817 69.8667 400.47 70.88C402.177 71.84 404.097 72.32 406.23 72.32ZM450.924 80V24H457.324L460.124 34.56V80H450.924ZM489.724 80L456.204 36.24L457.324 24L490.844 67.76L489.724 80ZM489.724 80L486.924 70.16V24H496.124V80H489.724ZM522.828 80.8C519.574 80.8 516.668 80.08 514.108 78.64C511.601 77.2 509.628 75.2267 508.188 72.72C506.801 70.16 506.108 67.2267 506.108 63.92V41.6H514.908V63.52C514.908 65.3867 515.201 66.9867 515.788 68.32C516.428 69.6 517.334 70.5867 518.508 71.28C519.734 71.9733 521.174 72.32 522.828 72.32C525.388 72.32 527.334 71.5733 528.668 70.08C530.054 68.5333 530.748 66.3467 530.748 63.52V41.6H539.548V63.92C539.548 67.28 538.828 70.24 537.388 72.8C536.001 75.3067 534.054 77.28 531.548 78.72C529.041 80.1067 526.134 80.8 522.828 80.8ZM518.348 36.08L514.348 32.08L524.588 19.04L531.388 25.84L518.348 36.08ZM548.396 80V41.6H557.196V80H548.396ZM573.916 80V57.12C573.916 54.56 573.116 52.5867 571.516 51.2C569.916 49.76 567.942 49.04 565.596 49.04C563.996 49.04 562.556 49.36 561.276 50C560.049 50.64 559.062 51.5733 558.316 52.8C557.569 53.9733 557.196 55.4133 557.196 57.12L553.756 55.2C553.756 52.2667 554.396 49.7333 555.676 47.6C556.956 45.4667 558.689 43.8133 560.876 42.64C563.062 41.4133 565.516 40.8 568.236 40.8C570.956 40.8 573.409 41.3867 575.596 42.56C577.782 43.7333 579.516 45.3867 580.796 47.52C582.076 49.6533 582.716 52.2133 582.716 55.2V80H573.916ZM599.436 80V57.12C599.436 54.56 598.636 52.5867 597.036 51.2C595.436 49.76 593.462 49.04 591.116 49.04C589.569 49.04 588.156 49.36 586.876 50C585.596 50.64 584.582 51.5733 583.836 52.8C583.089 53.9733 582.716 55.4133 582.716 57.12L577.756 55.2C578.022 52.2667 578.876 49.7333 580.316 47.6C581.756 45.4667 583.596 43.8133 585.836 42.64C588.129 41.4133 590.636 40.8 593.356 40.8C596.129 40.8 598.636 41.3867 600.876 42.56C603.116 43.7333 604.902 45.3867 606.236 47.52C607.569 49.6533 608.236 52.2133 608.236 55.2V80H599.436ZM635.142 80.8C631.302 80.8 627.835 79.9467 624.742 78.24C621.702 76.48 619.275 74.08 617.462 71.04C615.702 68 614.822 64.5867 614.822 60.8C614.822 57.0133 615.702 53.6267 617.462 50.64C619.222 47.6 621.595 45.2 624.582 43.44C627.622 41.68 630.982 40.8 634.662 40.8C638.235 40.8 641.382 41.6267 644.102 43.28C646.875 44.9333 649.035 47.2 650.582 50.08C652.182 52.96 652.982 56.24 652.982 59.92C652.982 60.56 652.929 61.2267 652.822 61.92C652.769 62.56 652.662 63.28 652.502 64.08H620.982V56.88H647.942L644.662 59.76C644.555 57.4133 644.102 55.44 643.302 53.84C642.502 52.24 641.355 51.0133 639.862 50.16C638.422 49.3067 636.635 48.88 634.502 48.88C632.262 48.88 630.315 49.36 628.662 50.32C627.009 51.28 625.729 52.64 624.822 54.4C623.915 56.1067 623.462 58.16 623.462 60.56C623.462 62.96 623.942 65.0667 624.902 66.88C625.862 68.6933 627.222 70.1067 628.982 71.12C630.742 72.08 632.769 72.56 635.062 72.56C637.035 72.56 638.849 72.2133 640.502 71.52C642.209 70.8267 643.649 69.8133 644.822 68.48L650.422 74.16C648.555 76.3467 646.289 78 643.622 79.12C640.955 80.24 638.129 80.8 635.142 80.8ZM660.036 80V41.6H668.836V80H660.036ZM668.836 58.64L665.796 57.12C665.796 52.2667 666.863 48.3467 668.996 45.36C671.183 42.32 674.463 40.8 678.836 40.8C680.756 40.8 682.49 41.1467 684.036 41.84C685.583 42.5333 687.023 43.6533 688.356 45.2L682.596 51.12C681.903 50.3733 681.13 49.84 680.276 49.52C679.423 49.2 678.436 49.04 677.316 49.04C674.863 49.04 672.836 49.8133 671.236 51.36C669.636 52.9067 668.836 55.3333 668.836 58.64ZM709.043 80.8C705.309 80.8 701.923 79.92 698.883 78.16C695.843 76.3467 693.416 73.92 691.603 70.88C689.843 67.84 688.963 64.4533 688.963 60.72C688.963 56.9867 689.843 53.6267 691.603 50.64C693.416 47.6533 695.843 45.28 698.883 43.52C701.923 41.7067 705.309 40.8 709.043 40.8C712.829 40.8 716.243 41.68 719.283 43.44C722.323 45.2 724.723 47.6 726.483 50.64C728.296 53.6267 729.203 56.9867 729.203 60.72C729.203 64.4533 728.296 67.84 726.483 70.88C724.723 73.92 722.323 76.3467 719.283 78.16C716.243 79.92 712.829 80.8 709.043 80.8ZM709.043 72.32C711.229 72.32 713.149 71.84 714.803 70.88C716.509 69.8667 717.816 68.48 718.723 66.72C719.683 64.96 720.163 62.96 720.163 60.72C720.163 58.48 719.683 56.5067 718.723 54.8C717.763 53.0933 716.456 51.76 714.803 50.8C713.149 49.7867 711.229 49.28 709.043 49.28C706.909 49.28 704.989 49.7867 703.283 50.8C701.629 51.76 700.323 53.0933 699.363 54.8C698.456 56.5067 698.003 58.48 698.003 60.72C698.003 62.96 698.456 64.96 699.363 66.72C700.323 68.48 701.629 69.8667 703.283 70.88C704.989 71.84 706.909 72.32 709.043 72.32ZM768.616 80.8C765.15 80.8 762.003 79.92 759.176 78.16C756.403 76.4 754.19 74.0267 752.536 71.04C750.936 68 750.136 64.6133 750.136 60.88C750.136 57.0933 750.936 53.7067 752.536 50.72C754.19 47.68 756.403 45.28 759.176 43.52C762.003 41.7067 765.15 40.8 768.616 40.8C771.55 40.8 774.136 41.44 776.376 42.72C778.67 43.9467 780.483 45.6533 781.816 47.84C783.15 50.0267 783.816 52.5067 783.816 55.28V66.32C783.816 69.0933 783.15 71.5733 781.816 73.76C780.536 75.9467 778.75 77.68 776.456 78.96C774.163 80.1867 771.55 80.8 768.616 80.8ZM770.056 72.48C772.243 72.48 774.136 72 775.736 71.04C777.39 70.0267 778.67 68.64 779.576 66.88C780.483 65.12 780.936 63.0933 780.936 60.8C780.936 58.5067 780.483 56.48 779.576 54.72C778.67 52.96 777.39 51.6 775.736 50.64C774.136 49.6267 772.243 49.12 770.056 49.12C767.923 49.12 766.03 49.6267 764.376 50.64C762.776 51.6 761.496 52.96 760.536 54.72C759.63 56.48 759.176 58.5067 759.176 60.8C759.176 63.0933 759.63 65.12 760.536 66.88C761.496 68.64 762.776 70.0267 764.376 71.04C766.03 72 767.923 72.48 770.056 72.48ZM789.176 80H780.376V69.68L781.896 60.32L780.376 51.04V22.4H789.176V80ZM816.783 80.8C812.943 80.8 809.476 79.9467 806.383 78.24C803.343 76.48 800.916 74.08 799.103 71.04C797.343 68 796.463 64.5867 796.463 60.8C796.463 57.0133 797.343 53.6267 799.103 50.64C800.863 47.6 803.236 45.2 806.223 43.44C809.263 41.68 812.623 40.8 816.303 40.8C819.876 40.8 823.023 41.6267 825.743 43.28C828.516 44.9333 830.676 47.2 832.223 50.08C833.823 52.96 834.623 56.24 834.623 59.92C834.623 60.56 834.569 61.2267 834.462 61.92C834.409 62.56 834.303 63.28 834.143 64.08H802.623V56.88H829.583L826.303 59.76C826.196 57.4133 825.743 55.44 824.943 53.84C824.143 52.24 822.996 51.0133 821.503 50.16C820.063 49.3067 818.276 48.88 816.143 48.88C813.903 48.88 811.956 49.36 810.303 50.32C808.649 51.28 807.369 52.64 806.463 54.4C805.556 56.1067 805.103 58.16 805.103 60.56C805.103 62.96 805.583 65.0667 806.543 66.88C807.503 68.6933 808.863 70.1067 810.623 71.12C812.383 72.08 814.409 72.56 816.703 72.56C818.676 72.56 820.489 72.2133 822.143 71.52C823.849 70.8267 825.289 69.8133 826.463 68.48L832.063 74.16C830.196 76.3467 827.929 78 825.263 79.12C822.596 80.24 819.769 80.8 816.783 80.8ZM858.893 80V24H868.093V80H858.893ZM865.213 80V71.6H894.493V80H865.213ZM918.189 80.8C914.349 80.8 910.882 79.9467 907.789 78.24C904.749 76.48 902.322 74.08 900.509 71.04C898.749 68 897.869 64.5867 897.869 60.8C897.869 57.0133 898.749 53.6267 900.509 50.64C902.269 47.6 904.642 45.2 907.629 43.44C910.669 41.68 914.029 40.8 917.709 40.8C921.282 40.8 924.429 41.6267 927.149 43.28C929.922 44.9333 932.082 47.2 933.629 50.08C935.229 52.96 936.029 56.24 936.029 59.92C936.029 60.56 935.975 61.2267 935.869 61.92C935.815 62.56 935.709 63.28 935.549 64.08H904.029V56.88H930.989L927.709 59.76C927.602 57.4133 927.149 55.44 926.349 53.84C925.549 52.24 924.402 51.0133 922.909 50.16C921.469 49.3067 919.682 48.88 917.549 48.88C915.309 48.88 913.362 49.36 911.709 50.32C910.055 51.28 908.775 52.64 907.869 54.4C906.962 56.1067 906.509 58.16 906.509 60.56C906.509 62.96 906.989 65.0667 907.949 66.88C908.909 68.6933 910.269 70.1067 912.029 71.12C913.789 72.08 915.815 72.56 918.109 72.56C920.082 72.56 921.895 72.2133 923.549 71.52C925.255 70.8267 926.695 69.8133 927.869 68.48L933.469 74.16C931.602 76.3467 929.335 78 926.669 79.12C924.002 80.24 921.175 80.8 918.189 80.8ZM943.163 80V41.6H951.963V80H943.163ZM947.563 34.56C946.07 34.56 944.816 34.0533 943.803 33.04C942.843 32.0267 942.363 30.7733 942.363 29.28C942.363 27.7867 942.843 26.5333 943.803 25.52C944.816 24.5067 946.07 24 947.563 24C949.11 24 950.363 24.5067 951.323 25.52C952.283 26.5333 952.763 27.7867 952.763 29.28C952.763 30.7733 952.283 32.0267 951.323 33.04C950.363 34.0533 949.11 34.56 947.563 34.56ZM967.673 80V25.6H976.473V80H967.673ZM958.473 49.6V41.6H985.673V49.6H958.473ZM1008.57 80.8C1004.84 80.8 1001.45 79.92 998.414 78.16C995.374 76.3467 992.947 73.92 991.134 70.88C989.374 67.84 988.494 64.4533 988.494 60.72C988.494 56.9867 989.374 53.6267 991.134 50.64C992.947 47.6533 995.374 45.28 998.414 43.52C1001.45 41.7067 1004.84 40.8 1008.57 40.8C1012.36 40.8 1015.77 41.68 1018.81 43.44C1021.85 45.2 1024.25 47.6 1026.01 50.64C1027.83 53.6267 1028.73 56.9867 1028.73 60.72C1028.73 64.4533 1027.83 67.84 1026.01 70.88C1024.25 73.92 1021.85 76.3467 1018.81 78.16C1015.77 79.92 1012.36 80.8 1008.57 80.8ZM1008.57 72.32C1010.76 72.32 1012.68 71.84 1014.33 70.88C1016.04 69.8667 1017.35 68.48 1018.25 66.72C1019.21 64.96 1019.69 62.96 1019.69 60.72C1019.69 58.48 1019.21 56.5067 1018.25 54.8C1017.29 53.0933 1015.99 51.76 1014.33 50.8C1012.68 49.7867 1010.76 49.28 1008.57 49.28C1006.44 49.28 1004.52 49.7867 1002.81 50.8C1001.16 51.76 999.854 53.0933 998.894 54.8C997.987 56.5067 997.534 58.48 997.534 60.72C997.534 62.96 997.987 64.96 998.894 66.72C999.854 68.48 1001.16 69.8667 1002.81 70.88C1004.52 71.84 1006.44 72.32 1008.57 72.32ZM1048.61 80.8C1046.48 80.8 1044.43 80.5333 1042.45 80C1040.48 79.4133 1038.67 78.6133 1037.01 77.6C1035.36 76.5333 1033.92 75.2533 1032.69 73.76L1038.29 68.16C1039.63 69.7067 1041.15 70.88 1042.85 71.68C1044.61 72.4267 1046.59 72.8 1048.77 72.8C1050.75 72.8 1052.24 72.5067 1053.25 71.92C1054.27 71.3333 1054.77 70.48 1054.77 69.36C1054.77 68.1867 1054.29 67.28 1053.33 66.64C1052.37 66 1051.12 65.4667 1049.57 65.04C1048.08 64.56 1046.48 64.08 1044.77 63.6C1043.12 63.12 1041.52 62.48 1039.97 61.68C1038.48 60.8267 1037.25 59.68 1036.29 58.24C1035.33 56.8 1034.85 54.9333 1034.85 52.64C1034.85 50.1867 1035.41 48.08 1036.53 46.32C1037.71 44.56 1039.33 43.2 1041.41 42.24C1043.55 41.28 1046.08 40.8 1049.01 40.8C1052.11 40.8 1054.83 41.36 1057.17 42.48C1059.57 43.5467 1061.57 45.1733 1063.17 47.36L1057.57 52.96C1056.45 51.5733 1055.17 50.5333 1053.73 49.84C1052.29 49.1467 1050.64 48.8 1048.77 48.8C1047.01 48.8 1045.65 49.0667 1044.69 49.6C1043.73 50.1333 1043.25 50.9067 1043.25 51.92C1043.25 52.9867 1043.73 53.8133 1044.69 54.4C1045.65 54.9867 1046.88 55.4933 1048.37 55.92C1049.92 56.3467 1051.52 56.8267 1053.17 57.36C1054.88 57.84 1056.48 58.5333 1057.97 59.44C1059.52 60.2933 1060.77 61.4667 1061.73 62.96C1062.69 64.4 1063.17 66.2933 1063.17 68.64C1063.17 72.3733 1061.87 75.3333 1059.25 77.52C1056.64 79.7067 1053.09 80.8 1048.61 80.8ZM1107 80.8C1104.07 80.8 1101.46 80.1867 1099.16 78.96C1096.87 77.68 1095.06 75.9467 1093.72 73.76C1092.44 71.5733 1091.8 69.0933 1091.8 66.32V55.28C1091.8 52.5067 1092.47 50.0267 1093.8 47.84C1095.14 45.6533 1096.95 43.9467 1099.24 42.72C1101.54 41.44 1104.12 40.8 1107 40.8C1110.47 40.8 1113.59 41.7067 1116.36 43.52C1119.19 45.28 1121.4 47.68 1123 50.72C1124.66 53.7067 1125.48 57.0933 1125.48 60.88C1125.48 64.6133 1124.66 68 1123 71.04C1121.4 74.0267 1119.19 76.4 1116.36 78.16C1113.59 79.92 1110.47 80.8 1107 80.8ZM1086.44 96V41.6H1095.24V51.92L1093.72 61.28L1095.24 70.56V96H1086.44ZM1105.56 72.48C1107.7 72.48 1109.56 72 1111.16 71.04C1112.82 70.0267 1114.1 68.64 1115 66.88C1115.96 65.12 1116.44 63.0933 1116.44 60.8C1116.44 58.5067 1115.96 56.48 1115 54.72C1114.1 52.96 1112.82 51.6 1111.16 50.64C1109.56 49.6267 1107.7 49.12 1105.56 49.12C1103.43 49.12 1101.54 49.6267 1099.88 50.64C1098.23 51.6 1096.95 52.96 1096.04 54.72C1095.14 56.48 1094.68 58.5067 1094.68 60.8C1094.68 63.0933 1095.14 65.12 1096.04 66.88C1096.95 68.64 1098.23 70.0267 1099.88 71.04C1101.54 72 1103.43 72.48 1105.56 72.48ZM1150.45 80.8C1146.72 80.8 1143.33 79.92 1140.29 78.16C1137.25 76.3467 1134.82 73.92 1133.01 70.88C1131.25 67.84 1130.37 64.4533 1130.37 60.72C1130.37 56.9867 1131.25 53.6267 1133.01 50.64C1134.82 47.6533 1137.25 45.28 1140.29 43.52C1143.33 41.7067 1146.72 40.8 1150.45 40.8C1154.24 40.8 1157.65 41.68 1160.69 43.44C1163.73 45.2 1166.13 47.6 1167.89 50.64C1169.7 53.6267 1170.61 56.9867 1170.61 60.72C1170.61 64.4533 1169.7 67.84 1167.89 70.88C1166.13 73.92 1163.73 76.3467 1160.69 78.16C1157.65 79.92 1154.24 80.8 1150.45 80.8ZM1150.45 72.32C1152.64 72.32 1154.56 71.84 1156.21 70.88C1157.92 69.8667 1159.22 68.48 1160.13 66.72C1161.09 64.96 1161.57 62.96 1161.57 60.72C1161.57 58.48 1161.09 56.5067 1160.13 54.8C1159.17 53.0933 1157.86 51.76 1156.21 50.8C1154.56 49.7867 1152.64 49.28 1150.45 49.28C1148.32 49.28 1146.4 49.7867 1144.69 50.8C1143.04 51.76 1141.73 53.0933 1140.77 54.8C1139.86 56.5067 1139.41 58.48 1139.41 60.72C1139.41 62.96 1139.86 64.96 1140.77 66.72C1141.73 68.48 1143.04 69.8667 1144.69 70.88C1146.4 71.84 1148.32 72.32 1150.45 72.32ZM1177.93 80V41.6H1186.73V80H1177.93ZM1186.73 58.64L1183.69 57.12C1183.69 52.2667 1184.75 48.3467 1186.89 45.36C1189.07 42.32 1192.35 40.8 1196.73 40.8C1198.65 40.8 1200.38 41.1467 1201.93 41.84C1203.47 42.5333 1204.91 43.6533 1206.25 45.2L1200.49 51.12C1199.79 50.3733 1199.02 49.84 1198.17 49.52C1197.31 49.2 1196.33 49.04 1195.21 49.04C1192.75 49.04 1190.73 49.8133 1189.13 51.36C1187.53 52.9067 1186.73 55.3333 1186.73 58.64ZM1236.33 80V24H1245.37V80H1236.33ZM1225.13 32.24V24H1244.57V32.24H1225.13ZM1263.08 80.8C1261.38 80.8 1259.96 80.24 1258.84 79.12C1257.78 77.9467 1257.24 76.5333 1257.24 74.88C1257.24 73.1733 1257.78 71.76 1258.84 70.64C1259.96 69.52 1261.38 68.96 1263.08 68.96C1264.79 68.96 1266.18 69.52 1267.24 70.64C1268.36 71.76 1268.92 73.1733 1268.92 74.88C1268.92 76.5333 1268.36 77.9467 1267.24 79.12C1266.18 80.24 1264.79 80.8 1263.08 80.8ZM1299.05 80.8C1294.84 80.8 1290.97 79.6267 1287.45 77.28C1283.99 74.88 1281.21 71.52 1279.13 67.2C1277.05 62.88 1276.01 57.7867 1276.01 51.92C1276.01 46.0533 1277.03 40.9867 1279.05 36.72C1281.13 32.4 1283.91 29.0667 1287.37 26.72C1290.84 24.3733 1294.68 23.2 1298.89 23.2C1303.16 23.2 1307.03 24.3733 1310.49 26.72C1313.96 29.0667 1316.71 32.4 1318.73 36.72C1320.81 40.9867 1321.85 46.08 1321.85 52C1321.85 57.8667 1320.81 62.96 1318.73 67.28C1316.71 71.6 1313.96 74.9333 1310.49 77.28C1307.08 79.6267 1303.27 80.8 1299.05 80.8ZM1298.89 72.16C1301.67 72.16 1304.07 71.4133 1306.09 69.92C1308.12 68.4267 1309.69 66.1867 1310.81 63.2C1311.99 60.2133 1312.57 56.4533 1312.57 51.92C1312.57 47.44 1311.99 43.7067 1310.81 40.72C1309.69 37.7333 1308.09 35.52 1306.01 34.08C1303.99 32.5867 1301.61 31.84 1298.89 31.84C1296.17 31.84 1293.77 32.5867 1291.69 34.08C1289.67 35.52 1288.09 37.7333 1286.97 40.72C1285.85 43.6533 1285.29 47.3867 1285.29 51.92C1285.29 56.4533 1285.85 60.2133 1286.97 63.2C1288.09 66.1867 1289.67 68.4267 1291.69 69.92C1293.77 71.4133 1296.17 72.16 1298.89 72.16ZM1351.48 80.8C1347.26 80.8 1343.4 79.6267 1339.88 77.28C1336.41 74.88 1333.64 71.52 1331.56 67.2C1329.48 62.88 1328.44 57.7867 1328.44 51.92C1328.44 46.0533 1329.45 40.9867 1331.48 36.72C1333.56 32.4 1336.33 29.0667 1339.8 26.72C1343.26 24.3733 1347.1 23.2 1351.32 23.2C1355.58 23.2 1359.45 24.3733 1362.92 26.72C1366.38 29.0667 1369.13 32.4 1371.16 36.72C1373.24 40.9867 1374.28 46.08 1374.28 52C1374.28 57.8667 1373.24 62.96 1371.16 67.28C1369.13 71.6 1366.38 74.9333 1362.92 77.28C1359.5 79.6267 1355.69 80.8 1351.48 80.8ZM1351.32 72.16C1354.09 72.16 1356.49 71.4133 1358.52 69.92C1360.54 68.4267 1362.12 66.1867 1363.24 63.2C1364.41 60.2133 1365 56.4533 1365 51.92C1365 47.44 1364.41 43.7067 1363.24 40.72C1362.12 37.7333 1360.52 35.52 1358.44 34.08C1356.41 32.5867 1354.04 31.84 1351.32 31.84C1348.6 31.84 1346.2 32.5867 1344.12 34.08C1342.09 35.52 1340.52 37.7333 1339.4 40.72C1338.28 43.6533 1337.72 47.3867 1337.72 51.92C1337.72 56.4533 1338.28 60.2133 1339.4 63.2C1340.52 66.1867 1342.09 68.4267 1344.12 69.92C1346.2 71.4133 1348.6 72.16 1351.32 72.16ZM1403.9 80.8C1399.68 80.8 1395.82 79.6267 1392.3 77.28C1388.83 74.88 1386.06 71.52 1383.98 67.2C1381.9 62.88 1380.86 57.7867 1380.86 51.92C1380.86 46.0533 1381.87 40.9867 1383.9 36.72C1385.98 32.4 1388.75 29.0667 1392.22 26.72C1395.68 24.3733 1399.52 23.2 1403.74 23.2C1408 23.2 1411.87 24.3733 1415.34 26.72C1418.8 29.0667 1421.55 32.4 1423.58 36.72C1425.66 40.9867 1426.7 46.08 1426.7 52C1426.7 57.8667 1425.66 62.96 1423.58 67.28C1421.55 71.6 1418.8 74.9333 1415.34 77.28C1411.92 79.6267 1408.11 80.8 1403.9 80.8ZM1403.74 72.16C1406.51 72.16 1408.91 71.4133 1410.94 69.92C1412.96 68.4267 1414.54 66.1867 1415.66 63.2C1416.83 60.2133 1417.42 56.4533 1417.42 51.92C1417.42 47.44 1416.83 43.7067 1415.66 40.72C1414.54 37.7333 1412.94 35.52 1410.86 34.08C1408.83 32.5867 1406.46 31.84 1403.74 31.84C1401.02 31.84 1398.62 32.5867 1396.54 34.08C1394.51 35.52 1392.94 37.7333 1391.82 40.72C1390.7 43.6533 1390.14 47.3867 1390.14 51.92C1390.14 56.4533 1390.7 60.2133 1391.82 63.2C1392.94 66.1867 1394.51 68.4267 1396.54 69.92C1398.62 71.4133 1401.02 72.16 1403.74 72.16ZM1452.1 80V24H1461.3V80H1452.1ZM1487.7 80V24H1496.9V80H1487.7ZM1458.42 55.2V46.8H1489.7V55.2H1458.42ZM1523.93 80.8C1520.46 80.8 1517.32 79.92 1514.49 78.16C1511.72 76.4 1509.5 74.0267 1507.85 71.04C1506.25 68 1505.45 64.6133 1505.45 60.88C1505.45 57.0933 1506.25 53.7067 1507.85 50.72C1509.5 47.68 1511.72 45.28 1514.49 43.52C1517.32 41.7067 1520.46 40.8 1523.93 40.8C1526.86 40.8 1529.45 41.44 1531.69 42.72C1533.98 43.9467 1535.8 45.6533 1537.13 47.84C1538.46 50.0267 1539.13 52.5067 1539.13 55.28V66.32C1539.13 69.0933 1538.46 71.5733 1537.13 73.76C1535.85 75.9467 1534.06 77.68 1531.77 78.96C1529.48 80.1867 1526.86 80.8 1523.93 80.8ZM1525.37 72.48C1528.62 72.48 1531.24 71.3867 1533.21 69.2C1535.24 67.0133 1536.25 64.2133 1536.25 60.8C1536.25 58.5067 1535.8 56.48 1534.89 54.72C1533.98 52.96 1532.7 51.6 1531.05 50.64C1529.45 49.6267 1527.56 49.12 1525.37 49.12C1523.24 49.12 1521.34 49.6267 1519.69 50.64C1518.09 51.6 1516.81 52.96 1515.85 54.72C1514.94 56.48 1514.49 58.5067 1514.49 60.8C1514.49 63.0933 1514.94 65.12 1515.85 66.88C1516.81 68.64 1518.09 70.0267 1519.69 71.04C1521.34 72 1523.24 72.48 1525.37 72.48ZM1535.69 80V69.68L1537.21 60.32L1535.69 51.04V41.6H1544.49V80H1535.69ZM1574.82 80.8C1571.88 80.8 1569.27 80.1867 1566.98 78.96C1564.68 77.68 1562.87 75.9467 1561.54 73.76C1560.26 71.5733 1559.62 69.0933 1559.62 66.32V55.28C1559.62 52.5067 1560.28 50.0267 1561.62 47.84C1562.95 45.6533 1564.76 43.9467 1567.06 42.72C1569.35 41.44 1571.94 40.8 1574.82 40.8C1578.28 40.8 1581.4 41.7067 1584.18 43.52C1587 45.28 1589.22 47.68 1590.82 50.72C1592.47 53.7067 1593.3 57.0933 1593.3 60.88C1593.3 64.6133 1592.47 68 1590.82 71.04C1589.22 74.0267 1587 76.4 1584.18 78.16C1581.4 79.92 1578.28 80.8 1574.82 80.8ZM1554.26 80V22.4H1563.06V51.04L1561.54 60.32L1563.06 69.68V80H1554.26ZM1573.38 72.48C1575.51 72.48 1577.38 72 1578.98 71.04C1580.63 70.0267 1581.91 68.64 1582.82 66.88C1583.78 65.12 1584.26 63.0933 1584.26 60.8C1584.26 58.5067 1583.78 56.48 1582.82 54.72C1581.91 52.96 1580.63 51.6 1578.98 50.64C1577.38 49.6267 1575.51 49.12 1573.38 49.12C1571.24 49.12 1569.35 49.6267 1567.7 50.64C1566.04 51.6 1564.76 52.96 1563.86 54.72C1562.95 56.48 1562.5 58.5067 1562.5 60.8C1562.5 63.0933 1562.95 65.12 1563.86 66.88C1564.76 68.64 1566.04 70.0267 1567.7 71.04C1569.35 72 1571.24 72.48 1573.38 72.48ZM1600.74 80V41.6H1609.54V80H1600.74ZM1605.14 34.56C1603.65 34.56 1602.39 34.0533 1601.38 33.04C1600.42 32.0267 1599.94 30.7733 1599.94 29.28C1599.94 27.7867 1600.42 26.5333 1601.38 25.52C1602.39 24.5067 1603.65 24 1605.14 24C1606.69 24 1607.94 24.5067 1608.9 25.52C1609.86 26.5333 1610.34 27.7867 1610.34 29.28C1610.34 30.7733 1609.86 32.0267 1608.9 33.04C1607.94 34.0533 1606.69 34.56 1605.14 34.56ZM1625.25 80V25.6H1634.05V80H1625.25ZM1616.05 49.6V41.6H1643.25V49.6H1616.05ZM1664.63 80.8C1661.17 80.8 1658.02 79.92 1655.19 78.16C1652.42 76.4 1650.21 74.0267 1648.55 71.04C1646.95 68 1646.15 64.6133 1646.15 60.88C1646.15 57.0933 1646.95 53.7067 1648.55 50.72C1650.21 47.68 1652.42 45.28 1655.19 43.52C1658.02 41.7067 1661.17 40.8 1664.63 40.8C1667.57 40.8 1670.15 41.44 1672.39 42.72C1674.69 43.9467 1676.5 45.6533 1677.83 47.84C1679.17 50.0267 1679.83 52.5067 1679.83 55.28V66.32C1679.83 69.0933 1679.17 71.5733 1677.83 73.76C1676.55 75.9467 1674.77 77.68 1672.47 78.96C1670.18 80.1867 1667.57 80.8 1664.63 80.8ZM1666.07 72.48C1669.33 72.48 1671.94 71.3867 1673.91 69.2C1675.94 67.0133 1676.95 64.2133 1676.95 60.8C1676.95 58.5067 1676.5 56.48 1675.59 54.72C1674.69 52.96 1673.41 51.6 1671.75 50.64C1670.15 49.6267 1668.26 49.12 1666.07 49.12C1663.94 49.12 1662.05 49.6267 1660.39 50.64C1658.79 51.6 1657.51 52.96 1656.55 54.72C1655.65 56.48 1655.19 58.5067 1655.19 60.8C1655.19 63.0933 1655.65 65.12 1656.55 66.88C1657.51 68.64 1658.79 70.0267 1660.39 71.04C1662.05 72 1663.94 72.48 1666.07 72.48ZM1676.39 80V69.68L1677.91 60.32L1676.39 51.04V41.6H1685.19V80H1676.39ZM1721.28 80V57.84C1721.28 55.28 1720.45 53.1733 1718.8 51.52C1717.2 49.8667 1715.12 49.04 1712.56 49.04C1710.85 49.04 1709.33 49.4133 1708 50.16C1706.66 50.9067 1705.62 51.9467 1704.88 53.28C1704.13 54.6133 1703.76 56.1333 1703.76 57.84L1700.32 55.92C1700.32 52.9867 1700.96 50.4 1702.24 48.16C1703.52 45.8667 1705.28 44.08 1707.52 42.8C1709.81 41.4667 1712.37 40.8 1715.2 40.8C1718.08 40.8 1720.64 41.5467 1722.88 43.04C1725.12 44.48 1726.88 46.3733 1728.16 48.72C1729.44 51.0133 1730.08 53.4133 1730.08 55.92V80H1721.28ZM1694.96 80V41.6H1703.76V80H1694.96ZM1744.39 80V25.6H1753.19V80H1744.39ZM1735.19 49.6V41.6H1762.39V49.6H1735.19ZM1785.53 80.8C1781.69 80.8 1778.23 79.9467 1775.13 78.24C1772.09 76.48 1769.67 74.08 1767.85 71.04C1766.09 68 1765.21 64.5867 1765.21 60.8C1765.21 57.0133 1766.09 53.6267 1767.85 50.64C1769.61 47.6 1771.99 45.2 1774.97 43.44C1778.01 41.68 1781.37 40.8 1785.05 40.8C1788.63 40.8 1791.77 41.6267 1794.49 43.28C1797.27 44.9333 1799.43 47.2 1800.97 50.08C1802.57 52.96 1803.37 56.24 1803.37 59.92C1803.37 60.56 1803.32 61.2267 1803.21 61.92C1803.16 62.56 1803.05 63.28 1802.89 64.08H1771.37V56.88H1798.33L1795.05 59.76C1794.95 57.4133 1794.49 55.44 1793.69 53.84C1792.89 52.24 1791.75 51.0133 1790.25 50.16C1788.81 49.3067 1787.03 48.88 1784.89 48.88C1782.65 48.88 1780.71 49.36 1779.05 50.32C1777.4 51.28 1776.12 52.64 1775.21 54.4C1774.31 56.1067 1773.85 58.16 1773.85 60.56C1773.85 62.96 1774.33 65.0667 1775.29 66.88C1776.25 68.6933 1777.61 70.1067 1779.37 71.12C1781.13 72.08 1783.16 72.56 1785.45 72.56C1787.43 72.56 1789.24 72.2133 1790.89 71.52C1792.6 70.8267 1794.04 69.8133 1795.21 68.48L1800.81 74.16C1798.95 76.3467 1796.68 78 1794.01 79.12C1791.35 80.24 1788.52 80.8 1785.53 80.8ZM1822.99 80.8C1820.85 80.8 1818.8 80.5333 1816.83 80C1814.85 79.4133 1813.04 78.6133 1811.39 77.6C1809.73 76.5333 1808.29 75.2533 1807.07 73.76L1812.67 68.16C1814 69.7067 1815.52 70.88 1817.23 71.68C1818.99 72.4267 1820.96 72.8 1823.15 72.8C1825.12 72.8 1826.61 72.5067 1827.63 71.92C1828.64 71.3333 1829.15 70.48 1829.15 69.36C1829.15 68.1867 1828.67 67.28 1827.71 66.64C1826.75 66 1825.49 65.4667 1823.95 65.04C1822.45 64.56 1820.85 64.08 1819.15 63.6C1817.49 63.12 1815.89 62.48 1814.35 61.68C1812.85 60.8267 1811.63 59.68 1810.67 58.24C1809.71 56.8 1809.23 54.9333 1809.23 52.64C1809.23 50.1867 1809.79 48.08 1810.91 46.32C1812.08 44.56 1813.71 43.2 1815.79 42.24C1817.92 41.28 1820.45 40.8 1823.39 40.8C1826.48 40.8 1829.2 41.36 1831.55 42.48C1833.95 43.5467 1835.95 45.1733 1837.55 47.36L1831.95 52.96C1830.83 51.5733 1829.55 50.5333 1828.11 49.84C1826.67 49.1467 1825.01 48.8 1823.15 48.8C1821.39 48.8 1820.03 49.0667 1819.07 49.6C1818.11 50.1333 1817.63 50.9067 1817.63 51.92C1817.63 52.9867 1818.11 53.8133 1819.07 54.4C1820.03 54.9867 1821.25 55.4933 1822.75 55.92C1824.29 56.3467 1825.89 56.8267 1827.55 57.36C1829.25 57.84 1830.85 58.5333 1832.35 59.44C1833.89 60.2933 1835.15 61.4667 1836.11 62.96C1837.07 64.4 1837.55 66.2933 1837.55 68.64C1837.55 72.3733 1836.24 75.3333 1833.63 77.52C1831.01 79.7067 1827.47 80.8 1822.99 80.8ZM1881.38 80.8C1878.44 80.8 1875.83 80.1867 1873.54 78.96C1871.24 77.68 1869.43 75.9467 1868.1 73.76C1866.82 71.5733 1866.18 69.0933 1866.18 66.32V55.28C1866.18 52.5067 1866.84 50.0267 1868.18 47.84C1869.51 45.6533 1871.32 43.9467 1873.62 42.72C1875.91 41.44 1878.5 40.8 1881.38 40.8C1884.84 40.8 1887.96 41.7067 1890.74 43.52C1893.56 45.28 1895.78 47.68 1897.38 50.72C1899.03 53.7067 1899.86 57.0933 1899.86 60.88C1899.86 64.6133 1899.03 68 1897.38 71.04C1895.78 74.0267 1893.56 76.4 1890.74 78.16C1887.96 79.92 1884.84 80.8 1881.38 80.8ZM1860.82 96V41.6H1869.62V51.92L1868.1 61.28L1869.62 70.56V96H1860.82ZM1879.94 72.48C1882.07 72.48 1883.94 72 1885.54 71.04C1887.19 70.0267 1888.47 68.64 1889.38 66.88C1890.34 65.12 1890.82 63.0933 1890.82 60.8C1890.82 58.5067 1890.34 56.48 1889.38 54.72C1888.47 52.96 1887.19 51.6 1885.54 50.64C1883.94 49.6267 1882.07 49.12 1879.94 49.12C1877.8 49.12 1875.91 49.6267 1874.26 50.64C1872.6 51.6 1871.32 52.96 1870.42 54.72C1869.51 56.48 1869.06 58.5067 1869.06 60.8C1869.06 63.0933 1869.51 65.12 1870.42 66.88C1871.32 68.64 1872.6 70.0267 1874.26 71.04C1875.91 72 1877.8 72.48 1879.94 72.48ZM1924.82 80.8C1921.09 80.8 1917.7 79.92 1914.66 78.16C1911.62 76.3467 1909.2 73.92 1907.38 70.88C1905.62 67.84 1904.74 64.4533 1904.74 60.72C1904.74 56.9867 1905.62 53.6267 1907.38 50.64C1909.2 47.6533 1911.62 45.28 1914.66 43.52C1917.7 41.7067 1921.09 40.8 1924.82 40.8C1928.61 40.8 1932.02 41.68 1935.06 43.44C1938.1 45.2 1940.5 47.6 1942.26 50.64C1944.08 53.6267 1944.98 56.9867 1944.98 60.72C1944.98 64.4533 1944.08 67.84 1942.26 70.88C1940.5 73.92 1938.1 76.3467 1935.06 78.16C1932.02 79.92 1928.61 80.8 1924.82 80.8ZM1924.82 72.32C1927.01 72.32 1928.93 71.84 1930.58 70.88C1932.29 69.8667 1933.6 68.48 1934.5 66.72C1935.46 64.96 1935.94 62.96 1935.94 60.72C1935.94 58.48 1935.46 56.5067 1934.5 54.8C1933.54 53.0933 1932.24 51.76 1930.58 50.8C1928.93 49.7867 1927.01 49.28 1924.82 49.28C1922.69 49.28 1920.77 49.7867 1919.06 50.8C1917.41 51.76 1916.1 53.0933 1915.14 54.8C1914.24 56.5067 1913.78 58.48 1913.78 60.72C1913.78 62.96 1914.24 64.96 1915.14 66.72C1916.1 68.48 1917.41 69.8667 1919.06 70.88C1920.77 71.84 1922.69 72.32 1924.82 72.32ZM1952.3 80V41.6H1961.1V80H1952.3ZM1961.1 58.64L1958.06 57.12C1958.06 52.2667 1959.13 48.3467 1961.26 45.36C1963.45 42.32 1966.73 40.8 1971.1 40.8C1973.02 40.8 1974.76 41.1467 1976.3 41.84C1977.85 42.5333 1979.29 43.6533 1980.62 45.2L1974.86 51.12C1974.17 50.3733 1973.4 49.84 1972.54 49.52C1971.69 49.2 1970.7 49.04 1969.58 49.04C1967.13 49.04 1965.1 49.8133 1963.5 51.36C1961.9 52.9067 1961.1 55.3333 1961.1 58.64ZM2009.82 56.24V48.64H2023.98C2026.81 48.64 2029 47.92 2030.54 46.48C2032.14 44.9867 2032.94 42.9333 2032.94 40.32C2032.94 37.9733 2032.17 36 2030.62 34.4C2029.08 32.8 2026.89 32 2024.06 32H2009.82V24H2024.46C2027.98 24 2031.08 24.72 2033.74 26.16C2036.41 27.5467 2038.46 29.4667 2039.9 31.92C2041.4 34.32 2042.14 37.0667 2042.14 40.16C2042.14 43.4133 2041.4 46.24 2039.9 48.64C2038.46 51.04 2036.41 52.9067 2033.74 54.24C2031.08 55.5733 2027.98 56.24 2024.46 56.24H2009.82ZM2003.5 80V24H2012.7V80H2003.5ZM2034.22 80L2014.62 55.68L2023.18 52.56L2045.82 80H2034.22ZM2068.11 80.8C2064.27 80.8 2060.8 79.9467 2057.71 78.24C2054.67 76.48 2052.24 74.08 2050.43 71.04C2048.67 68 2047.79 64.5867 2047.79 60.8C2047.79 57.0133 2048.67 53.6267 2050.43 50.64C2052.19 47.6 2054.56 45.2 2057.55 43.44C2060.59 41.68 2063.95 40.8 2067.63 40.8C2071.2 40.8 2074.35 41.6267 2077.07 43.28C2079.84 44.9333 2082 47.2 2083.55 50.08C2085.15 52.96 2085.95 56.24 2085.95 59.92C2085.95 60.56 2085.9 61.2267 2085.79 61.92C2085.74 62.56 2085.63 63.28 2085.47 64.08H2053.95V56.88H2080.91L2077.63 59.76C2077.52 57.4133 2077.07 55.44 2076.27 53.84C2075.47 52.24 2074.32 51.0133 2072.83 50.16C2071.39 49.3067 2069.6 48.88 2067.47 48.88C2065.23 48.88 2063.28 49.36 2061.63 50.32C2059.98 51.28 2058.7 52.64 2057.79 54.4C2056.88 56.1067 2056.43 58.16 2056.43 60.56C2056.43 62.96 2056.91 65.0667 2057.87 66.88C2058.83 68.6933 2060.19 70.1067 2061.95 71.12C2063.71 72.08 2065.74 72.56 2068.03 72.56C2070 72.56 2071.82 72.2133 2073.47 71.52C2075.18 70.8267 2076.62 69.8133 2077.79 68.48L2083.39 74.16C2081.52 76.3467 2079.26 78 2076.59 79.12C2073.92 80.24 2071.1 80.8 2068.11 80.8ZM2109.09 80.8C2105.62 80.8 2102.47 79.92 2099.65 78.16C2096.87 76.4 2094.66 74.0267 2093.01 71.04C2091.41 68 2090.61 64.6133 2090.61 60.88C2090.61 57.0933 2091.41 53.7067 2093.01 50.72C2094.66 47.68 2096.87 45.28 2099.65 43.52C2102.47 41.7067 2105.62 40.8 2109.09 40.8C2112.02 40.8 2114.61 41.44 2116.85 42.72C2119.14 43.9467 2120.95 45.6533 2122.29 47.84C2123.62 50.0267 2124.29 52.5067 2124.29 55.28V66.32C2124.29 69.0933 2123.62 71.5733 2122.29 73.76C2121.01 75.9467 2119.22 77.68 2116.93 78.96C2114.63 80.1867 2112.02 80.8 2109.09 80.8ZM2110.53 72.48C2112.71 72.48 2114.61 72 2116.21 71.04C2117.86 70.0267 2119.14 68.64 2120.05 66.88C2120.95 65.12 2121.41 63.0933 2121.41 60.8C2121.41 58.5067 2120.95 56.48 2120.05 54.72C2119.14 52.96 2117.86 51.6 2116.21 50.64C2114.61 49.6267 2112.71 49.12 2110.53 49.12C2108.39 49.12 2106.5 49.6267 2104.85 50.64C2103.25 51.6 2101.97 52.96 2101.01 54.72C2100.1 56.48 2099.65 58.5067 2099.65 60.8C2099.65 63.0933 2100.1 65.12 2101.01 66.88C2101.97 68.64 2103.25 70.0267 2104.85 71.04C2106.5 72 2108.39 72.48 2110.53 72.48ZM2129.65 80H2120.85V69.68L2122.37 60.32L2120.85 51.04V22.4H2129.65V80ZM2157.25 80.8C2153.41 80.8 2149.94 79.9467 2146.85 78.24C2143.81 76.48 2141.38 74.08 2139.57 71.04C2137.81 68 2136.93 64.5867 2136.93 60.8C2136.93 57.0133 2137.81 53.6267 2139.57 50.64C2141.33 47.6 2143.7 45.2 2146.69 43.44C2149.73 41.68 2153.09 40.8 2156.77 40.8C2160.34 40.8 2163.49 41.6267 2166.21 43.28C2168.98 44.9333 2171.14 47.2 2172.69 50.08C2174.29 52.96 2175.09 56.24 2175.09 59.92C2175.09 60.56 2175.04 61.2267 2174.93 61.92C2174.88 62.56 2174.77 63.28 2174.61 64.08H2143.09V56.88H2170.05L2166.77 59.76C2166.66 57.4133 2166.21 55.44 2165.41 53.84C2164.61 52.24 2163.46 51.0133 2161.97 50.16C2160.53 49.3067 2158.74 48.88 2156.61 48.88C2154.37 48.88 2152.42 49.36 2150.77 50.32C2149.12 51.28 2147.84 52.64 2146.93 54.4C2146.02 56.1067 2145.57 58.16 2145.57 60.56C2145.57 62.96 2146.05 65.0667 2147.01 66.88C2147.97 68.6933 2149.33 70.1067 2151.09 71.12C2152.85 72.08 2154.88 72.56 2157.17 72.56C2159.14 72.56 2160.96 72.2133 2162.61 71.52C2164.32 70.8267 2165.76 69.8133 2166.93 68.48L2172.53 74.16C2170.66 76.3467 2168.4 78 2165.73 79.12C2163.06 80.24 2160.24 80.8 2157.25 80.8Z" fill="#39762A"/>
</svg>
