<svg width="2067" height="131" viewBox="0 0 2067 131" fill="none" xmlns="http://www.w3.org/2000/svg">
<path d="M6.08 80V24H12.48L15.28 34.56V80H6.08ZM44.88 80L11.36 36.24L12.48 24L46 67.76L44.88 80ZM44.88 80L42.08 70.16V24H51.28V80H44.88ZM77.9838 80.8C74.7304 80.8 71.8238 80.08 69.2638 78.64C66.7571 77.2 64.7838 75.2267 63.3438 72.72C61.9571 70.16 61.2638 67.2267 61.2638 63.92V41.6H70.0638V63.52C70.0638 65.3867 70.3571 66.9867 70.9438 68.32C71.5838 69.6 72.4904 70.5867 73.6638 71.28C74.8904 71.9733 76.3304 72.32 77.9838 72.32C80.5438 72.32 82.4904 71.5733 83.8238 70.08C85.2104 68.5333 85.9038 66.3467 85.9038 63.52V41.6H94.7038V63.92C94.7038 67.28 93.9838 70.24 92.5438 72.8C91.1571 75.3067 89.2104 77.28 86.7038 78.72C84.1971 80.1067 81.2904 80.8 77.9838 80.8ZM73.5038 36.08L69.5038 32.08L79.7438 19.04L86.5438 25.84L73.5038 36.08ZM103.552 80V41.6H112.352V80H103.552ZM129.072 80V57.12C129.072 54.56 128.272 52.5867 126.672 51.2C125.072 49.76 123.099 49.04 120.752 49.04C119.152 49.04 117.712 49.36 116.432 50C115.205 50.64 114.219 51.5733 113.472 52.8C112.725 53.9733 112.352 55.4133 112.352 57.12L108.912 55.2C108.912 52.2667 109.552 49.7333 110.832 47.6C112.112 45.4667 113.845 43.8133 116.032 42.64C118.219 41.4133 120.672 40.8 123.392 40.8C126.112 40.8 128.565 41.3867 130.752 42.56C132.939 43.7333 134.672 45.3867 135.952 47.52C137.232 49.6533 137.872 52.2133 137.872 55.2V80H129.072ZM154.592 80V57.12C154.592 54.56 153.792 52.5867 152.192 51.2C150.592 49.76 148.619 49.04 146.272 49.04C144.725 49.04 143.312 49.36 142.032 50C140.752 50.64 139.739 51.5733 138.992 52.8C138.245 53.9733 137.872 55.4133 137.872 57.12L132.912 55.2C133.179 52.2667 134.032 49.7333 135.472 47.6C136.912 45.4667 138.752 43.8133 140.992 42.64C143.285 41.4133 145.792 40.8 148.512 40.8C151.285 40.8 153.792 41.3867 156.032 42.56C158.272 43.7333 160.059 45.3867 161.392 47.52C162.725 49.6533 163.392 52.2133 163.392 55.2V80H154.592ZM190.298 80.8C186.458 80.8 182.991 79.9467 179.898 78.24C176.858 76.48 174.431 74.08 172.618 71.04C170.858 68 169.978 64.5867 169.978 60.8C169.978 57.0133 170.858 53.6267 172.618 50.64C174.378 47.6 176.751 45.2 179.738 43.44C182.778 41.68 186.138 40.8 189.818 40.8C193.391 40.8 196.538 41.6267 199.258 43.28C202.031 44.9333 204.191 47.2 205.738 50.08C207.338 52.96 208.138 56.24 208.138 59.92C208.138 60.56 208.085 61.2267 207.978 61.92C207.925 62.56 207.818 63.28 207.658 64.08H176.138V56.88H203.098L199.818 59.76C199.711 57.4133 199.258 55.44 198.458 53.84C197.658 52.24 196.511 51.0133 195.018 50.16C193.578 49.3067 191.791 48.88 189.658 48.88C187.418 48.88 185.471 49.36 183.818 50.32C182.165 51.28 180.885 52.64 179.978 54.4C179.071 56.1067 178.618 58.16 178.618 60.56C178.618 62.96 179.098 65.0667 180.058 66.88C181.018 68.6933 182.378 70.1067 184.138 71.12C185.898 72.08 187.925 72.56 190.218 72.56C192.191 72.56 194.005 72.2133 195.658 71.52C197.365 70.8267 198.805 69.8133 199.978 68.48L205.578 74.16C203.711 76.3467 201.445 78 198.778 79.12C196.111 80.24 193.285 80.8 190.298 80.8ZM215.193 80V41.6H223.993V80H215.193ZM223.993 58.64L220.953 57.12C220.953 52.2667 222.019 48.3467 224.153 45.36C226.339 42.32 229.619 40.8 233.993 40.8C235.913 40.8 237.646 41.1467 239.193 41.84C240.739 42.5333 242.179 43.6533 243.513 45.2L237.753 51.12C237.059 50.3733 236.286 49.84 235.433 49.52C234.579 49.2 233.593 49.04 232.473 49.04C230.019 49.04 227.993 49.8133 226.393 51.36C224.793 52.9067 223.993 55.3333 223.993 58.64ZM264.199 80.8C260.465 80.8 257.079 79.92 254.039 78.16C250.999 76.3467 248.572 73.92 246.759 70.88C244.999 67.84 244.119 64.4533 244.119 60.72C244.119 56.9867 244.999 53.6267 246.759 50.64C248.572 47.6533 250.999 45.28 254.039 43.52C257.079 41.7067 260.465 40.8 264.199 40.8C267.985 40.8 271.399 41.68 274.439 43.44C277.479 45.2 279.879 47.6 281.639 50.64C283.452 53.6267 284.359 56.9867 284.359 60.72C284.359 64.4533 283.452 67.84 281.639 70.88C279.879 73.92 277.479 76.3467 274.439 78.16C271.399 79.92 267.985 80.8 264.199 80.8ZM264.199 72.32C266.385 72.32 268.305 71.84 269.959 70.88C271.665 69.8667 272.972 68.48 273.879 66.72C274.839 64.96 275.319 62.96 275.319 60.72C275.319 58.48 274.839 56.5067 273.879 54.8C272.919 53.0933 271.612 51.76 269.959 50.8C268.305 49.7867 266.385 49.28 264.199 49.28C262.065 49.28 260.145 49.7867 258.439 50.8C256.785 51.76 255.479 53.0933 254.519 54.8C253.612 56.5067 253.159 58.48 253.159 60.72C253.159 62.96 253.612 64.96 254.519 66.72C255.479 68.48 256.785 69.8667 258.439 70.88C260.145 71.84 262.065 72.32 264.199 72.32ZM323.773 80.8C320.306 80.8 317.159 79.92 314.333 78.16C311.559 76.4 309.346 74.0267 307.693 71.04C306.093 68 305.293 64.6133 305.293 60.88C305.293 57.0933 306.093 53.7067 307.693 50.72C309.346 47.68 311.559 45.28 314.333 43.52C317.159 41.7067 320.306 40.8 323.773 40.8C326.706 40.8 329.293 41.44 331.533 42.72C333.826 43.9467 335.639 45.6533 336.973 47.84C338.306 50.0267 338.973 52.5067 338.973 55.28V66.32C338.973 69.0933 338.306 71.5733 336.973 73.76C335.693 75.9467 333.906 77.68 331.613 78.96C329.319 80.1867 326.706 80.8 323.773 80.8ZM325.213 72.48C327.399 72.48 329.293 72 330.893 71.04C332.546 70.0267 333.826 68.64 334.733 66.88C335.639 65.12 336.093 63.0933 336.093 60.8C336.093 58.5067 335.639 56.48 334.733 54.72C333.826 52.96 332.546 51.6 330.893 50.64C329.293 49.6267 327.399 49.12 325.213 49.12C323.079 49.12 321.186 49.6267 319.533 50.64C317.933 51.6 316.653 52.96 315.693 54.72C314.786 56.48 314.333 58.5067 314.333 60.8C314.333 63.0933 314.786 65.12 315.693 66.88C316.653 68.64 317.933 70.0267 319.533 71.04C321.186 72 323.079 72.48 325.213 72.48ZM344.333 80H335.533V69.68L337.053 60.32L335.533 51.04V22.4H344.333V80ZM371.939 80.8C368.099 80.8 364.632 79.9467 361.539 78.24C358.499 76.48 356.072 74.08 354.259 71.04C352.499 68 351.619 64.5867 351.619 60.8C351.619 57.0133 352.499 53.6267 354.259 50.64C356.019 47.6 358.392 45.2 361.379 43.44C364.419 41.68 367.779 40.8 371.459 40.8C375.032 40.8 378.179 41.6267 380.899 43.28C383.672 44.9333 385.832 47.2 387.379 50.08C388.979 52.96 389.779 56.24 389.779 59.92C389.779 60.56 389.725 61.2267 389.619 61.92C389.565 62.56 389.459 63.28 389.299 64.08H357.779V56.88H384.739L381.459 59.76C381.352 57.4133 380.899 55.44 380.099 53.84C379.299 52.24 378.152 51.0133 376.659 50.16C375.219 49.3067 373.432 48.88 371.299 48.88C369.059 48.88 367.112 49.36 365.459 50.32C363.805 51.28 362.525 52.64 361.619 54.4C360.712 56.1067 360.259 58.16 360.259 60.56C360.259 62.96 360.739 65.0667 361.699 66.88C362.659 68.6933 364.019 70.1067 365.779 71.12C367.539 72.08 369.565 72.56 371.859 72.56C373.832 72.56 375.645 72.2133 377.299 71.52C379.005 70.8267 380.445 69.8133 381.619 68.48L387.219 74.16C385.352 76.3467 383.085 78 380.419 79.12C377.752 80.24 374.925 80.8 371.939 80.8ZM420.369 58.88V50.88H434.369C436.289 50.88 437.969 50.5067 439.409 49.76C440.902 48.96 442.075 47.8667 442.929 46.48C443.782 45.04 444.209 43.36 444.209 41.44C444.209 39.52 443.782 37.8667 442.929 36.48C442.075 35.04 440.902 33.9467 439.409 33.2C437.969 32.4 436.289 32 434.369 32H420.369V24H434.849C438.369 24 441.515 24.72 444.289 26.16C447.115 27.6 449.329 29.6267 450.929 32.24C452.582 34.8533 453.409 37.92 453.409 41.44C453.409 44.96 452.582 48.0267 450.929 50.64C449.329 53.2533 447.115 55.28 444.289 56.72C441.515 58.16 438.369 58.88 434.849 58.88H420.369ZM414.049 80V24H423.249V80H414.049ZM461.13 80V41.6H469.93V80H461.13ZM469.93 58.64L466.89 57.12C466.89 52.2667 467.957 48.3467 470.09 45.36C472.277 42.32 475.557 40.8 479.93 40.8C481.85 40.8 483.583 41.1467 485.13 41.84C486.677 42.5333 488.117 43.6533 489.45 45.2L483.69 51.12C482.997 50.3733 482.223 49.84 481.37 49.52C480.517 49.2 479.53 49.04 478.41 49.04C475.957 49.04 473.93 49.8133 472.33 51.36C470.73 52.9067 469.93 55.3333 469.93 58.64ZM510.136 80.8C506.403 80.8 503.016 79.92 499.976 78.16C496.936 76.3467 494.51 73.92 492.696 70.88C490.936 67.84 490.056 64.4533 490.056 60.72C490.056 56.9867 490.936 53.6267 492.696 50.64C494.51 47.6533 496.936 45.28 499.976 43.52C503.016 41.7067 506.403 40.8 510.136 40.8C513.923 40.8 517.336 41.68 520.376 43.44C523.416 45.2 525.816 47.6 527.576 50.64C529.39 53.6267 530.296 56.9867 530.296 60.72C530.296 64.4533 529.39 67.84 527.576 70.88C525.816 73.92 523.416 76.3467 520.376 78.16C517.336 79.92 513.923 80.8 510.136 80.8ZM510.136 72.32C512.323 72.32 514.243 71.84 515.896 70.88C517.603 69.8667 518.91 68.48 519.816 66.72C520.776 64.96 521.256 62.96 521.256 60.72C521.256 58.48 520.776 56.5067 519.816 54.8C518.856 53.0933 517.55 51.76 515.896 50.8C514.243 49.7867 512.323 49.28 510.136 49.28C508.003 49.28 506.083 49.7867 504.376 50.8C502.723 51.76 501.416 53.0933 500.456 54.8C499.55 56.5067 499.096 58.48 499.096 60.72C499.096 62.96 499.55 64.96 500.456 66.72C501.416 68.48 502.723 69.8667 504.376 70.88C506.083 71.84 508.003 72.32 510.136 72.32ZM541.801 80V34.96C541.801 32.4 542.361 30.1333 543.481 28.16C544.654 26.1333 546.254 24.5333 548.281 23.36C550.307 22.1867 552.681 21.6 555.401 21.6C557.427 21.6 559.187 21.9467 560.681 22.64C562.227 23.28 563.667 24.2133 565.001 25.44L559.241 31.2C558.707 30.7733 558.121 30.4533 557.481 30.24C556.894 29.9733 556.201 29.84 555.401 29.84C553.854 29.84 552.654 30.2933 551.801 31.2C551.001 32.1067 550.601 33.3333 550.601 34.88V80H541.801ZM532.601 49.6V41.6H570.041V49.6H532.601ZM565.001 80V41.6H573.801V80H565.001ZM569.401 38.24C567.907 38.24 566.654 37.7333 565.641 36.72C564.681 35.7067 564.201 34.4533 564.201 32.96C564.201 31.4667 564.681 30.2133 565.641 29.2C566.654 28.1867 567.907 27.68 569.401 27.68C570.947 27.68 572.201 28.1867 573.161 29.2C574.121 30.2133 574.601 31.4667 574.601 32.96C574.601 34.4533 574.121 35.7067 573.161 36.72C572.201 37.7333 570.947 38.24 569.401 38.24ZM596.19 80.8C594.057 80.8 592.003 80.5333 590.03 80C588.057 79.4133 586.243 78.6133 584.59 77.6C582.937 76.5333 581.497 75.2533 580.27 73.76L585.87 68.16C587.203 69.7067 588.723 70.88 590.43 71.68C592.19 72.4267 594.163 72.8 596.35 72.8C598.323 72.8 599.817 72.5067 600.83 71.92C601.843 71.3333 602.35 70.48 602.35 69.36C602.35 68.1867 601.87 67.28 600.91 66.64C599.95 66 598.697 65.4667 597.15 65.04C595.657 64.56 594.057 64.08 592.35 63.6C590.697 63.12 589.097 62.48 587.55 61.68C586.057 60.8267 584.83 59.68 583.87 58.24C582.91 56.8 582.43 54.9333 582.43 52.64C582.43 50.1867 582.99 48.08 584.11 46.32C585.283 44.56 586.91 43.2 588.99 42.24C591.123 41.28 593.657 40.8 596.59 40.8C599.683 40.8 602.403 41.36 604.75 42.48C607.15 43.5467 609.15 45.1733 610.75 47.36L605.15 52.96C604.03 51.5733 602.75 50.5333 601.31 49.84C599.87 49.1467 598.217 48.8 596.35 48.8C594.59 48.8 593.23 49.0667 592.27 49.6C591.31 50.1333 590.83 50.9067 590.83 51.92C590.83 52.9867 591.31 53.8133 592.27 54.4C593.23 54.9867 594.457 55.4933 595.95 55.92C597.497 56.3467 599.097 56.8267 600.75 57.36C602.457 57.84 604.057 58.5333 605.55 59.44C607.097 60.2933 608.35 61.4667 609.31 62.96C610.27 64.4 610.75 66.2933 610.75 68.64C610.75 72.3733 609.443 75.3333 606.83 77.52C604.217 79.7067 600.67 80.8 596.19 80.8ZM630.565 80.8C628.432 80.8 626.378 80.5333 624.405 80C622.432 79.4133 620.618 78.6133 618.965 77.6C617.312 76.5333 615.872 75.2533 614.645 73.76L620.245 68.16C621.578 69.7067 623.098 70.88 624.805 71.68C626.565 72.4267 628.538 72.8 630.725 72.8C632.698 72.8 634.192 72.5067 635.205 71.92C636.218 71.3333 636.725 70.48 636.725 69.36C636.725 68.1867 636.245 67.28 635.285 66.64C634.325 66 633.072 65.4667 631.525 65.04C630.032 64.56 628.432 64.08 626.725 63.6C625.072 63.12 623.472 62.48 621.925 61.68C620.432 60.8267 619.205 59.68 618.245 58.24C617.285 56.8 616.805 54.9333 616.805 52.64C616.805 50.1867 617.365 48.08 618.485 46.32C619.658 44.56 621.285 43.2 623.365 42.24C625.498 41.28 628.032 40.8 630.965 40.8C634.058 40.8 636.778 41.36 639.125 42.48C641.525 43.5467 643.525 45.1733 645.125 47.36L639.525 52.96C638.405 51.5733 637.125 50.5333 635.685 49.84C634.245 49.1467 632.592 48.8 630.725 48.8C628.965 48.8 627.605 49.0667 626.645 49.6C625.685 50.1333 625.205 50.9067 625.205 51.92C625.205 52.9867 625.685 53.8133 626.645 54.4C627.605 54.9867 628.832 55.4933 630.325 55.92C631.872 56.3467 633.472 56.8267 635.125 57.36C636.832 57.84 638.432 58.5333 639.925 59.44C641.472 60.2933 642.725 61.4667 643.685 62.96C644.645 64.4 645.125 66.2933 645.125 68.64C645.125 72.3733 643.818 75.3333 641.205 77.52C638.592 79.7067 635.045 80.8 630.565 80.8ZM652.46 80V41.6H661.26V80H652.46ZM656.86 34.56C655.367 34.56 654.113 34.0533 653.1 33.04C652.14 32.0267 651.66 30.7733 651.66 29.28C651.66 27.7867 652.14 26.5333 653.1 25.52C654.113 24.5067 655.367 24 656.86 24C658.407 24 659.66 24.5067 660.62 25.52C661.58 26.5333 662.06 27.7867 662.06 29.28C662.06 30.7733 661.58 32.0267 660.62 33.04C659.66 34.0533 658.407 34.56 656.86 34.56ZM688.73 80.8C684.997 80.8 681.61 79.92 678.57 78.16C675.53 76.3467 673.103 73.92 671.29 70.88C669.53 67.84 668.65 64.4533 668.65 60.72C668.65 56.9867 669.53 53.6267 671.29 50.64C673.103 47.6533 675.53 45.28 678.57 43.52C681.61 41.7067 684.997 40.8 688.73 40.8C692.517 40.8 695.93 41.68 698.97 43.44C702.01 45.2 704.41 47.6 706.17 50.64C707.983 53.6267 708.89 56.9867 708.89 60.72C708.89 64.4533 707.983 67.84 706.17 70.88C704.41 73.92 702.01 76.3467 698.97 78.16C695.93 79.92 692.517 80.8 688.73 80.8ZM688.73 72.32C690.917 72.32 692.837 71.84 694.49 70.88C696.197 69.8667 697.503 68.48 698.41 66.72C699.37 64.96 699.85 62.96 699.85 60.72C699.85 58.48 699.37 56.5067 698.41 54.8C697.45 53.0933 696.143 51.76 694.49 50.8C692.837 49.7867 690.917 49.28 688.73 49.28C686.597 49.28 684.677 49.7867 682.97 50.8C681.317 51.76 680.01 53.0933 679.05 54.8C678.143 56.5067 677.69 58.48 677.69 60.72C677.69 62.96 678.143 64.96 679.05 66.72C680.01 68.48 681.317 69.8667 682.97 70.88C684.677 71.84 686.597 72.32 688.73 72.32ZM742.528 80V57.84C742.528 55.28 741.701 53.1733 740.048 51.52C738.448 49.8667 736.368 49.04 733.808 49.04C732.101 49.04 730.581 49.4133 729.248 50.16C727.915 50.9067 726.875 51.9467 726.128 53.28C725.381 54.6133 725.008 56.1333 725.008 57.84L721.568 55.92C721.568 52.9867 722.208 50.4 723.488 48.16C724.768 45.8667 726.528 44.08 728.768 42.8C731.061 41.4667 733.621 40.8 736.448 40.8C739.328 40.8 741.888 41.5467 744.128 43.04C746.368 44.48 748.128 46.3733 749.408 48.72C750.688 51.0133 751.328 53.4133 751.328 55.92V80H742.528ZM716.208 80V41.6H725.008V80H716.208ZM776.351 80.8C772.884 80.8 769.737 79.92 766.911 78.16C764.137 76.4 761.924 74.0267 760.271 71.04C758.671 68 757.871 64.6133 757.871 60.88C757.871 57.0933 758.671 53.7067 760.271 50.72C761.924 47.68 764.137 45.28 766.911 43.52C769.737 41.7067 772.884 40.8 776.351 40.8C779.284 40.8 781.871 41.44 784.111 42.72C786.404 43.9467 788.217 45.6533 789.551 47.84C790.884 50.0267 791.551 52.5067 791.551 55.28V66.32C791.551 69.0933 790.884 71.5733 789.551 73.76C788.271 75.9467 786.484 77.68 784.191 78.96C781.897 80.1867 779.284 80.8 776.351 80.8ZM777.791 72.48C781.044 72.48 783.657 71.3867 785.631 69.2C787.657 67.0133 788.671 64.2133 788.671 60.8C788.671 58.5067 788.217 56.48 787.311 54.72C786.404 52.96 785.124 51.6 783.471 50.64C781.871 49.6267 779.977 49.12 777.791 49.12C775.657 49.12 773.764 49.6267 772.111 50.64C770.511 51.6 769.231 52.96 768.271 54.72C767.364 56.48 766.911 58.5067 766.911 60.8C766.911 63.0933 767.364 65.12 768.271 66.88C769.231 68.64 770.511 70.0267 772.111 71.04C773.764 72 775.657 72.48 777.791 72.48ZM788.111 80V69.68L789.631 60.32L788.111 51.04V41.6H796.911V80H788.111ZM806.757 80V41.6H815.557V80H806.757ZM811.157 34.56C809.664 34.56 808.41 34.0533 807.397 33.04C806.437 32.0267 805.957 30.7733 805.957 29.28C805.957 27.7867 806.437 26.5333 807.397 25.52C808.41 24.5067 809.664 24 811.157 24C812.704 24 813.957 24.5067 814.917 25.52C815.877 26.5333 816.357 27.7867 816.357 29.28C816.357 30.7733 815.877 32.0267 814.917 33.04C813.957 34.0533 812.704 34.56 811.157 34.56ZM837.987 80.8C835.854 80.8 833.8 80.5333 831.827 80C829.854 79.4133 828.04 78.6133 826.387 77.6C824.734 76.5333 823.294 75.2533 822.067 73.76L827.667 68.16C829 69.7067 830.52 70.88 832.227 71.68C833.987 72.4267 835.96 72.8 838.147 72.8C840.12 72.8 841.614 72.5067 842.627 71.92C843.64 71.3333 844.147 70.48 844.147 69.36C844.147 68.1867 843.667 67.28 842.707 66.64C841.747 66 840.494 65.4667 838.947 65.04C837.454 64.56 835.854 64.08 834.147 63.6C832.494 63.12 830.894 62.48 829.347 61.68C827.854 60.8267 826.627 59.68 825.667 58.24C824.707 56.8 824.227 54.9333 824.227 52.64C824.227 50.1867 824.787 48.08 825.907 46.32C827.08 44.56 828.707 43.2 830.787 42.24C832.92 41.28 835.454 40.8 838.387 40.8C841.48 40.8 844.2 41.36 846.547 42.48C848.947 43.5467 850.947 45.1733 852.547 47.36L846.947 52.96C845.827 51.5733 844.547 50.5333 843.107 49.84C841.667 49.1467 840.014 48.8 838.147 48.8C836.387 48.8 835.027 49.0667 834.067 49.6C833.107 50.1333 832.627 50.9067 832.627 51.92C832.627 52.9867 833.107 53.8133 834.067 54.4C835.027 54.9867 836.254 55.4933 837.747 55.92C839.294 56.3467 840.894 56.8267 842.547 57.36C844.254 57.84 845.854 58.5333 847.347 59.44C848.894 60.2933 850.147 61.4667 851.107 62.96C852.067 64.4 852.547 66.2933 852.547 68.64C852.547 72.3733 851.24 75.3333 848.627 77.52C846.014 79.7067 842.467 80.8 837.987 80.8ZM891.898 80.8C888.431 80.8 885.284 79.92 882.458 78.16C879.684 76.4 877.471 74.0267 875.818 71.04C874.218 68 873.418 64.6133 873.418 60.88C873.418 57.0933 874.218 53.7067 875.818 50.72C877.471 47.68 879.684 45.28 882.458 43.52C885.284 41.7067 888.431 40.8 891.898 40.8C894.831 40.8 897.418 41.44 899.658 42.72C901.951 43.9467 903.764 45.6533 905.098 47.84C906.431 50.0267 907.098 52.5067 907.098 55.28V66.32C907.098 69.0933 906.431 71.5733 905.098 73.76C903.818 75.9467 902.031 77.68 899.738 78.96C897.444 80.1867 894.831 80.8 891.898 80.8ZM893.338 72.48C895.524 72.48 897.418 72 899.018 71.04C900.671 70.0267 901.951 68.64 902.858 66.88C903.764 65.12 904.218 63.0933 904.218 60.8C904.218 58.5067 903.764 56.48 902.858 54.72C901.951 52.96 900.671 51.6 899.018 50.64C897.418 49.6267 895.524 49.12 893.338 49.12C891.204 49.12 889.311 49.6267 887.658 50.64C886.058 51.6 884.778 52.96 883.818 54.72C882.911 56.48 882.458 58.5067 882.458 60.8C882.458 63.0933 882.911 65.12 883.818 66.88C884.778 68.64 886.058 70.0267 887.658 71.04C889.311 72 891.204 72.48 893.338 72.48ZM912.458 80H903.658V69.68L905.178 60.32L903.658 51.04V22.4H912.458V80ZM940.064 80.8C936.224 80.8 932.757 79.9467 929.664 78.24C926.624 76.48 924.197 74.08 922.384 71.04C920.624 68 919.744 64.5867 919.744 60.8C919.744 57.0133 920.624 53.6267 922.384 50.64C924.144 47.6 926.517 45.2 929.504 43.44C932.544 41.68 935.904 40.8 939.584 40.8C943.157 40.8 946.304 41.6267 949.024 43.28C951.797 44.9333 953.957 47.2 955.504 50.08C957.104 52.96 957.904 56.24 957.904 59.92C957.904 60.56 957.85 61.2267 957.744 61.92C957.69 62.56 957.584 63.28 957.424 64.08H925.904V56.88H952.864L949.584 59.76C949.477 57.4133 949.024 55.44 948.224 53.84C947.424 52.24 946.277 51.0133 944.784 50.16C943.344 49.3067 941.557 48.88 939.424 48.88C937.184 48.88 935.237 49.36 933.584 50.32C931.93 51.28 930.65 52.64 929.744 54.4C928.837 56.1067 928.384 58.16 928.384 60.56C928.384 62.96 928.864 65.0667 929.824 66.88C930.784 68.6933 932.144 70.1067 933.904 71.12C935.664 72.08 937.69 72.56 939.984 72.56C941.957 72.56 943.77 72.2133 945.424 71.52C947.13 70.8267 948.57 69.8133 949.744 68.48L955.344 74.16C953.477 76.3467 951.21 78 948.544 79.12C945.877 80.24 943.05 80.8 940.064 80.8ZM997.774 80.8C993.347 80.8 989.587 80 986.494 78.4C983.4 76.8 980.627 74.4533 978.174 71.36L984.414 65.12C985.96 67.36 987.8 69.12 989.934 70.4C992.067 71.6267 994.787 72.24 998.094 72.24C1001.19 72.24 1003.64 71.6 1005.45 70.32C1007.32 69.04 1008.25 67.28 1008.25 65.04C1008.25 63.1733 1007.77 61.6533 1006.81 60.48C1005.85 59.3067 1004.57 58.3467 1002.97 57.6C1001.43 56.8 999.694 56.1067 997.774 55.52C995.907 54.88 994.014 54.1867 992.094 53.44C990.227 52.64 988.494 51.6533 986.894 50.48C985.347 49.3067 984.094 47.7867 983.134 45.92C982.174 44.0533 981.694 41.68 981.694 38.8C981.694 35.4933 982.494 32.6933 984.094 30.4C985.747 28.0533 987.96 26.2667 990.734 25.04C993.507 23.8133 996.6 23.2 1000.01 23.2C1003.69 23.2 1006.97 23.92 1009.85 25.36C1012.79 26.8 1015.16 28.64 1016.97 30.88L1010.73 37.12C1009.13 35.3067 1007.45 33.9733 1005.69 33.12C1003.99 32.2133 1002.01 31.76 999.774 31.76C997 31.76 994.814 32.32 993.214 33.44C991.667 34.56 990.894 36.1333 990.894 38.16C990.894 39.8667 991.374 41.2533 992.334 42.32C993.294 43.3333 994.547 44.2133 996.094 44.96C997.694 45.6533 999.427 46.32 1001.29 46.96C1003.21 47.6 1005.11 48.32 1006.97 49.12C1008.89 49.92 1010.63 50.96 1012.17 52.24C1013.77 53.4667 1015.05 55.0667 1016.01 57.04C1016.97 59.0133 1017.45 61.4933 1017.45 64.48C1017.45 69.4933 1015.67 73.4667 1012.09 76.4C1008.57 79.3333 1003.8 80.8 997.774 80.8ZM1041.04 80.8C1037.57 80.8 1034.42 79.92 1031.6 78.16C1028.82 76.4 1026.61 74.0267 1024.96 71.04C1023.36 68 1022.56 64.6133 1022.56 60.88C1022.56 57.0933 1023.36 53.7067 1024.96 50.72C1026.61 47.68 1028.82 45.28 1031.6 43.52C1034.42 41.7067 1037.57 40.8 1041.04 40.8C1043.97 40.8 1046.56 41.44 1048.8 42.72C1051.09 43.9467 1052.9 45.6533 1054.24 47.84C1055.57 50.0267 1056.24 52.5067 1056.24 55.28V66.32C1056.24 69.0933 1055.57 71.5733 1054.24 73.76C1052.96 75.9467 1051.17 77.68 1048.88 78.96C1046.58 80.1867 1043.97 80.8 1041.04 80.8ZM1042.48 72.48C1045.73 72.48 1048.34 71.3867 1050.32 69.2C1052.34 67.0133 1053.36 64.2133 1053.36 60.8C1053.36 58.5067 1052.9 56.48 1052 54.72C1051.09 52.96 1049.81 51.6 1048.16 50.64C1046.56 49.6267 1044.66 49.12 1042.48 49.12C1040.34 49.12 1038.45 49.6267 1036.8 50.64C1035.2 51.6 1033.92 52.96 1032.96 54.72C1032.05 56.48 1031.6 58.5067 1031.6 60.8C1031.6 63.0933 1032.05 65.12 1032.96 66.88C1033.92 68.64 1035.2 70.0267 1036.8 71.04C1038.45 72 1040.34 72.48 1042.48 72.48ZM1052.8 80V69.68L1054.32 60.32L1052.8 51.04V41.6H1061.6V80H1052.8ZM1087.12 80.8C1083.87 80.8 1080.96 80.08 1078.4 78.64C1075.9 77.2 1073.92 75.2267 1072.48 72.72C1071.1 70.16 1070.4 67.2267 1070.4 63.92V41.6H1079.2V63.52C1079.2 65.3867 1079.5 66.9867 1080.08 68.32C1080.72 69.6 1081.63 70.5867 1082.8 71.28C1084.03 71.9733 1085.47 72.32 1087.12 72.32C1089.68 72.32 1091.63 71.5733 1092.96 70.08C1094.35 68.5333 1095.04 66.3467 1095.04 63.52V41.6H1103.84V63.92C1103.84 67.28 1103.12 70.24 1101.68 72.8C1100.3 75.3067 1098.35 77.28 1095.84 78.72C1093.34 80.1067 1090.43 80.8 1087.12 80.8ZM1082.64 36.08L1078.64 32.08L1088.88 19.04L1095.68 25.84L1082.64 36.08ZM1128.77 80.8C1125.31 80.8 1122.16 79.92 1119.33 78.16C1116.56 76.4 1114.35 74.0267 1112.69 71.04C1111.09 68 1110.29 64.6133 1110.29 60.88C1110.29 57.0933 1111.09 53.7067 1112.69 50.72C1114.35 47.68 1116.56 45.28 1119.33 43.52C1122.16 41.7067 1125.31 40.8 1128.77 40.8C1131.71 40.8 1134.29 41.44 1136.53 42.72C1138.83 43.9467 1140.64 45.6533 1141.97 47.84C1143.31 50.0267 1143.97 52.5067 1143.97 55.28V66.32C1143.97 69.0933 1143.31 71.5733 1141.97 73.76C1140.69 75.9467 1138.91 77.68 1136.61 78.96C1134.32 80.1867 1131.71 80.8 1128.77 80.8ZM1130.21 72.48C1132.4 72.48 1134.29 72 1135.89 71.04C1137.55 70.0267 1138.83 68.64 1139.73 66.88C1140.64 65.12 1141.09 63.0933 1141.09 60.8C1141.09 58.5067 1140.64 56.48 1139.73 54.72C1138.83 52.96 1137.55 51.6 1135.89 50.64C1134.29 49.6267 1132.4 49.12 1130.21 49.12C1128.08 49.12 1126.19 49.6267 1124.53 50.64C1122.93 51.6 1121.65 52.96 1120.69 54.72C1119.79 56.48 1119.33 58.5067 1119.33 60.8C1119.33 63.0933 1119.79 65.12 1120.69 66.88C1121.65 68.64 1122.93 70.0267 1124.53 71.04C1126.19 72 1128.08 72.48 1130.21 72.48ZM1149.33 80H1140.53V69.68L1142.05 60.32L1140.53 51.04V22.4H1149.33V80ZM1176.94 80.8C1173.1 80.8 1169.63 79.9467 1166.54 78.24C1163.5 76.48 1161.07 74.08 1159.26 71.04C1157.5 68 1156.62 64.5867 1156.62 60.8C1156.62 57.0133 1157.5 53.6267 1159.26 50.64C1161.02 47.6 1163.39 45.2 1166.38 43.44C1169.42 41.68 1172.78 40.8 1176.46 40.8C1180.03 40.8 1183.18 41.6267 1185.9 43.28C1188.67 44.9333 1190.83 47.2 1192.38 50.08C1193.98 52.96 1194.78 56.24 1194.78 59.92C1194.78 60.56 1194.73 61.2267 1194.62 61.92C1194.57 62.56 1194.46 63.28 1194.3 64.08H1162.78V56.88H1189.74L1186.46 59.76C1186.35 57.4133 1185.9 55.44 1185.1 53.84C1184.3 52.24 1183.15 51.0133 1181.66 50.16C1180.22 49.3067 1178.43 48.88 1176.3 48.88C1174.06 48.88 1172.11 49.36 1170.46 50.32C1168.81 51.28 1167.53 52.64 1166.62 54.4C1165.71 56.1067 1165.26 58.16 1165.26 60.56C1165.26 62.96 1165.74 65.0667 1166.7 66.88C1167.66 68.6933 1169.02 70.1067 1170.78 71.12C1172.54 72.08 1174.57 72.56 1176.86 72.56C1178.83 72.56 1180.65 72.2133 1182.3 71.52C1184.01 70.8267 1185.45 69.8133 1186.62 68.48L1192.22 74.16C1190.35 76.3467 1188.09 78 1185.42 79.12C1182.75 80.24 1179.93 80.8 1176.94 80.8ZM1238.41 80.8C1235.48 80.8 1232.86 80.1867 1230.57 78.96C1228.28 77.68 1226.46 75.9467 1225.13 73.76C1223.85 71.5733 1223.21 69.0933 1223.21 66.32V55.28C1223.21 52.5067 1223.88 50.0267 1225.21 47.84C1226.54 45.6533 1228.36 43.9467 1230.65 42.72C1232.94 41.44 1235.53 40.8 1238.41 40.8C1241.88 40.8 1245 41.7067 1247.77 43.52C1250.6 45.28 1252.81 47.68 1254.41 50.72C1256.06 53.7067 1256.89 57.0933 1256.89 60.88C1256.89 64.6133 1256.06 68 1254.41 71.04C1252.81 74.0267 1250.6 76.4 1247.77 78.16C1245 79.92 1241.88 80.8 1238.41 80.8ZM1217.85 96V41.6H1226.65V51.92L1225.13 61.28L1226.65 70.56V96H1217.85ZM1236.97 72.48C1239.1 72.48 1240.97 72 1242.57 71.04C1244.22 70.0267 1245.5 68.64 1246.41 66.88C1247.37 65.12 1247.85 63.0933 1247.85 60.8C1247.85 58.5067 1247.37 56.48 1246.41 54.72C1245.5 52.96 1244.22 51.6 1242.57 50.64C1240.97 49.6267 1239.1 49.12 1236.97 49.12C1234.84 49.12 1232.94 49.6267 1231.29 50.64C1229.64 51.6 1228.36 52.96 1227.45 54.72C1226.54 56.48 1226.09 58.5067 1226.09 60.8C1226.09 63.0933 1226.54 65.12 1227.45 66.88C1228.36 68.64 1229.64 70.0267 1231.29 71.04C1232.94 72 1234.84 72.48 1236.97 72.48ZM1281.86 80.8C1278.12 80.8 1274.74 79.92 1271.7 78.16C1268.66 76.3467 1266.23 73.92 1264.42 70.88C1262.66 67.84 1261.78 64.4533 1261.78 60.72C1261.78 56.9867 1262.66 53.6267 1264.42 50.64C1266.23 47.6533 1268.66 45.28 1271.7 43.52C1274.74 41.7067 1278.12 40.8 1281.86 40.8C1285.64 40.8 1289.06 41.68 1292.1 43.44C1295.14 45.2 1297.54 47.6 1299.3 50.64C1301.11 53.6267 1302.02 56.9867 1302.02 60.72C1302.02 64.4533 1301.11 67.84 1299.3 70.88C1297.54 73.92 1295.14 76.3467 1292.1 78.16C1289.06 79.92 1285.64 80.8 1281.86 80.8ZM1281.86 72.32C1284.04 72.32 1285.96 71.84 1287.62 70.88C1289.32 69.8667 1290.63 68.48 1291.54 66.72C1292.5 64.96 1292.98 62.96 1292.98 60.72C1292.98 58.48 1292.5 56.5067 1291.54 54.8C1290.58 53.0933 1289.27 51.76 1287.62 50.8C1285.96 49.7867 1284.04 49.28 1281.86 49.28C1279.72 49.28 1277.8 49.7867 1276.1 50.8C1274.44 51.76 1273.14 53.0933 1272.18 54.8C1271.27 56.5067 1270.82 58.48 1270.82 60.72C1270.82 62.96 1271.27 64.96 1272.18 66.72C1273.14 68.48 1274.44 69.8667 1276.1 70.88C1277.8 71.84 1279.72 72.32 1281.86 72.32ZM1309.33 80V41.6H1318.13V80H1309.33ZM1318.13 58.64L1315.09 57.12C1315.09 52.2667 1316.16 48.3467 1318.29 45.36C1320.48 42.32 1323.76 40.8 1328.13 40.8C1330.05 40.8 1331.79 41.1467 1333.33 41.84C1334.88 42.5333 1336.32 43.6533 1337.65 45.2L1331.89 51.12C1331.2 50.3733 1330.43 49.84 1329.57 49.52C1328.72 49.2 1327.73 49.04 1326.61 49.04C1324.16 49.04 1322.13 49.8133 1320.53 51.36C1318.93 52.9067 1318.13 55.3333 1318.13 58.64ZM1373.36 80V25.6H1382.56V80H1373.36ZM1355.12 32.4V24H1400.8V32.4H1355.12ZM1407.69 80V41.6H1416.49V80H1407.69ZM1412.09 34.56C1410.6 34.56 1409.35 34.0533 1408.33 33.04C1407.37 32.0267 1406.89 30.7733 1406.89 29.28C1406.89 27.7867 1407.37 26.5333 1408.33 25.52C1409.35 24.5067 1410.6 24 1412.09 24C1413.64 24 1414.89 24.5067 1415.85 25.52C1416.81 26.5333 1417.29 27.7867 1417.29 29.28C1417.29 30.7733 1416.81 32.0267 1415.85 33.04C1414.89 34.0533 1413.64 34.56 1412.09 34.56ZM1446.92 80.8C1443.99 80.8 1441.38 80.1867 1439.08 78.96C1436.79 77.68 1434.98 75.9467 1433.64 73.76C1432.36 71.5733 1431.72 69.0933 1431.72 66.32V55.28C1431.72 52.5067 1432.39 50.0267 1433.72 47.84C1435.06 45.6533 1436.87 43.9467 1439.16 42.72C1441.46 41.44 1444.04 40.8 1446.92 40.8C1450.39 40.8 1453.51 41.7067 1456.28 43.52C1459.11 45.28 1461.32 47.68 1462.92 50.72C1464.58 53.7067 1465.4 57.0933 1465.4 60.88C1465.4 64.6133 1464.58 68 1462.92 71.04C1461.32 74.0267 1459.11 76.4 1456.28 78.16C1453.51 79.92 1450.39 80.8 1446.92 80.8ZM1426.36 96V41.6H1435.16V51.92L1433.64 61.28L1435.16 70.56V96H1426.36ZM1445.48 72.48C1447.62 72.48 1449.48 72 1451.08 71.04C1452.74 70.0267 1454.02 68.64 1454.92 66.88C1455.88 65.12 1456.36 63.0933 1456.36 60.8C1456.36 58.5067 1455.88 56.48 1454.92 54.72C1454.02 52.96 1452.74 51.6 1451.08 50.64C1449.48 49.6267 1447.62 49.12 1445.48 49.12C1443.35 49.12 1441.46 49.6267 1439.8 50.64C1438.15 51.6 1436.87 52.96 1435.96 54.72C1435.06 56.48 1434.6 58.5067 1434.6 60.8C1434.6 63.0933 1435.06 65.12 1435.96 66.88C1436.87 68.64 1438.15 70.0267 1439.8 71.04C1441.46 72 1443.35 72.48 1445.48 72.48ZM1490.37 80.8C1486.64 80.8 1483.25 79.92 1480.21 78.16C1477.17 76.3467 1474.74 73.92 1472.93 70.88C1471.17 67.84 1470.29 64.4533 1470.29 60.72C1470.29 56.9867 1471.17 53.6267 1472.93 50.64C1474.74 47.6533 1477.17 45.28 1480.21 43.52C1483.25 41.7067 1486.64 40.8 1490.37 40.8C1494.16 40.8 1497.57 41.68 1500.61 43.44C1503.65 45.2 1506.05 47.6 1507.81 50.64C1509.62 53.6267 1510.53 56.9867 1510.53 60.72C1510.53 64.4533 1509.62 67.84 1507.81 70.88C1506.05 73.92 1503.65 76.3467 1500.61 78.16C1497.57 79.92 1494.16 80.8 1490.37 80.8ZM1490.37 72.32C1492.56 72.32 1494.48 71.84 1496.13 70.88C1497.84 69.8667 1499.14 68.48 1500.05 66.72C1501.01 64.96 1501.49 62.96 1501.49 60.72C1501.49 58.48 1501.01 56.5067 1500.05 54.8C1499.09 53.0933 1497.78 51.76 1496.13 50.8C1494.48 49.7867 1492.56 49.28 1490.37 49.28C1488.24 49.28 1486.32 49.7867 1484.61 50.8C1482.96 51.76 1481.65 53.0933 1480.69 54.8C1479.78 56.5067 1479.33 58.48 1479.33 60.72C1479.33 62.96 1479.78 64.96 1480.69 66.72C1481.65 68.48 1482.96 69.8667 1484.61 70.88C1486.32 71.84 1488.24 72.32 1490.37 72.32Z" fill="#39762A"/>
</svg>
