<svg width="723" height="803" viewBox="0 0 723 803" fill="none" xmlns="http://www.w3.org/2000/svg">
<g clip-path="url(#clip0_17151_2)">
<path d="M0 80C0 57.9086 17.9086 40 40 40H682.16C704.251 40 722.16 57.9086 722.16 80V722.16C722.16 744.251 704.251 762.16 682.16 762.16H40C17.9086 762.16 0 744.251 0 722.16V80Z" fill="#4C9F38"/>
<path d="M387.91 571.217H387.4C385.521 571.1 383.736 570.352 382.335 569.095C380.934 567.837 379.998 566.143 379.68 564.287L353.85 413.837L314.76 486.387C313.925 487.932 312.624 489.174 311.043 489.937C309.461 490.7 307.679 490.945 305.951 490.637C304.222 490.329 302.634 489.484 301.413 488.222C300.192 486.96 299.4 485.345 299.15 483.607L282.5 367.507L252.1 435.767C251.45 437.251 250.383 438.513 249.028 439.401C247.673 440.289 246.09 440.764 244.47 440.767H126.35C125.253 440.767 124.168 440.551 123.155 440.132C122.142 439.712 121.221 439.097 120.446 438.322C119.67 437.546 119.055 436.626 118.636 435.613C118.216 434.6 118 433.514 118 432.417C118 431.321 118.216 430.235 118.636 429.222C119.055 428.209 119.67 427.288 120.446 426.513C121.221 425.738 122.142 425.122 123.155 424.703C124.168 424.283 125.253 424.067 126.35 424.067H239.05L279.05 334.277C279.788 332.624 281.044 331.256 282.627 330.378C284.211 329.501 286.037 329.162 287.83 329.412C289.623 329.663 291.286 330.489 292.568 331.767C293.851 333.045 294.683 334.705 294.94 336.497L312.07 456.207L350.66 384.667C351.485 383.138 352.766 381.903 354.325 381.136C355.884 380.369 357.644 380.108 359.359 380.389C361.074 380.669 362.658 381.478 363.892 382.702C365.125 383.926 365.946 385.505 366.24 387.217L390.16 526.547L477.34 236.947C477.824 235.335 478.785 233.907 480.095 232.85C481.405 231.794 483.004 231.158 484.682 231.026C486.361 230.894 488.039 231.272 489.499 232.111C490.958 232.95 492.13 234.211 492.86 235.727L538.76 330.777C539.236 331.765 539.513 332.838 539.574 333.933C539.636 335.028 539.481 336.125 539.119 337.16C538.757 338.195 538.195 339.149 537.464 339.967C536.733 340.785 535.848 341.451 534.86 341.927C533.872 342.403 532.8 342.68 531.704 342.742C530.609 342.803 529.513 342.649 528.477 342.286C527.442 341.924 526.488 341.362 525.67 340.631C524.852 339.9 524.186 339.015 523.71 338.027L487.13 262.307L395.91 565.307C395.385 567.019 394.325 568.517 392.885 569.581C391.444 570.645 389.701 571.219 387.91 571.217Z" fill="white"/>
<path d="M571.49 373.967C591.33 373.967 604.43 390.557 604.43 410.967C604.482 420.73 600.713 430.126 593.93 437.147L543.15 488.037L492.3 437.087C485.512 430.083 481.733 420.701 481.77 410.947C481.77 390.497 495.67 373.947 515.51 373.947C525.43 373.947 536.61 384.817 543.11 391.507C549.6 384.827 561.57 373.967 571.49 373.967Z" fill="white"/>
</g>
<defs>
<clipPath id="clip0_17151_2">
<rect width="722.16" height="802.16" fill="white"/>
</clipPath>
</defs>
</svg>
