<svg width="2067" height="131" viewBox="0 0 2067 131" fill="none" xmlns="http://www.w3.org/2000/svg">
<path d="M6.08 80V24H12.48L15.28 34.56V80H6.08ZM44.88 80L11.36 36.24L12.48 24L46 67.76L44.88 80ZM44.88 80L42.08 70.16V24H51.28V80H44.88ZM77.9838 80.8C74.7304 80.8 71.8238 80.08 69.2638 78.64C66.7571 77.2 64.7838 75.2267 63.3438 72.72C61.9571 70.16 61.2638 67.2267 61.2638 63.92V41.6H70.0638V63.52C70.0638 65.3867 70.3571 66.9867 70.9438 68.32C71.5838 69.6 72.4904 70.5867 73.6638 71.28C74.8904 71.9733 76.3304 72.32 77.9838 72.32C80.5438 72.32 82.4904 71.5733 83.8238 70.08C85.2104 68.5333 85.9038 66.3467 85.9038 63.52V41.6H94.7038V63.92C94.7038 67.28 93.9838 70.24 92.5438 72.8C91.1571 75.3067 89.2104 77.28 86.7038 78.72C84.1971 80.1067 81.2904 80.8 77.9838 80.8ZM73.5038 36.08L69.5038 32.08L79.7438 19.04L86.5438 25.84L73.5038 36.08ZM103.552 80V41.6H112.352V80H103.552ZM129.072 80V57.12C129.072 54.56 128.272 52.5867 126.672 51.2C125.072 49.76 123.099 49.04 120.752 49.04C119.152 49.04 117.712 49.36 116.432 50C115.205 50.64 114.219 51.5733 113.472 52.8C112.725 53.9733 112.352 55.4133 112.352 57.12L108.912 55.2C108.912 52.2667 109.552 49.7333 110.832 47.6C112.112 45.4667 113.845 43.8133 116.032 42.64C118.219 41.4133 120.672 40.8 123.392 40.8C126.112 40.8 128.565 41.3867 130.752 42.56C132.939 43.7333 134.672 45.3867 135.952 47.52C137.232 49.6533 137.872 52.2133 137.872 55.2V80H129.072ZM154.592 80V57.12C154.592 54.56 153.792 52.5867 152.192 51.2C150.592 49.76 148.619 49.04 146.272 49.04C144.725 49.04 143.312 49.36 142.032 50C140.752 50.64 139.739 51.5733 138.992 52.8C138.245 53.9733 137.872 55.4133 137.872 57.12L132.912 55.2C133.179 52.2667 134.032 49.7333 135.472 47.6C136.912 45.4667 138.752 43.8133 140.992 42.64C143.285 41.4133 145.792 40.8 148.512 40.8C151.285 40.8 153.792 41.3867 156.032 42.56C158.272 43.7333 160.059 45.3867 161.392 47.52C162.725 49.6533 163.392 52.2133 163.392 55.2V80H154.592ZM190.298 80.8C186.458 80.8 182.991 79.9467 179.898 78.24C176.858 76.48 174.431 74.08 172.618 71.04C170.858 68 169.978 64.5867 169.978 60.8C169.978 57.0133 170.858 53.6267 172.618 50.64C174.378 47.6 176.751 45.2 179.738 43.44C182.778 41.68 186.138 40.8 189.818 40.8C193.391 40.8 196.538 41.6267 199.258 43.28C202.031 44.9333 204.191 47.2 205.738 50.08C207.338 52.96 208.138 56.24 208.138 59.92C208.138 60.56 208.085 61.2267 207.978 61.92C207.925 62.56 207.818 63.28 207.658 64.08H176.138V56.88H203.098L199.818 59.76C199.711 57.4133 199.258 55.44 198.458 53.84C197.658 52.24 196.511 51.0133 195.018 50.16C193.578 49.3067 191.791 48.88 189.658 48.88C187.418 48.88 185.471 49.36 183.818 50.32C182.165 51.28 180.885 52.64 179.978 54.4C179.071 56.1067 178.618 58.16 178.618 60.56C178.618 62.96 179.098 65.0667 180.058 66.88C181.018 68.6933 182.378 70.1067 184.138 71.12C185.898 72.08 187.925 72.56 190.218 72.56C192.191 72.56 194.005 72.2133 195.658 71.52C197.365 70.8267 198.805 69.8133 199.978 68.48L205.578 74.16C203.711 76.3467 201.445 78 198.778 79.12C196.111 80.24 193.285 80.8 190.298 80.8ZM215.193 80V41.6H223.993V80H215.193ZM223.993 58.64L220.953 57.12C220.953 52.2667 222.019 48.3467 224.153 45.36C226.339 42.32 229.619 40.8 233.993 40.8C235.913 40.8 237.646 41.1467 239.193 41.84C240.739 42.5333 242.179 43.6533 243.513 45.2L237.753 51.12C237.059 50.3733 236.286 49.84 235.433 49.52C234.579 49.2 233.593 49.04 232.473 49.04C230.019 49.04 227.993 49.8133 226.393 51.36C224.793 52.9067 223.993 55.3333 223.993 58.64ZM264.199 80.8C260.465 80.8 257.079 79.92 254.039 78.16C250.999 76.3467 248.572 73.92 246.759 70.88C244.999 67.84 244.119 64.4533 244.119 60.72C244.119 56.9867 244.999 53.6267 246.759 50.64C248.572 47.6533 250.999 45.28 254.039 43.52C257.079 41.7067 260.465 40.8 264.199 40.8C267.985 40.8 271.399 41.68 274.439 43.44C277.479 45.2 279.879 47.6 281.639 50.64C283.452 53.6267 284.359 56.9867 284.359 60.72C284.359 64.4533 283.452 67.84 281.639 70.88C279.879 73.92 277.479 76.3467 274.439 78.16C271.399 79.92 267.985 80.8 264.199 80.8ZM264.199 72.32C266.385 72.32 268.305 71.84 269.959 70.88C271.665 69.8667 272.972 68.48 273.879 66.72C274.839 64.96 275.319 62.96 275.319 60.72C275.319 58.48 274.839 56.5067 273.879 54.8C272.919 53.0933 271.612 51.76 269.959 50.8C268.305 49.7867 266.385 49.28 264.199 49.28C262.065 49.28 260.145 49.7867 258.439 50.8C256.785 51.76 255.479 53.0933 254.519 54.8C253.612 56.5067 253.159 58.48 253.159 60.72C253.159 62.96 253.612 64.96 254.519 66.72C255.479 68.48 256.785 69.8667 258.439 70.88C260.145 71.84 262.065 72.32 264.199 72.32ZM323.773 80.8C320.306 80.8 317.159 79.92 314.333 78.16C311.559 76.4 309.346 74.0267 307.693 71.04C306.093 68 305.293 64.6133 305.293 60.88C305.293 57.0933 306.093 53.7067 307.693 50.72C309.346 47.68 311.559 45.28 314.333 43.52C317.159 41.7067 320.306 40.8 323.773 40.8C326.706 40.8 329.293 41.44 331.533 42.72C333.826 43.9467 335.639 45.6533 336.973 47.84C338.306 50.0267 338.973 52.5067 338.973 55.28V66.32C338.973 69.0933 338.306 71.5733 336.973 73.76C335.693 75.9467 333.906 77.68 331.613 78.96C329.319 80.1867 326.706 80.8 323.773 80.8ZM325.213 72.48C327.399 72.48 329.293 72 330.893 71.04C332.546 70.0267 333.826 68.64 334.733 66.88C335.639 65.12 336.093 63.0933 336.093 60.8C336.093 58.5067 335.639 56.48 334.733 54.72C333.826 52.96 332.546 51.6 330.893 50.64C329.293 49.6267 327.399 49.12 325.213 49.12C323.079 49.12 321.186 49.6267 319.533 50.64C317.933 51.6 316.653 52.96 315.693 54.72C314.786 56.48 314.333 58.5067 314.333 60.8C314.333 63.0933 314.786 65.12 315.693 66.88C316.653 68.64 317.933 70.0267 319.533 71.04C321.186 72 323.079 72.48 325.213 72.48ZM344.333 80H335.533V69.68L337.053 60.32L335.533 51.04V22.4H344.333V80ZM371.939 80.8C368.099 80.8 364.632 79.9467 361.539 78.24C358.499 76.48 356.072 74.08 354.259 71.04C352.499 68 351.619 64.5867 351.619 60.8C351.619 57.0133 352.499 53.6267 354.259 50.64C356.019 47.6 358.392 45.2 361.379 43.44C364.419 41.68 367.779 40.8 371.459 40.8C375.032 40.8 378.179 41.6267 380.899 43.28C383.672 44.9333 385.832 47.2 387.379 50.08C388.979 52.96 389.779 56.24 389.779 59.92C389.779 60.56 389.725 61.2267 389.619 61.92C389.565 62.56 389.459 63.28 389.299 64.08H357.779V56.88H384.739L381.459 59.76C381.352 57.4133 380.899 55.44 380.099 53.84C379.299 52.24 378.152 51.0133 376.659 50.16C375.219 49.3067 373.432 48.88 371.299 48.88C369.059 48.88 367.112 49.36 365.459 50.32C363.805 51.28 362.525 52.64 361.619 54.4C360.712 56.1067 360.259 58.16 360.259 60.56C360.259 62.96 360.739 65.0667 361.699 66.88C362.659 68.6933 364.019 70.1067 365.779 71.12C367.539 72.08 369.565 72.56 371.859 72.56C373.832 72.56 375.645 72.2133 377.299 71.52C379.005 70.8267 380.445 69.8133 381.619 68.48L387.219 74.16C385.352 76.3467 383.085 78 380.419 79.12C377.752 80.24 374.925 80.8 371.939 80.8ZM414.049 80V24H423.249V80H414.049ZM420.369 80V71.6H451.729V80H420.369ZM420.369 55.44V47.36H449.009V55.44H420.369ZM420.369 32.4V24H451.329V32.4H420.369ZM472.596 80.8C470.463 80.8 468.41 80.5333 466.436 80C464.463 79.4133 462.65 78.6133 460.996 77.6C459.343 76.5333 457.903 75.2533 456.676 73.76L462.276 68.16C463.61 69.7067 465.13 70.88 466.836 71.68C468.596 72.4267 470.57 72.8 472.756 72.8C474.73 72.8 476.223 72.5067 477.236 71.92C478.25 71.3333 478.756 70.48 478.756 69.36C478.756 68.1867 478.276 67.28 477.316 66.64C476.356 66 475.103 65.4667 473.556 65.04C472.063 64.56 470.463 64.08 468.756 63.6C467.103 63.12 465.503 62.48 463.956 61.68C462.463 60.8267 461.236 59.68 460.276 58.24C459.316 56.8 458.836 54.9333 458.836 52.64C458.836 50.1867 459.396 48.08 460.516 46.32C461.69 44.56 463.316 43.2 465.396 42.24C467.53 41.28 470.063 40.8 472.996 40.8C476.09 40.8 478.81 41.36 481.156 42.48C483.556 43.5467 485.556 45.1733 487.156 47.36L481.556 52.96C480.436 51.5733 479.156 50.5333 477.716 49.84C476.276 49.1467 474.623 48.8 472.756 48.8C470.996 48.8 469.636 49.0667 468.676 49.6C467.716 50.1333 467.236 50.9067 467.236 51.92C467.236 52.9867 467.716 53.8133 468.676 54.4C469.636 54.9867 470.863 55.4933 472.356 55.92C473.903 56.3467 475.503 56.8267 477.156 57.36C478.863 57.84 480.463 58.5333 481.956 59.44C483.503 60.2933 484.756 61.4667 485.716 62.96C486.676 64.4 487.156 66.2933 487.156 68.64C487.156 72.3733 485.85 75.3333 483.236 77.52C480.623 79.7067 477.076 80.8 472.596 80.8ZM500.251 80V25.6H509.051V80H500.251ZM491.051 49.6V41.6H518.251V49.6H491.051ZM539.632 80.8C536.165 80.8 533.019 79.92 530.192 78.16C527.419 76.4 525.205 74.0267 523.552 71.04C521.952 68 521.152 64.6133 521.152 60.88C521.152 57.0933 521.952 53.7067 523.552 50.72C525.205 47.68 527.419 45.28 530.192 43.52C533.019 41.7067 536.165 40.8 539.632 40.8C542.565 40.8 545.152 41.44 547.392 42.72C549.685 43.9467 551.499 45.6533 552.832 47.84C554.165 50.0267 554.832 52.5067 554.832 55.28V66.32C554.832 69.0933 554.165 71.5733 552.832 73.76C551.552 75.9467 549.765 77.68 547.472 78.96C545.179 80.1867 542.565 80.8 539.632 80.8ZM541.072 72.48C544.325 72.48 546.939 71.3867 548.912 69.2C550.939 67.0133 551.952 64.2133 551.952 60.8C551.952 58.5067 551.499 56.48 550.592 54.72C549.685 52.96 548.405 51.6 546.752 50.64C545.152 49.6267 543.259 49.12 541.072 49.12C538.939 49.12 537.045 49.6267 535.392 50.64C533.792 51.6 532.512 52.96 531.552 54.72C530.645 56.48 530.192 58.5067 530.192 60.8C530.192 63.0933 530.645 65.12 531.552 66.88C532.512 68.64 533.792 70.0267 535.392 71.04C537.045 72 538.939 72.48 541.072 72.48ZM551.392 80V69.68L552.912 60.32L551.392 51.04V41.6H560.192V80H551.392ZM590.518 80.8C587.585 80.8 584.971 80.1867 582.678 78.96C580.385 77.68 578.571 75.9467 577.238 73.76C575.958 71.5733 575.318 69.0933 575.318 66.32V55.28C575.318 52.5067 575.985 50.0267 577.318 47.84C578.651 45.6533 580.465 43.9467 582.758 42.72C585.051 41.44 587.638 40.8 590.518 40.8C593.985 40.8 597.105 41.7067 599.878 43.52C602.705 45.28 604.918 47.68 606.518 50.72C608.171 53.7067 608.998 57.0933 608.998 60.88C608.998 64.6133 608.171 68 606.518 71.04C604.918 74.0267 602.705 76.4 599.878 78.16C597.105 79.92 593.985 80.8 590.518 80.8ZM569.958 80V22.4H578.758V51.04L577.238 60.32L578.758 69.68V80H569.958ZM589.078 72.48C591.211 72.48 593.078 72 594.678 71.04C596.331 70.0267 597.611 68.64 598.518 66.88C599.478 65.12 599.958 63.0933 599.958 60.8C599.958 58.5067 599.478 56.48 598.518 54.72C597.611 52.96 596.331 51.6 594.678 50.64C593.078 49.6267 591.211 49.12 589.078 49.12C586.945 49.12 585.051 49.6267 583.398 50.64C581.745 51.6 580.465 52.96 579.558 54.72C578.651 56.48 578.198 58.5067 578.198 60.8C578.198 63.0933 578.651 65.12 579.558 66.88C580.465 68.64 581.745 70.0267 583.398 71.04C585.051 72 586.945 72.48 589.078 72.48ZM634.204 80.8C630.364 80.8 626.898 79.9467 623.804 78.24C620.764 76.48 618.338 74.08 616.524 71.04C614.764 68 613.884 64.5867 613.884 60.8C613.884 57.0133 614.764 53.6267 616.524 50.64C618.284 47.6 620.658 45.2 623.644 43.44C626.684 41.68 630.044 40.8 633.724 40.8C637.298 40.8 640.444 41.6267 643.164 43.28C645.938 44.9333 648.098 47.2 649.644 50.08C651.244 52.96 652.044 56.24 652.044 59.92C652.044 60.56 651.991 61.2267 651.884 61.92C651.831 62.56 651.724 63.28 651.564 64.08H620.044V56.88H647.004L643.724 59.76C643.618 57.4133 643.164 55.44 642.364 53.84C641.564 52.24 640.418 51.0133 638.924 50.16C637.484 49.3067 635.698 48.88 633.564 48.88C631.324 48.88 629.378 49.36 627.724 50.32C626.071 51.28 624.791 52.64 623.884 54.4C622.978 56.1067 622.524 58.16 622.524 60.56C622.524 62.96 623.004 65.0667 623.964 66.88C624.924 68.6933 626.284 70.1067 628.044 71.12C629.804 72.08 631.831 72.56 634.124 72.56C636.098 72.56 637.911 72.2133 639.564 71.52C641.271 70.8267 642.711 69.8133 643.884 68.48L649.484 74.16C647.618 76.3467 645.351 78 642.684 79.12C640.018 80.24 637.191 80.8 634.204 80.8ZM659.099 80V22.4H667.899V80H659.099ZM695.533 80.8C691.693 80.8 688.226 79.9467 685.133 78.24C682.093 76.48 679.666 74.08 677.853 71.04C676.093 68 675.213 64.5867 675.213 60.8C675.213 57.0133 676.093 53.6267 677.853 50.64C679.613 47.6 681.986 45.2 684.973 43.44C688.013 41.68 691.373 40.8 695.053 40.8C698.626 40.8 701.773 41.6267 704.493 43.28C707.266 44.9333 709.426 47.2 710.973 50.08C712.573 52.96 713.373 56.24 713.373 59.92C713.373 60.56 713.319 61.2267 713.212 61.92C713.159 62.56 713.053 63.28 712.893 64.08H681.373V56.88H708.333L705.053 59.76C704.946 57.4133 704.493 55.44 703.693 53.84C702.893 52.24 701.746 51.0133 700.253 50.16C698.813 49.3067 697.026 48.88 694.893 48.88C692.653 48.88 690.706 49.36 689.053 50.32C687.399 51.28 686.119 52.64 685.213 54.4C684.306 56.1067 683.853 58.16 683.853 60.56C683.853 62.96 684.333 65.0667 685.293 66.88C686.253 68.6933 687.613 70.1067 689.373 71.12C691.133 72.08 693.159 72.56 695.453 72.56C697.426 72.56 699.239 72.2133 700.893 71.52C702.599 70.8267 704.039 69.8133 705.213 68.48L710.813 74.16C708.946 76.3467 706.679 78 704.013 79.12C701.346 80.24 698.519 80.8 695.533 80.8ZM738.107 80.8C734.32 80.8 730.88 79.92 727.787 78.16C724.747 76.4 722.347 74 720.587 70.96C718.827 67.92 717.947 64.5333 717.947 60.8C717.947 57.0133 718.827 53.6267 720.587 50.64C722.347 47.6 724.747 45.2 727.787 43.44C730.88 41.68 734.32 40.8 738.107 40.8C741.094 40.8 743.867 41.3867 746.427 42.56C749.04 43.68 751.254 45.3067 753.067 47.44L747.307 53.28C746.187 51.9467 744.827 50.96 743.227 50.32C741.68 49.6267 739.974 49.28 738.107 49.28C735.92 49.28 733.974 49.7867 732.267 50.8C730.614 51.76 729.307 53.0933 728.347 54.8C727.44 56.5067 726.987 58.5067 726.987 60.8C726.987 63.04 727.44 65.04 728.347 66.8C729.307 68.5067 730.614 69.8667 732.267 70.88C733.974 71.84 735.92 72.32 738.107 72.32C739.974 72.32 741.68 72 743.227 71.36C744.827 70.6667 746.187 69.6533 747.307 68.32L753.067 74.16C751.254 76.2933 749.04 77.9467 746.427 79.12C743.867 80.24 741.094 80.8 738.107 80.8ZM759.491 80V41.6H768.291V80H759.491ZM763.891 34.56C762.398 34.56 761.145 34.0533 760.131 33.04C759.171 32.0267 758.691 30.7733 758.691 29.28C758.691 27.7867 759.171 26.5333 760.131 25.52C761.145 24.5067 762.398 24 763.891 24C765.438 24 766.691 24.5067 767.651 25.52C768.611 26.5333 769.091 27.7867 769.091 29.28C769.091 30.7733 768.611 32.0267 767.651 33.04C766.691 34.0533 765.438 34.56 763.891 34.56ZM778.161 80V41.6H786.961V80H778.161ZM803.681 80V57.12C803.681 54.56 802.881 52.5867 801.281 51.2C799.681 49.76 797.708 49.04 795.361 49.04C793.761 49.04 792.321 49.36 791.041 50C789.815 50.64 788.828 51.5733 788.081 52.8C787.335 53.9733 786.961 55.4133 786.961 57.12L783.521 55.2C783.521 52.2667 784.161 49.7333 785.441 47.6C786.721 45.4667 788.455 43.8133 790.641 42.64C792.828 41.4133 795.281 40.8 798.001 40.8C800.721 40.8 803.175 41.3867 805.361 42.56C807.548 43.7333 809.281 45.3867 810.561 47.52C811.841 49.6533 812.481 52.2133 812.481 55.2V80H803.681ZM829.201 80V57.12C829.201 54.56 828.401 52.5867 826.801 51.2C825.201 49.76 823.228 49.04 820.881 49.04C819.335 49.04 817.921 49.36 816.641 50C815.361 50.64 814.348 51.5733 813.601 52.8C812.855 53.9733 812.481 55.4133 812.481 57.12L807.521 55.2C807.788 52.2667 808.641 49.7333 810.081 47.6C811.521 45.4667 813.361 43.8133 815.601 42.64C817.895 41.4133 820.401 40.8 823.121 40.8C825.895 40.8 828.401 41.3867 830.641 42.56C832.881 43.7333 834.668 45.3867 836.001 47.52C837.335 49.6533 838.001 52.2133 838.001 55.2V80H829.201ZM864.908 80.8C861.068 80.8 857.601 79.9467 854.508 78.24C851.468 76.48 849.041 74.08 847.228 71.04C845.468 68 844.588 64.5867 844.588 60.8C844.588 57.0133 845.468 53.6267 847.228 50.64C848.988 47.6 851.361 45.2 854.348 43.44C857.388 41.68 860.748 40.8 864.428 40.8C868.001 40.8 871.148 41.6267 873.868 43.28C876.641 44.9333 878.801 47.2 880.348 50.08C881.948 52.96 882.748 56.24 882.748 59.92C882.748 60.56 882.694 61.2267 882.587 61.92C882.534 62.56 882.428 63.28 882.268 64.08H850.748V56.88H877.708L874.428 59.76C874.321 57.4133 873.868 55.44 873.068 53.84C872.268 52.24 871.121 51.0133 869.628 50.16C868.188 49.3067 866.401 48.88 864.268 48.88C862.028 48.88 860.081 49.36 858.428 50.32C856.774 51.28 855.494 52.64 854.588 54.4C853.681 56.1067 853.228 58.16 853.228 60.56C853.228 62.96 853.708 65.0667 854.668 66.88C855.628 68.6933 856.988 70.1067 858.748 71.12C860.508 72.08 862.534 72.56 864.828 72.56C866.801 72.56 868.614 72.2133 870.268 71.52C871.974 70.8267 873.414 69.8133 874.588 68.48L880.188 74.16C878.321 76.3467 876.054 78 873.388 79.12C870.721 80.24 867.894 80.8 864.908 80.8ZM916.122 80V57.84C916.122 55.28 915.295 53.1733 913.642 51.52C912.042 49.8667 909.962 49.04 907.402 49.04C905.695 49.04 904.175 49.4133 902.842 50.16C901.509 50.9067 900.469 51.9467 899.722 53.28C898.975 54.6133 898.602 56.1333 898.602 57.84L895.162 55.92C895.162 52.9867 895.802 50.4 897.082 48.16C898.362 45.8667 900.122 44.08 902.362 42.8C904.655 41.4667 907.215 40.8 910.042 40.8C912.922 40.8 915.482 41.5467 917.722 43.04C919.962 44.48 921.722 46.3733 923.002 48.72C924.282 51.0133 924.922 53.4133 924.922 55.92V80H916.122ZM889.802 80V41.6H898.602V80H889.802ZM939.236 80V25.6H948.036V80H939.236ZM930.036 49.6V41.6H957.236V49.6H930.036ZM980.136 80.8C976.403 80.8 973.016 79.92 969.976 78.16C966.936 76.3467 964.51 73.92 962.696 70.88C960.936 67.84 960.056 64.4533 960.056 60.72C960.056 56.9867 960.936 53.6267 962.696 50.64C964.51 47.6533 966.936 45.28 969.976 43.52C973.016 41.7067 976.403 40.8 980.136 40.8C983.923 40.8 987.336 41.68 990.376 43.44C993.416 45.2 995.816 47.6 997.576 50.64C999.39 53.6267 1000.3 56.9867 1000.3 60.72C1000.3 64.4533 999.39 67.84 997.576 70.88C995.816 73.92 993.416 76.3467 990.376 78.16C987.336 79.92 983.923 80.8 980.136 80.8ZM980.136 72.32C982.323 72.32 984.243 71.84 985.896 70.88C987.603 69.8667 988.91 68.48 989.816 66.72C990.776 64.96 991.256 62.96 991.256 60.72C991.256 58.48 990.776 56.5067 989.816 54.8C988.856 53.0933 987.55 51.76 985.896 50.8C984.243 49.7867 982.323 49.28 980.136 49.28C978.003 49.28 976.083 49.7867 974.376 50.8C972.723 51.76 971.416 53.0933 970.456 54.8C969.55 56.5067 969.096 58.48 969.096 60.72C969.096 62.96 969.55 64.96 970.456 66.72C971.416 68.48 972.723 69.8667 974.376 70.88C976.083 71.84 978.003 72.32 980.136 72.32ZM1020.17 80.8C1018.04 80.8 1015.99 80.5333 1014.01 80C1012.04 79.4133 1010.23 78.6133 1008.57 77.6C1006.92 76.5333 1005.48 75.2533 1004.25 73.76L1009.85 68.16C1011.19 69.7067 1012.71 70.88 1014.41 71.68C1016.17 72.4267 1018.15 72.8 1020.33 72.8C1022.31 72.8 1023.8 72.5067 1024.81 71.92C1025.83 71.3333 1026.33 70.48 1026.33 69.36C1026.33 68.1867 1025.85 67.28 1024.89 66.64C1023.93 66 1022.68 65.4667 1021.13 65.04C1019.64 64.56 1018.04 64.08 1016.33 63.6C1014.68 63.12 1013.08 62.48 1011.53 61.68C1010.04 60.8267 1008.81 59.68 1007.85 58.24C1006.89 56.8 1006.41 54.9333 1006.41 52.64C1006.41 50.1867 1006.97 48.08 1008.09 46.32C1009.27 44.56 1010.89 43.2 1012.97 42.24C1015.11 41.28 1017.64 40.8 1020.57 40.8C1023.67 40.8 1026.39 41.36 1028.73 42.48C1031.13 43.5467 1033.13 45.1733 1034.73 47.36L1029.13 52.96C1028.01 51.5733 1026.73 50.5333 1025.29 49.84C1023.85 49.1467 1022.2 48.8 1020.33 48.8C1018.57 48.8 1017.21 49.0667 1016.25 49.6C1015.29 50.1333 1014.81 50.9067 1014.81 51.92C1014.81 52.9867 1015.29 53.8133 1016.25 54.4C1017.21 54.9867 1018.44 55.4933 1019.93 55.92C1021.48 56.3467 1023.08 56.8267 1024.73 57.36C1026.44 57.84 1028.04 58.5333 1029.53 59.44C1031.08 60.2933 1032.33 61.4667 1033.29 62.96C1034.25 64.4 1034.73 66.2933 1034.73 68.64C1034.73 72.3733 1033.43 75.3333 1030.81 77.52C1028.2 79.7067 1024.65 80.8 1020.17 80.8ZM1074.09 80.8C1070.62 80.8 1067.47 79.92 1064.65 78.16C1061.87 76.4 1059.66 74.0267 1058.01 71.04C1056.41 68 1055.61 64.6133 1055.61 60.88C1055.61 57.0933 1056.41 53.7067 1058.01 50.72C1059.66 47.68 1061.87 45.28 1064.65 43.52C1067.47 41.7067 1070.62 40.8 1074.09 40.8C1077.02 40.8 1079.61 41.44 1081.85 42.72C1084.14 43.9467 1085.95 45.6533 1087.29 47.84C1088.62 50.0267 1089.29 52.5067 1089.29 55.28V66.32C1089.29 69.0933 1088.62 71.5733 1087.29 73.76C1086.01 75.9467 1084.22 77.68 1081.93 78.96C1079.63 80.1867 1077.02 80.8 1074.09 80.8ZM1075.53 72.48C1077.71 72.48 1079.61 72 1081.21 71.04C1082.86 70.0267 1084.14 68.64 1085.05 66.88C1085.95 65.12 1086.41 63.0933 1086.41 60.8C1086.41 58.5067 1085.95 56.48 1085.05 54.72C1084.14 52.96 1082.86 51.6 1081.21 50.64C1079.61 49.6267 1077.71 49.12 1075.53 49.12C1073.39 49.12 1071.5 49.6267 1069.85 50.64C1068.25 51.6 1066.97 52.96 1066.01 54.72C1065.1 56.48 1064.65 58.5067 1064.65 60.8C1064.65 63.0933 1065.1 65.12 1066.01 66.88C1066.97 68.64 1068.25 70.0267 1069.85 71.04C1071.5 72 1073.39 72.48 1075.53 72.48ZM1094.65 80H1085.85V69.68L1087.37 60.32L1085.85 51.04V22.4H1094.65V80ZM1122.25 80.8C1118.41 80.8 1114.94 79.9467 1111.85 78.24C1108.81 76.48 1106.38 74.08 1104.57 71.04C1102.81 68 1101.93 64.5867 1101.93 60.8C1101.93 57.0133 1102.81 53.6267 1104.57 50.64C1106.33 47.6 1108.7 45.2 1111.69 43.44C1114.73 41.68 1118.09 40.8 1121.77 40.8C1125.34 40.8 1128.49 41.6267 1131.21 43.28C1133.98 44.9333 1136.14 47.2 1137.69 50.08C1139.29 52.96 1140.09 56.24 1140.09 59.92C1140.09 60.56 1140.04 61.2267 1139.93 61.92C1139.88 62.56 1139.77 63.28 1139.61 64.08H1108.09V56.88H1135.05L1131.77 59.76C1131.66 57.4133 1131.21 55.44 1130.41 53.84C1129.61 52.24 1128.46 51.0133 1126.97 50.16C1125.53 49.3067 1123.74 48.88 1121.61 48.88C1119.37 48.88 1117.42 49.36 1115.77 50.32C1114.12 51.28 1112.84 52.64 1111.93 54.4C1111.02 56.1067 1110.57 58.16 1110.57 60.56C1110.57 62.96 1111.05 65.0667 1112.01 66.88C1112.97 68.6933 1114.33 70.1067 1116.09 71.12C1117.85 72.08 1119.88 72.56 1122.17 72.56C1124.14 72.56 1125.96 72.2133 1127.61 71.52C1129.32 70.8267 1130.76 69.8133 1131.93 68.48L1137.53 74.16C1135.66 76.3467 1133.4 78 1130.73 79.12C1128.06 80.24 1125.24 80.8 1122.25 80.8ZM1179.96 80.8C1175.53 80.8 1171.77 80 1168.68 78.4C1165.59 76.8 1162.81 74.4533 1160.36 71.36L1166.6 65.12C1168.15 67.36 1169.99 69.12 1172.12 70.4C1174.25 71.6267 1176.97 72.24 1180.28 72.24C1183.37 72.24 1185.83 71.6 1187.64 70.32C1189.51 69.04 1190.44 67.28 1190.44 65.04C1190.44 63.1733 1189.96 61.6533 1189 60.48C1188.04 59.3067 1186.76 58.3467 1185.16 57.6C1183.61 56.8 1181.88 56.1067 1179.96 55.52C1178.09 54.88 1176.2 54.1867 1174.28 53.44C1172.41 52.64 1170.68 51.6533 1169.08 50.48C1167.53 49.3067 1166.28 47.7867 1165.32 45.92C1164.36 44.0533 1163.88 41.68 1163.88 38.8C1163.88 35.4933 1164.68 32.6933 1166.28 30.4C1167.93 28.0533 1170.15 26.2667 1172.92 25.04C1175.69 23.8133 1178.79 23.2 1182.2 23.2C1185.88 23.2 1189.16 23.92 1192.04 25.36C1194.97 26.8 1197.35 28.64 1199.16 30.88L1192.92 37.12C1191.32 35.3067 1189.64 33.9733 1187.88 33.12C1186.17 32.2133 1184.2 31.76 1181.96 31.76C1179.19 31.76 1177 32.32 1175.4 33.44C1173.85 34.56 1173.08 36.1333 1173.08 38.16C1173.08 39.8667 1173.56 41.2533 1174.52 42.32C1175.48 43.3333 1176.73 44.2133 1178.28 44.96C1179.88 45.6533 1181.61 46.32 1183.48 46.96C1185.4 47.6 1187.29 48.32 1189.16 49.12C1191.08 49.92 1192.81 50.96 1194.36 52.24C1195.96 53.4667 1197.24 55.0667 1198.2 57.04C1199.16 59.0133 1199.64 61.4933 1199.64 64.48C1199.64 69.4933 1197.85 73.4667 1194.28 76.4C1190.76 79.3333 1185.99 80.8 1179.96 80.8ZM1223.23 80.8C1219.76 80.8 1216.61 79.92 1213.79 78.16C1211.01 76.4 1208.8 74.0267 1207.15 71.04C1205.55 68 1204.75 64.6133 1204.75 60.88C1204.75 57.0933 1205.55 53.7067 1207.15 50.72C1208.8 47.68 1211.01 45.28 1213.79 43.52C1216.61 41.7067 1219.76 40.8 1223.23 40.8C1226.16 40.8 1228.75 41.44 1230.99 42.72C1233.28 43.9467 1235.09 45.6533 1236.43 47.84C1237.76 50.0267 1238.43 52.5067 1238.43 55.28V66.32C1238.43 69.0933 1237.76 71.5733 1236.43 73.76C1235.15 75.9467 1233.36 77.68 1231.07 78.96C1228.77 80.1867 1226.16 80.8 1223.23 80.8ZM1224.67 72.48C1227.92 72.48 1230.53 71.3867 1232.51 69.2C1234.53 67.0133 1235.55 64.2133 1235.55 60.8C1235.55 58.5067 1235.09 56.48 1234.19 54.72C1233.28 52.96 1232 51.6 1230.35 50.64C1228.75 49.6267 1226.85 49.12 1224.67 49.12C1222.53 49.12 1220.64 49.6267 1218.99 50.64C1217.39 51.6 1216.11 52.96 1215.15 54.72C1214.24 56.48 1213.79 58.5067 1213.79 60.8C1213.79 63.0933 1214.24 65.12 1215.15 66.88C1216.11 68.64 1217.39 70.0267 1218.99 71.04C1220.64 72 1222.53 72.48 1224.67 72.48ZM1234.99 80V69.68L1236.51 60.32L1234.99 51.04V41.6H1243.79V80H1234.99ZM1269.31 80.8C1266.06 80.8 1263.15 80.08 1260.59 78.64C1258.09 77.2 1256.11 75.2267 1254.67 72.72C1253.29 70.16 1252.59 67.2267 1252.59 63.92V41.6H1261.39V63.52C1261.39 65.3867 1261.69 66.9867 1262.27 68.32C1262.91 69.6 1263.82 70.5867 1264.99 71.28C1266.22 71.9733 1267.66 72.32 1269.31 72.32C1271.87 72.32 1273.82 71.5733 1275.15 70.08C1276.54 68.5333 1277.23 66.3467 1277.23 63.52V41.6H1286.03V63.92C1286.03 67.28 1285.31 70.24 1283.87 72.8C1282.49 75.3067 1280.54 77.28 1278.03 78.72C1275.53 80.1067 1272.62 80.8 1269.31 80.8ZM1264.83 36.08L1260.83 32.08L1271.07 19.04L1277.87 25.84L1264.83 36.08ZM1310.96 80.8C1307.49 80.8 1304.35 79.92 1301.52 78.16C1298.75 76.4 1296.53 74.0267 1294.88 71.04C1293.28 68 1292.48 64.6133 1292.48 60.88C1292.48 57.0933 1293.28 53.7067 1294.88 50.72C1296.53 47.68 1298.75 45.28 1301.52 43.52C1304.35 41.7067 1307.49 40.8 1310.96 40.8C1313.89 40.8 1316.48 41.44 1318.72 42.72C1321.01 43.9467 1322.83 45.6533 1324.16 47.84C1325.49 50.0267 1326.16 52.5067 1326.16 55.28V66.32C1326.16 69.0933 1325.49 71.5733 1324.16 73.76C1322.88 75.9467 1321.09 77.68 1318.8 78.96C1316.51 80.1867 1313.89 80.8 1310.96 80.8ZM1312.4 72.48C1314.59 72.48 1316.48 72 1318.08 71.04C1319.73 70.0267 1321.01 68.64 1321.92 66.88C1322.83 65.12 1323.28 63.0933 1323.28 60.8C1323.28 58.5067 1322.83 56.48 1321.92 54.72C1321.01 52.96 1319.73 51.6 1318.08 50.64C1316.48 49.6267 1314.59 49.12 1312.4 49.12C1310.27 49.12 1308.37 49.6267 1306.72 50.64C1305.12 51.6 1303.84 52.96 1302.88 54.72C1301.97 56.48 1301.52 58.5067 1301.52 60.8C1301.52 63.0933 1301.97 65.12 1302.88 66.88C1303.84 68.64 1305.12 70.0267 1306.72 71.04C1308.37 72 1310.27 72.48 1312.4 72.48ZM1331.52 80H1322.72V69.68L1324.24 60.32L1322.72 51.04V22.4H1331.52V80ZM1359.13 80.8C1355.29 80.8 1351.82 79.9467 1348.73 78.24C1345.69 76.48 1343.26 74.08 1341.45 71.04C1339.69 68 1338.81 64.5867 1338.81 60.8C1338.81 57.0133 1339.69 53.6267 1341.45 50.64C1343.21 47.6 1345.58 45.2 1348.57 43.44C1351.61 41.68 1354.97 40.8 1358.65 40.8C1362.22 40.8 1365.37 41.6267 1368.09 43.28C1370.86 44.9333 1373.02 47.2 1374.57 50.08C1376.17 52.96 1376.97 56.24 1376.97 59.92C1376.97 60.56 1376.91 61.2267 1376.81 61.92C1376.75 62.56 1376.65 63.28 1376.49 64.08H1344.97V56.88H1371.93L1368.65 59.76C1368.54 57.4133 1368.09 55.44 1367.29 53.84C1366.49 52.24 1365.34 51.0133 1363.85 50.16C1362.41 49.3067 1360.62 48.88 1358.49 48.88C1356.25 48.88 1354.3 49.36 1352.65 50.32C1350.99 51.28 1349.71 52.64 1348.81 54.4C1347.9 56.1067 1347.45 58.16 1347.45 60.56C1347.45 62.96 1347.93 65.0667 1348.89 66.88C1349.85 68.6933 1351.21 70.1067 1352.97 71.12C1354.73 72.08 1356.75 72.56 1359.05 72.56C1361.02 72.56 1362.83 72.2133 1364.49 71.52C1366.19 70.8267 1367.63 69.8133 1368.81 68.48L1374.41 74.16C1372.54 76.3467 1370.27 78 1367.61 79.12C1364.94 80.24 1362.11 80.8 1359.13 80.8ZM1420.6 80.8C1417.66 80.8 1415.05 80.1867 1412.76 78.96C1410.46 77.68 1408.65 75.9467 1407.32 73.76C1406.04 71.5733 1405.4 69.0933 1405.4 66.32V55.28C1405.4 52.5067 1406.06 50.0267 1407.4 47.84C1408.73 45.6533 1410.54 43.9467 1412.84 42.72C1415.13 41.44 1417.72 40.8 1420.6 40.8C1424.06 40.8 1427.18 41.7067 1429.96 43.52C1432.78 45.28 1435 47.68 1436.6 50.72C1438.25 53.7067 1439.08 57.0933 1439.08 60.88C1439.08 64.6133 1438.25 68 1436.6 71.04C1435 74.0267 1432.78 76.4 1429.96 78.16C1427.18 79.92 1424.06 80.8 1420.6 80.8ZM1400.04 96V41.6H1408.84V51.92L1407.32 61.28L1408.84 70.56V96H1400.04ZM1419.16 72.48C1421.29 72.48 1423.16 72 1424.76 71.04C1426.41 70.0267 1427.69 68.64 1428.6 66.88C1429.56 65.12 1430.04 63.0933 1430.04 60.8C1430.04 58.5067 1429.56 56.48 1428.6 54.72C1427.69 52.96 1426.41 51.6 1424.76 50.64C1423.16 49.6267 1421.29 49.12 1419.16 49.12C1417.02 49.12 1415.13 49.6267 1413.48 50.64C1411.82 51.6 1410.54 52.96 1409.64 54.72C1408.73 56.48 1408.28 58.5067 1408.28 60.8C1408.28 63.0933 1408.73 65.12 1409.64 66.88C1410.54 68.64 1411.82 70.0267 1413.48 71.04C1415.13 72 1417.02 72.48 1419.16 72.48ZM1464.04 80.8C1460.31 80.8 1456.92 79.92 1453.88 78.16C1450.84 76.3467 1448.42 73.92 1446.6 70.88C1444.84 67.84 1443.96 64.4533 1443.96 60.72C1443.96 56.9867 1444.84 53.6267 1446.6 50.64C1448.42 47.6533 1450.84 45.28 1453.88 43.52C1456.92 41.7067 1460.31 40.8 1464.04 40.8C1467.83 40.8 1471.24 41.68 1474.28 43.44C1477.32 45.2 1479.72 47.6 1481.48 50.64C1483.3 53.6267 1484.2 56.9867 1484.2 60.72C1484.2 64.4533 1483.3 67.84 1481.48 70.88C1479.72 73.92 1477.32 76.3467 1474.28 78.16C1471.24 79.92 1467.83 80.8 1464.04 80.8ZM1464.04 72.32C1466.23 72.32 1468.15 71.84 1469.8 70.88C1471.51 69.8667 1472.82 68.48 1473.72 66.72C1474.68 64.96 1475.16 62.96 1475.16 60.72C1475.16 58.48 1474.68 56.5067 1473.72 54.8C1472.76 53.0933 1471.46 51.76 1469.8 50.8C1468.15 49.7867 1466.23 49.28 1464.04 49.28C1461.91 49.28 1459.99 49.7867 1458.28 50.8C1456.63 51.76 1455.32 53.0933 1454.36 54.8C1453.46 56.5067 1453 58.48 1453 60.72C1453 62.96 1453.46 64.96 1454.36 66.72C1455.32 68.48 1456.63 69.8667 1458.28 70.88C1459.99 71.84 1461.91 72.32 1464.04 72.32ZM1491.52 80V41.6H1500.32V80H1491.52ZM1500.32 58.64L1497.28 57.12C1497.28 52.2667 1498.35 48.3467 1500.48 45.36C1502.67 42.32 1505.95 40.8 1510.32 40.8C1512.24 40.8 1513.97 41.1467 1515.52 41.84C1517.07 42.5333 1518.51 43.6533 1519.84 45.2L1514.08 51.12C1513.39 50.3733 1512.61 49.84 1511.76 49.52C1510.91 49.2 1509.92 49.04 1508.8 49.04C1506.35 49.04 1504.32 49.8133 1502.72 51.36C1501.12 52.9067 1500.32 55.3333 1500.32 58.64ZM1555.55 80V25.6H1564.75V80H1555.55ZM1537.31 32.4V24H1582.99V32.4H1537.31ZM1589.88 80V41.6H1598.68V80H1589.88ZM1594.28 34.56C1592.79 34.56 1591.54 34.0533 1590.52 33.04C1589.56 32.0267 1589.08 30.7733 1589.08 29.28C1589.08 27.7867 1589.56 26.5333 1590.52 25.52C1591.54 24.5067 1592.79 24 1594.28 24C1595.83 24 1597.08 24.5067 1598.04 25.52C1599 26.5333 1599.48 27.7867 1599.48 29.28C1599.48 30.7733 1599 32.0267 1598.04 33.04C1597.08 34.0533 1595.83 34.56 1594.28 34.56ZM1629.11 80.8C1626.18 80.8 1623.57 80.1867 1621.27 78.96C1618.98 77.68 1617.17 75.9467 1615.83 73.76C1614.55 71.5733 1613.91 69.0933 1613.91 66.32V55.28C1613.91 52.5067 1614.58 50.0267 1615.91 47.84C1617.25 45.6533 1619.06 43.9467 1621.35 42.72C1623.65 41.44 1626.23 40.8 1629.11 40.8C1632.58 40.8 1635.7 41.7067 1638.47 43.52C1641.3 45.28 1643.51 47.68 1645.11 50.72C1646.77 53.7067 1647.59 57.0933 1647.59 60.88C1647.59 64.6133 1646.77 68 1645.11 71.04C1643.51 74.0267 1641.3 76.4 1638.47 78.16C1635.7 79.92 1632.58 80.8 1629.11 80.8ZM1608.55 96V41.6H1617.35V51.92L1615.83 61.28L1617.35 70.56V96H1608.55ZM1627.67 72.48C1629.81 72.48 1631.67 72 1633.27 71.04C1634.93 70.0267 1636.21 68.64 1637.11 66.88C1638.07 65.12 1638.55 63.0933 1638.55 60.8C1638.55 58.5067 1638.07 56.48 1637.11 54.72C1636.21 52.96 1634.93 51.6 1633.27 50.64C1631.67 49.6267 1629.81 49.12 1627.67 49.12C1625.54 49.12 1623.65 49.6267 1621.99 50.64C1620.34 51.6 1619.06 52.96 1618.15 54.72C1617.25 56.48 1616.79 58.5067 1616.79 60.8C1616.79 63.0933 1617.25 65.12 1618.15 66.88C1619.06 68.64 1620.34 70.0267 1621.99 71.04C1623.65 72 1625.54 72.48 1627.67 72.48ZM1672.56 80.8C1668.82 80.8 1665.44 79.92 1662.4 78.16C1659.36 76.3467 1656.93 73.92 1655.12 70.88C1653.36 67.84 1652.48 64.4533 1652.48 60.72C1652.48 56.9867 1653.36 53.6267 1655.12 50.64C1656.93 47.6533 1659.36 45.28 1662.4 43.52C1665.44 41.7067 1668.82 40.8 1672.56 40.8C1676.34 40.8 1679.76 41.68 1682.8 43.44C1685.84 45.2 1688.24 47.6 1690 50.64C1691.81 53.6267 1692.72 56.9867 1692.72 60.72C1692.72 64.4533 1691.81 67.84 1690 70.88C1688.24 73.92 1685.84 76.3467 1682.8 78.16C1679.76 79.92 1676.34 80.8 1672.56 80.8ZM1672.56 72.32C1674.74 72.32 1676.66 71.84 1678.32 70.88C1680.02 69.8667 1681.33 68.48 1682.24 66.72C1683.2 64.96 1683.68 62.96 1683.68 60.72C1683.68 58.48 1683.2 56.5067 1682.24 54.8C1681.28 53.0933 1679.97 51.76 1678.32 50.8C1676.66 49.7867 1674.74 49.28 1672.56 49.28C1670.42 49.28 1668.5 49.7867 1666.8 50.8C1665.14 51.76 1663.84 53.0933 1662.88 54.8C1661.97 56.5067 1661.52 58.48 1661.52 60.72C1661.52 62.96 1661.97 64.96 1662.88 66.72C1663.84 68.48 1665.14 69.8667 1666.8 70.88C1668.5 71.84 1670.42 72.32 1672.56 72.32Z" fill="#39762A"/>
</svg>
