<svg width="4134" height="131" viewBox="0 0 4134 131" fill="none" xmlns="http://www.w3.org/2000/svg">
<path d="M6.08 80V24H15.28V80H6.08ZM12.4 80V71.6H43.76V80H12.4ZM12.4 55.44V47.36H41.04V55.44H12.4ZM12.4 32.4V24H43.36V32.4H12.4ZM65.0275 80L47.5075 41.6H57.2675L70.6275 72.88H64.8675L78.3075 41.6H87.6675L70.1475 80H65.0275ZM109.121 80.8C105.387 80.8 102.001 79.92 98.9606 78.16C95.9206 76.3467 93.494 73.92 91.6806 70.88C89.9206 67.84 89.0406 64.4533 89.0406 60.72C89.0406 56.9867 89.9206 53.6267 91.6806 50.64C93.494 47.6533 95.9206 45.28 98.9606 43.52C102.001 41.7067 105.387 40.8 109.121 40.8C112.907 40.8 116.321 41.68 119.361 43.44C122.401 45.2 124.801 47.6 126.561 50.64C128.374 53.6267 129.281 56.9867 129.281 60.72C129.281 64.4533 128.374 67.84 126.561 70.88C124.801 73.92 122.401 76.3467 119.361 78.16C116.321 79.92 112.907 80.8 109.121 80.8ZM109.121 72.32C111.307 72.32 113.227 71.84 114.881 70.88C116.587 69.8667 117.894 68.48 118.801 66.72C119.761 64.96 120.241 62.96 120.241 60.72C120.241 58.48 119.761 56.5067 118.801 54.8C117.841 53.0933 116.534 51.76 114.881 50.8C113.227 49.7867 111.307 49.28 109.121 49.28C106.987 49.28 105.067 49.7867 103.361 50.8C101.707 51.76 100.401 53.0933 99.4406 54.8C98.534 56.5067 98.0806 58.48 98.0806 60.72C98.0806 62.96 98.534 64.96 99.4406 66.72C100.401 68.48 101.707 69.8667 103.361 70.88C105.067 71.84 106.987 72.32 109.121 72.32ZM136.599 80V22.4H145.399V80H136.599ZM170.953 80.8C167.699 80.8 164.793 80.08 162.233 78.64C159.726 77.2 157.753 75.2267 156.313 72.72C154.926 70.16 154.233 67.2267 154.233 63.92V41.6H163.033V63.52C163.033 65.3867 163.326 66.9867 163.913 68.32C164.553 69.6 165.459 70.5867 166.633 71.28C167.859 71.9733 169.299 72.32 170.953 72.32C173.513 72.32 175.459 71.5733 176.793 70.08C178.179 68.5333 178.873 66.3467 178.873 63.52V41.6H187.673V63.92C187.673 67.28 186.953 70.24 185.513 72.8C184.126 75.3067 182.179 77.28 179.673 78.72C177.166 80.1067 174.259 80.8 170.953 80.8ZM214.201 80.8C210.414 80.8 206.974 79.92 203.881 78.16C200.841 76.4 198.441 74 196.681 70.96C194.921 67.92 194.041 64.5333 194.041 60.8C194.041 57.0133 194.921 53.6267 196.681 50.64C198.441 47.6 200.841 45.2 203.881 43.44C206.974 41.68 210.414 40.8 214.201 40.8C217.187 40.8 219.961 41.3867 222.521 42.56C225.134 43.68 227.347 45.3067 229.161 47.44L223.401 53.28C222.281 51.9467 220.921 50.96 219.321 50.32C217.774 49.6267 216.067 49.28 214.201 49.28C212.014 49.28 210.067 49.7867 208.361 50.8C206.707 51.76 205.401 53.0933 204.441 54.8C203.534 56.5067 203.081 58.5067 203.081 60.8C203.081 63.04 203.534 65.04 204.441 66.8C205.401 68.5067 206.707 69.8667 208.361 70.88C210.067 71.84 212.014 72.32 214.201 72.32C216.067 72.32 217.774 72 219.321 71.36C220.921 70.6667 222.281 69.6533 223.401 68.32L229.161 74.16C227.347 76.2933 225.134 77.9467 222.521 79.12C219.961 80.24 217.187 80.8 214.201 80.8ZM211.721 96.8C209.747 96.8 208.014 96.56 206.521 96.08C205.027 95.6 203.587 94.9067 202.201 94L205.801 89.44C206.387 89.9733 207.107 90.4 207.961 90.72C208.814 91.0933 209.854 91.28 211.081 91.28C212.467 91.28 213.454 91.0933 214.041 90.72C214.681 90.3467 215.001 89.8933 215.001 89.36C215.001 88.7733 214.707 88.24 214.121 87.76C213.587 87.3333 212.707 87.12 211.481 87.12H207.321L209.961 78.88H216.361L214.441 84.64L211.241 82.24C214.547 82.1333 217.214 82.7733 219.241 84.16C221.267 85.6 222.281 87.3867 222.281 89.52C222.281 91.6 221.294 93.3333 219.321 94.72C217.401 96.1067 214.867 96.8 211.721 96.8ZM250.804 80.8C247.337 80.8 244.19 79.92 241.364 78.16C238.59 76.4 236.377 74.0267 234.724 71.04C233.124 68 232.324 64.6133 232.324 60.88C232.324 57.0933 233.124 53.7067 234.724 50.72C236.377 47.68 238.59 45.28 241.364 43.52C244.19 41.7067 247.337 40.8 250.804 40.8C253.737 40.8 256.324 41.44 258.564 42.72C260.857 43.9467 262.67 45.6533 264.004 47.84C265.337 50.0267 266.004 52.5067 266.004 55.28V66.32C266.004 69.0933 265.337 71.5733 264.004 73.76C262.724 75.9467 260.937 77.68 258.644 78.96C256.35 80.1867 253.737 80.8 250.804 80.8ZM252.244 72.48C255.497 72.48 258.11 71.3867 260.084 69.2C262.11 67.0133 263.124 64.2133 263.124 60.8C263.124 58.5067 262.67 56.48 261.764 54.72C260.857 52.96 259.577 51.6 257.924 50.64C256.324 49.6267 254.43 49.12 252.244 49.12C250.11 49.12 248.217 49.6267 246.564 50.64C244.964 51.6 243.684 52.96 242.724 54.72C241.817 56.48 241.364 58.5067 241.364 60.8C241.364 63.0933 241.817 65.12 242.724 66.88C243.684 68.64 244.964 70.0267 246.564 71.04C248.217 72 250.11 72.48 252.244 72.48ZM262.564 80V69.68L264.084 60.32L262.564 51.04V41.6H271.364V80H262.564ZM258.804 36.08C257.044 36.08 255.55 35.76 254.324 35.12C253.097 34.48 251.95 33.8667 250.884 33.28C249.87 32.64 248.724 32.32 247.444 32.32C246.11 32.32 245.044 32.56 244.244 33.04C243.444 33.52 242.67 34.24 241.924 35.2L237.204 30.48C238.75 28.72 240.297 27.3333 241.844 26.32C243.39 25.2533 245.204 24.72 247.284 24.72C249.044 24.72 250.537 25.04 251.764 25.68C252.99 26.2667 254.137 26.88 255.204 27.52C256.27 28.16 257.417 28.48 258.644 28.48C260.03 28.48 261.124 28.24 261.924 27.76C262.724 27.28 263.47 26.56 264.164 25.6L268.884 30.32C267.337 32.08 265.79 33.4933 264.244 34.56C262.697 35.5733 260.884 36.08 258.804 36.08ZM298.73 80.8C294.997 80.8 291.61 79.92 288.57 78.16C285.53 76.3467 283.103 73.92 281.29 70.88C279.53 67.84 278.65 64.4533 278.65 60.72C278.65 56.9867 279.53 53.6267 281.29 50.64C283.103 47.6533 285.53 45.28 288.57 43.52C291.61 41.7067 294.997 40.8 298.73 40.8C302.517 40.8 305.93 41.68 308.97 43.44C312.01 45.2 314.41 47.6 316.17 50.64C317.983 53.6267 318.89 56.9867 318.89 60.72C318.89 64.4533 317.983 67.84 316.17 70.88C314.41 73.92 312.01 76.3467 308.97 78.16C305.93 79.92 302.517 80.8 298.73 80.8ZM298.73 72.32C300.917 72.32 302.837 71.84 304.49 70.88C306.197 69.8667 307.503 68.48 308.41 66.72C309.37 64.96 309.85 62.96 309.85 60.72C309.85 58.48 309.37 56.5067 308.41 54.8C307.45 53.0933 306.143 51.76 304.49 50.8C302.837 49.7867 300.917 49.28 298.73 49.28C296.597 49.28 294.677 49.7867 292.97 50.8C291.317 51.76 290.01 53.0933 289.05 54.8C288.143 56.5067 287.69 58.48 287.69 60.72C287.69 62.96 288.143 64.96 289.05 66.72C290.01 68.48 291.317 69.8667 292.97 70.88C294.677 71.84 296.597 72.32 298.73 72.32ZM358.304 80.8C354.837 80.8 351.69 79.92 348.864 78.16C346.09 76.4 343.877 74.0267 342.224 71.04C340.624 68 339.824 64.6133 339.824 60.88C339.824 57.0933 340.624 53.7067 342.224 50.72C343.877 47.68 346.09 45.28 348.864 43.52C351.69 41.7067 354.837 40.8 358.304 40.8C361.237 40.8 363.824 41.44 366.064 42.72C368.357 43.9467 370.17 45.6533 371.504 47.84C372.837 50.0267 373.504 52.5067 373.504 55.28V66.32C373.504 69.0933 372.837 71.5733 371.504 73.76C370.224 75.9467 368.437 77.68 366.144 78.96C363.85 80.1867 361.237 80.8 358.304 80.8ZM359.744 72.48C361.93 72.48 363.824 72 365.424 71.04C367.077 70.0267 368.357 68.64 369.264 66.88C370.17 65.12 370.624 63.0933 370.624 60.8C370.624 58.5067 370.17 56.48 369.264 54.72C368.357 52.96 367.077 51.6 365.424 50.64C363.824 49.6267 361.93 49.12 359.744 49.12C357.61 49.12 355.717 49.6267 354.064 50.64C352.464 51.6 351.184 52.96 350.224 54.72C349.317 56.48 348.864 58.5067 348.864 60.8C348.864 63.0933 349.317 65.12 350.224 66.88C351.184 68.64 352.464 70.0267 354.064 71.04C355.717 72 357.61 72.48 359.744 72.48ZM378.864 80H370.064V69.68L371.584 60.32L370.064 51.04V22.4H378.864V80ZM404.71 80.8C401.243 80.8 398.097 79.92 395.27 78.16C392.497 76.4 390.283 74.0267 388.63 71.04C387.03 68 386.23 64.6133 386.23 60.88C386.23 57.0933 387.03 53.7067 388.63 50.72C390.283 47.68 392.497 45.28 395.27 43.52C398.097 41.7067 401.243 40.8 404.71 40.8C407.643 40.8 410.23 41.44 412.47 42.72C414.763 43.9467 416.577 45.6533 417.91 47.84C419.243 50.0267 419.91 52.5067 419.91 55.28V66.32C419.91 69.0933 419.243 71.5733 417.91 73.76C416.63 75.9467 414.843 77.68 412.55 78.96C410.257 80.1867 407.643 80.8 404.71 80.8ZM406.15 72.48C409.403 72.48 412.017 71.3867 413.99 69.2C416.017 67.0133 417.03 64.2133 417.03 60.8C417.03 58.5067 416.577 56.48 415.67 54.72C414.763 52.96 413.483 51.6 411.83 50.64C410.23 49.6267 408.337 49.12 406.15 49.12C404.017 49.12 402.123 49.6267 400.47 50.64C398.87 51.6 397.59 52.96 396.63 54.72C395.723 56.48 395.27 58.5067 395.27 60.8C395.27 63.0933 395.723 65.12 396.63 66.88C397.59 68.64 398.87 70.0267 400.47 71.04C402.123 72 404.017 72.48 406.15 72.48ZM416.47 80V69.68L417.99 60.32L416.47 51.04V41.6H425.27V80H416.47ZM465.082 80V25.6H474.282V80H465.082ZM446.842 32.4V24H492.522V32.4H446.842ZM505.491 80.8C502.025 80.8 498.878 79.92 496.051 78.16C493.278 76.4 491.065 74.0267 489.411 71.04C487.811 68 487.011 64.6133 487.011 60.88C487.011 57.0933 487.811 53.7067 489.411 50.72C491.065 47.68 493.278 45.28 496.051 43.52C498.878 41.7067 502.025 40.8 505.491 40.8C508.425 40.8 511.011 41.44 513.251 42.72C515.545 43.9467 517.358 45.6533 518.691 47.84C520.025 50.0267 520.691 52.5067 520.691 55.28V66.32C520.691 69.0933 520.025 71.5733 518.691 73.76C517.411 75.9467 515.625 77.68 513.331 78.96C511.038 80.1867 508.425 80.8 505.491 80.8ZM506.931 72.48C510.185 72.48 512.798 71.3867 514.771 69.2C516.798 67.0133 517.811 64.2133 517.811 60.8C517.811 58.5067 517.358 56.48 516.451 54.72C515.545 52.96 514.265 51.6 512.611 50.64C511.011 49.6267 509.118 49.12 506.931 49.12C504.798 49.12 502.905 49.6267 501.251 50.64C499.651 51.6 498.371 52.96 497.411 54.72C496.505 56.48 496.051 58.5067 496.051 60.8C496.051 63.0933 496.505 65.12 497.411 66.88C498.371 68.64 499.651 70.0267 501.251 71.04C502.905 72 504.798 72.48 506.931 72.48ZM517.251 80V69.68L518.771 60.32L517.251 51.04V41.6H526.051V80H517.251ZM560.138 80L549.098 63.76L547.498 62.32L532.618 41.6H543.258L553.098 55.84L554.618 57.2L570.698 80H560.138ZM531.898 80L547.418 58.48L552.538 64.8L542.138 80H531.898ZM555.418 62.16L550.218 55.92L559.818 41.6H569.978L555.418 62.16ZM591.507 80.8C588.04 80.8 584.894 79.92 582.067 78.16C579.294 76.4 577.08 74.0267 575.427 71.04C573.827 68 573.027 64.6133 573.027 60.88C573.027 57.0933 573.827 53.7067 575.427 50.72C577.08 47.68 579.294 45.28 582.067 43.52C584.894 41.7067 588.04 40.8 591.507 40.8C594.44 40.8 597.027 41.44 599.267 42.72C601.56 43.9467 603.374 45.6533 604.707 47.84C606.04 50.0267 606.707 52.5067 606.707 55.28V66.32C606.707 69.0933 606.04 71.5733 604.707 73.76C603.427 75.9467 601.64 77.68 599.347 78.96C597.054 80.1867 594.44 80.8 591.507 80.8ZM592.947 72.48C596.2 72.48 598.814 71.3867 600.787 69.2C602.814 67.0133 603.827 64.2133 603.827 60.8C603.827 58.5067 603.374 56.48 602.467 54.72C601.56 52.96 600.28 51.6 598.627 50.64C597.027 49.6267 595.134 49.12 592.947 49.12C590.814 49.12 588.92 49.6267 587.267 50.64C585.667 51.6 584.387 52.96 583.427 54.72C582.52 56.48 582.067 58.5067 582.067 60.8C582.067 63.0933 582.52 65.12 583.427 66.88C584.387 68.64 585.667 70.0267 587.267 71.04C588.92 72 590.814 72.48 592.947 72.48ZM603.267 80V69.68L604.787 60.32L603.267 51.04V41.6H612.067V80H603.267ZM653.929 80.8C650.462 80.8 647.315 79.92 644.489 78.16C641.715 76.4 639.502 74.0267 637.849 71.04C636.249 68 635.449 64.6133 635.449 60.88C635.449 57.0933 636.249 53.7067 637.849 50.72C639.502 47.68 641.715 45.28 644.489 43.52C647.315 41.7067 650.462 40.8 653.929 40.8C656.862 40.8 659.449 41.44 661.689 42.72C663.982 43.9467 665.795 45.6533 667.129 47.84C668.462 50.0267 669.129 52.5067 669.129 55.28V66.32C669.129 69.0933 668.462 71.5733 667.129 73.76C665.849 75.9467 664.062 77.68 661.769 78.96C659.475 80.1867 656.862 80.8 653.929 80.8ZM655.369 72.48C657.555 72.48 659.449 72 661.049 71.04C662.702 70.0267 663.982 68.64 664.889 66.88C665.795 65.12 666.249 63.0933 666.249 60.8C666.249 58.5067 665.795 56.48 664.889 54.72C663.982 52.96 662.702 51.6 661.049 50.64C659.449 49.6267 657.555 49.12 655.369 49.12C653.235 49.12 651.342 49.6267 649.689 50.64C648.089 51.6 646.809 52.96 645.849 54.72C644.942 56.48 644.489 58.5067 644.489 60.8C644.489 63.0933 644.942 65.12 645.849 66.88C646.809 68.64 648.089 70.0267 649.689 71.04C651.342 72 653.235 72.48 655.369 72.48ZM674.489 80H665.689V69.68L667.209 60.32L665.689 51.04V22.4H674.489V80ZM702.095 80.8C698.255 80.8 694.788 79.9467 691.695 78.24C688.655 76.48 686.228 74.08 684.415 71.04C682.655 68 681.775 64.5867 681.775 60.8C681.775 57.0133 682.655 53.6267 684.415 50.64C686.175 47.6 688.548 45.2 691.535 43.44C694.575 41.68 697.935 40.8 701.615 40.8C705.188 40.8 708.335 41.6267 711.055 43.28C713.828 44.9333 715.988 47.2 717.535 50.08C719.135 52.96 719.935 56.24 719.935 59.92C719.935 60.56 719.882 61.2267 719.775 61.92C719.722 62.56 719.615 63.28 719.455 64.08H687.935V56.88H714.895L711.615 59.76C711.508 57.4133 711.055 55.44 710.255 53.84C709.455 52.24 708.308 51.0133 706.815 50.16C705.375 49.3067 703.588 48.88 701.455 48.88C699.215 48.88 697.268 49.36 695.615 50.32C693.962 51.28 692.682 52.64 691.775 54.4C690.868 56.1067 690.415 58.16 690.415 60.56C690.415 62.96 690.895 65.0667 691.855 66.88C692.815 68.6933 694.175 70.1067 695.935 71.12C697.695 72.08 699.722 72.56 702.015 72.56C703.988 72.56 705.802 72.2133 707.455 71.52C709.162 70.8267 710.602 69.8133 711.775 68.48L717.375 74.16C715.508 76.3467 713.242 78 710.575 79.12C707.908 80.24 705.082 80.8 702.095 80.8ZM744.205 80V24H753.405V80H744.205ZM790.653 80V57.84C790.653 55.28 789.826 53.1733 788.173 51.52C786.573 49.8667 784.493 49.04 781.933 49.04C780.226 49.04 778.706 49.4133 777.373 50.16C776.04 50.9067 775 51.9467 774.253 53.28C773.506 54.6133 773.133 56.1333 773.133 57.84L769.693 55.92C769.693 52.9867 770.333 50.4 771.613 48.16C772.893 45.8667 774.653 44.08 776.893 42.8C779.186 41.4667 781.746 40.8 784.573 40.8C787.453 40.8 790.013 41.5467 792.253 43.04C794.493 44.48 796.253 46.3733 797.533 48.72C798.813 51.0133 799.453 53.4133 799.453 55.92V80H790.653ZM764.333 80V41.6H773.133V80H764.333ZM813.767 80V25.6H822.567V80H813.767ZM804.567 49.6V41.6H831.767V49.6H804.567ZM854.908 80.8C851.068 80.8 847.601 79.9467 844.508 78.24C841.468 76.48 839.041 74.08 837.228 71.04C835.468 68 834.588 64.5867 834.588 60.8C834.588 57.0133 835.468 53.6267 837.228 50.64C838.988 47.6 841.361 45.2 844.348 43.44C847.388 41.68 850.748 40.8 854.428 40.8C858.001 40.8 861.148 41.6267 863.868 43.28C866.641 44.9333 868.801 47.2 870.348 50.08C871.948 52.96 872.748 56.24 872.748 59.92C872.748 60.56 872.694 61.2267 872.587 61.92C872.534 62.56 872.428 63.28 872.268 64.08H840.748V56.88H867.708L864.428 59.76C864.321 57.4133 863.868 55.44 863.068 53.84C862.268 52.24 861.121 51.0133 859.628 50.16C858.188 49.3067 856.401 48.88 854.268 48.88C852.028 48.88 850.081 49.36 848.428 50.32C846.774 51.28 845.494 52.64 844.588 54.4C843.681 56.1067 843.228 58.16 843.228 60.56C843.228 62.96 843.708 65.0667 844.668 66.88C845.628 68.6933 846.988 70.1067 848.748 71.12C850.508 72.08 852.534 72.56 854.828 72.56C856.801 72.56 858.614 72.2133 860.268 71.52C861.974 70.8267 863.414 69.8133 864.588 68.48L870.188 74.16C868.321 76.3467 866.054 78 863.388 79.12C860.721 80.24 857.894 80.8 854.908 80.8ZM879.802 80V41.6H888.602V80H879.802ZM888.602 58.64L885.562 57.12C885.562 52.2667 886.629 48.3467 888.762 45.36C890.949 42.32 894.229 40.8 898.602 40.8C900.522 40.8 902.255 41.1467 903.802 41.84C905.349 42.5333 906.789 43.6533 908.122 45.2L902.362 51.12C901.669 50.3733 900.895 49.84 900.042 49.52C899.189 49.2 898.202 49.04 897.082 49.04C894.629 49.04 892.602 49.8133 891.002 51.36C889.402 52.9067 888.602 55.3333 888.602 58.64ZM938.7 80V57.84C938.7 55.28 937.873 53.1733 936.22 51.52C934.62 49.8667 932.54 49.04 929.98 49.04C928.273 49.04 926.753 49.4133 925.42 50.16C924.087 50.9067 923.047 51.9467 922.3 53.28C921.553 54.6133 921.18 56.1333 921.18 57.84L917.74 55.92C917.74 52.9867 918.38 50.4 919.66 48.16C920.94 45.8667 922.7 44.08 924.94 42.8C927.233 41.4667 929.793 40.8 932.62 40.8C935.5 40.8 938.06 41.5467 940.3 43.04C942.54 44.48 944.3 46.3733 945.58 48.72C946.86 51.0133 947.5 53.4133 947.5 55.92V80H938.7ZM912.38 80V41.6H921.18V80H912.38ZM972.523 80.8C969.056 80.8 965.909 79.92 963.083 78.16C960.309 76.4 958.096 74.0267 956.443 71.04C954.843 68 954.043 64.6133 954.043 60.88C954.043 57.0933 954.843 53.7067 956.443 50.72C958.096 47.68 960.309 45.28 963.083 43.52C965.909 41.7067 969.056 40.8 972.523 40.8C975.456 40.8 978.043 41.44 980.283 42.72C982.576 43.9467 984.389 45.6533 985.723 47.84C987.056 50.0267 987.723 52.5067 987.723 55.28V66.32C987.723 69.0933 987.056 71.5733 985.723 73.76C984.443 75.9467 982.656 77.68 980.363 78.96C978.069 80.1867 975.456 80.8 972.523 80.8ZM973.963 72.48C977.216 72.48 979.829 71.3867 981.803 69.2C983.829 67.0133 984.843 64.2133 984.843 60.8C984.843 58.5067 984.389 56.48 983.483 54.72C982.576 52.96 981.296 51.6 979.643 50.64C978.043 49.6267 976.149 49.12 973.963 49.12C971.829 49.12 969.936 49.6267 968.283 50.64C966.683 51.6 965.403 52.96 964.443 54.72C963.536 56.48 963.083 58.5067 963.083 60.8C963.083 63.0933 963.536 65.12 964.443 66.88C965.403 68.64 966.683 70.0267 968.283 71.04C969.936 72 971.829 72.48 973.963 72.48ZM984.283 80V69.68L985.803 60.32L984.283 51.04V41.6H993.083V80H984.283ZM1020.53 80.8C1016.74 80.8 1013.3 79.92 1010.21 78.16C1007.17 76.4 1004.77 74 1003.01 70.96C1001.25 67.92 1000.37 64.5333 1000.37 60.8C1000.37 57.0133 1001.25 53.6267 1003.01 50.64C1004.77 47.6 1007.17 45.2 1010.21 43.44C1013.3 41.68 1016.74 40.8 1020.53 40.8C1023.52 40.8 1026.29 41.3867 1028.85 42.56C1031.46 43.68 1033.68 45.3067 1035.49 47.44L1029.73 53.28C1028.61 51.9467 1027.25 50.96 1025.65 50.32C1024.1 49.6267 1022.4 49.28 1020.53 49.28C1018.34 49.28 1016.4 49.7867 1014.69 50.8C1013.04 51.76 1011.73 53.0933 1010.77 54.8C1009.86 56.5067 1009.41 58.5067 1009.41 60.8C1009.41 63.04 1009.86 65.04 1010.77 66.8C1011.73 68.5067 1013.04 69.8667 1014.69 70.88C1016.4 71.84 1018.34 72.32 1020.53 72.32C1022.4 72.32 1024.1 72 1025.65 71.36C1027.25 70.6667 1028.61 69.6533 1029.73 68.32L1035.49 74.16C1033.68 76.2933 1031.46 77.9467 1028.85 79.12C1026.29 80.24 1023.52 80.8 1020.53 80.8ZM1018.05 96.8C1016.08 96.8 1014.34 96.56 1012.85 96.08C1011.36 95.6 1009.92 94.9067 1008.53 94L1012.13 89.44C1012.72 89.9733 1013.44 90.4 1014.29 90.72C1015.14 91.0933 1016.18 91.28 1017.41 91.28C1018.8 91.28 1019.78 91.0933 1020.37 90.72C1021.01 90.3467 1021.33 89.8933 1021.33 89.36C1021.33 88.7733 1021.04 88.24 1020.45 87.76C1019.92 87.3333 1019.04 87.12 1017.81 87.12H1013.65L1016.29 78.88H1022.69L1020.77 84.64L1017.57 82.24C1020.88 82.1333 1023.54 82.7733 1025.57 84.16C1027.6 85.6 1028.61 87.3867 1028.61 89.52C1028.61 91.6 1027.62 93.3333 1025.65 94.72C1023.73 96.1067 1021.2 96.8 1018.05 96.8ZM1058.65 80.8C1054.92 80.8 1051.53 79.92 1048.49 78.16C1045.45 76.3467 1043.03 73.92 1041.21 70.88C1039.45 67.84 1038.57 64.4533 1038.57 60.72C1038.57 56.9867 1039.45 53.6267 1041.21 50.64C1043.03 47.6533 1045.45 45.28 1048.49 43.52C1051.53 41.7067 1054.92 40.8 1058.65 40.8C1062.44 40.8 1065.85 41.68 1068.89 43.44C1071.93 45.2 1074.33 47.6 1076.09 50.64C1077.91 53.6267 1078.81 56.9867 1078.81 60.72C1078.81 64.4533 1077.91 67.84 1076.09 70.88C1074.33 73.92 1071.93 76.3467 1068.89 78.16C1065.85 79.92 1062.44 80.8 1058.65 80.8ZM1058.65 72.32C1060.84 72.32 1062.76 71.84 1064.41 70.88C1066.12 69.8667 1067.43 68.48 1068.33 66.72C1069.29 64.96 1069.77 62.96 1069.77 60.72C1069.77 58.48 1069.29 56.5067 1068.33 54.8C1067.37 53.0933 1066.07 51.76 1064.41 50.8C1062.76 49.7867 1060.84 49.28 1058.65 49.28C1056.52 49.28 1054.6 49.7867 1052.89 50.8C1051.24 51.76 1049.93 53.0933 1048.97 54.8C1048.07 56.5067 1047.61 58.48 1047.61 60.72C1047.61 62.96 1048.07 64.96 1048.97 66.72C1049.93 68.48 1051.24 69.8667 1052.89 70.88C1054.6 71.84 1056.52 72.32 1058.65 72.32ZM1064.49 36.08C1062.73 36.08 1061.24 35.76 1060.01 35.12C1058.79 34.48 1057.64 33.8667 1056.57 33.28C1055.56 32.64 1054.41 32.32 1053.13 32.32C1051.8 32.32 1050.73 32.56 1049.93 33.04C1049.13 33.52 1048.36 34.24 1047.61 35.2L1042.89 30.48C1044.44 28.72 1045.99 27.3333 1047.53 26.32C1049.08 25.2533 1050.89 24.72 1052.97 24.72C1054.73 24.72 1056.23 25.04 1057.45 25.68C1058.68 26.2667 1059.83 26.88 1060.89 27.52C1061.96 28.16 1063.11 28.48 1064.33 28.48C1065.72 28.48 1066.81 28.24 1067.61 27.76C1068.41 27.28 1069.16 26.56 1069.85 25.6L1074.57 30.32C1073.03 32.08 1071.48 33.4933 1069.93 34.56C1068.39 35.5733 1066.57 36.08 1064.49 36.08ZM1103.97 80.8C1100.13 80.8 1096.66 79.9467 1093.57 78.24C1090.53 76.48 1088.1 74.08 1086.29 71.04C1084.53 68 1083.65 64.5867 1083.65 60.8C1083.65 57.0133 1084.53 53.6267 1086.29 50.64C1088.05 47.6 1090.42 45.2 1093.41 43.44C1096.45 41.68 1099.81 40.8 1103.49 40.8C1107.06 40.8 1110.21 41.6267 1112.93 43.28C1115.7 44.9333 1117.86 47.2 1119.41 50.08C1121.01 52.96 1121.81 56.24 1121.81 59.92C1121.81 60.56 1121.76 61.2267 1121.65 61.92C1121.6 62.56 1121.49 63.28 1121.33 64.08H1089.81V56.88H1116.77L1113.49 59.76C1113.38 57.4133 1112.93 55.44 1112.13 53.84C1111.33 52.24 1110.18 51.0133 1108.69 50.16C1107.25 49.3067 1105.46 48.88 1103.33 48.88C1101.09 48.88 1099.14 49.36 1097.49 50.32C1095.84 51.28 1094.56 52.64 1093.65 54.4C1092.74 56.1067 1092.29 58.16 1092.29 60.56C1092.29 62.96 1092.77 65.0667 1093.73 66.88C1094.69 68.6933 1096.05 70.1067 1097.81 71.12C1099.57 72.08 1101.6 72.56 1103.89 72.56C1105.86 72.56 1107.68 72.2133 1109.33 71.52C1111.04 70.8267 1112.48 69.8133 1113.65 68.48L1119.25 74.16C1117.38 76.3467 1115.12 78 1112.45 79.12C1109.78 80.24 1106.96 80.8 1103.97 80.8ZM1141.42 80.8C1139.29 80.8 1137.24 80.5333 1135.26 80C1133.29 79.4133 1131.48 78.6133 1129.82 77.6C1128.17 76.5333 1126.73 75.2533 1125.5 73.76L1131.1 68.16C1132.44 69.7067 1133.96 70.88 1135.66 71.68C1137.42 72.4267 1139.4 72.8 1141.58 72.8C1143.56 72.8 1145.05 72.5067 1146.06 71.92C1147.08 71.3333 1147.58 70.48 1147.58 69.36C1147.58 68.1867 1147.1 67.28 1146.14 66.64C1145.18 66 1143.93 65.4667 1142.38 65.04C1140.89 64.56 1139.29 64.08 1137.58 63.6C1135.93 63.12 1134.33 62.48 1132.78 61.68C1131.29 60.8267 1130.06 59.68 1129.1 58.24C1128.14 56.8 1127.66 54.9333 1127.66 52.64C1127.66 50.1867 1128.22 48.08 1129.34 46.32C1130.52 44.56 1132.14 43.2 1134.22 42.24C1136.36 41.28 1138.89 40.8 1141.82 40.8C1144.92 40.8 1147.64 41.36 1149.98 42.48C1152.38 43.5467 1154.38 45.1733 1155.98 47.36L1150.38 52.96C1149.26 51.5733 1147.98 50.5333 1146.54 49.84C1145.1 49.1467 1143.45 48.8 1141.58 48.8C1139.82 48.8 1138.46 49.0667 1137.5 49.6C1136.54 50.1333 1136.06 50.9067 1136.06 51.92C1136.06 52.9867 1136.54 53.8133 1137.5 54.4C1138.46 54.9867 1139.69 55.4933 1141.18 55.92C1142.73 56.3467 1144.33 56.8267 1145.98 57.36C1147.69 57.84 1149.29 58.5333 1150.78 59.44C1152.33 60.2933 1153.58 61.4667 1154.54 62.96C1155.5 64.4 1155.98 66.2933 1155.98 68.64C1155.98 72.3733 1154.68 75.3333 1152.06 77.52C1149.45 79.7067 1145.9 80.8 1141.42 80.8ZM1199.82 80.8C1196.88 80.8 1194.27 80.1867 1191.98 78.96C1189.68 77.68 1187.87 75.9467 1186.54 73.76C1185.26 71.5733 1184.62 69.0933 1184.62 66.32V55.28C1184.62 52.5067 1185.28 50.0267 1186.62 47.84C1187.95 45.6533 1189.76 43.9467 1192.06 42.72C1194.35 41.44 1196.94 40.8 1199.82 40.8C1203.28 40.8 1206.4 41.7067 1209.18 43.52C1212 45.28 1214.22 47.68 1215.82 50.72C1217.47 53.7067 1218.3 57.0933 1218.3 60.88C1218.3 64.6133 1217.47 68 1215.82 71.04C1214.22 74.0267 1212 76.4 1209.18 78.16C1206.4 79.92 1203.28 80.8 1199.82 80.8ZM1179.26 96V41.6H1188.06V51.92L1186.54 61.28L1188.06 70.56V96H1179.26ZM1198.38 72.48C1200.51 72.48 1202.38 72 1203.98 71.04C1205.63 70.0267 1206.91 68.64 1207.82 66.88C1208.78 65.12 1209.26 63.0933 1209.26 60.8C1209.26 58.5067 1208.78 56.48 1207.82 54.72C1206.91 52.96 1205.63 51.6 1203.98 50.64C1202.38 49.6267 1200.51 49.12 1198.38 49.12C1196.24 49.12 1194.35 49.6267 1192.7 50.64C1191.04 51.6 1189.76 52.96 1188.86 54.72C1187.95 56.48 1187.5 58.5067 1187.5 60.8C1187.5 63.0933 1187.95 65.12 1188.86 66.88C1189.76 68.64 1191.04 70.0267 1192.7 71.04C1194.35 72 1196.24 72.48 1198.38 72.48ZM1243.26 80.8C1239.53 80.8 1236.14 79.92 1233.1 78.16C1230.06 76.3467 1227.63 73.92 1225.82 70.88C1224.06 67.84 1223.18 64.4533 1223.18 60.72C1223.18 56.9867 1224.06 53.6267 1225.82 50.64C1227.63 47.6533 1230.06 45.28 1233.1 43.52C1236.14 41.7067 1239.53 40.8 1243.26 40.8C1247.05 40.8 1250.46 41.68 1253.5 43.44C1256.54 45.2 1258.94 47.6 1260.7 50.64C1262.51 53.6267 1263.42 56.9867 1263.42 60.72C1263.42 64.4533 1262.51 67.84 1260.7 70.88C1258.94 73.92 1256.54 76.3467 1253.5 78.16C1250.46 79.92 1247.05 80.8 1243.26 80.8ZM1243.26 72.32C1245.45 72.32 1247.37 71.84 1249.02 70.88C1250.73 69.8667 1252.03 68.48 1252.94 66.72C1253.9 64.96 1254.38 62.96 1254.38 60.72C1254.38 58.48 1253.9 56.5067 1252.94 54.8C1251.98 53.0933 1250.67 51.76 1249.02 50.8C1247.37 49.7867 1245.45 49.28 1243.26 49.28C1241.13 49.28 1239.21 49.7867 1237.5 50.8C1235.85 51.76 1234.54 53.0933 1233.58 54.8C1232.67 56.5067 1232.22 58.48 1232.22 60.72C1232.22 62.96 1232.67 64.96 1233.58 66.72C1234.54 68.48 1235.85 69.8667 1237.5 70.88C1239.21 71.84 1241.13 72.32 1243.26 72.32ZM1270.74 80V41.6H1279.54V80H1270.74ZM1279.54 58.64L1276.5 57.12C1276.5 52.2667 1277.57 48.3467 1279.7 45.36C1281.89 42.32 1285.17 40.8 1289.54 40.8C1291.46 40.8 1293.19 41.1467 1294.74 41.84C1296.29 42.5333 1297.73 43.6533 1299.06 45.2L1293.3 51.12C1292.61 50.3733 1291.83 49.84 1290.98 49.52C1290.13 49.2 1289.14 49.04 1288.02 49.04C1285.57 49.04 1283.54 49.8133 1281.94 51.36C1280.34 52.9067 1279.54 55.3333 1279.54 58.64ZM1347.38 80.8C1343.33 80.8 1339.57 80.08 1336.1 78.64C1332.69 77.1467 1329.7 75.0933 1327.14 72.48C1324.58 69.8133 1322.61 66.7467 1321.22 63.28C1319.83 59.76 1319.14 56 1319.14 52C1319.14 48 1319.83 44.2667 1321.22 40.8C1322.61 37.28 1324.58 34.2133 1327.14 31.6C1329.7 28.9867 1332.69 26.9333 1336.1 25.44C1339.57 23.9467 1343.33 23.2 1347.38 23.2C1351.91 23.2 1355.83 23.9467 1359.14 25.44C1362.45 26.9333 1365.38 28.96 1367.94 31.52L1361.7 37.76C1360.05 35.9467 1358.02 34.5333 1355.62 33.52C1353.27 32.5067 1350.53 32 1347.38 32C1344.61 32 1342.07 32.48 1339.78 33.44C1337.49 34.4 1335.49 35.7867 1333.78 37.6C1332.13 39.36 1330.85 41.4667 1329.94 43.92C1329.03 46.3733 1328.58 49.0667 1328.58 52C1328.58 54.9333 1329.03 57.6267 1329.94 60.08C1330.85 62.5333 1332.13 64.6667 1333.78 66.48C1335.49 68.24 1337.49 69.6 1339.78 70.56C1342.07 71.52 1344.61 72 1347.38 72C1350.79 72 1353.67 71.4933 1356.02 70.48C1358.42 69.4133 1360.45 67.9733 1362.1 66.16L1368.34 72.4C1365.78 75.0133 1362.77 77.0667 1359.3 78.56C1355.83 80.0533 1351.86 80.8 1347.38 80.8ZM1391.78 80.8C1388.04 80.8 1384.66 79.92 1381.62 78.16C1378.58 76.3467 1376.15 73.92 1374.34 70.88C1372.58 67.84 1371.7 64.4533 1371.7 60.72C1371.7 56.9867 1372.58 53.6267 1374.34 50.64C1376.15 47.6533 1378.58 45.28 1381.62 43.52C1384.66 41.7067 1388.04 40.8 1391.78 40.8C1395.56 40.8 1398.98 41.68 1402.02 43.44C1405.06 45.2 1407.46 47.6 1409.22 50.64C1411.03 53.6267 1411.94 56.9867 1411.94 60.72C1411.94 64.4533 1411.03 67.84 1409.22 70.88C1407.46 73.92 1405.06 76.3467 1402.02 78.16C1398.98 79.92 1395.56 80.8 1391.78 80.8ZM1391.78 72.32C1393.96 72.32 1395.88 71.84 1397.54 70.88C1399.24 69.8667 1400.55 68.48 1401.46 66.72C1402.42 64.96 1402.9 62.96 1402.9 60.72C1402.9 58.48 1402.42 56.5067 1401.46 54.8C1400.5 53.0933 1399.19 51.76 1397.54 50.8C1395.88 49.7867 1393.96 49.28 1391.78 49.28C1389.64 49.28 1387.72 49.7867 1386.02 50.8C1384.36 51.76 1383.06 53.0933 1382.1 54.8C1381.19 56.5067 1380.74 58.48 1380.74 60.72C1380.74 62.96 1381.19 64.96 1382.1 66.72C1383.06 68.48 1384.36 69.8667 1386.02 70.88C1387.72 71.84 1389.64 72.32 1391.78 72.32ZM1445.58 80V57.84C1445.58 55.28 1444.75 53.1733 1443.1 51.52C1441.5 49.8667 1439.42 49.04 1436.86 49.04C1435.15 49.04 1433.63 49.4133 1432.3 50.16C1430.96 50.9067 1429.92 51.9467 1429.18 53.28C1428.43 54.6133 1428.06 56.1333 1428.06 57.84L1424.62 55.92C1424.62 52.9867 1425.26 50.4 1426.54 48.16C1427.82 45.8667 1429.58 44.08 1431.82 42.8C1434.11 41.4667 1436.67 40.8 1439.5 40.8C1442.38 40.8 1444.94 41.5467 1447.18 43.04C1449.42 44.48 1451.18 46.3733 1452.46 48.72C1453.74 51.0133 1454.38 53.4133 1454.38 55.92V80H1445.58ZM1419.26 80V41.6H1428.06V80H1419.26ZM1479.4 80.8C1475.93 80.8 1472.78 79.92 1469.96 78.16C1467.18 76.4 1464.97 74.0267 1463.32 71.04C1461.72 68 1460.92 64.6133 1460.92 60.88C1460.92 57.0933 1461.72 53.7067 1463.32 50.72C1464.97 47.68 1467.18 45.28 1469.96 43.52C1472.78 41.7067 1475.93 40.8 1479.4 40.8C1482.33 40.8 1484.92 41.44 1487.16 42.72C1489.45 43.9467 1491.26 45.6533 1492.6 47.84C1493.93 50.0267 1494.6 52.5067 1494.6 55.28V66.32C1494.6 69.0933 1493.93 71.5733 1492.6 73.76C1491.32 75.9467 1489.53 77.68 1487.24 78.96C1484.94 80.1867 1482.33 80.8 1479.4 80.8ZM1480.84 72.48C1483.02 72.48 1484.92 72 1486.52 71.04C1488.17 70.0267 1489.45 68.64 1490.36 66.88C1491.26 65.12 1491.72 63.0933 1491.72 60.8C1491.72 58.5067 1491.26 56.48 1490.36 54.72C1489.45 52.96 1488.17 51.6 1486.52 50.64C1484.92 49.6267 1483.02 49.12 1480.84 49.12C1478.7 49.12 1476.81 49.6267 1475.16 50.64C1473.56 51.6 1472.28 52.96 1471.32 54.72C1470.41 56.48 1469.96 58.5067 1469.96 60.8C1469.96 63.0933 1470.41 65.12 1471.32 66.88C1472.28 68.64 1473.56 70.0267 1475.16 71.04C1476.81 72 1478.7 72.48 1480.84 72.48ZM1499.96 80H1491.16V69.68L1492.68 60.32L1491.16 51.04V22.4H1499.96V80ZM1509.8 80V41.6H1518.6V80H1509.8ZM1514.2 34.56C1512.71 34.56 1511.46 34.0533 1510.44 33.04C1509.48 32.0267 1509 30.7733 1509 29.28C1509 27.7867 1509.48 26.5333 1510.44 25.52C1511.46 24.5067 1512.71 24 1514.2 24C1515.75 24 1517 24.5067 1517.96 25.52C1518.92 26.5333 1519.4 27.7867 1519.4 29.28C1519.4 30.7733 1518.92 32.0267 1517.96 33.04C1517 34.0533 1515.75 34.56 1514.2 34.56ZM1546.15 80.8C1542.37 80.8 1538.93 79.92 1535.83 78.16C1532.79 76.4 1530.39 74 1528.63 70.96C1526.87 67.92 1525.99 64.5333 1525.99 60.8C1525.99 57.0133 1526.87 53.6267 1528.63 50.64C1530.39 47.6 1532.79 45.2 1535.83 43.44C1538.93 41.68 1542.37 40.8 1546.15 40.8C1549.14 40.8 1551.91 41.3867 1554.47 42.56C1557.09 43.68 1559.3 45.3067 1561.11 47.44L1555.35 53.28C1554.23 51.9467 1552.87 50.96 1551.27 50.32C1549.73 49.6267 1548.02 49.28 1546.15 49.28C1543.97 49.28 1542.02 49.7867 1540.31 50.8C1538.66 51.76 1537.35 53.0933 1536.39 54.8C1535.49 56.5067 1535.03 58.5067 1535.03 60.8C1535.03 63.04 1535.49 65.04 1536.39 66.8C1537.35 68.5067 1538.66 69.8667 1540.31 70.88C1542.02 71.84 1543.97 72.32 1546.15 72.32C1548.02 72.32 1549.73 72 1551.27 71.36C1552.87 70.6667 1554.23 69.6533 1555.35 68.32L1561.11 74.16C1559.3 76.2933 1557.09 77.9467 1554.47 79.12C1551.91 80.24 1549.14 80.8 1546.15 80.8ZM1543.67 96.8C1541.7 96.8 1539.97 96.56 1538.47 96.08C1536.98 95.6 1535.54 94.9067 1534.15 94L1537.75 89.44C1538.34 89.9733 1539.06 90.4 1539.91 90.72C1540.77 91.0933 1541.81 91.28 1543.03 91.28C1544.42 91.28 1545.41 91.0933 1545.99 90.72C1546.63 90.3467 1546.95 89.8933 1546.95 89.36C1546.95 88.7733 1546.66 88.24 1546.07 87.76C1545.54 87.3333 1544.66 87.12 1543.43 87.12H1539.27L1541.91 78.88H1548.31L1546.39 84.64L1543.19 82.24C1546.5 82.1333 1549.17 82.7733 1551.19 84.16C1553.22 85.6 1554.23 87.3867 1554.23 89.52C1554.23 91.6 1553.25 93.3333 1551.27 94.72C1549.35 96.1067 1546.82 96.8 1543.67 96.8ZM1584.28 80.8C1580.54 80.8 1577.16 79.92 1574.12 78.16C1571.08 76.3467 1568.65 73.92 1566.84 70.88C1565.08 67.84 1564.2 64.4533 1564.2 60.72C1564.2 56.9867 1565.08 53.6267 1566.84 50.64C1568.65 47.6533 1571.08 45.28 1574.12 43.52C1577.16 41.7067 1580.54 40.8 1584.28 40.8C1588.06 40.8 1591.48 41.68 1594.52 43.44C1597.56 45.2 1599.96 47.6 1601.72 50.64C1603.53 53.6267 1604.44 56.9867 1604.44 60.72C1604.44 64.4533 1603.53 67.84 1601.72 70.88C1599.96 73.92 1597.56 76.3467 1594.52 78.16C1591.48 79.92 1588.06 80.8 1584.28 80.8ZM1584.28 72.32C1586.46 72.32 1588.38 71.84 1590.04 70.88C1591.74 69.8667 1593.05 68.48 1593.96 66.72C1594.92 64.96 1595.4 62.96 1595.4 60.72C1595.4 58.48 1594.92 56.5067 1593.96 54.8C1593 53.0933 1591.69 51.76 1590.04 50.8C1588.38 49.7867 1586.46 49.28 1584.28 49.28C1582.14 49.28 1580.22 49.7867 1578.52 50.8C1576.86 51.76 1575.56 53.0933 1574.6 54.8C1573.69 56.5067 1573.24 58.48 1573.24 60.72C1573.24 62.96 1573.69 64.96 1574.6 66.72C1575.56 68.48 1576.86 69.8667 1578.52 70.88C1580.22 71.84 1582.14 72.32 1584.28 72.32ZM1590.12 36.08C1588.36 36.08 1586.86 35.76 1585.64 35.12C1584.41 34.48 1583.26 33.8667 1582.2 33.28C1581.18 32.64 1580.04 32.32 1578.76 32.32C1577.42 32.32 1576.36 32.56 1575.56 33.04C1574.76 33.52 1573.98 34.24 1573.24 35.2L1568.52 30.48C1570.06 28.72 1571.61 27.3333 1573.16 26.32C1574.7 25.2533 1576.52 24.72 1578.6 24.72C1580.36 24.72 1581.85 25.04 1583.08 25.68C1584.3 26.2667 1585.45 26.88 1586.52 27.52C1587.58 28.16 1588.73 28.48 1589.96 28.48C1591.34 28.48 1592.44 28.24 1593.24 27.76C1594.04 27.28 1594.78 26.56 1595.48 25.6L1600.2 30.32C1598.65 32.08 1597.1 33.4933 1595.56 34.56C1594.01 35.5733 1592.2 36.08 1590.12 36.08ZM1629.6 80.8C1625.76 80.8 1622.29 79.9467 1619.2 78.24C1616.16 76.48 1613.73 74.08 1611.92 71.04C1610.16 68 1609.28 64.5867 1609.28 60.8C1609.28 57.0133 1610.16 53.6267 1611.92 50.64C1613.68 47.6 1616.05 45.2 1619.04 43.44C1622.08 41.68 1625.44 40.8 1629.12 40.8C1632.69 40.8 1635.84 41.6267 1638.56 43.28C1641.33 44.9333 1643.49 47.2 1645.04 50.08C1646.64 52.96 1647.44 56.24 1647.44 59.92C1647.44 60.56 1647.38 61.2267 1647.27 61.92C1647.22 62.56 1647.12 63.28 1646.96 64.08H1615.44V56.88H1642.4L1639.12 59.76C1639.01 57.4133 1638.56 55.44 1637.76 53.84C1636.96 52.24 1635.81 51.0133 1634.32 50.16C1632.88 49.3067 1631.09 48.88 1628.96 48.88C1626.72 48.88 1624.77 49.36 1623.12 50.32C1621.46 51.28 1620.18 52.64 1619.28 54.4C1618.37 56.1067 1617.92 58.16 1617.92 60.56C1617.92 62.96 1618.4 65.0667 1619.36 66.88C1620.32 68.6933 1621.68 70.1067 1623.44 71.12C1625.2 72.08 1627.22 72.56 1629.52 72.56C1631.49 72.56 1633.3 72.2133 1634.96 71.52C1636.66 70.8267 1638.1 69.8133 1639.28 68.48L1644.88 74.16C1643.01 76.3467 1640.74 78 1638.08 79.12C1635.41 80.24 1632.58 80.8 1629.6 80.8ZM1667.05 80.8C1664.92 80.8 1662.86 80.5333 1660.89 80C1658.92 79.4133 1657.1 78.6133 1655.45 77.6C1653.8 76.5333 1652.36 75.2533 1651.13 73.76L1656.73 68.16C1658.06 69.7067 1659.58 70.88 1661.29 71.68C1663.05 72.4267 1665.02 72.8 1667.21 72.8C1669.18 72.8 1670.68 72.5067 1671.69 71.92C1672.7 71.3333 1673.21 70.48 1673.21 69.36C1673.21 68.1867 1672.73 67.28 1671.77 66.64C1670.81 66 1669.56 65.4667 1668.01 65.04C1666.52 64.56 1664.92 64.08 1663.21 63.6C1661.56 63.12 1659.96 62.48 1658.41 61.68C1656.92 60.8267 1655.69 59.68 1654.73 58.24C1653.77 56.8 1653.29 54.9333 1653.29 52.64C1653.29 50.1867 1653.85 48.08 1654.97 46.32C1656.14 44.56 1657.77 43.2 1659.85 42.24C1661.98 41.28 1664.52 40.8 1667.45 40.8C1670.54 40.8 1673.26 41.36 1675.61 42.48C1678.01 43.5467 1680.01 45.1733 1681.61 47.36L1676.01 52.96C1674.89 51.5733 1673.61 50.5333 1672.17 49.84C1670.73 49.1467 1669.08 48.8 1667.21 48.8C1665.45 48.8 1664.09 49.0667 1663.13 49.6C1662.17 50.1333 1661.69 50.9067 1661.69 51.92C1661.69 52.9867 1662.17 53.8133 1663.13 54.4C1664.09 54.9867 1665.32 55.4933 1666.81 55.92C1668.36 56.3467 1669.96 56.8267 1671.61 57.36C1673.32 57.84 1674.92 58.5333 1676.41 59.44C1677.96 60.2933 1679.21 61.4667 1680.17 62.96C1681.13 64.4 1681.61 66.2933 1681.61 68.64C1681.61 72.3733 1680.3 75.3333 1677.69 77.52C1675.08 79.7067 1671.53 80.8 1667.05 80.8ZM1721.68 80.8C1717.25 80.8 1713.49 80 1710.4 78.4C1707.31 76.8 1704.53 74.4533 1702.08 71.36L1708.32 65.12C1709.87 67.36 1711.71 69.12 1713.84 70.4C1715.97 71.6267 1718.69 72.24 1722 72.24C1725.09 72.24 1727.55 71.6 1729.36 70.32C1731.23 69.04 1732.16 67.28 1732.16 65.04C1732.16 63.1733 1731.68 61.6533 1730.72 60.48C1729.76 59.3067 1728.48 58.3467 1726.88 57.6C1725.33 56.8 1723.6 56.1067 1721.68 55.52C1719.81 54.88 1717.92 54.1867 1716 53.44C1714.13 52.64 1712.4 51.6533 1710.8 50.48C1709.25 49.3067 1708 47.7867 1707.04 45.92C1706.08 44.0533 1705.6 41.68 1705.6 38.8C1705.6 35.4933 1706.4 32.6933 1708 30.4C1709.65 28.0533 1711.87 26.2667 1714.64 25.04C1717.41 23.8133 1720.51 23.2 1723.92 23.2C1727.6 23.2 1730.88 23.92 1733.76 25.36C1736.69 26.8 1739.07 28.64 1740.88 30.88L1734.64 37.12C1733.04 35.3067 1731.36 33.9733 1729.6 33.12C1727.89 32.2133 1725.92 31.76 1723.68 31.76C1720.91 31.76 1718.72 32.32 1717.12 33.44C1715.57 34.56 1714.8 36.1333 1714.8 38.16C1714.8 39.8667 1715.28 41.2533 1716.24 42.32C1717.2 43.3333 1718.45 44.2133 1720 44.96C1721.6 45.6533 1723.33 46.32 1725.2 46.96C1727.12 47.6 1729.01 48.32 1730.88 49.12C1732.8 49.92 1734.53 50.96 1736.08 52.24C1737.68 53.4667 1738.96 55.0667 1739.92 57.04C1740.88 59.0133 1741.36 61.4933 1741.36 64.48C1741.36 69.4933 1739.57 73.4667 1736 76.4C1732.48 79.3333 1727.71 80.8 1721.68 80.8ZM1766.7 80.8C1762.86 80.8 1759.4 79.9467 1756.3 78.24C1753.26 76.48 1750.84 74.08 1749.02 71.04C1747.26 68 1746.38 64.5867 1746.38 60.8C1746.38 57.0133 1747.26 53.6267 1749.02 50.64C1750.78 47.6 1753.16 45.2 1756.14 43.44C1759.18 41.68 1762.54 40.8 1766.22 40.8C1769.8 40.8 1772.94 41.6267 1775.66 43.28C1778.44 44.9333 1780.6 47.2 1782.14 50.08C1783.74 52.96 1784.54 56.24 1784.54 59.92C1784.54 60.56 1784.49 61.2267 1784.38 61.92C1784.33 62.56 1784.22 63.28 1784.06 64.08H1752.54V56.88H1779.5L1776.22 59.76C1776.12 57.4133 1775.66 55.44 1774.86 53.84C1774.06 52.24 1772.92 51.0133 1771.42 50.16C1769.98 49.3067 1768.2 48.88 1766.06 48.88C1763.82 48.88 1761.88 49.36 1760.22 50.32C1758.57 51.28 1757.29 52.64 1756.38 54.4C1755.48 56.1067 1755.02 58.16 1755.02 60.56C1755.02 62.96 1755.5 65.0667 1756.46 66.88C1757.42 68.6933 1758.78 70.1067 1760.54 71.12C1762.3 72.08 1764.33 72.56 1766.62 72.56C1768.6 72.56 1770.41 72.2133 1772.06 71.52C1773.77 70.8267 1775.21 69.8133 1776.38 68.48L1781.98 74.16C1780.12 76.3467 1777.85 78 1775.18 79.12C1772.52 80.24 1769.69 80.8 1766.7 80.8ZM1817.92 80V57.84C1817.92 55.28 1817.09 53.1733 1815.44 51.52C1813.84 49.8667 1811.76 49.04 1809.2 49.04C1807.49 49.04 1805.97 49.4133 1804.64 50.16C1803.31 50.9067 1802.27 51.9467 1801.52 53.28C1800.77 54.6133 1800.4 56.1333 1800.4 57.84L1796.96 55.92C1796.96 52.9867 1797.6 50.4 1798.88 48.16C1800.16 45.8667 1801.92 44.08 1804.16 42.8C1806.45 41.4667 1809.01 40.8 1811.84 40.8C1814.72 40.8 1817.28 41.5467 1819.52 43.04C1821.76 44.48 1823.52 46.3733 1824.8 48.72C1826.08 51.0133 1826.72 53.4133 1826.72 55.92V80H1817.92ZM1791.6 80V41.6H1800.4V80H1791.6ZM1848.22 80.8C1846.09 80.8 1844.03 80.5333 1842.06 80C1840.09 79.4133 1838.27 78.6133 1836.62 77.6C1834.97 76.5333 1833.53 75.2533 1832.3 73.76L1837.9 68.16C1839.23 69.7067 1840.75 70.88 1842.46 71.68C1844.22 72.4267 1846.19 72.8 1848.38 72.8C1850.35 72.8 1851.85 72.5067 1852.86 71.92C1853.87 71.3333 1854.38 70.48 1854.38 69.36C1854.38 68.1867 1853.9 67.28 1852.94 66.64C1851.98 66 1850.73 65.4667 1849.18 65.04C1847.69 64.56 1846.09 64.08 1844.38 63.6C1842.73 63.12 1841.13 62.48 1839.58 61.68C1838.09 60.8267 1836.86 59.68 1835.9 58.24C1834.94 56.8 1834.46 54.9333 1834.46 52.64C1834.46 50.1867 1835.02 48.08 1836.14 46.32C1837.31 44.56 1838.94 43.2 1841.02 42.24C1843.15 41.28 1845.69 40.8 1848.62 40.8C1851.71 40.8 1854.43 41.36 1856.78 42.48C1859.18 43.5467 1861.18 45.1733 1862.78 47.36L1857.18 52.96C1856.06 51.5733 1854.78 50.5333 1853.34 49.84C1851.9 49.1467 1850.25 48.8 1848.38 48.8C1846.62 48.8 1845.26 49.0667 1844.3 49.6C1843.34 50.1333 1842.86 50.9067 1842.86 51.92C1842.86 52.9867 1843.34 53.8133 1844.3 54.4C1845.26 54.9867 1846.49 55.4933 1847.98 55.92C1849.53 56.3467 1851.13 56.8267 1852.78 57.36C1854.49 57.84 1856.09 58.5333 1857.58 59.44C1859.13 60.2933 1860.38 61.4667 1861.34 62.96C1862.3 64.4 1862.78 66.2933 1862.78 68.64C1862.78 72.3733 1861.47 75.3333 1858.86 77.52C1856.25 79.7067 1852.7 80.8 1848.22 80.8ZM1870.04 80V41.6H1878.84V80H1870.04ZM1869.88 36.08L1865.88 32.08L1876.12 19.04L1882.92 25.84L1869.88 36.08ZM1901.59 80L1884.07 41.6H1893.83L1907.19 72.88H1901.43L1914.87 41.6H1924.23L1906.71 80H1901.59ZM1945.92 80.8C1942.08 80.8 1938.62 79.9467 1935.52 78.24C1932.48 76.48 1930.06 74.08 1928.24 71.04C1926.48 68 1925.6 64.5867 1925.6 60.8C1925.6 57.0133 1926.48 53.6267 1928.24 50.64C1930 47.6 1932.38 45.2 1935.36 43.44C1938.4 41.68 1941.76 40.8 1945.44 40.8C1949.02 40.8 1952.16 41.6267 1954.88 43.28C1957.66 44.9333 1959.82 47.2 1961.36 50.08C1962.96 52.96 1963.76 56.24 1963.76 59.92C1963.76 60.56 1963.71 61.2267 1963.6 61.92C1963.55 62.56 1963.44 63.28 1963.28 64.08H1931.76V56.88H1958.72L1955.44 59.76C1955.34 57.4133 1954.88 55.44 1954.08 53.84C1953.28 52.24 1952.14 51.0133 1950.64 50.16C1949.2 49.3067 1947.42 48.88 1945.28 48.88C1943.04 48.88 1941.1 49.36 1939.44 50.32C1937.79 51.28 1936.51 52.64 1935.6 54.4C1934.7 56.1067 1934.24 58.16 1934.24 60.56C1934.24 62.96 1934.72 65.0667 1935.68 66.88C1936.64 68.6933 1938 70.1067 1939.76 71.12C1941.52 72.08 1943.55 72.56 1945.84 72.56C1947.82 72.56 1949.63 72.2133 1951.28 71.52C1952.99 70.8267 1954.43 69.8133 1955.6 68.48L1961.2 74.16C1959.34 76.3467 1957.07 78 1954.4 79.12C1951.74 80.24 1948.91 80.8 1945.92 80.8ZM1970.9 80V41.6H1979.7V80H1970.9ZM1975.3 34.56C1973.8 34.56 1972.55 34.0533 1971.54 33.04C1970.58 32.0267 1970.1 30.7733 1970.1 29.28C1970.1 27.7867 1970.58 26.5333 1971.54 25.52C1972.55 24.5067 1973.8 24 1975.3 24C1976.84 24 1978.1 24.5067 1979.06 25.52C1980.02 26.5333 1980.5 27.7867 1980.5 29.28C1980.5 30.7733 1980.02 32.0267 1979.06 33.04C1978.1 34.0533 1976.84 34.56 1975.3 34.56ZM2002.13 80.8C1999.99 80.8 1997.94 80.5333 1995.97 80C1993.99 79.4133 1992.18 78.6133 1990.53 77.6C1988.87 76.5333 1987.43 75.2533 1986.21 73.76L1991.81 68.16C1993.14 69.7067 1994.66 70.88 1996.37 71.68C1998.13 72.4267 2000.1 72.8 2002.29 72.8C2004.26 72.8 2005.75 72.5067 2006.77 71.92C2007.78 71.3333 2008.29 70.48 2008.29 69.36C2008.29 68.1867 2007.81 67.28 2006.85 66.64C2005.89 66 2004.63 65.4667 2003.09 65.04C2001.59 64.56 1999.99 64.08 1998.29 63.6C1996.63 63.12 1995.03 62.48 1993.49 61.68C1991.99 60.8267 1990.77 59.68 1989.81 58.24C1988.85 56.8 1988.37 54.9333 1988.37 52.64C1988.37 50.1867 1988.93 48.08 1990.05 46.32C1991.22 44.56 1992.85 43.2 1994.93 42.24C1997.06 41.28 1999.59 40.8 2002.53 40.8C2005.62 40.8 2008.34 41.36 2010.69 42.48C2013.09 43.5467 2015.09 45.1733 2016.69 47.36L2011.09 52.96C2009.97 51.5733 2008.69 50.5333 2007.25 49.84C2005.81 49.1467 2004.15 48.8 2002.29 48.8C2000.53 48.8 1999.17 49.0667 1998.21 49.6C1997.25 50.1333 1996.77 50.9067 1996.77 51.92C1996.77 52.9867 1997.25 53.8133 1998.21 54.4C1999.17 54.9867 2000.39 55.4933 2001.89 55.92C2003.43 56.3467 2005.03 56.8267 2006.69 57.36C2008.39 57.84 2009.99 58.5333 2011.49 59.44C2013.03 60.2933 2014.29 61.4667 2015.25 62.96C2016.21 64.4 2016.69 66.2933 2016.69 68.64C2016.69 72.3733 2015.38 75.3333 2012.77 77.52C2010.15 79.7067 2006.61 80.8 2002.13 80.8ZM2056.04 80.8C2052.57 80.8 2049.42 79.92 2046.6 78.16C2043.82 76.4 2041.61 74.0267 2039.96 71.04C2038.36 68 2037.56 64.6133 2037.56 60.88C2037.56 57.0933 2038.36 53.7067 2039.96 50.72C2041.61 47.68 2043.82 45.28 2046.6 43.52C2049.42 41.7067 2052.57 40.8 2056.04 40.8C2058.97 40.8 2061.56 41.44 2063.8 42.72C2066.09 43.9467 2067.9 45.6533 2069.24 47.84C2070.57 50.0267 2071.24 52.5067 2071.24 55.28V66.32C2071.24 69.0933 2070.57 71.5733 2069.24 73.76C2067.96 75.9467 2066.17 77.68 2063.88 78.96C2061.58 80.1867 2058.97 80.8 2056.04 80.8ZM2057.48 72.48C2060.73 72.48 2063.34 71.3867 2065.32 69.2C2067.34 67.0133 2068.36 64.2133 2068.36 60.8C2068.36 58.5067 2067.9 56.48 2067 54.72C2066.09 52.96 2064.81 51.6 2063.16 50.64C2061.56 49.6267 2059.66 49.12 2057.48 49.12C2055.34 49.12 2053.45 49.6267 2051.8 50.64C2050.2 51.6 2048.92 52.96 2047.96 54.72C2047.05 56.48 2046.6 58.5067 2046.6 60.8C2046.6 63.0933 2047.05 65.12 2047.96 66.88C2048.92 68.64 2050.2 70.0267 2051.8 71.04C2053.45 72 2055.34 72.48 2057.48 72.48ZM2067.8 80V69.68L2069.32 60.32L2067.8 51.04V41.6H2076.6V80H2067.8ZM2061.48 36.88L2048.44 26.64L2055.24 19.84L2065.48 32.88L2061.48 36.88ZM2097.15 80L2120.19 24H2126.59L2149.47 80H2139.55L2121.63 34.64H2124.99L2106.91 80H2097.15ZM2108.51 69.2V61.2H2138.19V69.2H2108.51ZM2158.92 80V25.6H2167.72V80H2158.92ZM2149.72 49.6V41.6H2176.92V49.6H2149.72ZM2200.06 80.8C2196.22 80.8 2192.76 79.9467 2189.66 78.24C2186.62 76.48 2184.2 74.08 2182.38 71.04C2180.62 68 2179.74 64.5867 2179.74 60.8C2179.74 57.0133 2180.62 53.6267 2182.38 50.64C2184.14 47.6 2186.52 45.2 2189.5 43.44C2192.54 41.68 2195.9 40.8 2199.58 40.8C2203.16 40.8 2206.3 41.6267 2209.02 43.28C2211.8 44.9333 2213.96 47.2 2215.5 50.08C2217.1 52.96 2217.9 56.24 2217.9 59.92C2217.9 60.56 2217.85 61.2267 2217.74 61.92C2217.69 62.56 2217.58 63.28 2217.42 64.08H2185.9V56.88H2212.86L2209.58 59.76C2209.48 57.4133 2209.02 55.44 2208.22 53.84C2207.42 52.24 2206.28 51.0133 2204.78 50.16C2203.34 49.3067 2201.56 48.88 2199.42 48.88C2197.18 48.88 2195.24 49.36 2193.58 50.32C2191.93 51.28 2190.65 52.64 2189.74 54.4C2188.84 56.1067 2188.38 58.16 2188.38 60.56C2188.38 62.96 2188.86 65.0667 2189.82 66.88C2190.78 68.6933 2192.14 70.1067 2193.9 71.12C2195.66 72.08 2197.69 72.56 2199.98 72.56C2201.96 72.56 2203.77 72.2133 2205.42 71.52C2207.13 70.8267 2208.57 69.8133 2209.74 68.48L2215.34 74.16C2213.48 76.3467 2211.21 78 2208.54 79.12C2205.88 80.24 2203.05 80.8 2200.06 80.8ZM2251.28 80V57.84C2251.28 55.28 2250.45 53.1733 2248.8 51.52C2247.2 49.8667 2245.12 49.04 2242.56 49.04C2240.85 49.04 2239.33 49.4133 2238 50.16C2236.66 50.9067 2235.62 51.9467 2234.88 53.28C2234.13 54.6133 2233.76 56.1333 2233.76 57.84L2230.32 55.92C2230.32 52.9867 2230.96 50.4 2232.24 48.16C2233.52 45.8667 2235.28 44.08 2237.52 42.8C2239.81 41.4667 2242.37 40.8 2245.2 40.8C2248.08 40.8 2250.64 41.5467 2252.88 43.04C2255.12 44.48 2256.88 46.3733 2258.16 48.72C2259.44 51.0133 2260.08 53.4133 2260.08 55.92V80H2251.28ZM2224.96 80V41.6H2233.76V80H2224.96ZM2286.7 80.8C2282.91 80.8 2279.47 79.92 2276.38 78.16C2273.34 76.4 2270.94 74 2269.18 70.96C2267.42 67.92 2266.54 64.5333 2266.54 60.8C2266.54 57.0133 2267.42 53.6267 2269.18 50.64C2270.94 47.6 2273.34 45.2 2276.38 43.44C2279.47 41.68 2282.91 40.8 2286.7 40.8C2289.69 40.8 2292.46 41.3867 2295.02 42.56C2297.63 43.68 2299.85 45.3067 2301.66 47.44L2295.9 53.28C2294.78 51.9467 2293.42 50.96 2291.82 50.32C2290.27 49.6267 2288.57 49.28 2286.7 49.28C2284.51 49.28 2282.57 49.7867 2280.86 50.8C2279.21 51.76 2277.9 53.0933 2276.94 54.8C2276.03 56.5067 2275.58 58.5067 2275.58 60.8C2275.58 63.04 2276.03 65.04 2276.94 66.8C2277.9 68.5067 2279.21 69.8667 2280.86 70.88C2282.57 71.84 2284.51 72.32 2286.7 72.32C2288.57 72.32 2290.27 72 2291.82 71.36C2293.42 70.6667 2294.78 69.6533 2295.9 68.32L2301.66 74.16C2299.85 76.2933 2297.63 77.9467 2295.02 79.12C2292.46 80.24 2289.69 80.8 2286.7 80.8ZM2284.22 96.8C2282.25 96.8 2280.51 96.56 2279.02 96.08C2277.53 95.6 2276.09 94.9067 2274.7 94L2278.3 89.44C2278.89 89.9733 2279.61 90.4 2280.46 90.72C2281.31 91.0933 2282.35 91.28 2283.58 91.28C2284.97 91.28 2285.95 91.0933 2286.54 90.72C2287.18 90.3467 2287.5 89.8933 2287.5 89.36C2287.5 88.7733 2287.21 88.24 2286.62 87.76C2286.09 87.3333 2285.21 87.12 2283.98 87.12H2279.82L2282.46 78.88H2288.86L2286.94 84.64L2283.74 82.24C2287.05 82.1333 2289.71 82.7733 2291.74 84.16C2293.77 85.6 2294.78 87.3867 2294.78 89.52C2294.78 91.6 2293.79 93.3333 2291.82 94.72C2289.9 96.1067 2287.37 96.8 2284.22 96.8ZM2323.3 80.8C2319.84 80.8 2316.69 79.92 2313.86 78.16C2311.09 76.4 2308.88 74.0267 2307.22 71.04C2305.62 68 2304.82 64.6133 2304.82 60.88C2304.82 57.0933 2305.62 53.7067 2307.22 50.72C2308.88 47.68 2311.09 45.28 2313.86 43.52C2316.69 41.7067 2319.84 40.8 2323.3 40.8C2326.24 40.8 2328.82 41.44 2331.06 42.72C2333.36 43.9467 2335.17 45.6533 2336.5 47.84C2337.84 50.0267 2338.5 52.5067 2338.5 55.28V66.32C2338.5 69.0933 2337.84 71.5733 2336.5 73.76C2335.22 75.9467 2333.44 77.68 2331.14 78.96C2328.85 80.1867 2326.24 80.8 2323.3 80.8ZM2324.74 72.48C2328 72.48 2330.61 71.3867 2332.58 69.2C2334.61 67.0133 2335.62 64.2133 2335.62 60.8C2335.62 58.5067 2335.17 56.48 2334.26 54.72C2333.36 52.96 2332.08 51.6 2330.42 50.64C2328.82 49.6267 2326.93 49.12 2324.74 49.12C2322.61 49.12 2320.72 49.6267 2319.06 50.64C2317.46 51.6 2316.18 52.96 2315.22 54.72C2314.32 56.48 2313.86 58.5067 2313.86 60.8C2313.86 63.0933 2314.32 65.12 2315.22 66.88C2316.18 68.64 2317.46 70.0267 2319.06 71.04C2320.72 72 2322.61 72.48 2324.74 72.48ZM2335.06 80V69.68L2336.58 60.32L2335.06 51.04V41.6H2343.86V80H2335.06ZM2331.3 36.08C2329.54 36.08 2328.05 35.76 2326.82 35.12C2325.6 34.48 2324.45 33.8667 2323.38 33.28C2322.37 32.64 2321.22 32.32 2319.94 32.32C2318.61 32.32 2317.54 32.56 2316.74 33.04C2315.94 33.52 2315.17 34.24 2314.42 35.2L2309.7 30.48C2311.25 28.72 2312.8 27.3333 2314.34 26.32C2315.89 25.2533 2317.7 24.72 2319.78 24.72C2321.54 24.72 2323.04 25.04 2324.26 25.68C2325.49 26.2667 2326.64 26.88 2327.7 27.52C2328.77 28.16 2329.92 28.48 2331.14 28.48C2332.53 28.48 2333.62 28.24 2334.42 27.76C2335.22 27.28 2335.97 26.56 2336.66 25.6L2341.38 30.32C2339.84 32.08 2338.29 33.4933 2336.74 34.56C2335.2 35.5733 2333.38 36.08 2331.3 36.08ZM2371.23 80.8C2367.5 80.8 2364.11 79.92 2361.07 78.16C2358.03 76.3467 2355.6 73.92 2353.79 70.88C2352.03 67.84 2351.15 64.4533 2351.15 60.72C2351.15 56.9867 2352.03 53.6267 2353.79 50.64C2355.6 47.6533 2358.03 45.28 2361.07 43.52C2364.11 41.7067 2367.5 40.8 2371.23 40.8C2375.02 40.8 2378.43 41.68 2381.47 43.44C2384.51 45.2 2386.91 47.6 2388.67 50.64C2390.48 53.6267 2391.39 56.9867 2391.39 60.72C2391.39 64.4533 2390.48 67.84 2388.67 70.88C2386.91 73.92 2384.51 76.3467 2381.47 78.16C2378.43 79.92 2375.02 80.8 2371.23 80.8ZM2371.23 72.32C2373.42 72.32 2375.34 71.84 2376.99 70.88C2378.7 69.8667 2380 68.48 2380.91 66.72C2381.87 64.96 2382.35 62.96 2382.35 60.72C2382.35 58.48 2381.87 56.5067 2380.91 54.8C2379.95 53.0933 2378.64 51.76 2376.99 50.8C2375.34 49.7867 2373.42 49.28 2371.23 49.28C2369.1 49.28 2367.18 49.7867 2365.47 50.8C2363.82 51.76 2362.51 53.0933 2361.55 54.8C2360.64 56.5067 2360.19 58.48 2360.19 60.72C2360.19 62.96 2360.64 64.96 2361.55 66.72C2362.51 68.48 2363.82 69.8667 2365.47 70.88C2367.18 71.84 2369.1 72.32 2371.23 72.32ZM2422.24 58.88V50.88H2436.24C2438.16 50.88 2439.84 50.5067 2441.28 49.76C2442.78 48.96 2443.95 47.8667 2444.8 46.48C2445.66 45.04 2446.08 43.36 2446.08 41.44C2446.08 39.52 2445.66 37.8667 2444.8 36.48C2443.95 35.04 2442.78 33.9467 2441.28 33.2C2439.84 32.4 2438.16 32 2436.24 32H2422.24V24H2436.72C2440.24 24 2443.39 24.72 2446.16 26.16C2448.99 27.6 2451.2 29.6267 2452.8 32.24C2454.46 34.8533 2455.28 37.92 2455.28 41.44C2455.28 44.96 2454.46 48.0267 2452.8 50.64C2451.2 53.2533 2448.99 55.28 2446.16 56.72C2443.39 58.16 2440.24 58.88 2436.72 58.88H2422.24ZM2415.92 80V24H2425.12V80H2415.92ZM2463.01 80V41.6H2471.81V80H2463.01ZM2471.81 58.64L2468.77 57.12C2468.77 52.2667 2469.83 48.3467 2471.97 45.36C2474.15 42.32 2477.43 40.8 2481.81 40.8C2483.73 40.8 2485.46 41.1467 2487.01 41.84C2488.55 42.5333 2489.99 43.6533 2491.33 45.2L2485.57 51.12C2484.87 50.3733 2484.1 49.84 2483.25 49.52C2482.39 49.2 2481.41 49.04 2480.29 49.04C2477.83 49.04 2475.81 49.8133 2474.21 51.36C2472.61 52.9067 2471.81 55.3333 2471.81 58.64ZM2495.66 80V41.6H2504.46V80H2495.66ZM2500.06 34.56C2498.57 34.56 2497.32 34.0533 2496.3 33.04C2495.34 32.0267 2494.86 30.7733 2494.86 29.28C2494.86 27.7867 2495.34 26.5333 2496.3 25.52C2497.32 24.5067 2498.57 24 2500.06 24C2501.61 24 2502.86 24.5067 2503.82 25.52C2504.78 26.5333 2505.26 27.7867 2505.26 29.28C2505.26 30.7733 2504.78 32.0267 2503.82 33.04C2502.86 34.0533 2501.61 34.56 2500.06 34.56ZM2514.33 80V41.6H2523.13V80H2514.33ZM2539.85 80V57.12C2539.85 54.56 2539.05 52.5867 2537.45 51.2C2535.85 49.76 2533.88 49.04 2531.53 49.04C2529.93 49.04 2528.49 49.36 2527.21 50C2525.99 50.64 2525 51.5733 2524.25 52.8C2523.51 53.9733 2523.13 55.4133 2523.13 57.12L2519.69 55.2C2519.69 52.2667 2520.33 49.7333 2521.61 47.6C2522.89 45.4667 2524.63 43.8133 2526.81 42.64C2529 41.4133 2531.45 40.8 2534.17 40.8C2536.89 40.8 2539.35 41.3867 2541.53 42.56C2543.72 43.7333 2545.45 45.3867 2546.73 47.52C2548.01 49.6533 2548.65 52.2133 2548.65 55.2V80H2539.85ZM2565.37 80V57.12C2565.37 54.56 2564.57 52.5867 2562.97 51.2C2561.37 49.76 2559.4 49.04 2557.05 49.04C2555.51 49.04 2554.09 49.36 2552.81 50C2551.53 50.64 2550.52 51.5733 2549.77 52.8C2549.03 53.9733 2548.65 55.4133 2548.65 57.12L2543.69 55.2C2543.96 52.2667 2544.81 49.7333 2546.25 47.6C2547.69 45.4667 2549.53 43.8133 2551.77 42.64C2554.07 41.4133 2556.57 40.8 2559.29 40.8C2562.07 40.8 2564.57 41.3867 2566.81 42.56C2569.05 43.7333 2570.84 45.3867 2572.17 47.52C2573.51 49.6533 2574.17 52.2133 2574.17 55.2V80H2565.37ZM2599.32 80.8C2595.85 80.8 2592.71 79.92 2589.88 78.16C2587.11 76.4 2584.89 74.0267 2583.24 71.04C2581.64 68 2580.84 64.6133 2580.84 60.88C2580.84 57.0933 2581.64 53.7067 2583.24 50.72C2584.89 47.68 2587.11 45.28 2589.88 43.52C2592.71 41.7067 2595.85 40.8 2599.32 40.8C2602.25 40.8 2604.84 41.44 2607.08 42.72C2609.37 43.9467 2611.19 45.6533 2612.52 47.84C2613.85 50.0267 2614.52 52.5067 2614.52 55.28V66.32C2614.52 69.0933 2613.85 71.5733 2612.52 73.76C2611.24 75.9467 2609.45 77.68 2607.16 78.96C2604.87 80.1867 2602.25 80.8 2599.32 80.8ZM2600.76 72.48C2604.01 72.48 2606.63 71.3867 2608.6 69.2C2610.63 67.0133 2611.64 64.2133 2611.64 60.8C2611.64 58.5067 2611.19 56.48 2610.28 54.72C2609.37 52.96 2608.09 51.6 2606.44 50.64C2604.84 49.6267 2602.95 49.12 2600.76 49.12C2598.63 49.12 2596.73 49.6267 2595.08 50.64C2593.48 51.6 2592.2 52.96 2591.24 54.72C2590.33 56.48 2589.88 58.5067 2589.88 60.8C2589.88 63.0933 2590.33 65.12 2591.24 66.88C2592.2 68.64 2593.48 70.0267 2595.08 71.04C2596.73 72 2598.63 72.48 2600.76 72.48ZM2611.08 80V69.68L2612.6 60.32L2611.08 51.04V41.6H2619.88V80H2611.08ZM2597 36.08L2593 32.08L2603.24 19.04L2610.04 25.84L2597 36.08ZM2629.65 80V41.6H2638.45V80H2629.65ZM2638.45 58.64L2635.41 57.12C2635.41 52.2667 2636.47 48.3467 2638.61 45.36C2640.79 42.32 2644.07 40.8 2648.45 40.8C2650.37 40.8 2652.1 41.1467 2653.65 41.84C2655.19 42.5333 2656.63 43.6533 2657.97 45.2L2652.21 51.12C2651.51 50.3733 2650.74 49.84 2649.89 49.52C2649.03 49.2 2648.05 49.04 2646.93 49.04C2644.47 49.04 2642.45 49.8133 2640.85 51.36C2639.25 52.9067 2638.45 55.3333 2638.45 58.64ZM2662.3 80V41.6H2671.1V80H2662.3ZM2666.7 34.56C2665.21 34.56 2663.96 34.0533 2662.94 33.04C2661.98 32.0267 2661.5 30.7733 2661.5 29.28C2661.5 27.7867 2661.98 26.5333 2662.94 25.52C2663.96 24.5067 2665.21 24 2666.7 24C2668.25 24 2669.5 24.5067 2670.46 25.52C2671.42 26.5333 2671.9 27.7867 2671.9 29.28C2671.9 30.7733 2671.42 32.0267 2670.46 33.04C2669.5 34.0533 2668.25 34.56 2666.7 34.56ZM2697.05 80.8C2693.59 80.8 2690.44 79.92 2687.61 78.16C2684.84 76.4 2682.63 74.0267 2680.97 71.04C2679.37 68 2678.57 64.6133 2678.57 60.88C2678.57 57.0933 2679.37 53.7067 2680.97 50.72C2682.63 47.68 2684.84 45.28 2687.61 43.52C2690.44 41.7067 2693.59 40.8 2697.05 40.8C2699.99 40.8 2702.57 41.44 2704.81 42.72C2707.11 43.9467 2708.92 45.6533 2710.25 47.84C2711.59 50.0267 2712.25 52.5067 2712.25 55.28V66.32C2712.25 69.0933 2711.59 71.5733 2710.25 73.76C2708.97 75.9467 2707.19 77.68 2704.89 78.96C2702.6 80.1867 2699.99 80.8 2697.05 80.8ZM2698.49 72.48C2701.75 72.48 2704.36 71.3867 2706.33 69.2C2708.36 67.0133 2709.37 64.2133 2709.37 60.8C2709.37 58.5067 2708.92 56.48 2708.01 54.72C2707.11 52.96 2705.83 51.6 2704.17 50.64C2702.57 49.6267 2700.68 49.12 2698.49 49.12C2696.36 49.12 2694.47 49.6267 2692.81 50.64C2691.21 51.6 2689.93 52.96 2688.97 54.72C2688.07 56.48 2687.61 58.5067 2687.61 60.8C2687.61 63.0933 2688.07 65.12 2688.97 66.88C2689.93 68.64 2691.21 70.0267 2692.81 71.04C2694.47 72 2696.36 72.48 2698.49 72.48ZM2708.81 80V69.68L2710.33 60.32L2708.81 51.04V41.6H2717.61V80H2708.81Z" fill="#39762A"/>
</svg>
