<svg width="2067" height="131" viewBox="0 0 2067 131" fill="none" xmlns="http://www.w3.org/2000/svg">
<path d="M6.08 80V24H15.28V80H6.08ZM12.4 80V71.6H43.76V80H12.4ZM12.4 55.44V47.36H41.04V55.44H12.4ZM12.4 32.4V24H43.36V32.4H12.4ZM65.0275 80L47.5075 41.6H57.2675L70.6275 72.88H64.8675L78.3075 41.6H87.6675L70.1475 80H65.0275ZM109.121 80.8C105.387 80.8 102.001 79.92 98.9606 78.16C95.9206 76.3467 93.494 73.92 91.6806 70.88C89.9206 67.84 89.0406 64.4533 89.0406 60.72C89.0406 56.9867 89.9206 53.6267 91.6806 50.64C93.494 47.6533 95.9206 45.28 98.9606 43.52C102.001 41.7067 105.387 40.8 109.121 40.8C112.907 40.8 116.321 41.68 119.361 43.44C122.401 45.2 124.801 47.6 126.561 50.64C128.374 53.6267 129.281 56.9867 129.281 60.72C129.281 64.4533 128.374 67.84 126.561 70.88C124.801 73.92 122.401 76.3467 119.361 78.16C116.321 79.92 112.907 80.8 109.121 80.8ZM109.121 72.32C111.307 72.32 113.227 71.84 114.881 70.88C116.587 69.8667 117.894 68.48 118.801 66.72C119.761 64.96 120.241 62.96 120.241 60.72C120.241 58.48 119.761 56.5067 118.801 54.8C117.841 53.0933 116.534 51.76 114.881 50.8C113.227 49.7867 111.307 49.28 109.121 49.28C106.987 49.28 105.067 49.7867 103.361 50.8C101.707 51.76 100.401 53.0933 99.4406 54.8C98.534 56.5067 98.0806 58.48 98.0806 60.72C98.0806 62.96 98.534 64.96 99.4406 66.72C100.401 68.48 101.707 69.8667 103.361 70.88C105.067 71.84 106.987 72.32 109.121 72.32ZM136.599 80V22.4H145.399V80H136.599ZM170.953 80.8C167.699 80.8 164.793 80.08 162.233 78.64C159.726 77.2 157.753 75.2267 156.313 72.72C154.926 70.16 154.233 67.2267 154.233 63.92V41.6H163.033V63.52C163.033 65.3867 163.326 66.9867 163.913 68.32C164.553 69.6 165.459 70.5867 166.633 71.28C167.859 71.9733 169.299 72.32 170.953 72.32C173.513 72.32 175.459 71.5733 176.793 70.08C178.179 68.5333 178.873 66.3467 178.873 63.52V41.6H187.673V63.92C187.673 67.28 186.953 70.24 185.513 72.8C184.126 75.3067 182.179 77.28 179.673 78.72C177.166 80.1067 174.259 80.8 170.953 80.8ZM214.201 80.8C210.414 80.8 206.974 79.92 203.881 78.16C200.841 76.4 198.441 74 196.681 70.96C194.921 67.92 194.041 64.5333 194.041 60.8C194.041 57.0133 194.921 53.6267 196.681 50.64C198.441 47.6 200.841 45.2 203.881 43.44C206.974 41.68 210.414 40.8 214.201 40.8C217.187 40.8 219.961 41.3867 222.521 42.56C225.134 43.68 227.347 45.3067 229.161 47.44L223.401 53.28C222.281 51.9467 220.921 50.96 219.321 50.32C217.774 49.6267 216.067 49.28 214.201 49.28C212.014 49.28 210.067 49.7867 208.361 50.8C206.707 51.76 205.401 53.0933 204.441 54.8C203.534 56.5067 203.081 58.5067 203.081 60.8C203.081 63.04 203.534 65.04 204.441 66.8C205.401 68.5067 206.707 69.8667 208.361 70.88C210.067 71.84 212.014 72.32 214.201 72.32C216.067 72.32 217.774 72 219.321 71.36C220.921 70.6667 222.281 69.6533 223.401 68.32L229.161 74.16C227.347 76.2933 225.134 77.9467 222.521 79.12C219.961 80.24 217.187 80.8 214.201 80.8ZM211.721 96.8C209.747 96.8 208.014 96.56 206.521 96.08C205.027 95.6 203.587 94.9067 202.201 94L205.801 89.44C206.387 89.9733 207.107 90.4 207.961 90.72C208.814 91.0933 209.854 91.28 211.081 91.28C212.467 91.28 213.454 91.0933 214.041 90.72C214.681 90.3467 215.001 89.8933 215.001 89.36C215.001 88.7733 214.707 88.24 214.121 87.76C213.587 87.3333 212.707 87.12 211.481 87.12H207.321L209.961 78.88H216.361L214.441 84.64L211.241 82.24C214.547 82.1333 217.214 82.7733 219.241 84.16C221.267 85.6 222.281 87.3867 222.281 89.52C222.281 91.6 221.294 93.3333 219.321 94.72C217.401 96.1067 214.867 96.8 211.721 96.8ZM250.804 80.8C247.337 80.8 244.19 79.92 241.364 78.16C238.59 76.4 236.377 74.0267 234.724 71.04C233.124 68 232.324 64.6133 232.324 60.88C232.324 57.0933 233.124 53.7067 234.724 50.72C236.377 47.68 238.59 45.28 241.364 43.52C244.19 41.7067 247.337 40.8 250.804 40.8C253.737 40.8 256.324 41.44 258.564 42.72C260.857 43.9467 262.67 45.6533 264.004 47.84C265.337 50.0267 266.004 52.5067 266.004 55.28V66.32C266.004 69.0933 265.337 71.5733 264.004 73.76C262.724 75.9467 260.937 77.68 258.644 78.96C256.35 80.1867 253.737 80.8 250.804 80.8ZM252.244 72.48C255.497 72.48 258.11 71.3867 260.084 69.2C262.11 67.0133 263.124 64.2133 263.124 60.8C263.124 58.5067 262.67 56.48 261.764 54.72C260.857 52.96 259.577 51.6 257.924 50.64C256.324 49.6267 254.43 49.12 252.244 49.12C250.11 49.12 248.217 49.6267 246.564 50.64C244.964 51.6 243.684 52.96 242.724 54.72C241.817 56.48 241.364 58.5067 241.364 60.8C241.364 63.0933 241.817 65.12 242.724 66.88C243.684 68.64 244.964 70.0267 246.564 71.04C248.217 72 250.11 72.48 252.244 72.48ZM262.564 80V69.68L264.084 60.32L262.564 51.04V41.6H271.364V80H262.564ZM258.804 36.08C257.044 36.08 255.55 35.76 254.324 35.12C253.097 34.48 251.95 33.8667 250.884 33.28C249.87 32.64 248.724 32.32 247.444 32.32C246.11 32.32 245.044 32.56 244.244 33.04C243.444 33.52 242.67 34.24 241.924 35.2L237.204 30.48C238.75 28.72 240.297 27.3333 241.844 26.32C243.39 25.2533 245.204 24.72 247.284 24.72C249.044 24.72 250.537 25.04 251.764 25.68C252.99 26.2667 254.137 26.88 255.204 27.52C256.27 28.16 257.417 28.48 258.644 28.48C260.03 28.48 261.124 28.24 261.924 27.76C262.724 27.28 263.47 26.56 264.164 25.6L268.884 30.32C267.337 32.08 265.79 33.4933 264.244 34.56C262.697 35.5733 260.884 36.08 258.804 36.08ZM298.73 80.8C294.997 80.8 291.61 79.92 288.57 78.16C285.53 76.3467 283.103 73.92 281.29 70.88C279.53 67.84 278.65 64.4533 278.65 60.72C278.65 56.9867 279.53 53.6267 281.29 50.64C283.103 47.6533 285.53 45.28 288.57 43.52C291.61 41.7067 294.997 40.8 298.73 40.8C302.517 40.8 305.93 41.68 308.97 43.44C312.01 45.2 314.41 47.6 316.17 50.64C317.983 53.6267 318.89 56.9867 318.89 60.72C318.89 64.4533 317.983 67.84 316.17 70.88C314.41 73.92 312.01 76.3467 308.97 78.16C305.93 79.92 302.517 80.8 298.73 80.8ZM298.73 72.32C300.917 72.32 302.837 71.84 304.49 70.88C306.197 69.8667 307.503 68.48 308.41 66.72C309.37 64.96 309.85 62.96 309.85 60.72C309.85 58.48 309.37 56.5067 308.41 54.8C307.45 53.0933 306.143 51.76 304.49 50.8C302.837 49.7867 300.917 49.28 298.73 49.28C296.597 49.28 294.677 49.7867 292.97 50.8C291.317 51.76 290.01 53.0933 289.05 54.8C288.143 56.5067 287.69 58.48 287.69 60.72C287.69 62.96 288.143 64.96 289.05 66.72C290.01 68.48 291.317 69.8667 292.97 70.88C294.677 71.84 296.597 72.32 298.73 72.32ZM358.304 80.8C354.837 80.8 351.69 79.92 348.864 78.16C346.09 76.4 343.877 74.0267 342.224 71.04C340.624 68 339.824 64.6133 339.824 60.88C339.824 57.0933 340.624 53.7067 342.224 50.72C343.877 47.68 346.09 45.28 348.864 43.52C351.69 41.7067 354.837 40.8 358.304 40.8C361.237 40.8 363.824 41.44 366.064 42.72C368.357 43.9467 370.17 45.6533 371.504 47.84C372.837 50.0267 373.504 52.5067 373.504 55.28V66.32C373.504 69.0933 372.837 71.5733 371.504 73.76C370.224 75.9467 368.437 77.68 366.144 78.96C363.85 80.1867 361.237 80.8 358.304 80.8ZM359.744 72.48C361.93 72.48 363.824 72 365.424 71.04C367.077 70.0267 368.357 68.64 369.264 66.88C370.17 65.12 370.624 63.0933 370.624 60.8C370.624 58.5067 370.17 56.48 369.264 54.72C368.357 52.96 367.077 51.6 365.424 50.64C363.824 49.6267 361.93 49.12 359.744 49.12C357.61 49.12 355.717 49.6267 354.064 50.64C352.464 51.6 351.184 52.96 350.224 54.72C349.317 56.48 348.864 58.5067 348.864 60.8C348.864 63.0933 349.317 65.12 350.224 66.88C351.184 68.64 352.464 70.0267 354.064 71.04C355.717 72 357.61 72.48 359.744 72.48ZM378.864 80H370.064V69.68L371.584 60.32L370.064 51.04V22.4H378.864V80ZM404.71 80.8C401.243 80.8 398.097 79.92 395.27 78.16C392.497 76.4 390.283 74.0267 388.63 71.04C387.03 68 386.23 64.6133 386.23 60.88C386.23 57.0933 387.03 53.7067 388.63 50.72C390.283 47.68 392.497 45.28 395.27 43.52C398.097 41.7067 401.243 40.8 404.71 40.8C407.643 40.8 410.23 41.44 412.47 42.72C414.763 43.9467 416.577 45.6533 417.91 47.84C419.243 50.0267 419.91 52.5067 419.91 55.28V66.32C419.91 69.0933 419.243 71.5733 417.91 73.76C416.63 75.9467 414.843 77.68 412.55 78.96C410.257 80.1867 407.643 80.8 404.71 80.8ZM406.15 72.48C409.403 72.48 412.017 71.3867 413.99 69.2C416.017 67.0133 417.03 64.2133 417.03 60.8C417.03 58.5067 416.577 56.48 415.67 54.72C414.763 52.96 413.483 51.6 411.83 50.64C410.23 49.6267 408.337 49.12 406.15 49.12C404.017 49.12 402.123 49.6267 400.47 50.64C398.87 51.6 397.59 52.96 396.63 54.72C395.723 56.48 395.27 58.5067 395.27 60.8C395.27 63.0933 395.723 65.12 396.63 66.88C397.59 68.64 398.87 70.0267 400.47 71.04C402.123 72 404.017 72.48 406.15 72.48ZM416.47 80V69.68L417.99 60.32L416.47 51.04V41.6H425.27V80H416.47ZM465.082 80V25.6H474.282V80H465.082ZM446.842 32.4V24H492.522V32.4H446.842ZM505.491 80.8C502.025 80.8 498.878 79.92 496.051 78.16C493.278 76.4 491.065 74.0267 489.411 71.04C487.811 68 487.011 64.6133 487.011 60.88C487.011 57.0933 487.811 53.7067 489.411 50.72C491.065 47.68 493.278 45.28 496.051 43.52C498.878 41.7067 502.025 40.8 505.491 40.8C508.425 40.8 511.011 41.44 513.251 42.72C515.545 43.9467 517.358 45.6533 518.691 47.84C520.025 50.0267 520.691 52.5067 520.691 55.28V66.32C520.691 69.0933 520.025 71.5733 518.691 73.76C517.411 75.9467 515.625 77.68 513.331 78.96C511.038 80.1867 508.425 80.8 505.491 80.8ZM506.931 72.48C510.185 72.48 512.798 71.3867 514.771 69.2C516.798 67.0133 517.811 64.2133 517.811 60.8C517.811 58.5067 517.358 56.48 516.451 54.72C515.545 52.96 514.265 51.6 512.611 50.64C511.011 49.6267 509.118 49.12 506.931 49.12C504.798 49.12 502.905 49.6267 501.251 50.64C499.651 51.6 498.371 52.96 497.411 54.72C496.505 56.48 496.051 58.5067 496.051 60.8C496.051 63.0933 496.505 65.12 497.411 66.88C498.371 68.64 499.651 70.0267 501.251 71.04C502.905 72 504.798 72.48 506.931 72.48ZM517.251 80V69.68L518.771 60.32L517.251 51.04V41.6H526.051V80H517.251ZM560.138 80L549.098 63.76L547.498 62.32L532.618 41.6H543.258L553.098 55.84L554.618 57.2L570.698 80H560.138ZM531.898 80L547.418 58.48L552.538 64.8L542.138 80H531.898ZM555.418 62.16L550.218 55.92L559.818 41.6H569.978L555.418 62.16ZM591.507 80.8C588.04 80.8 584.894 79.92 582.067 78.16C579.294 76.4 577.08 74.0267 575.427 71.04C573.827 68 573.027 64.6133 573.027 60.88C573.027 57.0933 573.827 53.7067 575.427 50.72C577.08 47.68 579.294 45.28 582.067 43.52C584.894 41.7067 588.04 40.8 591.507 40.8C594.44 40.8 597.027 41.44 599.267 42.72C601.56 43.9467 603.374 45.6533 604.707 47.84C606.04 50.0267 606.707 52.5067 606.707 55.28V66.32C606.707 69.0933 606.04 71.5733 604.707 73.76C603.427 75.9467 601.64 77.68 599.347 78.96C597.054 80.1867 594.44 80.8 591.507 80.8ZM592.947 72.48C596.2 72.48 598.814 71.3867 600.787 69.2C602.814 67.0133 603.827 64.2133 603.827 60.8C603.827 58.5067 603.374 56.48 602.467 54.72C601.56 52.96 600.28 51.6 598.627 50.64C597.027 49.6267 595.134 49.12 592.947 49.12C590.814 49.12 588.92 49.6267 587.267 50.64C585.667 51.6 584.387 52.96 583.427 54.72C582.52 56.48 582.067 58.5067 582.067 60.8C582.067 63.0933 582.52 65.12 583.427 66.88C584.387 68.64 585.667 70.0267 587.267 71.04C588.92 72 590.814 72.48 592.947 72.48ZM603.267 80V69.68L604.787 60.32L603.267 51.04V41.6H612.067V80H603.267ZM653.929 80.8C650.462 80.8 647.315 79.92 644.489 78.16C641.715 76.4 639.502 74.0267 637.849 71.04C636.249 68 635.449 64.6133 635.449 60.88C635.449 57.0933 636.249 53.7067 637.849 50.72C639.502 47.68 641.715 45.28 644.489 43.52C647.315 41.7067 650.462 40.8 653.929 40.8C656.862 40.8 659.449 41.44 661.689 42.72C663.982 43.9467 665.795 45.6533 667.129 47.84C668.462 50.0267 669.129 52.5067 669.129 55.28V66.32C669.129 69.0933 668.462 71.5733 667.129 73.76C665.849 75.9467 664.062 77.68 661.769 78.96C659.475 80.1867 656.862 80.8 653.929 80.8ZM655.369 72.48C657.555 72.48 659.449 72 661.049 71.04C662.702 70.0267 663.982 68.64 664.889 66.88C665.795 65.12 666.249 63.0933 666.249 60.8C666.249 58.5067 665.795 56.48 664.889 54.72C663.982 52.96 662.702 51.6 661.049 50.64C659.449 49.6267 657.555 49.12 655.369 49.12C653.235 49.12 651.342 49.6267 649.689 50.64C648.089 51.6 646.809 52.96 645.849 54.72C644.942 56.48 644.489 58.5067 644.489 60.8C644.489 63.0933 644.942 65.12 645.849 66.88C646.809 68.64 648.089 70.0267 649.689 71.04C651.342 72 653.235 72.48 655.369 72.48ZM674.489 80H665.689V69.68L667.209 60.32L665.689 51.04V22.4H674.489V80ZM702.095 80.8C698.255 80.8 694.788 79.9467 691.695 78.24C688.655 76.48 686.228 74.08 684.415 71.04C682.655 68 681.775 64.5867 681.775 60.8C681.775 57.0133 682.655 53.6267 684.415 50.64C686.175 47.6 688.548 45.2 691.535 43.44C694.575 41.68 697.935 40.8 701.615 40.8C705.188 40.8 708.335 41.6267 711.055 43.28C713.828 44.9333 715.988 47.2 717.535 50.08C719.135 52.96 719.935 56.24 719.935 59.92C719.935 60.56 719.882 61.2267 719.775 61.92C719.722 62.56 719.615 63.28 719.455 64.08H687.935V56.88H714.895L711.615 59.76C711.508 57.4133 711.055 55.44 710.255 53.84C709.455 52.24 708.308 51.0133 706.815 50.16C705.375 49.3067 703.588 48.88 701.455 48.88C699.215 48.88 697.268 49.36 695.615 50.32C693.962 51.28 692.682 52.64 691.775 54.4C690.868 56.1067 690.415 58.16 690.415 60.56C690.415 62.96 690.895 65.0667 691.855 66.88C692.815 68.6933 694.175 70.1067 695.935 71.12C697.695 72.08 699.722 72.56 702.015 72.56C703.988 72.56 705.802 72.2133 707.455 71.52C709.162 70.8267 710.602 69.8133 711.775 68.48L717.375 74.16C715.508 76.3467 713.242 78 710.575 79.12C707.908 80.24 705.082 80.8 702.095 80.8ZM769.645 80.8C765.592 80.8 761.832 80.08 758.365 78.64C754.952 77.1467 751.965 75.0933 749.405 72.48C746.845 69.8133 744.872 66.7467 743.485 63.28C742.098 59.76 741.405 56 741.405 52C741.405 48 742.098 44.2667 743.485 40.8C744.872 37.28 746.845 34.2133 749.405 31.6C751.965 28.9867 754.952 26.9333 758.365 25.44C761.832 23.9467 765.592 23.2 769.645 23.2C774.178 23.2 778.098 23.9467 781.405 25.44C784.712 26.9333 787.645 28.96 790.205 31.52L783.965 37.76C782.312 35.9467 780.285 34.5333 777.885 33.52C775.538 32.5067 772.792 32 769.645 32C766.872 32 764.338 32.48 762.045 33.44C759.752 34.4 757.752 35.7867 756.045 37.6C754.392 39.36 753.112 41.4667 752.205 43.92C751.298 46.3733 750.845 49.0667 750.845 52C750.845 54.9333 751.298 57.6267 752.205 60.08C753.112 62.5333 754.392 64.6667 756.045 66.48C757.752 68.24 759.752 69.6 762.045 70.56C764.338 71.52 766.872 72 769.645 72C773.058 72 775.938 71.4933 778.285 70.48C780.685 69.4133 782.712 67.9733 784.365 66.16L790.605 72.4C788.045 75.0133 785.032 77.0667 781.565 78.56C778.098 80.0533 774.125 80.8 769.645 80.8ZM814.043 80.8C810.309 80.8 806.923 79.92 803.883 78.16C800.843 76.3467 798.416 73.92 796.603 70.88C794.843 67.84 793.963 64.4533 793.963 60.72C793.963 56.9867 794.843 53.6267 796.603 50.64C798.416 47.6533 800.843 45.28 803.883 43.52C806.923 41.7067 810.309 40.8 814.043 40.8C817.829 40.8 821.243 41.68 824.283 43.44C827.323 45.2 829.723 47.6 831.483 50.64C833.296 53.6267 834.203 56.9867 834.203 60.72C834.203 64.4533 833.296 67.84 831.483 70.88C829.723 73.92 827.323 76.3467 824.283 78.16C821.243 79.92 817.829 80.8 814.043 80.8ZM814.043 72.32C816.229 72.32 818.149 71.84 819.803 70.88C821.509 69.8667 822.816 68.48 823.723 66.72C824.683 64.96 825.163 62.96 825.163 60.72C825.163 58.48 824.683 56.5067 823.723 54.8C822.763 53.0933 821.456 51.76 819.803 50.8C818.149 49.7867 816.229 49.28 814.043 49.28C811.909 49.28 809.989 49.7867 808.283 50.8C806.629 51.76 805.323 53.0933 804.363 54.8C803.456 56.5067 803.003 58.48 803.003 60.72C803.003 62.96 803.456 64.96 804.363 66.72C805.323 68.48 806.629 69.8667 808.283 70.88C809.989 71.84 811.909 72.32 814.043 72.32ZM862.081 80.8C859.147 80.8 856.534 80.1867 854.241 78.96C851.947 77.68 850.134 75.9467 848.801 73.76C847.521 71.5733 846.881 69.0933 846.881 66.32V55.28C846.881 52.5067 847.547 50.0267 848.881 47.84C850.214 45.6533 852.027 43.9467 854.321 42.72C856.614 41.44 859.201 40.8 862.081 40.8C865.547 40.8 868.667 41.7067 871.441 43.52C874.267 45.28 876.481 47.68 878.081 50.72C879.734 53.7067 880.561 57.0933 880.561 60.88C880.561 64.6133 879.734 68 878.081 71.04C876.481 74.0267 874.267 76.4 871.441 78.16C868.667 79.92 865.547 80.8 862.081 80.8ZM841.521 80V22.4H850.321V51.04L848.801 60.32L850.321 69.68V80H841.521ZM860.641 72.48C862.774 72.48 864.641 72 866.241 71.04C867.894 70.0267 869.174 68.64 870.081 66.88C871.041 65.12 871.521 63.0933 871.521 60.8C871.521 58.5067 871.041 56.48 870.081 54.72C869.174 52.96 867.894 51.6 866.241 50.64C864.641 49.6267 862.774 49.12 860.641 49.12C858.507 49.12 856.614 49.6267 854.961 50.64C853.307 51.6 852.027 52.96 851.121 54.72C850.214 56.48 849.761 58.5067 849.761 60.8C849.761 63.0933 850.214 65.12 851.121 66.88C852.027 68.64 853.307 70.0267 854.961 71.04C856.614 72 858.507 72.48 860.641 72.48ZM905.767 80.8C901.927 80.8 898.46 79.9467 895.367 78.24C892.327 76.48 889.9 74.08 888.087 71.04C886.327 68 885.447 64.5867 885.447 60.8C885.447 57.0133 886.327 53.6267 888.087 50.64C889.847 47.6 892.22 45.2 895.207 43.44C898.247 41.68 901.607 40.8 905.287 40.8C908.86 40.8 912.007 41.6267 914.727 43.28C917.5 44.9333 919.66 47.2 921.207 50.08C922.807 52.96 923.607 56.24 923.607 59.92C923.607 60.56 923.554 61.2267 923.447 61.92C923.394 62.56 923.287 63.28 923.127 64.08H891.607V56.88H918.567L915.287 59.76C915.18 57.4133 914.727 55.44 913.927 53.84C913.127 52.24 911.98 51.0133 910.487 50.16C909.047 49.3067 907.26 48.88 905.127 48.88C902.887 48.88 900.94 49.36 899.287 50.32C897.634 51.28 896.354 52.64 895.447 54.4C894.54 56.1067 894.087 58.16 894.087 60.56C894.087 62.96 894.567 65.0667 895.527 66.88C896.487 68.6933 897.847 70.1067 899.607 71.12C901.367 72.08 903.394 72.56 905.687 72.56C907.66 72.56 909.474 72.2133 911.127 71.52C912.834 70.8267 914.274 69.8133 915.447 68.48L921.047 74.16C919.18 76.3467 916.914 78 914.247 79.12C911.58 80.24 908.754 80.8 905.767 80.8ZM930.661 80V41.6H939.461V80H930.661ZM939.461 58.64L936.421 57.12C936.421 52.2667 937.488 48.3467 939.621 45.36C941.808 42.32 945.088 40.8 949.461 40.8C951.381 40.8 953.115 41.1467 954.661 41.84C956.208 42.5333 957.648 43.6533 958.981 45.2L953.221 51.12C952.528 50.3733 951.755 49.84 950.901 49.52C950.048 49.2 949.061 49.04 947.941 49.04C945.488 49.04 943.461 49.8133 941.861 51.36C940.261 52.9067 939.461 55.3333 939.461 58.64ZM969.158 80V25.6H977.958V80H969.158ZM959.958 49.6V41.6H987.158V49.6H959.958ZM1009.31 80.8C1006.06 80.8 1003.15 80.08 1000.59 78.64C998.085 77.2 996.112 75.2267 994.672 72.72C993.285 70.16 992.592 67.2267 992.592 63.92V41.6H1001.39V63.52C1001.39 65.3867 1001.69 66.9867 1002.27 68.32C1002.91 69.6 1003.82 70.5867 1004.99 71.28C1006.22 71.9733 1007.66 72.32 1009.31 72.32C1011.87 72.32 1013.82 71.5733 1015.15 70.08C1016.54 68.5333 1017.23 66.3467 1017.23 63.52V41.6H1026.03V63.92C1026.03 67.28 1025.31 70.24 1023.87 72.8C1022.49 75.3067 1020.54 77.28 1018.03 78.72C1015.53 80.1067 1012.62 80.8 1009.31 80.8ZM1034.88 80V41.6H1043.68V80H1034.88ZM1043.68 58.64L1040.64 57.12C1040.64 52.2667 1041.71 48.3467 1043.84 45.36C1046.03 42.32 1049.31 40.8 1053.68 40.8C1055.6 40.8 1057.33 41.1467 1058.88 41.84C1060.43 42.5333 1061.87 43.6533 1063.2 45.2L1057.44 51.12C1056.75 50.3733 1055.97 49.84 1055.12 49.52C1054.27 49.2 1053.28 49.04 1052.16 49.04C1049.71 49.04 1047.68 49.8133 1046.08 51.36C1044.48 52.9067 1043.68 55.3333 1043.68 58.64ZM1082.37 80.8C1078.9 80.8 1075.75 79.92 1072.93 78.16C1070.15 76.4 1067.94 74.0267 1066.29 71.04C1064.69 68 1063.89 64.6133 1063.89 60.88C1063.89 57.0933 1064.69 53.7067 1066.29 50.72C1067.94 47.68 1070.15 45.28 1072.93 43.52C1075.75 41.7067 1078.9 40.8 1082.37 40.8C1085.3 40.8 1087.89 41.44 1090.13 42.72C1092.42 43.9467 1094.23 45.6533 1095.57 47.84C1096.9 50.0267 1097.57 52.5067 1097.57 55.28V66.32C1097.57 69.0933 1096.9 71.5733 1095.57 73.76C1094.29 75.9467 1092.5 77.68 1090.21 78.96C1087.91 80.1867 1085.3 80.8 1082.37 80.8ZM1083.81 72.48C1087.06 72.48 1089.67 71.3867 1091.65 69.2C1093.67 67.0133 1094.69 64.2133 1094.69 60.8C1094.69 58.5067 1094.23 56.48 1093.33 54.72C1092.42 52.96 1091.14 51.6 1089.49 50.64C1087.89 49.6267 1085.99 49.12 1083.81 49.12C1081.67 49.12 1079.78 49.6267 1078.13 50.64C1076.53 51.6 1075.25 52.96 1074.29 54.72C1073.38 56.48 1072.93 58.5067 1072.93 60.8C1072.93 63.0933 1073.38 65.12 1074.29 66.88C1075.25 68.64 1076.53 70.0267 1078.13 71.04C1079.78 72 1081.67 72.48 1083.81 72.48ZM1094.13 80V69.68L1095.65 60.32L1094.13 51.04V41.6H1102.93V80H1094.13ZM1144.79 80.8C1141.32 80.8 1138.17 79.92 1135.35 78.16C1132.57 76.4 1130.36 74.0267 1128.71 71.04C1127.11 68 1126.31 64.6133 1126.31 60.88C1126.31 57.0933 1127.11 53.7067 1128.71 50.72C1130.36 47.68 1132.57 45.28 1135.35 43.52C1138.17 41.7067 1141.32 40.8 1144.79 40.8C1147.72 40.8 1150.31 41.44 1152.55 42.72C1154.84 43.9467 1156.65 45.6533 1157.99 47.84C1159.32 50.0267 1159.99 52.5067 1159.99 55.28V66.32C1159.99 69.0933 1159.32 71.5733 1157.99 73.76C1156.71 75.9467 1154.92 77.68 1152.63 78.96C1150.33 80.1867 1147.72 80.8 1144.79 80.8ZM1146.23 72.48C1148.41 72.48 1150.31 72 1151.91 71.04C1153.56 70.0267 1154.84 68.64 1155.75 66.88C1156.65 65.12 1157.11 63.0933 1157.11 60.8C1157.11 58.5067 1156.65 56.48 1155.75 54.72C1154.84 52.96 1153.56 51.6 1151.91 50.64C1150.31 49.6267 1148.41 49.12 1146.23 49.12C1144.09 49.12 1142.2 49.6267 1140.55 50.64C1138.95 51.6 1137.67 52.96 1136.71 54.72C1135.8 56.48 1135.35 58.5067 1135.35 60.8C1135.35 63.0933 1135.8 65.12 1136.71 66.88C1137.67 68.64 1138.95 70.0267 1140.55 71.04C1142.2 72 1144.09 72.48 1146.23 72.48ZM1165.35 80H1156.55V69.68L1158.07 60.32L1156.55 51.04V22.4H1165.35V80ZM1191.19 80.8C1187.73 80.8 1184.58 79.92 1181.75 78.16C1178.98 76.4 1176.77 74.0267 1175.11 71.04C1173.51 68 1172.71 64.6133 1172.71 60.88C1172.71 57.0933 1173.51 53.7067 1175.11 50.72C1176.77 47.68 1178.98 45.28 1181.75 43.52C1184.58 41.7067 1187.73 40.8 1191.19 40.8C1194.13 40.8 1196.71 41.44 1198.95 42.72C1201.25 43.9467 1203.06 45.6533 1204.39 47.84C1205.73 50.0267 1206.39 52.5067 1206.39 55.28V66.32C1206.39 69.0933 1205.73 71.5733 1204.39 73.76C1203.11 75.9467 1201.33 77.68 1199.03 78.96C1196.74 80.1867 1194.13 80.8 1191.19 80.8ZM1192.63 72.48C1195.89 72.48 1198.5 71.3867 1200.47 69.2C1202.5 67.0133 1203.51 64.2133 1203.51 60.8C1203.51 58.5067 1203.06 56.48 1202.15 54.72C1201.25 52.96 1199.97 51.6 1198.31 50.64C1196.71 49.6267 1194.82 49.12 1192.63 49.12C1190.5 49.12 1188.61 49.6267 1186.95 50.64C1185.35 51.6 1184.07 52.96 1183.11 54.72C1182.21 56.48 1181.75 58.5067 1181.75 60.8C1181.75 63.0933 1182.21 65.12 1183.11 66.88C1184.07 68.64 1185.35 70.0267 1186.95 71.04C1188.61 72 1190.5 72.48 1192.63 72.48ZM1202.95 80V69.68L1204.47 60.32L1202.95 51.04V41.6H1211.75V80H1202.95ZM1232.31 80L1255.35 24H1261.75L1284.63 80H1274.71L1256.79 34.64H1260.15L1242.07 80H1232.31ZM1243.67 69.2V61.2H1273.35V69.2H1243.67ZM1294.08 80V25.6H1302.88V80H1294.08ZM1284.88 49.6V41.6H1312.08V49.6H1284.88ZM1335.22 80.8C1331.38 80.8 1327.91 79.9467 1324.82 78.24C1321.78 76.48 1319.35 74.08 1317.54 71.04C1315.78 68 1314.9 64.5867 1314.9 60.8C1314.9 57.0133 1315.78 53.6267 1317.54 50.64C1319.3 47.6 1321.67 45.2 1324.66 43.44C1327.7 41.68 1331.06 40.8 1334.74 40.8C1338.31 40.8 1341.46 41.6267 1344.18 43.28C1346.95 44.9333 1349.11 47.2 1350.66 50.08C1352.26 52.96 1353.06 56.24 1353.06 59.92C1353.06 60.56 1353.01 61.2267 1352.9 61.92C1352.85 62.56 1352.74 63.28 1352.58 64.08H1321.06V56.88H1348.02L1344.74 59.76C1344.63 57.4133 1344.18 55.44 1343.38 53.84C1342.58 52.24 1341.43 51.0133 1339.94 50.16C1338.5 49.3067 1336.71 48.88 1334.58 48.88C1332.34 48.88 1330.39 49.36 1328.74 50.32C1327.09 51.28 1325.81 52.64 1324.9 54.4C1323.99 56.1067 1323.54 58.16 1323.54 60.56C1323.54 62.96 1324.02 65.0667 1324.98 66.88C1325.94 68.6933 1327.3 70.1067 1329.06 71.12C1330.82 72.08 1332.85 72.56 1335.14 72.56C1337.11 72.56 1338.93 72.2133 1340.58 71.52C1342.29 70.8267 1343.73 69.8133 1344.9 68.48L1350.5 74.16C1348.63 76.3467 1346.37 78 1343.7 79.12C1341.03 80.24 1338.21 80.8 1335.22 80.8ZM1386.43 80V57.84C1386.43 55.28 1385.61 53.1733 1383.95 51.52C1382.35 49.8667 1380.27 49.04 1377.71 49.04C1376.01 49.04 1374.49 49.4133 1373.15 50.16C1371.82 50.9067 1370.78 51.9467 1370.03 53.28C1369.29 54.6133 1368.91 56.1333 1368.91 57.84L1365.47 55.92C1365.47 52.9867 1366.11 50.4 1367.39 48.16C1368.67 45.8667 1370.43 44.08 1372.67 42.8C1374.97 41.4667 1377.53 40.8 1380.35 40.8C1383.23 40.8 1385.79 41.5467 1388.03 43.04C1390.27 44.48 1392.03 46.3733 1393.31 48.72C1394.59 51.0133 1395.23 53.4133 1395.23 55.92V80H1386.43ZM1360.11 80V41.6H1368.91V80H1360.11ZM1421.86 80.8C1418.07 80.8 1414.63 79.92 1411.54 78.16C1408.5 76.4 1406.1 74 1404.34 70.96C1402.58 67.92 1401.7 64.5333 1401.7 60.8C1401.7 57.0133 1402.58 53.6267 1404.34 50.64C1406.1 47.6 1408.5 45.2 1411.54 43.44C1414.63 41.68 1418.07 40.8 1421.86 40.8C1424.84 40.8 1427.62 41.3867 1430.18 42.56C1432.79 43.68 1435 45.3067 1436.82 47.44L1431.06 53.28C1429.94 51.9467 1428.58 50.96 1426.98 50.32C1425.43 49.6267 1423.72 49.28 1421.86 49.28C1419.67 49.28 1417.72 49.7867 1416.02 50.8C1414.36 51.76 1413.06 53.0933 1412.1 54.8C1411.19 56.5067 1410.74 58.5067 1410.74 60.8C1410.74 63.04 1411.19 65.04 1412.1 66.8C1413.06 68.5067 1414.36 69.8667 1416.02 70.88C1417.72 71.84 1419.67 72.32 1421.86 72.32C1423.72 72.32 1425.43 72 1426.98 71.36C1428.58 70.6667 1429.94 69.6533 1431.06 68.32L1436.82 74.16C1435 76.2933 1432.79 77.9467 1430.18 79.12C1427.62 80.24 1424.84 80.8 1421.86 80.8ZM1419.38 96.8C1417.4 96.8 1415.67 96.56 1414.18 96.08C1412.68 95.6 1411.24 94.9067 1409.86 94L1413.46 89.44C1414.04 89.9733 1414.76 90.4 1415.62 90.72C1416.47 91.0933 1417.51 91.28 1418.74 91.28C1420.12 91.28 1421.11 91.0933 1421.7 90.72C1422.34 90.3467 1422.66 89.8933 1422.66 89.36C1422.66 88.7733 1422.36 88.24 1421.78 87.76C1421.24 87.3333 1420.36 87.12 1419.14 87.12H1414.98L1417.62 78.88H1424.02L1422.1 84.64L1418.9 82.24C1422.2 82.1333 1424.87 82.7733 1426.9 84.16C1428.92 85.6 1429.94 87.3867 1429.94 89.52C1429.94 91.6 1428.95 93.3333 1426.98 94.72C1425.06 96.1067 1422.52 96.8 1419.38 96.8ZM1458.46 80.8C1454.99 80.8 1451.85 79.92 1449.02 78.16C1446.25 76.4 1444.03 74.0267 1442.38 71.04C1440.78 68 1439.98 64.6133 1439.98 60.88C1439.98 57.0933 1440.78 53.7067 1442.38 50.72C1444.03 47.68 1446.25 45.28 1449.02 43.52C1451.85 41.7067 1454.99 40.8 1458.46 40.8C1461.39 40.8 1463.98 41.44 1466.22 42.72C1468.51 43.9467 1470.33 45.6533 1471.66 47.84C1472.99 50.0267 1473.66 52.5067 1473.66 55.28V66.32C1473.66 69.0933 1472.99 71.5733 1471.66 73.76C1470.38 75.9467 1468.59 77.68 1466.3 78.96C1464.01 80.1867 1461.39 80.8 1458.46 80.8ZM1459.9 72.48C1463.15 72.48 1465.77 71.3867 1467.74 69.2C1469.77 67.0133 1470.78 64.2133 1470.78 60.8C1470.78 58.5067 1470.33 56.48 1469.42 54.72C1468.51 52.96 1467.23 51.6 1465.58 50.64C1463.98 49.6267 1462.09 49.12 1459.9 49.12C1457.77 49.12 1455.87 49.6267 1454.22 50.64C1452.62 51.6 1451.34 52.96 1450.38 54.72C1449.47 56.48 1449.02 58.5067 1449.02 60.8C1449.02 63.0933 1449.47 65.12 1450.38 66.88C1451.34 68.64 1452.62 70.0267 1454.22 71.04C1455.87 72 1457.77 72.48 1459.9 72.48ZM1470.22 80V69.68L1471.74 60.32L1470.22 51.04V41.6H1479.02V80H1470.22ZM1466.46 36.08C1464.7 36.08 1463.21 35.76 1461.98 35.12C1460.75 34.48 1459.61 33.8667 1458.54 33.28C1457.53 32.64 1456.38 32.32 1455.1 32.32C1453.77 32.32 1452.7 32.56 1451.9 33.04C1451.1 33.52 1450.33 34.24 1449.58 35.2L1444.86 30.48C1446.41 28.72 1447.95 27.3333 1449.5 26.32C1451.05 25.2533 1452.86 24.72 1454.94 24.72C1456.7 24.72 1458.19 25.04 1459.42 25.68C1460.65 26.2667 1461.79 26.88 1462.86 27.52C1463.93 28.16 1465.07 28.48 1466.3 28.48C1467.69 28.48 1468.78 28.24 1469.58 27.76C1470.38 27.28 1471.13 26.56 1471.82 25.6L1476.54 30.32C1474.99 32.08 1473.45 33.4933 1471.9 34.56C1470.35 35.5733 1468.54 36.08 1466.46 36.08ZM1506.39 80.8C1502.65 80.8 1499.27 79.92 1496.23 78.16C1493.19 76.3467 1490.76 73.92 1488.95 70.88C1487.19 67.84 1486.31 64.4533 1486.31 60.72C1486.31 56.9867 1487.19 53.6267 1488.95 50.64C1490.76 47.6533 1493.19 45.28 1496.23 43.52C1499.27 41.7067 1502.65 40.8 1506.39 40.8C1510.17 40.8 1513.59 41.68 1516.63 43.44C1519.67 45.2 1522.07 47.6 1523.83 50.64C1525.64 53.6267 1526.55 56.9867 1526.55 60.72C1526.55 64.4533 1525.64 67.84 1523.83 70.88C1522.07 73.92 1519.67 76.3467 1516.63 78.16C1513.59 79.92 1510.17 80.8 1506.39 80.8ZM1506.39 72.32C1508.57 72.32 1510.49 71.84 1512.15 70.88C1513.85 69.8667 1515.16 68.48 1516.07 66.72C1517.03 64.96 1517.51 62.96 1517.51 60.72C1517.51 58.48 1517.03 56.5067 1516.07 54.8C1515.11 53.0933 1513.8 51.76 1512.15 50.8C1510.49 49.7867 1508.57 49.28 1506.39 49.28C1504.25 49.28 1502.33 49.7867 1500.63 50.8C1498.97 51.76 1497.67 53.0933 1496.71 54.8C1495.8 56.5067 1495.35 58.48 1495.35 60.72C1495.35 62.96 1495.8 64.96 1496.71 66.72C1497.67 68.48 1498.97 69.8667 1500.63 70.88C1502.33 71.84 1504.25 72.32 1506.39 72.32ZM1557.4 80V72H1573.48C1576.31 72 1578.49 71.12 1580.04 69.36C1581.59 67.6 1582.36 65.5733 1582.36 63.28C1582.36 61.7333 1582.01 60.2933 1581.32 58.96C1580.63 57.6267 1579.61 56.56 1578.28 55.76C1576.95 54.96 1575.35 54.56 1573.48 54.56H1557.4V46.56H1572.12C1574.52 46.56 1576.44 45.9467 1577.88 44.72C1579.32 43.4933 1580.04 41.68 1580.04 39.28C1580.04 36.88 1579.32 35.0667 1577.88 33.84C1576.44 32.6133 1574.52 32 1572.12 32H1557.4V24H1572.36C1576.15 24 1579.29 24.6933 1581.8 26.08C1584.31 27.4667 1586.17 29.2533 1587.4 31.44C1588.63 33.6267 1589.24 35.9733 1589.24 38.48C1589.24 41.4133 1588.41 44 1586.76 46.24C1585.16 48.48 1582.79 50.2933 1579.64 51.68L1580.36 48.8C1583.88 50.24 1586.63 52.2667 1588.6 54.88C1590.57 57.4933 1591.56 60.56 1591.56 64.08C1591.56 66.96 1590.84 69.6 1589.4 72C1588.01 74.4 1585.93 76.3467 1583.16 77.84C1580.44 79.28 1577.08 80 1573.08 80H1557.4ZM1551.08 80V24H1560.28V80H1551.08ZM1615.73 80.8C1612.26 80.8 1609.11 79.92 1606.29 78.16C1603.51 76.4 1601.3 74.0267 1599.65 71.04C1598.05 68 1597.25 64.6133 1597.25 60.88C1597.25 57.0933 1598.05 53.7067 1599.65 50.72C1601.3 47.68 1603.51 45.28 1606.29 43.52C1609.11 41.7067 1612.26 40.8 1615.73 40.8C1618.66 40.8 1621.25 41.44 1623.49 42.72C1625.78 43.9467 1627.59 45.6533 1628.93 47.84C1630.26 50.0267 1630.93 52.5067 1630.93 55.28V66.32C1630.93 69.0933 1630.26 71.5733 1628.93 73.76C1627.65 75.9467 1625.86 77.68 1623.57 78.96C1621.27 80.1867 1618.66 80.8 1615.73 80.8ZM1617.17 72.48C1620.42 72.48 1623.03 71.3867 1625.01 69.2C1627.03 67.0133 1628.05 64.2133 1628.05 60.8C1628.05 58.5067 1627.59 56.48 1626.69 54.72C1625.78 52.96 1624.5 51.6 1622.85 50.64C1621.25 49.6267 1619.35 49.12 1617.17 49.12C1615.03 49.12 1613.14 49.6267 1611.49 50.64C1609.89 51.6 1608.61 52.96 1607.65 54.72C1606.74 56.48 1606.29 58.5067 1606.29 60.8C1606.29 63.0933 1606.74 65.12 1607.65 66.88C1608.61 68.64 1609.89 70.0267 1611.49 71.04C1613.14 72 1615.03 72.48 1617.17 72.48ZM1627.49 80V69.68L1629.01 60.32L1627.49 51.04V41.6H1636.29V80H1627.49ZM1613.41 36.08L1609.41 32.08L1619.65 19.04L1626.45 25.84L1613.41 36.08ZM1658.61 80.8C1656.48 80.8 1654.43 80.5333 1652.45 80C1650.48 79.4133 1648.67 78.6133 1647.01 77.6C1645.36 76.5333 1643.92 75.2533 1642.69 73.76L1648.29 68.16C1649.63 69.7067 1651.15 70.88 1652.85 71.68C1654.61 72.4267 1656.59 72.8 1658.77 72.8C1660.75 72.8 1662.24 72.5067 1663.25 71.92C1664.27 71.3333 1664.77 70.48 1664.77 69.36C1664.77 68.1867 1664.29 67.28 1663.33 66.64C1662.37 66 1661.12 65.4667 1659.57 65.04C1658.08 64.56 1656.48 64.08 1654.77 63.6C1653.12 63.12 1651.52 62.48 1649.97 61.68C1648.48 60.8267 1647.25 59.68 1646.29 58.24C1645.33 56.8 1644.85 54.9333 1644.85 52.64C1644.85 50.1867 1645.41 48.08 1646.53 46.32C1647.71 44.56 1649.33 43.2 1651.41 42.24C1653.55 41.28 1656.08 40.8 1659.01 40.8C1662.11 40.8 1664.83 41.36 1667.17 42.48C1669.57 43.5467 1671.57 45.1733 1673.17 47.36L1667.57 52.96C1666.45 51.5733 1665.17 50.5333 1663.73 49.84C1662.29 49.1467 1660.64 48.8 1658.77 48.8C1657.01 48.8 1655.65 49.0667 1654.69 49.6C1653.73 50.1333 1653.25 50.9067 1653.25 51.92C1653.25 52.9867 1653.73 53.8133 1654.69 54.4C1655.65 54.9867 1656.88 55.4933 1658.37 55.92C1659.92 56.3467 1661.52 56.8267 1663.17 57.36C1664.88 57.84 1666.48 58.5333 1667.97 59.44C1669.52 60.2933 1670.77 61.4667 1671.73 62.96C1672.69 64.4 1673.17 66.2933 1673.17 68.64C1673.17 72.3733 1671.87 75.3333 1669.25 77.52C1666.64 79.7067 1663.09 80.8 1658.61 80.8ZM1680.51 80V41.6H1689.31V80H1680.51ZM1684.91 34.56C1683.41 34.56 1682.16 34.0533 1681.15 33.04C1680.19 32.0267 1679.71 30.7733 1679.71 29.28C1679.71 27.7867 1680.19 26.5333 1681.15 25.52C1682.16 24.5067 1683.41 24 1684.91 24C1686.45 24 1687.71 24.5067 1688.67 25.52C1689.63 26.5333 1690.11 27.7867 1690.11 29.28C1690.11 30.7733 1689.63 32.0267 1688.67 33.04C1687.71 34.0533 1686.45 34.56 1684.91 34.56ZM1716.86 80.8C1713.07 80.8 1709.63 79.92 1706.54 78.16C1703.5 76.4 1701.1 74 1699.34 70.96C1697.58 67.92 1696.7 64.5333 1696.7 60.8C1696.7 57.0133 1697.58 53.6267 1699.34 50.64C1701.1 47.6 1703.5 45.2 1706.54 43.44C1709.63 41.68 1713.07 40.8 1716.86 40.8C1719.84 40.8 1722.62 41.3867 1725.18 42.56C1727.79 43.68 1730 45.3067 1731.82 47.44L1726.06 53.28C1724.94 51.9467 1723.58 50.96 1721.98 50.32C1720.43 49.6267 1718.72 49.28 1716.86 49.28C1714.67 49.28 1712.72 49.7867 1711.02 50.8C1709.36 51.76 1708.06 53.0933 1707.1 54.8C1706.19 56.5067 1705.74 58.5067 1705.74 60.8C1705.74 63.04 1706.19 65.04 1707.1 66.8C1708.06 68.5067 1709.36 69.8667 1711.02 70.88C1712.72 71.84 1714.67 72.32 1716.86 72.32C1718.72 72.32 1720.43 72 1721.98 71.36C1723.58 70.6667 1724.94 69.6533 1726.06 68.32L1731.82 74.16C1730 76.2933 1727.79 77.9467 1725.18 79.12C1722.62 80.24 1719.84 80.8 1716.86 80.8ZM1753.46 80.8C1749.99 80.8 1746.85 79.92 1744.02 78.16C1741.25 76.4 1739.03 74.0267 1737.38 71.04C1735.78 68 1734.98 64.6133 1734.98 60.88C1734.98 57.0933 1735.78 53.7067 1737.38 50.72C1739.03 47.68 1741.25 45.28 1744.02 43.52C1746.85 41.7067 1749.99 40.8 1753.46 40.8C1756.39 40.8 1758.98 41.44 1761.22 42.72C1763.51 43.9467 1765.33 45.6533 1766.66 47.84C1767.99 50.0267 1768.66 52.5067 1768.66 55.28V66.32C1768.66 69.0933 1767.99 71.5733 1766.66 73.76C1765.38 75.9467 1763.59 77.68 1761.3 78.96C1759.01 80.1867 1756.39 80.8 1753.46 80.8ZM1754.9 72.48C1758.15 72.48 1760.77 71.3867 1762.74 69.2C1764.77 67.0133 1765.78 64.2133 1765.78 60.8C1765.78 58.5067 1765.33 56.48 1764.42 54.72C1763.51 52.96 1762.23 51.6 1760.58 50.64C1758.98 49.6267 1757.09 49.12 1754.9 49.12C1752.77 49.12 1750.87 49.6267 1749.22 50.64C1747.62 51.6 1746.34 52.96 1745.38 54.72C1744.47 56.48 1744.02 58.5067 1744.02 60.8C1744.02 63.0933 1744.47 65.12 1745.38 66.88C1746.34 68.64 1747.62 70.0267 1749.22 71.04C1750.87 72 1752.77 72.48 1754.9 72.48ZM1765.22 80V69.68L1766.74 60.32L1765.22 51.04V41.6H1774.02V80H1765.22Z" fill="#39762A"/>
</svg>
