<svg width="4134" height="131" viewBox="0 0 4134 131" fill="none" xmlns="http://www.w3.org/2000/svg">
<path d="M6.08 80V24H12.48L15.28 34.56V80H6.08ZM44.88 80L11.36 36.24L12.48 24L46 67.76L44.88 80ZM44.88 80L42.08 70.16V24H51.28V80H44.88ZM77.9838 80.8C74.7304 80.8 71.8238 80.08 69.2638 78.64C66.7571 77.2 64.7838 75.2267 63.3438 72.72C61.9571 70.16 61.2638 67.2267 61.2638 63.92V41.6H70.0638V63.52C70.0638 65.3867 70.3571 66.9867 70.9438 68.32C71.5838 69.6 72.4904 70.5867 73.6638 71.28C74.8904 71.9733 76.3304 72.32 77.9838 72.32C80.5438 72.32 82.4904 71.5733 83.8238 70.08C85.2104 68.5333 85.9038 66.3467 85.9038 63.52V41.6H94.7038V63.92C94.7038 67.28 93.9838 70.24 92.5438 72.8C91.1571 75.3067 89.2104 77.28 86.7038 78.72C84.1971 80.1067 81.2904 80.8 77.9838 80.8ZM73.5038 36.08L69.5038 32.08L79.7438 19.04L86.5438 25.84L73.5038 36.08ZM103.552 80V41.6H112.352V80H103.552ZM129.072 80V57.12C129.072 54.56 128.272 52.5867 126.672 51.2C125.072 49.76 123.099 49.04 120.752 49.04C119.152 49.04 117.712 49.36 116.432 50C115.205 50.64 114.219 51.5733 113.472 52.8C112.725 53.9733 112.352 55.4133 112.352 57.12L108.912 55.2C108.912 52.2667 109.552 49.7333 110.832 47.6C112.112 45.4667 113.845 43.8133 116.032 42.64C118.219 41.4133 120.672 40.8 123.392 40.8C126.112 40.8 128.565 41.3867 130.752 42.56C132.939 43.7333 134.672 45.3867 135.952 47.52C137.232 49.6533 137.872 52.2133 137.872 55.2V80H129.072ZM154.592 80V57.12C154.592 54.56 153.792 52.5867 152.192 51.2C150.592 49.76 148.619 49.04 146.272 49.04C144.725 49.04 143.312 49.36 142.032 50C140.752 50.64 139.739 51.5733 138.992 52.8C138.245 53.9733 137.872 55.4133 137.872 57.12L132.912 55.2C133.179 52.2667 134.032 49.7333 135.472 47.6C136.912 45.4667 138.752 43.8133 140.992 42.64C143.285 41.4133 145.792 40.8 148.512 40.8C151.285 40.8 153.792 41.3867 156.032 42.56C158.272 43.7333 160.059 45.3867 161.392 47.52C162.725 49.6533 163.392 52.2133 163.392 55.2V80H154.592ZM190.298 80.8C186.458 80.8 182.991 79.9467 179.898 78.24C176.858 76.48 174.431 74.08 172.618 71.04C170.858 68 169.978 64.5867 169.978 60.8C169.978 57.0133 170.858 53.6267 172.618 50.64C174.378 47.6 176.751 45.2 179.738 43.44C182.778 41.68 186.138 40.8 189.818 40.8C193.391 40.8 196.538 41.6267 199.258 43.28C202.031 44.9333 204.191 47.2 205.738 50.08C207.338 52.96 208.138 56.24 208.138 59.92C208.138 60.56 208.085 61.2267 207.978 61.92C207.925 62.56 207.818 63.28 207.658 64.08H176.138V56.88H203.098L199.818 59.76C199.711 57.4133 199.258 55.44 198.458 53.84C197.658 52.24 196.511 51.0133 195.018 50.16C193.578 49.3067 191.791 48.88 189.658 48.88C187.418 48.88 185.471 49.36 183.818 50.32C182.165 51.28 180.885 52.64 179.978 54.4C179.071 56.1067 178.618 58.16 178.618 60.56C178.618 62.96 179.098 65.0667 180.058 66.88C181.018 68.6933 182.378 70.1067 184.138 71.12C185.898 72.08 187.925 72.56 190.218 72.56C192.191 72.56 194.005 72.2133 195.658 71.52C197.365 70.8267 198.805 69.8133 199.978 68.48L205.578 74.16C203.711 76.3467 201.445 78 198.778 79.12C196.111 80.24 193.285 80.8 190.298 80.8ZM215.193 80V41.6H223.993V80H215.193ZM223.993 58.64L220.953 57.12C220.953 52.2667 222.019 48.3467 224.153 45.36C226.339 42.32 229.619 40.8 233.993 40.8C235.913 40.8 237.646 41.1467 239.193 41.84C240.739 42.5333 242.179 43.6533 243.513 45.2L237.753 51.12C237.059 50.3733 236.286 49.84 235.433 49.52C234.579 49.2 233.593 49.04 232.473 49.04C230.019 49.04 227.993 49.8133 226.393 51.36C224.793 52.9067 223.993 55.3333 223.993 58.64ZM264.199 80.8C260.465 80.8 257.079 79.92 254.039 78.16C250.999 76.3467 248.572 73.92 246.759 70.88C244.999 67.84 244.119 64.4533 244.119 60.72C244.119 56.9867 244.999 53.6267 246.759 50.64C248.572 47.6533 250.999 45.28 254.039 43.52C257.079 41.7067 260.465 40.8 264.199 40.8C267.985 40.8 271.399 41.68 274.439 43.44C277.479 45.2 279.879 47.6 281.639 50.64C283.452 53.6267 284.359 56.9867 284.359 60.72C284.359 64.4533 283.452 67.84 281.639 70.88C279.879 73.92 277.479 76.3467 274.439 78.16C271.399 79.92 267.985 80.8 264.199 80.8ZM264.199 72.32C266.385 72.32 268.305 71.84 269.959 70.88C271.665 69.8667 272.972 68.48 273.879 66.72C274.839 64.96 275.319 62.96 275.319 60.72C275.319 58.48 274.839 56.5067 273.879 54.8C272.919 53.0933 271.612 51.76 269.959 50.8C268.305 49.7867 266.385 49.28 264.199 49.28C262.065 49.28 260.145 49.7867 258.439 50.8C256.785 51.76 255.479 53.0933 254.519 54.8C253.612 56.5067 253.159 58.48 253.159 60.72C253.159 62.96 253.612 64.96 254.519 66.72C255.479 68.48 256.785 69.8667 258.439 70.88C260.145 71.84 262.065 72.32 264.199 72.32ZM323.773 80.8C320.306 80.8 317.159 79.92 314.333 78.16C311.559 76.4 309.346 74.0267 307.693 71.04C306.093 68 305.293 64.6133 305.293 60.88C305.293 57.0933 306.093 53.7067 307.693 50.72C309.346 47.68 311.559 45.28 314.333 43.52C317.159 41.7067 320.306 40.8 323.773 40.8C326.706 40.8 329.293 41.44 331.533 42.72C333.826 43.9467 335.639 45.6533 336.973 47.84C338.306 50.0267 338.973 52.5067 338.973 55.28V66.32C338.973 69.0933 338.306 71.5733 336.973 73.76C335.693 75.9467 333.906 77.68 331.613 78.96C329.319 80.1867 326.706 80.8 323.773 80.8ZM325.213 72.48C327.399 72.48 329.293 72 330.893 71.04C332.546 70.0267 333.826 68.64 334.733 66.88C335.639 65.12 336.093 63.0933 336.093 60.8C336.093 58.5067 335.639 56.48 334.733 54.72C333.826 52.96 332.546 51.6 330.893 50.64C329.293 49.6267 327.399 49.12 325.213 49.12C323.079 49.12 321.186 49.6267 319.533 50.64C317.933 51.6 316.653 52.96 315.693 54.72C314.786 56.48 314.333 58.5067 314.333 60.8C314.333 63.0933 314.786 65.12 315.693 66.88C316.653 68.64 317.933 70.0267 319.533 71.04C321.186 72 323.079 72.48 325.213 72.48ZM344.333 80H335.533V69.68L337.053 60.32L335.533 51.04V22.4H344.333V80ZM371.939 80.8C368.099 80.8 364.632 79.9467 361.539 78.24C358.499 76.48 356.072 74.08 354.259 71.04C352.499 68 351.619 64.5867 351.619 60.8C351.619 57.0133 352.499 53.6267 354.259 50.64C356.019 47.6 358.392 45.2 361.379 43.44C364.419 41.68 367.779 40.8 371.459 40.8C375.032 40.8 378.179 41.6267 380.899 43.28C383.672 44.9333 385.832 47.2 387.379 50.08C388.979 52.96 389.779 56.24 389.779 59.92C389.779 60.56 389.725 61.2267 389.619 61.92C389.565 62.56 389.459 63.28 389.299 64.08H357.779V56.88H384.739L381.459 59.76C381.352 57.4133 380.899 55.44 380.099 53.84C379.299 52.24 378.152 51.0133 376.659 50.16C375.219 49.3067 373.432 48.88 371.299 48.88C369.059 48.88 367.112 49.36 365.459 50.32C363.805 51.28 362.525 52.64 361.619 54.4C360.712 56.1067 360.259 58.16 360.259 60.56C360.259 62.96 360.739 65.0667 361.699 66.88C362.659 68.6933 364.019 70.1067 365.779 71.12C367.539 72.08 369.565 72.56 371.859 72.56C373.832 72.56 375.645 72.2133 377.299 71.52C379.005 70.8267 380.445 69.8133 381.619 68.48L387.219 74.16C385.352 76.3467 383.085 78 380.419 79.12C377.752 80.24 374.925 80.8 371.939 80.8ZM414.049 80V24H423.249V80H414.049ZM420.369 80V71.6H451.729V80H420.369ZM420.369 55.44V47.36H449.009V55.44H420.369ZM420.369 32.4V24H451.329V32.4H420.369ZM484.356 80L473.316 63.76L471.716 62.32L456.836 41.6H467.476L477.316 55.84L478.836 57.2L494.916 80H484.356ZM456.116 80L471.636 58.48L476.756 64.8L466.356 80H456.116ZM479.636 62.16L474.436 55.92L484.036 41.6H494.196L479.636 62.16ZM515.726 80.8C512.259 80.8 509.112 79.92 506.286 78.16C503.512 76.4 501.299 74.0267 499.646 71.04C498.046 68 497.246 64.6133 497.246 60.88C497.246 57.0933 498.046 53.7067 499.646 50.72C501.299 47.68 503.512 45.28 506.286 43.52C509.112 41.7067 512.259 40.8 515.726 40.8C518.659 40.8 521.246 41.44 523.486 42.72C525.779 43.9467 527.592 45.6533 528.926 47.84C530.259 50.0267 530.926 52.5067 530.926 55.28V66.32C530.926 69.0933 530.259 71.5733 528.926 73.76C527.646 75.9467 525.859 77.68 523.566 78.96C521.272 80.1867 518.659 80.8 515.726 80.8ZM517.166 72.48C520.419 72.48 523.032 71.3867 525.006 69.2C527.032 67.0133 528.046 64.2133 528.046 60.8C528.046 58.5067 527.592 56.48 526.686 54.72C525.779 52.96 524.499 51.6 522.846 50.64C521.246 49.6267 519.352 49.12 517.166 49.12C515.032 49.12 513.139 49.6267 511.486 50.64C509.886 51.6 508.606 52.96 507.646 54.72C506.739 56.48 506.286 58.5067 506.286 60.8C506.286 63.0933 506.739 65.12 507.646 66.88C508.606 68.64 509.886 70.0267 511.486 71.04C513.139 72 515.032 72.48 517.166 72.48ZM527.486 80V69.68L529.006 60.32L527.486 51.04V41.6H536.286V80H527.486ZM546.052 80V41.6H554.852V80H546.052ZM571.572 80V57.12C571.572 54.56 570.772 52.5867 569.172 51.2C567.572 49.76 565.599 49.04 563.252 49.04C561.652 49.04 560.212 49.36 558.932 50C557.705 50.64 556.719 51.5733 555.972 52.8C555.225 53.9733 554.852 55.4133 554.852 57.12L551.412 55.2C551.412 52.2667 552.052 49.7333 553.332 47.6C554.612 45.4667 556.345 43.8133 558.532 42.64C560.719 41.4133 563.172 40.8 565.892 40.8C568.612 40.8 571.065 41.3867 573.252 42.56C575.439 43.7333 577.172 45.3867 578.452 47.52C579.732 49.6533 580.372 52.2133 580.372 55.2V80H571.572ZM597.092 80V57.12C597.092 54.56 596.292 52.5867 594.692 51.2C593.092 49.76 591.119 49.04 588.772 49.04C587.225 49.04 585.812 49.36 584.532 50C583.252 50.64 582.239 51.5733 581.492 52.8C580.745 53.9733 580.372 55.4133 580.372 57.12L575.412 55.2C575.679 52.2667 576.532 49.7333 577.972 47.6C579.412 45.4667 581.252 43.8133 583.492 42.64C585.785 41.4133 588.292 40.8 591.012 40.8C593.785 40.8 596.292 41.3867 598.532 42.56C600.772 43.7333 602.559 45.3867 603.892 47.52C605.225 49.6533 605.892 52.2133 605.892 55.2V80H597.092ZM632.798 80.8C628.958 80.8 625.491 79.9467 622.398 78.24C619.358 76.48 616.931 74.08 615.118 71.04C613.358 68 612.478 64.5867 612.478 60.8C612.478 57.0133 613.358 53.6267 615.118 50.64C616.878 47.6 619.251 45.2 622.238 43.44C625.278 41.68 628.638 40.8 632.318 40.8C635.891 40.8 639.038 41.6267 641.758 43.28C644.531 44.9333 646.691 47.2 648.238 50.08C649.838 52.96 650.638 56.24 650.638 59.92C650.638 60.56 650.585 61.2267 650.478 61.92C650.425 62.56 650.318 63.28 650.158 64.08H618.638V56.88H645.598L642.318 59.76C642.211 57.4133 641.758 55.44 640.958 53.84C640.158 52.24 639.011 51.0133 637.518 50.16C636.078 49.3067 634.291 48.88 632.158 48.88C629.918 48.88 627.971 49.36 626.318 50.32C624.665 51.28 623.385 52.64 622.478 54.4C621.571 56.1067 621.118 58.16 621.118 60.56C621.118 62.96 621.598 65.0667 622.558 66.88C623.518 68.6933 624.878 70.1067 626.638 71.12C628.398 72.08 630.425 72.56 632.718 72.56C634.691 72.56 636.505 72.2133 638.158 71.52C639.865 70.8267 641.305 69.8133 642.478 68.48L648.078 74.16C646.211 76.3467 643.945 78 641.278 79.12C638.611 80.24 635.785 80.8 632.798 80.8ZM670.253 80.8C668.119 80.8 666.066 80.5333 664.093 80C662.119 79.4133 660.306 78.6133 658.653 77.6C656.999 76.5333 655.559 75.2533 654.333 73.76L659.933 68.16C661.266 69.7067 662.786 70.88 664.493 71.68C666.253 72.4267 668.226 72.8 670.413 72.8C672.386 72.8 673.879 72.5067 674.893 71.92C675.906 71.3333 676.413 70.48 676.413 69.36C676.413 68.1867 675.933 67.28 674.973 66.64C674.013 66 672.759 65.4667 671.213 65.04C669.719 64.56 668.119 64.08 666.413 63.6C664.759 63.12 663.159 62.48 661.613 61.68C660.119 60.8267 658.893 59.68 657.933 58.24C656.973 56.8 656.493 54.9333 656.493 52.64C656.493 50.1867 657.053 48.08 658.173 46.32C659.346 44.56 660.973 43.2 663.053 42.24C665.186 41.28 667.719 40.8 670.653 40.8C673.746 40.8 676.466 41.36 678.813 42.48C681.213 43.5467 683.213 45.1733 684.813 47.36L679.213 52.96C678.093 51.5733 676.813 50.5333 675.373 49.84C673.933 49.1467 672.279 48.8 670.413 48.8C668.653 48.8 667.293 49.0667 666.333 49.6C665.373 50.1333 664.893 50.9067 664.893 51.92C664.893 52.9867 665.373 53.8133 666.333 54.4C667.293 54.9867 668.519 55.4933 670.013 55.92C671.559 56.3467 673.159 56.8267 674.813 57.36C676.519 57.84 678.119 58.5333 679.613 59.44C681.159 60.2933 682.413 61.4667 683.373 62.96C684.333 64.4 684.813 66.2933 684.813 68.64C684.813 72.3733 683.506 75.3333 680.893 77.52C678.279 79.7067 674.733 80.8 670.253 80.8ZM715.603 56.24V48.64H729.763C732.59 48.64 734.776 47.92 736.323 46.48C737.923 44.9867 738.723 42.9333 738.723 40.32C738.723 37.9733 737.95 36 736.403 34.4C734.856 32.8 732.67 32 729.843 32H715.603V24H730.243C733.763 24 736.856 24.72 739.523 26.16C742.19 27.5467 744.243 29.4667 745.683 31.92C747.176 34.32 747.923 37.0667 747.923 40.16C747.923 43.4133 747.176 46.24 745.683 48.64C744.243 51.04 742.19 52.9067 739.523 54.24C736.856 55.5733 733.763 56.24 730.243 56.24H715.603ZM709.283 80V24H718.483V80H709.283ZM740.003 80L720.403 55.68L728.963 52.56L751.603 80H740.003ZM773.892 80.8C770.052 80.8 766.585 79.9467 763.492 78.24C760.452 76.48 758.025 74.08 756.212 71.04C754.452 68 753.572 64.5867 753.572 60.8C753.572 57.0133 754.452 53.6267 756.212 50.64C757.972 47.6 760.345 45.2 763.332 43.44C766.372 41.68 769.732 40.8 773.412 40.8C776.985 40.8 780.132 41.6267 782.852 43.28C785.625 44.9333 787.785 47.2 789.332 50.08C790.932 52.96 791.732 56.24 791.732 59.92C791.732 60.56 791.679 61.2267 791.572 61.92C791.519 62.56 791.412 63.28 791.252 64.08H759.732V56.88H786.692L783.412 59.76C783.305 57.4133 782.852 55.44 782.052 53.84C781.252 52.24 780.105 51.0133 778.612 50.16C777.172 49.3067 775.385 48.88 773.252 48.88C771.012 48.88 769.065 49.36 767.412 50.32C765.759 51.28 764.479 52.64 763.572 54.4C762.665 56.1067 762.212 58.16 762.212 60.56C762.212 62.96 762.692 65.0667 763.652 66.88C764.612 68.6933 765.972 70.1067 767.732 71.12C769.492 72.08 771.519 72.56 773.812 72.56C775.785 72.56 777.599 72.2133 779.252 71.52C780.959 70.8267 782.399 69.8133 783.572 68.48L789.172 74.16C787.305 76.3467 785.039 78 782.372 79.12C779.705 80.24 776.879 80.8 773.892 80.8ZM814.866 80.8C811.4 80.8 808.253 79.92 805.426 78.16C802.653 76.4 800.44 74.0267 798.786 71.04C797.186 68 796.386 64.6133 796.386 60.88C796.386 57.0933 797.186 53.7067 798.786 50.72C800.44 47.68 802.653 45.28 805.426 43.52C808.253 41.7067 811.4 40.8 814.866 40.8C817.8 40.8 820.386 41.44 822.626 42.72C824.92 43.9467 826.733 45.6533 828.066 47.84C829.4 50.0267 830.066 52.5067 830.066 55.28V66.32C830.066 69.0933 829.4 71.5733 828.066 73.76C826.786 75.9467 825 77.68 822.706 78.96C820.413 80.1867 817.8 80.8 814.866 80.8ZM816.306 72.48C819.56 72.48 822.173 71.3867 824.146 69.2C826.173 67.0133 827.186 64.2133 827.186 60.8C827.186 58.5067 826.733 56.48 825.826 54.72C824.92 52.96 823.64 51.6 821.986 50.64C820.386 49.6267 818.493 49.12 816.306 49.12C814.173 49.12 812.28 49.6267 810.626 50.64C809.026 51.6 807.746 52.96 806.786 54.72C805.88 56.48 805.426 58.5067 805.426 60.8C805.426 63.0933 805.88 65.12 806.786 66.88C807.746 68.64 809.026 70.0267 810.626 71.04C812.28 72 814.173 72.48 816.306 72.48ZM826.626 80V69.68L828.146 60.32L826.626 51.04V41.6H835.426V80H826.626ZM845.193 80V22.4H853.993V80H845.193ZM863.866 80V41.6H872.666V80H863.866ZM868.266 34.56C866.773 34.56 865.52 34.0533 864.506 33.04C863.546 32.0267 863.066 30.7733 863.066 29.28C863.066 27.7867 863.546 26.5333 864.506 25.52C865.52 24.5067 866.773 24 868.266 24C869.813 24 871.066 24.5067 872.026 25.52C872.986 26.5333 873.466 27.7867 873.466 29.28C873.466 30.7733 872.986 32.0267 872.026 33.04C871.066 34.0533 869.813 34.56 868.266 34.56ZM879.656 75.2L901.096 46.4H911.416L889.976 75.2H879.656ZM879.656 80V75.2L887.656 72H910.936V80H879.656ZM881.096 49.6V41.6H911.416V46.4L903.416 49.6H881.096ZM934.085 80.8C930.618 80.8 927.472 79.92 924.645 78.16C921.872 76.4 919.658 74.0267 918.005 71.04C916.405 68 915.605 64.6133 915.605 60.88C915.605 57.0933 916.405 53.7067 918.005 50.72C919.658 47.68 921.872 45.28 924.645 43.52C927.472 41.7067 930.618 40.8 934.085 40.8C937.018 40.8 939.605 41.44 941.845 42.72C944.138 43.9467 945.952 45.6533 947.285 47.84C948.618 50.0267 949.285 52.5067 949.285 55.28V66.32C949.285 69.0933 948.618 71.5733 947.285 73.76C946.005 75.9467 944.218 77.68 941.925 78.96C939.632 80.1867 937.018 80.8 934.085 80.8ZM935.525 72.48C938.778 72.48 941.392 71.3867 943.365 69.2C945.392 67.0133 946.405 64.2133 946.405 60.8C946.405 58.5067 945.952 56.48 945.045 54.72C944.138 52.96 942.858 51.6 941.205 50.64C939.605 49.6267 937.712 49.12 935.525 49.12C933.392 49.12 931.498 49.6267 929.845 50.64C928.245 51.6 926.965 52.96 926.005 54.72C925.098 56.48 924.645 58.5067 924.645 60.8C924.645 63.0933 925.098 65.12 926.005 66.88C926.965 68.64 928.245 70.0267 929.845 71.04C931.498 72 933.392 72.48 935.525 72.48ZM945.845 80V69.68L947.365 60.32L945.845 51.04V41.6H954.645V80H945.845ZM980.491 80.8C977.025 80.8 973.878 79.92 971.051 78.16C968.278 76.4 966.065 74.0267 964.411 71.04C962.811 68 962.011 64.6133 962.011 60.88C962.011 57.0933 962.811 53.7067 964.411 50.72C966.065 47.68 968.278 45.28 971.051 43.52C973.878 41.7067 977.025 40.8 980.491 40.8C983.425 40.8 986.011 41.44 988.251 42.72C990.545 43.9467 992.358 45.6533 993.691 47.84C995.025 50.0267 995.691 52.5067 995.691 55.28V66.32C995.691 69.0933 995.025 71.5733 993.691 73.76C992.411 75.9467 990.625 77.68 988.331 78.96C986.038 80.1867 983.425 80.8 980.491 80.8ZM981.931 72.48C984.118 72.48 986.011 72 987.611 71.04C989.265 70.0267 990.545 68.64 991.451 66.88C992.358 65.12 992.811 63.0933 992.811 60.8C992.811 58.5067 992.358 56.48 991.451 54.72C990.545 52.96 989.265 51.6 987.611 50.64C986.011 49.6267 984.118 49.12 981.931 49.12C979.798 49.12 977.905 49.6267 976.251 50.64C974.651 51.6 973.371 52.96 972.411 54.72C971.505 56.48 971.051 58.5067 971.051 60.8C971.051 63.0933 971.505 65.12 972.411 66.88C973.371 68.64 974.651 70.0267 976.251 71.04C977.905 72 979.798 72.48 981.931 72.48ZM1001.05 80H992.251V69.68L993.771 60.32L992.251 51.04V22.4H1001.05V80ZM1028.42 80.8C1024.68 80.8 1021.3 79.92 1018.26 78.16C1015.22 76.3467 1012.79 73.92 1010.98 70.88C1009.22 67.84 1008.34 64.4533 1008.34 60.72C1008.34 56.9867 1009.22 53.6267 1010.98 50.64C1012.79 47.6533 1015.22 45.28 1018.26 43.52C1021.3 41.7067 1024.68 40.8 1028.42 40.8C1032.2 40.8 1035.62 41.68 1038.66 43.44C1041.7 45.2 1044.1 47.6 1045.86 50.64C1047.67 53.6267 1048.58 56.9867 1048.58 60.72C1048.58 64.4533 1047.67 67.84 1045.86 70.88C1044.1 73.92 1041.7 76.3467 1038.66 78.16C1035.62 79.92 1032.2 80.8 1028.42 80.8ZM1028.42 72.32C1030.6 72.32 1032.52 71.84 1034.18 70.88C1035.88 69.8667 1037.19 68.48 1038.1 66.72C1039.06 64.96 1039.54 62.96 1039.54 60.72C1039.54 58.48 1039.06 56.5067 1038.1 54.8C1037.14 53.0933 1035.83 51.76 1034.18 50.8C1032.52 49.7867 1030.6 49.28 1028.42 49.28C1026.28 49.28 1024.36 49.7867 1022.66 50.8C1021 51.76 1019.7 53.0933 1018.74 54.8C1017.83 56.5067 1017.38 58.48 1017.38 60.72C1017.38 62.96 1017.83 64.96 1018.74 66.72C1019.7 68.48 1021 69.8667 1022.66 70.88C1024.36 71.84 1026.28 72.32 1028.42 72.32ZM1068.46 80.8C1066.32 80.8 1064.27 80.5333 1062.3 80C1060.32 79.4133 1058.51 78.6133 1056.86 77.6C1055.2 76.5333 1053.76 75.2533 1052.54 73.76L1058.14 68.16C1059.47 69.7067 1060.99 70.88 1062.7 71.68C1064.46 72.4267 1066.43 72.8 1068.62 72.8C1070.59 72.8 1072.08 72.5067 1073.1 71.92C1074.11 71.3333 1074.62 70.48 1074.62 69.36C1074.62 68.1867 1074.14 67.28 1073.18 66.64C1072.22 66 1070.96 65.4667 1069.42 65.04C1067.92 64.56 1066.32 64.08 1064.62 63.6C1062.96 63.12 1061.36 62.48 1059.82 61.68C1058.32 60.8267 1057.1 59.68 1056.14 58.24C1055.18 56.8 1054.7 54.9333 1054.7 52.64C1054.7 50.1867 1055.26 48.08 1056.38 46.32C1057.55 44.56 1059.18 43.2 1061.26 42.24C1063.39 41.28 1065.92 40.8 1068.86 40.8C1071.95 40.8 1074.67 41.36 1077.02 42.48C1079.42 43.5467 1081.42 45.1733 1083.02 47.36L1077.42 52.96C1076.3 51.5733 1075.02 50.5333 1073.58 49.84C1072.14 49.1467 1070.48 48.8 1068.62 48.8C1066.86 48.8 1065.5 49.0667 1064.54 49.6C1063.58 50.1333 1063.1 50.9067 1063.1 51.92C1063.1 52.9867 1063.58 53.8133 1064.54 54.4C1065.5 54.9867 1066.72 55.4933 1068.22 55.92C1069.76 56.3467 1071.36 56.8267 1073.02 57.36C1074.72 57.84 1076.32 58.5333 1077.82 59.44C1079.36 60.2933 1080.62 61.4667 1081.58 62.96C1082.54 64.4 1083.02 66.2933 1083.02 68.64C1083.02 72.3733 1081.71 75.3333 1079.1 77.52C1076.48 79.7067 1072.94 80.8 1068.46 80.8Z" fill="#39762A"/>
</svg>
