<svg width="2067" height="131" viewBox="0 0 2067 131" fill="none" xmlns="http://www.w3.org/2000/svg">
<path d="M31.52 80.8C27.4667 80.8 23.7067 80.08 20.24 78.64C16.8267 77.1467 13.84 75.0933 11.28 72.48C8.72 69.8133 6.74667 66.7467 5.36 63.28C3.97333 59.76 3.28 56 3.28 52C3.28 48 3.97333 44.2667 5.36 40.8C6.74667 37.28 8.72 34.2133 11.28 31.6C13.84 28.9867 16.8267 26.9333 20.24 25.44C23.7067 23.9467 27.4667 23.2 31.52 23.2C36.0533 23.2 39.9733 23.9467 43.28 25.44C46.5867 26.9333 49.52 28.96 52.08 31.52L45.84 37.76C44.1867 35.9467 42.16 34.5333 39.76 33.52C37.4133 32.5067 34.6667 32 31.52 32C28.7467 32 26.2133 32.48 23.92 33.44C21.6267 34.4 19.6267 35.7867 17.92 37.6C16.2667 39.36 14.9867 41.4667 14.08 43.92C13.1733 46.3733 12.72 49.0667 12.72 52C12.72 54.9333 13.1733 57.6267 14.08 60.08C14.9867 62.5333 16.2667 64.6667 17.92 66.48C19.6267 68.24 21.6267 69.6 23.92 70.56C26.2133 71.52 28.7467 72 31.52 72C34.9333 72 37.8133 71.4933 40.16 70.48C42.56 69.4133 44.5867 67.9733 46.24 66.16L52.48 72.4C49.92 75.0133 46.9067 77.0667 43.44 78.56C39.9733 80.0533 36 80.8 31.52 80.8ZM75.9175 80.8C72.1842 80.8 68.7975 79.92 65.7575 78.16C62.7175 76.3467 60.2908 73.92 58.4775 70.88C56.7175 67.84 55.8375 64.4533 55.8375 60.72C55.8375 56.9867 56.7175 53.6267 58.4775 50.64C60.2908 47.6533 62.7175 45.28 65.7575 43.52C68.7975 41.7067 72.1842 40.8 75.9175 40.8C79.7042 40.8 83.1175 41.68 86.1575 43.44C89.1975 45.2 91.5975 47.6 93.3575 50.64C95.1708 53.6267 96.0775 56.9867 96.0775 60.72C96.0775 64.4533 95.1708 67.84 93.3575 70.88C91.5975 73.92 89.1975 76.3467 86.1575 78.16C83.1175 79.92 79.7042 80.8 75.9175 80.8ZM75.9175 72.32C78.1042 72.32 80.0242 71.84 81.6775 70.88C83.3842 69.8667 84.6908 68.48 85.5975 66.72C86.5575 64.96 87.0375 62.96 87.0375 60.72C87.0375 58.48 86.5575 56.5067 85.5975 54.8C84.6375 53.0933 83.3308 51.76 81.6775 50.8C80.0242 49.7867 78.1042 49.28 75.9175 49.28C73.7842 49.28 71.8642 49.7867 70.1575 50.8C68.5042 51.76 67.1975 53.0933 66.2375 54.8C65.3308 56.5067 64.8775 58.48 64.8775 60.72C64.8775 62.96 65.3308 64.96 66.2375 66.72C67.1975 68.48 68.5042 69.8667 70.1575 70.88C71.8642 71.84 73.7842 72.32 75.9175 72.32ZM123.956 80.8C121.022 80.8 118.409 80.1867 116.116 78.96C113.822 77.68 112.009 75.9467 110.676 73.76C109.396 71.5733 108.756 69.0933 108.756 66.32V55.28C108.756 52.5067 109.422 50.0267 110.756 47.84C112.089 45.6533 113.902 43.9467 116.196 42.72C118.489 41.44 121.076 40.8 123.956 40.8C127.422 40.8 130.542 41.7067 133.316 43.52C136.142 45.28 138.356 47.68 139.956 50.72C141.609 53.7067 142.436 57.0933 142.436 60.88C142.436 64.6133 141.609 68 139.956 71.04C138.356 74.0267 136.142 76.4 133.316 78.16C130.542 79.92 127.422 80.8 123.956 80.8ZM103.396 80V22.4H112.196V51.04L110.676 60.32L112.196 69.68V80H103.396ZM122.516 72.48C124.649 72.48 126.516 72 128.116 71.04C129.769 70.0267 131.049 68.64 131.956 66.88C132.916 65.12 133.396 63.0933 133.396 60.8C133.396 58.5067 132.916 56.48 131.956 54.72C131.049 52.96 129.769 51.6 128.116 50.64C126.516 49.6267 124.649 49.12 122.516 49.12C120.382 49.12 118.489 49.6267 116.836 50.64C115.182 51.6 113.902 52.96 112.996 54.72C112.089 56.48 111.636 58.5067 111.636 60.8C111.636 63.0933 112.089 65.12 112.996 66.88C113.902 68.64 115.182 70.0267 116.836 71.04C118.489 72 120.382 72.48 122.516 72.48ZM167.642 80.8C163.802 80.8 160.335 79.9467 157.242 78.24C154.202 76.48 151.775 74.08 149.962 71.04C148.202 68 147.322 64.5867 147.322 60.8C147.322 57.0133 148.202 53.6267 149.962 50.64C151.722 47.6 154.095 45.2 157.082 43.44C160.122 41.68 163.482 40.8 167.162 40.8C170.735 40.8 173.882 41.6267 176.602 43.28C179.375 44.9333 181.535 47.2 183.082 50.08C184.682 52.96 185.482 56.24 185.482 59.92C185.482 60.56 185.429 61.2267 185.322 61.92C185.269 62.56 185.162 63.28 185.002 64.08H153.482V56.88H180.442L177.162 59.76C177.055 57.4133 176.602 55.44 175.802 53.84C175.002 52.24 173.855 51.0133 172.362 50.16C170.922 49.3067 169.135 48.88 167.002 48.88C164.762 48.88 162.815 49.36 161.162 50.32C159.509 51.28 158.229 52.64 157.322 54.4C156.415 56.1067 155.962 58.16 155.962 60.56C155.962 62.96 156.442 65.0667 157.402 66.88C158.362 68.6933 159.722 70.1067 161.482 71.12C163.242 72.08 165.269 72.56 167.562 72.56C169.535 72.56 171.349 72.2133 173.002 71.52C174.709 70.8267 176.149 69.8133 177.322 68.48L182.922 74.16C181.055 76.3467 178.789 78 176.122 79.12C173.455 80.24 170.629 80.8 167.642 80.8ZM192.536 80V41.6H201.336V80H192.536ZM201.336 58.64L198.296 57.12C198.296 52.2667 199.363 48.3467 201.496 45.36C203.683 42.32 206.963 40.8 211.336 40.8C213.256 40.8 214.99 41.1467 216.536 41.84C218.083 42.5333 219.523 43.6533 220.856 45.2L215.096 51.12C214.403 50.3733 213.63 49.84 212.776 49.52C211.923 49.2 210.936 49.04 209.816 49.04C207.363 49.04 205.336 49.8133 203.736 51.36C202.136 52.9067 201.336 55.3333 201.336 58.64ZM231.033 80V25.6H239.833V80H231.033ZM221.833 49.6V41.6H249.033V49.6H221.833ZM271.187 80.8C267.934 80.8 265.027 80.08 262.467 78.64C259.96 77.2 257.987 75.2267 256.547 72.72C255.16 70.16 254.467 67.2267 254.467 63.92V41.6H263.267V63.52C263.267 65.3867 263.56 66.9867 264.147 68.32C264.787 69.6 265.694 70.5867 266.867 71.28C268.094 71.9733 269.534 72.32 271.187 72.32C273.747 72.32 275.694 71.5733 277.027 70.08C278.414 68.5333 279.107 66.3467 279.107 63.52V41.6H287.907V63.92C287.907 67.28 287.187 70.24 285.747 72.8C284.36 75.3067 282.414 77.28 279.907 78.72C277.4 80.1067 274.494 80.8 271.187 80.8ZM296.755 80V41.6H305.555V80H296.755ZM305.555 58.64L302.515 57.12C302.515 52.2667 303.582 48.3467 305.715 45.36C307.902 42.32 311.182 40.8 315.555 40.8C317.475 40.8 319.208 41.1467 320.755 41.84C322.302 42.5333 323.742 43.6533 325.075 45.2L319.315 51.12C318.622 50.3733 317.848 49.84 316.995 49.52C316.142 49.2 315.155 49.04 314.035 49.04C311.582 49.04 309.555 49.8133 307.955 51.36C306.355 52.9067 305.555 55.3333 305.555 58.64ZM344.241 80.8C340.775 80.8 337.628 79.92 334.801 78.16C332.028 76.4 329.815 74.0267 328.161 71.04C326.561 68 325.761 64.6133 325.761 60.88C325.761 57.0933 326.561 53.7067 328.161 50.72C329.815 47.68 332.028 45.28 334.801 43.52C337.628 41.7067 340.775 40.8 344.241 40.8C347.175 40.8 349.761 41.44 352.001 42.72C354.295 43.9467 356.108 45.6533 357.441 47.84C358.775 50.0267 359.441 52.5067 359.441 55.28V66.32C359.441 69.0933 358.775 71.5733 357.441 73.76C356.161 75.9467 354.375 77.68 352.081 78.96C349.788 80.1867 347.175 80.8 344.241 80.8ZM345.681 72.48C348.935 72.48 351.548 71.3867 353.521 69.2C355.548 67.0133 356.561 64.2133 356.561 60.8C356.561 58.5067 356.108 56.48 355.201 54.72C354.295 52.96 353.015 51.6 351.361 50.64C349.761 49.6267 347.868 49.12 345.681 49.12C343.548 49.12 341.655 49.6267 340.001 50.64C338.401 51.6 337.121 52.96 336.161 54.72C335.255 56.48 334.801 58.5067 334.801 60.8C334.801 63.0933 335.255 65.12 336.161 66.88C337.121 68.64 338.401 70.0267 340.001 71.04C341.655 72 343.548 72.48 345.681 72.48ZM356.001 80V69.68L357.521 60.32L356.001 51.04V41.6H364.801V80H356.001ZM410.263 80L387.623 24H397.623L415.303 69.36H411.783L429.623 24H439.463L416.663 80H410.263ZM454.632 80.8C451.165 80.8 448.019 79.92 445.192 78.16C442.419 76.4 440.205 74.0267 438.552 71.04C436.952 68 436.152 64.6133 436.152 60.88C436.152 57.0933 436.952 53.7067 438.552 50.72C440.205 47.68 442.419 45.28 445.192 43.52C448.019 41.7067 451.165 40.8 454.632 40.8C457.565 40.8 460.152 41.44 462.392 42.72C464.685 43.9467 466.499 45.6533 467.832 47.84C469.165 50.0267 469.832 52.5067 469.832 55.28V66.32C469.832 69.0933 469.165 71.5733 467.832 73.76C466.552 75.9467 464.765 77.68 462.472 78.96C460.179 80.1867 457.565 80.8 454.632 80.8ZM456.072 72.48C459.325 72.48 461.939 71.3867 463.912 69.2C465.939 67.0133 466.952 64.2133 466.952 60.8C466.952 58.5067 466.499 56.48 465.592 54.72C464.685 52.96 463.405 51.6 461.752 50.64C460.152 49.6267 458.259 49.12 456.072 49.12C453.939 49.12 452.045 49.6267 450.392 50.64C448.792 51.6 447.512 52.96 446.552 54.72C445.645 56.48 445.192 58.5067 445.192 60.8C445.192 63.0933 445.645 65.12 446.552 66.88C447.512 68.64 448.792 70.0267 450.392 71.04C452.045 72 453.939 72.48 456.072 72.48ZM466.392 80V69.68L467.912 60.32L466.392 51.04V41.6H475.192V80H466.392ZM502.638 80.8C498.851 80.8 495.411 79.92 492.318 78.16C489.278 76.4 486.878 74 485.118 70.96C483.358 67.92 482.478 64.5333 482.478 60.8C482.478 57.0133 483.358 53.6267 485.118 50.64C486.878 47.6 489.278 45.2 492.318 43.44C495.411 41.68 498.851 40.8 502.638 40.8C505.625 40.8 508.398 41.3867 510.958 42.56C513.571 43.68 515.785 45.3067 517.598 47.44L511.838 53.28C510.718 51.9467 509.358 50.96 507.758 50.32C506.211 49.6267 504.505 49.28 502.638 49.28C500.451 49.28 498.505 49.7867 496.798 50.8C495.145 51.76 493.838 53.0933 492.878 54.8C491.971 56.5067 491.518 58.5067 491.518 60.8C491.518 63.04 491.971 65.04 492.878 66.8C493.838 68.5067 495.145 69.8667 496.798 70.88C498.505 71.84 500.451 72.32 502.638 72.32C504.505 72.32 506.211 72 507.758 71.36C509.358 70.6667 510.718 69.6533 511.838 68.32L517.598 74.16C515.785 76.2933 513.571 77.9467 510.958 79.12C508.398 80.24 505.625 80.8 502.638 80.8ZM524.023 80V41.6H532.823V80H524.023ZM528.423 34.56C526.929 34.56 525.676 34.0533 524.663 33.04C523.703 32.0267 523.223 30.7733 523.223 29.28C523.223 27.7867 523.703 26.5333 524.663 25.52C525.676 24.5067 526.929 24 528.423 24C529.969 24 531.223 24.5067 532.183 25.52C533.143 26.5333 533.623 27.7867 533.623 29.28C533.623 30.7733 533.143 32.0267 532.183 33.04C531.223 34.0533 529.969 34.56 528.423 34.56ZM569.013 80V57.84C569.013 55.28 568.186 53.1733 566.533 51.52C564.933 49.8667 562.853 49.04 560.293 49.04C558.586 49.04 557.066 49.4133 555.733 50.16C554.399 50.9067 553.359 51.9467 552.613 53.28C551.866 54.6133 551.493 56.1333 551.493 57.84L548.053 55.92C548.053 52.9867 548.693 50.4 549.973 48.16C551.253 45.8667 553.013 44.08 555.253 42.8C557.546 41.4667 560.106 40.8 562.933 40.8C565.813 40.8 568.373 41.5467 570.613 43.04C572.853 44.48 574.613 46.3733 575.893 48.72C577.173 51.0133 577.812 53.4133 577.812 55.92V80H569.013ZM542.693 80V41.6H551.493V80H542.693ZM602.835 80.8C599.368 80.8 596.222 79.92 593.395 78.16C590.622 76.4 588.408 74.0267 586.755 71.04C585.155 68 584.355 64.6133 584.355 60.88C584.355 57.0933 585.155 53.7067 586.755 50.72C588.408 47.68 590.622 45.28 593.395 43.52C596.222 41.7067 599.368 40.8 602.835 40.8C605.768 40.8 608.355 41.44 610.595 42.72C612.888 43.9467 614.702 45.6533 616.035 47.84C617.368 50.0267 618.035 52.5067 618.035 55.28V66.32C618.035 69.0933 617.368 71.5733 616.035 73.76C614.755 75.9467 612.968 77.68 610.675 78.96C608.382 80.1867 605.768 80.8 602.835 80.8ZM604.275 72.48C607.528 72.48 610.142 71.3867 612.115 69.2C614.142 67.0133 615.155 64.2133 615.155 60.8C615.155 58.5067 614.702 56.48 613.795 54.72C612.888 52.96 611.608 51.6 609.955 50.64C608.355 49.6267 606.462 49.12 604.275 49.12C602.142 49.12 600.248 49.6267 598.595 50.64C596.995 51.6 595.715 52.96 594.755 54.72C593.848 56.48 593.395 58.5067 593.395 60.8C593.395 63.0933 593.848 65.12 594.755 66.88C595.715 68.64 596.995 70.0267 598.595 71.04C600.248 72 602.142 72.48 604.275 72.48ZM614.595 80V69.68L616.115 60.32L614.595 51.04V41.6H623.395V80H614.595ZM633.161 80V22.4H641.961V80H633.161Z" fill="#39762A"/>
</svg>
