<svg width="5066" height="1028" viewBox="0 0 5066 1028" fill="none" xmlns="http://www.w3.org/2000/svg">
<path d="M95.5428 348.45C75.9928 348.45 59.2028 345.115 45.1728 338.445C31.3728 331.775 18.8378 321.77 7.56775 308.43L38.6178 277.38C45.7478 286.81 54.0278 294.17 63.4578 299.46C72.8878 304.52 84.3878 307.05 97.9578 307.05C110.148 307.05 119.808 304.635 126.938 299.805C134.298 294.975 137.978 288.305 137.978 279.795C137.978 272.435 135.908 266.455 131.768 261.855C127.628 257.255 122.108 253.345 115.208 250.125C108.538 246.905 101.063 244.03 92.7828 241.5C84.7328 238.74 76.5678 235.635 68.2878 232.185C60.2378 228.735 52.7628 224.48 45.8628 219.42C39.1928 214.13 33.7878 207.46 29.6478 199.41C25.5078 191.13 23.4378 180.78 23.4378 168.36C23.4378 153.64 27.0028 141.105 34.1328 130.755C41.2628 120.405 51.0378 112.47 63.4578 106.95C75.8778 101.43 89.9078 98.67 105.548 98.67C122.108 98.67 137.058 101.775 150.398 107.985C163.738 114.195 174.663 122.245 183.173 132.135L152.123 163.185C144.993 155.365 137.633 149.615 130.043 145.935C122.683 142.255 114.288 140.415 104.858 140.415C94.0478 140.415 85.5378 142.485 79.3278 146.625C73.1178 150.765 70.0128 156.745 70.0128 164.565C70.0128 171.235 72.0828 176.64 76.2228 180.78C80.3628 184.92 85.7678 188.485 92.4378 191.475C99.3378 194.465 106.813 197.34 114.863 200.1C123.143 202.86 131.308 205.965 139.358 209.415C147.638 212.865 155.113 217.35 161.783 222.87C168.683 228.39 174.203 235.52 178.343 244.26C182.483 252.77 184.553 263.35 184.553 276C184.553 298.54 176.618 316.25 160.748 329.13C144.878 342.01 123.143 348.45 95.5428 348.45ZM213.304 345V178.365H258.844V345H213.304ZM236.074 151.455C228.714 151.455 222.619 149.04 217.789 144.21C212.959 139.15 210.544 132.94 210.544 125.58C210.544 118.45 212.959 112.355 217.789 107.295C222.619 102.235 228.714 99.705 236.074 99.705C243.664 99.705 249.759 102.235 254.359 107.295C259.189 112.355 261.604 118.45 261.604 125.58C261.604 132.94 259.189 139.15 254.359 144.21C249.759 149.04 243.664 151.455 236.074 151.455ZM352.7 348.795C343.27 348.795 333.955 347.53 324.755 345C315.785 342.47 307.505 339.02 299.915 334.65C292.325 330.05 285.77 324.53 280.25 318.09L307.16 290.835C312.91 297.275 319.58 302.105 327.17 305.325C334.76 308.545 343.155 310.155 352.355 310.155C359.715 310.155 365.235 309.12 368.915 307.05C372.825 304.98 374.78 301.875 374.78 297.735C374.78 293.135 372.71 289.57 368.57 287.04C364.66 284.51 359.485 282.44 353.045 280.83C346.605 278.99 339.82 277.035 332.69 274.965C325.79 272.665 319.12 269.79 312.68 266.34C306.24 262.66 300.95 257.715 296.81 251.505C292.9 245.065 290.945 236.785 290.945 226.665C290.945 216.085 293.475 206.885 298.535 199.065C303.825 191.245 311.3 185.15 320.96 180.78C330.62 176.41 342.005 174.225 355.115 174.225C368.915 174.225 381.335 176.64 392.375 181.47C403.645 186.3 412.96 193.545 420.32 203.205L393.065 230.46C388.005 224.25 382.255 219.765 375.815 217.005C369.605 214.245 362.82 212.865 355.46 212.865C348.79 212.865 343.615 213.9 339.935 215.97C336.485 218.04 334.76 220.915 334.76 224.595C334.76 228.735 336.715 231.955 340.625 234.255C344.765 236.555 350.055 238.625 356.495 240.465C362.935 242.075 369.605 244.03 376.505 246.33C383.635 248.4 390.305 251.39 396.515 255.3C402.955 259.21 408.13 264.385 412.04 270.825C416.18 277.265 418.25 285.545 418.25 295.665C418.25 311.995 412.385 324.99 400.655 334.65C388.925 344.08 372.94 348.795 352.7 348.795ZM469.771 345V109.02H514.966V345H469.771ZM430.786 218.04V178.365H553.951V218.04H430.786ZM651.57 348.45C634.09 348.45 618.565 344.77 604.995 337.41C591.425 329.82 580.615 319.47 572.565 306.36C564.745 293.25 560.835 278.3 560.835 261.51C560.835 244.95 564.63 230.23 572.22 217.35C580.04 204.24 590.62 193.89 603.96 186.3C617.3 178.48 632.135 174.57 648.465 174.57C664.565 174.57 678.71 178.25 690.9 185.61C703.32 192.74 712.98 202.63 719.88 215.28C727.01 227.7 730.575 241.845 730.575 257.715C730.575 260.705 730.345 263.81 729.885 267.03C729.655 270.02 729.08 273.47 728.16 277.38L588.09 277.725V243.915L707.115 243.57L688.83 257.715C688.37 247.825 686.53 239.545 683.31 232.875C680.32 226.205 675.835 221.145 669.855 217.695C664.105 214.015 656.975 212.175 648.465 212.175C639.495 212.175 631.675 214.245 625.005 218.385C618.335 222.295 613.16 227.93 609.48 235.29C606.03 242.42 604.305 250.93 604.305 260.82C604.305 270.94 606.145 279.795 609.825 287.385C613.735 294.745 619.255 300.495 626.385 304.635C633.515 308.545 641.795 310.5 651.225 310.5C659.735 310.5 667.44 309.12 674.34 306.36C681.24 303.37 687.22 299 692.28 293.25L718.845 319.815C710.795 329.245 700.905 336.375 689.175 341.205C677.675 346.035 665.14 348.45 651.57 348.45ZM755.075 345V178.365H800.27V345H755.075ZM863.75 345V246.675C863.75 237.015 860.645 229.54 854.435 224.25C848.455 218.73 840.98 215.97 832.01 215.97C826.03 215.97 820.625 217.235 815.795 219.765C810.965 222.065 807.17 225.515 804.41 230.115C801.65 234.715 800.27 240.235 800.27 246.675L782.675 238.05C782.675 225.17 785.435 214.015 790.955 204.585C796.705 195.155 804.41 187.91 814.07 182.85C823.73 177.56 834.655 174.915 846.845 174.915C858.345 174.915 868.81 177.56 878.24 182.85C887.67 187.91 895.145 195.155 900.665 204.585C906.185 213.785 908.945 224.94 908.945 238.05V345H863.75ZM972.425 345V246.675C972.425 237.015 969.32 229.54 963.11 224.25C957.13 218.73 949.655 215.97 940.685 215.97C934.935 215.97 929.53 217.235 924.47 219.765C919.64 222.065 915.845 225.515 913.085 230.115C910.325 234.715 908.945 240.235 908.945 246.675L883.07 240.465C883.99 227.125 887.555 215.625 893.765 205.965C899.975 196.075 908.14 188.485 918.26 183.195C928.38 177.675 939.65 174.915 952.07 174.915C964.49 174.915 975.645 177.56 985.535 182.85C995.425 187.91 1003.24 195.27 1008.99 204.93C1014.74 214.59 1017.62 226.09 1017.62 239.43V345H972.425ZM1120.49 348.45C1105.31 348.45 1091.63 344.655 1079.44 337.065C1067.25 329.475 1057.7 319.125 1050.8 306.015C1043.9 292.905 1040.45 278.185 1040.45 261.855C1040.45 245.295 1043.9 230.46 1050.8 217.35C1057.7 204.24 1067.25 193.89 1079.44 186.3C1091.63 178.71 1105.31 174.915 1120.49 174.915C1132.45 174.915 1143.15 177.33 1152.58 182.16C1162.01 186.99 1169.48 193.775 1175 202.515C1180.75 211.025 1183.86 220.685 1184.32 231.495V291.525C1183.86 302.565 1180.75 312.34 1175 320.85C1169.48 329.36 1162.01 336.145 1152.58 341.205C1143.15 346.035 1132.45 348.45 1120.49 348.45ZM1128.77 306.705C1141.42 306.705 1151.66 302.565 1159.48 294.285C1167.3 285.775 1171.21 274.85 1171.21 261.51C1171.21 252.77 1169.37 245.065 1165.69 238.395C1162.24 231.495 1157.29 226.205 1150.85 222.525C1144.64 218.615 1137.28 216.66 1128.77 216.66C1120.49 216.66 1113.13 218.615 1106.69 222.525C1100.48 226.205 1095.54 231.495 1091.86 238.395C1088.41 245.065 1086.68 252.77 1086.68 261.51C1086.68 270.48 1088.41 278.415 1091.86 285.315C1095.54 291.985 1100.48 297.275 1106.69 301.185C1113.13 304.865 1120.49 306.705 1128.77 306.705ZM1168.79 345V300.15L1176.04 259.44L1168.79 219.42V178.365H1213.64V345H1168.79ZM1384.49 348.45C1369.08 348.45 1355.28 344.655 1343.09 337.065C1330.9 329.475 1321.24 319.125 1314.11 306.015C1307.21 292.905 1303.76 278.185 1303.76 261.855C1303.76 245.295 1307.21 230.46 1314.11 217.35C1321.24 204.24 1330.78 193.89 1342.74 186.3C1354.93 178.71 1368.85 174.915 1384.49 174.915C1396.45 174.915 1407.14 177.33 1416.57 182.16C1426.23 186.99 1433.94 193.775 1439.69 202.515C1445.67 211.025 1448.89 220.685 1449.35 231.495V290.835C1448.89 301.645 1445.78 311.42 1440.03 320.16C1434.28 328.9 1426.58 335.8 1416.92 340.86C1407.26 345.92 1396.45 348.45 1384.49 348.45ZM1392.08 306.705C1400.59 306.705 1407.95 304.865 1414.16 301.185C1420.6 297.275 1425.54 291.985 1428.99 285.315C1432.67 278.415 1434.51 270.48 1434.51 261.51C1434.51 252.77 1432.67 245.065 1428.99 238.395C1425.54 231.495 1420.6 226.205 1414.16 222.525C1407.95 218.615 1400.7 216.66 1392.42 216.66C1383.91 216.66 1376.44 218.615 1370 222.525C1363.79 226.435 1358.84 231.725 1355.16 238.395C1351.71 245.065 1349.99 252.77 1349.99 261.51C1349.99 270.48 1351.71 278.415 1355.16 285.315C1358.84 291.985 1363.9 297.275 1370.34 301.185C1376.78 304.865 1384.03 306.705 1392.08 306.705ZM1476.95 345H1432.1V300.15L1439.34 259.44L1431.75 219.42V95.565H1476.95V345ZM1593.18 348.45C1575.7 348.45 1560.17 344.77 1546.6 337.41C1533.03 329.82 1522.22 319.47 1514.17 306.36C1506.35 293.25 1502.44 278.3 1502.44 261.51C1502.44 244.95 1506.24 230.23 1513.83 217.35C1521.65 204.24 1532.23 193.89 1545.57 186.3C1558.91 178.48 1573.74 174.57 1590.07 174.57C1606.17 174.57 1620.32 178.25 1632.51 185.61C1644.93 192.74 1654.59 202.63 1661.49 215.28C1668.62 227.7 1672.18 241.845 1672.18 257.715C1672.18 260.705 1671.95 263.81 1671.49 267.03C1671.26 270.02 1670.69 273.47 1669.77 277.38L1529.7 277.725V243.915L1648.72 243.57L1630.44 257.715C1629.98 247.825 1628.14 239.545 1624.92 232.875C1621.93 226.205 1617.44 221.145 1611.46 217.695C1605.71 214.015 1598.58 212.175 1590.07 212.175C1581.1 212.175 1573.28 214.245 1566.61 218.385C1559.94 222.295 1554.77 227.93 1551.09 235.29C1547.64 242.42 1545.91 250.93 1545.91 260.82C1545.91 270.94 1547.75 279.795 1551.43 287.385C1555.34 294.745 1560.86 300.495 1567.99 304.635C1575.12 308.545 1583.4 310.5 1592.83 310.5C1601.34 310.5 1609.05 309.12 1615.95 306.36C1622.85 303.37 1628.83 299 1633.89 293.25L1660.45 319.815C1652.4 329.245 1642.51 336.375 1630.78 341.205C1619.28 346.035 1606.75 348.45 1593.18 348.45ZM1765.45 345V102.465H1812.37V345H1765.45ZM1965.98 345V249.435C1965.98 239.545 1962.88 231.495 1956.67 225.285C1950.46 219.075 1942.41 215.97 1932.52 215.97C1926.08 215.97 1920.33 217.35 1915.27 220.11C1910.21 222.87 1906.18 226.78 1903.19 231.84C1900.43 236.9 1899.05 242.765 1899.05 249.435L1881.46 240.465C1881.46 227.355 1884.22 215.97 1889.74 206.31C1895.49 196.42 1903.31 188.715 1913.2 183.195C1923.32 177.675 1934.7 174.915 1947.35 174.915C1959.54 174.915 1970.47 178.02 1980.13 184.23C1989.79 190.21 1997.38 198.145 2002.9 208.035C2008.42 217.695 2011.18 228.16 2011.18 239.43V345H1965.98ZM1853.86 345V178.365H1899.05V345H1853.86ZM2114.52 348.45C2099.11 348.45 2085.31 344.655 2073.12 337.065C2060.93 329.475 2051.27 319.125 2044.14 306.015C2037.24 292.905 2033.79 278.185 2033.79 261.855C2033.79 245.295 2037.24 230.46 2044.14 217.35C2051.27 204.24 2060.81 193.89 2072.77 186.3C2084.96 178.71 2098.88 174.915 2114.52 174.915C2126.48 174.915 2137.17 177.33 2146.6 182.16C2156.26 186.99 2163.97 193.775 2169.72 202.515C2175.7 211.025 2178.92 220.685 2179.38 231.495V290.835C2178.92 301.645 2175.81 311.42 2170.06 320.16C2164.31 328.9 2156.61 335.8 2146.95 340.86C2137.29 345.92 2126.48 348.45 2114.52 348.45ZM2122.11 306.705C2130.62 306.705 2137.98 304.865 2144.19 301.185C2150.63 297.275 2155.57 291.985 2159.02 285.315C2162.7 278.415 2164.54 270.48 2164.54 261.51C2164.54 252.77 2162.7 245.065 2159.02 238.395C2155.57 231.495 2150.63 226.205 2144.19 222.525C2137.98 218.615 2130.73 216.66 2122.45 216.66C2113.94 216.66 2106.47 218.615 2100.03 222.525C2093.82 226.435 2088.87 231.725 2085.19 238.395C2081.74 245.065 2080.02 252.77 2080.02 261.51C2080.02 270.48 2081.74 278.415 2085.19 285.315C2088.87 291.985 2093.93 297.275 2100.37 301.185C2106.81 304.865 2114.06 306.705 2122.11 306.705ZM2206.98 345H2162.13V300.15L2169.37 259.44L2161.78 219.42V95.565H2206.98V345ZM2243.51 345V178.365H2289.05V345H2243.51ZM2266.28 151.455C2258.92 151.455 2252.82 149.04 2247.99 144.21C2243.16 139.15 2240.75 132.94 2240.75 125.58C2240.75 118.45 2243.16 112.355 2247.99 107.295C2252.82 102.235 2258.92 99.705 2266.28 99.705C2273.87 99.705 2279.96 102.235 2284.56 107.295C2289.39 112.355 2291.81 118.45 2291.81 125.58C2291.81 132.94 2289.39 139.15 2284.56 144.21C2279.96 149.04 2273.87 151.455 2266.28 151.455ZM2404.29 348.45C2387.27 348.45 2371.98 344.655 2358.41 337.065C2344.84 329.475 2334.14 319.125 2326.32 306.015C2318.5 292.905 2314.59 278.185 2314.59 261.855C2314.59 245.295 2318.5 230.46 2326.32 217.35C2334.14 204.24 2344.84 193.89 2358.41 186.3C2372.21 178.48 2387.5 174.57 2404.29 174.57C2417.4 174.57 2429.48 176.985 2440.52 181.815C2451.56 186.645 2461.1 193.545 2469.15 202.515L2440.17 231.84C2435.8 227.01 2430.51 223.33 2424.3 220.8C2418.32 218.27 2411.65 217.005 2404.29 217.005C2396.01 217.005 2388.54 218.96 2381.87 222.87C2375.43 226.55 2370.25 231.725 2366.34 238.395C2362.66 244.835 2360.82 252.54 2360.82 261.51C2360.82 270.25 2362.66 278.07 2366.34 284.97C2370.25 291.64 2375.43 296.93 2381.87 300.84C2388.54 304.52 2396.01 306.36 2404.29 306.36C2411.88 306.36 2418.67 305.095 2424.65 302.565C2430.86 299.805 2436.15 295.895 2440.52 290.835L2469.84 320.16C2461.33 329.36 2451.56 336.375 2440.52 341.205C2429.48 346.035 2417.4 348.45 2404.29 348.45ZM2557.97 348.45C2542.79 348.45 2529.11 344.655 2516.92 337.065C2504.73 329.475 2495.18 319.125 2488.28 306.015C2481.38 292.905 2477.93 278.185 2477.93 261.855C2477.93 245.295 2481.38 230.46 2488.28 217.35C2495.18 204.24 2504.73 193.89 2516.92 186.3C2529.11 178.71 2542.79 174.915 2557.97 174.915C2569.93 174.915 2580.63 177.33 2590.06 182.16C2599.49 186.99 2606.96 193.775 2612.48 202.515C2618.23 211.025 2621.34 220.685 2621.8 231.495V291.525C2621.34 302.565 2618.23 312.34 2612.48 320.85C2606.96 329.36 2599.49 336.145 2590.06 341.205C2580.63 346.035 2569.93 348.45 2557.97 348.45ZM2566.25 306.705C2578.9 306.705 2589.14 302.565 2596.96 294.285C2604.78 285.775 2608.69 274.85 2608.69 261.51C2608.69 252.77 2606.85 245.065 2603.17 238.395C2599.72 231.495 2594.77 226.205 2588.33 222.525C2582.12 218.615 2574.76 216.66 2566.25 216.66C2557.97 216.66 2550.61 218.615 2544.17 222.525C2537.96 226.205 2533.02 231.495 2529.34 238.395C2525.89 245.065 2524.16 252.77 2524.16 261.51C2524.16 270.48 2525.89 278.415 2529.34 285.315C2533.02 291.985 2537.96 297.275 2544.17 301.185C2550.61 304.865 2557.97 306.705 2566.25 306.705ZM2606.27 345V300.15L2613.52 259.44L2606.27 219.42V178.365H2651.12V345H2606.27ZM2758.03 348.45C2742.62 348.45 2728.82 344.655 2716.63 337.065C2704.44 329.475 2694.78 319.125 2687.65 306.015C2680.75 292.905 2677.3 278.185 2677.3 261.855C2677.3 245.295 2680.75 230.46 2687.65 217.35C2694.78 204.24 2704.33 193.89 2716.29 186.3C2728.48 178.71 2742.39 174.915 2758.03 174.915C2769.99 174.915 2780.69 177.33 2790.12 182.16C2799.78 186.99 2807.48 193.775 2813.23 202.515C2819.21 211.025 2822.43 220.685 2822.89 231.495V290.835C2822.43 301.645 2819.33 311.42 2813.58 320.16C2807.83 328.9 2800.12 335.8 2790.46 340.86C2780.8 345.92 2769.99 348.45 2758.03 348.45ZM2765.62 306.705C2774.13 306.705 2781.49 304.865 2787.7 301.185C2794.14 297.275 2799.09 291.985 2802.54 285.315C2806.22 278.415 2808.06 270.48 2808.06 261.51C2808.06 252.77 2806.22 245.065 2802.54 238.395C2799.09 231.495 2794.14 226.205 2787.7 222.525C2781.49 218.615 2774.25 216.66 2765.97 216.66C2757.46 216.66 2749.98 218.615 2743.54 222.525C2737.33 226.435 2732.39 231.725 2728.71 238.395C2725.26 245.065 2723.53 252.77 2723.53 261.51C2723.53 270.48 2725.26 278.415 2728.71 285.315C2732.39 291.985 2737.45 297.275 2743.89 301.185C2750.33 304.865 2757.57 306.705 2765.62 306.705ZM2850.49 345H2805.64V300.15L2812.89 259.44L2805.3 219.42V95.565H2850.49V345ZM2965.34 348.45C2948.55 348.45 2933.37 344.655 2919.8 337.065C2906.46 329.245 2895.77 318.78 2887.72 305.67C2879.9 292.33 2875.99 277.495 2875.99 261.165C2875.99 244.835 2879.9 230.23 2887.72 217.35C2895.54 204.24 2906.23 193.89 2919.8 186.3C2933.37 178.48 2948.44 174.57 2965 174.57C2982.02 174.57 2997.2 178.48 3010.54 186.3C3024.11 193.89 3034.8 204.24 3042.62 217.35C3050.44 230.23 3054.35 244.835 3054.35 261.165C3054.35 277.495 3050.44 292.33 3042.62 305.67C3034.8 318.78 3024.11 329.245 3010.54 337.065C2997.2 344.655 2982.13 348.45 2965.34 348.45ZM2965 306.36C2973.51 306.36 2980.98 304.52 2987.42 300.84C2994.09 296.93 2999.15 291.64 3002.6 284.97C3006.28 278.07 3008.12 270.25 3008.12 261.51C3008.12 252.77 3006.28 245.065 3002.6 238.395C2998.92 231.725 2993.86 226.55 2987.42 222.87C2980.98 218.96 2973.51 217.005 2965 217.005C2956.72 217.005 2949.36 218.96 2942.92 222.87C2936.48 226.55 2931.42 231.725 2927.74 238.395C2924.06 245.065 2922.22 252.77 2922.22 261.51C2922.22 270.25 2924.06 278.07 2927.74 284.97C2931.42 291.64 2936.48 296.93 2942.92 300.84C2949.36 304.52 2956.72 306.36 2965 306.36ZM3080 345V178.365H3125.19V345H3080ZM3125.19 252.885L3107.6 241.155C3109.67 220.685 3115.65 204.585 3125.54 192.855C3135.43 180.895 3149.69 174.915 3168.32 174.915C3176.37 174.915 3183.61 176.295 3190.05 179.055C3196.49 181.585 3202.36 185.84 3207.65 191.82L3179.36 224.25C3176.83 221.49 3173.72 219.42 3170.04 218.04C3166.59 216.66 3162.57 215.97 3157.97 215.97C3148.31 215.97 3140.37 219.075 3134.16 225.285C3128.18 231.265 3125.19 240.465 3125.19 252.885ZM3295.05 348.45C3277.57 348.45 3262.05 344.77 3248.48 337.41C3234.91 329.82 3224.1 319.47 3216.05 306.36C3208.23 293.25 3204.32 278.3 3204.32 261.51C3204.32 244.95 3208.11 230.23 3215.7 217.35C3223.52 204.24 3234.1 193.89 3247.44 186.3C3260.78 178.48 3275.62 174.57 3291.95 174.57C3308.05 174.57 3322.19 178.25 3334.38 185.61C3346.8 192.74 3356.46 202.63 3363.36 215.28C3370.49 227.7 3374.06 241.845 3374.06 257.715C3374.06 260.705 3373.83 263.81 3373.37 267.03C3373.14 270.02 3372.56 273.47 3371.64 277.38L3231.57 277.725V243.915L3350.6 243.57L3332.31 257.715C3331.85 247.825 3330.01 239.545 3326.79 232.875C3323.8 226.205 3319.32 221.145 3313.34 217.695C3307.59 214.015 3300.46 212.175 3291.95 212.175C3282.98 212.175 3275.16 214.245 3268.49 218.385C3261.82 222.295 3256.64 227.93 3252.96 235.29C3249.51 242.42 3247.79 250.93 3247.79 260.82C3247.79 270.94 3249.63 279.795 3253.31 287.385C3257.22 294.745 3262.74 300.495 3269.87 304.635C3277 308.545 3285.28 310.5 3294.71 310.5C3303.22 310.5 3310.92 309.12 3317.82 306.36C3324.72 303.37 3330.7 299 3335.76 293.25L3362.33 319.815C3354.28 329.245 3344.39 336.375 3332.66 341.205C3321.16 346.035 3308.62 348.45 3295.05 348.45ZM3455.83 348.795C3446.4 348.795 3437.08 347.53 3427.88 345C3418.91 342.47 3410.63 339.02 3403.04 334.65C3395.45 330.05 3388.9 324.53 3383.38 318.09L3410.29 290.835C3416.04 297.275 3422.71 302.105 3430.3 305.325C3437.89 308.545 3446.28 310.155 3455.48 310.155C3462.84 310.155 3468.36 309.12 3472.04 307.05C3475.95 304.98 3477.91 301.875 3477.91 297.735C3477.91 293.135 3475.84 289.57 3471.7 287.04C3467.79 284.51 3462.61 282.44 3456.17 280.83C3449.73 278.99 3442.95 277.035 3435.82 274.965C3428.92 272.665 3422.25 269.79 3415.81 266.34C3409.37 262.66 3404.08 257.715 3399.94 251.505C3396.03 245.065 3394.07 236.785 3394.07 226.665C3394.07 216.085 3396.6 206.885 3401.66 199.065C3406.95 191.245 3414.43 185.15 3424.09 180.78C3433.75 176.41 3445.13 174.225 3458.24 174.225C3472.04 174.225 3484.46 176.64 3495.5 181.47C3506.77 186.3 3516.09 193.545 3523.45 203.205L3496.19 230.46C3491.13 224.25 3485.38 219.765 3478.94 217.005C3472.73 214.245 3465.95 212.865 3458.59 212.865C3451.92 212.865 3446.74 213.9 3443.06 215.97C3439.61 218.04 3437.89 220.915 3437.89 224.595C3437.89 228.735 3439.84 231.955 3443.75 234.255C3447.89 236.555 3453.18 238.625 3459.62 240.465C3466.06 242.075 3472.73 244.03 3479.63 246.33C3486.76 248.4 3493.43 251.39 3499.64 255.3C3506.08 259.21 3511.26 264.385 3515.17 270.825C3519.31 277.265 3521.38 285.545 3521.38 295.665C3521.38 311.995 3515.51 324.99 3503.78 334.65C3492.05 344.08 3476.07 348.795 3455.83 348.795ZM3617.17 345V102.465H3650.29L3748.61 259.785H3729.64L3827.62 102.465H3860.74V345H3814.16V182.85L3823.13 185.61L3754.82 295.32H3723.08L3654.77 185.61L3664.09 182.85V345H3617.17ZM3973.07 348.45C3958.35 348.45 3945.24 345.345 3933.74 339.135C3922.47 332.925 3913.62 324.3 3907.18 313.26C3900.74 302.22 3897.52 289.455 3897.52 274.965V178.365H3943.06V273.93C3943.06 280.83 3944.21 286.81 3946.51 291.87C3948.81 296.7 3952.26 300.38 3956.86 302.91C3961.46 305.44 3966.86 306.705 3973.07 306.705C3982.5 306.705 3989.86 303.83 3995.15 298.08C4000.44 292.33 4003.09 284.28 4003.09 273.93V178.365H4048.28V274.965C4048.28 289.685 4045.06 302.565 4038.62 313.605C4032.41 324.645 4023.56 333.27 4012.06 339.48C4000.79 345.46 3987.79 348.45 3973.07 348.45ZM4192.95 345V249.435C4192.95 239.545 4189.84 231.495 4183.63 225.285C4177.42 219.075 4169.37 215.97 4159.48 215.97C4153.04 215.97 4147.29 217.35 4142.23 220.11C4137.17 222.87 4133.15 226.78 4130.16 231.84C4127.4 236.9 4126.02 242.765 4126.02 249.435L4108.42 240.465C4108.42 227.355 4111.18 215.97 4116.7 206.31C4122.45 196.42 4130.27 188.715 4140.16 183.195C4150.28 177.675 4161.67 174.915 4174.32 174.915C4186.51 174.915 4197.43 178.02 4207.09 184.23C4216.75 190.21 4224.34 198.145 4229.86 208.035C4235.38 217.695 4238.14 228.16 4238.14 239.43V345H4192.95ZM4080.82 345V178.365H4126.02V345H4080.82ZM4271.1 345V178.365H4316.64V345H4271.1ZM4293.87 151.455C4286.51 151.455 4280.41 149.04 4275.58 144.21C4270.75 139.15 4268.34 132.94 4268.34 125.58C4268.34 118.45 4270.75 112.355 4275.58 107.295C4280.41 102.235 4286.51 99.705 4293.87 99.705C4301.46 99.705 4307.55 102.235 4312.15 107.295C4316.98 112.355 4319.4 118.45 4319.4 125.58C4319.4 132.94 4316.98 139.15 4312.15 144.21C4307.55 149.04 4301.46 151.455 4293.87 151.455ZM4431.88 348.45C4414.86 348.45 4399.57 344.655 4386 337.065C4372.43 329.475 4361.73 319.125 4353.91 306.015C4346.09 292.905 4342.18 278.185 4342.18 261.855C4342.18 245.295 4346.09 230.46 4353.91 217.35C4361.73 204.24 4372.43 193.89 4386 186.3C4399.8 178.48 4415.09 174.57 4431.88 174.57C4444.99 174.57 4457.07 176.985 4468.11 181.815C4479.15 186.645 4488.69 193.545 4496.74 202.515L4467.76 231.84C4463.39 227.01 4458.1 223.33 4451.89 220.8C4445.91 218.27 4439.24 217.005 4431.88 217.005C4423.6 217.005 4416.13 218.96 4409.46 222.87C4403.02 226.55 4397.84 231.725 4393.93 238.395C4390.25 244.835 4388.41 252.54 4388.41 261.51C4388.41 270.25 4390.25 278.07 4393.93 284.97C4397.84 291.64 4403.02 296.93 4409.46 300.84C4416.13 304.52 4423.6 306.36 4431.88 306.36C4439.47 306.36 4446.26 305.095 4452.24 302.565C4458.45 299.805 4463.74 295.895 4468.11 290.835L4497.43 320.16C4488.92 329.36 4479.15 336.375 4468.11 341.205C4457.07 346.035 4444.99 348.45 4431.88 348.45ZM4519.58 345V178.365H4565.12V345H4519.58ZM4542.35 151.455C4534.99 151.455 4528.89 149.04 4524.06 144.21C4519.23 139.15 4516.82 132.94 4516.82 125.58C4516.82 118.45 4519.23 112.355 4524.06 107.295C4528.89 102.235 4534.99 99.705 4542.35 99.705C4549.94 99.705 4556.03 102.235 4560.63 107.295C4565.46 112.355 4567.88 118.45 4567.88 125.58C4567.88 132.94 4565.46 139.15 4560.63 144.21C4556.03 149.04 4549.94 151.455 4542.35 151.455ZM4694.16 348.45C4682.2 348.45 4671.39 346.035 4661.73 341.205C4652.07 336.145 4644.37 329.36 4638.62 320.85C4632.87 312.34 4629.76 302.565 4629.3 291.525V232.53C4629.76 221.49 4632.87 211.715 4638.62 203.205C4644.6 194.465 4652.3 187.565 4661.73 182.505C4671.39 177.445 4682.2 174.915 4694.16 174.915C4709.57 174.915 4723.37 178.71 4735.56 186.3C4747.75 193.89 4757.3 204.24 4764.2 217.35C4771.33 230.46 4774.89 245.295 4774.89 261.855C4774.89 278.185 4771.33 292.905 4764.2 306.015C4757.3 319.125 4747.75 329.475 4735.56 337.065C4723.37 344.655 4709.57 348.45 4694.16 348.45ZM4601.7 414.69V178.365H4646.9V222.18L4639.31 262.545L4646.55 302.91V414.69H4601.7ZM4686.23 306.705C4694.51 306.705 4701.87 304.865 4708.31 301.185C4714.75 297.275 4719.69 291.985 4723.14 285.315C4726.82 278.415 4728.66 270.48 4728.66 261.51C4728.66 252.77 4726.82 245.065 4723.14 238.395C4719.69 231.495 4714.75 226.205 4708.31 222.525C4701.87 218.615 4694.51 216.66 4686.23 216.66C4678.18 216.66 4670.93 218.615 4664.49 222.525C4658.05 226.205 4652.99 231.495 4649.31 238.395C4645.86 245.065 4644.14 252.77 4644.14 261.51C4644.14 270.48 4645.86 278.415 4649.31 285.315C4652.99 291.985 4657.94 297.275 4664.15 301.185C4670.59 304.865 4677.95 306.705 4686.23 306.705ZM4870.77 348.45C4855.59 348.45 4841.9 344.655 4829.71 337.065C4817.52 329.475 4807.98 319.125 4801.08 306.015C4794.18 292.905 4790.73 278.185 4790.73 261.855C4790.73 245.295 4794.18 230.46 4801.08 217.35C4807.98 204.24 4817.52 193.89 4829.71 186.3C4841.9 178.71 4855.59 174.915 4870.77 174.915C4882.73 174.915 4893.42 177.33 4902.85 182.16C4912.28 186.99 4919.76 193.775 4925.28 202.515C4931.03 211.025 4934.13 220.685 4934.59 231.495V291.525C4934.13 302.565 4931.03 312.34 4925.28 320.85C4919.76 329.36 4912.28 336.145 4902.85 341.205C4893.42 346.035 4882.73 348.45 4870.77 348.45ZM4879.05 306.705C4891.7 306.705 4901.93 302.565 4909.75 294.285C4917.57 285.775 4921.48 274.85 4921.48 261.51C4921.48 252.77 4919.64 245.065 4915.96 238.395C4912.51 231.495 4907.57 226.205 4901.13 222.525C4894.92 218.615 4887.56 216.66 4879.05 216.66C4870.77 216.66 4863.41 218.615 4856.97 222.525C4850.76 226.205 4845.81 231.495 4842.13 238.395C4838.68 245.065 4836.96 252.77 4836.96 261.51C4836.96 270.48 4838.68 278.415 4842.13 285.315C4845.81 291.985 4850.76 297.275 4856.97 301.185C4863.41 304.865 4870.77 306.705 4879.05 306.705ZM4919.07 345V300.15L4926.31 259.44L4919.07 219.42V178.365H4963.92V345H4919.07ZM5000.45 345V95.565H5045.64V345H5000.45ZM956.265 783.45C940.855 783.45 927.055 779.655 914.865 772.065C902.675 764.475 893.015 754.125 885.885 741.015C878.985 727.905 875.535 713.185 875.535 696.855C875.535 680.295 878.985 665.46 885.885 652.35C893.015 639.24 902.56 628.89 914.52 621.3C926.71 613.71 940.625 609.915 956.265 609.915C968.225 609.915 978.92 612.33 988.35 617.16C998.01 621.99 1005.72 628.775 1011.47 637.515C1017.45 646.025 1020.67 655.685 1021.13 666.495V725.835C1020.67 736.645 1017.56 746.42 1011.81 755.16C1006.06 763.9 998.355 770.8 988.695 775.86C979.035 780.92 968.225 783.45 956.265 783.45ZM963.855 741.705C972.365 741.705 979.725 739.865 985.935 736.185C992.375 732.275 997.32 726.985 1000.77 720.315C1004.45 713.415 1006.29 705.48 1006.29 696.51C1006.29 687.77 1004.45 680.065 1000.77 673.395C997.32 666.495 992.375 661.205 985.935 657.525C979.725 653.615 972.48 651.66 964.2 651.66C955.69 651.66 948.215 653.615 941.775 657.525C935.565 661.435 930.62 666.725 926.94 673.395C923.49 680.065 921.765 687.77 921.765 696.51C921.765 705.48 923.49 713.415 926.94 720.315C930.62 726.985 935.68 732.275 942.12 736.185C948.56 739.865 955.805 741.705 963.855 741.705ZM1048.73 780H1003.88V735.15L1011.12 694.44L1003.53 654.42V530.565H1048.73V780ZM1164.95 783.45C1147.47 783.45 1131.95 779.77 1118.38 772.41C1104.81 764.82 1094 754.47 1085.95 741.36C1078.13 728.25 1074.22 713.3 1074.22 696.51C1074.22 679.95 1078.01 665.23 1085.6 652.35C1093.42 639.24 1104 628.89 1117.34 621.3C1130.68 613.48 1145.52 609.57 1161.85 609.57C1177.95 609.57 1192.09 613.25 1204.28 620.61C1216.7 627.74 1226.36 637.63 1233.26 650.28C1240.39 662.7 1243.96 676.845 1243.96 692.715C1243.96 695.705 1243.73 698.81 1243.27 702.03C1243.04 705.02 1242.46 708.47 1241.54 712.38L1101.47 712.725V678.915L1220.5 678.57L1202.21 692.715C1201.75 682.825 1199.91 674.545 1196.69 667.875C1193.7 661.205 1189.22 656.145 1183.24 652.695C1177.49 649.015 1170.36 647.175 1161.85 647.175C1152.88 647.175 1145.06 649.245 1138.39 653.385C1131.72 657.295 1126.54 662.93 1122.86 670.29C1119.41 677.42 1117.69 685.93 1117.69 695.82C1117.69 705.94 1119.53 714.795 1123.21 722.385C1127.12 729.745 1132.64 735.495 1139.77 739.635C1146.9 743.545 1155.18 745.5 1164.61 745.5C1173.12 745.5 1180.82 744.12 1187.72 741.36C1194.62 738.37 1200.6 734 1205.66 728.25L1232.23 754.815C1224.18 764.245 1214.29 771.375 1202.56 776.205C1191.06 781.035 1178.52 783.45 1164.95 783.45ZM1449.69 783.45C1431.98 783.45 1415.54 780.345 1400.36 774.135C1385.18 767.695 1371.84 758.84 1360.34 747.57C1349.07 736.07 1340.33 722.73 1334.12 707.55C1328.14 692.37 1325.15 676.04 1325.15 658.56C1325.15 641.08 1328.14 624.75 1334.12 609.57C1340.33 594.39 1349.07 581.165 1360.34 569.895C1371.84 558.625 1385.06 549.77 1400.01 543.33C1415.19 536.89 1431.75 533.67 1449.69 533.67C1469.01 533.67 1486.03 536.89 1500.75 543.33C1515.47 549.54 1528.47 558.165 1539.74 569.205L1508 600.945C1501.33 593.585 1493.16 587.835 1483.5 583.695C1473.84 579.555 1462.57 577.485 1449.69 577.485C1438.42 577.485 1428.07 579.44 1418.64 583.35C1409.44 587.03 1401.39 592.55 1394.49 599.91C1387.59 607.04 1382.3 615.665 1378.62 625.785C1374.94 635.675 1373.1 646.6 1373.1 658.56C1373.1 670.75 1374.94 681.79 1378.62 691.68C1382.3 701.57 1387.59 710.195 1394.49 717.555C1401.39 724.685 1409.44 730.205 1418.64 734.115C1428.07 738.025 1438.42 739.98 1449.69 739.98C1463.26 739.98 1474.88 737.91 1484.54 733.77C1494.43 729.63 1502.71 723.765 1509.38 716.175L1541.12 747.915C1529.85 759.185 1516.74 767.925 1501.79 774.135C1486.84 780.345 1469.47 783.45 1449.69 783.45ZM1630.76 783.45C1615.58 783.45 1601.9 779.655 1589.71 772.065C1577.52 764.475 1567.97 754.125 1561.07 741.015C1554.17 727.905 1550.72 713.185 1550.72 696.855C1550.72 680.295 1554.17 665.46 1561.07 652.35C1567.97 639.24 1577.52 628.89 1589.71 621.3C1601.9 613.71 1615.58 609.915 1630.76 609.915C1642.72 609.915 1653.42 612.33 1662.85 617.16C1672.28 621.99 1679.75 628.775 1685.27 637.515C1691.02 646.025 1694.13 655.685 1694.59 666.495V726.525C1694.13 737.565 1691.02 747.34 1685.27 755.85C1679.75 764.36 1672.28 771.145 1662.85 776.205C1653.42 781.035 1642.72 783.45 1630.76 783.45ZM1639.04 741.705C1651.69 741.705 1661.93 737.565 1669.75 729.285C1677.57 720.775 1681.48 709.85 1681.48 696.51C1681.48 687.77 1679.64 680.065 1675.96 673.395C1672.51 666.495 1667.56 661.205 1661.12 657.525C1654.91 653.615 1647.55 651.66 1639.04 651.66C1630.76 651.66 1623.4 653.615 1616.96 657.525C1610.75 661.205 1605.81 666.495 1602.13 673.395C1598.68 680.065 1596.95 687.77 1596.95 696.51C1596.95 705.48 1598.68 713.415 1602.13 720.315C1605.81 726.985 1610.75 732.275 1616.96 736.185C1623.4 739.865 1630.76 741.705 1639.04 741.705ZM1679.06 780V735.15L1686.31 694.44L1679.06 654.42V613.365H1723.91V780H1679.06ZM1872.57 780V684.435C1872.57 674.545 1869.47 666.495 1863.26 660.285C1857.05 654.075 1849 650.97 1839.11 650.97C1832.67 650.97 1826.92 652.35 1821.86 655.11C1816.8 657.87 1812.77 661.78 1809.78 666.84C1807.02 671.9 1805.64 677.765 1805.64 684.435L1788.05 675.465C1788.05 662.355 1790.81 650.97 1796.33 641.31C1802.08 631.42 1809.9 623.715 1819.79 618.195C1829.91 612.675 1841.29 609.915 1853.94 609.915C1866.13 609.915 1877.06 613.02 1886.72 619.23C1896.38 625.21 1903.97 633.145 1909.49 643.035C1915.01 652.695 1917.77 663.16 1917.77 674.43V780H1872.57ZM1760.45 780V613.365H1805.64V780H1760.45ZM2020.41 783.45C2005.23 783.45 1991.55 779.655 1979.36 772.065C1967.17 764.475 1957.62 754.125 1950.72 741.015C1943.82 727.905 1940.37 713.185 1940.37 696.855C1940.37 680.295 1943.82 665.46 1950.72 652.35C1957.62 639.24 1967.17 628.89 1979.36 621.3C1991.55 613.71 2005.23 609.915 2020.41 609.915C2032.37 609.915 2043.07 612.33 2052.5 617.16C2061.93 621.99 2069.4 628.775 2074.92 637.515C2080.67 646.025 2083.78 655.685 2084.24 666.495V726.525C2083.78 737.565 2080.67 747.34 2074.92 755.85C2069.4 764.36 2061.93 771.145 2052.5 776.205C2043.07 781.035 2032.37 783.45 2020.41 783.45ZM2028.69 741.705C2041.34 741.705 2051.58 737.565 2059.4 729.285C2067.22 720.775 2071.13 709.85 2071.13 696.51C2071.13 687.77 2069.29 680.065 2065.61 673.395C2062.16 666.495 2057.21 661.205 2050.77 657.525C2044.56 653.615 2037.2 651.66 2028.69 651.66C2020.41 651.66 2013.05 653.615 2006.61 657.525C2000.4 661.205 1995.46 666.495 1991.78 673.395C1988.33 680.065 1986.6 687.77 1986.6 696.51C1986.6 705.48 1988.33 713.415 1991.78 720.315C1995.46 726.985 2000.4 732.275 2006.61 736.185C2013.05 739.865 2020.41 741.705 2028.69 741.705ZM2068.71 780V735.15L2075.96 694.44L2068.71 654.42V613.365H2113.56V780H2068.71ZM2219.78 783.45C2204.6 783.45 2190.92 779.655 2178.73 772.065C2166.54 764.475 2156.99 754.125 2150.09 741.015C2143.19 727.905 2139.74 713.185 2139.74 696.855C2139.74 680.295 2143.19 665.46 2150.09 652.35C2156.99 639.24 2166.54 628.89 2178.73 621.3C2190.92 613.71 2204.6 609.915 2219.78 609.915C2231.74 609.915 2242.44 612.33 2251.87 617.16C2261.3 621.99 2268.77 628.775 2274.29 637.515C2280.04 646.025 2283.15 655.685 2283.61 666.495V726.525C2283.15 737.565 2280.04 747.34 2274.29 755.85C2268.77 764.36 2261.3 771.145 2251.87 776.205C2242.44 781.035 2231.74 783.45 2219.78 783.45ZM2228.06 741.705C2240.71 741.705 2250.95 737.565 2258.77 729.285C2266.59 720.775 2270.5 709.85 2270.5 696.51C2270.5 687.77 2268.66 680.065 2264.98 673.395C2261.53 666.495 2256.58 661.205 2250.14 657.525C2243.93 653.615 2236.57 651.66 2228.06 651.66C2219.78 651.66 2212.42 653.615 2205.98 657.525C2199.77 661.205 2194.83 666.495 2191.15 673.395C2187.7 680.065 2185.97 687.77 2185.97 696.51C2185.97 705.48 2187.7 713.415 2191.15 720.315C2194.83 726.985 2199.77 732.275 2205.98 736.185C2212.42 739.865 2219.78 741.705 2228.06 741.705ZM2268.08 780V735.15L2275.33 694.44L2268.08 654.42V613.365H2312.93V780H2268.08ZM2257.39 591.975C2249.8 591.975 2243.36 590.595 2238.07 587.835C2232.78 585.075 2227.83 582.43 2223.23 579.9C2218.63 577.37 2213.69 576.105 2208.4 576.105C2202.88 576.105 2198.28 577.14 2194.6 579.21C2191.15 581.28 2187.81 584.5 2184.59 588.87L2161.82 566.1C2168.49 557.36 2175.28 550.69 2182.18 546.09C2189.31 541.49 2197.59 539.19 2207.02 539.19C2214.61 539.19 2221.05 540.57 2226.34 543.33C2231.63 545.86 2236.57 548.505 2241.17 551.265C2245.77 553.795 2250.72 555.06 2256.01 555.06C2261.76 555.06 2266.36 554.025 2269.81 551.955C2273.49 549.655 2276.82 546.435 2279.81 542.295L2302.58 564.72C2295.91 573.46 2289.01 580.245 2281.88 585.075C2274.98 589.675 2266.82 591.975 2257.39 591.975ZM2483.78 783.45C2468.37 783.45 2454.57 779.655 2442.38 772.065C2430.19 764.475 2420.53 754.125 2413.4 741.015C2406.5 727.905 2403.05 713.185 2403.05 696.855C2403.05 680.295 2406.5 665.46 2413.4 652.35C2420.53 639.24 2430.07 628.89 2442.03 621.3C2454.22 613.71 2468.14 609.915 2483.78 609.915C2495.74 609.915 2506.43 612.33 2515.86 617.16C2525.52 621.99 2533.23 628.775 2538.98 637.515C2544.96 646.025 2548.18 655.685 2548.64 666.495V725.835C2548.18 736.645 2545.07 746.42 2539.32 755.16C2533.57 763.9 2525.87 770.8 2516.21 775.86C2506.55 780.92 2495.74 783.45 2483.78 783.45ZM2491.37 741.705C2499.88 741.705 2507.24 739.865 2513.45 736.185C2519.89 732.275 2524.83 726.985 2528.28 720.315C2531.96 713.415 2533.8 705.48 2533.8 696.51C2533.8 687.77 2531.96 680.065 2528.28 673.395C2524.83 666.495 2519.89 661.205 2513.45 657.525C2507.24 653.615 2499.99 651.66 2491.71 651.66C2483.2 651.66 2475.73 653.615 2469.29 657.525C2463.08 661.435 2458.13 666.725 2454.45 673.395C2451 680.065 2449.28 687.77 2449.28 696.51C2449.28 705.48 2451 713.415 2454.45 720.315C2458.13 726.985 2463.19 732.275 2469.63 736.185C2476.07 739.865 2483.32 741.705 2491.37 741.705ZM2576.24 780H2531.39V735.15L2538.63 694.44L2531.04 654.42V530.565H2576.24V780ZM2691.09 783.45C2674.3 783.45 2659.12 779.655 2645.55 772.065C2632.21 764.245 2621.51 753.78 2613.46 740.67C2605.64 727.33 2601.73 712.495 2601.73 696.165C2601.73 679.835 2605.64 665.23 2613.46 652.35C2621.28 639.24 2631.98 628.89 2645.55 621.3C2659.12 613.48 2674.18 609.57 2690.74 609.57C2707.76 609.57 2722.94 613.48 2736.28 621.3C2749.85 628.89 2760.55 639.24 2768.37 652.35C2776.19 665.23 2780.1 679.835 2780.1 696.165C2780.1 712.495 2776.19 727.33 2768.37 740.67C2760.55 753.78 2749.85 764.245 2736.28 772.065C2722.94 779.655 2707.88 783.45 2691.09 783.45ZM2690.74 741.36C2699.25 741.36 2706.73 739.52 2713.17 735.84C2719.84 731.93 2724.9 726.64 2728.35 719.97C2732.03 713.07 2733.87 705.25 2733.87 696.51C2733.87 687.77 2732.03 680.065 2728.35 673.395C2724.67 666.725 2719.61 661.55 2713.17 657.87C2706.73 653.96 2699.25 652.005 2690.74 652.005C2682.46 652.005 2675.1 653.96 2668.66 657.87C2662.22 661.55 2657.16 666.725 2653.48 673.395C2649.8 680.065 2647.96 687.77 2647.96 696.51C2647.96 705.25 2649.8 713.07 2653.48 719.97C2657.16 726.64 2662.22 731.93 2668.66 735.84C2675.1 739.52 2682.46 741.36 2690.74 741.36ZM2863.01 783.795C2853.58 783.795 2844.27 782.53 2835.07 780C2826.1 777.47 2817.82 774.02 2810.23 769.65C2802.64 765.05 2796.08 759.53 2790.56 753.09L2817.47 725.835C2823.22 732.275 2829.89 737.105 2837.48 740.325C2845.07 743.545 2853.47 745.155 2862.67 745.155C2870.03 745.155 2875.55 744.12 2879.23 742.05C2883.14 739.98 2885.09 736.875 2885.09 732.735C2885.09 728.135 2883.02 724.57 2878.88 722.04C2874.97 719.51 2869.8 717.44 2863.36 715.83C2856.92 713.99 2850.13 712.035 2843 709.965C2836.1 707.665 2829.43 704.79 2822.99 701.34C2816.55 697.66 2811.26 692.715 2807.12 686.505C2803.21 680.065 2801.26 671.785 2801.26 661.665C2801.26 651.085 2803.79 641.885 2808.85 634.065C2814.14 626.245 2821.61 620.15 2831.27 615.78C2840.93 611.41 2852.32 609.225 2865.43 609.225C2879.23 609.225 2891.65 611.64 2902.69 616.47C2913.96 621.3 2923.27 628.545 2930.63 638.205L2903.38 665.46C2898.32 659.25 2892.57 654.765 2886.13 652.005C2879.92 649.245 2873.13 647.865 2865.77 647.865C2859.1 647.865 2853.93 648.9 2850.25 650.97C2846.8 653.04 2845.07 655.915 2845.07 659.595C2845.07 663.735 2847.03 666.955 2850.94 669.255C2855.08 671.555 2860.37 673.625 2866.81 675.465C2873.25 677.075 2879.92 679.03 2886.82 681.33C2893.95 683.4 2900.62 686.39 2906.83 690.3C2913.27 694.21 2918.44 699.385 2922.35 705.825C2926.49 712.265 2928.56 720.545 2928.56 730.665C2928.56 746.995 2922.7 759.99 2910.97 769.65C2899.24 779.08 2883.25 783.795 2863.01 783.795ZM3136.82 783.45C3119.11 783.45 3102.67 780.345 3087.49 774.135C3072.31 767.695 3058.97 758.84 3047.47 747.57C3036.2 736.07 3027.46 722.73 3021.25 707.55C3015.27 692.37 3012.28 676.04 3012.28 658.56C3012.28 641.08 3015.27 624.75 3021.25 609.57C3027.46 594.39 3036.2 581.165 3047.47 569.895C3058.97 558.625 3072.19 549.77 3087.14 543.33C3102.32 536.89 3118.88 533.67 3136.82 533.67C3156.14 533.67 3173.16 536.89 3187.88 543.33C3202.6 549.54 3215.6 558.165 3226.87 569.205L3195.13 600.945C3188.46 593.585 3180.29 587.835 3170.63 583.695C3160.97 579.555 3149.7 577.485 3136.82 577.485C3125.55 577.485 3115.2 579.44 3105.77 583.35C3096.57 587.03 3088.52 592.55 3081.62 599.91C3074.72 607.04 3069.43 615.665 3065.75 625.785C3062.07 635.675 3060.23 646.6 3060.23 658.56C3060.23 670.75 3062.07 681.79 3065.75 691.68C3069.43 701.57 3074.72 710.195 3081.62 717.555C3088.52 724.685 3096.57 730.205 3105.77 734.115C3115.2 738.025 3125.55 739.98 3136.82 739.98C3150.39 739.98 3162.01 737.91 3171.67 733.77C3181.56 729.63 3189.84 723.765 3196.51 716.175L3228.25 747.915C3216.98 759.185 3203.87 767.925 3188.92 774.135C3173.97 780.345 3156.6 783.45 3136.82 783.45ZM3317.9 783.45C3302.72 783.45 3289.03 779.655 3276.84 772.065C3264.65 764.475 3255.11 754.125 3248.21 741.015C3241.31 727.905 3237.86 713.185 3237.86 696.855C3237.86 680.295 3241.31 665.46 3248.21 652.35C3255.11 639.24 3264.65 628.89 3276.84 621.3C3289.03 613.71 3302.72 609.915 3317.9 609.915C3329.86 609.915 3340.55 612.33 3349.98 617.16C3359.41 621.99 3366.89 628.775 3372.41 637.515C3378.16 646.025 3381.26 655.685 3381.72 666.495V726.525C3381.26 737.565 3378.16 747.34 3372.41 755.85C3366.89 764.36 3359.41 771.145 3349.98 776.205C3340.55 781.035 3329.86 783.45 3317.9 783.45ZM3326.18 741.705C3338.83 741.705 3349.06 737.565 3356.88 729.285C3364.7 720.775 3368.61 709.85 3368.61 696.51C3368.61 687.77 3366.77 680.065 3363.09 673.395C3359.64 666.495 3354.7 661.205 3348.26 657.525C3342.05 653.615 3334.69 651.66 3326.18 651.66C3317.9 651.66 3310.54 653.615 3304.1 657.525C3297.89 661.205 3292.94 666.495 3289.26 673.395C3285.81 680.065 3284.09 687.77 3284.09 696.51C3284.09 705.48 3285.81 713.415 3289.26 720.315C3292.94 726.985 3297.89 732.275 3304.1 736.185C3310.54 739.865 3317.9 741.705 3326.18 741.705ZM3366.2 780V735.15L3373.44 694.44L3366.2 654.42V613.365H3411.05V780H3366.2ZM3447.58 780V613.365H3492.77V780H3447.58ZM3492.77 687.885L3475.18 676.155C3477.25 655.685 3483.23 639.585 3493.12 627.855C3503.01 615.895 3517.27 609.915 3535.9 609.915C3543.95 609.915 3551.19 611.295 3557.63 614.055C3564.07 616.585 3569.94 620.84 3575.23 626.82L3546.94 659.25C3544.41 656.49 3541.3 654.42 3537.62 653.04C3534.17 651.66 3530.15 650.97 3525.55 650.97C3515.89 650.97 3507.95 654.075 3501.74 660.285C3495.76 666.265 3492.77 675.465 3492.77 687.885ZM3652.63 783.45C3637.45 783.45 3623.76 779.655 3611.57 772.065C3599.38 764.475 3589.84 754.125 3582.94 741.015C3576.04 727.905 3572.59 713.185 3572.59 696.855C3572.59 680.295 3576.04 665.46 3582.94 652.35C3589.84 639.24 3599.38 628.89 3611.57 621.3C3623.76 613.71 3637.45 609.915 3652.63 609.915C3664.59 609.915 3675.28 612.33 3684.71 617.16C3694.14 621.99 3701.62 628.775 3707.14 637.515C3712.89 646.025 3715.99 655.685 3716.45 666.495V726.525C3715.99 737.565 3712.89 747.34 3707.14 755.85C3701.62 764.36 3694.14 771.145 3684.71 776.205C3675.28 781.035 3664.59 783.45 3652.63 783.45ZM3660.91 741.705C3673.56 741.705 3683.79 737.565 3691.61 729.285C3699.43 720.775 3703.34 709.85 3703.34 696.51C3703.34 687.77 3701.5 680.065 3697.82 673.395C3694.37 666.495 3689.43 661.205 3682.99 657.525C3676.78 653.615 3669.42 651.66 3660.91 651.66C3652.63 651.66 3645.27 653.615 3638.83 657.525C3632.62 661.205 3627.67 666.495 3623.99 673.395C3620.54 680.065 3618.82 687.77 3618.82 696.51C3618.82 705.48 3620.54 713.415 3623.99 720.315C3627.67 726.985 3632.62 732.275 3638.83 736.185C3645.27 739.865 3652.63 741.705 3660.91 741.705ZM3700.93 780V735.15L3708.17 694.44L3700.93 654.42V613.365H3745.78V780H3700.93ZM3768.85 853.83C3756.89 853.83 3747 851.875 3739.18 847.965C3731.13 844.055 3723.89 838.535 3717.45 831.405L3746.08 802.77C3748.84 806.22 3751.83 808.635 3755.05 810.015C3758.04 811.625 3761.61 812.43 3765.75 812.43C3771.5 812.43 3776.33 810.705 3780.24 807.255C3784.15 803.805 3786.1 798.745 3786.1 792.075V613.365H3831.3V791.385C3831.3 804.495 3828.42 815.65 3822.67 824.85C3817.15 834.28 3809.68 841.41 3800.25 846.24C3791.05 851.3 3780.58 853.83 3768.85 853.83ZM3809.22 586.455C3801.86 586.455 3795.76 584.04 3790.93 579.21C3786.1 574.15 3783.69 567.94 3783.69 560.58C3783.69 553.45 3786.1 547.355 3790.93 542.295C3795.76 537.235 3801.86 534.705 3809.22 534.705C3816.81 534.705 3822.9 537.235 3827.5 542.295C3832.33 547.355 3834.75 553.45 3834.75 560.58C3834.75 567.94 3832.33 574.15 3827.5 579.21C3822.9 584.04 3816.81 586.455 3809.22 586.455ZM3937.16 783.45C3921.98 783.45 3908.29 779.655 3896.1 772.065C3883.91 764.475 3874.37 754.125 3867.47 741.015C3860.57 727.905 3857.12 713.185 3857.12 696.855C3857.12 680.295 3860.57 665.46 3867.47 652.35C3874.37 639.24 3883.91 628.89 3896.1 621.3C3908.29 613.71 3921.98 609.915 3937.16 609.915C3949.12 609.915 3959.81 612.33 3969.24 617.16C3978.67 621.99 3986.15 628.775 3991.67 637.515C3997.42 646.025 4000.52 655.685 4000.98 666.495V726.525C4000.52 737.565 3997.42 747.34 3991.67 755.85C3986.15 764.36 3978.67 771.145 3969.24 776.205C3959.81 781.035 3949.12 783.45 3937.16 783.45ZM3945.44 741.705C3958.09 741.705 3968.32 737.565 3976.14 729.285C3983.96 720.775 3987.87 709.85 3987.87 696.51C3987.87 687.77 3986.03 680.065 3982.35 673.395C3978.9 666.495 3973.96 661.205 3967.52 657.525C3961.31 653.615 3953.95 651.66 3945.44 651.66C3937.16 651.66 3929.8 653.615 3923.36 657.525C3917.15 661.205 3912.2 666.495 3908.52 673.395C3905.07 680.065 3903.35 687.77 3903.35 696.51C3903.35 705.48 3905.07 713.415 3908.52 720.315C3912.2 726.985 3917.15 732.275 3923.36 736.185C3929.8 739.865 3937.16 741.705 3945.44 741.705ZM3985.46 780V735.15L3992.7 694.44L3985.46 654.42V613.365H4030.31V780H3985.46ZM3927.5 591.975L3910.25 570.585L3959.93 516.765L3988.91 551.955L3927.5 591.975ZM4124.11 783.795C4114.68 783.795 4105.36 782.53 4096.16 780C4087.19 777.47 4078.91 774.02 4071.32 769.65C4063.73 765.05 4057.18 759.53 4051.66 753.09L4078.57 725.835C4084.32 732.275 4090.99 737.105 4098.58 740.325C4106.17 743.545 4114.56 745.155 4123.76 745.155C4131.12 745.155 4136.64 744.12 4140.32 742.05C4144.23 739.98 4146.19 736.875 4146.19 732.735C4146.19 728.135 4144.12 724.57 4139.98 722.04C4136.07 719.51 4130.89 717.44 4124.45 715.83C4118.01 713.99 4111.23 712.035 4104.1 709.965C4097.2 707.665 4090.53 704.79 4084.09 701.34C4077.65 697.66 4072.36 692.715 4068.22 686.505C4064.31 680.065 4062.35 671.785 4062.35 661.665C4062.35 651.085 4064.88 641.885 4069.94 634.065C4075.23 626.245 4082.71 620.15 4092.37 615.78C4102.03 611.41 4113.41 609.225 4126.52 609.225C4140.32 609.225 4152.74 611.64 4163.78 616.47C4175.05 621.3 4184.37 628.545 4191.73 638.205L4164.47 665.46C4159.41 659.25 4153.66 654.765 4147.22 652.005C4141.01 649.245 4134.23 647.865 4126.87 647.865C4120.2 647.865 4115.02 648.9 4111.34 650.97C4107.89 653.04 4106.17 655.915 4106.17 659.595C4106.17 663.735 4108.12 666.955 4112.03 669.255C4116.17 671.555 4121.46 673.625 4127.9 675.465C4134.34 677.075 4141.01 679.03 4147.91 681.33C4155.04 683.4 4161.71 686.39 4167.92 690.3C4174.36 694.21 4179.54 699.385 4183.45 705.825C4187.59 712.265 4189.66 720.545 4189.66 730.665C4189.66 746.995 4183.79 759.99 4172.06 769.65C4160.33 779.08 4144.35 783.795 4124.11 783.795Z" fill="#4C5773"/>
</svg>
